<svg width="175" height="182" viewBox="0 0 175 182" fill="none" xmlns="http://www.w3.org/2000/svg">
<g clip-path="url(#clip0_9024_916)">
<rect width="175" height="182" rx="10" fill="white"/>
<g clip-path="url(#clip1_9024_916)">
<g opacity="0.5">
<path d="M99.4064 85.6395C98.0417 87.6439 96.5363 89.4199 94.8948 90.962L95.5106 91.0275C96.0067 91.0716 96.5039 91.1075 97.0004 91.1434C97.4968 91.1792 97.9932 91.215 98.4909 91.2427C98.62 91.2492 99.0077 91.3611 99.109 91.2657C100.751 89.7225 102.256 87.9477 103.621 85.9421L103.005 85.8766C102.509 85.8325 102.012 85.7966 101.515 85.7607C101.019 85.7249 100.522 85.6902 100.024 85.6626C99.9257 85.6576 99.4658 85.5526 99.4064 85.6395Z" fill="#4B2D5C"/>
<path d="M138.515 63.4324C140.006 61.52 141.237 59.5436 142.203 57.5091L142.454 58.0754C142.647 58.5342 142.833 58.9967 143.019 59.4584C143.205 59.92 143.391 60.3817 143.57 60.8471C143.616 60.968 143.841 61.3029 143.781 61.4285C142.814 63.4634 141.584 65.4394 140.092 67.3522L139.841 66.7859C139.648 66.3271 139.462 65.8654 139.275 65.4029C139.09 64.9412 138.905 64.4791 138.726 64.0137C138.691 63.9213 138.451 63.5155 138.515 63.4324Z" fill="#FCCFCE"/>
<path d="M70.221 37.2569C71.5858 39.2613 73.0911 41.0374 74.7327 42.5794L74.1168 42.6449C73.6208 42.689 73.1235 42.7249 72.6271 42.7608C72.1306 42.7966 71.6342 42.8325 71.1365 42.8601C71.0074 42.8666 70.6197 42.9786 70.5185 42.8832C68.8768 41.34 67.3715 39.5651 66.0068 37.5596L66.6226 37.494C67.1187 37.4499 67.6151 37.4141 68.1124 37.3782C68.6088 37.3423 69.1053 37.3077 69.603 37.28C69.7017 37.275 70.1616 37.1701 70.221 37.2569Z" fill="#FCCFCE"/>
<path d="M32.4271 101.447C31.1121 103.485 29.6509 105.297 28.0477 106.879L28.6651 106.93C29.162 106.962 29.66 106.985 30.1572 107.009C30.6544 107.032 31.1515 107.056 31.6497 107.071C31.779 107.075 32.1693 107.177 32.2682 107.079C33.8713 105.496 35.3326 103.685 36.6476 101.646L36.0303 101.596C35.5333 101.564 35.0362 101.54 34.5381 101.517C34.041 101.493 33.5438 101.471 33.0456 101.455C32.9467 101.453 32.4844 101.359 32.4271 101.447Z" fill="#F6A725"/>
<path d="M47.221 6.25694C48.5858 8.26132 50.0911 10.0374 51.7327 11.5794L51.1168 11.6449C50.6208 11.689 50.1235 11.7249 49.6271 11.7608C49.1306 11.7966 48.6342 11.8325 48.1365 11.8601C48.0074 11.8666 47.6197 11.9786 47.5185 11.8832C45.8768 10.34 44.3715 8.56514 43.0068 6.55957L43.6226 6.494C44.1187 6.44989 44.6151 6.41406 45.1124 6.37817C45.6088 6.34233 46.1053 6.30767 46.603 6.28004C46.7017 6.27503 47.1616 6.17005 47.221 6.25694Z" fill="#F6A725"/>
<path d="M149.757 149.096C148.392 147.092 146.887 145.316 145.245 143.774L145.861 143.708C146.357 143.664 146.854 143.628 147.351 143.592C147.847 143.556 148.344 143.521 148.841 143.493C148.97 143.486 149.358 143.374 149.459 143.47C151.101 145.013 152.606 146.788 153.971 148.793L153.355 148.859C152.859 148.903 152.363 148.939 151.865 148.975C151.369 149.011 150.872 149.045 150.375 149.073C150.276 149.078 149.816 149.183 149.757 149.096Z" fill="#4B2D5C"/>
<path d="M97.9448 122.716C96.5801 124.72 95.0748 126.496 93.4332 128.038L94.0491 128.104C94.5451 128.148 95.0424 128.184 95.5388 128.22C96.0353 128.256 96.5317 128.291 97.0294 128.319C97.1585 128.326 97.5462 128.438 97.6474 128.342C99.289 126.799 100.794 125.024 102.159 123.019L101.543 122.953C101.047 122.909 100.551 122.873 100.054 122.837C99.5571 122.801 99.0606 122.767 98.5629 122.739C98.4642 122.734 98.0042 122.629 97.9448 122.716Z" fill="#E9723D"/>
<path d="M115.519 66.2567C114.154 68.2611 112.649 70.0371 111.007 71.5791L111.623 71.6447C112.119 71.6888 112.616 71.7247 113.113 71.7605C113.609 71.7964 114.106 71.8322 114.603 71.8598C114.732 71.8664 115.12 71.9783 115.221 71.8829C116.863 70.3397 118.368 68.5649 119.733 66.5593L119.117 66.4938C118.621 66.4497 118.125 66.4138 117.627 66.3779C117.131 66.3421 116.634 66.3074 116.137 66.2798C116.038 66.2748 115.578 66.1698 115.519 66.2567Z" fill="#E9723D"/>
<path d="M137.053 100.509C138.544 98.5965 139.775 96.62 140.741 94.5855L140.992 95.1519C141.185 95.6106 141.372 96.0731 141.558 96.5348C141.744 96.9965 141.93 97.4581 142.108 97.9235C142.154 98.0444 142.379 98.3793 142.319 98.5049C141.352 100.54 140.122 102.516 138.63 104.429L138.38 103.862C138.186 103.404 138 102.942 137.814 102.479C137.628 102.018 137.443 101.556 137.264 101.09C137.229 100.998 136.989 100.592 137.053 100.509Z" fill="#1D6C65"/>
<path d="M28.5056 73.9149C29.8703 75.9193 31.3757 77.6953 33.0172 79.2373L32.4013 79.3029C31.9053 79.347 31.408 79.3829 30.9116 79.4187C30.4152 79.4546 29.9187 79.4904 29.421 79.518C29.292 79.5246 28.9043 79.6365 28.803 79.5411C27.1614 77.9979 25.6561 76.2231 24.2913 74.2175L24.9072 74.152C25.4032 74.1079 25.8996 74.072 26.3969 74.0361C26.8933 74.0003 27.3898 73.9656 27.8875 73.938C27.9863 73.933 28.4462 73.828 28.5056 73.9149Z" fill="#FCCFCE"/>
<path d="M166.221 42.2567C167.586 44.2611 169.091 46.0371 170.733 47.5791L170.117 47.6447C169.621 47.6888 169.124 47.7247 168.627 47.7605C168.131 47.7964 167.634 47.8322 167.137 47.8598C167.007 47.8664 166.62 47.9783 166.518 47.8829C164.877 46.3397 163.372 44.5649 162.007 42.5593L162.623 42.4938C163.119 42.4497 163.615 42.4138 164.112 42.3779C164.609 42.3421 165.105 42.3074 165.603 42.2798C165.702 42.2748 166.162 42.1698 166.221 42.2567Z" fill="#F6A725"/>
<path d="M30.9655 138.524C29.6505 140.561 28.1892 142.374 26.5861 143.956L27.2034 144.006C27.7003 144.038 28.1984 144.062 28.6955 144.085C29.1927 144.109 29.6898 144.132 30.1881 144.148C30.3173 144.151 30.7076 144.254 30.8065 144.156C32.4097 142.573 33.8709 140.761 35.1859 138.723L34.5686 138.672C34.0716 138.64 33.5745 138.617 33.0765 138.593C32.5793 138.57 32.0821 138.547 31.5839 138.532C31.4851 138.529 31.0227 138.436 30.9655 138.524Z" fill="#F6A725"/>
<path d="M148.295 186.173C146.93 184.168 145.425 182.392 143.783 180.85L144.399 180.785C144.895 180.74 145.393 180.705 145.889 180.669C146.385 180.633 146.882 180.597 147.38 180.569C147.509 180.563 147.896 180.451 147.998 180.546C149.639 182.089 151.145 183.864 152.509 185.87L151.893 185.935C151.397 185.98 150.901 186.015 150.404 186.051C149.907 186.087 149.411 186.122 148.913 186.149C148.814 186.154 148.354 186.259 148.295 186.173Z" fill="#4B2D5C"/>
<path d="M126.747 21.9699C124.597 20.849 122.431 19.9958 120.255 19.4132L120.767 19.0643C121.183 18.7909 121.604 18.5241 122.025 18.2578C122.445 17.9915 122.866 17.7252 123.291 17.4655C123.402 17.3987 123.691 17.1168 123.825 17.1529C126.001 17.7365 128.167 18.5887 130.318 19.7106L129.806 20.0595C129.39 20.3329 128.969 20.5992 128.548 20.866C128.128 21.1323 127.706 21.3976 127.281 21.6573C127.196 21.7084 126.841 22.0183 126.747 21.9699Z" fill="#4B2D5C"/>
<path d="M22.6684 39.1245C24.1593 37.2122 25.3899 35.2357 26.3559 33.2012L26.6067 33.7676C26.8004 34.2263 26.9867 34.6888 27.1726 35.1505C27.3586 35.6122 27.5445 36.0739 27.723 36.5393C27.7688 36.6602 27.9939 36.995 27.934 37.1206C26.9669 39.1556 25.7374 41.1316 24.2454 43.0443L23.9946 42.478C23.8009 42.0192 23.6149 41.5575 23.4287 41.0951C23.2427 40.6334 23.0579 40.1713 22.8794 39.7059C22.8444 39.6134 22.6038 39.2076 22.6684 39.1245Z" fill="#1D6C65"/>
<path d="M112.538 46.9717C114.029 45.0593 115.259 43.0829 116.225 41.0484L116.476 41.6147C116.67 42.0735 116.856 42.536 117.042 42.9977C117.228 43.4593 117.414 43.921 117.593 44.3864C117.638 44.5073 117.863 44.8422 117.804 44.9678C116.836 47.0027 115.607 48.9787 114.115 50.8915L113.864 50.3252C113.67 49.8664 113.484 49.4047 113.298 48.9422C113.112 48.4806 112.927 48.0184 112.749 47.553C112.714 47.4606 112.473 47.0548 112.538 46.9717Z" fill="#1D6C65"/>
<path d="M59.221 69.2569C60.5858 71.2613 62.0911 73.0374 63.7327 74.5794L63.1168 74.6449C62.6208 74.689 62.1235 74.7249 61.6271 74.7608C61.1306 74.7966 60.6342 74.8325 60.1365 74.8601C60.0074 74.8666 59.6197 74.9786 59.5185 74.8832C57.8768 73.34 56.3715 71.5651 55.0068 69.5596L55.6226 69.494C56.1187 69.4499 56.6151 69.4141 57.1124 69.3782C57.6088 69.3423 58.1053 69.3077 58.603 69.28C58.7017 69.275 59.1616 69.1701 59.221 69.2569Z" fill="#C73E4F"/>
<path d="M33.9101 124.788C32.5453 122.784 31.04 121.008 29.3984 119.466L30.0143 119.4C30.5103 119.356 31.0076 119.32 31.504 119.285C32.0005 119.249 32.4969 119.213 32.9946 119.185C33.1237 119.179 33.5114 119.067 33.6127 119.162C35.2543 120.705 36.7596 122.48 38.1244 124.486L37.5085 124.551C37.0124 124.596 36.516 124.631 36.0187 124.667C35.5223 124.703 35.0258 124.738 34.5281 124.765C34.4294 124.77 33.9695 124.875 33.9101 124.788Z" fill="#4B2D5C"/>
<path d="M52.1721 161.063C54.2583 162.334 56.122 163.757 57.7572 165.33L57.7917 164.707C57.8107 164.206 57.8214 163.704 57.8322 163.202C57.8429 162.701 57.8536 162.2 57.8559 161.698C57.8559 161.568 57.9488 161.172 57.8476 161.075C56.2112 159.502 54.3488 158.078 52.2614 156.808L52.2269 157.431C52.2078 157.932 52.1971 158.433 52.1864 158.935C52.1757 159.437 52.1662 159.938 52.1638 160.44C52.1638 160.539 52.0817 161.008 52.1721 161.063Z" fill="#2B3142"/>
<path d="M122.968 171.223C124.333 173.228 125.838 175.004 127.48 176.546L126.864 176.611C126.368 176.656 125.87 176.691 125.374 176.727C124.878 176.763 124.381 176.799 123.883 176.827C123.754 176.833 123.367 176.945 123.265 176.85C121.624 175.307 120.118 173.532 118.754 171.526L119.37 171.461C119.866 171.416 120.362 171.381 120.859 171.345C121.356 171.309 121.852 171.274 122.35 171.247C122.449 171.242 122.909 171.137 122.968 171.223Z" fill="#FCCFCE"/>
<path d="M70.9778 154.047C68.8275 152.926 66.6613 152.072 64.4857 151.49L64.9974 151.141C65.4136 150.868 65.8348 150.601 66.2553 150.334C66.6758 150.068 67.0963 149.802 67.5218 149.542C67.6324 149.475 67.9211 149.193 68.0555 149.23C70.2316 149.813 72.3973 150.665 74.5481 151.787L74.0364 152.136C73.6202 152.41 73.1997 152.676 72.7785 152.943C72.358 153.209 71.9369 153.474 71.5115 153.734C71.4268 153.785 71.0712 154.095 70.9778 154.047Z" fill="#4B2D5C"/>
</g>
</g>
</g>
<defs>
<clipPath id="clip0_9024_916">
<rect width="175" height="182" fill="white"/>
</clipPath>
<clipPath id="clip1_9024_916">
<rect width="375" height="405" fill="white" transform="translate(-100)"/>
</clipPath>
</defs>
</svg>
