<svg width="175" height="182" viewBox="0 0 175 182" fill="none" xmlns="http://www.w3.org/2000/svg">
<g clip-path="url(#clip0_9024_916)">
<rect width="175" height="182" rx="10" fill="white"/>
<g clip-path="url(#clip1_9024_916)">
<g opacity="0.5">
<path d="M99.4064 85.6395C98.0417 87.6439 96.5363 89.4199 94.8948 90.962L95.5106 91.0275C96.0067 91.0716 96.5039 91.1075 97.0004 91.1434C97.4968 91.1792 97.9932 91.215 98.4909 91.2427C98.62 91.2492 99.0077 91.3611 99.109 91.2657C100.751 89.7225 102.256 87.9477 103.621 85.9421L103.005 85.8766C102.509 85.8325 102.012 85.7966 101.515 85.7607C101.019 85.7249 100.522 85.6902 100.024 85.6626C99.9257 85.6576 99.4658 85.5526 99.4064 85.6395Z" fill="#4B2D5C"/>
<path d="M138.515 63.4324C140.006 61.52 141.237 59.5436 142.203 57.5091L142.454 58.0754C142.647 58.5342 142.833 58.9967 143.019 59.4584C143.205 59.92 143.391 60.3817 143.57 60.8471C143.616 60.968 143.841 61.3029 143.781 61.4285C142.814 63.4634 141.584 65.4394 140.092 67.3522L139.841 66.7859C139.648 66.3271 139.462 65.8654 139.275 65.4029C139.09 64.9412 138.905 64.4791 138.726 64.0137C138.691 63.9213 138.451 63.5155 138.515 63.4324Z" fill="#FCCFCE"/>
<path d="M65.5377 109.972C67.0287 108.059 68.2592 106.083 69.2253 104.048L69.4761 104.615C69.6698 105.074 69.856 105.536 70.042 105.998C70.228 106.459 70.4139 106.921 70.5924 107.386C70.6381 107.507 70.8633 107.842 70.8034 107.968C69.8362 110.003 68.6068 111.979 67.1148 113.891L66.864 113.325C66.6703 112.866 66.4843 112.405 66.2981 111.942C66.1121 111.481 65.9273 111.018 65.7488 110.553C65.7138 110.461 65.4732 110.055 65.5377 109.972Z" fill="#FCCFCE"/>
<path d="M70.221 37.2569C71.5858 39.2613 73.0911 41.0374 74.7327 42.5794L74.1168 42.6449C73.6208 42.689 73.1235 42.7249 72.6271 42.7608C72.1306 42.7966 71.6342 42.8325 71.1365 42.8601C71.0074 42.8666 70.6197 42.9786 70.5185 42.8832C68.8768 41.34 67.3715 39.5651 66.0068 37.5596L66.6226 37.494C67.1187 37.4499 67.6151 37.4141 68.1124 37.3782C68.6088 37.3423 69.1053 37.3077 69.603 37.28C69.7017 37.275 70.1616 37.1701 70.221 37.2569Z" fill="#FCCFCE"/>
<path d="M94.2209 16.2569C95.5856 18.2613 97.091 20.0374 98.7326 21.5794L98.1167 21.6449C97.6207 21.689 97.1234 21.7249 96.6269 21.7608C96.1305 21.7966 95.6341 21.8325 95.1364 21.8601C95.0073 21.8666 94.6196 21.9786 94.5183 21.8832C92.8767 20.34 91.3714 18.5651 90.0066 16.5596L90.6225 16.494C91.1185 16.4499 91.615 16.4141 92.1122 16.3782C92.6087 16.3423 93.1052 16.3077 93.6029 16.28C93.7016 16.275 94.1615 16.1701 94.2209 16.2569Z" fill="#FCCFCE"/>
<path d="M48.383 95.1527C47.068 97.19 45.6067 99.0025 44.0036 100.584L44.6209 100.635C45.1179 100.667 45.6159 100.69 46.1131 100.714C46.6102 100.738 47.1074 100.761 47.6056 100.777C47.7348 100.78 48.1251 100.882 48.224 100.784C49.8272 99.2014 51.2884 97.3901 52.6035 95.3516L51.9861 95.3011C51.4892 95.2693 50.992 95.2456 50.494 95.222C49.9968 95.1984 49.4996 95.1759 49.0014 95.1605C48.9026 95.158 48.4402 95.0643 48.383 95.1527Z" fill="#F6A725"/>
<path d="M48.383 95.3516C47.068 97.3889 45.6067 99.2014 44.0036 100.783L44.6209 100.834C45.1179 100.866 45.6159 100.889 46.1131 100.913C46.6102 100.937 47.1074 100.96 47.6056 100.976C47.7348 100.979 48.1251 101.081 48.224 100.983C49.8272 99.4003 51.2884 97.589 52.6035 95.5504L51.9861 95.5C51.4892 95.4682 50.992 95.4445 50.494 95.4209C49.9968 95.3973 49.4996 95.3748 49.0014 95.3594C48.9026 95.3569 48.4402 95.2632 48.383 95.3516Z" fill="#F6A725"/>
<path d="M98.3881 45.1527C97.0731 47.19 95.6119 49.0025 94.0087 50.5844L94.6261 50.6348C95.123 50.6667 95.621 50.6904 96.1182 50.714C96.6153 50.7376 97.1125 50.7612 97.6107 50.7766C97.74 50.78 98.1303 50.8824 98.2292 50.7845C99.8323 49.2014 101.294 47.3901 102.609 45.3516L101.991 45.3011C101.494 45.2693 100.997 45.2456 100.499 45.222C100.002 45.1984 99.5048 45.1759 99.0065 45.1605C98.9077 45.158 98.4454 45.0643 98.3881 45.1527Z" fill="#F6A725"/>
<path d="M98.3881 45.3516C97.0731 47.3889 95.6119 49.2014 94.0087 50.7833L94.6261 50.8337C95.123 50.8656 95.621 50.8893 96.1182 50.9129C96.6153 50.9365 97.1125 50.9601 97.6107 50.9755C97.74 50.9789 98.1303 51.0813 98.2292 50.9834C99.8323 49.4003 101.294 47.589 102.609 45.5504L101.991 45.5C101.494 45.4682 100.997 45.4445 100.499 45.4209C100.002 45.3973 99.5048 45.3748 99.0065 45.3594C98.9077 45.3569 98.4454 45.2632 98.3881 45.3516Z" fill="#F6A725"/>
<path d="M158.383 116.153C157.068 118.19 155.607 120.003 154.004 121.585L154.621 121.635C155.118 121.667 155.616 121.691 156.113 121.714C156.61 121.738 157.107 121.761 157.606 121.777C157.735 121.78 158.125 121.882 158.224 121.785C159.827 120.202 161.288 118.39 162.603 116.352L161.986 116.301C161.489 116.269 160.992 116.246 160.494 116.222C159.997 116.199 159.5 116.176 159.001 116.161C158.903 116.158 158.44 116.064 158.383 116.153Z" fill="#F6A725"/>
<path d="M47.221 6.25694C48.5858 8.26132 50.0911 10.0374 51.7327 11.5794L51.1168 11.6449C50.6208 11.689 50.1235 11.7249 49.6271 11.7608C49.1306 11.7966 48.6342 11.8325 48.1365 11.8601C48.0074 11.8666 47.6197 11.9786 47.5185 11.8832C45.8768 10.34 44.3715 8.56514 43.0068 6.55957L43.6226 6.494C44.1187 6.44989 44.6151 6.41406 45.1124 6.37817C45.6088 6.34233 46.1053 6.30767 46.603 6.28004C46.7017 6.27503 47.1616 6.17005 47.221 6.25694Z" fill="#F6A725"/>
<path d="M149.757 149.096C148.392 147.092 146.887 145.316 145.245 143.774L145.861 143.708C146.357 143.664 146.854 143.628 147.351 143.592C147.847 143.556 148.344 143.521 148.841 143.493C148.97 143.486 149.358 143.374 149.459 143.47C151.101 145.013 152.606 146.788 153.971 148.793L153.355 148.859C152.859 148.903 152.363 148.939 151.865 148.975C151.369 149.011 150.872 149.045 150.375 149.073C150.276 149.078 149.816 149.183 149.757 149.096Z" fill="#4B2D5C"/>
<path d="M97.9448 122.716C96.5801 124.721 95.0748 126.497 93.4332 128.039L94.0491 128.104C94.5451 128.148 95.0424 128.184 95.5388 128.22C96.0353 128.256 96.5317 128.292 97.0294 128.319C97.1585 128.326 97.5462 128.438 97.6474 128.342C99.289 126.799 100.794 125.024 102.159 123.019L101.543 122.953C101.047 122.909 100.551 122.873 100.054 122.837C99.5571 122.802 99.0606 122.767 98.5629 122.739C98.4642 122.734 98.0042 122.629 97.9448 122.716Z" fill="#E9723D"/>
<path d="M45.5186 45.2567C44.1539 47.2611 42.6485 49.0371 41.0069 50.5791L41.6228 50.6447C42.1188 50.6888 42.6161 50.7247 43.1126 50.7605C43.609 50.7964 44.1054 50.8322 44.6031 50.8598C44.7322 50.8664 45.1199 50.9783 45.2212 50.8829C46.8628 49.3397 48.3681 47.5649 49.7329 45.5593L49.117 45.4938C48.621 45.4497 48.1245 45.4138 47.6273 45.3779C47.1308 45.3421 46.6343 45.3074 46.1366 45.2798C46.0379 45.2748 45.578 45.1698 45.5186 45.2567Z" fill="#E9723D"/>
<path d="M11.5186 57.2567C10.1539 59.2611 8.64848 61.0371 7.00694 62.5791L7.62283 62.6447C8.11884 62.6888 8.61612 62.7247 9.11256 62.7605C9.60899 62.7964 10.1054 62.8322 10.6031 62.8598C10.7322 62.8664 11.1199 62.9783 11.2212 62.8829C12.8628 61.3397 14.3681 59.5649 15.7329 57.5593L15.117 57.4938C14.621 57.4497 14.1245 57.4138 13.6273 57.3779C13.1308 57.3421 12.6343 57.3074 12.1366 57.2798C12.0379 57.2748 11.578 57.1698 11.5186 57.2567Z" fill="#E9723D"/>
<path d="M115.519 66.2569C114.154 68.2613 112.649 70.0374 111.007 71.5794L111.623 71.6449C112.119 71.689 112.616 71.7249 113.113 71.7608C113.609 71.7966 114.106 71.8325 114.603 71.8601C114.732 71.8666 115.12 71.9786 115.221 71.8832C116.863 70.34 118.368 68.5651 119.733 66.5596L119.117 66.494C118.621 66.4499 118.125 66.4141 117.627 66.3782C117.131 66.3423 116.634 66.3077 116.137 66.28C116.038 66.275 115.578 66.1701 115.519 66.2569Z" fill="#E9723D"/>
<path d="M137.053 100.509C138.544 98.5965 139.775 96.62 140.741 94.5855L140.992 95.1519C141.185 95.6106 141.372 96.0731 141.558 96.5348C141.744 96.9965 141.93 97.4581 142.108 97.9235C142.154 98.0444 142.379 98.3793 142.319 98.5049C141.352 100.54 140.122 102.516 138.63 104.429L138.38 103.862C138.186 103.404 138 102.942 137.814 102.479C137.628 102.018 137.443 101.556 137.264 101.09C137.229 100.998 136.989 100.592 137.053 100.509Z" fill="#1D6C65"/>
<path d="M117.538 152.972C119.029 151.059 120.259 149.083 121.225 147.048L121.476 147.615C121.67 148.074 121.856 148.536 122.042 148.998C122.228 149.459 122.414 149.921 122.592 150.386C122.638 150.507 122.863 150.842 122.803 150.968C121.836 153.003 120.607 154.979 119.115 156.891L118.864 156.325C118.67 155.866 118.484 155.405 118.298 154.942C118.112 154.481 117.927 154.018 117.749 153.553C117.714 153.461 117.473 153.055 117.538 152.972Z" fill="#1D6C65"/>
<path d="M82.5377 67.9717C84.0287 66.0593 85.2592 64.0829 86.2253 62.0484L86.4761 62.6147C86.6698 63.0735 86.856 63.536 87.042 63.9977C87.228 64.4593 87.4139 64.921 87.5924 65.3864C87.6381 65.5073 87.8633 65.8422 87.8034 65.9678C86.8362 68.0027 85.6068 69.9787 84.1148 71.8915L83.864 71.3252C83.6703 70.8664 83.4843 70.4047 83.2981 69.9422C83.1121 69.4806 82.9273 69.0184 82.7488 68.553C82.7138 68.4606 82.4732 68.0548 82.5377 67.9717Z" fill="#1D6C65"/>
<path d="M153.538 18.9714C155.029 17.0591 156.259 15.0827 157.225 13.0482L157.476 13.6145C157.67 14.0733 157.856 14.5357 158.042 14.9974C158.228 15.4591 158.414 15.9208 158.592 16.3862C158.638 16.5071 158.863 16.842 158.803 16.9676C157.836 19.0025 156.607 20.9785 155.115 22.8912L154.864 22.3249C154.67 21.8662 154.484 21.4045 154.298 20.942C154.112 20.4803 153.927 20.0182 153.749 19.5528C153.714 19.4603 153.473 19.0546 153.538 18.9714Z" fill="#1D6C65"/>
<path d="M28.5056 73.9149C29.8703 75.9193 31.3757 77.6953 33.0172 79.2373L32.4013 79.3029C31.9053 79.347 31.408 79.3829 30.9116 79.4187C30.4152 79.4546 29.9187 79.4904 29.421 79.518C29.292 79.5246 28.9043 79.6365 28.803 79.5411C27.1614 77.9979 25.6561 76.2231 24.2913 74.2175L24.9072 74.152C25.4032 74.1079 25.8996 74.072 26.3969 74.0361C26.8933 74.0003 27.3898 73.9656 27.8875 73.938C27.9863 73.933 28.4462 73.828 28.5056 73.9149Z" fill="#FCCFCE"/>
<path d="M166.221 42.2569C167.586 44.2613 169.091 46.0374 170.733 47.5794L170.117 47.6449C169.621 47.689 169.124 47.7249 168.627 47.7608C168.131 47.7966 167.634 47.8325 167.137 47.8601C167.007 47.8666 166.62 47.9786 166.518 47.8832C164.877 46.34 163.372 44.5651 162.007 42.5596L162.623 42.494C163.119 42.4499 163.615 42.4141 164.112 42.3782C164.609 42.3423 165.105 42.3077 165.603 42.28C165.702 42.275 166.162 42.1701 166.221 42.2569Z" fill="#F6A725"/>
<path d="M30.9655 138.524C29.6505 140.561 28.1892 142.374 26.5861 143.956L27.2034 144.006C27.7003 144.038 28.1984 144.062 28.6955 144.085C29.1927 144.109 29.6898 144.133 30.1881 144.148C30.3173 144.151 30.7076 144.254 30.8065 144.156C32.4097 142.573 33.8709 140.762 35.1859 138.723L34.5686 138.673C34.0716 138.641 33.5745 138.617 33.0765 138.593C32.5793 138.57 32.0821 138.547 31.5839 138.532C31.4851 138.529 31.0227 138.436 30.9655 138.524Z" fill="#F6A725"/>
<path d="M148.295 186.173C146.93 184.168 145.425 182.392 143.783 180.85L144.399 180.785C144.895 180.74 145.393 180.705 145.889 180.669C146.385 180.633 146.882 180.597 147.38 180.569C147.509 180.563 147.896 180.451 147.998 180.546C149.639 182.089 151.145 183.864 152.509 185.87L151.893 185.935C151.397 185.98 150.901 186.015 150.404 186.051C149.907 186.087 149.411 186.122 148.913 186.149C148.814 186.154 148.354 186.259 148.295 186.173Z" fill="#4B2D5C"/>
<path d="M131.563 15.0465C129.412 13.9256 127.246 13.0725 125.071 12.4899L125.582 12.1409C125.999 11.8675 126.42 11.6008 126.84 11.3345C127.261 11.0681 127.681 10.8018 128.107 10.5422C128.217 10.4754 128.506 10.1934 128.64 10.2296C130.817 10.8132 132.982 11.6653 135.133 12.7872L134.621 13.1362C134.205 13.4096 133.785 13.6759 133.363 13.9427C132.943 14.209 132.522 14.4743 132.096 14.7339C132.012 14.785 131.656 15.095 131.563 15.0465Z" fill="#4B2D5C"/>
<path d="M14.5627 20.0465C12.4125 18.9256 10.2462 18.0725 8.07067 17.4899L8.58237 17.1409C8.99858 16.8675 9.41979 16.6008 9.84027 16.3345C10.2608 16.0681 10.6813 15.8018 11.1067 15.5422C11.2174 15.4754 11.5061 15.1934 11.6404 15.2296C13.8166 15.8132 15.9822 16.6653 18.1331 17.7872L17.6214 18.1362C17.2052 18.4096 16.7847 18.6759 16.3635 18.9427C15.943 19.209 15.5219 19.4743 15.0964 19.7339C15.0118 19.785 14.6562 20.095 14.5627 20.0465Z" fill="#4B2D5C"/>
<path d="M22.6684 39.1245C24.1593 37.2122 25.3899 35.2357 26.3559 33.2012L26.6067 33.7676C26.8004 34.2263 26.9867 34.6888 27.1726 35.1505C27.3586 35.6122 27.5445 36.0739 27.723 36.5393C27.7688 36.6602 27.9939 36.995 27.934 37.1206C26.9669 39.1556 25.7374 41.1316 24.2454 43.0443L23.9946 42.478C23.8009 42.0192 23.6149 41.5575 23.4287 41.0951C23.2427 40.6334 23.0579 40.1713 22.8794 39.7059C22.8444 39.6134 22.6038 39.2076 22.6684 39.1245Z" fill="#1D6C65"/>
<path d="M112.538 46.9717C114.029 45.0593 115.259 43.0829 116.225 41.0484L116.476 41.6147C116.67 42.0735 116.856 42.536 117.042 42.9977C117.228 43.4593 117.414 43.921 117.593 44.3864C117.638 44.5073 117.863 44.8422 117.804 44.9678C116.836 47.0027 115.607 48.9787 114.115 50.8915L113.864 50.3252C113.67 49.8664 113.484 49.4047 113.298 48.9422C113.112 48.4806 112.927 48.0184 112.749 47.553C112.714 47.4606 112.473 47.0548 112.538 46.9717Z" fill="#1D6C65"/>
<path d="M59.221 69.2569C60.5858 71.2613 62.0911 73.0374 63.7327 74.5794L63.1168 74.6449C62.6208 74.689 62.1235 74.7249 61.6271 74.7608C61.1306 74.7966 60.6342 74.8325 60.1365 74.8601C60.0074 74.8666 59.6197 74.9786 59.5185 74.8832C57.8768 73.34 56.3715 71.5651 55.0068 69.5596L55.6226 69.494C56.1187 69.4499 56.6151 69.4141 57.1124 69.3782C57.6088 69.3423 58.1053 69.3077 58.603 69.28C58.7017 69.275 59.1616 69.1701 59.221 69.2569Z" fill="#C73E4F"/>
<path d="M162.221 75.2569C163.586 77.2613 165.091 79.0374 166.733 80.5794L166.117 80.6449C165.621 80.689 165.123 80.7249 164.627 80.7608C164.131 80.7966 163.634 80.8325 163.136 80.8601C163.007 80.8666 162.62 80.9786 162.518 80.8832C160.877 79.34 159.371 77.5651 158.007 75.5596L158.623 75.494C159.119 75.4499 159.615 75.4141 160.112 75.3782C160.609 75.3423 161.105 75.3077 161.603 75.28C161.702 75.275 162.162 75.1701 162.221 75.2569Z" fill="#C73E4F"/>
<path d="M166.221 162.257C167.586 164.261 169.091 166.037 170.733 167.579L170.117 167.645C169.621 167.689 169.123 167.725 168.627 167.761C168.131 167.797 167.634 167.832 167.136 167.86C167.007 167.867 166.62 167.979 166.518 167.883C164.877 166.34 163.371 164.565 162.007 162.56L162.623 162.494C163.119 162.45 163.615 162.414 164.112 162.378C164.609 162.342 165.105 162.308 165.603 162.28C165.702 162.275 166.162 162.17 166.221 162.257Z" fill="#C73E4F"/>
<path d="M65.2209 126.257C66.5856 128.261 68.091 130.037 69.7326 131.579L69.1167 131.645C68.6207 131.689 68.1234 131.725 67.6269 131.761C67.1305 131.797 66.6341 131.832 66.1364 131.86C66.0073 131.867 65.6196 131.979 65.5183 131.883C63.8767 130.34 62.3714 128.565 61.0066 126.56L61.6225 126.494C62.1185 126.45 62.615 126.414 63.1122 126.378C63.6087 126.342 64.1052 126.308 64.6029 126.28C64.7016 126.275 65.1615 126.17 65.2209 126.257Z" fill="#C73E4F"/>
<path d="M65.2209 19.2569C66.5856 21.2613 68.091 23.0374 69.7326 24.5794L69.1167 24.6449C68.6207 24.689 68.1234 24.7249 67.6269 24.7608C67.1305 24.7966 66.6341 24.8325 66.1364 24.8601C66.0073 24.8666 65.6196 24.9786 65.5183 24.8832C63.8767 23.34 62.3714 21.5651 61.0066 19.5596L61.6225 19.494C62.1185 19.4499 62.615 19.4141 63.1122 19.3782C63.6087 19.3423 64.1052 19.3077 64.6029 19.28C64.7016 19.275 65.1615 19.1701 65.2209 19.2569Z" fill="#C73E4F"/>
<path d="M92.2209 164.257C93.5856 166.261 95.091 168.037 96.7326 169.579L96.1167 169.645C95.6207 169.689 95.1234 169.725 94.6269 169.761C94.1305 169.797 93.6341 169.832 93.1364 169.86C93.0073 169.867 92.6196 169.979 92.5183 169.883C90.8767 168.34 89.3714 166.565 88.0066 164.56L88.6225 164.494C89.1185 164.45 89.615 164.414 90.1122 164.378C90.6087 164.342 91.1052 164.308 91.6029 164.28C91.7016 164.275 92.1615 164.17 92.2209 164.257Z" fill="#C73E4F"/>
<path d="M116.221 101.257C117.586 103.261 119.091 105.037 120.733 106.579L120.117 106.645C119.621 106.689 119.123 106.725 118.627 106.761C118.131 106.797 117.634 106.832 117.136 106.86C117.007 106.867 116.62 106.979 116.518 106.883C114.877 105.34 113.371 103.565 112.007 101.56L112.623 101.494C113.119 101.45 113.615 101.414 114.112 101.378C114.609 101.342 115.105 101.308 115.603 101.28C115.702 101.275 116.162 101.17 116.221 101.257Z" fill="#C73E4F"/>
<path d="M16.2209 158.257C17.5856 160.261 19.091 162.037 20.7326 163.579L20.1167 163.645C19.6207 163.689 19.1234 163.725 18.6269 163.761C18.1305 163.797 17.6341 163.832 17.1364 163.86C17.0073 163.867 16.6196 163.979 16.5183 163.883C14.8767 162.34 13.3714 160.565 12.0066 158.56L12.6225 158.494C13.1185 158.45 13.615 158.414 14.1122 158.378C14.6087 158.342 15.1052 158.308 15.6029 158.28C15.7016 158.275 16.1615 158.17 16.2209 158.257Z" fill="#C73E4F"/>
<path d="M33.9101 124.788C32.5453 122.784 31.04 121.008 29.3984 119.466L30.0143 119.4C30.5103 119.356 31.0076 119.32 31.504 119.285C32.0005 119.249 32.4969 119.213 32.9946 119.185C33.1237 119.179 33.5114 119.067 33.6127 119.162C35.2543 120.705 36.7596 122.48 38.1244 124.486L37.5085 124.551C37.0124 124.596 36.516 124.631 36.0187 124.667C35.5223 124.703 35.0258 124.738 34.5281 124.765C34.4294 124.77 33.9695 124.875 33.9101 124.788Z" fill="#4B2D5C"/>
<path d="M120.797 129.225C122.175 127.23 123.29 125.186 124.137 123.1L124.42 123.65C124.64 124.097 124.852 124.548 125.065 124.998C125.277 125.449 125.489 125.899 125.694 126.353C125.747 126.471 125.991 126.793 125.938 126.921C125.09 129.009 123.977 131.052 122.597 133.048L122.314 132.497C122.094 132.05 121.882 131.6 121.669 131.149C121.457 130.699 121.246 130.248 121.041 129.794C121.001 129.703 120.737 129.312 120.797 129.225Z" fill="#4B2D5C"/>
<path d="M46.0425 170.255C48.1287 171.526 49.9924 172.95 51.6275 174.522L51.662 173.9C51.6811 173.398 51.6918 172.896 51.7025 172.395C51.7132 171.894 51.7239 171.392 51.7263 170.89C51.7263 170.76 51.8191 170.364 51.718 170.267C50.0816 168.694 48.2191 167.271 46.1317 166L46.0972 166.623C46.0782 167.124 46.0675 167.626 46.0568 168.128C46.0461 168.629 46.0365 169.13 46.0342 169.632C46.0342 169.732 45.952 170.2 46.0425 170.255Z" fill="#2B3142"/>
<path d="M10.0425 107.255C12.1287 108.526 13.9924 109.95 15.6275 111.522L15.662 110.9C15.6811 110.398 15.6918 109.896 15.7025 109.395C15.7132 108.894 15.7239 108.392 15.7263 107.89C15.7263 107.76 15.8191 107.364 15.718 107.267C14.0816 105.694 12.2191 104.271 10.1317 103L10.0972 103.623C10.0782 104.124 10.0675 104.626 10.0568 105.128C10.0461 105.629 10.0365 106.13 10.0342 106.632C10.0342 106.732 9.95203 107.2 10.0425 107.255Z" fill="#2B3142"/>
<path d="M139.042 39.2553C141.129 40.5259 142.992 41.9497 144.628 43.5225L144.662 42.8995C144.681 42.3982 144.692 41.8961 144.703 41.3948C144.713 40.8936 144.724 40.3923 144.726 39.8902C144.726 39.76 144.819 39.3642 144.718 39.2672C143.082 37.6944 141.219 36.2706 139.132 35L139.097 35.623C139.078 36.1242 139.067 36.6255 139.057 37.1276C139.046 37.6289 139.037 38.1302 139.034 38.6323C139.034 38.7319 138.952 39.2 139.042 39.2553Z" fill="#2B3142"/>
<path d="M122.968 171.223C124.333 173.228 125.838 175.004 127.48 176.546L126.864 176.611C126.368 176.656 125.87 176.691 125.374 176.727C124.878 176.763 124.381 176.799 123.883 176.827C123.754 176.833 123.367 176.945 123.265 176.85C121.624 175.307 120.118 173.532 118.754 171.526L119.37 171.461C119.866 171.416 120.362 171.381 120.859 171.345C121.356 171.309 121.852 171.274 122.35 171.247C122.449 171.242 122.909 171.137 122.968 171.223Z" fill="#FCCFCE"/>
<path d="M70.9778 154.047C68.8275 152.926 66.6613 152.072 64.4857 151.49L64.9974 151.141C65.4136 150.868 65.8348 150.601 66.2553 150.334C66.6758 150.068 67.0963 149.802 67.5218 149.542C67.6324 149.475 67.9211 149.193 68.0555 149.23C70.2316 149.813 72.3973 150.665 74.5481 151.787L74.0364 152.136C73.6202 152.41 73.1997 152.676 72.7785 152.943C72.358 153.209 71.9369 153.474 71.5115 153.734C71.4268 153.785 71.0712 154.095 70.9778 154.047Z" fill="#4B2D5C"/>
</g>
</g>
</g>
<defs>
<clipPath id="clip0_9024_916">
<rect width="175" height="182" fill="white"/>
</clipPath>
<clipPath id="clip1_9024_916">
<rect width="375" height="405" fill="white" transform="translate(-100)"/>
</clipPath>
</defs>
</svg>
