<svg width="375" height="812" viewBox="0 0 375 812" fill="none" xmlns="http://www.w3.org/2000/svg">
<g clip-path="url(#clip0_8711_2137)">
<rect width="375" height="812" fill="white"/>
<path d="M21.573 24.438L23.94 21.02L23.926 21.007C23.6103 21.1241 23.2756 21.1815 22.939 21.176C22.5511 21.1794 22.1664 21.1053 21.8075 20.958C21.4487 20.8108 21.1228 20.5932 20.849 20.3184C20.5753 20.0435 20.3592 19.7168 20.2134 19.3573C20.0676 18.9978 19.995 18.6129 20 18.225C19.9915 17.788 20.0735 17.354 20.2408 16.9502C20.4081 16.5464 20.6572 16.1817 20.9723 15.8788C21.2874 15.5759 21.6617 15.3416 22.0717 15.1903C22.4818 15.0391 22.9187 14.9743 23.355 15C23.7853 14.9785 24.2156 15.0439 24.6201 15.1924C25.0246 15.3409 25.395 15.5694 25.7092 15.8643C26.0234 16.1591 26.275 16.5143 26.4488 16.9086C26.6226 17.3028 26.7152 17.7281 26.721 18.1589C26.6958 19.1416 26.3643 20.0918 25.773 20.877L23.473 24.438H21.573ZM23.367 16.301C23.1262 16.2938 22.8867 16.3371 22.6637 16.4283C22.4408 16.5196 22.2395 16.6565 22.0729 16.8304C21.9062 17.0044 21.7779 17.2114 21.6963 17.438C21.6147 17.6646 21.5815 17.9058 21.599 18.146C21.5847 18.3809 21.6195 18.6161 21.7013 18.8368C21.7831 19.0575 21.91 19.2587 22.074 19.4275C22.2379 19.5963 22.4353 19.7291 22.6534 19.8174C22.8716 19.9056 23.1058 19.9473 23.341 19.9399C23.5814 19.9498 23.8213 19.9093 24.0451 19.8209C24.269 19.7326 24.4719 19.5985 24.6408 19.4271C24.8098 19.2557 24.941 19.0509 25.0261 18.8258C25.1112 18.6007 25.1483 18.3603 25.135 18.12C25.1435 17.8831 25.104 17.647 25.0188 17.4258C24.9336 17.2046 24.8045 17.003 24.6393 16.833C24.4741 16.6631 24.2762 16.5283 24.0576 16.4369C23.8389 16.3455 23.604 16.2993 23.367 16.301Z" fill="black"/>
<path d="M29.269 18.12C29.5377 18.1138 29.798 18.2143 29.9929 18.3994C30.1877 18.5846 30.3014 18.8394 30.309 19.1081C30.3051 19.3804 30.1934 19.64 29.9985 19.8302C29.8036 20.0204 29.5413 20.1256 29.269 20.123C29.0009 20.127 28.7418 20.0259 28.5474 19.8412C28.3529 19.6565 28.2387 19.403 28.229 19.135C28.233 18.8627 28.3446 18.6031 28.5395 18.4129C28.7344 18.2227 28.9967 18.1173 29.269 18.12ZM29.269 22.52C29.5379 22.5133 29.7984 22.6136 29.9934 22.7989C30.1884 22.9841 30.3019 23.2391 30.309 23.508C30.3051 23.7802 30.1934 24.0398 29.9985 24.2299C29.8035 24.4199 29.5412 24.5249 29.269 24.522C29.0006 24.5263 28.7413 24.4251 28.5468 24.2401C28.3522 24.0552 28.2381 23.8012 28.229 23.533C28.2304 23.3979 28.2585 23.2643 28.3115 23.14C28.3646 23.0157 28.4416 22.9032 28.5382 22.8086C28.6347 22.7141 28.749 22.6395 28.8744 22.5891C28.9998 22.5388 29.1339 22.5136 29.269 22.515V22.52Z" fill="black"/>
<path d="M35.7429 22.527H31.4919V21.1489L35.4049 15.234H37.2769V21.188H38.5639V22.527H37.2769V24.438H35.7429V22.527ZM35.7429 17.067H35.7169L33.1039 21.188H35.7429V17.067Z" fill="black"/>
<path d="M42.775 17.1329L40.956 18.6279L40.045 17.549L42.918 15.234H44.335V24.434H42.775V17.1329Z" fill="black"/>
<path d="M324.261 22.594C324.016 22.5943 323.78 22.6921 323.606 22.8658C323.432 23.0396 323.335 23.2752 323.334 23.521C323.335 23.7668 323.432 24.0024 323.606 24.1761C323.78 24.3499 324.016 24.4477 324.261 24.448C324.507 24.4475 324.742 24.3495 324.916 24.1758C325.089 24.002 325.187 23.7666 325.187 23.521C325.187 23.2754 325.089 23.0398 324.916 22.8661C324.742 22.6923 324.507 22.5945 324.261 22.594Z" fill="black"/>
<path d="M329.679 17.5521C328.992 16.8062 328.157 16.2116 327.227 15.8062C326.297 15.4008 325.294 15.1933 324.279 15.1971C323.265 15.1935 322.261 15.4009 321.332 15.8063C320.402 16.2118 319.567 16.8063 318.879 17.5521C318.821 17.615 318.775 17.6889 318.745 17.7696C318.715 17.8502 318.701 17.936 318.704 18.022C318.707 18.1082 318.727 18.1929 318.763 18.2713C318.798 18.3497 318.849 18.4204 318.912 18.4791C319.033 18.5926 319.193 18.6555 319.359 18.6551H319.382C319.556 18.6487 319.721 18.5734 319.839 18.446C320.404 17.8329 321.091 17.3441 321.855 17.0104C322.619 16.6768 323.444 16.5056 324.278 16.508C325.112 16.5056 325.937 16.6768 326.701 17.0104C327.464 17.3441 328.151 17.8329 328.715 18.446C328.837 18.5684 329 18.6402 329.172 18.6463C329.345 18.6524 329.513 18.5926 329.642 18.4791C329.706 18.4206 329.757 18.35 329.793 18.2715C329.829 18.1931 329.849 18.1083 329.851 18.022C329.855 17.9362 329.842 17.8505 329.812 17.7698C329.783 17.6891 329.738 17.6151 329.679 17.5521Z" fill="black"/>
<path d="M324.281 17.615C323.56 17.62 322.847 17.7688 322.184 18.0526C321.521 18.3364 320.921 18.7495 320.419 19.2679C320.358 19.3288 320.31 19.4011 320.277 19.4806C320.244 19.5601 320.227 19.6453 320.227 19.7314C320.227 19.8175 320.244 19.9029 320.277 19.9824C320.31 20.062 320.358 20.1341 320.419 20.1949C320.542 20.3177 320.709 20.3867 320.883 20.3867C321.057 20.3867 321.223 20.3177 321.346 20.1949C321.726 19.8001 322.181 19.485 322.685 19.2678C323.188 19.0506 323.729 18.9357 324.277 18.9299C324.825 18.9356 325.367 19.0504 325.87 19.2676C326.373 19.4848 326.828 19.8 327.208 20.1949C327.269 20.2567 327.342 20.3057 327.422 20.339C327.502 20.3723 327.588 20.3894 327.674 20.389C327.76 20.3895 327.845 20.3729 327.924 20.3403C328.004 20.3077 328.076 20.2596 328.136 20.199C328.26 20.0765 328.33 19.9099 328.33 19.736C328.331 19.6497 328.314 19.5641 328.281 19.4843C328.249 19.4044 328.2 19.332 328.139 19.271C327.638 18.7527 327.039 18.3393 326.377 18.0549C325.714 17.7706 325.002 17.6211 324.281 17.615Z" fill="black"/>
<path d="M324.247 20.052C323.421 20.0746 322.635 20.4106 322.047 20.9919C321.986 21.0525 321.937 21.1246 321.904 21.2041C321.871 21.2836 321.854 21.3688 321.853 21.455C321.852 21.541 321.869 21.6263 321.901 21.7059C321.934 21.7856 321.982 21.858 322.042 21.9189C322.103 21.9819 322.175 22.0322 322.255 22.0665C322.336 22.1009 322.422 22.1187 322.509 22.119C322.682 22.1192 322.848 22.0508 322.971 21.929C323.318 21.5846 323.783 21.3846 324.271 21.369C324.75 21.393 325.204 21.5923 325.545 21.929C325.668 22.0508 325.834 22.1192 326.006 22.119C326.093 22.1182 326.178 22.1001 326.258 22.0658C326.337 22.0314 326.409 21.9815 326.468 21.9189C326.529 21.8582 326.578 21.7859 326.61 21.7062C326.643 21.6265 326.659 21.5411 326.658 21.455C326.658 21.3688 326.641 21.2836 326.608 21.2041C326.574 21.1246 326.526 21.0525 326.464 20.9919C325.872 20.4078 325.079 20.0717 324.247 20.052Z" fill="black"/>
<path d="M353.739 17.771H353.318V17.35C353.317 16.7934 353.095 16.26 352.702 15.8665C352.308 15.4729 351.775 15.2513 351.218 15.25H336.918C336.362 15.2513 335.828 15.4729 335.435 15.8665C335.041 16.26 334.82 16.7934 334.818 17.35V22.396C334.82 22.9525 335.041 23.4859 335.435 23.8794C335.828 24.2729 336.362 24.4947 336.918 24.496H351.218C351.775 24.496 352.309 24.2747 352.703 23.8809C353.097 23.487 353.318 22.953 353.318 22.396V21.975H353.739C354.074 21.9744 354.394 21.8415 354.63 21.6051C354.867 21.3687 355 21.0483 355 20.714V19.032C355 18.6977 354.867 18.3772 354.63 18.1409C354.394 17.9045 354.074 17.7715 353.739 17.771ZM354.159 20.714C354.159 20.8253 354.115 20.9319 354.036 21.0106C353.957 21.0893 353.851 21.1338 353.739 21.134H352.9C352.789 21.1343 352.682 21.1787 352.603 21.2576C352.524 21.3365 352.48 21.4434 352.479 21.5549V22.396C352.479 22.7303 352.346 23.0507 352.109 23.2871C351.873 23.5235 351.553 23.6565 351.218 23.657H336.918C336.584 23.6567 336.263 23.5238 336.027 23.2874C335.79 23.051 335.657 22.7304 335.656 22.396V17.35C335.657 17.0155 335.79 16.6949 336.027 16.4585C336.263 16.2221 336.584 16.0893 336.918 16.089H351.218C351.553 16.0895 351.873 16.2225 352.109 16.4589C352.346 16.6952 352.479 17.0157 352.479 17.35V18.191C352.48 18.3026 352.524 18.4095 352.603 18.4884C352.682 18.5673 352.789 18.6117 352.9 18.6119H353.741C353.853 18.6122 353.959 18.6565 354.038 18.7352C354.117 18.8139 354.161 18.9207 354.161 19.032L354.159 20.714Z" fill="black"/>
<path d="M342.426 16.9299H336.921C336.81 16.9299 336.703 16.9742 336.624 17.053C336.545 17.1317 336.501 17.2385 336.5 17.35V22.396C336.501 22.5075 336.545 22.6143 336.624 22.693C336.703 22.7717 336.81 22.816 336.921 22.816H342.426C342.538 22.816 342.645 22.7717 342.724 22.693C342.802 22.6143 342.847 22.5075 342.847 22.396V17.35C342.847 17.2385 342.802 17.1317 342.724 17.053C342.645 16.9742 342.538 16.9299 342.426 16.9299Z" fill="black"/>
<path d="M302.149 24.3679C301.929 24.3677 301.717 24.2799 301.562 24.1239C301.406 23.9679 301.318 23.7565 301.318 23.536V20.9299C301.318 20.7095 301.406 20.4982 301.562 20.3424C301.717 20.1866 301.929 20.099 302.149 20.099C302.37 20.099 302.581 20.1866 302.737 20.3424C302.893 20.4982 302.98 20.7095 302.98 20.9299V23.536C302.98 23.7565 302.893 23.9679 302.737 24.1239C302.581 24.2799 302.37 24.3677 302.149 24.3679Z" fill="black"/>
<path d="M305.639 24.3679C305.419 24.3677 305.207 24.2799 305.052 24.1239C304.896 23.9679 304.808 23.7565 304.808 23.536V19.2679C304.808 19.0476 304.896 18.8364 305.052 18.6807C305.208 18.5249 305.419 18.4373 305.639 18.437C305.86 18.437 306.071 18.5245 306.227 18.6803C306.383 18.8361 306.471 19.0475 306.471 19.2679V23.536C306.471 23.7566 306.383 23.9681 306.227 24.124C306.071 24.28 305.86 24.3677 305.639 24.3679Z" fill="black"/>
<path d="M309.13 24.3679C308.91 24.3677 308.698 24.2799 308.543 24.1239C308.387 23.9679 308.299 23.7565 308.299 23.536V17.605C308.299 17.3846 308.387 17.1732 308.543 17.0173C308.699 16.8615 308.91 16.7739 309.13 16.7739C309.351 16.7739 309.562 16.8615 309.718 17.0173C309.874 17.1732 309.961 17.3846 309.961 17.605V23.536C309.961 23.7565 309.874 23.9679 309.718 24.1239C309.562 24.2799 309.351 24.3677 309.13 24.3679Z" fill="black"/>
<path d="M312.622 24.3679C312.402 24.3677 312.19 24.28 312.034 24.124C311.878 23.9681 311.791 23.7566 311.79 23.536V15.943C311.791 15.7225 311.878 15.5112 312.034 15.3553C312.19 15.1995 312.402 15.1119 312.622 15.1119C312.843 15.1119 313.054 15.1995 313.21 15.3553C313.366 15.5112 313.453 15.7226 313.453 15.943V23.536C313.453 23.7565 313.366 23.9679 313.21 24.1239C313.054 24.2799 312.843 24.3677 312.622 24.3679Z" fill="black"/>
<path d="M248.5 802H126.5C125.97 801.998 125.462 801.787 125.088 801.412C124.713 801.038 124.502 800.53 124.5 800C124.502 799.47 124.713 798.962 125.088 798.588C125.462 798.213 125.97 798.002 126.5 798H248.5C249.03 798.002 249.538 798.213 249.912 798.588C250.287 798.962 250.498 799.47 250.5 800C250.498 800.53 250.287 801.038 249.912 801.412C249.538 801.787 249.03 801.998 248.5 802Z" fill="black"/>
<rect width="375" height="812" fill="#FFF7F1"/>
<path d="M27.8472 146.881C69.4615 172.227 106.637 200.628 139.254 232L139.942 219.573C140.322 209.574 140.536 199.558 140.75 189.559C140.963 179.56 141.177 169.561 141.224 159.545C141.224 156.948 143.076 149.054 141.058 147.119C108.417 115.747 71.266 87.3455 29.6279 62L28.9394 74.4266C28.5595 84.4256 28.346 94.4246 28.1323 104.441C27.9187 114.44 27.7288 124.439 27.6813 134.455C27.6813 136.441 26.0431 145.778 27.8472 146.881Z" fill="#2B3142"/>
<path d="M282.491 67.4261C255.068 107.702 224.819 143.39 191.834 174.375L204.21 175.692C214.177 176.578 224.169 177.3 234.144 178.02C244.12 178.74 254.095 179.46 264.096 180.015C266.69 180.147 274.48 182.396 276.515 180.479C309.501 149.47 339.749 113.807 367.172 73.5071L354.797 72.1895C344.83 71.3033 334.855 70.5832 324.862 69.8621C314.887 69.1419 304.91 68.4454 294.91 67.8903C292.926 67.7896 283.684 65.6802 282.491 67.4261Z" fill="#E9723D"/>
<path d="M-22.1004 351.993C7.85887 313.567 32.5853 273.852 51.9975 232.971L57.0366 244.351C60.9286 253.569 64.6715 262.862 68.408 272.139C72.1446 281.416 75.8809 290.694 79.468 300.045C80.3867 302.475 84.9107 309.204 83.7079 311.727C64.2734 352.617 39.5697 392.323 9.58819 430.757L4.54875 419.378C0.656763 410.159 -3.0797 400.882 -6.82226 391.589C-10.5588 382.312 -14.2731 373.027 -17.8603 363.675C-18.5628 361.817 -23.3977 353.663 -22.1004 351.993Z" fill="#C73E51"/>
<path d="M281.815 237.161C309.237 277.437 339.487 313.125 372.472 344.11L360.096 345.427C350.129 346.313 340.137 347.035 330.161 347.755C320.186 348.475 310.211 349.195 300.21 349.75C297.616 349.882 289.826 352.131 287.791 350.214C254.805 319.205 224.557 283.542 197.133 243.242L209.509 241.924C219.476 241.038 229.451 240.318 239.443 239.597C249.419 238.877 259.395 238.18 269.396 237.625C271.38 237.524 280.621 235.415 281.815 237.161Z" fill="#FCCFCE"/>
<path d="M185.885 462.4C225.967 490.105 267.035 512.512 308.963 529.547L297.891 535.23C288.911 539.645 279.848 543.915 270.801 548.177C261.753 552.44 252.706 556.702 243.575 560.82C241.202 561.877 234.744 566.779 232.155 565.723C190.218 548.667 149.161 526.282 109.069 498.555L120.141 492.871C129.121 488.456 138.168 484.194 147.231 479.924C156.278 475.662 165.336 471.421 174.466 467.303C176.28 466.495 184.143 461.2 185.885 462.4Z" fill="#1E6F68"/>
<path d="M127.071 605.07C100.647 646.008 71.2848 682.429 39.0717 714.216L51.476 715.228C61.4617 715.869 71.4687 716.345 81.4587 716.819C91.4488 717.294 101.439 717.768 111.45 718.077C114.047 718.145 121.89 720.202 123.877 718.236C156.091 686.425 185.452 650.028 211.876 609.066L199.472 608.054C189.486 607.413 179.496 606.938 169.489 606.463C159.499 605.988 149.509 605.537 139.497 605.228C137.512 605.177 128.221 603.295 127.071 605.07Z" fill="#F6A725"/>
<path d="M19.815 726.161C47.2373 766.437 77.4865 802.125 110.472 833.11L98.096 834.427C88.1291 835.313 78.1368 836.035 68.1614 836.755C58.1861 837.475 48.2108 838.195 38.2101 838.75C35.6161 838.882 27.8261 841.131 25.791 839.214C-7.19533 808.205 -37.4432 772.542 -64.8668 732.242L-52.4911 730.924C-42.5242 730.038 -32.5489 729.318 -22.5566 728.597C-12.5813 727.877 -2.60469 727.18 7.39601 726.625C9.37968 726.524 18.6215 724.415 19.815 726.161Z" fill="#C73E4F"/>
<path d="M342.796 764.309C315.373 724.033 285.124 688.345 252.139 657.36L264.515 656.042C274.482 655.156 284.474 654.435 294.449 653.715C304.425 652.994 314.4 652.274 324.401 651.719C326.995 651.588 334.785 649.338 336.82 651.255C369.806 682.264 400.054 717.928 427.478 758.227L415.102 759.545C405.135 760.431 395.16 761.151 385.167 761.873C375.192 762.593 365.216 763.289 355.215 763.844C353.231 763.945 343.989 766.054 342.796 764.309Z" fill="#4B2D5C"/>
<path d="M176.871 53.5949C133.664 31.0718 90.135 13.9282 46.4194 2.2221L56.7014 -4.79021C65.0647 -10.2838 73.5284 -15.6441 81.9776 -20.9954C90.4269 -26.3467 98.8762 -31.6977 107.426 -36.9155C109.649 -38.2581 115.45 -43.9234 118.15 -43.1964C161.878 -31.47 205.393 -14.3471 248.613 8.19627L238.331 15.2089C229.968 20.7025 221.518 26.0537 213.055 31.4137C204.605 36.765 196.144 42.096 187.594 47.3138C185.894 48.3404 178.748 54.569 176.871 53.5949Z" fill="#4B2D5C"/>
<path d="M105.316 430.475C90.6413 430.475 80 419.52 80 405.237C80 390.955 90.6413 380 105.316 380C114.149 380 121.939 384.368 126.182 391.232L116.584 396.779C114.428 393.035 110.255 390.816 105.316 390.816C96.6922 390.816 91.1282 396.571 91.1282 405.237C91.1282 413.904 96.6922 419.659 105.316 419.659C110.255 419.659 114.497 417.44 116.584 413.696L126.182 419.243C122.009 426.107 114.219 430.475 105.316 430.475ZM156.636 394.837H167.069V429.504H156.636V426.245C154.341 428.88 150.933 430.475 146.273 430.475C137.162 430.475 129.65 422.501 129.65 412.171C129.65 401.84 137.162 393.867 146.273 393.867C150.933 393.867 154.341 395.461 156.636 398.096V394.837ZM148.359 420.629C153.158 420.629 156.636 417.371 156.636 412.171C156.636 406.971 153.158 403.712 148.359 403.712C143.56 403.712 140.083 406.971 140.083 412.171C140.083 417.371 143.56 420.629 148.359 420.629ZM199.97 380.971H210.402V429.504H199.97V426.245C197.674 428.88 194.266 430.475 189.606 430.475C180.495 430.475 172.984 422.501 172.984 412.171C172.984 401.84 180.495 393.867 189.606 393.867C194.266 393.867 197.674 395.461 199.97 398.096V380.971ZM191.693 420.629C196.492 420.629 199.97 417.371 199.97 412.171C199.97 406.971 196.492 403.712 191.693 403.712C186.894 403.712 183.416 406.971 183.416 412.171C183.416 417.371 186.894 420.629 191.693 420.629ZM234.748 430.475C224.524 430.475 216.317 422.501 216.317 412.171C216.317 401.84 224.524 393.867 234.748 393.867C244.972 393.867 253.179 401.84 253.179 412.171C253.179 422.501 244.972 430.475 234.748 430.475ZM234.748 420.352C239.269 420.352 242.747 417.093 242.747 412.171C242.747 407.248 239.269 403.989 234.748 403.989C230.228 403.989 226.75 407.248 226.75 412.171C226.75 417.093 230.228 420.352 234.748 420.352ZM281.545 394.837H291.978V429.504H281.545V426.245C279.667 428.811 276.19 430.475 271.6 430.475C264.575 430.475 258.593 425.483 258.593 416.123V394.837H269.026V414.597C269.026 418.896 271.739 420.907 275.077 420.907C278.902 420.907 281.545 418.688 281.545 413.765V394.837Z" fill="#C73E51"/>
</g>
<defs>
<clipPath id="clip0_8711_2137">
<rect width="375" height="812" fill="white"/>
</clipPath>
</defs>
</svg>
