<svg width="13" height="13" viewBox="0 0 13 13" fill="none" xmlns="http://www.w3.org/2000/svg">
<path d="M0.59082 6.12769H12.4092C12.4466 6.12771 12.4749 6.14186 12.4893 6.15503C12.4955 6.16079 12.498 6.16553 12.499 6.16772C12.4994 6.16865 12.4999 6.16944 12.5 6.16968L12.499 6.17065C12.4981 6.17271 12.4957 6.17741 12.4893 6.18335C12.4749 6.19652 12.4466 6.21067 12.4092 6.21069H0.59082C0.553392 6.21067 0.52511 6.19652 0.510742 6.18335C0.504342 6.17741 0.501914 6.17271 0.500977 6.17065L0.5 6.16968C0.500054 6.16944 0.500559 6.16865 0.500977 6.16772C0.502023 6.16553 0.504494 6.16079 0.510742 6.15503C0.525111 6.14186 0.553394 6.12771 0.59082 6.12769Z" fill="#F08080" stroke="#F08080"/>
<path d="M6.68567 0.5L6.68567 12.2" stroke="#F08080" stroke-linecap="round"/>
</svg>
