<svg width="512" height="328" viewBox="0 0 512 328" fill="none" xmlns="http://www.w3.org/2000/svg">
<path d="M466.135 0.0163149H45.8652C39.4469 0.0163149 32.9036 -0.199724 26.5624 0.940501C20.1641 2.09073 14.2279 5.0043 9.61604 9.61821C5.00313 14.2331 2.08455 20.1653 0.941329 26.5676C-0.202897 32.9038 0.0171462 39.4581 0.0171462 45.8684V281.924C0.0171462 288.333 -0.203897 294.886 0.941329 301.221C2.09556 307.611 5.00413 313.565 9.61604 318.17C14.2259 322.773 20.1751 325.704 26.5624 326.852C32.9016 327.984 39.4529 327.772 45.8662 327.772H466.136C472.554 327.772 479.097 327.982 485.44 326.852C491.83 325.714 497.779 322.773 502.383 318.17C506.992 313.561 509.922 307.616 511.058 301.221C512.203 294.889 511.985 288.33 511.985 281.924C511.985 281.924 511.985 45.8714 511.985 45.8684C511.985 39.4551 512.203 32.9048 511.058 26.5676C509.906 20.1953 506.972 14.2141 502.383 9.61821C497.781 5.00831 491.828 2.08573 485.441 0.940501C479.094 -0.197724 472.555 0.0163149 466.135 0.0163149Z" fill="black"/>
<path d="M466.135 10.9405C471.887 10.9515 477.813 10.6714 483.501 11.6916C487.703 12.4448 491.616 14.3072 494.651 17.3368C497.699 20.3814 499.557 24.2931 500.306 28.511C501.334 34.2011 501.059 40.1103 501.059 45.8684C501.059 45.8684 501.059 281.891 501.059 281.924C501.059 287.677 501.329 293.622 500.3 299.31C499.541 303.506 497.686 307.417 494.657 310.446C491.624 313.477 487.717 315.343 483.521 316.098C477.828 317.112 471.892 316.849 466.134 316.849H45.8651C45.8421 316.849 45.8201 316.849 45.7971 316.849C40.056 316.849 34.1698 317.115 28.4947 316.101C24.2829 315.349 20.3721 313.483 17.3345 310.441C14.3119 307.413 12.4376 303.462 11.6914 299.279C10.6762 293.597 10.9363 287.672 10.9423 281.925C10.9423 281.925 10.9423 46.0454 10.9423 45.8694C10.9423 38.0808 10.0381 29.5462 13.6948 22.3618C15.5702 18.678 18.6858 15.5664 22.3675 13.694C29.4739 10.0803 38.1386 10.9575 45.8661 10.9415L466.135 10.9405Z" fill="white"/>
<path d="M139.781 110.255C144.165 104.772 147.139 97.4104 146.354 89.887C139.937 90.206 132.106 94.1208 127.572 99.6079C123.502 104.307 119.899 111.977 120.838 119.185C128.042 119.809 135.239 115.584 139.781 110.255Z" fill="black"/>
<path d="M146.272 120.592C135.811 119.969 126.916 126.529 121.921 126.529C116.923 126.529 109.273 120.906 100.998 121.057C90.2289 121.215 80.236 127.304 74.7709 136.989C63.5307 156.363 71.8043 185.101 82.7355 200.88C88.0435 208.686 94.4408 217.281 102.87 216.973C110.835 216.661 113.957 211.816 123.638 211.816C133.311 211.816 136.123 216.973 144.555 216.817C153.297 216.661 158.763 209.006 164.072 201.193C170.161 192.294 172.654 183.701 172.811 183.23C172.654 183.074 155.952 176.667 155.798 157.454C155.64 141.367 168.91 133.716 169.536 133.241C162.041 122.155 150.332 120.905 146.272 120.592Z" fill="black"/>
<path d="M237.359 98.8208C260.096 98.8208 275.929 114.494 275.929 137.312C275.929 160.212 259.77 175.966 236.789 175.966H211.615V216H193.426V98.8208H237.359ZM211.615 160.699H232.485C248.321 160.699 257.333 152.173 257.333 137.393C257.333 122.614 248.32 114.169 232.566 114.169H211.615V160.699Z" fill="black"/>
<path d="M280.681 191.72C280.681 176.777 292.132 167.601 312.435 166.464L335.82 165.084V158.507C335.82 149.005 329.405 143.321 318.688 143.321C308.535 143.321 302.201 148.192 300.659 155.826H284.094C285.068 140.396 298.223 129.028 319.337 129.028C340.044 129.028 353.28 139.991 353.28 157.124V215.998H336.469V201.949H336.065C331.112 211.451 320.311 217.459 309.106 217.459C292.376 217.461 280.681 207.067 280.681 191.72ZM335.819 184.006V177.265L314.786 178.564C304.31 179.295 298.383 183.924 298.383 191.232C298.383 198.702 304.554 203.575 313.974 203.575C326.236 203.576 335.819 195.13 335.819 184.006Z" fill="black"/>
<path d="M369.148 247.427V233.215C370.445 233.539 373.368 233.539 374.831 233.539C382.951 233.539 387.337 230.13 390.015 221.36C390.015 221.197 391.559 216.163 391.559 216.082L360.702 130.572H379.702L401.305 200.085H401.628L423.232 130.572H441.745L409.748 220.466C402.443 241.174 393.997 247.833 376.294 247.833C374.831 247.832 370.445 247.67 369.148 247.427Z" fill="black"/>
</svg>
