<svg width="32" height="32" viewBox="0 0 32 32" fill="none" xmlns="http://www.w3.org/2000/svg">
<g clip-path="url(#clip0_6373_67)">
<path d="M19.0601 17.3677C19.0601 17.811 19.4426 18.1001 20.0446 18.1001C20.8096 18.1001 21.3881 17.615 21.3881 16.9336V16.5229L20.1331 16.6023C19.4285 16.6445 19.0601 16.9104 19.0601 17.3677Z" fill="black"/>
<path d="M14.9869 12.5854H13.6852V15.4734H14.9823C15.9669 15.4734 16.5268 14.9462 16.5268 14.027C16.5268 13.1078 15.9665 12.5854 14.9869 12.5854Z" fill="black"/>
<path d="M0.175781 7.61069V24.3537C0.175781 28.4595 3.50458 31.7883 7.61069 31.7883H24.3537C28.4595 31.7883 31.7883 28.4595 31.7883 24.3534V7.61069C31.7883 3.50458 28.4595 0.175781 24.3534 0.175781H7.61069C3.50458 0.175781 0.175781 3.50458 0.175781 7.61069ZM7.64792 11.6803C7.92787 11.3396 8.41786 11.0972 8.81442 11.0782C8.86114 11.5447 8.67919 12.002 8.40381 12.3427C8.12387 12.674 7.67602 12.9353 7.22818 12.8981C7.17198 12.4502 7.39151 11.9743 7.64792 11.6803ZM9.91559 17.9884C9.58436 18.4734 9.24365 18.9494 8.70237 18.9589C8.17972 18.9684 8.00725 18.6463 7.40521 18.6463C6.80808 18.6463 6.61209 18.9494 6.11753 18.9684C5.59487 18.987 5.1983 18.4552 4.86708 17.9698C4.19057 16.9901 3.67283 15.2079 4.37252 14.0041C4.71323 13.4021 5.33354 13.0245 6.00091 13.015C6.51409 13.0055 6.98547 13.3557 7.29808 13.3557C7.60612 13.3557 8.1611 12.9497 8.80986 12.9873C9.0617 13.0059 9.78949 13.0807 10.2563 13.7713C10.2191 13.7994 9.39328 14.2753 9.40242 15.2736C9.4119 16.4678 10.4474 16.8644 10.4569 16.8739C10.4474 16.9013 10.2932 17.4376 9.91559 17.9884ZM15.2483 16.4207H13.6852V18.9076H12.5563V11.6336H15.2855C16.6944 11.6336 17.6789 12.6041 17.6789 14.0224C17.6789 15.4408 16.6757 16.4207 15.2483 16.4207ZM22.4752 18.9072H21.4299V18.0347H21.4067C21.1082 18.6038 20.4503 18.9631 19.7411 18.9631C18.6912 18.9631 17.9589 18.3379 17.9589 17.3955C17.9589 16.4622 18.668 15.9258 19.9789 15.8464L21.3878 15.7625V15.3614C21.3878 14.7688 21.0007 14.4471 20.3101 14.4471C19.7411 14.4471 19.3256 14.7411 19.2416 15.1889H18.2244C18.2571 14.2465 19.1436 13.5605 20.3424 13.5605C21.6347 13.5605 22.4745 14.237 22.4745 15.2869V18.9072H22.4752ZM25.9417 19.1921C25.4893 20.4657 24.9712 20.8858 23.8701 20.8858C23.7861 20.8858 23.5062 20.8763 23.4408 20.8577V19.9852C23.5107 19.9947 23.6835 20.0038 23.7721 20.0038C24.2712 20.0038 24.5511 19.7938 24.7239 19.248L24.8265 18.9259L22.9136 13.6304H24.0942L25.424 17.9273H25.4472L26.777 13.6304H27.9245L25.9417 19.1921Z" fill="black"/>
</g>
<defs>
<clipPath id="clip0_6373_67">
<rect width="32" height="32" fill="white"/>
</clipPath>
</defs>
</svg>
