<svg width="24" height="24" viewBox="0 0 24 24" fill="none" xmlns="http://www.w3.org/2000/svg">
<g clip-path="url(#clip0_368_48)">
<path d="M23.5 12C23.5 5.64873 18.3513 0.5 12 0.5C5.64873 0.5 0.5 5.64873 0.5 12C0.5 18.3513 5.64873 23.5 12 23.5C18.3513 23.5 23.5 18.3513 23.5 12Z" fill="white" stroke="#4B2D5C"/>
<path d="M7.15621 13.2411C7.60991 12.462 8.28545 11.8997 9.09592 11.4481C9.12473 11.4336 9.15234 11.4177 9.17446 11.405L9.17658 11.4038C9.19548 11.3929 9.21079 11.3842 9.2247 11.3768C9.23006 11.375 9.23523 11.3731 9.24006 11.3712C9.25292 11.3662 9.27637 11.3564 9.29938 11.3415C9.30766 11.3362 9.33628 11.3176 9.36024 11.2843C9.37303 11.2665 9.39446 11.2308 9.39838 11.1803C9.40289 11.1223 9.38234 11.0694 9.34891 11.031C9.32015 10.998 9.28794 10.9823 9.27072 10.9752C9.26408 10.9725 9.25771 10.9703 9.25177 10.9685C9.09593 10.8427 8.94959 10.7153 8.82464 10.5717C7.66819 9.21122 8.10733 7.05864 9.7396 6.18899C10.4949 5.78205 11.3289 5.69243 12.1985 5.70043C12.8924 5.70832 13.5653 5.83415 14.235 6.04102C14.2509 6.04591 14.2613 6.0502 14.2676 6.05323C14.268 6.0594 14.2683 6.06868 14.2675 6.08185L14.2672 6.08893C14.2616 6.31839 14.2635 6.5505 14.2653 6.7837C14.2656 6.81762 14.2658 6.85157 14.2661 6.88554C13.8382 6.79589 13.4075 6.72587 12.9749 6.69091L12.9708 6.69062C12.4277 6.65816 11.8482 6.63821 11.2801 6.83059C11.0606 6.90285 10.857 7.01195 10.6799 7.15903L10.6762 7.16218C10.1569 7.61517 10.1253 8.4018 10.5477 8.97569L10.5496 8.97821C10.9144 9.45797 11.4258 9.65225 11.9572 9.7296C12.7623 9.84906 13.5447 9.70294 14.291 9.55738C14.5622 9.50503 14.8244 9.43668 15.0947 9.35892C15.0899 9.37436 15.0852 9.38973 15.0805 9.40503L15.0766 9.4178C15.0377 9.54471 15.0003 9.66667 14.9611 9.78652L14.9608 9.78748C14.8967 9.98676 14.8317 10.1867 14.7665 10.3872C14.6216 10.8328 14.4757 11.2813 14.3371 11.7325C13.1467 11.0789 11.9201 11.1069 10.7185 11.6408C9.83102 12.0329 9.40648 12.9731 9.51266 13.9504C9.62987 14.9906 10.2765 15.6323 11.1278 16.0732C11.9339 16.4875 12.8028 16.6622 13.6711 16.7528C14.7633 16.8724 15.8529 16.8538 16.954 16.7491C16.0491 17.475 15.0009 17.8974 13.8533 18.113C12.4103 18.3848 10.9767 18.3832 9.57191 17.9557L9.57095 17.9554C8.77564 17.7177 8.061 17.358 7.5077 16.774C6.57498 15.7934 6.44083 14.4373 7.15502 13.2431L7.15621 13.2411Z" fill="#4B2D5C" stroke="white" stroke-width="0.4"/>
</g>
<defs>
<clipPath id="clip0_368_48">
<rect width="24" height="24" fill="white"/>
</clipPath>
</defs>
</svg>
