<svg width="20" height="20" viewBox="0 0 20 20" fill="none" xmlns="http://www.w3.org/2000/svg">
<g clip-path="url(#clip0_290_727)">
<path d="M19.5833 19.1665H18.3333V12.0832C18.3333 10.0157 16.6508 8.33321 14.5833 8.33321H10.4167V5.79821C11.5975 5.59904 12.5 4.56988 12.5 3.33321C12.5 2.54654 11.9692 1.56238 10.9233 0.409043C10.4525 -0.110957 9.54833 -0.110957 9.07667 0.409043C8.4 1.15571 7.5 2.26988 7.5 3.33321C7.5 4.56988 8.4025 5.59904 9.58333 5.79821V8.33321H5.41667C3.34917 8.33321 1.66667 10.0157 1.66667 12.0832V14.3899C1.66667 14.3899 1.66667 14.3932 1.66667 14.3949V19.1665H0.416667C0.186667 19.1665 0 19.3532 0 19.5832C0 19.8132 0.186667 19.9999 0.416667 19.9999H19.5833C19.8133 19.9999 20 19.8132 20 19.5832C20 19.3532 19.8133 19.1665 19.5833 19.1665ZM8.33333 3.33321C8.33333 2.46904 9.3575 1.33988 9.69333 0.969043C9.77333 0.881543 9.88167 0.83321 10 0.83321C10.1183 0.83321 10.2267 0.881543 10.3058 0.969043C11.1833 1.93654 11.6667 2.77571 11.6667 3.33321C11.6667 4.25238 10.9192 4.99988 10 4.99988C9.08083 4.99988 8.33333 4.25238 8.33333 3.33321ZM5.41667 9.16654H14.5833C16.1917 9.16654 17.5 10.4749 17.5 12.0832V14.0849C17.2983 14.1382 17.0867 14.1665 16.875 14.1665C15.8192 14.1665 15 13.4949 15 12.9165C15 12.6865 14.8133 12.4999 14.5833 12.4999C14.3533 12.4999 14.1667 12.6865 14.1667 12.9165C14.1667 13.4949 13.3475 14.1665 12.2917 14.1665C11.2358 14.1665 10.4167 13.4949 10.4167 12.9165C10.4167 12.6865 10.23 12.4999 10 12.4999C9.77 12.4999 9.58333 12.6865 9.58333 12.9165C9.58333 13.4949 8.76417 14.1665 7.70833 14.1665C6.6525 14.1665 5.83333 13.4949 5.83333 12.9165C5.83333 12.6865 5.64667 12.4999 5.41667 12.4999C5.18667 12.4999 5 12.6865 5 12.9165C5 13.4949 4.18083 14.1665 3.125 14.1665C2.91417 14.1665 2.70167 14.1382 2.5 14.084V12.0832C2.5 10.4749 3.80833 9.16654 5.41667 9.16654ZM2.5 14.9399C2.70417 14.9799 2.9125 14.9999 3.125 14.9999C4.06417 14.9999 4.9275 14.5874 5.41667 13.9932C5.90583 14.5874 6.76917 14.9999 7.70833 14.9999C8.6475 14.9999 9.51167 14.5874 10 13.9932C10.4883 14.5874 11.3533 14.9999 12.2917 14.9999C13.23 14.9999 14.0942 14.5874 14.5833 13.9932C15.0725 14.5874 15.9358 14.9999 16.875 14.9999C17.0875 14.9999 17.2967 14.9799 17.5 14.9407V19.1665H2.5V14.9399Z" fill="#F72E50"/>
</g>
<defs>
<clipPath id="clip0_290_727">
<rect width="20" height="20" fill="white"/>
</clipPath>
</defs>
</svg>
