<svg width="20" height="20" viewBox="0 0 20 20" fill="none" xmlns="http://www.w3.org/2000/svg">
<path d="M19.5833 19.1475H18.3333V12.0642C18.3333 9.99667 16.6508 8.31417 14.5833 8.31417H10.4167V5.77917C11.5975 5.58 12.5 4.55083 12.5 3.31417C12.5 2.5275 11.9692 1.54333 10.9233 0.39C10.4525 -0.13 9.54833 -0.13 9.07667 0.39C8.4 1.13667 7.5 2.25083 7.5 3.31417C7.5 4.55083 8.4025 5.58 9.58333 5.77917V8.31417H5.41667C3.34917 8.31417 1.66667 9.99667 1.66667 12.0642V14.3708C1.66667 14.3708 1.66667 14.3742 1.66667 14.3758V19.1475H0.416667C0.186667 19.1475 0 19.3342 0 19.5642C0 19.7942 0.186667 19.9808 0.416667 19.9808H19.5833C19.8133 19.9808 20 19.7942 20 19.5642C20 19.3342 19.8133 19.1475 19.5833 19.1475ZM8.33333 3.31417C8.33333 2.45 9.3575 1.32083 9.69333 0.95C9.77333 0.8625 9.88167 0.814167 10 0.814167C10.1183 0.814167 10.2267 0.8625 10.3058 0.95C11.1833 1.9175 11.6667 2.75667 11.6667 3.31417C11.6667 4.23333 10.9192 4.98083 10 4.98083C9.08083 4.98083 8.33333 4.23333 8.33333 3.31417ZM5.41667 9.1475H14.5833C16.1917 9.1475 17.5 10.4558 17.5 12.0642V14.0658C17.2983 14.1192 17.0867 14.1475 16.875 14.1475C15.8192 14.1475 15 13.4758 15 12.8975C15 12.6675 14.8133 12.4808 14.5833 12.4808C14.3533 12.4808 14.1667 12.6675 14.1667 12.8975C14.1667 13.4758 13.3475 14.1475 12.2917 14.1475C11.2358 14.1475 10.4167 13.4758 10.4167 12.8975C10.4167 12.6675 10.23 12.4808 10 12.4808C9.77 12.4808 9.58333 12.6675 9.58333 12.8975C9.58333 13.4758 8.76417 14.1475 7.70833 14.1475C6.6525 14.1475 5.83333 13.4758 5.83333 12.8975C5.83333 12.6675 5.64667 12.4808 5.41667 12.4808C5.18667 12.4808 5 12.6675 5 12.8975C5 13.4758 4.18083 14.1475 3.125 14.1475C2.91417 14.1475 2.70167 14.1192 2.5 14.065V12.0642C2.5 10.4558 3.80833 9.1475 5.41667 9.1475ZM2.5 14.9208C2.70417 14.9608 2.9125 14.9808 3.125 14.9808C4.06417 14.9808 4.9275 14.5683 5.41667 13.9742C5.90583 14.5683 6.76917 14.9808 7.70833 14.9808C8.6475 14.9808 9.51167 14.5683 10 13.9742C10.4883 14.5683 11.3533 14.9808 12.2917 14.9808C13.23 14.9808 14.0942 14.5683 14.5833 13.9742C15.0725 14.5683 15.9358 14.9808 16.875 14.9808C17.0875 14.9808 17.2967 14.9608 17.5 14.9217V19.1475H2.5V14.9208Z" fill="#C73E51"/>
</svg>
