<svg width="29" height="22" viewBox="0 0 29 22" fill="none" xmlns="http://www.w3.org/2000/svg">
<path d="M26.1406 3.48633H21.5264L18.7646 0.697265C18.7646 0.697265 18.751 0.683594 18.7441 0.683594L18.7305 0.669922C18.3203 0.259766 17.7666 0 17.1377 0H11.3955C10.7256 0 10.1309 0.287109 9.71387 0.745117V0.751953L7.01367 3.48633H2.29688C1.02539 3.48633 0 4.48438 0 5.75586V19.5713C0 20.8428 1.02539 21.875 2.29688 21.875H26.1406C27.4053 21.875 28.4375 20.8428 28.4375 19.5713V5.75586C28.4375 4.48438 27.4053 3.48633 26.1406 3.48633ZM14.2188 18.4229C10.7393 18.4229 7.90234 15.5791 7.90234 12.0928C7.90234 8.59961 10.7393 5.7627 14.2188 5.7627C17.7051 5.7627 20.5352 8.59961 20.5352 12.0928C20.5352 15.5791 17.7051 18.4229 14.2188 18.4229ZM25.71 7.14355C25.1836 7.14355 24.7529 6.71289 24.7529 6.17969C24.7529 5.64648 25.1836 5.21582 25.71 5.21582C26.2363 5.21582 26.667 5.64648 26.667 6.17969C26.667 6.71289 26.2363 7.14355 25.71 7.14355Z" fill="#1C1254"/>
<path d="M14.2188 7.30762C11.5801 7.30762 9.44727 9.44727 9.44727 12.0928C9.44727 14.7314 11.5801 16.8779 14.2188 16.8779C16.8506 16.8779 18.9902 14.7383 18.9902 12.0928C18.9902 9.44727 16.8506 7.30762 14.2188 7.30762Z" fill="#1C1254"/>
</svg>
