<svg width="14" height="14" viewBox="0 0 14 14" fill="none" xmlns="http://www.w3.org/2000/svg">
<path d="M11.8545 3.14983H10.0176L9.8037 2.50817C9.70061 2.1966 9.50184 1.92551 9.2357 1.73349C8.96956 1.54147 8.64962 1.43832 8.32145 1.43872H5.67864C5.35055 1.43847 5.03073 1.54169 4.76469 1.73369C4.49865 1.9257 4.29994 2.19671 4.19681 2.50817L3.9825 3.14983H2.14562C1.73142 3.15029 1.33432 3.31502 1.04145 3.6079C0.748565 3.90078 0.583827 4.29788 0.583374 4.71208V11.0004C0.584279 11.4143 0.749218 11.811 1.04205 12.1035C1.33488 12.396 1.73172 12.5605 2.14562 12.5609H11.8562C12.2701 12.56 12.6667 12.3951 12.9592 12.1023C13.2518 11.8094 13.4163 11.4126 13.4167 10.9987V4.71037C13.4158 4.29647 13.2509 3.89981 12.958 3.6073C12.6652 3.31479 12.2684 3.15029 11.8545 3.14983ZM12.5612 10.9987C12.5609 11.1861 12.4864 11.3657 12.3539 11.4982C12.2214 11.6306 12.0418 11.7052 11.8545 11.7054H2.14562C1.95826 11.7052 1.77864 11.6306 1.64616 11.4982C1.51368 11.3657 1.43916 11.1861 1.43893 10.9987V4.71037C1.43961 4.52331 1.51433 4.34413 1.64677 4.21202C1.7792 4.07991 1.95856 4.00561 2.14562 4.00539H4.29092C4.38067 4.00532 4.46812 3.97703 4.5409 3.92452C4.61368 3.87201 4.6681 3.79794 4.69646 3.71279L5.00831 2.77724C5.05514 2.63652 5.1451 2.51413 5.26543 2.42743C5.38575 2.34074 5.53033 2.29415 5.67864 2.29428H8.32145C8.46982 2.29412 8.61447 2.34074 8.73481 2.42753C8.85516 2.51431 8.94508 2.63683 8.99177 2.77767L9.30362 3.71279C9.33198 3.79794 9.3864 3.87201 9.45918 3.92452C9.53196 3.97703 9.61941 4.00532 9.70916 4.00539H11.8545C12.0418 4.00562 12.2214 4.08014 12.3539 4.21262C12.4864 4.3451 12.5609 4.52472 12.5612 4.71208V10.9987Z" fill="#1C1254"/>
<path d="M6.99996 4.43335C6.36541 4.43335 5.74511 4.62152 5.21751 4.97405C4.6899 5.32659 4.27868 5.82766 4.03585 6.41391C3.79302 7.00015 3.72948 7.64524 3.85327 8.2676C3.97707 8.88995 4.28263 9.46162 4.73133 9.91032C5.18002 10.359 5.75169 10.6646 6.37405 10.7884C6.9964 10.9122 7.64149 10.8486 8.22774 10.6058C8.81398 10.363 9.31506 9.95175 9.66759 9.42414C10.0201 8.89653 10.2083 8.27623 10.2083 7.64168C10.2074 6.79106 9.86908 5.97553 9.26759 5.37405C8.66611 4.77257 7.85058 4.43426 6.99996 4.43335ZM6.99996 9.99446C6.53462 9.99446 6.07974 9.85647 5.69283 9.59795C5.30591 9.33942 5.00435 8.97197 4.82628 8.54205C4.6482 8.11214 4.60161 7.63907 4.69239 7.18268C4.78317 6.72629 5.00725 6.30706 5.3363 5.97802C5.66534 5.64898 6.08456 5.4249 6.54096 5.33411C6.99735 5.24333 7.47042 5.28992 7.90033 5.468C8.33024 5.64608 8.6977 5.94764 8.95622 6.33455C9.21475 6.72146 9.35274 7.17635 9.35274 7.64168C9.35206 8.26547 9.10396 8.86351 8.66287 9.3046C8.22179 9.74568 7.62375 9.99378 6.99996 9.99446Z" fill="#1C1254"/>
<path d="M11.2778 5.71664C11.514 5.71664 11.7055 5.52512 11.7055 5.28886C11.7055 5.05261 11.514 4.86108 11.2778 4.86108C11.0415 4.86108 10.85 5.05261 10.85 5.28886C10.85 5.52512 11.0415 5.71664 11.2778 5.71664Z" fill="#1C1254"/>
</svg>
