<svg width="26" height="26" viewBox="0 0 26 26" fill="none" xmlns="http://www.w3.org/2000/svg">
<path opacity="0.4" d="M20.5833 11.1365V18.8824C20.5508 21.9699 19.7058 22.7499 16.4883 22.7499H6.26166C2.98999 22.7499 2.16663 21.9374 2.16663 18.709V11.1365C2.16663 8.21154 2.84913 7.26904 5.41663 7.11737C5.67663 7.10654 5.95832 7.0957 6.26166 7.0957H16.4883C19.7599 7.0957 20.5833 7.9082 20.5833 11.1365Z" fill="#C73E51"/>
<path d="M23.8333 7.29083V14.8633C23.8333 17.7883 23.1508 18.7308 20.5833 18.8825V11.1367C20.5833 7.90833 19.7599 7.09583 16.4883 7.09583H6.26166C5.95832 7.09583 5.67663 7.10667 5.41663 7.1175C5.44913 4.03 6.29416 3.25 9.51166 3.25H19.7383C23.0099 3.25 23.8333 4.0625 23.8333 7.29083Z" fill="#C73E51"/>
<path d="M7.54 20.1069H5.67664C5.23247 20.1069 4.86414 19.7386 4.86414 19.2944C4.86414 18.8503 5.23247 18.4819 5.67664 18.4819H7.54C7.98417 18.4819 8.3525 18.8503 8.3525 19.2944C8.3525 19.7386 7.995 20.1069 7.54 20.1069Z" fill="#C73E51"/>
<path d="M13.5958 20.1069H9.86914C9.42497 20.1069 9.05664 19.7386 9.05664 19.2944C9.05664 18.8503 9.42497 18.4819 9.86914 18.4819H13.5958C14.04 18.4819 14.4083 18.8503 14.4083 19.2944C14.4083 19.7386 14.0508 20.1069 13.5958 20.1069Z" fill="#C73E51"/>
<path d="M20.5833 12.8481H2.16663V14.4731H20.5833V12.8481Z" fill="#C73E51"/>
</svg>
