<svg width="197" height="128" viewBox="0 0 197 128" fill="none" xmlns="http://www.w3.org/2000/svg">
<g filter="url(#filter0_f_1310_55)">
<path d="M65.1785 64.6902C25.763 31.0519 168.897 71.2117 171.751 72.2769L179.787 98.8706C182.185 105.467 180.486 114.39 154.508 97.3164C122.034 75.9738 104.594 98.3285 65.1785 64.6902Z" fill="url(#paint0_radial_1310_55)" fill-opacity="0.17"/>
</g>
<g filter="url(#filter1_f_1310_55)">
<path d="M21.2242 42.6628C15.648 23.7556 58.241 20.1474 59.0182 20.3086L54.7774 41.5576C53.8768 46.7178 50.8096 55.046 45.7455 47.0765C39.4153 37.1146 26.8004 61.57 21.2242 42.6628Z" fill="url(#paint1_radial_1310_55)" fill-opacity="0.17"/>
</g>
<defs>
<filter id="filter0_f_1310_55" x="38.3174" y="31.2888" width="162.256" height="95.8843" filterUnits="userSpaceOnUse" color-interpolation-filters="sRGB">
<feFlood flood-opacity="0" result="BackgroundImageFix"/>
<feBlend mode="normal" in="SourceGraphic" in2="BackgroundImageFix" result="shape"/>
<feGaussianBlur stdDeviation="10" result="effect1_foregroundBlur_1310_55"/>
</filter>
<filter id="filter1_f_1310_55" x="0.720703" y="0.303467" width="78.2979" height="70.071" filterUnits="userSpaceOnUse" color-interpolation-filters="sRGB">
<feFlood flood-opacity="0" result="BackgroundImageFix"/>
<feBlend mode="normal" in="SourceGraphic" in2="BackgroundImageFix" result="shape"/>
<feGaussianBlur stdDeviation="10" result="effect1_foregroundBlur_1310_55"/>
</filter>
<radialGradient id="paint0_radial_1310_55" cx="0" cy="0" r="1" gradientTransform="matrix(-94.1462 -19.5431 -13.9598 -129.341 160.42 78.8034)" gradientUnits="userSpaceOnUse">
<stop offset="1" stop-color="#1C1254" stop-opacity="0.4"/>
</radialGradient>
<radialGradient id="paint1_radial_1310_55" cx="0" cy="0" r="1" gradientTransform="matrix(-29.8882 8.43015 30.024 -110.193 53.0017 29.1484)" gradientUnits="userSpaceOnUse">
<stop offset="1" stop-color="#1C1254" stop-opacity="0.4"/>
</radialGradient>
</defs>
</svg>
