<svg width="17" height="17" viewBox="0 0 17 17" fill="none" xmlns="http://www.w3.org/2000/svg">
<path d="M0.571289 0.0996094H1.89648C2.3581 0.0996094 2.79828 0.271376 3.13867 0.571289L3.27832 0.708008C3.47382 0.925586 3.61806 1.17823 3.69727 1.45898L3.71777 1.53223H13.3076C13.957 1.53234 14.5604 1.75688 15.0352 2.16699L15.2305 2.35352C15.7218 2.88937 15.9698 3.58561 15.9111 4.32617V4.32715L15.5 10.04V10.041C15.4194 11.3812 14.2453 12.4688 12.9033 12.4688H4.79102C4.06528 12.4687 3.36844 12.1604 2.87695 11.625C2.38529 11.0893 2.13566 10.3697 2.19434 9.64355L2.82617 2.05859C2.85195 1.79212 2.75747 1.53614 2.58008 1.3418C2.40005 1.14462 2.15119 1.04297 1.88867 1.04297H0.571289C0.314216 1.04297 0.0996113 0.828362 0.0996094 0.571289C0.0996094 0.314215 0.314215 0.0996094 0.571289 0.0996094ZM3.73145 2.55957L3.1377 9.71875C3.09725 10.1887 3.25203 10.6347 3.56738 10.9824C3.88408 11.3315 4.32224 11.5185 4.79102 11.5186H12.9033C13.6955 11.5186 14.4116 10.8931 14.5518 10.1201L14.5723 9.96289L14.9834 4.25C15.0156 3.77483 14.8627 3.31947 14.5449 2.98535C14.2283 2.64493 13.7901 2.45898 13.3145 2.45898H3.73145V2.55957Z" fill="#F08080" stroke="white" stroke-width="0.2"/>
<path d="M11.4258 13.4296C12.2084 13.4296 12.8496 14.0707 12.8496 14.8534C12.8496 15.636 12.2084 16.2772 11.4258 16.2772C10.6431 16.2772 10.002 15.636 10.002 14.8534C10.002 14.0707 10.6431 13.4296 11.4258 13.4296ZM11.4258 14.3729C11.1573 14.3729 10.9453 14.5849 10.9453 14.8534C10.9453 15.1219 11.1573 15.3339 11.4258 15.3339C11.6943 15.3339 11.9062 15.1219 11.9062 14.8534C11.9062 14.5849 11.6943 14.3729 11.4258 14.3729Z" fill="#F08080" stroke="white" stroke-width="0.2"/>
<path d="M5.33228 13.4296C6.11493 13.4296 6.7561 14.0707 6.7561 14.8534C6.7561 15.636 6.11493 16.2772 5.33228 16.2772C4.54962 16.2772 3.90845 15.636 3.90845 14.8534C3.90845 14.0707 4.54962 13.4296 5.33228 13.4296ZM5.33228 14.3729C5.06377 14.3729 4.85181 14.5849 4.85181 14.8534C4.85181 15.1219 5.06377 15.3339 5.33228 15.3339C5.60078 15.3339 5.81274 15.1219 5.81274 14.8534C5.81274 14.5849 5.60078 14.3729 5.33228 14.3729Z" fill="#F08080" stroke="white" stroke-width="0.2"/>
<path d="M5.33203 4.66992H14.4727C14.7297 4.66995 14.9443 4.88455 14.9443 5.1416C14.9443 5.39865 14.7297 5.61325 14.4727 5.61328H5.33203C5.07496 5.61328 4.86035 5.39867 4.86035 5.1416C4.86035 4.88453 5.07496 4.66992 5.33203 4.66992Z" fill="#F08080" stroke="white" stroke-width="0.2"/>
</svg>
