<svg width="19" height="20" viewBox="0 0 19 20" fill="none" xmlns="http://www.w3.org/2000/svg">
<path opacity="0.4" d="M16.7421 7.66431V15.331C16.7421 18.206 15.7838 19.1643 12.9088 19.1643H5.24209C2.36709 19.1643 1.40875 18.206 1.40875 15.331V7.66431H16.7421Z" fill="#C73E51"/>
<path d="M18.2083 4.78947V5.7478C18.2083 6.80197 17.7004 7.66447 16.2917 7.66447H1.91667C0.450417 7.66447 0 6.80197 0 5.7478V4.78947C0 3.7353 0.450417 2.8728 1.91667 2.8728H16.2917C17.7004 2.8728 18.2083 3.7353 18.2083 4.78947Z" fill="#C73E51"/>
<path opacity="0.4" d="M8.7592 2.8726H3.4692C3.14337 2.51802 3.15295 1.97177 3.49795 1.62677L4.85879 0.265938C5.21337 -0.0886458 5.79795 -0.0886458 6.15254 0.265938L8.7592 2.8726Z" fill="#C73E51"/>
<path opacity="0.4" d="M14.7296 2.8726H9.43958L12.0462 0.265938C12.4008 -0.0886458 12.9854 -0.0886458 13.34 0.265938L14.7008 1.62677C15.0458 1.97177 15.0554 2.51802 14.7296 2.8726Z" fill="#C73E51"/>
<path opacity="0.6" d="M6.17169 7.66431V12.5901C6.17169 13.3568 7.01503 13.8072 7.65711 13.3951L8.55794 12.801C8.88378 12.5901 9.29586 12.5901 9.61211 12.801L10.465 13.376C11.0975 13.7976 11.9504 13.3472 11.9504 12.5806V7.66431H6.17169Z" fill="#C73E51"/>
</svg>
