<svg width="30" height="30" viewBox="0 0 30 30" fill="none" xmlns="http://www.w3.org/2000/svg">
<rect width="30" height="30" rx="15" fill="#D5D5D5"/>
<path d="M6.34148 19.3858C5.88061 19.3858 5.47481 19.2975 5.12409 19.1205C4.76663 18.9395 4.4901 18.6961 4.29507 18.3893C4.09836 18.079 4 17.7356 4 17.359C4 17.0791 4.05115 16.82 4.15344 16.5828C4.25967 16.3355 4.41086 16.1355 4.60589 15.9831C4.81665 15.819 5.05946 15.7364 5.33486 15.7364C5.45851 15.7364 5.56249 15.7701 5.64623 15.8376C5.75302 15.923 5.80642 16.0377 5.80642 16.1815C5.80642 16.3372 5.84857 16.4744 5.93288 16.593C6.0228 16.7194 6.14814 16.8183 6.3072 16.8892C6.47975 16.9656 6.67365 17.0038 6.88948 17.0038C7.14914 17.0038 7.36216 16.9459 7.52909 16.8301C7.70444 16.7082 7.84552 16.5368 7.95174 16.3147C7.94163 16.335 7.93713 16.3631 7.93938 16.3985C7.94275 16.4536 7.96299 16.5008 7.99896 16.5407C8.02031 16.5637 8.04673 16.5823 8.07821 16.5969C8.12598 16.6188 8.17656 16.6267 8.2294 16.6211C8.29572 16.6132 8.34742 16.5885 8.3834 16.5474L8.12991 16.3254L8.3997 16.5278C8.24513 16.734 8.06247 16.8948 7.85282 17.0111C7.63419 17.132 7.39082 17.1927 7.12329 17.1927C6.66016 17.1927 6.27685 16.9982 5.97222 16.6093C5.68782 16.2456 5.54563 15.7403 5.54563 15.094C5.54563 14.5758 5.64286 14.0823 5.83677 13.6124C6.02842 13.1471 6.29259 12.7323 6.62813 12.3669C6.96535 12.0005 7.35204 11.7105 7.78875 11.4969C8.23389 11.2794 8.70095 11.1709 9.19049 11.1709C9.76209 11.1709 10.2022 11.3227 10.5102 11.6273C10.8199 11.933 10.9744 12.3186 10.9744 12.784C10.9744 13.1274 10.8918 13.4241 10.7254 13.6754C10.5636 13.9204 10.3567 14.1059 10.1055 14.2312C9.85989 14.3538 9.60023 14.4156 9.32539 14.4156C9.17195 14.4156 9.02919 14.3746 8.89711 14.2936C8.78863 14.2267 8.71613 14.1385 8.67959 14.03C8.64138 13.9137 8.64924 13.7962 8.70489 13.6765C8.75154 13.5731 8.76053 13.4792 8.73186 13.3955C8.7313 13.3932 8.73074 13.3915 8.73018 13.3904C8.73018 13.391 8.73074 13.3915 8.7313 13.3921L8.73186 13.3932C8.70657 13.3797 8.66217 13.3724 8.59754 13.3724C8.4559 13.3724 8.33169 13.409 8.22377 13.4815C8.10406 13.5618 8.00907 13.6653 7.93994 13.7917C7.87193 13.9148 7.83765 14.0435 7.83765 14.1773C7.83765 14.3476 7.88655 14.4864 7.98322 14.5926C8.07258 14.6899 8.20804 14.7388 8.3907 14.7388C8.50761 14.7388 8.62451 14.7185 8.74142 14.6769C8.83809 14.6432 8.92689 14.5791 9.00783 14.4864L9.01176 14.4819L9.0157 14.478C9.16633 14.3155 9.33887 14.2408 9.53278 14.2543C9.70364 14.2661 9.84865 14.3318 9.96837 14.451C10.0386 14.5218 10.0875 14.6028 10.1139 14.6938C10.1404 14.7843 10.1432 14.8782 10.1224 14.9759C10.0352 15.3441 9.94195 15.6763 9.84303 15.9736L9.52772 16.9094C9.37147 17.3849 9.14047 17.8087 8.83528 18.1796C8.52616 18.5551 8.16083 18.849 7.73761 19.062C7.30989 19.2778 6.84395 19.3858 6.34148 19.3858ZM6.34148 18.7119C6.73716 18.7119 7.10193 18.6276 7.43466 18.4601C7.77245 18.2898 8.06584 18.0532 8.31483 17.7513C8.56662 17.4456 8.75772 17.0932 8.88924 16.6941L9.20342 15.7606C9.29616 15.4824 9.38271 15.1738 9.46309 14.8343C9.46028 14.8484 9.4614 14.8641 9.46702 14.8826C9.47264 14.9018 9.48051 14.9169 9.49175 14.9276C9.49119 14.9276 9.4895 14.9271 9.48613 14.9271C9.50131 14.9276 9.51479 14.9254 9.5266 14.9197V14.9203C9.52154 14.9242 9.51592 14.9299 9.50917 14.9366L9.26244 14.7073L9.51704 14.9287C9.35798 15.1114 9.17419 15.239 8.96568 15.3126C8.77683 15.3795 8.58461 15.4132 8.3907 15.4132C8.00964 15.4132 7.70782 15.2913 7.48525 15.0468C7.27111 14.8118 7.16376 14.5218 7.16376 14.1773C7.16376 13.9277 7.22558 13.6906 7.34923 13.4663C7.47176 13.2448 7.63756 13.0633 7.8472 12.9222C8.06921 12.7733 8.31876 12.6985 8.59754 12.6985C8.77851 12.6985 8.93195 12.7334 9.05841 12.8036C9.21017 12.8879 9.31414 13.0127 9.37035 13.1791C9.45578 13.4309 9.43779 13.6906 9.31695 13.9586C9.33606 13.9171 9.33719 13.8698 9.3192 13.8164C9.30403 13.7704 9.28098 13.7383 9.25007 13.7192C9.27424 13.7338 9.29897 13.7411 9.32539 13.7411C9.494 13.7411 9.65362 13.7035 9.80369 13.6287C9.94757 13.5562 10.0678 13.4483 10.1634 13.3039C10.255 13.165 10.3005 12.9919 10.3005 12.784C10.3005 12.5063 10.2129 12.2809 10.0369 12.1073C9.85989 11.9319 9.57774 11.8448 9.19049 11.8448C8.80493 11.8448 8.43623 11.9308 8.08495 12.1028C7.72412 12.2787 7.40431 12.5192 7.12441 12.8233C6.84283 13.1296 6.62138 13.4781 6.45951 13.8698C6.29989 14.2571 6.22008 14.6651 6.22008 15.094C6.22008 15.5858 6.31451 15.9522 6.50335 16.1939C6.67253 16.4103 6.87936 16.5188 7.12329 16.5188C7.27504 16.5188 7.40937 16.4862 7.52628 16.4215C7.65217 16.3518 7.76346 16.2524 7.86013 16.1231L7.868 16.113L7.87643 16.1034C7.95456 16.014 8.04617 15.9635 8.15183 15.9511C8.22434 15.9427 8.29347 15.9539 8.36035 15.9843C8.41037 16.0073 8.45478 16.0405 8.49468 16.0832C8.56662 16.1613 8.60597 16.2529 8.61215 16.3575C8.61777 16.4423 8.59978 16.5249 8.55988 16.6053C8.40251 16.9347 8.18668 17.1943 7.91296 17.3843C7.63082 17.5799 7.28965 17.6777 6.88948 17.6777C6.5781 17.6777 6.29315 17.6204 6.03348 17.5052C5.76201 17.3843 5.54506 17.2106 5.38376 16.9836C5.21627 16.7486 5.13252 16.4811 5.13252 16.1815C5.13252 16.2085 5.13814 16.2361 5.14995 16.2642C5.16625 16.3035 5.19154 16.3367 5.22526 16.3636C5.25055 16.3844 5.27809 16.3985 5.30676 16.4058C5.31856 16.4092 5.32755 16.4109 5.33486 16.4109C5.21402 16.4109 5.10948 16.4451 5.02068 16.5148C4.91613 16.5963 4.83351 16.7076 4.77225 16.8498C4.70705 17.0016 4.67389 17.1713 4.67389 17.359C4.67389 17.6052 4.7374 17.8278 4.86386 18.0273C4.99257 18.2302 5.18086 18.3938 5.42816 18.5185C5.68277 18.6472 5.98739 18.7119 6.34148 18.7119Z" fill="#D5D5D5"/>
<path d="M11.6973 13.687C11.4196 13.687 11.1768 13.6246 10.9677 13.5004C10.8306 13.4183 10.7277 13.3048 10.6597 13.1592C10.5996 13.0311 10.5692 12.8816 10.5692 12.7118C10.5692 12.2735 10.7081 11.9626 10.9857 11.7789C11.219 11.6249 11.4921 11.5479 11.8052 11.5479C12.0991 11.5479 12.3526 11.6164 12.5668 11.7541C12.7112 11.8469 12.8135 11.9773 12.8725 12.1464C12.9225 12.2875 12.9394 12.4527 12.9231 12.6416C12.8894 13.0277 12.7427 13.3042 12.4819 13.4717C12.2588 13.6151 11.9974 13.687 11.6973 13.687ZM11.6973 13.0131C11.8653 13.0131 12.0053 12.9771 12.1171 12.9046C12.1924 12.8563 12.2368 12.7495 12.2515 12.5843C12.2638 12.4376 12.2475 12.3505 12.2031 12.3212C12.0997 12.2555 11.9671 12.2223 11.8052 12.2223C11.627 12.2223 11.4781 12.2617 11.3578 12.3415C11.2814 12.3915 11.2437 12.5151 11.2437 12.7118C11.2437 12.8237 11.2667 12.894 11.3128 12.9215C11.4157 12.9822 11.5438 13.0131 11.6973 13.0131ZM10.6996 18.5498C10.4956 18.5498 10.3163 18.5099 10.1612 18.4301C9.99596 18.3452 9.86557 18.2193 9.76946 18.0524C9.61377 17.7821 9.53564 17.4606 9.53564 17.0891C9.53564 16.8592 9.55869 16.6181 9.60421 16.3646C9.64862 16.1173 9.70538 15.8801 9.77508 15.6513C9.99315 14.9735 10.2062 14.4491 10.4152 14.0787C10.6772 13.6139 11.0031 13.3812 11.3921 13.3812C11.6057 13.3812 11.7715 13.4599 11.8901 13.6167C11.9862 13.7438 12.0345 13.9129 12.0345 14.1231C12.0345 14.3423 11.9935 14.5655 11.9109 14.7914L11.7085 15.3478C11.6562 15.4934 11.6298 15.6272 11.6298 15.7497C11.6298 15.7885 11.6338 15.8183 11.6411 15.8396C11.6422 15.8447 11.6439 15.8481 11.645 15.8503C11.645 15.8498 11.6444 15.8492 11.6439 15.8486C11.6529 15.8576 11.6709 15.8621 11.6973 15.8621C11.749 15.8621 11.7889 15.8492 11.8176 15.8233C11.8906 15.7576 11.9642 15.6699 12.039 15.5597C12.098 15.4715 12.1733 15.4069 12.2644 15.367C12.3639 15.3231 12.4695 15.3147 12.5808 15.3411C12.7298 15.3771 12.8534 15.4558 12.9529 15.5783C13.0141 15.6547 13.0529 15.7357 13.0687 15.8216C13.0878 15.9296 13.0704 16.0324 13.017 16.1291L13.0125 16.137L13.008 16.1443C12.9563 16.2269 12.8927 16.3517 12.818 16.5175C12.7337 16.7046 12.6331 16.907 12.5151 17.1239C12.3925 17.3499 12.252 17.5646 12.0941 17.768C11.9243 17.9855 11.7316 18.1665 11.5146 18.3093C11.2729 18.4694 11.0009 18.5498 10.6996 18.5498ZM10.6996 17.8754C10.866 17.8754 11.0138 17.8327 11.1431 17.7472C11.2982 17.6449 11.4376 17.5134 11.5618 17.3538C11.6973 17.1796 11.8176 16.9958 11.9227 16.8024C12.0323 16.6001 12.1261 16.4129 12.2037 16.2409C12.2908 16.047 12.3684 15.8958 12.4364 15.7868L12.7219 15.9655L12.4274 15.802C12.4038 15.8447 12.3959 15.8913 12.4049 15.9408C12.4099 15.9683 12.4178 15.9891 12.4285 16.0026C12.4257 15.9993 12.424 15.997 12.4229 15.9964H12.4234C12.4594 16.0054 12.4965 16.0015 12.5353 15.9841C12.5645 15.9712 12.5847 15.9565 12.596 15.9397C12.4909 16.0937 12.3824 16.2218 12.2694 16.3236C12.1126 16.4652 11.9215 16.5366 11.6973 16.5366C11.4848 16.5366 11.3078 16.4658 11.1673 16.3252C11.0262 16.1847 10.9559 15.9925 10.9559 15.7497C10.9559 15.5491 10.9958 15.3383 11.0751 15.118L11.2774 14.5604C11.3325 14.4087 11.3606 14.2631 11.3606 14.1231C11.3606 14.0832 11.3572 14.0518 11.3516 14.0282C11.3499 14.0225 11.3488 14.0186 11.3477 14.0158C11.3482 14.0175 11.3499 14.0197 11.3522 14.0231C11.3617 14.0355 11.3741 14.0456 11.3893 14.0523C11.3938 14.054 11.3977 14.0557 11.4011 14.0563C11.3994 14.0557 11.396 14.0557 11.3921 14.0557C11.2656 14.0557 11.1358 14.1737 11.0026 14.4098C10.816 14.7408 10.6215 15.2203 10.4197 15.8486C10.3579 16.0515 10.3073 16.2629 10.2674 16.4837C10.2292 16.6973 10.2101 16.8991 10.2101 17.0891C10.2101 17.3409 10.2579 17.5499 10.354 17.7163C10.3838 17.7686 10.422 17.8062 10.4698 17.831C10.5277 17.8608 10.6041 17.8754 10.6996 17.8754Z" fill="#D5D5D5"/>
<path d="M15.2567 11C15.6344 11 15.9233 11.0955 16.1234 11.2866C16.3201 11.4744 16.4291 11.7037 16.451 11.9752C16.4696 12.2078 16.4387 12.4411 16.3572 12.6749C16.2751 12.9093 16.156 13.1088 15.9997 13.2729C15.8103 13.4713 15.5984 13.5702 15.3646 13.5702C15.2297 13.5702 15.1173 13.5382 15.0274 13.4741C14.9633 13.4286 14.915 13.3701 14.8824 13.2999C14.8531 13.2381 14.8385 13.1706 14.8385 13.0987C14.8385 13.0548 14.8352 13.02 14.8284 12.9936C14.8267 12.9863 14.825 12.9812 14.8234 12.9773C14.8234 12.9773 14.8245 12.979 14.8256 12.9807C14.8335 12.9908 14.843 12.9986 14.8548 13.0037C14.8576 13.0043 14.8593 13.0054 14.8599 13.0054C14.856 13.0043 14.8503 13.0043 14.843 13.0043C14.7683 13.0043 14.6941 13.0565 14.6205 13.1616C14.4985 13.3359 14.3917 13.5596 14.3001 13.8344L13.9803 13.7276V13.3904H14.924C15.0521 13.3904 15.1589 13.437 15.2455 13.5298C15.3067 13.5961 15.3489 13.6804 15.3708 13.7827C15.3983 13.912 15.3972 14.0525 15.3674 14.2053C15.3376 14.3588 15.2814 14.4959 15.1988 14.6179C15.1409 14.7033 15.0712 14.7691 14.9892 14.8157C14.9009 14.8663 14.8042 14.8916 14.6997 14.8916V14.2177C14.689 14.2177 14.6783 14.2183 14.6677 14.2188C14.6452 14.2211 14.6227 14.2256 14.6008 14.2329C14.5575 14.2458 14.5182 14.2672 14.4839 14.2964C14.4389 14.3341 14.4058 14.3807 14.3855 14.4352C14.3569 14.51 14.3557 14.5853 14.381 14.6612C14.4232 14.7882 14.5097 14.8629 14.6407 14.886C14.6446 14.8865 14.648 14.8871 14.6508 14.8877C14.6508 14.8877 14.6508 14.8877 14.6497 14.8877C14.6424 14.8865 14.6283 14.8854 14.6087 14.8832C14.5659 14.8787 14.4985 14.8719 14.4063 14.8629C14.2237 14.8455 14.005 14.8275 13.7504 14.8101L13.7735 14.4734L14.1028 14.5454C14.0331 14.8663 13.9764 15.1872 13.9325 15.5082C13.8876 15.8364 13.8505 16.1197 13.8207 16.358C13.7971 16.5732 13.7768 16.7896 13.7594 17.0088C13.7392 17.2511 13.7015 17.4759 13.6447 17.6816C13.5784 17.925 13.4671 18.1245 13.3109 18.2802C13.131 18.46 12.8843 18.55 12.5696 18.55C12.3779 18.55 12.2138 18.5151 12.0772 18.4465C11.917 18.3656 11.8001 18.2437 11.727 18.0812C11.6186 17.8401 11.5995 17.5029 11.6703 17.0707C11.7321 16.6947 11.8361 16.2265 11.9828 15.665C12.0497 15.4261 12.1165 15.1934 12.1829 14.9675C12.2503 14.7382 12.3206 14.5162 12.3942 14.3015L12.7129 14.4111V14.7477H12.5875C12.2874 14.7477 12.0688 14.682 11.9316 14.551C11.8574 14.4796 11.8046 14.3993 11.772 14.3099C11.7383 14.2149 11.7299 14.1165 11.7467 14.0137C11.7726 13.8614 11.8361 13.7265 11.9373 13.6101C12.0648 13.4634 12.2065 13.3904 12.3627 13.3904H12.9647V13.7276L12.6516 13.6023C12.8517 13.1037 13.0709 12.667 13.3098 12.2927C13.5604 11.9004 13.8403 11.5913 14.1506 11.3653C14.4856 11.122 14.8543 11 15.2567 11ZM15.2567 11.6739C15.0004 11.6739 14.7638 11.7526 14.5474 11.9105C14.3063 12.0864 14.0831 12.3343 13.878 12.6552C13.6616 12.9941 13.4615 13.3932 13.2777 13.8529L13.1929 14.0648H12.3627C12.3981 14.0648 12.429 14.057 12.4538 14.0418C12.456 14.0407 12.4583 14.0395 12.4594 14.0379V14.0384C12.456 14.0412 12.4515 14.0463 12.4459 14.0525C12.4279 14.0733 12.4167 14.0974 12.4122 14.1244C12.4139 14.112 12.4122 14.098 12.4071 14.0823C12.4043 14.0755 12.4015 14.0699 12.3981 14.0648V14.0643C12.3903 14.057 12.3841 14.0519 12.379 14.0497C12.3841 14.0519 12.3925 14.0547 12.4043 14.0575C12.4487 14.0682 12.5094 14.0738 12.5875 14.0738H13.185L13.0321 14.5201C12.9619 14.7252 12.8944 14.9377 12.8298 15.1575C12.764 15.3811 12.6994 15.6065 12.6348 15.8353C12.4937 16.3765 12.3936 16.8245 12.3357 17.1797C12.2868 17.4781 12.2885 17.6867 12.3419 17.8047C12.3633 17.8519 12.4392 17.8755 12.5696 17.8755C12.6977 17.8755 12.7865 17.8519 12.8343 17.8036C12.9062 17.7316 12.9596 17.6316 12.995 17.5034C13.04 17.3382 13.0709 17.155 13.0872 16.9543C13.1052 16.7295 13.1271 16.503 13.1518 16.2742C13.1816 16.0337 13.2193 15.7476 13.2642 15.4171C13.3109 15.0782 13.3705 14.7399 13.4447 14.4021L13.5065 14.1171L13.7971 14.1373C14.0579 14.1559 14.2827 14.1739 14.4715 14.1924C14.5648 14.2014 14.6339 14.2082 14.6778 14.2127C14.7014 14.2149 14.7188 14.2172 14.7301 14.2183C14.7407 14.2194 14.7503 14.2211 14.7582 14.2222C14.8902 14.2458 14.9779 14.3211 15.0201 14.4482C15.0454 14.5235 15.0442 14.5988 15.0161 14.6735C14.9953 14.7286 14.9622 14.7747 14.9172 14.8124C14.8829 14.8416 14.8436 14.8629 14.8003 14.8764C14.7784 14.8832 14.7559 14.8877 14.7329 14.8899C14.7216 14.891 14.7109 14.8916 14.6997 14.8916V14.2177C14.6845 14.2177 14.6699 14.2216 14.6547 14.2306C14.6486 14.234 14.6435 14.2374 14.6396 14.2413L14.6407 14.2396C14.6716 14.1935 14.6935 14.1396 14.7059 14.0766C14.7177 14.0143 14.7199 13.9631 14.7115 13.9243C14.7154 13.9429 14.7289 13.9642 14.7514 13.9884C14.7986 14.0395 14.856 14.0648 14.924 14.0648H13.5127L13.6605 13.6214C13.7729 13.2842 13.9089 13.002 14.0685 12.7744C14.2765 12.4782 14.5345 12.3298 14.843 12.3298C15.0645 12.3298 15.237 12.4096 15.3595 12.5692C15.4618 12.7019 15.513 12.8784 15.513 13.0987C15.513 13.0711 15.5062 13.043 15.4933 13.0149C15.4759 12.9784 15.4512 12.9486 15.4191 12.9256C15.3989 12.911 15.3792 12.9014 15.3601 12.8969C15.3573 12.8963 15.3556 12.8958 15.3545 12.8958C15.3567 12.8963 15.3601 12.8963 15.3646 12.8963C15.4062 12.8963 15.4551 12.8666 15.5119 12.8075C15.6012 12.7137 15.6704 12.5956 15.7204 12.4529C15.771 12.3084 15.7901 12.1674 15.7794 12.0291C15.771 11.9285 15.7305 11.8436 15.6574 11.7739C15.5877 11.7071 15.4545 11.6739 15.2567 11.6739Z" fill="#D5D5D5"/>
<path d="M15.3374 18.5501C14.8911 18.5501 14.555 18.4029 14.3285 18.1084C14.1234 17.8408 14.0205 17.503 14.0205 17.0939C14.0205 16.724 14.093 16.3295 14.2369 15.9102C14.315 15.6809 14.4027 15.433 14.4994 15.1677L14.8141 14.3044L15.1305 14.4202V14.7569C14.9057 14.7569 14.7259 14.6894 14.5915 14.5551C14.4763 14.4399 14.4016 14.3044 14.3662 14.1482C14.3319 13.997 14.3341 13.8587 14.3723 13.7328C14.4005 13.6401 14.4465 13.5642 14.5106 13.5058C14.5938 13.4293 14.6927 13.3906 14.8074 13.3906C14.9794 13.3906 15.1069 13.3495 15.1912 13.2669C15.3053 13.1556 15.3835 13.0421 15.4256 12.928L15.4279 12.9224L15.4301 12.9173C15.5633 12.5908 15.7095 12.3738 15.8674 12.267C16.0265 12.1591 16.1973 12.1057 16.38 12.1057C16.5323 12.1057 16.6632 12.1422 16.7723 12.2153C16.892 12.2957 16.9735 12.4098 17.0179 12.5576C17.0848 12.7824 17.0303 13.0752 16.8538 13.4355L16.5508 13.2877L16.8572 13.4276C16.8077 13.5356 16.7818 13.6069 16.779 13.6423C16.7807 13.6199 16.7779 13.5957 16.7706 13.5698C16.7577 13.5266 16.7346 13.4889 16.7015 13.4569C16.6722 13.4288 16.6396 13.4097 16.6037 13.3984C16.5868 13.3934 16.5722 13.3906 16.5598 13.3906H17.0275C17.155 13.3906 17.2624 13.4372 17.3484 13.5299C17.4102 13.5963 17.4518 13.6806 17.4737 13.7829C17.5013 13.9121 17.5001 14.0526 17.4703 14.2055C17.4406 14.359 17.3844 14.4961 17.3017 14.6181C17.2438 14.7035 17.1741 14.7692 17.0921 14.8159C17.0038 14.8665 16.9072 14.8918 16.8026 14.8918C16.5447 14.8918 16.3586 14.9008 16.2445 14.9193C16.2181 14.9232 16.1996 14.9283 16.1883 14.9351C16.1906 14.9339 16.1934 14.9306 16.1962 14.9255C16.1597 14.9823 16.1164 15.0975 16.0652 15.27C16 15.483 15.9995 15.6376 16.0635 15.7348C16.0905 15.7764 16.1248 15.8068 16.1653 15.8259C16.2159 15.8506 16.2816 15.8624 16.362 15.8624C16.4817 15.8624 16.5862 15.8371 16.6751 15.786C16.7689 15.732 16.8465 15.6584 16.9066 15.5662C16.9696 15.4712 17.0483 15.4049 17.1421 15.3656C17.2444 15.3234 17.3518 15.3178 17.4642 15.3493C17.6052 15.3886 17.7233 15.4645 17.8188 15.5769C17.884 15.6533 17.9245 15.7365 17.9402 15.827C17.9582 15.9299 17.943 16.0294 17.8947 16.1255L17.893 16.1288L17.8913 16.1328C17.8385 16.2323 17.7677 16.3705 17.6794 16.5481C17.5856 16.7353 17.4737 16.9376 17.3433 17.1551C17.2062 17.3833 17.0466 17.5986 16.8639 17.8009C16.6717 18.0134 16.453 18.1887 16.2086 18.327C15.9444 18.4754 15.6538 18.5501 15.3374 18.5501ZM15.3374 17.8757C15.5363 17.8757 15.7162 17.8302 15.8775 17.7397C16.0585 17.6374 16.2204 17.5075 16.3637 17.349C16.5166 17.1793 16.6503 16.9989 16.765 16.8084C16.8864 16.606 16.9904 16.4189 17.0764 16.2463C17.1674 16.0648 17.2405 15.9214 17.2956 15.8169L17.5934 15.9748L17.2922 15.8242C17.2736 15.8602 17.2686 15.9001 17.2759 15.9434C17.2815 15.9732 17.2911 15.9968 17.3051 16.0136C17.2989 16.0058 17.2911 16.0007 17.2826 15.9984C17.3197 16.0086 17.3591 16.0058 17.4001 15.9883C17.4327 15.9748 17.4563 15.9569 17.4715 15.9344C17.3518 16.1176 17.1983 16.2626 17.0106 16.3705C16.8178 16.4812 16.602 16.5369 16.362 16.5369C16.1793 16.5369 16.0163 16.5026 15.8736 16.4335C15.7207 16.3604 15.597 16.2514 15.5015 16.1069C15.32 15.8326 15.2924 15.4904 15.4183 15.0801C15.4874 14.8451 15.5577 14.672 15.6291 14.5613C15.7376 14.3927 15.9073 14.2904 16.1383 14.2533C16.2878 14.2297 16.5092 14.2179 16.8026 14.2179C16.788 14.2179 16.7728 14.2218 16.7577 14.2308C16.7515 14.2342 16.747 14.2376 16.7431 14.2415L16.7436 14.2398C16.7751 14.1937 16.7965 14.1398 16.8088 14.0768C16.8212 14.0144 16.8229 13.9633 16.8144 13.9245C16.8184 13.943 16.8319 13.9644 16.8543 13.9886C16.9016 14.0397 16.9594 14.065 17.0275 14.065H16.5598C16.4272 14.065 16.3187 14.024 16.2338 13.9425C16.1377 13.8503 16.0956 13.7323 16.1068 13.5884C16.1164 13.4743 16.1619 13.327 16.2445 13.1472L16.2479 13.1393C16.3058 13.0218 16.3434 12.9235 16.3614 12.8431C16.3727 12.7948 16.376 12.7639 16.3715 12.7498C16.371 12.7481 16.371 12.7476 16.371 12.747C16.3715 12.7493 16.3727 12.7515 16.3749 12.7538C16.3805 12.7622 16.3878 12.7695 16.3968 12.7751C16.4025 12.779 16.407 12.7813 16.4098 12.7819C16.4036 12.7807 16.3935 12.7796 16.38 12.7796C16.335 12.7796 16.29 12.7948 16.2456 12.8251C16.2333 12.833 16.2136 12.8589 16.1866 12.9021C16.1445 12.9685 16.1006 13.0589 16.054 13.1725L15.7421 13.0449L16.0579 13.1618C15.9804 13.3709 15.8488 13.5665 15.6634 13.7486C15.4481 13.9593 15.1626 14.065 14.8074 14.065C14.8681 14.065 14.9209 14.0436 14.967 14.0015C14.9934 13.9773 15.0097 13.9532 15.017 13.9296C15.0136 13.9414 15.0159 13.965 15.0238 13.9998C15.0305 14.029 15.0451 14.0555 15.0682 14.0785C15.0665 14.0768 15.0648 14.0751 15.0631 14.074C15.0631 14.074 15.0642 14.0746 15.0659 14.0751C15.0805 14.0802 15.1024 14.083 15.1305 14.083H15.6122L15.1328 15.3982C15.0378 15.6595 14.9518 15.9035 14.8743 16.1294C14.7545 16.4773 14.695 16.7988 14.695 17.0939C14.695 17.3502 14.7512 17.5514 14.863 17.6975C14.9546 17.8167 15.1126 17.8757 15.3374 17.8757Z" fill="#D5D5D5"/>
<path d="M18.6714 18.5499C18.2414 18.5499 17.8817 18.4488 17.5928 18.2459C17.3084 18.0469 17.0988 17.7839 16.9628 17.4567C16.834 17.1476 16.7717 16.8098 16.775 16.4434C16.7784 16.087 16.8397 15.7318 16.9588 15.3772C17.0785 15.0214 17.2516 14.6954 17.4782 14.3992C17.7103 14.0957 17.9919 13.8512 18.3235 13.6669C18.6652 13.4769 19.0479 13.3813 19.4717 13.3813C19.8146 13.3813 20.1012 13.4499 20.3311 13.5859C20.566 13.7253 20.7403 13.9125 20.8538 14.1474C20.96 14.3672 21.0129 14.6021 21.0129 14.8511C21.0129 15.1254 20.9392 15.3952 20.7909 15.6621C20.6442 15.9263 20.4396 16.1444 20.1771 16.3152C19.9056 16.4928 19.5892 16.5816 19.2289 16.5816C19.0862 16.5816 18.9468 16.571 18.8102 16.5507C18.6472 16.526 18.4966 16.4732 18.3572 16.3911C18.3887 16.4102 18.4252 16.4209 18.4651 16.4226C18.4988 16.4243 18.5303 16.4192 18.5584 16.4074C18.6197 16.3815 18.6641 16.34 18.6922 16.2809C18.7057 16.254 18.7118 16.2298 18.7118 16.2084L18.7102 16.2079C18.7214 16.2219 18.7461 16.2377 18.7855 16.2551C18.9249 16.3169 19.0997 16.3478 19.3099 16.3478C19.5645 16.3478 19.832 16.2809 20.113 16.1466C20.3828 16.0179 20.602 15.8246 20.7712 15.5655C20.8347 15.4705 20.9145 15.403 21.01 15.3642C21.1112 15.3232 21.218 15.3182 21.3299 15.3479C21.4754 15.3873 21.5963 15.4632 21.6924 15.5767C21.7609 15.6576 21.8014 15.7464 21.8138 15.8431C21.8273 15.9499 21.8048 16.0516 21.7469 16.1483L21.458 15.9746L21.7542 16.1348C21.3377 16.9054 20.8763 17.4955 20.371 17.9041C19.8387 18.3347 19.2722 18.5499 18.6714 18.5499ZM18.6714 17.8755C19.1131 17.8755 19.5386 17.7102 19.9472 17.3797C20.3828 17.0279 20.7875 16.5058 21.1612 15.8144L21.1652 15.8077L21.1691 15.8015C21.1472 15.8381 21.1388 15.8796 21.1449 15.9269C21.1494 15.9634 21.1607 15.9921 21.1787 16.0134C21.173 16.0067 21.1652 16.0016 21.1545 15.9988C21.1882 16.0084 21.2248 16.005 21.263 15.9892C21.2956 15.9763 21.3197 15.9578 21.3355 15.9342C21.0972 16.2989 20.7864 16.5721 20.403 16.7553C20.0304 16.9329 19.6662 17.0217 19.3099 17.0217C19.0047 17.0217 18.7388 16.9717 18.5129 16.8717C18.369 16.8081 18.2571 16.7244 18.1768 16.6199C18.084 16.5001 18.0379 16.363 18.0379 16.2084C18.0379 16.1275 18.0537 16.0544 18.0846 15.9892C18.1307 15.8937 18.2021 15.8251 18.2993 15.7847C18.4398 15.7262 18.573 15.7346 18.6989 15.8099C18.763 15.8476 18.8338 15.8723 18.9102 15.8841C19.0137 15.8993 19.1199 15.9072 19.2289 15.9072C19.4554 15.9072 19.6488 15.8549 19.8084 15.7509C19.9776 15.6402 20.1085 15.5019 20.2018 15.3345C20.2929 15.1698 20.339 15.0085 20.339 14.8511C20.339 14.705 20.3081 14.5678 20.2468 14.4402C20.1923 14.3278 20.1057 14.2362 19.9871 14.166C19.8635 14.0923 19.6915 14.0558 19.4717 14.0558C19.1643 14.0558 18.8911 14.1227 18.6511 14.2559C18.4016 14.3947 18.1891 14.5791 18.0138 14.8084C17.8322 15.0456 17.694 15.3069 17.5979 15.5924C17.5012 15.8791 17.4517 16.1646 17.4495 16.4496C17.4467 16.7244 17.4922 16.9739 17.5849 17.1982C17.6709 17.4045 17.8025 17.5697 17.9801 17.6939C18.1526 17.8153 18.383 17.8755 18.6714 17.8755ZM18.9951 15.2333C19.0682 15.2333 19.121 15.2153 19.1525 15.1793C19.1946 15.1327 19.2154 15.095 19.2154 15.0669C19.2154 15.0551 19.2121 15.0461 19.2059 15.0394C19.2076 15.0416 19.2098 15.0433 19.2121 15.0444C19.2121 15.0444 19.2109 15.0444 19.2093 15.0439C19.1935 15.0383 19.1699 15.0354 19.139 15.0354C19.062 15.0354 19.0058 15.054 18.9704 15.0917C18.9299 15.1344 18.9097 15.1715 18.9097 15.2018C18.9097 15.2097 18.9147 15.2192 18.9243 15.2299C18.9215 15.2271 18.9192 15.2249 18.917 15.2232C18.9164 15.2232 18.9159 15.2226 18.9159 15.2226C18.917 15.2232 18.9181 15.2237 18.9192 15.2243C18.9367 15.2299 18.962 15.2333 18.9951 15.2333ZM18.9951 15.9072C18.7529 15.9072 18.5635 15.8336 18.428 15.6863C18.2999 15.5469 18.2358 15.385 18.2358 15.2018C18.2358 14.9927 18.3173 14.8016 18.4803 14.6285C18.6489 14.4504 18.8687 14.3616 19.139 14.3616C19.3728 14.3616 19.5572 14.4318 19.6926 14.5729C19.8236 14.71 19.8893 14.8747 19.8893 15.0669C19.8893 15.2664 19.8118 15.4536 19.6555 15.6284C19.4897 15.8144 19.2694 15.9072 18.9951 15.9072Z" fill="#D5D5D5"/>
<path d="M22.5351 18.5499C22.1052 18.5499 21.7455 18.4488 21.4566 18.2459C21.1722 18.0469 20.9625 17.7839 20.8265 17.4567C20.6978 17.1476 20.6354 16.8098 20.6388 16.4434C20.6422 16.087 20.7034 15.7318 20.8226 15.3772C20.9423 15.0214 21.1154 14.6954 21.3419 14.3992C21.574 14.0957 21.8556 13.8512 22.1872 13.6669C22.529 13.4769 22.9117 13.3813 23.3355 13.3813C23.6783 13.3813 23.965 13.4499 24.1949 13.5859C24.4298 13.7253 24.604 13.9125 24.7176 14.1474C24.8238 14.3672 24.8766 14.6021 24.8766 14.8511C24.8766 15.1254 24.803 15.3952 24.6546 15.6621C24.5079 15.9263 24.3033 16.1444 24.0409 16.3152C23.7694 16.4928 23.453 16.5816 23.0927 16.5816C22.9499 16.5816 22.8105 16.571 22.674 16.5507C22.511 16.526 22.3603 16.4732 22.221 16.3911C22.2524 16.4102 22.289 16.4209 22.3289 16.4226C22.3626 16.4243 22.3941 16.4192 22.4222 16.4074C22.4834 16.3815 22.5278 16.34 22.5559 16.2809C22.5694 16.254 22.5756 16.2298 22.5756 16.2084L22.5739 16.2079C22.5852 16.2219 22.6099 16.2377 22.6492 16.2551C22.7886 16.3169 22.9634 16.3478 23.1736 16.3478C23.4282 16.3478 23.6958 16.2809 23.9768 16.1466C24.2466 16.0179 24.4658 15.8246 24.6349 15.5655C24.6985 15.4705 24.7783 15.403 24.8738 15.3642C24.975 15.3232 25.0818 15.3182 25.1936 15.3479C25.3392 15.3873 25.46 15.4632 25.5561 15.5767C25.6247 15.6576 25.6652 15.7464 25.6775 15.8431C25.691 15.9499 25.6686 16.0516 25.6107 16.1483L25.3218 15.9746L25.618 16.1348C25.2015 16.9054 24.7401 17.4955 24.2348 17.9041C23.7025 18.3347 23.136 18.5499 22.5351 18.5499ZM22.5351 17.8755C22.9769 17.8755 23.4024 17.7102 23.811 17.3797C24.2466 17.0279 24.6512 16.5058 25.025 15.8144L25.0289 15.8077L25.0329 15.8015C25.011 15.8381 25.0025 15.8796 25.0087 15.9269C25.0132 15.9634 25.0244 15.9921 25.0424 16.0134C25.0368 16.0067 25.0289 16.0016 25.0183 15.9988C25.052 16.0084 25.0885 16.005 25.1267 15.9892C25.1593 15.9763 25.1835 15.9578 25.1992 15.9342C24.9609 16.2989 24.6501 16.5721 24.2668 16.7553C23.8942 16.9329 23.53 17.0217 23.1736 17.0217C22.8684 17.0217 22.6026 16.9717 22.3766 16.8717C22.2328 16.8081 22.1209 16.7244 22.0405 16.6199C21.9478 16.5001 21.9017 16.363 21.9017 16.2084C21.9017 16.1275 21.9175 16.0544 21.9484 15.9892C21.9945 15.8937 22.0658 15.8251 22.1631 15.7847C22.3036 15.7262 22.4368 15.7346 22.5627 15.8099C22.6268 15.8476 22.6976 15.8723 22.774 15.8841C22.8774 15.8993 22.9837 15.9072 23.0927 15.9072C23.3192 15.9072 23.5125 15.8549 23.6722 15.7509C23.8413 15.6402 23.9723 15.5019 24.0656 15.3345C24.1566 15.1698 24.2027 15.0085 24.2027 14.8511C24.2027 14.705 24.1718 14.5678 24.1106 14.4402C24.056 14.3278 23.9695 14.2362 23.8509 14.166C23.7272 14.0923 23.5553 14.0558 23.3355 14.0558C23.0281 14.0558 22.7549 14.1227 22.5149 14.2559C22.2654 14.3947 22.0529 14.5791 21.8776 14.8084C21.696 15.0456 21.5577 15.3069 21.4616 15.5924C21.365 15.8791 21.3155 16.1646 21.3133 16.4496C21.3104 16.7244 21.356 16.9739 21.4487 17.1982C21.5347 17.4045 21.6662 17.5697 21.8438 17.6939C22.0164 17.8153 22.2468 17.8755 22.5351 17.8755ZM22.8589 15.2333C22.9319 15.2333 22.9848 15.2153 23.0163 15.1793C23.0584 15.1327 23.0792 15.095 23.0792 15.0669C23.0792 15.0551 23.0758 15.0461 23.0697 15.0394C23.0713 15.0416 23.0736 15.0433 23.0758 15.0444C23.0758 15.0444 23.0747 15.0444 23.073 15.0439C23.0573 15.0383 23.0337 15.0354 23.0028 15.0354C22.9258 15.0354 22.8696 15.054 22.8342 15.0917C22.7937 15.1344 22.7735 15.1715 22.7735 15.2018C22.7735 15.2097 22.7785 15.2192 22.7881 15.2299C22.7853 15.2271 22.783 15.2249 22.7808 15.2232C22.7802 15.2232 22.7796 15.2226 22.7796 15.2226C22.7808 15.2232 22.7819 15.2237 22.783 15.2243C22.8004 15.2299 22.8257 15.2333 22.8589 15.2333ZM22.8589 15.9072C22.6166 15.9072 22.4272 15.8336 22.2918 15.6863C22.1636 15.5469 22.0996 15.385 22.0996 15.2018C22.0996 14.9927 22.1811 14.8016 22.344 14.6285C22.5127 14.4504 22.7324 14.3616 23.0028 14.3616C23.2366 14.3616 23.4209 14.4318 23.5564 14.5729C23.6873 14.71 23.7531 14.8747 23.7531 15.0669C23.7531 15.2664 23.6755 15.4536 23.5193 15.6284C23.3535 15.8144 23.1332 15.9072 22.8589 15.9072Z" fill="#D5D5D5"/>
<path d="M6.34181 19.0488C5.93376 19.0488 5.57855 18.9723 5.27617 18.8194C4.97322 18.6666 4.7411 18.4625 4.57923 18.2079C4.41736 17.9533 4.33643 17.6701 4.33643 17.3581C4.33643 17.1243 4.37858 16.9102 4.46232 16.7151C4.54663 16.5207 4.66354 16.3644 4.81304 16.2475C4.96254 16.1306 5.13678 16.0722 5.33462 16.0722C5.42455 16.0722 5.46951 16.1081 5.46951 16.1801C5.46951 16.4083 5.53246 16.6106 5.65836 16.7871C5.78426 16.9641 5.95512 17.1007 6.17094 17.1963C6.38677 17.2924 6.6262 17.3401 6.89036 17.3401C7.2186 17.3401 7.49512 17.2626 7.71994 17.1063C7.94476 16.9506 8.12293 16.7348 8.25501 16.4589C8.2848 16.3993 8.28199 16.3498 8.24602 16.3105C8.21005 16.2717 8.1707 16.2762 8.12911 16.324C8.00321 16.492 7.85596 16.6224 7.68847 16.7151C7.52042 16.8084 7.33213 16.8545 7.12417 16.8545C6.77008 16.8545 6.47501 16.7039 6.23839 16.4026C6.00121 16.1003 5.88318 15.6641 5.88318 15.0942C5.88318 14.621 5.97142 14.1696 6.14846 13.7408C6.32494 13.3125 6.56719 12.9303 6.87463 12.5942C7.18319 12.2587 7.53672 11.9934 7.93577 11.7984C8.33426 11.6039 8.75242 11.5061 9.19026 11.5061C9.66968 11.5061 10.0311 11.6264 10.2739 11.8658C10.5167 12.1058 10.6381 12.4116 10.6381 12.7831C10.6381 13.059 10.5735 13.2945 10.4447 13.489C10.3155 13.684 10.1525 13.8307 9.95464 13.9296C9.7568 14.0286 9.54659 14.078 9.32515 14.078C9.23522 14.078 9.15091 14.0544 9.07335 14.0061C8.99522 13.9583 8.97443 13.8954 9.0104 13.8172C9.09415 13.6318 9.10763 13.4547 9.05087 13.2867C8.99354 13.1192 8.84235 13.0349 8.59673 13.0349C8.38653 13.0349 8.19937 13.0905 8.03469 13.2012C7.86945 13.3125 7.73905 13.4547 7.6435 13.6284C7.54739 13.8026 7.49962 13.9853 7.49962 14.1769C7.49962 14.4349 7.57718 14.6491 7.73343 14.8199C7.88912 14.9908 8.10775 15.0762 8.3899 15.0762C8.54559 15.0762 8.70015 15.0492 8.85303 14.9953C9.0059 14.9413 9.14192 14.8458 9.2622 14.7075C9.33976 14.6238 9.42238 14.585 9.5095 14.5906C9.59605 14.5968 9.66968 14.63 9.72982 14.6895C9.7894 14.7497 9.81075 14.8216 9.79277 14.9054C9.70846 15.2594 9.61853 15.5798 9.52299 15.8676C9.42688 16.1542 9.32177 16.465 9.20824 16.8006C9.06436 17.2384 8.85303 17.6268 8.57425 17.9651C8.29548 18.3035 7.96556 18.5688 7.58505 18.761C7.20567 18.9527 6.79144 19.0488 6.34181 19.0488Z" fill="#BEBDC2"/>
<path d="M11.6986 13.3501C11.4827 13.3501 11.2967 13.304 11.141 13.2107C10.9848 13.118 10.9072 12.9516 10.9072 12.7116C10.9072 12.3941 10.9955 12.1765 11.1725 12.0596C11.349 11.9427 11.5603 11.8843 11.8065 11.8843C12.0324 11.8843 12.2252 11.9354 12.3843 12.0372C12.5428 12.1394 12.6102 12.3311 12.5866 12.6127C12.5624 12.8887 12.4663 13.0803 12.2988 13.1882C12.1325 13.2961 11.9324 13.3501 11.6986 13.3501ZM10.7004 18.2129C10.4002 18.2129 10.1878 18.1039 10.0619 17.8847C9.936 17.666 9.87305 17.4008 9.87305 17.0888C9.87305 16.8792 9.89384 16.6572 9.936 16.4234C9.97759 16.1896 10.0315 15.9659 10.0979 15.7512C10.3075 15.0981 10.5115 14.5956 10.7094 14.2449C10.9072 13.8942 11.1348 13.7188 11.3928 13.7188C11.5963 13.7188 11.6986 13.8537 11.6986 14.1235C11.6986 14.3033 11.6637 14.4877 11.5952 14.6765C11.526 14.8654 11.4586 15.0514 11.3928 15.2341C11.3265 15.4173 11.2939 15.5893 11.2939 15.7512C11.2939 15.8995 11.331 16.0114 11.4063 16.0861C11.4811 16.1614 11.5783 16.1985 11.6986 16.1985C11.8363 16.1985 11.9509 16.1575 12.0425 16.0749C12.1353 15.9911 12.2269 15.8832 12.3168 15.7512C12.3646 15.6792 12.4259 15.6522 12.5012 15.6702C12.5759 15.6882 12.6389 15.7287 12.69 15.7916C12.7406 15.8546 12.7513 15.9125 12.7215 15.9647C12.6614 16.0608 12.5911 16.1985 12.5102 16.3784C12.4292 16.5583 12.3314 16.7533 12.2179 16.9629C12.1055 17.1731 11.9757 17.3721 11.829 17.5609C11.6817 17.7498 11.5153 17.906 11.3299 18.0286C11.1438 18.1517 10.9342 18.2129 10.7004 18.2129Z" fill="#BEBDC2"/>
<path d="M15.2561 11.3379C15.5438 11.3379 15.7552 11.4025 15.8901 11.5312C16.025 11.6588 16.0997 11.8156 16.1149 12.0011C16.1295 12.1871 16.1042 12.3743 16.0384 12.5632C15.9721 12.752 15.8777 12.9111 15.7552 13.0398C15.6321 13.169 15.5017 13.2331 15.364 13.2331C15.2381 13.2331 15.1751 13.1881 15.1751 13.0982C15.1751 12.8105 15.0639 12.6666 14.8424 12.6666C14.6502 12.6666 14.4838 12.7672 14.3433 12.9678C14.2039 13.169 14.0831 13.422 13.9814 13.7277H14.9233C14.9829 13.7277 15.0223 13.7699 15.0402 13.8536C15.0582 13.9379 15.0565 14.0335 15.0358 14.1414C15.0144 14.2493 14.9756 14.3454 14.9188 14.4291C14.8615 14.5135 14.7885 14.555 14.6985 14.555C14.7103 14.555 14.6232 14.546 14.4377 14.5281C14.2534 14.5101 14.0319 14.4921 13.7745 14.4741C13.7026 14.804 13.6441 15.1339 13.5992 15.4633C13.5542 15.7932 13.5165 16.0771 13.4868 16.3154C13.4626 16.5374 13.4418 16.7594 13.4238 16.9808C13.4058 17.2028 13.371 17.4069 13.3204 17.5923C13.2692 17.7784 13.1866 17.9284 13.0731 18.042C12.959 18.1561 12.7909 18.2128 12.5695 18.2128C12.2935 18.2128 12.1154 18.1229 12.0344 17.9431C11.9535 17.7632 11.9434 17.4906 12.003 17.1247C12.0631 16.7594 12.1648 16.3013 12.3087 15.7511C12.3745 15.5173 12.4402 15.288 12.5065 15.0631C12.5723 14.8383 12.6414 14.6214 12.7134 14.4112H12.5875C12.3773 14.4112 12.2368 14.3769 12.1648 14.3077C12.0929 14.2392 12.0648 14.1594 12.0794 14.0694C12.0946 13.9795 12.1317 13.9003 12.1918 13.8311C12.2514 13.7626 12.3087 13.7277 12.3627 13.7277H12.9652C13.1568 13.2483 13.3665 12.8301 13.5947 12.4732C13.8223 12.1169 14.0735 11.8387 14.3478 11.6391C14.6232 11.4385 14.9262 11.3379 15.2561 11.3379Z" fill="#BEBDC2"/>
<path d="M15.3371 18.213C15.001 18.213 14.7537 18.1096 14.5952 17.9027C14.4362 17.6959 14.3569 17.4261 14.3569 17.0934C14.3569 16.7607 14.4233 16.4026 14.5548 16.0188C14.6323 15.7928 14.7195 15.5478 14.8156 15.2836C14.9111 15.02 15.0162 14.7322 15.1303 14.4203C14.9982 14.4203 14.8976 14.386 14.8291 14.3169C14.7599 14.2483 14.715 14.1674 14.6942 14.0741C14.6728 13.9813 14.6728 13.9004 14.6942 13.8313C14.715 13.7627 14.7526 13.7279 14.8066 13.7279C15.0702 13.7279 15.277 13.6548 15.4271 13.5075C15.5766 13.3608 15.6817 13.2063 15.7418 13.0444C15.8497 12.7808 15.9543 12.6144 16.0566 12.5453C16.1583 12.4767 16.2662 12.4419 16.3803 12.4419C16.5478 12.4419 16.6523 12.5127 16.6928 12.6532C16.7344 12.7943 16.6872 13.0056 16.5512 13.2872C16.4848 13.4311 16.4489 13.5407 16.4432 13.6154C16.4371 13.6908 16.4758 13.7279 16.5602 13.7279H17.0255C17.0851 13.7279 17.1244 13.77 17.1424 13.8538C17.1604 13.9381 17.1587 14.0336 17.1379 14.1415C17.1166 14.2494 17.0778 14.3455 17.021 14.4293C16.9637 14.5136 16.8906 14.5552 16.8007 14.5552C16.5264 14.5552 16.323 14.5659 16.1915 14.5867C16.0594 14.608 15.9666 14.6603 15.9127 14.744C15.8587 14.8283 15.8014 14.9722 15.7418 15.1757C15.6457 15.4876 15.6592 15.7366 15.7823 15.9221C15.9048 16.1064 16.0982 16.1986 16.3623 16.1986C16.5422 16.1986 16.7018 16.1593 16.8412 16.0795C16.9817 15.9985 17.0975 15.8895 17.1874 15.7512C17.2352 15.6793 17.2964 15.654 17.3717 15.6748C17.4465 15.6961 17.5094 15.7366 17.5606 15.7962C17.6112 15.8563 17.6219 15.9153 17.5921 15.9738C17.5381 16.0761 17.4662 16.2166 17.3762 16.3964C17.2863 16.5763 17.1784 16.7713 17.0525 16.981C16.9266 17.1912 16.7794 17.389 16.6119 17.5745C16.4455 17.7605 16.2555 17.9134 16.0431 18.0331C15.8301 18.1534 15.5946 18.213 15.3371 18.213Z" fill="#BEBDC2"/>
<path d="M18.6722 18.2126C18.3125 18.2126 18.0169 18.1317 17.7864 17.9698C17.5554 17.808 17.3846 17.5938 17.2738 17.3268C17.1625 17.0604 17.1086 16.7665 17.112 16.4456C17.1148 16.1252 17.1704 15.8048 17.2783 15.4856C17.3862 15.1652 17.5419 14.8713 17.746 14.6043C17.9494 14.3379 18.1967 14.1232 18.4879 13.9613C18.7784 13.7994 19.1061 13.7185 19.4703 13.7185C19.7519 13.7185 19.9812 13.7713 20.1583 13.8759C20.3347 13.981 20.4651 14.1204 20.5494 14.294C20.6332 14.4683 20.6753 14.6538 20.6753 14.8516C20.6753 15.0674 20.6152 15.2832 20.4955 15.4991C20.3752 15.7149 20.2077 15.8936 19.9919 16.0341C19.7761 16.1735 19.522 16.2432 19.2298 16.2432C19.1039 16.2432 18.9808 16.2342 18.8611 16.2162C18.7408 16.1983 18.6301 16.1595 18.5283 16.0993C18.498 16.0813 18.4654 16.0802 18.4294 16.0948C18.3934 16.11 18.3754 16.1477 18.3754 16.2072C18.3754 16.3635 18.4665 16.4815 18.6497 16.5625C18.8324 16.6434 19.0521 16.6839 19.3084 16.6839C19.6142 16.6839 19.9301 16.6063 20.2572 16.45C20.5837 16.2944 20.849 16.0611 21.053 15.7509C21.1008 15.6789 21.1638 15.6536 21.2419 15.6744C21.3194 15.6958 21.3841 15.7363 21.4352 15.7958C21.4858 15.856 21.4937 15.915 21.4577 15.9734C21.062 16.7052 20.6287 17.2611 20.1583 17.6416C19.6873 18.0227 19.1921 18.2126 18.6722 18.2126ZM18.9959 15.571C19.1679 15.571 19.3039 15.5159 19.4029 15.4046C19.5018 15.2939 19.5512 15.1815 19.5512 15.0674C19.5512 14.9657 19.5164 14.8786 19.4478 14.8066C19.3787 14.7347 19.2758 14.6987 19.1398 14.6987C18.9656 14.6987 18.8279 14.7527 18.7262 14.8606C18.6239 14.9685 18.5733 15.0826 18.5733 15.2023C18.5733 15.2984 18.6076 15.3838 18.6767 15.4586C18.7453 15.5339 18.8521 15.571 18.9959 15.571Z" fill="#BEBDC2"/>
<path d="M22.5374 18.2126C22.1777 18.2126 21.8821 18.1317 21.6517 17.9698C21.4207 17.808 21.2498 17.5938 21.1391 17.3268C21.0278 17.0604 20.9738 16.7665 20.9772 16.4456C20.98 16.1252 21.0357 15.8048 21.1436 15.4856C21.2515 15.1652 21.4072 14.8713 21.6112 14.6043C21.8146 14.3379 22.0619 14.1232 22.3531 13.9613C22.6437 13.7994 22.9713 13.7185 23.3355 13.7185C23.6171 13.7185 23.8464 13.7713 24.0235 13.8759C24.2 13.981 24.3304 14.1204 24.4147 14.294C24.4984 14.4683 24.5406 14.6538 24.5406 14.8516C24.5406 15.0674 24.4804 15.2832 24.3607 15.4991C24.2404 15.7149 24.0729 15.8936 23.8571 16.0341C23.6413 16.1735 23.3873 16.2432 23.095 16.2432C22.9691 16.2432 22.846 16.2342 22.7263 16.2162C22.606 16.1983 22.4953 16.1595 22.3936 16.0993C22.3632 16.0813 22.3306 16.0802 22.2946 16.0948C22.2587 16.11 22.2407 16.1477 22.2407 16.2072C22.2407 16.3635 22.3317 16.4815 22.515 16.5625C22.6976 16.6434 22.9174 16.6839 23.1737 16.6839C23.4794 16.6839 23.7953 16.6063 24.1224 16.45C24.449 16.2944 24.7142 16.0611 24.9183 15.7509C24.966 15.6789 25.029 15.6536 25.1071 15.6744C25.1847 15.6958 25.2493 15.7363 25.3005 15.7958C25.351 15.856 25.3589 15.915 25.3229 15.9734C24.9273 16.7052 24.4939 17.2611 24.0235 17.6416C23.5525 18.0227 23.0573 18.2126 22.5374 18.2126ZM22.8612 15.571C23.0332 15.571 23.1692 15.5159 23.2681 15.4046C23.367 15.2939 23.4165 15.1815 23.4165 15.0674C23.4165 14.9657 23.3816 14.8786 23.3131 14.8066C23.2439 14.7347 23.1411 14.6987 23.0051 14.6987C22.8308 14.6987 22.6931 14.7527 22.5914 14.8606C22.4891 14.9685 22.4385 15.0826 22.4385 15.2023C22.4385 15.2984 22.4728 15.3838 22.5419 15.4586C22.6105 15.5339 22.7173 15.571 22.8612 15.571Z" fill="#BEBDC2"/>
</svg>
