<svg width="24" height="25" viewBox="0 0 24 25" fill="none" xmlns="http://www.w3.org/2000/svg">
<rect y="1" width="24" height="24" rx="12" fill="#D5D5D5"/>
<rect x="16" width="8" height="8" rx="4" fill="white"/>
<path d="M18.5038 6.00005C18.3636 6.00005 18.2327 5.95179 18.1384 5.86217C18.0189 5.74956 17.9615 5.57951 17.9822 5.39567L18.0672 4.6511C18.0833 4.51092 18.1683 4.32478 18.2671 4.22367L20.1538 2.22668C20.6249 1.72801 21.1167 1.71422 21.6154 2.18532C22.114 2.65641 22.1278 3.14819 21.6567 3.64686L19.77 5.64385C19.6735 5.74727 19.4943 5.84378 19.3541 5.86676L18.6141 5.99316C18.5751 5.99545 18.5406 6.00005 18.5038 6.00005ZM20.8915 2.18302C20.7145 2.18302 20.5606 2.29332 20.4043 2.45878L18.5176 4.45807C18.4717 4.50633 18.4188 4.62123 18.4096 4.68787L18.3246 5.43244C18.3154 5.50827 18.3338 5.57032 18.3751 5.60938C18.4165 5.64845 18.4785 5.66224 18.5544 5.65075L19.2943 5.52436C19.361 5.51287 19.4713 5.45312 19.5173 5.40486L21.4039 3.40787C21.6889 3.10453 21.7923 2.82417 21.3764 2.4335C21.1925 2.25656 21.034 2.18302 20.8915 2.18302Z" fill="#F72E50"/>
<path d="M21.2157 4.03068C21.2111 4.03068 21.2043 4.03068 21.1997 4.03068C20.4827 3.95944 19.9059 3.41481 19.7956 2.70242C19.7818 2.6082 19.8461 2.52088 19.9403 2.50479C20.0346 2.491 20.1219 2.55535 20.138 2.64957C20.2253 3.20569 20.6757 3.63312 21.2364 3.68828C21.3306 3.69747 21.3996 3.78249 21.3904 3.87671C21.3789 3.96404 21.3031 4.03068 21.2157 4.03068Z" fill="#F72E50"/>
<path d="M5.42214 16.2578C5.06533 16.2578 4.75116 16.1895 4.47964 16.0525C4.2029 15.9123 3.98881 15.7239 3.83782 15.4864C3.68552 15.2462 3.60938 14.9803 3.60938 14.6888C3.60938 14.4721 3.64897 14.2715 3.72817 14.0878C3.81041 13.8964 3.92746 13.7415 4.07845 13.6236C4.24162 13.4965 4.4296 13.4325 4.64281 13.4325C4.73854 13.4325 4.81904 13.4586 4.88388 13.5109C4.96655 13.577 5.00789 13.6658 5.00789 13.7772C5.00789 13.8977 5.04053 14.0039 5.1058 14.0957C5.17542 14.1936 5.27245 14.2702 5.39559 14.325C5.52918 14.3842 5.6793 14.4138 5.84639 14.4138C6.04742 14.4138 6.21234 14.3689 6.34157 14.2793C6.47733 14.1849 6.58655 14.0522 6.66879 13.8803C6.66096 13.8959 6.65748 13.9177 6.65922 13.9451C6.66183 13.9878 6.67749 14.0243 6.70534 14.0552C6.72188 14.073 6.74233 14.0874 6.7667 14.0987C6.80368 14.1157 6.84284 14.1218 6.88375 14.1174C6.93509 14.1113 6.97512 14.0922 7.00297 14.0604L6.80673 13.8885L7.01559 14.0452C6.89593 14.2049 6.75451 14.3293 6.59221 14.4194C6.42294 14.513 6.23453 14.56 6.02741 14.56C5.66886 14.56 5.3721 14.4094 5.13625 14.1083C4.91608 13.8268 4.80599 13.4356 4.80599 12.9352C4.80599 12.534 4.88127 12.1519 5.03139 11.7882C5.17977 11.4279 5.38428 11.1067 5.64405 10.8239C5.90513 10.5402 6.2045 10.3157 6.5426 10.1503C6.88723 9.98193 7.24882 9.89795 7.62782 9.89795C8.07035 9.89795 8.41106 10.0154 8.64951 10.2513C8.88927 10.488 9.00893 10.7865 9.00893 11.1468C9.00893 11.4126 8.94497 11.6424 8.81617 11.8369C8.69085 12.0266 8.53072 12.1702 8.33622 12.2672C8.14606 12.3621 7.94503 12.41 7.73225 12.41C7.61346 12.41 7.50294 12.3782 7.40068 12.3155C7.3167 12.2638 7.26057 12.1954 7.23229 12.1115C7.2027 12.0214 7.20879 11.9305 7.25187 11.8378C7.28798 11.7577 7.29495 11.685 7.27275 11.6202C7.27232 11.6185 7.27188 11.6172 7.27145 11.6163C7.27145 11.6167 7.27188 11.6172 7.27232 11.6176L7.27275 11.6185C7.25317 11.608 7.2188 11.6024 7.16876 11.6024C7.0591 11.6024 6.96294 11.6306 6.87939 11.6868C6.78671 11.749 6.71317 11.8291 6.65965 11.927C6.607 12.0223 6.58046 12.1219 6.58046 12.2255C6.58046 12.3573 6.61831 12.4648 6.69316 12.547C6.76234 12.6223 6.86721 12.6602 7.00863 12.6602C7.09914 12.6602 7.18964 12.6445 7.28015 12.6123C7.35499 12.5862 7.42374 12.5366 7.4864 12.4648L7.48945 12.4613L7.4925 12.4583C7.60911 12.3325 7.7427 12.2746 7.89282 12.2851C8.0251 12.2942 8.13736 12.3451 8.23005 12.4374C8.28444 12.4922 8.32229 12.5549 8.34274 12.6254C8.3632 12.6954 8.36537 12.7681 8.34927 12.8438C8.28183 13.1288 8.20959 13.386 8.13301 13.6162L7.8889 14.3407C7.76793 14.7088 7.5891 15.0369 7.35282 15.324C7.1135 15.6147 6.83066 15.8423 6.50301 16.0072C6.17187 16.1743 5.81114 16.2578 5.42214 16.2578ZM5.42214 15.7361C5.72847 15.7361 6.01087 15.6709 6.26847 15.5412C6.52998 15.4093 6.75712 15.2261 6.94989 14.9925C7.14483 14.7558 7.29277 14.4829 7.39459 14.174L7.63783 13.4512C7.70963 13.2358 7.77664 12.997 7.83886 12.7341C7.83669 12.745 7.83756 12.7572 7.84191 12.7716C7.84626 12.7864 7.85235 12.7981 7.86105 12.8064C7.86062 12.8064 7.85931 12.8059 7.8567 12.8059C7.86845 12.8064 7.87889 12.8046 7.88803 12.8003V12.8007C7.88412 12.8038 7.87976 12.8081 7.87454 12.8133L7.68352 12.6358L7.88063 12.8072C7.75749 12.9487 7.6152 13.0474 7.45377 13.1044C7.30756 13.1562 7.15875 13.1823 7.00863 13.1823C6.71361 13.1823 6.47994 13.0879 6.30763 12.8986C6.14185 12.7167 6.05874 12.4922 6.05874 12.2255C6.05874 12.0323 6.1066 11.8486 6.20233 11.675C6.29719 11.5036 6.42555 11.363 6.58786 11.2538C6.75973 11.1385 6.95293 11.0806 7.16876 11.0806C7.30887 11.0806 7.42766 11.1076 7.52557 11.162C7.64305 11.2273 7.72355 11.3239 7.76706 11.4527C7.8332 11.6476 7.81928 11.8486 7.72573 12.0562C7.74052 12.024 7.74139 11.9875 7.72747 11.9461C7.71572 11.9104 7.69788 11.8856 7.67395 11.8708C7.69266 11.8822 7.7118 11.8878 7.73225 11.8878C7.86279 11.8878 7.98637 11.8587 8.10255 11.8008C8.21395 11.7447 8.30706 11.6611 8.38104 11.5493C8.45196 11.4418 8.48721 11.3078 8.48721 11.1468C8.48721 10.9318 8.41933 10.7573 8.28313 10.6229C8.14606 10.4871 7.92763 10.4197 7.62782 10.4197C7.32932 10.4197 7.04387 10.4862 6.77192 10.6194C6.49256 10.7556 6.24497 10.9418 6.02828 11.1772C5.81027 11.4144 5.63883 11.6842 5.51351 11.9875C5.38994 12.2873 5.32815 12.6032 5.32815 12.9352C5.32815 13.3159 5.40125 13.5996 5.54745 13.7867C5.67843 13.9543 5.83856 14.0382 6.02741 14.0382C6.14489 14.0382 6.24889 14.013 6.3394 13.963C6.43686 13.909 6.52302 13.832 6.59786 13.7319L6.60396 13.7241L6.61048 13.7167C6.67097 13.6475 6.74189 13.6083 6.8237 13.5987C6.87983 13.5922 6.93335 13.6009 6.98513 13.6244C7.02386 13.6423 7.05823 13.6679 7.08913 13.701C7.14483 13.7615 7.17528 13.8324 7.18007 13.9134C7.18442 13.9791 7.1705 14.043 7.1396 14.1052C7.01777 14.3602 6.85068 14.5613 6.63877 14.7083C6.42033 14.8598 6.1562 14.9355 5.84639 14.9355C5.60533 14.9355 5.38471 14.8911 5.18368 14.8019C4.97351 14.7083 4.80555 14.5739 4.68067 14.3981C4.551 14.2162 4.48617 14.0091 4.48617 13.7772C4.48617 13.798 4.49052 13.8194 4.49966 13.8411C4.51227 13.8716 4.53186 13.8973 4.55796 13.9181C4.57754 13.9342 4.59887 13.9451 4.62106 13.9508C4.6302 13.9534 4.63716 13.9547 4.64281 13.9547C4.54926 13.9547 4.46833 13.9812 4.39958 14.0352C4.31864 14.0983 4.25468 14.1844 4.20725 14.2945C4.15677 14.412 4.1311 14.5434 4.1311 14.6888C4.1311 14.8793 4.18027 15.0517 4.27817 15.2061C4.37782 15.3632 4.52359 15.4898 4.71505 15.5864C4.91216 15.6861 5.148 15.7361 5.42214 15.7361Z" fill="#D5D5D5"/>
<path d="M9.56854 11.8458C9.35358 11.8458 9.16561 11.7975 9.00374 11.7013C8.89756 11.6378 8.81794 11.5499 8.76528 11.4372C8.71873 11.338 8.69523 11.2223 8.69523 11.0909C8.69523 10.7515 8.80271 10.5108 9.01766 10.3685C9.19824 10.2493 9.40972 10.1897 9.65208 10.1897C9.87966 10.1897 10.0759 10.2428 10.2417 10.3494C10.3535 10.4212 10.4327 10.5221 10.4784 10.6531C10.5171 10.7623 10.5302 10.8903 10.5176 11.0365C10.4915 11.3354 10.3779 11.5495 10.176 11.6792C10.0032 11.7901 9.8009 11.8458 9.56854 11.8458ZM9.56854 11.3241C9.69864 11.3241 9.80699 11.2962 9.89358 11.2401C9.95189 11.2027 9.98627 11.12 9.99758 10.9921C10.0072 10.8785 9.99453 10.8111 9.96016 10.7884C9.88009 10.7375 9.7774 10.7119 9.65208 10.7119C9.51415 10.7119 9.39884 10.7423 9.30572 10.8041C9.24654 10.8428 9.21739 10.9386 9.21739 11.0909C9.21739 11.1774 9.23523 11.2318 9.27091 11.2532C9.35054 11.3002 9.44975 11.3241 9.56854 11.3241ZM8.79618 15.6106C8.63823 15.6106 8.49942 15.5797 8.37932 15.5179C8.25139 15.4522 8.15044 15.3547 8.07603 15.2255C7.9555 15.0162 7.89502 14.7673 7.89502 14.4797C7.89502 14.3017 7.91286 14.115 7.94811 13.9188C7.98248 13.7273 8.02643 13.5437 8.08039 13.3666C8.24922 12.8418 8.41413 12.4359 8.576 12.1491C8.77877 11.7892 9.03115 11.6091 9.33226 11.6091C9.49761 11.6091 9.62598 11.67 9.71779 11.7914C9.7922 11.8898 9.82962 12.0207 9.82962 12.1835C9.82962 12.3532 9.79785 12.5259 9.73389 12.7008L9.57724 13.1316C9.53677 13.2443 9.51632 13.3479 9.51632 13.4427C9.51632 13.4728 9.51937 13.4958 9.52503 13.5124C9.5259 13.5163 9.5272 13.5189 9.52807 13.5206C9.52807 13.5202 9.52764 13.5198 9.5272 13.5193C9.53416 13.5263 9.54809 13.5298 9.56854 13.5298C9.60857 13.5298 9.63947 13.5198 9.66166 13.4997C9.71822 13.4488 9.77523 13.381 9.8331 13.2957C9.87879 13.2274 9.9371 13.1773 10.0076 13.1464C10.0846 13.1125 10.1664 13.106 10.2526 13.1264C10.3679 13.1543 10.4636 13.2152 10.5406 13.31C10.5881 13.3692 10.6181 13.4319 10.6303 13.4984C10.6451 13.582 10.6316 13.6616 10.5902 13.7365L10.5867 13.7426L10.5833 13.7482C10.5432 13.8122 10.4941 13.9088 10.4362 14.0371C10.3709 14.182 10.293 14.3387 10.2017 14.5066C10.1068 14.6816 9.99801 14.8478 9.87574 15.0053C9.74433 15.1737 9.59508 15.3138 9.42712 15.4243C9.24001 15.5484 9.02941 15.6106 8.79618 15.6106ZM8.79618 15.0884C8.92498 15.0884 9.03942 15.0553 9.1395 14.9892C9.25959 14.91 9.36751 14.8082 9.46367 14.6846C9.56854 14.5497 9.66166 14.4074 9.74303 14.2578C9.82788 14.1011 9.90054 13.9562 9.96059 13.8231C10.028 13.6729 10.0881 13.5559 10.1407 13.4715L10.3618 13.6098L10.1338 13.4832C10.1155 13.5163 10.1094 13.5524 10.1164 13.5907C10.1203 13.612 10.1264 13.6281 10.1346 13.6386C10.1325 13.6359 10.1312 13.6342 10.1303 13.6338H10.1307C10.1586 13.6407 10.1873 13.6377 10.2173 13.6242C10.2399 13.6142 10.2556 13.6029 10.2643 13.5898C10.1829 13.709 10.099 13.8083 10.0115 13.887C9.8901 13.9967 9.74216 14.0519 9.56854 14.0519C9.40406 14.0519 9.26699 13.9971 9.15821 13.8883C9.04899 13.7795 8.9946 13.6307 8.9946 13.4427C8.9946 13.2874 9.02549 13.1242 9.08685 12.9537L9.24349 12.522C9.28614 12.4045 9.30789 12.2918 9.30789 12.1835C9.30789 12.1526 9.30528 12.1282 9.30093 12.1099C9.29963 12.1056 9.29876 12.1025 9.29789 12.1004C9.29832 12.1017 9.29963 12.1034 9.30137 12.106C9.30876 12.1156 9.31834 12.1234 9.33009 12.1286C9.33357 12.13 9.33661 12.1313 9.33922 12.1317C9.33792 12.1313 9.33531 12.1313 9.33226 12.1313C9.23436 12.1313 9.13384 12.2226 9.03071 12.4054C8.88625 12.6617 8.7357 13.0329 8.57948 13.5193C8.53162 13.6764 8.49246 13.84 8.46156 14.011C8.43197 14.1764 8.41718 14.3326 8.41718 14.4797C8.41718 14.6746 8.45416 14.8365 8.52857 14.9653C8.55163 15.0057 8.58122 15.0349 8.61821 15.054C8.66303 15.0771 8.72221 15.0884 8.79618 15.0884Z" fill="#D5D5D5"/>
<path d="M12.3241 9.76562C12.6165 9.76562 12.8402 9.8396 12.9951 9.98754C13.1474 10.1329 13.2318 10.3104 13.2488 10.5206C13.2631 10.7007 13.2392 10.8813 13.1761 11.0623C13.1126 11.2438 13.0203 11.3982 12.8994 11.5253C12.7527 11.6789 12.5887 11.7555 12.4077 11.7555C12.3032 11.7555 12.2162 11.7307 12.1466 11.6811C12.097 11.6458 12.0596 11.6006 12.0343 11.5462C12.0117 11.4983 12.0004 11.4461 12.0004 11.3904C12.0004 11.3565 11.9978 11.3295 11.9926 11.309C11.9912 11.3034 11.9899 11.2995 11.9886 11.2964C11.9886 11.2964 11.9895 11.2977 11.9904 11.299C11.9965 11.3069 12.0039 11.313 12.013 11.3169C12.0152 11.3173 12.0165 11.3182 12.0169 11.3182C12.0139 11.3173 12.0095 11.3173 12.0039 11.3173C11.946 11.3173 11.8886 11.3578 11.8316 11.4391C11.7371 11.574 11.6545 11.7472 11.5835 11.96L11.3359 11.8773V11.6162H12.0665C12.1657 11.6162 12.2484 11.6524 12.3154 11.7242C12.3629 11.7755 12.3955 11.8408 12.4125 11.92C12.4338 12.02 12.4329 12.1288 12.4098 12.2472C12.3868 12.366 12.3433 12.4721 12.2793 12.5666C12.2345 12.6327 12.1805 12.6836 12.117 12.7197C12.0487 12.7589 11.9738 12.7785 11.8929 12.7785V12.2568C11.8846 12.2568 11.8764 12.2572 11.8681 12.2576C11.8507 12.2594 11.8333 12.2629 11.8163 12.2685C11.7828 12.2785 11.7524 12.295 11.7258 12.3177C11.691 12.3468 11.6653 12.3829 11.6497 12.4252C11.6275 12.483 11.6266 12.5413 11.6462 12.6001C11.6788 12.6984 11.7458 12.7563 11.8472 12.7741C11.8503 12.7746 11.8529 12.775 11.8551 12.7754C11.8551 12.7754 11.8551 12.7754 11.8542 12.7754C11.8485 12.7746 11.8376 12.7737 11.8224 12.772C11.7893 12.7685 11.7371 12.7633 11.6658 12.7563C11.5244 12.7428 11.3551 12.7289 11.158 12.7154L11.1758 12.4547L11.4308 12.5104C11.3768 12.7589 11.3329 13.0074 11.299 13.2558C11.2641 13.5099 11.2354 13.7292 11.2124 13.9137C11.1941 14.0804 11.1784 14.2479 11.1649 14.4176C11.1493 14.6052 11.1201 14.7792 11.0762 14.9385C11.0248 15.1269 10.9387 15.2814 10.8177 15.4019C10.6785 15.5411 10.4874 15.6108 10.2438 15.6108C10.0954 15.6108 9.96832 15.5838 9.86258 15.5307C9.73857 15.468 9.64806 15.3736 9.59149 15.2479C9.50751 15.0612 9.49272 14.8001 9.54755 14.4655C9.59541 14.1744 9.67591 13.8119 9.78948 13.3772C9.84126 13.1923 9.89304 13.0121 9.94439 12.8372C9.9966 12.6597 10.051 12.4878 10.108 12.3216L10.3547 12.4064V12.6671H10.2577C10.0253 12.6671 9.85605 12.6162 9.74988 12.5148C9.69244 12.4595 9.65154 12.3973 9.6263 12.3281C9.6002 12.2546 9.59367 12.1784 9.60672 12.0988C9.62674 11.9809 9.67591 11.8765 9.75423 11.7864C9.85301 11.6728 9.96266 11.6162 10.0836 11.6162H10.5497V11.8773L10.3073 11.7803C10.4622 11.3943 10.6319 11.0562 10.8168 10.7664C11.0109 10.4627 11.2276 10.2234 11.4678 10.0485C11.7271 9.86005 12.0126 9.76562 12.3241 9.76562ZM12.3241 10.2873C12.1257 10.2873 11.9425 10.3483 11.775 10.4705C11.5883 10.6067 11.4156 10.7986 11.2567 11.0471C11.0892 11.3095 10.9343 11.6184 10.792 11.9744L10.7263 12.1384H10.0836C10.111 12.1384 10.135 12.1323 10.1541 12.1206C10.1559 12.1197 10.1576 12.1188 10.1585 12.1175V12.118C10.1559 12.1201 10.1524 12.124 10.148 12.1288C10.1341 12.1449 10.1254 12.1636 10.1219 12.1845C10.1232 12.175 10.1219 12.1641 10.118 12.1519C10.1158 12.1467 10.1137 12.1423 10.111 12.1384V12.138C10.105 12.1323 10.1002 12.1284 10.0962 12.1267C10.1002 12.1284 10.1067 12.1306 10.1158 12.1327C10.1502 12.141 10.1972 12.1454 10.2577 12.1454H10.7202L10.6019 12.4909C10.5475 12.6497 10.4953 12.8142 10.4452 12.9843C10.3943 13.1575 10.3443 13.332 10.2942 13.5091C10.185 13.9281 10.1076 14.2749 10.0627 14.5499C10.0249 14.781 10.0262 14.9424 10.0675 15.0338C10.0841 15.0703 10.1428 15.0886 10.2438 15.0886C10.343 15.0886 10.4117 15.0703 10.4487 15.0329C10.5044 14.9772 10.5457 14.8998 10.5732 14.8005C10.608 14.6726 10.6319 14.5308 10.6445 14.3754C10.6584 14.2014 10.6754 14.026 10.6946 13.8489C10.7176 13.6627 10.7468 13.4412 10.7816 13.1853C10.8177 12.9229 10.8638 12.661 10.9213 12.3995L10.9691 12.1789L11.1941 12.1945C11.396 12.2089 11.57 12.2228 11.7162 12.2372C11.7885 12.2441 11.842 12.2494 11.8759 12.2528C11.8942 12.2546 11.9077 12.2563 11.9164 12.2572C11.9247 12.2581 11.9321 12.2594 11.9382 12.2602C12.0404 12.2785 12.1083 12.3368 12.1409 12.4352C12.1605 12.4935 12.1596 12.5518 12.1379 12.6097C12.1218 12.6523 12.0961 12.688 12.0613 12.7171C12.0348 12.7398 12.0043 12.7563 11.9708 12.7667C11.9538 12.772 11.9364 12.7754 11.9186 12.7772C11.9099 12.778 11.9016 12.7785 11.8929 12.7785V12.2568C11.8812 12.2568 11.8698 12.2598 11.8581 12.2668C11.8533 12.2694 11.8494 12.272 11.8464 12.275L11.8472 12.2737C11.8712 12.238 11.8881 12.1963 11.8977 12.1475C11.9068 12.0992 11.9086 12.0596 11.902 12.0296C11.9051 12.044 11.9155 12.0605 11.9329 12.0792C11.9695 12.1188 12.0139 12.1384 12.0665 12.1384H10.9739L11.0883 11.7951C11.1754 11.534 11.2807 11.3156 11.4043 11.1393C11.5653 10.91 11.765 10.7951 12.0039 10.7951C12.1753 10.7951 12.3089 10.8569 12.4038 10.9805C12.4829 11.0832 12.5225 11.2198 12.5225 11.3904C12.5225 11.3691 12.5173 11.3473 12.5073 11.3256C12.4938 11.2973 12.4747 11.2742 12.4499 11.2564C12.4342 11.2451 12.419 11.2377 12.4042 11.2342C12.402 11.2338 12.4007 11.2333 12.3998 11.2333C12.4016 11.2338 12.4042 11.2338 12.4077 11.2338C12.4399 11.2338 12.4777 11.2107 12.5217 11.165C12.5909 11.0923 12.6444 11.001 12.6831 10.8904C12.7223 10.7786 12.7371 10.6694 12.7288 10.5624C12.7223 10.4845 12.6909 10.4188 12.6344 10.3648C12.5804 10.313 12.4773 10.2873 12.3241 10.2873Z" fill="#D5D5D5"/>
<path d="M12.3867 15.6108C12.0412 15.6108 11.781 15.4968 11.6056 15.2688C11.4468 15.0617 11.3672 14.8002 11.3672 14.4834C11.3672 14.1971 11.4233 13.8916 11.5347 13.567C11.5952 13.3895 11.6631 13.1976 11.7379 12.9922L11.9816 12.3238L12.2266 12.4135V12.6741C12.0525 12.6741 11.9133 12.6219 11.8093 12.5179C11.7201 12.4287 11.6622 12.3238 11.6348 12.2029C11.6083 12.0858 11.61 11.9788 11.6396 11.8813C11.6613 11.8095 11.697 11.7508 11.7466 11.7055C11.811 11.6463 11.8876 11.6163 11.9764 11.6163C12.1095 11.6163 12.2083 11.5845 12.2736 11.5206C12.3619 11.4344 12.4224 11.3465 12.455 11.2582L12.4568 11.2538L12.4585 11.2499C12.5616 10.9971 12.6748 10.8291 12.797 10.7465C12.9202 10.6629 13.0525 10.6216 13.1939 10.6216C13.3118 10.6216 13.4132 10.6499 13.4976 10.7064C13.5903 10.7687 13.6534 10.857 13.6877 10.9714C13.7395 11.1455 13.6973 11.3722 13.5607 11.6511L13.3262 11.5367L13.5633 11.645C13.525 11.7286 13.505 11.7838 13.5028 11.8112C13.5041 11.7938 13.5019 11.7751 13.4963 11.7551C13.4863 11.7216 13.4684 11.6924 13.4428 11.6676C13.4201 11.6459 13.3949 11.6311 13.3671 11.6224C13.354 11.6185 13.3427 11.6163 13.3331 11.6163H13.6951C13.7939 11.6163 13.877 11.6524 13.9436 11.7242C13.9915 11.7756 14.0237 11.8408 14.0406 11.92C14.062 12.0201 14.0611 12.1289 14.038 12.2472C14.015 12.366 13.9715 12.4722 13.9075 12.5666C13.8627 12.6328 13.8087 12.6837 13.7452 12.7198C13.6769 12.759 13.602 12.7785 13.5211 12.7785C13.3214 12.7785 13.1773 12.7855 13.089 12.7999C13.0686 12.8029 13.0542 12.8068 13.0455 12.812C13.0472 12.8112 13.0494 12.8086 13.0516 12.8046C13.0233 12.8486 12.9898 12.9378 12.9502 13.0714C12.8997 13.2363 12.8993 13.356 12.9489 13.4312C12.9698 13.4634 12.9963 13.4869 13.0277 13.5017C13.0668 13.5209 13.1177 13.53 13.1799 13.53C13.2726 13.53 13.3536 13.5104 13.4223 13.4708C13.495 13.4291 13.555 13.3721 13.6016 13.3007C13.6503 13.2272 13.7112 13.1758 13.7839 13.1453C13.8631 13.1127 13.9462 13.1084 14.0332 13.1327C14.1425 13.1632 14.2338 13.2219 14.3078 13.309C14.3583 13.3681 14.3896 13.4325 14.4018 13.5026C14.4157 13.5822 14.404 13.6592 14.3666 13.7336L14.3653 13.7363L14.3639 13.7393C14.323 13.8163 14.2682 13.9234 14.1999 14.0609C14.1272 14.2058 14.0406 14.3624 13.9397 14.5308C13.8335 14.7075 13.7099 14.8741 13.5685 15.0308C13.4197 15.1953 13.2504 15.331 13.0612 15.4381C12.8566 15.5529 12.6317 15.6108 12.3867 15.6108ZM12.3867 15.0887C12.5407 15.0887 12.68 15.0534 12.8049 14.9833C12.945 14.9042 13.0703 14.8036 13.1813 14.6809C13.2996 14.5495 13.4032 14.4098 13.4919 14.2623C13.5859 14.1057 13.6664 13.9608 13.733 13.8272C13.8035 13.6867 13.8601 13.5757 13.9027 13.4948L14.1333 13.617L13.9001 13.5004C13.8857 13.5283 13.8818 13.5592 13.8875 13.5927C13.8918 13.6157 13.8992 13.634 13.9101 13.6471C13.9053 13.641 13.8992 13.637 13.8927 13.6353C13.9214 13.6431 13.9519 13.641 13.9836 13.6275C14.0089 13.617 14.0272 13.6031 14.0389 13.5857C13.9462 13.7276 13.8274 13.8398 13.6821 13.9234C13.5328 14.0091 13.3658 14.0522 13.1799 14.0522C13.0385 14.0522 12.9123 14.0256 12.8018 13.9721C12.6835 13.9155 12.5877 13.8311 12.5138 13.7193C12.3732 13.5069 12.3519 13.2419 12.4494 12.9243C12.5029 12.7424 12.5573 12.6084 12.6125 12.5227C12.6965 12.3921 12.8279 12.3129 13.0068 12.2842C13.1225 12.2659 13.294 12.2568 13.5211 12.2568C13.5098 12.2568 13.498 12.2599 13.4863 12.2668C13.4815 12.2694 13.478 12.272 13.475 12.2751L13.4754 12.2738C13.4998 12.2381 13.5163 12.1963 13.5259 12.1476C13.5355 12.0993 13.5368 12.0597 13.5302 12.0297C13.5333 12.044 13.5437 12.0606 13.5611 12.0793C13.5977 12.1189 13.6425 12.1385 13.6951 12.1385H13.3331C13.2304 12.1385 13.1464 12.1067 13.0807 12.0436C13.0063 11.9722 12.9737 11.8809 12.9824 11.7695C12.9898 11.6811 13.025 11.5671 13.089 11.4279L13.0916 11.4218C13.1364 11.3308 13.1656 11.2547 13.1795 11.1925C13.1882 11.1551 13.1908 11.1311 13.1873 11.1202C13.1869 11.1189 13.1869 11.1185 13.1869 11.1181C13.1873 11.1198 13.1882 11.1215 13.19 11.1233C13.1943 11.1298 13.2 11.1355 13.2069 11.1398C13.2113 11.1429 13.2148 11.1446 13.2169 11.145C13.2121 11.1442 13.2043 11.1433 13.1939 11.1433C13.1591 11.1433 13.1243 11.1551 13.0899 11.1786C13.0803 11.1846 13.0651 11.2047 13.0442 11.2382C13.0116 11.2895 12.9776 11.3596 12.9415 11.4475L12.7 11.3487L12.9445 11.4392C12.8845 11.6011 12.7827 11.7525 12.6391 11.8935C12.4724 12.0566 12.2514 12.1385 11.9764 12.1385C12.0234 12.1385 12.0643 12.1219 12.1 12.0893C12.1204 12.0706 12.133 12.0519 12.1387 12.0336C12.1361 12.0427 12.1378 12.061 12.1439 12.088C12.1491 12.1106 12.1604 12.1311 12.1783 12.1489C12.177 12.1476 12.1757 12.1463 12.1744 12.1454C12.1744 12.1454 12.1752 12.1459 12.1765 12.1463C12.1878 12.1502 12.2048 12.1524 12.2266 12.1524H12.5995L12.2283 13.1706C12.1548 13.3729 12.0882 13.5618 12.0282 13.7367C11.9355 14.006 11.8893 14.2549 11.8893 14.4834C11.8893 14.6818 11.9329 14.8376 12.0195 14.9507C12.0904 15.043 12.2126 15.0887 12.3867 15.0887Z" fill="#D5D5D5"/>
<path d="M14.9677 15.6106C14.6349 15.6106 14.3564 15.5323 14.1327 15.3752C13.9126 15.2212 13.7502 15.0175 13.6449 14.7643C13.5453 14.525 13.497 14.2634 13.4996 13.9797C13.5022 13.7039 13.5497 13.4289 13.6419 13.1543C13.7346 12.8788 13.8686 12.6265 14.044 12.3972C14.2237 12.1622 14.4417 11.9729 14.6984 11.8302C14.963 11.6831 15.2593 11.6091 15.5874 11.6091C15.8528 11.6091 16.0747 11.6622 16.2527 11.7675C16.4346 11.8754 16.5695 12.0203 16.6574 12.2022C16.7396 12.3724 16.7805 12.5542 16.7805 12.747C16.7805 12.9593 16.7235 13.1682 16.6086 13.3749C16.4951 13.5794 16.3367 13.7482 16.1335 13.8805C15.9233 14.018 15.6783 14.0868 15.3994 14.0868C15.2889 14.0868 15.181 14.0785 15.0752 14.0628C14.949 14.0437 14.8324 14.0028 14.7245 13.9393C14.7489 13.9541 14.7772 13.9623 14.8081 13.9636C14.8342 13.9649 14.8585 13.961 14.8803 13.9519C14.9277 13.9319 14.9621 13.8997 14.9838 13.854C14.9943 13.8331 14.9991 13.8144 14.9991 13.7978L14.9978 13.7974C15.0065 13.8083 15.0256 13.8205 15.0561 13.834C15.164 13.8818 15.2993 13.9058 15.4621 13.9058C15.6592 13.9058 15.8663 13.854 16.0839 13.75C16.2927 13.6503 16.4624 13.5007 16.5934 13.3001C16.6426 13.2265 16.7044 13.1743 16.7783 13.1443C16.8567 13.1125 16.9393 13.1086 17.0259 13.1317C17.1386 13.1621 17.2322 13.2209 17.3066 13.3088C17.3597 13.3714 17.391 13.4402 17.4006 13.515C17.411 13.5977 17.3936 13.6764 17.3488 13.7513L17.1251 13.6168L17.3544 13.7408C17.032 14.3374 16.6748 14.7943 16.2836 15.1106C15.8715 15.444 15.4329 15.6106 14.9677 15.6106ZM14.9677 15.0884C15.3098 15.0884 15.6392 14.9605 15.9555 14.7047C16.2927 14.4323 16.606 14.028 16.8954 13.4928L16.8984 13.4876L16.9015 13.4828C16.8845 13.5111 16.878 13.5433 16.8828 13.5798C16.8862 13.6081 16.895 13.6303 16.9089 13.6469C16.9045 13.6416 16.8984 13.6377 16.8902 13.6355C16.9163 13.6429 16.9446 13.6403 16.9741 13.6281C16.9994 13.6181 17.0181 13.6038 17.0303 13.5855C16.8458 13.8679 16.6052 14.0794 16.3084 14.2212C16.0199 14.3587 15.7379 14.4275 15.4621 14.4275C15.2258 14.4275 15.02 14.3888 14.845 14.3113C14.7336 14.2621 14.6471 14.1973 14.5848 14.1164C14.513 14.0237 14.4774 13.9175 14.4774 13.7978C14.4774 13.7352 14.4895 13.6786 14.5135 13.6281C14.5492 13.5542 14.6044 13.5011 14.6797 13.4698C14.7885 13.4245 14.8916 13.431 14.9891 13.4893C15.0387 13.5185 15.0935 13.5376 15.1527 13.5468C15.2327 13.5585 15.315 13.5646 15.3994 13.5646C15.5748 13.5646 15.7244 13.5241 15.848 13.4436C15.979 13.3579 16.0804 13.2509 16.1526 13.1212C16.2231 12.9937 16.2588 12.8688 16.2588 12.747C16.2588 12.6339 16.2349 12.5277 16.1874 12.4289C16.1452 12.3419 16.0782 12.271 15.9864 12.2166C15.8907 12.1596 15.7575 12.1313 15.5874 12.1313C15.3494 12.1313 15.1379 12.1831 14.9521 12.2862C14.7589 12.3937 14.5944 12.5364 14.4586 12.7139C14.3181 12.8976 14.2111 13.0999 14.1366 13.3209C14.0618 13.5429 14.0235 13.7639 14.0218 13.9845C14.0196 14.1973 14.0548 14.3905 14.1266 14.5641C14.1932 14.7238 14.295 14.8517 14.4325 14.9479C14.5661 15.0419 14.7445 15.0884 14.9677 15.0884ZM15.2184 13.0429C15.275 13.0429 15.3159 13.029 15.3402 13.0011C15.3729 12.965 15.389 12.9358 15.389 12.9141C15.389 12.905 15.3863 12.898 15.3816 12.8928C15.3829 12.8945 15.3846 12.8958 15.3863 12.8967C15.3863 12.8967 15.3855 12.8967 15.3842 12.8963C15.372 12.8919 15.3537 12.8897 15.3298 12.8897C15.2702 12.8897 15.2267 12.9041 15.1992 12.9332C15.1679 12.9663 15.1522 12.995 15.1522 13.0185C15.1522 13.0246 15.1562 13.032 15.1636 13.0403C15.1614 13.0381 15.1596 13.0364 15.1579 13.0351C15.1575 13.0351 15.157 13.0346 15.157 13.0346C15.1579 13.0351 15.1588 13.0355 15.1596 13.0359C15.1731 13.0403 15.1927 13.0429 15.2184 13.0429ZM15.2184 13.5646C15.0308 13.5646 14.8842 13.5076 14.7793 13.3936C14.6801 13.2857 14.6305 13.1604 14.6305 13.0185C14.6305 12.8567 14.6936 12.7087 14.8198 12.5747C14.9503 12.4368 15.1205 12.368 15.3298 12.368C15.5108 12.368 15.6535 12.4224 15.7584 12.5316C15.8598 12.6378 15.9107 12.7653 15.9107 12.9141C15.9107 13.0686 15.8506 13.2135 15.7297 13.3488C15.6013 13.4928 15.4307 13.5646 15.2184 13.5646Z" fill="#D5D5D5"/>
<path d="M17.9597 15.6106C17.6268 15.6106 17.3483 15.5323 17.1247 15.3752C16.9045 15.2212 16.7422 15.0175 16.6369 14.7643C16.5372 14.525 16.4889 14.2634 16.4916 13.9797C16.4942 13.7039 16.5416 13.4289 16.6338 13.1543C16.7265 12.8788 16.8605 12.6265 17.0359 12.3972C17.2156 12.1622 17.4336 11.9729 17.6903 11.8302C17.9549 11.6831 18.2512 11.6091 18.5793 11.6091C18.8448 11.6091 19.0667 11.6622 19.2446 11.7675C19.4265 11.8754 19.5614 12.0203 19.6493 12.2022C19.7316 12.3724 19.7725 12.5542 19.7725 12.747C19.7725 12.9593 19.7155 13.1682 19.6006 13.3749C19.487 13.5794 19.3286 13.7482 19.1254 13.8805C18.9152 14.018 18.6703 14.0868 18.3913 14.0868C18.2808 14.0868 18.1729 14.0785 18.0672 14.0628C17.941 14.0437 17.8244 14.0028 17.7165 13.9393C17.7408 13.9541 17.7691 13.9623 17.8 13.9636C17.8261 13.9649 17.8505 13.961 17.8722 13.9519C17.9197 13.9319 17.954 13.8997 17.9758 13.854C17.9862 13.8331 17.991 13.8144 17.991 13.7978L17.9897 13.7974C17.9984 13.8083 18.0176 13.8205 18.048 13.834C18.1559 13.8818 18.2913 13.9058 18.454 13.9058C18.6511 13.9058 18.8582 13.854 19.0758 13.75C19.2847 13.6503 19.4544 13.5007 19.5853 13.3001C19.6345 13.2265 19.6963 13.1743 19.7703 13.1443C19.8486 13.1125 19.9313 13.1086 20.0179 13.1317C20.1306 13.1621 20.2241 13.2209 20.2985 13.3088C20.3516 13.3714 20.3829 13.4402 20.3925 13.515C20.403 13.5977 20.3856 13.6764 20.3407 13.7513L20.1171 13.6168L20.3464 13.7408C20.024 14.3374 19.6667 14.7943 19.2755 15.1106C18.8635 15.444 18.4248 15.6106 17.9597 15.6106ZM17.9597 15.0884C18.3017 15.0884 18.6311 14.9605 18.9474 14.7047C19.2847 14.4323 19.598 14.028 19.8873 13.4928L19.8904 13.4876L19.8934 13.4828C19.8765 13.5111 19.8699 13.5433 19.8747 13.5798C19.8782 13.6081 19.8869 13.6303 19.9008 13.6469C19.8965 13.6416 19.8904 13.6377 19.8821 13.6355C19.9082 13.6429 19.9365 13.6403 19.9661 13.6281C19.9913 13.6181 20.01 13.6038 20.0222 13.5855C19.8377 13.8679 19.5971 14.0794 19.3003 14.2212C19.0118 14.3587 18.7299 14.4275 18.454 14.4275C18.2177 14.4275 18.0119 14.3888 17.837 14.3113C17.7256 14.2621 17.639 14.1973 17.5768 14.1164C17.505 14.0237 17.4693 13.9175 17.4693 13.7978C17.4693 13.7352 17.4815 13.6786 17.5054 13.6281C17.5411 13.5542 17.5964 13.5011 17.6716 13.4698C17.7804 13.4245 17.8835 13.431 17.981 13.4893C18.0306 13.5185 18.0854 13.5376 18.1446 13.5468C18.2247 13.5585 18.3069 13.5646 18.3913 13.5646C18.5667 13.5646 18.7164 13.5241 18.84 13.4436C18.9709 13.3579 19.0723 13.2509 19.1446 13.1212C19.215 12.9937 19.2507 12.8688 19.2507 12.747C19.2507 12.6339 19.2268 12.5277 19.1794 12.4289C19.1372 12.3419 19.0702 12.271 18.9783 12.2166C18.8826 12.1596 18.7495 12.1313 18.5793 12.1313C18.3413 12.1313 18.1298 12.1831 17.944 12.2862C17.7508 12.3937 17.5863 12.5364 17.4506 12.7139C17.31 12.8976 17.203 13.0999 17.1286 13.3209C17.0537 13.5429 17.0155 13.7639 17.0137 13.9845C17.0115 14.1973 17.0468 14.3905 17.1186 14.5641C17.1852 14.7238 17.287 14.8517 17.4245 14.9479C17.5581 15.0419 17.7365 15.0884 17.9597 15.0884ZM18.2103 13.0429C18.2669 13.0429 18.3078 13.029 18.3322 13.0011C18.3648 12.965 18.3809 12.9358 18.3809 12.9141C18.3809 12.905 18.3783 12.898 18.3735 12.8928C18.3748 12.8945 18.3765 12.8958 18.3783 12.8967C18.3783 12.8967 18.3774 12.8967 18.3761 12.8963C18.3639 12.8919 18.3457 12.8897 18.3217 12.8897C18.2621 12.8897 18.2186 12.9041 18.1912 12.9332C18.1599 12.9663 18.1442 12.995 18.1442 13.0185C18.1442 13.0246 18.1481 13.032 18.1555 13.0403C18.1533 13.0381 18.1516 13.0364 18.1498 13.0351C18.1494 13.0351 18.149 13.0346 18.149 13.0346C18.1498 13.0351 18.1507 13.0355 18.1516 13.0359C18.1651 13.0403 18.1847 13.0429 18.2103 13.0429ZM18.2103 13.5646C18.0228 13.5646 17.8761 13.5076 17.7713 13.3936C17.6721 13.2857 17.6225 13.1604 17.6225 13.0185C17.6225 12.8567 17.6856 12.7087 17.8117 12.5747C17.9423 12.4368 18.1124 12.368 18.3217 12.368C18.5027 12.368 18.6455 12.4224 18.7503 12.5316C18.8517 12.6378 18.9026 12.7653 18.9026 12.9141C18.9026 13.0686 18.8426 13.2135 18.7216 13.3488C18.5932 13.4928 18.4227 13.5646 18.2103 13.5646Z" fill="#D5D5D5"/>
<path d="M5.42267 15.9969C5.10676 15.9969 4.83176 15.9378 4.59766 15.8194C4.36312 15.7011 4.18341 15.5431 4.05809 15.346C3.93278 15.1489 3.87012 14.9296 3.87012 14.6881C3.87012 14.5071 3.90275 14.3413 3.96759 14.1903C4.03286 14.0397 4.12336 13.9188 4.23911 13.8282C4.35485 13.7377 4.48975 13.6925 4.64291 13.6925C4.71253 13.6925 4.74734 13.7203 4.74734 13.776C4.74734 13.9527 4.79608 14.1093 4.89355 14.246C4.99102 14.383 5.1233 14.4888 5.29039 14.5628C5.45748 14.6372 5.64285 14.6741 5.84736 14.6741C6.10148 14.6741 6.31556 14.6141 6.48961 14.4931C6.66367 14.3726 6.8016 14.2055 6.90386 13.9919C6.92692 13.9457 6.92475 13.9074 6.8969 13.877C6.86905 13.847 6.83859 13.8504 6.80639 13.8874C6.70892 14.0175 6.59492 14.1185 6.46525 14.1903C6.33514 14.2625 6.18937 14.2982 6.02837 14.2982C5.75424 14.2982 5.5258 14.1816 5.34261 13.9483C5.15898 13.7142 5.0676 13.3766 5.0676 12.9354C5.0676 12.569 5.13592 12.2196 5.27298 11.8876C5.40962 11.556 5.59716 11.2601 5.83518 10.9999C6.07406 10.7401 6.34776 10.5347 6.65671 10.3837C6.96521 10.2332 7.28895 10.1575 7.62792 10.1575C7.99909 10.1575 8.27888 10.2506 8.46686 10.436C8.65483 10.6218 8.74882 10.8585 8.74882 11.1461C8.74882 11.3597 8.69878 11.5421 8.59914 11.6926C8.49906 11.8436 8.37287 11.9572 8.2197 12.0338C8.06653 12.1103 7.90379 12.1486 7.73235 12.1486C7.66273 12.1486 7.59746 12.1304 7.53741 12.0929C7.47693 12.056 7.46083 12.0072 7.48868 11.9467C7.55351 11.8031 7.56396 11.6661 7.52001 11.536C7.47562 11.4063 7.35857 11.341 7.16842 11.341C7.00568 11.341 6.86078 11.3841 6.73329 11.4698C6.60536 11.556 6.50441 11.6661 6.43044 11.8005C6.35603 11.9354 6.31904 12.0768 6.31904 12.2252C6.31904 12.4249 6.37909 12.5907 6.50006 12.723C6.62059 12.8553 6.78986 12.9214 7.00829 12.9214C7.12882 12.9214 7.24849 12.9005 7.36684 12.8588C7.4852 12.817 7.5905 12.743 7.68362 12.636C7.74367 12.5711 7.80763 12.5411 7.87508 12.5455C7.94209 12.5503 7.99909 12.5759 8.04565 12.6221C8.09177 12.6686 8.10831 12.7243 8.09438 12.7892C8.02911 13.0633 7.95949 13.3113 7.88552 13.5341C7.81111 13.756 7.72974 13.9966 7.64184 14.2564C7.53045 14.5954 7.36684 14.8961 7.15102 15.158C6.93519 15.42 6.67977 15.6253 6.38518 15.7742C6.09147 15.9225 5.77078 15.9969 5.42267 15.9969Z" fill="#BEBDC2"/>
<path d="M9.56956 11.585C9.40247 11.585 9.25844 11.5493 9.13791 11.4771C9.01694 11.4053 8.95689 11.2765 8.95689 11.0907C8.95689 10.8449 9.02521 10.6765 9.16228 10.586C9.29891 10.4954 9.46252 10.4502 9.65311 10.4502C9.82803 10.4502 9.97728 10.4898 10.1004 10.5686C10.2231 10.6477 10.2753 10.7961 10.2571 11.0141C10.2384 11.2278 10.164 11.3762 10.0343 11.4597C9.90548 11.5432 9.75057 11.585 9.56956 11.585ZM8.79676 15.3498C8.5644 15.3498 8.39992 15.2654 8.30245 15.0957C8.20498 14.9264 8.15625 14.721 8.15625 14.4795C8.15625 14.3172 8.17235 14.1453 8.20498 13.9643C8.23718 13.7833 8.27896 13.6101 8.3303 13.4439C8.49261 12.9383 8.65056 12.5493 8.80373 12.2778C8.95689 12.0062 9.13312 11.8705 9.33285 11.8705C9.49037 11.8705 9.56956 11.9749 9.56956 12.1838C9.56956 12.323 9.54258 12.4657 9.4895 12.6119C9.43597 12.7581 9.38376 12.9022 9.33285 13.0436C9.2815 13.1854 9.25626 13.3186 9.25626 13.4439C9.25626 13.5588 9.28498 13.6454 9.34329 13.7032C9.40116 13.7616 9.47644 13.7903 9.56956 13.7903C9.67617 13.7903 9.76493 13.7585 9.83586 13.6945C9.90766 13.6297 9.97858 13.5462 10.0482 13.4439C10.0852 13.3882 10.1326 13.3673 10.1909 13.3812C10.2488 13.3952 10.2975 13.4265 10.3371 13.4752C10.3763 13.524 10.3846 13.5688 10.3615 13.6093C10.3149 13.6837 10.2606 13.7903 10.1979 13.9295C10.1352 14.0688 10.0595 14.2197 9.97162 14.3821C9.8846 14.5448 9.78408 14.6988 9.67051 14.845C9.55651 14.9912 9.42771 15.1122 9.28411 15.2071C9.14008 15.3024 8.97778 15.3498 8.79676 15.3498Z" fill="#BEBDC2"/>
<path d="M12.3237 10.0271C12.5465 10.0271 12.7101 10.0771 12.8145 10.1768C12.9189 10.2756 12.9768 10.397 12.9886 10.5406C12.9999 10.6846 12.9803 10.8295 12.9294 10.9757C12.878 11.1219 12.8049 11.245 12.7101 11.3447C12.6148 11.4448 12.5138 11.4944 12.4072 11.4944C12.3098 11.4944 12.261 11.4596 12.261 11.3899C12.261 11.1671 12.1749 11.0558 12.0034 11.0558C11.8546 11.0558 11.7258 11.1336 11.617 11.289C11.5091 11.4448 11.4156 11.6406 11.3368 11.8773H12.0661C12.1122 11.8773 12.1427 11.9099 12.1566 11.9748C12.1705 12.04 12.1692 12.114 12.1531 12.1975C12.1366 12.2811 12.1066 12.3555 12.0626 12.4203C12.0182 12.4856 11.9617 12.5178 11.892 12.5178C11.9012 12.5178 11.8337 12.5108 11.6901 12.4969C11.5474 12.483 11.376 12.4691 11.1767 12.4551C11.121 12.7106 11.0757 12.966 11.0409 13.221C11.0061 13.4764 10.9769 13.6961 10.9539 13.8806C10.9352 14.0525 10.9191 14.2244 10.9052 14.3958C10.8912 14.5677 10.8643 14.7257 10.8251 14.8693C10.7855 15.0133 10.7215 15.1295 10.6336 15.2174C10.5453 15.3057 10.4152 15.3496 10.2438 15.3496C10.0301 15.3496 9.89217 15.28 9.82951 15.1408C9.76685 15.0015 9.75901 14.7905 9.80514 14.5072C9.8517 14.2244 9.93046 13.8698 10.0419 13.4438C10.0928 13.2627 10.1437 13.0852 10.195 12.9112C10.2459 12.7371 10.2994 12.5691 10.3551 12.4064H10.2577C10.0949 12.4064 9.98615 12.3799 9.93046 12.3263C9.87476 12.2733 9.853 12.2115 9.86432 12.1418C9.87607 12.0722 9.90478 12.0109 9.95134 11.9573C9.99747 11.9043 10.0419 11.8773 10.0836 11.8773H10.5501C10.6985 11.5061 10.8608 11.1824 11.0374 10.9061C11.2137 10.6302 11.4082 10.4148 11.6205 10.2603C11.8337 10.105 12.0683 10.0271 12.3237 10.0271Z" fill="#BEBDC2"/>
<path d="M12.387 15.3498C12.1268 15.3498 11.9354 15.2697 11.8127 15.1096C11.6895 14.9495 11.6282 14.7406 11.6282 14.483C11.6282 14.2254 11.6795 13.9482 11.7813 13.651C11.8414 13.4761 11.9088 13.2864 11.9832 13.0819C12.0572 12.8778 12.1386 12.655 12.2269 12.4135C12.1247 12.4135 12.0468 12.387 11.9937 12.3334C11.9402 12.2804 11.9054 12.2177 11.8893 12.1455C11.8727 12.0737 11.8727 12.011 11.8893 11.9575C11.9054 11.9044 11.9345 11.8774 11.9763 11.8774C12.1804 11.8774 12.3405 11.8209 12.4567 11.7068C12.5724 11.5933 12.6538 11.4736 12.7003 11.3483C12.7839 11.1442 12.8648 11.0154 12.944 10.9619C13.0228 10.9088 13.1063 10.8818 13.1947 10.8818C13.3243 10.8818 13.4053 10.9367 13.4366 11.0454C13.4688 11.1547 13.4322 11.3183 13.3269 11.5363C13.2756 11.6477 13.2477 11.7325 13.2434 11.7904C13.2386 11.8487 13.2686 11.8774 13.3339 11.8774H13.6942C13.7403 11.8774 13.7708 11.9101 13.7847 11.9749C13.7986 12.0402 13.7973 12.1141 13.7812 12.1977C13.7647 12.2812 13.7346 12.3556 13.6907 12.4205C13.6463 12.4857 13.5898 12.5179 13.5201 12.5179C13.3078 12.5179 13.1503 12.5262 13.0484 12.5423C12.9462 12.5588 12.8744 12.5993 12.8326 12.6641C12.7908 12.7294 12.7465 12.8408 12.7003 12.9983C12.6259 13.2398 12.6364 13.4326 12.7317 13.5762C12.8265 13.7189 12.9762 13.7903 13.1807 13.7903C13.32 13.7903 13.4435 13.7598 13.5515 13.698C13.6602 13.6354 13.7499 13.5509 13.8195 13.4439C13.8565 13.3882 13.9039 13.3686 13.9622 13.3847C14.0201 13.4013 14.0688 13.4326 14.1084 13.4787C14.1476 13.5253 14.1559 13.571 14.1328 13.6162C14.091 13.6954 14.0353 13.8042 13.9657 13.9434C13.8961 14.0827 13.8125 14.2337 13.7151 14.396C13.6176 14.5587 13.5036 14.7119 13.3739 14.8555C13.2451 14.9995 13.0981 15.1178 12.9336 15.2105C12.7687 15.3037 12.5863 15.3498 12.387 15.3498Z" fill="#BEBDC2"/>
<path d="M14.9688 15.3497C14.6903 15.3497 14.4614 15.287 14.283 15.1617C14.1042 15.0364 13.9719 14.8706 13.8862 14.6639C13.8 14.4577 13.7582 14.2301 13.7609 13.9816C13.763 13.7336 13.8061 13.4856 13.8897 13.2384C13.9732 12.9904 14.0937 12.7628 14.2517 12.5561C14.4092 12.3499 14.6007 12.1837 14.8261 12.0583C15.051 11.933 15.3047 11.8704 15.5867 11.8704C15.8047 11.8704 15.9822 11.9113 16.1193 11.9922C16.2559 12.0736 16.3569 12.1815 16.4221 12.3159C16.487 12.4508 16.5196 12.5944 16.5196 12.7476C16.5196 12.9147 16.473 13.0818 16.3804 13.2489C16.2872 13.416 16.1576 13.5543 15.9905 13.6631C15.8234 13.771 15.6267 13.825 15.4004 13.825C15.303 13.825 15.2077 13.818 15.115 13.8041C15.0219 13.7902 14.9361 13.7601 14.8574 13.7136C14.8339 13.6997 14.8087 13.6988 14.7808 13.7101C14.753 13.7218 14.739 13.751 14.739 13.7971C14.739 13.9181 14.8095 14.0095 14.9514 14.0721C15.0928 14.1348 15.2629 14.1661 15.4614 14.1661C15.6981 14.1661 15.9426 14.1061 16.1959 13.9851C16.4487 13.8646 16.6541 13.684 16.812 13.4438C16.849 13.3881 16.8977 13.3685 16.9582 13.3846C17.0183 13.4012 17.0683 13.4325 17.1079 13.4786C17.1471 13.5252 17.1531 13.5709 17.1253 13.6161C16.819 14.1827 16.4835 14.613 16.1193 14.9076C15.7546 15.2026 15.3713 15.3497 14.9688 15.3497ZM15.2194 13.3046C15.3526 13.3046 15.4579 13.2619 15.5345 13.1758C15.611 13.09 15.6493 13.003 15.6493 12.9147C15.6493 12.8359 15.6224 12.7685 15.5693 12.7128C15.5157 12.6571 15.4361 12.6292 15.3308 12.6292C15.1959 12.6292 15.0893 12.671 15.0106 12.7546C14.9314 12.8381 14.8922 12.9264 14.8922 13.0191C14.8922 13.0935 14.9187 13.1597 14.9723 13.2175C15.0254 13.2758 15.108 13.3046 15.2194 13.3046Z" fill="#BEBDC2"/>
<path d="M17.961 15.3497C17.6825 15.3497 17.4536 15.287 17.2752 15.1617C17.0964 15.0364 16.9641 14.8706 16.8784 14.6639C16.7922 14.4577 16.7504 14.2301 16.753 13.9816C16.7552 13.7336 16.7983 13.4856 16.8818 13.2384C16.9654 12.9904 17.0859 12.7628 17.2439 12.5561C17.4014 12.3499 17.5929 12.1837 17.8182 12.0583C18.0432 11.933 18.2969 11.8704 18.5789 11.8704C18.7969 11.8704 18.9744 11.9113 19.1115 11.9922C19.2481 12.0736 19.349 12.1815 19.4143 12.3159C19.4791 12.4508 19.5118 12.5944 19.5118 12.7476C19.5118 12.9147 19.4652 13.0818 19.3725 13.2489C19.2794 13.416 19.1498 13.5543 18.9827 13.6631C18.8156 13.771 18.6189 13.825 18.3926 13.825C18.2952 13.825 18.1999 13.818 18.1072 13.8041C18.0141 13.7902 17.9283 13.7601 17.8496 13.7136C17.8261 13.6997 17.8008 13.6988 17.773 13.7101C17.7451 13.7218 17.7312 13.751 17.7312 13.7971C17.7312 13.9181 17.8017 14.0095 17.9436 14.0721C18.085 14.1348 18.2551 14.1661 18.4535 14.1661C18.6903 14.1661 18.9348 14.1061 19.188 13.9851C19.4409 13.8646 19.6462 13.684 19.8042 13.4438C19.8412 13.3881 19.8899 13.3685 19.9504 13.3846C20.0104 13.4012 20.0605 13.4325 20.1001 13.4786C20.1392 13.5252 20.1453 13.5709 20.1175 13.6161C19.8112 14.1827 19.4757 14.613 19.1115 14.9076C18.7468 15.2026 18.3635 15.3497 17.961 15.3497ZM18.2116 13.3046C18.3448 13.3046 18.4501 13.2619 18.5266 13.1758C18.6032 13.09 18.6415 13.003 18.6415 12.9147C18.6415 12.8359 18.6145 12.7685 18.5615 12.7128C18.5079 12.6571 18.4283 12.6292 18.323 12.6292C18.1881 12.6292 18.0815 12.671 18.0027 12.7546C17.9236 12.8381 17.8844 12.9264 17.8844 13.0191C17.8844 13.0935 17.9109 13.1597 17.9645 13.2175C18.0175 13.2758 18.1002 13.3046 18.2116 13.3046Z" fill="#BEBDC2"/>
</svg>
