<svg width="375" height="405" viewBox="0 0 375 405" fill="none" xmlns="http://www.w3.org/2000/svg">
<g clip-path="url(#clip0_8726_625)">
<path d="M318.515 29.3894C317.151 31.3938 315.645 33.1698 314.004 34.7118L314.62 34.7774C315.116 34.8215 315.613 34.8574 316.109 34.8932C316.606 34.9291 317.102 34.9649 317.6 34.9925C317.729 34.9991 318.117 35.111 318.218 35.0156C319.86 33.4724 321.365 31.6976 322.73 29.692L322.114 29.6264C321.618 29.5823 321.121 29.5465 320.624 29.5106C320.128 29.4748 319.631 29.4401 319.133 29.4125C319.035 29.4075 318.575 29.3025 318.515 29.3894Z" fill="#E9723D"/>
<path d="M59.1714 26.6779C61.2576 27.9485 63.1213 29.3723 64.7564 30.9451L64.791 30.3221C64.81 29.8208 64.8207 29.3187 64.8314 28.8174C64.8421 28.3162 64.8528 27.8149 64.8552 27.3128C64.8552 27.1826 64.948 26.7868 64.8469 26.6898C63.2105 25.117 61.3481 23.6932 59.2607 22.4226L59.2261 23.0456C59.2071 23.5469 59.1964 24.0481 59.1857 24.5502C59.175 25.0515 59.1654 25.5528 59.1631 26.0549C59.1631 26.1545 59.0809 26.6226 59.1714 26.6779Z" fill="#2B3142"/>
<path d="M199.406 85.6394C198.042 87.6438 196.536 89.4198 194.895 90.9618L195.511 91.0274C196.007 91.0715 196.504 91.1074 197 91.1432C197.497 91.1791 197.993 91.2149 198.491 91.2425C198.62 91.2491 199.008 91.361 199.109 91.2656C200.75 89.7224 202.256 87.9476 203.621 85.942L203.005 85.8764C202.509 85.8323 202.012 85.7965 201.515 85.7606C201.019 85.7248 200.522 85.6901 200.024 85.6625C199.926 85.6575 199.466 85.5525 199.406 85.6394Z" fill="#4B2D5C"/>
<path d="M238.515 63.4321C240.006 61.5198 241.237 59.5434 242.203 57.5089L242.453 58.0752C242.647 58.534 242.833 58.9964 243.019 59.4581C243.205 59.9198 243.391 60.3815 243.57 60.8469C243.615 60.9678 243.841 61.3027 243.781 61.4283C242.814 63.4632 241.584 65.4392 240.092 67.3519L239.841 66.7856C239.648 66.3268 239.462 65.8652 239.275 65.4027C239.089 64.941 238.905 64.4789 238.726 64.0135C238.691 63.921 238.45 63.5153 238.515 63.4321Z" fill="#FCCFCE"/>
<path d="M366.221 234.257C367.586 236.261 369.091 238.037 370.733 239.579L370.117 239.645C369.621 239.689 369.123 239.725 368.627 239.761C368.131 239.796 367.634 239.832 367.136 239.86C367.007 239.866 366.62 239.978 366.518 239.883C364.877 238.34 363.371 236.565 362.007 234.559L362.623 234.494C363.119 234.45 363.615 234.414 364.112 234.378C364.609 234.342 365.105 234.307 365.603 234.28C365.702 234.275 366.162 234.17 366.221 234.257Z" fill="#FCCFCE"/>
<path d="M170.221 37.2567C171.586 39.2611 173.091 41.0371 174.733 42.5791L174.117 42.6447C173.621 42.6888 173.123 42.7247 172.627 42.7605C172.131 42.7964 171.634 42.8322 171.136 42.8598C171.007 42.8664 170.62 42.9783 170.518 42.8829C168.877 41.3397 167.371 39.5649 166.007 37.5593L166.623 37.4938C167.119 37.4497 167.615 37.4138 168.112 37.3779C168.609 37.3421 169.105 37.3074 169.603 37.2798C169.702 37.2748 170.162 37.1698 170.221 37.2567Z" fill="#FCCFCE"/>
<path d="M90.8912 137.989C92.8859 139.368 94.9297 140.483 97.0163 141.331L96.4653 141.614C96.0184 141.834 95.5674 142.046 95.1171 142.258C94.6669 142.47 94.2166 142.682 93.7622 142.887C93.6441 142.94 93.3227 143.184 93.1939 143.131C91.1068 142.283 89.0635 141.169 87.0683 139.789L87.6193 139.506C88.0662 139.286 88.5165 139.074 88.9675 138.861C89.4178 138.649 89.8685 138.438 90.3229 138.233C90.4132 138.193 90.8045 137.93 90.8912 137.989Z" fill="#1E6F68"/>
<path d="M132.427 101.447C131.112 103.485 129.651 105.297 128.048 106.879L128.665 106.93C129.162 106.961 129.66 106.985 130.157 107.009C130.654 107.032 131.151 107.056 131.65 107.071C131.779 107.075 132.169 107.177 132.268 107.079C133.871 105.496 135.332 103.685 136.647 101.646L136.03 101.596C135.533 101.564 135.036 101.54 134.538 101.517C134.041 101.493 133.544 101.471 133.045 101.455C132.947 101.453 132.484 101.359 132.427 101.447Z" fill="#F6A725"/>
<path d="M291.088 94.1601C292.453 96.1645 293.958 97.9406 295.6 99.4826L294.984 99.5481C294.488 99.5922 293.991 99.6281 293.494 99.664C292.998 99.6998 292.501 99.7357 292.004 99.7633C291.874 99.7698 291.487 99.8818 291.386 99.7864C289.744 98.2432 288.239 96.4683 286.874 94.4628L287.49 94.3972C287.986 94.3531 288.482 94.3173 288.979 94.2814C289.476 94.2455 289.972 94.2109 290.47 94.1832C290.569 94.1782 291.029 94.0732 291.088 94.1601Z" fill="#F6A725"/>
<path d="M374.221 197.257C375.586 199.261 377.091 201.037 378.733 202.579L378.117 202.645C377.621 202.689 377.123 202.725 376.627 202.76C376.131 202.796 375.634 202.832 375.136 202.86C375.007 202.866 374.62 202.978 374.518 202.883C372.877 201.34 371.371 199.565 370.007 197.559L370.623 197.494C371.119 197.45 371.615 197.414 372.112 197.378C372.609 197.342 373.105 197.307 373.603 197.28C373.702 197.275 374.162 197.17 374.221 197.257Z" fill="#F6A725"/>
<path d="M147.221 6.25669C148.586 8.26108 150.091 10.0371 151.733 11.5791L151.117 11.6447C150.621 11.6888 150.123 11.7247 149.627 11.7605C149.131 11.7964 148.634 11.8322 148.136 11.8598C148.007 11.8664 147.62 11.9783 147.518 11.8829C145.877 10.3397 144.371 8.56489 143.007 6.55933L143.623 6.49375C144.119 6.44965 144.615 6.41381 145.112 6.37793C145.609 6.34208 146.105 6.30742 146.603 6.2798C146.702 6.27479 147.162 6.16981 147.221 6.25669Z" fill="#F6A725"/>
<path d="M63.2209 54.2567C64.5856 56.2611 66.091 58.0371 67.7326 59.5791L67.1167 59.6447C66.6207 59.6888 66.1234 59.7247 65.6269 59.7605C65.1305 59.7964 64.6341 59.8322 64.1364 59.8598C64.0073 59.8664 63.6196 59.9783 63.5183 59.8829C61.8767 58.3397 60.3714 56.5649 59.0066 54.5593L59.6225 54.4938C60.1185 54.4497 60.615 54.4138 61.1122 54.3779C61.6087 54.3421 62.1052 54.3074 62.6029 54.2798C62.7016 54.2748 63.1615 54.1698 63.2209 54.2567Z" fill="#F6A725"/>
<path d="M249.757 149.096C248.392 147.091 246.887 145.315 245.245 143.773L245.861 143.708C246.357 143.664 246.854 143.628 247.351 143.592C247.847 143.556 248.343 143.52 248.841 143.493C248.97 143.486 249.358 143.374 249.459 143.47C251.101 145.013 252.606 146.788 253.971 148.793L253.355 148.859C252.859 148.903 252.363 148.939 251.865 148.975C251.369 149.01 250.872 149.045 250.375 149.073C250.276 149.078 249.816 149.183 249.757 149.096Z" fill="#4B2D5C"/>
<path d="M317.054 66.466C315.689 68.4704 314.184 70.2465 312.542 71.7885L313.158 71.854C313.654 71.8981 314.151 71.934 314.648 71.9699C315.144 72.0057 315.641 72.0416 316.138 72.0692C316.267 72.0757 316.655 72.1877 316.756 72.0923C318.398 70.5491 319.903 68.7742 321.268 66.7687L320.652 66.7031C320.156 66.659 319.66 66.6232 319.162 66.5873C318.666 66.5514 318.169 66.5168 317.672 66.4891C317.573 66.4841 317.113 66.3792 317.054 66.466Z" fill="#C73E51"/>
<path d="M26.0425 49.2553C28.1287 50.5259 29.9924 51.9497 31.6275 53.5225L31.662 52.8995C31.6811 52.3982 31.6918 51.8961 31.7025 51.3948C31.7132 50.8936 31.7239 50.3923 31.7263 49.8902C31.7263 49.76 31.8191 49.3642 31.718 49.2672C30.0816 47.6944 28.2191 46.2706 26.1317 45L26.0972 45.623C26.0782 46.1242 26.0675 46.6255 26.0568 47.1276C26.0461 47.6289 26.0365 48.1302 26.0342 48.6323C26.0342 48.7319 25.952 49.2 26.0425 49.2553Z" fill="#D56E7B"/>
<path d="M197.945 122.716C196.58 124.72 195.075 126.496 193.433 128.038L194.049 128.104C194.545 128.148 195.042 128.184 195.539 128.22C196.035 128.256 196.531 128.291 197.029 128.319C197.158 128.326 197.546 128.438 197.647 128.342C199.289 126.799 200.794 125.024 202.159 123.019L201.543 122.953C201.047 122.909 200.551 122.873 200.053 122.837C199.557 122.801 199.06 122.767 198.563 122.739C198.464 122.734 198.004 122.629 197.945 122.716Z" fill="#E9723D"/>
<path d="M215.519 66.2568C214.154 68.2612 212.648 70.0373 211.007 71.5793L211.623 71.6448C212.119 71.6889 212.616 71.7248 213.113 71.7607C213.609 71.7965 214.105 71.8323 214.603 71.86C214.732 71.8665 215.12 71.9785 215.221 71.883C216.863 70.3399 218.368 68.565 219.733 66.5594L219.117 66.4939C218.621 66.4498 218.125 66.4139 217.627 66.378C217.131 66.3422 216.634 66.3075 216.137 66.2799C216.038 66.2749 215.578 66.1699 215.519 66.2568Z" fill="#E9723D"/>
<path d="M237.053 100.509C238.544 98.5965 239.775 96.62 240.741 94.5855L240.992 95.1519C241.185 95.6106 241.372 96.0731 241.558 96.5348C241.744 96.9965 241.93 97.4581 242.108 97.9235C242.154 98.0444 242.379 98.3793 242.319 98.5049C241.352 100.54 240.122 102.516 238.63 104.429L238.38 103.862C238.186 103.404 238 102.942 237.814 102.479C237.628 102.018 237.443 101.556 237.264 101.09C237.229 100.998 236.989 100.592 237.053 100.509Z" fill="#1D6C65"/>
<path d="M128.506 73.9149C129.87 75.9193 131.376 77.6953 133.017 79.2373L132.401 79.3029C131.905 79.347 131.408 79.3829 130.912 79.4187C130.415 79.4546 129.919 79.4904 129.421 79.518C129.292 79.5246 128.904 79.6365 128.803 79.5411C127.161 77.9979 125.656 76.2231 124.291 74.2175L124.907 74.152C125.403 74.1079 125.9 74.072 126.397 74.0361C126.893 74.0003 127.39 73.9656 127.888 73.938C127.986 73.933 128.446 73.828 128.506 73.9149Z" fill="#FCCFCE"/>
<path d="M266.221 42.2568C267.586 44.2612 269.091 46.0373 270.733 47.5793L270.117 47.6448C269.621 47.6889 269.123 47.7248 268.627 47.7607C268.131 47.7965 267.634 47.8323 267.136 47.86C267.007 47.8665 266.62 47.9785 266.518 47.883C264.877 46.3399 263.371 44.565 262.007 42.5594L262.623 42.4939C263.119 42.4498 263.615 42.4139 264.112 42.378C264.609 42.3422 265.105 42.3075 265.603 42.2799C265.702 42.2749 266.162 42.1699 266.221 42.2568Z" fill="#F6A725"/>
<path d="M89.4295 175.066C91.4243 176.445 93.468 177.56 95.5546 178.408L95.0036 178.69C94.5567 178.91 94.1057 179.123 93.6554 179.335C93.2052 179.547 92.7549 179.759 92.3005 179.964C92.1824 180.016 91.8611 180.26 91.7322 180.208C89.6452 179.359 87.6019 178.245 85.6067 176.865L86.1577 176.582C86.6046 176.363 87.0548 176.151 87.5058 175.938C87.9561 175.726 88.4068 175.515 88.8612 175.31C88.9515 175.27 89.3428 175.006 89.4295 175.066Z" fill="#1E6F68"/>
<path d="M130.965 138.524C129.65 140.561 128.189 142.374 126.586 143.956L127.203 144.006C127.7 144.038 128.198 144.062 128.695 144.085C129.193 144.109 129.69 144.133 130.188 144.148C130.317 144.151 130.707 144.254 130.806 144.156C132.41 142.573 133.871 140.761 135.186 138.723L134.568 138.672C134.072 138.641 133.574 138.617 133.076 138.593C132.579 138.57 132.082 138.547 131.584 138.532C131.485 138.529 131.023 138.436 130.965 138.524Z" fill="#F6A725"/>
<path d="M289.626 131.237C290.991 133.241 292.497 135.017 294.138 136.559L293.522 136.625C293.026 136.669 292.529 136.705 292.032 136.741C291.536 136.776 291.04 136.812 290.542 136.84C290.413 136.846 290.025 136.958 289.924 136.863C288.282 135.32 286.777 133.545 285.412 131.539L286.028 131.474C286.524 131.43 287.02 131.394 287.518 131.358C288.014 131.322 288.511 131.288 289.008 131.26C289.107 131.255 289.567 131.15 289.626 131.237Z" fill="#C73E4F"/>
<path d="M248.295 186.173C246.93 184.168 245.425 182.392 243.783 180.85L244.399 180.785C244.895 180.74 245.392 180.705 245.889 180.669C246.385 180.633 246.882 180.597 247.379 180.569C247.509 180.563 247.896 180.451 247.998 180.546C249.639 182.089 251.144 183.864 252.509 185.87L251.893 185.935C251.397 185.98 250.901 186.015 250.404 186.051C249.907 186.087 249.411 186.122 248.913 186.149C248.814 186.154 248.354 186.259 248.295 186.173Z" fill="#4B2D5C"/>
<path d="M226.747 21.97C224.597 20.8491 222.431 19.9959 220.255 19.4134L220.767 19.0644C221.183 18.791 221.604 18.5242 222.025 18.2579C222.445 17.9916 222.866 17.7253 223.291 17.4656C223.402 17.3988 223.691 17.1169 223.825 17.1531C226.001 17.7366 228.167 18.5888 230.318 19.7107L229.806 20.0597C229.39 20.3331 228.969 20.5994 228.548 20.8661C228.128 21.1324 227.706 21.3977 227.281 21.6574C227.196 21.7085 226.841 22.0185 226.747 21.97Z" fill="#4B2D5C"/>
<path d="M364.563 287.047C362.412 285.926 360.246 285.072 358.071 284.49L358.582 284.141C358.999 283.868 359.42 283.601 359.84 283.334C360.261 283.068 360.681 282.802 361.107 282.542C361.217 282.475 361.506 282.193 361.64 282.23C363.817 282.813 365.982 283.665 368.133 284.787L367.621 285.136C367.205 285.41 366.785 285.676 366.363 285.943C365.943 286.209 365.522 286.474 365.096 286.734C365.012 286.785 364.656 287.095 364.563 287.047Z" fill="#4B2D5C"/>
<path d="M122.668 39.1244C124.159 37.2121 125.39 35.2356 126.356 33.2011L126.607 33.7675C126.8 34.2262 126.987 34.6887 127.173 35.1504C127.359 35.6121 127.545 36.0737 127.723 36.5391C127.769 36.66 127.994 36.9949 127.934 37.1205C126.967 39.1554 125.737 41.1314 124.245 43.0442L123.995 42.4779C123.801 42.0191 123.615 41.5574 123.429 41.095C123.243 40.6333 123.058 40.1712 122.879 39.7058C122.844 39.6133 122.604 39.2075 122.668 39.1244Z" fill="#1D6C65"/>
<path d="M359.538 162.972C361.029 161.059 362.259 159.083 363.226 157.048L363.476 157.615C363.67 158.073 363.856 158.536 364.042 158.998C364.228 159.459 364.414 159.921 364.593 160.386C364.638 160.507 364.864 160.842 364.804 160.968C363.836 163.003 362.607 164.979 361.115 166.891L360.864 166.325C360.671 165.866 360.485 165.405 360.298 164.942C360.112 164.48 359.928 164.018 359.749 163.553C359.714 163.46 359.473 163.055 359.538 162.972Z" fill="#1D6C65"/>
<path d="M10.538 148.972C12.0289 147.059 13.2595 145.083 14.2256 143.048L14.4763 143.615C14.67 144.073 14.8563 144.536 15.0422 144.998C15.2282 145.459 15.4141 145.921 15.5927 146.386C15.6384 146.507 15.8635 146.842 15.8037 146.968C14.8365 149.003 13.6071 150.979 12.115 152.891L11.8642 152.325C11.6705 151.866 11.4846 151.405 11.2983 150.942C11.1124 150.48 10.9275 150.018 10.749 149.553C10.714 149.46 10.4734 149.055 10.538 148.972Z" fill="#1D6C65"/>
<path d="M6.53798 321.972C8.02894 320.059 9.25949 318.083 10.2256 316.048L10.4763 316.615C10.67 317.073 10.8563 317.536 11.0422 317.998C11.2282 318.459 11.4141 318.921 11.5927 319.386C11.6384 319.507 11.8635 319.842 11.8037 319.968C10.8365 322.003 9.60707 323.979 8.115 325.891L7.86421 325.325C7.67052 324.866 7.48457 324.405 7.29832 323.942C7.11236 323.48 6.92752 323.018 6.749 322.553C6.71403 322.46 6.47342 322.055 6.53798 321.972Z" fill="#1D6C65"/>
<path d="M212.538 46.9716C214.029 45.0592 215.259 43.0828 216.226 41.0483L216.476 41.6146C216.67 42.0734 216.856 42.5359 217.042 42.9975C217.228 43.4592 217.414 43.9209 217.593 44.3863C217.638 44.5072 217.864 44.8421 217.804 44.9677C216.836 47.0026 215.607 48.9786 214.115 50.8914L213.864 50.325C213.671 49.8663 213.485 49.4046 213.298 48.9421C213.112 48.4804 212.928 48.0183 212.749 47.5529C212.714 47.4605 212.473 47.0547 212.538 46.9716Z" fill="#1D6C65"/>
<path d="M14.1203 12.5305C15.485 14.5349 16.9904 16.3109 18.632 17.8529L18.0161 17.9185C17.5201 17.9626 17.0228 17.9985 16.5264 18.0343C16.0299 18.0702 15.5335 18.106 15.0358 18.1336C14.9067 18.1402 14.519 18.2521 14.4177 18.1567C12.7761 16.6135 11.2708 14.8387 9.90604 12.8331L10.5219 12.7676C11.018 12.7235 11.5144 12.6876 12.0117 12.6517C12.5081 12.6159 13.0046 12.5812 13.5023 12.5536C13.601 12.5486 14.0609 12.4436 14.1203 12.5305Z" fill="#FCCFCE"/>
<path d="M16.5803 77.1396C15.2653 79.1769 13.8041 80.9895 12.2009 82.5714L12.8183 82.6218C13.3152 82.6537 13.8132 82.6773 14.3104 82.701C14.8076 82.7246 15.3047 82.7482 15.8029 82.7636C15.9322 82.7669 16.3225 82.8693 16.4214 82.7714C18.0245 81.1884 19.4858 79.377 20.8008 77.3385L20.1835 77.2881C19.6865 77.2562 19.1894 77.2326 18.6913 77.2089C18.1942 77.1853 17.697 77.1629 17.1987 77.1475C17.0999 77.1449 16.6376 77.0513 16.5803 77.1396Z" fill="#F6A725"/>
<path d="M159.221 69.2568C160.586 71.2612 162.091 73.0373 163.733 74.5793L163.117 74.6448C162.621 74.6889 162.123 74.7248 161.627 74.7607C161.131 74.7965 160.634 74.8323 160.136 74.86C160.007 74.8665 159.62 74.9785 159.518 74.883C157.877 73.3399 156.371 71.565 155.007 69.5594L155.623 69.4939C156.119 69.4498 156.615 69.4139 157.112 69.378C157.609 69.3422 158.105 69.3075 158.603 69.2799C158.702 69.2749 159.162 69.1699 159.221 69.2568Z" fill="#C73E4F"/>
<path d="M3.22092 266.257C4.58563 268.261 6.09102 270.037 7.73257 271.579L7.11668 271.645C6.62066 271.689 6.12338 271.725 5.62695 271.761C5.13051 271.797 4.63408 271.832 4.13638 271.86C4.00729 271.867 3.61961 271.978 3.51833 271.883C1.87672 270.34 0.371399 268.565 -0.993371 266.559L-0.377478 266.494C0.118537 266.45 0.614969 266.414 1.11225 266.378C1.60868 266.342 2.10518 266.308 2.60288 266.28C2.7016 266.275 3.16153 266.17 3.22092 266.257Z" fill="#C73E4F"/>
<path d="M133.91 124.788C132.545 122.784 131.04 121.008 129.399 119.466L130.014 119.4C130.51 119.356 131.008 119.32 131.504 119.284C132.001 119.249 132.497 119.213 132.995 119.185C133.124 119.179 133.511 119.067 133.613 119.162C135.254 120.705 136.76 122.48 138.124 124.486L137.509 124.551C137.013 124.595 136.516 124.631 136.019 124.667C135.522 124.703 135.026 124.737 134.528 124.765C134.43 124.77 133.97 124.875 133.91 124.788Z" fill="#4B2D5C"/>
<path d="M351.221 40.2568C352.586 42.2612 354.091 44.0373 355.733 45.5793L355.117 45.6448C354.621 45.6889 354.123 45.7248 353.627 45.7607C353.131 45.7965 352.634 45.8323 352.136 45.86C352.007 45.8665 351.62 45.9785 351.518 45.883C349.877 44.3399 348.371 42.565 347.007 40.5594L347.623 40.4939C348.119 40.4498 348.615 40.4139 349.112 40.378C349.609 40.3422 350.105 40.3075 350.603 40.2799C350.702 40.2749 351.162 40.1699 351.221 40.2568Z" fill="#FCCFCE"/>
<path d="M365.221 106.257C366.586 108.261 368.091 110.037 369.733 111.579L369.117 111.645C368.621 111.689 368.123 111.725 367.627 111.761C367.131 111.797 366.634 111.832 366.136 111.86C366.007 111.867 365.62 111.978 365.518 111.883C363.877 110.34 362.371 108.565 361.007 106.559L361.623 106.494C362.119 106.45 362.615 106.414 363.112 106.378C363.609 106.342 364.105 106.308 364.603 106.28C364.702 106.275 365.162 106.17 365.221 106.257Z" fill="#C73E4F"/>
<path d="M352.668 359.124C354.159 357.212 355.39 355.236 356.356 353.201L356.607 353.767C356.8 354.226 356.987 354.689 357.173 355.15C357.359 355.612 357.545 356.074 357.723 356.539C357.769 356.66 357.994 356.995 357.934 357.121C356.967 359.155 355.737 361.131 354.245 363.044L353.995 362.478C353.801 362.019 353.615 361.557 353.429 361.095C353.243 360.633 353.058 360.171 352.879 359.706C352.844 359.613 352.604 359.208 352.668 359.124Z" fill="#1D6C65"/>
<path d="M152.172 161.063C154.258 162.334 156.122 163.757 157.757 165.33L157.792 164.707C157.811 164.206 157.821 163.704 157.832 163.203C157.843 162.701 157.854 162.2 157.856 161.698C157.856 161.568 157.949 161.172 157.848 161.075C156.211 159.502 154.349 158.078 152.261 156.808L152.227 157.431C152.208 157.932 152.197 158.433 152.186 158.935C152.176 159.437 152.166 159.938 152.164 160.44C152.164 160.54 152.082 161.008 152.172 161.063Z" fill="#2B3142"/>
<path d="M292.407 220.025C291.043 222.029 289.537 223.805 287.896 225.347L288.511 225.413C289.008 225.457 289.505 225.493 290.001 225.528C290.498 225.564 290.994 225.6 291.492 225.628C291.621 225.634 292.009 225.746 292.11 225.651C293.751 224.108 295.257 222.333 296.622 220.327L296.006 220.262C295.51 220.217 295.013 220.182 294.516 220.146C294.019 220.11 293.523 220.075 293.025 220.048C292.927 220.043 292.467 219.938 292.407 220.025Z" fill="#E9723D"/>
<path d="M331.516 197.817C333.007 195.905 334.237 193.929 335.203 191.894L335.454 192.46C335.648 192.919 335.834 193.382 336.02 193.843C336.206 194.305 336.392 194.767 336.57 195.232C336.616 195.353 336.841 195.688 336.781 195.814C335.814 197.848 334.585 199.824 333.093 201.737L332.842 201.171C332.648 200.712 332.462 200.25 332.276 199.788C332.09 199.326 331.905 198.864 331.727 198.399C331.692 198.306 331.451 197.901 331.516 197.817Z" fill="#C73E51"/>
<path d="M222.968 171.223C224.333 173.228 225.838 175.004 227.48 176.546L226.864 176.611C226.368 176.655 225.87 176.691 225.374 176.727C224.878 176.763 224.381 176.799 223.883 176.827C223.754 176.833 223.367 176.945 223.265 176.85C221.624 175.306 220.118 173.532 218.754 171.526L219.37 171.46C219.866 171.416 220.362 171.38 220.859 171.345C221.356 171.309 221.852 171.274 222.35 171.246C222.449 171.241 222.909 171.136 222.968 171.223Z" fill="#FCCFCE"/>
<path d="M183.892 272.375C185.887 273.753 187.931 274.868 190.017 275.716L189.466 275.999C189.019 276.219 188.568 276.431 188.118 276.643C187.668 276.856 187.218 277.068 186.763 277.273C186.645 277.325 186.324 277.569 186.195 277.517C184.108 276.668 182.065 275.554 180.069 274.174L180.62 273.891C181.067 273.671 181.517 273.459 181.968 273.247C182.419 273.035 182.869 272.824 183.324 272.619C183.414 272.578 183.805 272.315 183.892 272.375Z" fill="#1E6F68"/>
<path d="M225.428 235.832C224.113 237.87 222.651 239.682 221.048 241.264L221.666 241.315C222.163 241.347 222.661 241.37 223.158 241.394C223.655 241.417 224.152 241.441 224.65 241.456C224.78 241.46 225.17 241.562 225.269 241.464C226.872 239.881 228.333 238.07 229.648 236.031L229.031 235.981C228.534 235.949 228.037 235.925 227.539 235.902C227.042 235.878 226.544 235.856 226.046 235.84C225.947 235.838 225.485 235.744 225.428 235.832Z" fill="#F6A725"/>
<path d="M342.758 283.481C341.393 281.477 339.887 279.701 338.246 278.159L338.862 278.093C339.358 278.049 339.855 278.013 340.352 277.977C340.848 277.942 341.344 277.906 341.842 277.878C341.971 277.872 342.359 277.76 342.46 277.855C344.102 279.398 345.607 281.173 346.972 283.179L346.356 283.244C345.86 283.288 345.364 283.324 344.866 283.36C344.37 283.396 343.873 283.43 343.376 283.458C343.277 283.463 342.817 283.568 342.758 283.481Z" fill="#4B2D5C"/>
<path d="M321.21 119.279C319.059 118.158 316.893 117.305 314.718 116.722L315.229 116.373C315.646 116.1 316.067 115.833 316.487 115.567C316.908 115.3 317.328 115.034 317.754 114.774C317.864 114.707 318.153 114.425 318.287 114.462C320.464 115.045 322.629 115.897 324.78 117.019L324.268 117.368C323.852 117.642 323.432 117.908 323.01 118.175C322.59 118.441 322.169 118.706 321.743 118.966C321.659 119.017 321.303 119.327 321.21 119.279Z" fill="#4B2D5C"/>
<path d="M361.563 15.0467C359.412 13.9258 357.246 13.0726 355.071 12.49L355.582 12.141C355.999 11.8677 356.42 11.6009 356.84 11.3346C357.261 11.0683 357.681 10.802 358.107 10.5423C358.217 10.4755 358.506 10.1935 358.64 10.2297C360.817 10.8133 362.982 11.6654 365.133 12.7873L364.621 13.1363C364.205 13.4097 363.785 13.676 363.363 13.9428C362.943 14.2091 362.522 14.4744 362.096 14.7341C362.012 14.7852 361.656 15.0951 361.563 15.0467Z" fill="#4B2D5C"/>
<path d="M280.519 4.25682C279.154 6.2612 277.649 8.03725 276.007 9.57926L276.623 9.64482C277.119 9.68892 277.616 9.72482 278.113 9.76066C278.609 9.7965 279.106 9.83233 279.603 9.85996C279.732 9.86651 280.12 9.97845 280.221 9.88305C281.863 8.33986 283.368 6.56501 284.733 4.55945L284.117 4.49388C283.621 4.44977 283.125 4.41393 282.627 4.37805C282.131 4.3422 281.635 4.30754 281.137 4.27992C281.038 4.27491 280.578 4.16993 280.519 4.25682Z" fill="#FCCFCE"/>
<path d="M318.515 284.39C317.151 286.394 315.645 288.17 314.004 289.712L314.62 289.778C315.116 289.822 315.613 289.858 316.109 289.893C316.606 289.929 317.102 289.965 317.6 289.993C317.729 289.999 318.117 290.111 318.218 290.016C319.86 288.473 321.365 286.698 322.73 284.692L322.114 284.627C321.618 284.582 321.121 284.547 320.624 284.511C320.128 284.475 319.631 284.44 319.133 284.413C319.035 284.408 318.575 284.303 318.515 284.39Z" fill="#E9723D"/>
<path d="M59.1714 281.678C61.2576 282.949 63.1213 284.372 64.7564 285.945L64.791 285.322C64.81 284.821 64.8207 284.319 64.8314 283.817C64.8421 283.316 64.8528 282.815 64.8552 282.313C64.8552 282.183 64.948 281.787 64.8469 281.69C63.2105 280.117 61.3481 278.693 59.2607 277.423L59.2261 278.046C59.2071 278.547 59.1964 279.048 59.1857 279.55C59.175 280.052 59.1654 280.553 59.1631 281.055C59.1631 281.154 59.0809 281.623 59.1714 281.678Z" fill="#2B3142"/>
<path d="M199.406 340.64C198.042 342.644 196.536 344.42 194.895 345.962L195.511 346.028C196.007 346.072 196.504 346.108 197 346.143C197.497 346.179 197.993 346.215 198.491 346.243C198.62 346.249 199.008 346.361 199.109 346.266C200.75 344.723 202.256 342.948 203.621 340.942L203.005 340.877C202.509 340.832 202.012 340.797 201.515 340.761C201.019 340.725 200.522 340.69 200.024 340.663C199.926 340.658 199.466 340.553 199.406 340.64Z" fill="#E9723D"/>
<path d="M238.515 318.432C240.006 316.52 241.237 314.543 242.203 312.509L242.453 313.075C242.647 313.534 242.833 313.997 243.019 314.458C243.205 314.92 243.391 315.382 243.57 315.847C243.615 315.968 243.841 316.303 243.781 316.428C242.814 318.463 241.584 320.439 240.092 322.352L239.841 321.786C239.648 321.327 239.462 320.865 239.275 320.403C239.089 319.941 238.905 319.479 238.726 319.014C238.691 318.921 238.45 318.515 238.515 318.432Z" fill="#FCCFCE"/>
<path d="M129.967 291.838C131.332 293.843 132.837 295.619 134.479 297.161L133.863 297.226C133.367 297.27 132.869 297.306 132.373 297.342C131.877 297.378 131.38 297.414 130.882 297.442C130.753 297.448 130.366 297.56 130.264 297.465C128.623 295.921 127.117 294.147 125.753 292.141L126.369 292.075C126.865 292.031 127.361 291.995 127.858 291.96C128.355 291.924 128.851 291.889 129.349 291.861C129.448 291.856 129.908 291.751 129.967 291.838Z" fill="#FCCFCE"/>
<path d="M90.8912 392.99C92.8859 394.368 94.9297 395.483 97.0163 396.331L96.4653 396.614C96.0184 396.834 95.5674 397.046 95.1171 397.258C94.6669 397.471 94.2166 397.683 93.7622 397.888C93.6441 397.94 93.3227 398.184 93.1939 398.132C91.1068 397.283 89.0635 396.169 87.0683 394.789L87.6193 394.506C88.0662 394.286 88.5165 394.074 88.9675 393.862C89.4178 393.65 89.8685 393.439 90.3229 393.234C90.4132 393.193 90.8045 392.93 90.8912 392.99Z" fill="#1E6F68"/>
<path d="M132.427 356.447C131.112 358.485 129.651 360.297 128.048 361.879L128.665 361.93C129.162 361.962 129.66 361.985 130.157 362.009C130.654 362.032 131.151 362.056 131.65 362.071C131.779 362.075 132.169 362.177 132.268 362.079C133.871 360.496 135.332 358.685 136.647 356.646L136.03 356.596C135.533 356.564 135.036 356.54 134.538 356.517C134.041 356.493 133.544 356.471 133.045 356.455C132.947 356.453 132.484 356.359 132.427 356.447Z" fill="#F6A725"/>
<path d="M291.088 349.16C292.453 351.165 293.958 352.941 295.6 354.483L294.984 354.548C294.488 354.592 293.991 354.628 293.494 354.664C292.998 354.7 292.501 354.736 292.004 354.763C291.874 354.77 291.487 354.882 291.386 354.786C289.744 353.243 288.239 351.468 286.874 349.463L287.49 349.397C287.986 349.353 288.482 349.317 288.979 349.281C289.476 349.246 289.972 349.211 290.47 349.183C290.569 349.178 291.029 349.073 291.088 349.16Z" fill="#C73E4F"/>
<path d="M249.757 404.096C248.392 402.092 246.887 400.316 245.245 398.774L245.861 398.708C246.357 398.664 246.854 398.628 247.351 398.592C247.847 398.556 248.343 398.521 248.841 398.493C248.97 398.486 249.358 398.374 249.459 398.47C251.101 400.013 252.606 401.788 253.971 403.793L253.355 403.859C252.859 403.903 252.363 403.939 251.865 403.975C251.369 404.011 250.872 404.045 250.375 404.073C250.276 404.078 249.816 404.183 249.757 404.096Z" fill="#4B2D5C"/>
<path d="M228.209 239.893C226.059 238.773 223.892 237.919 221.717 237.337L222.229 236.988C222.645 236.714 223.066 236.448 223.487 236.181C223.907 235.915 224.327 235.649 224.753 235.389C224.864 235.322 225.152 235.04 225.287 235.077C227.463 235.66 229.628 236.512 231.779 237.634L231.268 237.983C230.851 238.257 230.431 238.523 230.01 238.79C229.589 239.056 229.168 239.321 228.743 239.581C228.658 239.632 228.302 239.942 228.209 239.893Z" fill="#FCCFCE"/>
<path d="M297.054 241.466C295.689 243.47 294.184 245.246 292.542 246.788L293.158 246.854C293.654 246.898 294.151 246.934 294.648 246.97C295.144 247.006 295.641 247.042 296.138 247.069C296.267 247.076 296.655 247.188 296.756 247.092C298.398 245.549 299.903 243.774 301.268 241.769L300.652 241.703C300.156 241.659 299.66 241.623 299.162 241.587C298.666 241.551 298.169 241.517 297.672 241.489C297.573 241.484 297.113 241.379 297.054 241.466Z" fill="#C73E51"/>
<path d="M37.7097 238.754C39.7959 240.025 41.6596 241.449 43.2948 243.022L43.3293 242.399C43.3483 241.897 43.359 241.395 43.3698 240.894C43.3805 240.393 43.3912 239.891 43.3935 239.389C43.3935 239.259 43.4864 238.863 43.3852 238.766C41.7488 237.194 39.8864 235.77 37.799 234.499L37.7645 235.122C37.7454 235.623 37.7347 236.125 37.724 236.627C37.7133 237.128 37.7038 237.629 37.7014 238.131C37.7014 238.231 37.6193 238.699 37.7097 238.754Z" fill="#2B3142"/>
<path d="M177.945 297.716C176.58 299.72 175.075 301.496 173.433 303.038L174.049 303.104C174.545 303.148 175.042 303.184 175.539 303.22C176.035 303.256 176.531 303.291 177.029 303.319C177.158 303.326 177.546 303.438 177.647 303.342C179.289 301.799 180.794 300.024 182.159 298.019L181.543 297.953C181.047 297.909 180.551 297.873 180.053 297.837C179.557 297.801 179.06 297.767 178.563 297.739C178.464 297.734 178.004 297.629 177.945 297.716Z" fill="#E9723D"/>
<path d="M217.053 275.509C218.544 273.596 219.775 271.62 220.741 269.586L220.992 270.152C221.185 270.611 221.372 271.073 221.558 271.535C221.744 271.996 221.93 272.458 222.108 272.924C222.154 273.044 222.379 273.379 222.319 273.505C221.352 275.54 220.122 277.516 218.63 279.429L218.38 278.862C218.186 278.404 218 277.942 217.814 277.479C217.628 277.018 217.443 276.556 217.264 276.09C217.229 275.998 216.989 275.592 217.053 275.509Z" fill="#C73E51"/>
<path d="M108.505 248.915C109.87 250.919 111.375 252.695 113.017 254.237L112.401 254.303C111.905 254.347 111.408 254.383 110.911 254.419C110.415 254.455 109.919 254.49 109.421 254.518C109.292 254.525 108.904 254.637 108.803 254.541C107.161 252.998 105.656 251.223 104.291 249.218L104.907 249.152C105.403 249.108 105.899 249.072 106.397 249.036C106.893 249 107.39 248.966 107.887 248.938C107.986 248.933 108.446 248.828 108.505 248.915Z" fill="#FCCFCE"/>
<path d="M69.4295 350.066C71.4243 351.445 73.468 352.56 75.5546 353.408L75.0036 353.691C74.5567 353.91 74.1057 354.123 73.6554 354.335C73.2052 354.547 72.7549 354.759 72.3005 354.964C72.1824 355.017 71.8611 355.261 71.7322 355.208C69.6452 354.359 67.6019 353.245 65.6067 351.865L66.1577 351.582C66.6046 351.363 67.0548 351.151 67.5058 350.938C67.9561 350.726 68.4068 350.515 68.8612 350.31C68.9515 350.27 69.3428 350.006 69.4295 350.066Z" fill="#1E6F68"/>
<path d="M110.965 313.524C109.65 315.561 108.189 317.374 106.586 318.956L107.203 319.006C107.7 319.038 108.198 319.062 108.695 319.085C109.193 319.109 109.69 319.133 110.188 319.148C110.317 319.151 110.707 319.254 110.806 319.156C112.41 317.573 113.871 315.761 115.186 313.723L114.568 313.672C114.072 313.641 113.574 313.617 113.076 313.593C112.579 313.57 112.082 313.547 111.584 313.532C111.485 313.529 111.023 313.436 110.965 313.524Z" fill="#F6A725"/>
<path d="M269.626 306.237C270.991 308.241 272.497 310.017 274.138 311.559L273.522 311.625C273.026 311.669 272.529 311.705 272.032 311.741C271.536 311.776 271.04 311.812 270.542 311.84C270.413 311.846 270.025 311.958 269.924 311.863C268.282 310.32 266.777 308.545 265.412 306.539L266.028 306.474C266.524 306.43 267.02 306.394 267.518 306.358C268.014 306.322 268.511 306.288 269.008 306.26C269.107 306.255 269.567 306.15 269.626 306.237Z" fill="#C73E4F"/>
<path d="M206.747 196.97C204.597 195.849 202.431 194.996 200.255 194.413L200.767 194.064C201.183 193.791 201.604 193.524 202.025 193.258C202.445 192.992 202.866 192.725 203.291 192.466C203.402 192.399 203.691 192.117 203.825 192.153C206.001 192.737 208.167 193.589 210.318 194.711L209.806 195.06C209.39 195.333 208.969 195.599 208.548 195.866C208.128 196.132 207.706 196.398 207.281 196.657C207.196 196.709 206.841 197.018 206.747 196.97Z" fill="#4B2D5C"/>
<path d="M173.634 274.524C175.72 275.795 177.584 277.218 179.219 278.791L179.254 278.168C179.273 277.667 179.283 277.165 179.294 276.664C179.305 276.162 179.315 275.661 179.318 275.159C179.318 275.029 179.411 274.633 179.31 274.536C177.673 272.963 175.811 271.539 173.723 270.269L173.689 270.892C173.67 271.393 173.659 271.894 173.648 272.396C173.638 272.898 173.628 273.399 173.626 273.901C173.626 274.001 173.544 274.469 173.634 274.524Z" fill="#2B3142"/>
<path d="M313.869 333.485C312.504 335.49 310.999 337.266 309.357 338.808L309.973 338.873C310.469 338.918 310.966 338.953 311.463 338.989C311.959 339.025 312.456 339.061 312.953 339.089C313.083 339.095 313.47 339.207 313.572 339.112C315.213 337.568 316.718 335.794 318.083 333.788L317.467 333.723C316.971 333.678 316.475 333.643 315.978 333.607C315.481 333.571 314.985 333.536 314.487 333.509C314.388 333.504 313.928 333.399 313.869 333.485Z" fill="#E9723D"/>
<path d="M352.978 311.278C354.469 309.366 355.699 307.39 356.665 305.355L356.916 305.921C357.11 306.38 357.296 306.843 357.482 307.304C357.668 307.766 357.854 308.228 358.032 308.693C358.078 308.814 358.303 309.149 358.243 309.274C357.276 311.309 356.047 313.285 354.555 315.198L354.304 314.632C354.11 314.173 353.924 313.711 353.738 313.249C353.552 312.787 353.367 312.325 353.189 311.86C353.154 311.767 352.913 311.361 352.978 311.278Z" fill="#C73E51"/>
<path d="M244.43 284.684C245.794 286.689 247.3 288.465 248.941 290.007L248.325 290.072C247.829 290.117 247.332 290.152 246.836 290.188C246.339 290.224 245.843 290.26 245.345 290.288C245.216 290.294 244.828 290.406 244.727 290.311C243.085 288.767 241.58 286.993 240.215 284.987L240.831 284.921C241.327 284.877 241.824 284.842 242.321 284.806C242.817 284.77 243.314 284.735 243.812 284.708C243.91 284.703 244.37 284.598 244.43 284.684Z" fill="#FCCFCE"/>
<path d="M205.354 385.836C207.349 387.214 209.392 388.329 211.479 389.177L210.928 389.46C210.481 389.68 210.03 389.892 209.58 390.104C209.129 390.317 208.679 390.529 208.225 390.734C208.107 390.786 207.785 391.03 207.657 390.978C205.569 390.129 203.526 389.015 201.531 387.635L202.082 387.352C202.529 387.132 202.979 386.92 203.43 386.708C203.88 386.496 204.331 386.284 204.786 386.08C204.876 386.039 205.267 385.776 205.354 385.836Z" fill="#1E6F68"/>
<path d="M246.89 349.294C245.575 351.331 244.113 353.143 242.51 354.725L243.128 354.776C243.625 354.808 244.123 354.831 244.62 354.855C245.117 354.879 245.614 354.902 246.112 354.917C246.241 354.921 246.632 355.023 246.731 354.925C248.334 353.342 249.795 351.531 251.11 349.492L250.493 349.442C249.996 349.41 249.499 349.387 249.001 349.363C248.504 349.339 248.006 349.317 247.508 349.301C247.409 349.299 246.947 349.205 246.89 349.294Z" fill="#F6A725"/>
<path d="M364.219 396.942C362.855 394.938 361.349 393.162 359.708 391.62L360.324 391.554C360.82 391.51 361.317 391.474 361.813 391.438C362.31 391.402 362.806 391.367 363.304 391.339C363.433 391.332 363.821 391.221 363.922 391.316C365.563 392.859 367.069 394.634 368.434 396.64L367.818 396.705C367.322 396.749 366.825 396.785 366.328 396.821C365.832 396.857 365.335 396.891 364.837 396.919C364.739 396.924 364.279 397.029 364.219 396.942Z" fill="#4B2D5C"/>
<path d="M342.672 232.74C340.521 231.619 338.355 230.765 336.18 230.183L336.691 229.834C337.107 229.561 337.529 229.294 337.949 229.027C338.37 228.761 338.79 228.495 339.216 228.235C339.326 228.168 339.615 227.886 339.749 227.923C341.925 228.506 344.091 229.358 346.242 230.48L345.73 230.829C345.314 231.103 344.894 231.369 344.472 231.636C344.052 231.902 343.631 232.167 343.205 232.427C343.121 232.478 342.765 232.788 342.672 232.74Z" fill="#4B2D5C"/>
<path d="M195.279 249.558C193.915 251.562 192.409 253.338 190.768 254.88L191.384 254.946C191.88 254.99 192.377 255.026 192.873 255.061C193.37 255.097 193.866 255.133 194.364 255.161C194.493 255.167 194.881 255.279 194.982 255.184C196.624 253.641 198.129 251.866 199.494 249.86L198.878 249.795C198.382 249.751 197.885 249.715 197.388 249.679C196.892 249.643 196.395 249.608 195.897 249.581C195.799 249.576 195.339 249.471 195.279 249.558Z" fill="#4B2D5C"/>
<path d="M262.443 255.799C261.078 257.803 259.573 259.579 257.931 261.121L258.547 261.187C259.043 261.231 259.54 261.267 260.037 261.302C260.533 261.338 261.029 261.374 261.527 261.402C261.656 261.408 262.044 261.52 262.145 261.425C263.787 259.882 265.292 258.107 266.657 256.101L266.041 256.036C265.545 255.992 265.049 255.956 264.551 255.92C264.055 255.884 263.558 255.849 263.061 255.822C262.962 255.817 262.502 255.712 262.443 255.799Z" fill="#E9723D"/>
<path d="M152.668 304.124C154.159 302.212 155.39 300.236 156.356 298.201L156.607 298.767C156.8 299.226 156.987 299.689 157.173 300.15C157.359 300.612 157.545 301.074 157.723 301.539C157.769 301.66 157.994 301.995 157.934 302.121C156.967 304.155 155.737 306.131 154.245 308.044L153.995 307.478C153.801 307.019 153.615 306.557 153.429 306.095C153.243 305.633 153.058 305.171 152.879 304.706C152.844 304.613 152.604 304.208 152.668 304.124Z" fill="#C73E51"/>
<path d="M44.1203 277.53C45.485 279.535 46.9904 281.311 48.632 282.853L48.0161 282.918C47.5201 282.963 47.0228 282.998 46.5264 283.034C46.0299 283.07 45.5335 283.106 45.0358 283.134C44.9067 283.14 44.519 283.252 44.4177 283.157C42.7761 281.614 41.2708 279.839 39.906 277.833L40.5219 277.768C41.018 277.723 41.5144 277.688 42.0117 277.652C42.5081 277.616 43.0046 277.581 43.5023 277.554C43.601 277.549 44.0609 277.444 44.1203 277.53Z" fill="#FCCFCE"/>
<path d="M5.04452 378.682C7.03925 380.06 9.08304 381.176 11.1696 382.023L10.6186 382.306C10.1717 382.526 9.72068 382.738 9.27043 382.95C8.82017 383.163 8.36991 383.375 7.91552 383.58C7.79744 383.632 7.47604 383.876 7.34721 383.824C5.26016 382.975 3.21687 381.861 1.22166 380.481L1.77266 380.198C2.21955 379.978 2.66981 379.766 3.12084 379.554C3.57109 379.342 4.02183 379.131 4.47622 378.926C4.56652 378.885 4.95783 378.622 5.04452 378.682Z" fill="#1E6F68"/>
<path d="M46.5803 342.14C45.2653 344.177 43.8041 345.989 42.2009 347.571L42.8183 347.622C43.3152 347.654 43.8132 347.677 44.3104 347.701C44.8076 347.725 45.3047 347.748 45.8029 347.764C45.9322 347.767 46.3225 347.869 46.4214 347.771C48.0245 346.188 49.4858 344.377 50.8008 342.339L50.1835 342.288C49.6865 342.256 49.1894 342.233 48.6913 342.209C48.1942 342.185 47.697 342.163 47.1987 342.147C47.0999 342.145 46.6376 342.051 46.5803 342.14Z" fill="#F6A725"/>
<path d="M205.241 334.852C206.606 336.857 208.112 338.633 209.753 340.175L209.137 340.24C208.641 340.284 208.144 340.32 207.647 340.356C207.151 340.392 206.655 340.428 206.157 340.456C206.028 340.462 205.64 340.574 205.539 340.479C203.897 338.935 202.392 337.161 201.027 335.155L201.643 335.089C202.139 335.045 202.635 335.01 203.133 334.974C203.629 334.938 204.126 334.903 204.623 334.875C204.722 334.87 205.182 334.766 205.241 334.852Z" fill="#C73E4F"/>
<path d="M163.91 389.788C162.545 387.784 161.04 386.008 159.399 384.466L160.014 384.4C160.51 384.356 161.008 384.32 161.504 384.284C162.001 384.249 162.497 384.213 162.995 384.185C163.124 384.179 163.511 384.067 163.613 384.162C165.254 385.705 166.76 387.48 168.124 389.486L167.509 389.551C167.013 389.595 166.516 389.631 166.019 389.667C165.522 389.703 165.026 389.737 164.528 389.765C164.43 389.77 163.97 389.875 163.91 389.788Z" fill="#4B2D5C"/>
<path d="M293.91 378.788C292.545 376.784 291.04 375.008 289.398 373.466L290.014 373.4C290.51 373.356 291.007 373.32 291.504 373.284C292 373.249 292.497 373.213 292.994 373.185C293.124 373.179 293.511 373.067 293.613 373.162C295.254 374.705 296.759 376.48 298.124 378.486L297.508 378.551C297.012 378.595 296.516 378.631 296.019 378.667C295.522 378.703 295.026 378.737 294.528 378.765C294.429 378.77 293.969 378.875 293.91 378.788Z" fill="#4B2D5C"/>
<path d="M142.362 225.586C140.212 224.465 138.046 223.612 135.87 223.029L136.382 222.68C136.798 222.407 137.219 222.14 137.64 221.874C138.06 221.607 138.481 221.341 138.906 221.081C139.017 221.014 139.306 220.732 139.44 220.769C141.616 221.352 143.782 222.204 145.933 223.326L145.421 223.675C145.005 223.949 144.584 224.215 144.163 224.482C143.743 224.748 143.321 225.013 142.896 225.273C142.811 225.324 142.456 225.634 142.362 225.586Z" fill="#4B2D5C"/>
<path d="M261.284 198.543C259.92 200.547 258.414 202.323 256.773 203.865L257.389 203.931C257.885 203.975 258.382 204.011 258.878 204.047C259.375 204.082 259.871 204.118 260.369 204.146C260.498 204.152 260.886 204.264 260.987 204.169C262.629 202.626 264.134 200.851 265.499 198.845L264.883 198.78C264.387 198.736 263.89 198.7 263.393 198.664C262.897 198.628 262.4 198.593 261.902 198.566C261.804 198.561 261.344 198.456 261.284 198.543Z" fill="#E9723D"/>
<path d="M1.94042 195.831C4.02664 197.102 5.89032 198.526 7.52549 200.098L7.55999 199.475C7.57903 198.974 7.58976 198.472 7.60047 197.971C7.61118 197.469 7.62188 196.968 7.62426 196.466C7.62426 196.336 7.71708 195.94 7.61592 195.843C5.97956 194.27 4.1171 192.846 2.02969 191.576L1.99517 192.199C1.97613 192.7 1.96543 193.201 1.95471 193.703C1.944 194.205 1.93449 194.706 1.93211 195.208C1.93211 195.308 1.84998 195.776 1.94042 195.831Z" fill="#2B3142"/>
<path d="M142.175 254.793C140.811 256.797 139.305 258.573 137.664 260.115L138.28 260.181C138.776 260.225 139.273 260.261 139.769 260.296C140.266 260.332 140.762 260.368 141.26 260.396C141.389 260.402 141.777 260.514 141.878 260.419C143.52 258.876 145.025 257.101 146.39 255.095L145.774 255.03C145.278 254.986 144.781 254.95 144.284 254.914C143.788 254.878 143.291 254.843 142.793 254.816C142.695 254.811 142.235 254.706 142.175 254.793Z" fill="#E9723D"/>
<path d="M181.284 232.585C182.775 230.673 184.006 228.697 184.972 226.662L185.222 227.229C185.416 227.687 185.602 228.15 185.788 228.611C185.974 229.073 186.16 229.535 186.339 230C186.384 230.121 186.61 230.456 186.55 230.582C185.583 232.616 184.353 234.593 182.861 236.505L182.61 235.939C182.417 235.48 182.231 235.018 182.044 234.556C181.858 234.094 181.674 233.632 181.495 233.167C181.46 233.074 181.22 232.669 181.284 232.585Z" fill="#C73E51"/>
<path d="M72.7363 205.992C74.101 207.996 75.6064 209.772 77.2479 211.314L76.6321 211.38C76.136 211.424 75.6388 211.46 75.1423 211.495C74.6459 211.531 74.1495 211.567 73.6518 211.595C73.5227 211.601 73.135 211.713 73.0337 211.618C71.3921 210.075 69.8868 208.3 68.522 206.294L69.1379 206.229C69.6339 206.185 70.1304 206.149 70.6276 206.113C71.1241 206.077 71.6206 206.042 72.1183 206.015C72.217 206.01 72.6769 205.905 72.7363 205.992Z" fill="#FCCFCE"/>
<path d="M33.6605 307.143C35.6552 308.521 37.699 309.637 39.7856 310.484L39.2346 310.767C38.7877 310.987 38.3366 311.199 37.8864 311.411C37.4361 311.624 36.9859 311.836 36.5315 312.041C36.4134 312.093 36.092 312.337 35.9632 312.285C33.8761 311.436 31.8328 310.322 29.8376 308.942L30.3886 308.659C30.8355 308.439 31.2858 308.227 31.7368 308.015C32.1871 307.803 32.6378 307.592 33.0922 307.387C33.1825 307.346 33.5738 307.083 33.6605 307.143Z" fill="#1E6F68"/>
<path d="M75.196 270.601C73.881 272.638 72.4198 274.451 70.8167 276.032L71.434 276.083C71.9309 276.115 72.4289 276.138 72.9261 276.162C73.4233 276.186 73.9204 276.209 74.4187 276.225C74.5479 276.228 74.9382 276.33 75.0371 276.233C76.6403 274.649 78.1015 272.838 79.4165 270.8L78.7992 270.749C78.3022 270.717 77.8051 270.694 77.3071 270.67C76.8099 270.646 76.3127 270.624 75.8145 270.609C75.7157 270.606 75.2533 270.512 75.196 270.601Z" fill="#F6A725"/>
<path d="M192.526 318.249C191.161 316.245 189.656 314.469 188.014 312.927L188.63 312.861C189.126 312.817 189.623 312.781 190.12 312.745C190.616 312.71 191.113 312.674 191.61 312.646C191.739 312.64 192.127 312.528 192.228 312.623C193.87 314.166 195.375 315.941 196.74 317.947L196.124 318.012C195.628 318.056 195.132 318.092 194.634 318.128C194.138 318.164 193.641 318.199 193.144 318.226C193.045 318.231 192.585 318.336 192.526 318.249Z" fill="#4B2D5C"/>
<path d="M170.978 154.047C168.828 152.926 166.662 152.073 164.486 151.49L164.998 151.141C165.414 150.868 165.835 150.601 166.256 150.335C166.676 150.068 167.097 149.802 167.522 149.542C167.633 149.475 167.921 149.194 168.056 149.23C170.232 149.813 172.397 150.665 174.548 151.787L174.037 152.136C173.62 152.41 173.2 152.676 172.779 152.943C172.358 153.209 171.937 153.474 171.512 153.734C171.427 153.785 171.071 154.095 170.978 154.047Z" fill="#4B2D5C"/>
<path d="M292.407 405.025C291.043 407.029 289.537 408.805 287.896 410.347L288.511 410.413C289.008 410.457 289.505 410.493 290.001 410.528C290.498 410.564 290.994 410.6 291.492 410.628C291.621 410.634 292.009 410.746 292.11 410.651C293.751 409.108 295.257 407.333 296.622 405.327L296.006 405.262C295.51 405.218 295.013 405.182 294.516 405.146C294.019 405.11 293.523 405.075 293.025 405.048C292.927 405.043 292.467 404.938 292.407 405.025Z" fill="#E9723D"/>
<path d="M331.516 382.817C333.007 380.905 334.238 378.929 335.204 376.894L335.454 377.46C335.648 377.919 335.834 378.382 336.02 378.843C336.206 379.305 336.392 379.767 336.571 380.232C336.616 380.353 336.842 380.688 336.782 380.814C335.815 382.848 334.585 384.824 333.093 386.737L332.842 386.171C332.649 385.712 332.463 385.25 332.276 384.788C332.09 384.326 331.906 383.864 331.727 383.399C331.692 383.306 331.451 382.901 331.516 382.817Z" fill="#C73E51"/>
<path d="M222.968 356.223C224.333 358.228 225.838 360.004 227.48 361.546L226.864 361.611C226.368 361.656 225.87 361.691 225.374 361.727C224.878 361.763 224.381 361.799 223.883 361.827C223.754 361.833 223.367 361.945 223.265 361.85C221.624 360.307 220.118 358.532 218.754 356.526L219.37 356.461C219.866 356.416 220.362 356.381 220.859 356.345C221.356 356.309 221.852 356.274 222.35 356.247C222.449 356.242 222.909 356.137 222.968 356.223Z" fill="#FCCFCE"/>
<path d="M321.21 304.279C319.059 303.158 316.893 302.305 314.718 301.722L315.229 301.373C315.646 301.1 316.067 300.833 316.487 300.567C316.908 300.3 317.328 300.034 317.754 299.774C317.864 299.707 318.153 299.425 318.287 299.462C320.464 300.045 322.629 300.897 324.78 302.019L324.268 302.368C323.852 302.642 323.432 302.908 323.01 303.175C322.59 303.441 322.169 303.706 321.743 303.966C321.659 304.017 321.303 304.327 321.21 304.279Z" fill="#4B2D5C"/>
</g>
<defs>
<clipPath id="clip0_8726_625">
<rect width="375" height="405" fill="white"/>
</clipPath>
</defs>
</svg>
