<svg width="23" height="23" viewBox="0 0 23 23" fill="none" xmlns="http://www.w3.org/2000/svg">
<path d="M11.5 2.875C9.79414 2.875 8.12658 3.38085 6.70821 4.32857C5.28984 5.2763 4.18435 6.62334 3.53154 8.19935C2.87874 9.77537 2.70793 11.5096 3.04073 13.1827C3.37353 14.8557 4.19498 16.3926 5.40121 17.5988C6.60743 18.805 8.14426 19.6265 9.81735 19.9593C11.4904 20.2921 13.2246 20.1213 14.8006 19.4685C16.3767 18.8156 17.7237 17.7102 18.6714 16.2918C19.6192 14.8734 20.125 13.2059 20.125 11.5C20.1224 9.2133 19.2129 7.021 17.5959 5.40406C15.979 3.78712 13.7867 2.87759 11.5 2.875ZM17.25 12.075H5.75C5.5975 12.075 5.45125 12.0144 5.34342 11.9066C5.23558 11.7988 5.175 11.6525 5.175 11.5C5.175 11.3475 5.23558 11.2012 5.34342 11.0934C5.45125 10.9856 5.5975 10.925 5.75 10.925H17.25C17.4025 10.925 17.5488 10.9856 17.6566 11.0934C17.7644 11.2012 17.825 11.3475 17.825 11.5C17.825 11.6525 17.7644 11.7988 17.6566 11.9066C17.5488 12.0144 17.4025 12.075 17.25 12.075Z" fill="#4B2D5C"/>
</svg>
