<svg width="18" height="21" viewBox="0 0 18 21" fill="none" xmlns="http://www.w3.org/2000/svg">
<path fill-rule="evenodd" clip-rule="evenodd" d="M2.77148 6.35889V18.5384C2.77148 18.926 2.91147 19.2977 3.16064 19.5718C3.40982 19.8459 3.74777 19.9999 4.10016 19.9999H13.8437C14.1961 19.9999 14.5341 19.8459 14.7833 19.5718C15.0324 19.2977 15.1724 18.926 15.1724 18.5384V6.35889H2.77148Z" stroke="#FF0000"/>
<path d="M5.42896 9.19436V17.1646M8.97208 9.19436V17.1646M12.5152 9.19436V17.1646M5.87185 3.27318V2.2121C5.87185 1.54272 6.42723 1 7.11194 1H10.8322C11.5169 1 12.0723 1.54272 12.0723 2.2121V3.27415" stroke="#FF0000" stroke-linecap="round"/>
<path d="M15.6154 3.43604H2.32867C1.59487 3.43604 1 4.09039 1 4.89757C1 5.70476 1.59487 6.35911 2.32867 6.35911H15.6154C16.3492 6.35911 16.9441 5.70476 16.9441 4.89757C16.9441 4.09039 16.3492 3.43604 15.6154 3.43604Z" stroke="#FF0000"/>
</svg>
