<svg width="19" height="19" viewBox="0 0 19 19" fill="none" xmlns="http://www.w3.org/2000/svg">
<path d="M16.6804 4.14034C15.4058 4.01367 14.1313 3.91867 12.8488 3.84742V3.8395L12.6746 2.81034C12.5558 2.082 12.3817 0.989502 10.5292 0.989502H8.455C6.61042 0.989502 6.43625 2.0345 6.30958 2.80242L6.14333 3.81575C5.40708 3.86325 4.67083 3.91075 3.93458 3.982L2.31958 4.14034C1.98708 4.172 1.74958 4.46492 1.78125 4.7895C1.81292 5.11409 2.09792 5.35158 2.43042 5.31992L4.04542 5.16158C8.19375 4.74992 12.3738 4.90825 16.5696 5.32784C16.5933 5.32784 16.6092 5.32784 16.6329 5.32784C16.9338 5.32784 17.195 5.09825 17.2267 4.7895C17.2504 4.46492 17.0129 4.172 16.6804 4.14034Z" fill="#FF0004"/>
<path opacity="0.3991" d="M15.2238 6.44425C15.0338 6.24633 14.7725 6.1355 14.5033 6.1355H4.49667C4.2275 6.1355 3.95833 6.24633 3.77625 6.44425C3.59417 6.64216 3.49125 6.91133 3.50708 7.18841L3.99792 15.3109C4.085 16.5142 4.19583 18.0184 6.95875 18.0184H12.0413C14.8042 18.0184 14.915 16.5222 15.0021 15.3109L15.4929 7.19633C15.5087 6.91133 15.4058 6.64216 15.2238 6.44425Z" fill="#FF0004"/>
<path fill-rule="evenodd" clip-rule="evenodd" d="M7.58417 13.4583C7.58417 13.1303 7.85 12.8645 8.17792 12.8645H10.8142C11.1421 12.8645 11.4079 13.1303 11.4079 13.4583C11.4079 13.7862 11.1421 14.052 10.8142 14.052H8.17792C7.85 14.052 7.58417 13.7862 7.58417 13.4583Z" fill="#FF0004"/>
<path fill-rule="evenodd" clip-rule="evenodd" d="M6.92708 10.2917C6.92708 9.96383 7.19291 9.698 7.52083 9.698H11.4792C11.8071 9.698 12.0729 9.96383 12.0729 10.2917C12.0729 10.6197 11.8071 10.8855 11.4792 10.8855H7.52083C7.19291 10.8855 6.92708 10.6197 6.92708 10.2917Z" fill="#FF0004"/>
</svg>
