<svg width="275" height="275" viewBox="0 0 275 275" fill="none" xmlns="http://www.w3.org/2000/svg">
<g clip-path="url(#clip0_217_129)">
<path d="M200.4 274.9C199.7 274.9 198.9 274.5 198.2 273.9C197.5 273.3 197.3 272.4 197.3 271.8V257.1H184.6V271.8C184.6 272.5 184.2 273.3 183.6 274C183 274.7 182.1 274.9 181.5 274.9C180.8 274.9 180 274.5 179.3 273.9C178.6 273.3 178.4 272.4 178.4 271.8V254.2C178.4 253.7 178.5 253.4 178.6 253C178.7 252.7 178.9 252.4 179.3 252C179.8 251.5 180.1 251.4 180.2 251.4C180.8 251.3 181.3 251.2 181.6 251.2H197.3V237.2C197.3 236.5 197.7 235.7 198.3 235C198.9 234.3 199.8 234.1 200.4 234.1H211.1V209.4C211.1 208.7 211.5 207.9 212.1 207.2C212.7 206.5 213.6 206.3 214.2 206.3H228.3V196.1C228.3 195.4 228.7 194.6 229.3 193.9C229.9 193.2 230.8 193 231.4 193H243.2C243.9 193 244.7 193.4 245.4 194C246.1 194.6 246.3 195.5 246.3 196.1C246.3 196.9 246 197.6 245.4 198.2C244.7 199 243.9 199.1 243.3 199.1H234.4V206.2H268.9V194.3C268.9 193.6 269.3 192.8 269.9 192.1C270.5 191.4 271.4 191.2 272 191.2C272.7 191.2 273.5 191.6 274.2 192.2C274.9 192.8 275.1 193.7 275.1 194.3V209.2C275.1 209.9 274.7 210.7 274.1 211.4C273.5 212.1 272.6 212.3 272 212.3H234.3V218.6C234.3 219.3 234 220.1 233.3 220.8C232.8 221.3 232 221.7 231.2 221.7C230.4 221.7 229.7 221.4 229.1 220.8C228.6 220.3 228.3 219.5 228.3 218.7V212.4H217.2V234H227.9C228.6 234 229.4 234.4 230.1 235C230.8 235.6 231 236.5 231 237.1V251.1H246.2V225.3C246.2 224.9 246.3 224.5 246.4 224.2C246.5 223.9 246.7 223.6 247.1 223.2C247.4 222.9 247.7 222.7 248.1 222.5C248.5 222.3 248.9 222.3 249.2 222.3C249.5 222.3 250 222.4 250.3 222.5C250.6 222.6 250.9 222.8 251.3 223.2C251.6 223.5 251.8 223.8 252 224.2C252.1 224.5 252.2 225 252.2 225.3V236.6H271.9C272.6 236.6 273.4 237 274.1 237.6C274.8 238.2 275 239.1 275 239.7C275 240.4 274.6 241.2 274 241.9C273.4 242.6 272.5 242.8 271.9 242.8H252.2V254.1C252.2 254.8 251.8 255.6 251.2 256.3C250.6 257 249.7 257.2 249.1 257.2H231V268.8H245.1C245.8 268.8 246.6 269.2 247.3 269.8C248 270.4 248.2 271.3 248.2 271.9C248.2 272.6 247.8 273.4 247.2 274.1C246.6 274.8 245.7 275 245.1 275H228C227.8 275 227.7 275 227.7 275C226.8 275 226.2 274.6 225.8 274.2C225.2 273.6 224.9 272.9 224.8 272V240.4H203.5V272.1C203.5 272.8 203.1 273.6 202.5 274.3C201.8 274.8 201 274.9 200.4 274.9ZM111.1 274.9C110.3 274.9 109.6 274.6 109 274C108.2 273.3 108.1 272.5 108.1 271.9V241.1C108.1 240.3 108.4 239.6 109 239C109.7 238.2 110.5 238.1 111.1 238.1H129.8V226.7H119.5C119.1 226.7 118.8 226.6 118.4 226.5C118.1 226.4 117.8 226.2 117.4 225.8C117.1 225.5 116.9 225.2 116.7 224.8C116.5 224.4 116.5 224 116.5 223.7V215.5H95.0004V227.9H100.9C101.6 227.9 102.4 228.3 103.1 228.9C103.8 229.5 104 230.4 104 231C104 231.7 103.7 232.5 103 233.2C102.4 233.9 101.5 234.1 100.9 234.1H59.7004L59.8004 228.3H89.0004V212.8C89.0004 212.1 89.4004 211.4 89.9004 210.8C90.4004 210.2 91.1004 209.9 91.9004 209.9H119.5C120.2 209.9 121 210.3 121.7 210.9C122.4 211.5 122.6 212.4 122.6 213V221.2H141.5C142.3 221.2 143 221.5 143.6 222.1C144.2 222.6 144.5 223.5 144.5 224.3C144.5 225 144.1 225.8 143.5 226.5C142.9 227.2 142 227.4 141.4 227.4H135.8V241.7C135.8 242.4 135.4 243.1 134.9 243.7C134.3 244.2 133.6 244.5 132.8 244.5H114.1V272.3C114.1 273 113.8 273.8 113.1 274.5C112.5 274.8 111.7 274.9 111.1 274.9ZM92.0004 274.9C91.3004 274.9 90.5004 274.5 89.8004 273.9C89.1004 273.3 88.9004 272.4 88.9004 271.8V260.6C88.9004 259.9 89.2004 259.1 89.9004 258.4C90.5004 257.7 91.4004 257.5 92.0004 257.5C92.8004 257.5 93.5004 257.8 94.1004 258.4C94.6004 258.9 94.9004 259.7 95.0004 260.6V271.7C95.0004 272.4 94.7004 273.2 94.0004 273.9C93.5004 274.8 92.6004 274.9 92.0004 274.9ZM271.9 274.8C271.2 274.8 270.4 274.4 269.7 273.8C269 273.2 268.8 272.3 268.8 271.7V264.8H261C260.2 264.8 259.5 264.5 258.9 263.9C258.1 263.2 258 262.4 258 261.8C258 261 258.3 260.3 258.9 259.7C259.6 258.9 260.4 258.8 261 258.8H268.9V252.4C268.9 251.7 269.3 250.9 269.9 250.2C270.5 249.5 271.4 249.3 272 249.3C272.8 249.3 273.5 249.6 274.1 250.2C274.8 250.9 275.1 251.8 275.1 252.4V271.7C275.1 272.4 274.8 273.1 274.2 273.8C273.5 274.4 272.8 274.7 272.1 274.7H271.9V274.8ZM130.9 268.2C130.1 268.2 129.4 267.9 128.8 267.3C128 266.6 127.9 265.8 127.9 265.2C127.9 264.4 128.2 263.7 128.8 263.1C129.5 262.3 130.3 262.2 130.9 262.2H159.6V238.2H151.2C150.4 238.2 149.7 237.9 149.1 237.3C148.5 236.8 148.2 236 148.2 235.2C148.2 234.5 148.6 233.7 149.2 233C149.8 232.3 150.7 232.1 151.3 232.1H159.7V207.6H148.4C148 207.6 147.6 207.5 147.3 207.4C147 207.3 146.7 207.1 146.3 206.7C145.9 206.3 145.8 206.1 145.6 205.7C145.4 205.3 145.4 204.9 145.4 204.6V175.7C145.4 174.9 145.7 174.2 146.3 173.6C147 172.8 147.8 172.7 148.4 172.7H177.2C178 172.7 178.7 173 179.3 173.6C180.1 174.3 180.2 175.1 180.2 175.7V204.5C180.2 205 180.1 205.3 180 205.7C179.9 206 179.7 206.3 179.3 206.7L179.2 206.8V206.9C179 207.1 178.7 207.3 178.3 207.5C177.9 207.6 177.5 207.7 177.1 207.7H165.8V232.2H181.3C182.1 232.2 182.8 232.5 183.4 233.1C184 233.7 184.3 234.5 184.3 235.2C184.3 235.9 183.9 236.7 183.3 237.4C182.7 238.1 181.8 238.3 181.2 238.3H165.6V265.3C165.6 266 165.2 266.8 164.6 267.5C164 268.2 163.1 268.4 162.5 268.4H130.9V268.2ZM151.1 201.6H173.9V178.8H151.1V201.6ZM182.8 223.2C182.4 223.2 182 223.1 181.7 223C181.4 222.9 181.1 222.7 180.7 222.3C180.4 222 180.2 221.7 180 221.3C179.8 220.9 179.8 220.5 179.8 220.2C179.8 219.4 180.1 218.7 180.7 218.1C181.4 217.3 182.2 217.2 182.8 217.2H192.7C193.5 217.2 194.2 217.5 194.8 218.1C195.3 218.6 195.6 219.4 195.7 220.3C195.7 221 195.4 221.7 194.8 222.3C194.1 223.1 193.3 223.2 192.7 223.2H182.8ZM132.6 208.9C132.2 208.9 131.9 208.8 131.5 208.7C131.2 208.6 130.9 208.4 130.5 208C130.2 207.7 130 207.4 129.8 207C129.7 206.7 129.6 206.3 129.6 205.9V191.5H111.2V199.4C111.2 200.1 110.9 200.9 110.2 201.6C109.7 202.1 108.9 202.5 108.1 202.5C107.3 202.5 106.6 202.2 106 201.6C105.2 200.9 105.1 200.1 105.1 199.5V191.6H99.8004C99.3004 191.6 99.0004 191.5 98.6004 191.4C98.3004 191.3 98.0004 191.1 97.6004 190.7C97.3004 190.4 97.1004 190.1 96.9004 189.7C96.8004 189.3 96.7004 188.9 96.7004 188.5V162H86.2004C85.5004 162 84.7004 161.6 84.0004 161C83.3004 160.4 83.1004 159.5 83.1004 158.9C83.1004 158.2 83.4004 157.4 84.1004 156.7C84.7004 156 85.6004 155.8 86.2004 155.8H99.9004C100.3 155.8 100.6 155.9 101 156C101.3 156.1 101.6 156.3 102 156.7C102.3 157 102.5 157.3 102.7 157.7C102.9 158.1 102.9 158.5 102.9 158.8V185.4H129.7V170.7C129.7 170 130 169.2 130.7 168.5C131.3 167.8 132.2 167.6 132.8 167.6C133.6 167.6 134.3 167.9 134.9 168.5C135.5 169 135.8 169.8 135.7 170.6V205.7C135.7 206.5 135.4 207.2 134.8 207.8C134 208.7 133.2 208.9 132.6 208.9ZM200.8 207C200.3 207 200 206.9 199.6 206.8C199.3 206.7 199 206.5 198.6 206.1L198.5 206H198.4C198.2 205.8 198 205.5 197.8 205.1C197.7 204.7 197.6 204.3 197.6 203.9V193H190.3C189.6 193 188.8 192.7 188.1 192C187.4 191.4 187.2 190.5 187.2 189.9C187.2 189.1 187.5 188.4 188.1 187.8C188.8 187 189.6 186.9 190.2 186.9H208V166.9C208 166.1 208.3 165.4 208.9 164.8C209.6 164 210.4 163.9 211 163.9C211.7 163.9 212.5 164.3 213.2 164.9C213.9 165.5 214.1 166.4 214.1 167V175.6H238.7V163.8C238.7 163.1 239.1 162.3 239.7 161.6C240.2 161.1 241 160.7 241.8 160.7C242.6 160.7 243.3 161 243.9 161.6C244.5 162.2 244.8 163 244.8 163.6V178.5C244.8 179.3 244.5 180 243.9 180.6C243.2 181.4 242.4 181.5 241.8 181.5H214.2V190.1C214.2 190.8 213.9 191.6 213.2 192.3C212.6 193 211.7 193.2 211.1 193.2H203.9V204C203.9 204.4 203.8 204.7 203.7 205.1C203.6 205.4 203.4 205.7 203 206.1C202.6 206.5 202.4 206.6 202 206.8C201.5 206.9 201.2 207 200.8 207ZM41.5004 205.2V171.2H26.5004C25.8004 171.2 25.0004 170.8 24.3004 170.2C23.6004 169.6 23.4004 168.7 23.4004 168.1V156.8H3.00039C2.30039 156.8 1.50039 156.4 0.800391 155.8C0.300391 155.3 -0.0996094 154.5 -0.0996094 153.7C-0.0996094 153 0.200391 152.2 0.900391 151.5C1.50039 150.8 2.40039 150.6 3.00039 150.6H26.5004C27.2004 150.6 28.0004 151 28.7004 151.6C29.4004 152.2 29.6004 153.1 29.6004 153.7V165H41.5004V158.9C41.5004 158.2 41.8004 157.4 42.5004 156.7C43.1004 156 44.0004 155.8 44.6004 155.8H58.5004C59.3004 155.8 60.0004 156.1 60.6004 156.7C61.2004 157.2 61.4004 158.2 61.4004 158.9C61.4004 159.6 61.1004 160.4 60.4004 161.1C59.8004 161.8 58.9004 162 58.3004 162H47.5004V205.2H41.5004ZM162.5 195.1C161.8 195.1 161 194.7 160.3 194.1C159.6 193.5 159.4 192.6 159.4 192V188.2C159.4 187.4 159.7 186.7 160.3 186.1C160.9 185.6 161.7 185.3 162.4 185.3C163.2 185.3 164 185.6 164.5 186.1C165.3 186.8 165.4 187.6 165.4 188.2V192C165.4 192.7 165 193.5 164.4 194.2C164.1 194.8 163.3 195.1 162.5 195.1ZM3.00039 188C2.30039 188 1.50039 187.6 0.800391 187C0.100391 186.5 0.000390626 185.6 0.000390626 185C0.000390626 184 0.500391 183.2 1.00039 182.7C1.60039 182 2.50039 181.8 3.10039 181.8H10.5004V169.8C10.5004 169.1 10.8004 168.3 11.5004 167.6C12.1004 166.9 13.0004 166.7 13.6004 166.7C14.4004 166.7 15.1004 167 15.7004 167.6C16.5004 168.3 16.6004 169.1 16.6004 169.7V181.7H29.0004C29.8004 181.7 30.5004 182 31.1004 182.6C31.7004 183.2 32.0004 184 32.0004 184.8C32.0004 185.6 31.7004 186.3 31.1004 186.9C30.4004 187.7 29.6004 187.8 29.0004 187.8H3.00039V188ZM69.8004 187.8C69.1004 187.8 68.3004 187.4 67.6004 186.8C67.1004 186.3 66.7004 185.5 66.7004 184.7C66.7004 183.9 67.0004 183.2 67.6004 182.6C68.3004 181.8 69.1004 181.7 69.7004 181.7H80.4004C81.2004 181.7 81.9004 182 82.5004 182.6C83.2004 183.2 83.3004 184.3 83.3004 184.7C83.3004 185.4 83.0004 186.2 82.3004 186.9C81.7004 187.6 80.8004 187.8 80.2004 187.8H69.8004ZM257.6 187C256.9 187 256.1 186.6 255.4 186C254.7 185.4 254.5 184.5 254.5 183.9V163.6C254.5 162.9 254.9 162.1 255.5 161.4C256.1 160.7 257 160.5 257.6 160.5H272.6C273.1 160.6 273.6 160.9 274 161.3C274.5 161.9 274.9 162.8 274.9 163.5C274.9 164.3 274.6 165 274 165.6C273.3 166.4 272.5 166.5 271.9 166.5H260.6V184C260.6 184.7 260.2 185.5 259.6 186.2C259 186.9 258.2 187 257.6 187ZM194.5 178.6C193.7 178.6 193 178.3 192.4 177.7C191.6 177 191.5 176.2 191.5 175.6V144.4C191.5 143.7 191.9 142.9 192.5 142.2C193 141.7 193.8 141.3 194.6 141.3C195.4 141.3 196.1 141.6 196.7 142.2C197.5 142.9 197.6 143.7 197.6 144.3V150.5H206.5V137C206.5 136.6 206.6 136.3 206.7 135.9C206.8 135.6 207 135.3 207.4 134.9C207.7 134.6 208 134.4 208.4 134.2C208.7 134.1 209.1 134 209.5 134H221.9V116.7C221.9 116.3 222 115.9 222.1 115.6C222.2 115.3 222.4 115 222.8 114.6C223.1 114.3 223.4 114.1 223.8 113.9C224.2 113.7 224.6 113.7 224.9 113.7H231V108.7C231 108 231.3 107.2 232 106.5C232.5 106 233.3 105.6 234.1 105.6C234.8 105.6 235.6 105.9 236.3 106.6C237 107.2 237.2 108.1 237.2 108.7V113.7H272C272.8 113.7 273.5 114 274.1 114.6C274.7 115.2 275 115.9 275 116.8C275 117.5 274.6 118.3 274 119C273.4 119.7 272.5 119.9 271.9 119.9H227.9V137.1C227.9 137.5 227.8 137.8 227.7 138.2C227.6 138.5 227.4 138.8 227 139.2C226.7 139.5 226.4 139.7 226 139.9C225.6 140.1 225.2 140.1 224.9 140.1H212.5V153.6C212.5 154 212.4 154.4 212.3 154.7C212.2 155 212 155.3 211.6 155.7C211.3 156 211 156.2 210.6 156.4C210.2 156.6 209.8 156.6 209.5 156.6H197.6V175.5C197.6 176.3 197.3 177 196.7 177.6C196.1 178.3 195.3 178.6 194.5 178.6ZM71.4004 171.9C70.6004 171.9 69.9004 171.6 69.3004 171C68.5004 170.3 68.4004 169.5 68.4004 168.9L68.3004 114.5H51.9004V127.6C51.9004 128.3 51.6004 129.1 50.9004 129.8C50.3004 130.5 49.4004 130.7 48.8004 130.7H6.00039V137.4C6.00039 138.1 5.70039 138.9 5.00039 139.6C4.40039 140.3 3.50039 140.5 2.90039 140.5C2.20039 140.5 1.40039 140.1 0.700391 139.5C0.100391 138.8 0.000390626 138 0.000390626 137.4V127.6C0.000390626 127 0.300391 126.4 1.00039 125.6C1.50039 125.1 2.30039 124.7 3.10039 124.7H29.3004V116.3L20.2004 116.1C19.6004 116.1 18.7004 115.9 18.1004 115.2C17.5004 114.6 17.2004 113.8 17.2004 112.9C17.2004 112.5 17.3004 112.2 17.4004 111.8C17.5004 111.5 17.7004 111.2 18.0004 110.9C18.4004 110.6 18.7004 110.4 19.0004 110.3C19.4004 110.1 19.8004 110.1 20.1004 110.1L32.2004 110.4C32.8004 110.4 33.7004 110.6 34.3004 111.3C34.9004 111.9 35.2004 112.7 35.2004 113.5V124.8H45.9004V111.6C45.9004 110.9 46.2004 110.1 46.9004 109.4C47.5004 108.7 48.4004 108.5 49.0004 108.5H71.6004C72.3004 108.5 73.1004 108.8 73.8004 109.5C74.5004 110.1 74.7004 111 74.7004 111.6V118.1H83.8004C84.6004 118.1 85.3004 118.4 85.9004 119C86.4004 119.5 86.7004 120.3 86.7004 121.1C86.7004 121.9 86.4004 122.6 85.8004 123.2C85.1004 124 84.3004 124.1 83.7004 124.1H74.7004V168.9C74.7004 169.7 74.4004 170.4 73.8004 171C73.0004 171.6 72.2004 171.9 71.4004 171.9ZM226 163.8C225.2 163.8 224.5 163.5 223.9 162.9C223.1 162.2 223 161.4 223 160.8V154.7C223 153.9 223.3 153.2 223.9 152.6C224.4 152 225.2 151.7 226 151.7C226.8 151.7 227.5 152 228.1 152.6C228.7 153.2 229 153.9 229 154.7V160.8C229 161.5 228.6 162.3 228 163C227.6 163.4 226.8 163.8 226 163.8ZM116.1 161.9C115.3 161.9 114.6 161.6 114 161C113.2 160.3 113.1 159.5 113.1 158.9C113.1 158.1 113.4 157.4 114 156.8C114.7 156 115.5 155.9 116.1 155.9H120.8V114.7C120.8 113.9 121.1 113.2 121.7 112.6C122.4 111.8 123.2 111.7 123.8 111.7C124.6 111.7 125.3 112 125.9 112.6C126.7 113.3 126.8 114.1 126.8 114.7V122.6H142.4V112.4C142.4 111.7 142.8 110.9 143.4 110.2C144 109.5 144.9 109.3 145.5 109.3H162.6C163.4 109.3 164.1 109.6 164.7 110.2C165.3 110.8 165.6 111.5 165.5 112.2C165.5 113.1 165.2 113.8 164.6 114.4C163.9 115.2 163.1 115.3 162.5 115.3H148.3V125.5C148.3 126.3 148 127 147.4 127.6C146.7 128.4 145.9 128.5 145.3 128.5H126.7V155.8H149C149.8 155.8 150.5 156.1 151.1 156.7C151.9 157.4 152 158.2 152 158.8C152 159.6 151.7 160.3 151.1 160.9C150.4 161.7 149.6 161.8 149 161.8H116.1V161.9ZM162.6 156.6C161.9 156.6 161.1 156.2 160.4 155.6C159.7 155 159.5 154.1 159.5 153.5V140.6C159.5 139.8 159.8 139.1 160.4 138.5C160.9 137.9 161.7 137.6 162.5 137.6C163.3 137.6 164 137.9 164.6 138.5C165.4 139.2 165.5 140 165.5 140.6V150.5H175.7V112.2C175.7 111.5 176.1 110.7 176.7 110C177.2 109.5 178 109.1 178.8 109.1C179.6 109.1 180.3 109.4 180.9 110C181.6 110.7 181.8 111.6 181.9 112.2V153.4C181.9 154.1 181.5 154.9 180.9 155.6C180.3 156.3 179.4 156.5 178.8 156.5H162.6V156.6ZM257.5 152.7C256.7 152.7 256 152.4 255.4 151.8C254.6 151.1 254.5 150.3 254.5 149.7V137.4H239.3C238.6 137.4 237.8 137.1 237.1 136.4C236.6 135.9 236.2 135.1 236.2 134.3C236.2 133.6 236.6 132.8 237.2 132.1C237.8 131.4 238.7 131.2 239.3 131.2H271.8C272.6 131.2 273.3 131.5 273.9 132.1C274.4 132.6 274.8 133.5 274.8 134.2C274.8 134.9 274.4 135.7 273.8 136.4C273.2 137.1 272.3 137.3 271.7 137.3H260.4V149.6C260.4 150.3 260 151.1 259.4 151.8C258.9 152.6 258.1 152.7 257.5 152.7ZM39.7004 145.8C39.0004 145.8 38.2004 145.4 37.5004 144.8C36.8004 144.2 36.6004 143.3 36.6004 142.7C36.6004 142 36.9004 141.2 37.6004 140.5C38.2004 139.8 39.1004 139.6 39.7004 139.6H50.0004C50.8004 139.6 51.5004 139.9 52.1004 140.5C52.7004 141.1 53.0004 141.8 53.0004 142.6C53.0004 143.3 52.7004 144.1 52.0004 144.8C51.4004 145.5 50.5004 145.7 49.9004 145.7H39.7004V145.8ZM140.2 144.6C139.5 144.6 138.7 144.3 138 143.6C137.5 143.1 137.1 142.3 137.1 141.5C137.1 140.7 137.4 140 138 139.4C138.7 138.6 139.5 138.5 140.1 138.5H144.4C145.2 138.5 145.9 138.8 146.5 139.4C147.1 140 147.4 140.7 147.4 141.5C147.4 142.3 147.1 143 146.5 143.6C145.8 144.4 145 144.5 144.4 144.5H140.2V144.6ZM89.4004 144.3C88.6004 144.3 87.9004 144 87.3004 143.4C86.5004 142.7 86.4004 141.9 86.4004 141.3C86.4004 140.6 86.7004 139.8 87.4004 139.1C88.0004 138.4 88.9004 138.2 89.5004 138.2H110.4C111.2 138.2 111.9 138.5 112.5 139.1C113.1 139.7 113.4 140.4 113.4 141.2C113.4 142 113.1 142.7 112.5 143.3C111.8 144.1 111 144.2 110.4 144.2H89.4004V144.3ZM99.8004 129.4C99.0004 129.4 98.3004 129.1 97.7004 128.5C96.9004 127.8 96.8004 127 96.8004 126.4V99.9H82.4004C81.7004 99.9 80.9004 99.6 80.2004 98.9C79.7004 98.4 79.3004 97.6 79.3004 96.8C79.3004 96.1 79.6004 95.3 80.3004 94.6C80.9004 93.9 81.8004 93.7 82.4004 93.7H99.9004C100.3 93.7 100.6 93.8 101 93.9C101.3 94 101.6 94.2 102 94.6C102.3 94.9 102.5 95.2 102.7 95.6C102.8 95.9 102.9 96.3 102.8 96.5V96.6V126.2C102.8 126.9 102.5 127.7 101.8 128.4C101.4 129.1 100.6 129.4 99.8004 129.4ZM192.7 127.2C192 127.2 191.2 126.9 190.5 126.2C189.8 125.6 189.6 124.7 189.6 124.1V112.2C189.6 111.8 189.7 111.5 189.8 111.1C189.9 110.8 190.1 110.5 190.5 110.1C190.8 109.8 191.1 109.6 191.5 109.4C191.7 109.3 192.2 109.2 192.6 109.2H204.1V94.2H195.6V98.6C195.6 99.4 195.3 100.1 194.7 100.7C194.2 101.3 193.4 101.6 192.6 101.6C191.8 101.6 191.1 101.3 190.5 100.7C189.7 100 189.6 99.2 189.6 98.6V91.1C189.6 90.6 189.7 90.3 189.8 89.9C189.9 89.6 190.1 89.3 190.5 88.9C190.8 88.6 191.1 88.4 191.6 88.2C192 88.1 192.4 88 192.8 88H219C219.8 88 220.5 88.3 221.1 88.9C221.6 89.5 221.9 90.2 221.9 91C221.9 91.7 221.5 92.5 220.9 93.2C220.3 93.9 219.4 94.1 218.8 94.1H210.1V112.2C210.1 113 209.8 113.7 209.2 114.3C208.5 115.1 207.7 115.2 207.1 115.2H195.6V124.1C195.6 124.9 195.3 125.6 194.7 126.2C194.3 126.9 193.5 127.2 192.7 127.2ZM257.5 106.9C256.7 106.9 256 106.6 255.4 106C254.6 105.3 254.5 104.5 254.5 103.9V96.9H236.9C236.2 96.9 235.4 96.6 234.7 95.9C234 95.3 233.8 94.4 233.8 93.8V45.5H239.8V90.6H257.4C257.8 90.6 258.1 90.7 258.5 90.8C258.8 90.9 259.1 91.1 259.5 91.5C259.8 91.8 260 92.1 260.2 92.5C260.4 92.9 260.4 93.3 260.4 93.7V103.9C260.4 104.6 260 105.4 259.4 106.1C258.9 106.7 258.1 106.9 257.5 106.9ZM153.1 100.3C152.3 100.3 151.6 100 151 99.4C150.4 98.9 150.1 98.1 150.1 97.3C150.1 96.5 150.4 95.8 151 95.2C151.7 94.4 152.5 94.3 153.1 94.3H159.5V77.8H140.4V92.7C140.4 93.4 140 94.2 139.4 94.9C138.9 95.4 138.1 95.8 137.3 95.8C136.6 95.8 135.8 95.5 135.1 94.8C134.4 94.2 134.2 93.3 134.2 92.7V75C134.2 74.2 134.5 73.5 135.1 72.9C135.8 72.1 136.6 72 137.2 72H145.5V62.3H129.4C128.6 62.3 127.9 62 127.3 61.4C126.5 60.7 126.4 59.9 126.4 59.3V39.4C126.4 38.6 126.7 37.9 127.3 37.3C128 36.5 128.8 36.4 129.4 36.4H161.5C162.3 36.4 163 36.7 163.6 37.3C164.4 38 164.5 38.8 164.5 39.4V51.3C164.5 52.1 164.2 52.8 163.6 53.4C163.1 54 162.3 54.3 161.5 54.3C161.1 54.3 160.8 54.2 160.5 54.1C160.1 53.9 159.8 53.7 159.5 53.4C159.2 53.1 159 52.8 158.8 52.4C158.7 52 158.6 51.6 158.6 51.2V42.4H132.6V56.1H148.7C149.4 56.1 150.2 56.4 150.9 57.1C151.6 57.7 151.8 58.6 151.8 59.2V71.9H162.6C163.4 71.9 164.1 72.2 164.7 72.8C165.3 73.3 165.6 74.1 165.5 74.8V97.4C165.5 98.2 165.2 98.9 164.6 99.5C163.9 100.3 163.1 100.4 162.5 100.4H153.1V100.3ZM3.00039 99.9C2.30039 99.9 1.50039 99.6 0.800391 98.9C0.100391 98.4 0.000390626 97.5 0.000390626 96.9C0.000390626 96.2 0.300391 95.5 1.00039 94.7C1.60039 94 2.40039 93.9 3.00039 93.9H33.5004V46.8H39.5004V96.9C39.5004 97.7 39.2004 98.4 38.6004 99C37.9004 99.8 37.1004 99.9 36.5004 99.9H3.00039ZM118.3 97.8C117.5 97.8 116.8 97.5 116.2 96.9C115.4 96.2 115.3 95.4 115.3 94.8V82.4C115.3 81.6 115.6 80.9 116.2 80.3C116.7 79.7 117.5 79.4 118.3 79.4C119.1 79.4 119.8 79.7 120.4 80.3C121 80.9 121.3 81.6 121.3 82.5V94.8C121.3 95.5 121 96.3 120.3 97C119.9 97.5 119.1 97.8 118.3 97.8ZM177.9 94.4C177.3 94.4 176.5 94.3 175.8 93.5V93.4H175.7C175.2 92.9 174.8 92.1 174.8 91.3V84.8C174.8 84.1 175.2 83.3 175.8 82.6C176.3 82.1 177.1 81.7 177.9 81.7C178.7 81.7 179.4 82 180 82.6C180.5 83.1 180.8 83.8 181 84.8V91.3C181 91.7 180.9 92 180.8 92.4C180.7 92.7 180.5 93 180.1 93.4C179.8 93.7 179.5 93.9 179.1 94.1C178.8 94.3 178.3 94.4 177.9 94.4ZM60.6004 89C59.8004 89 59.1004 88.7 58.5004 88.1C57.7004 87.4 57.6004 86.6 57.6004 86V0.100024H63.6004V86C63.6004 86.7 63.3004 87.5 62.6004 88.2C62.1004 88.8 61.2004 89 60.6004 89ZM89.3004 83.3C88.6004 83.3 87.8004 83 87.1004 82.3C86.4004 81.7 86.2004 80.8 86.2004 80.2V61.5C86.2004 60.8 86.5004 60 87.2004 59.3C87.8004 58.6 88.7004 58.4 89.3004 58.4H99.5004V39.5C99.5004 38.8 99.8004 38 100.5 37.3C101.1 36.6 102 36.4 102.6 36.4H103.2C103.7 36.5 104.2 36.8 104.6 37.2C105.4 37.9 105.5 38.7 105.5 39.3V58.2H115.5C116.3 58.2 117 58.5 117.6 59.1C118.1 59.7 118.4 60.5 118.5 61.4C118.5 62.1 118.2 62.8 117.6 63.4C116.9 64.2 116.1 64.3 115.5 64.3H92.3004V77.1H102.3C102.7 77.1 103 77.2 103.4 77.3C103.7 77.4 104 77.6 104.4 78C104.7 78.3 104.9 78.6 105.1 79C105.3 79.4 105.3 79.8 105.3 80.1C105.3 80.4 105.2 80.8 105.1 81.2C105 81.5 104.8 81.8 104.4 82.2C104.1 82.5 103.8 82.7 103.4 82.9C103.1 83 102.7 83.1 102.3 83.1H89.3004V83.3ZM170.2 66.9C169.5 66.9 168.7 66.6 168 65.9C167.3 65.3 167.1 64.4 167.1 63.8C167.1 63 167.4 62.3 168 61.7C168.7 60.9 169.5 60.8 170.1 60.8H178V34.8C178 34 178.3 33.3 178.9 32.7C179.4 32.1 180.2 31.8 181 31.8C181.7 31.8 182.5 32.1 183.2 32.8C183.9 33.4 184.1 34.3 184.1 34.9V46.5H205L205.1 52.5H184.4V64C184.4 64.7 184 65.5 183.4 66.2C182.8 66.9 181.9 67.1 181.3 67.1H170.2V66.9ZM88.5004 47.7H88.1004C87.3004 47.7 86.6004 47.4 86.0004 46.8C85.2004 46.1 85.1004 45.3 85.1004 44.7V16.7C85.1004 16 85.4004 15.2 86.1004 14.5C86.7004 13.8 87.6004 13.6 88.2004 13.6H100.7C101.5 13.6 102.2 13.9 102.8 14.5C103.6 15.2 103.7 16 103.7 16.6C103.7 17.4 103.4 18.1 102.8 18.7C102.1 19.5 101.3 19.6 100.7 19.6H91.2004V44.7C91.2004 45.4 90.9004 46.2 90.4004 46.8C89.8004 47.3 89.2004 47.6 88.5004 47.7ZM159 26.9C158.2 26.9 157.5 26.6 156.9 26C156.3 25.5 156 24.7 156 23.9C156 23.1 156.3 22.4 156.9 21.8C157.6 21 158.4 20.9 159 20.9H167.4V6.00002H137.6C136.9 6.00002 136.1 5.70002 135.5 5.20002C134.9 4.50002 134.6 3.80002 134.6 3.10002V2.30002C134.6 2.20002 134.7 2.00002 134.7 1.90002C134.8 1.60002 135 1.30002 135.4 0.900024L135.5 0.800024V0.700024C135.7 0.500024 136 0.300024 136.4 0.100024C136.8 2.44156e-05 137.2 -0.0999756 137.6 -0.0999756H170.4C171.2 -0.0999756 171.9 0.200024 172.5 0.800024C173.3 1.50002 173.4 2.30002 173.4 2.90002V20.7H232.3L232.2 26.7H159V26.9ZM116.5 26.8C115.7 26.8 115 26.5 114.4 25.9C113.6 25.2 113.5 24.4 113.5 23.8V6.00002H87.5004C87.0004 5.90002 86.5004 5.60002 86.0004 5.10002C85.3004 4.50002 85.1004 3.60002 85.1004 3.00002C85.1004 2.20002 85.4004 1.50002 86.0004 0.900024C86.7004 0.100024 87.5004 2.44156e-05 88.1004 2.44156e-05H116.6C117.4 2.44156e-05 118.1 0.300024 118.7 0.900024C119.5 1.60002 119.6 2.40002 119.6 3.00002V20.7H139.6C140.4 20.7 141.1 21 141.7 21.6C142.2 22.1 142.5 22.9 142.5 23.7C142.5 24.4 142.2 25.2 141.5 25.9C140.9 26.6 140 26.8 139.4 26.8H116.5Z" fill="#F72E50"/>
<path d="M20.4004 26.2001V20.2001H26.6004V25.9001H26.5004V26.2001H20.4004Z" fill="#F72E50"/>
<path d="M5.6002 46.4C4.2002 46.4 2.8002 45.8 1.8002 44.8C0.800195 43.8 0.200195 42.4 0.200195 41V5.59998C0.200195 4.89998 0.300195 4.19998 0.600195 3.39998C0.800195 2.79998 1.2002 2.19998 1.8002 1.59998C2.4002 1.09998 3.0002 0.699976 3.6002 0.499976C4.4002 0.199976 5.1002 0.0999756 5.8002 0.0999756H41.0002C41.7002 0.0999756 42.4002 0.199976 43.2002 0.499976C43.8002 0.699976 44.4002 1.09998 45.0002 1.69998C45.6002 2.29998 45.9002 2.79998 46.2002 3.49998V3.59998C46.5002 4.19998 46.6002 4.79998 46.5002 5.59998V5.69998V41.1C46.5002 42.5 45.9002 43.9 44.9002 44.9C43.9002 45.9 42.5002 46.5 41.1002 46.5H5.6002V46.4ZM7.6002 40.1C8.0002 40.4 8.4002 40.4 8.7002 40.4H38.2002C38.3002 40.4 38.7002 40.4 39.2002 40.2L39.3002 40.1L39.4002 40C39.5002 39.9 39.6002 39.8 39.7002 39.8C40.2002 39.4 40.5002 38.9 40.5002 38.1V8.39997C40.5002 7.69998 40.3002 7.19998 39.8002 6.69998C39.7002 6.59998 39.5002 6.39998 39.2002 6.29998C38.9002 5.99998 38.4002 5.99998 38.2002 5.99998H8.7002C8.1002 5.99998 7.6002 6.29998 7.2002 6.59998H7.1002L7.0002 6.69998C6.5002 7.19998 6.3002 7.69998 6.3002 8.39997V38C6.3002 38.6 6.6002 39.1 6.9002 39.5L7.0002 39.6C7.2002 39.7 7.3002 39.9 7.6002 40.1Z" fill="#F72E50"/>
<path d="M20.4004 254.8V248.8H26.6004V254.5H26.5004V254.8H20.4004Z" fill="#F72E50"/>
<path d="M5.6002 274.9C4.2002 274.9 2.8002 274.3 1.8002 273.3C0.800195 272.3 0.200195 270.9 0.200195 269.5V234.2C0.200195 233.5 0.300195 232.8 0.600195 232C0.800195 231.4 1.2002 230.8 1.8002 230.2C2.4002 229.6 2.9002 229.3 3.6002 229C4.3002 228.7 5.1002 228.6 5.8002 228.6H41.0002C41.7002 228.6 42.4002 228.7 43.2002 229C43.8002 229.2 44.4002 229.6 45.0002 230.2C45.6002 230.8 45.9002 231.3 46.2002 232V232.1C46.5002 232.7 46.6002 233.3 46.5002 234.1V234.2V269.6C46.5002 271 45.9002 272.4 44.9002 273.4C43.9002 274.4 42.5002 275 41.1002 275H5.6002V274.9ZM7.6002 268.6C8.0002 268.9 8.4002 268.9 8.7002 268.9H38.2002C38.5002 268.9 38.7002 268.9 39.2002 268.7L39.3002 268.6L39.4002 268.5C39.5002 268.4 39.6002 268.4 39.7002 268.3C40.2002 267.9 40.5002 267.4 40.5002 266.6V237C40.5002 236.3 40.3002 235.8 39.8002 235.3C39.7002 235.2 39.5002 235 39.2002 234.9C38.8002 234.6 38.4002 234.6 38.1002 234.6H8.7002C8.1002 234.6 7.6002 234.9 7.2002 235.2L7.1002 235.3H7.0002C6.5002 235.8 6.3002 236.3 6.3002 237V266.6C6.3002 267.2 6.6002 267.7 6.9002 268.1L7.0002 268.2L7.1002 268.3C7.2002 268.3 7.3002 268.5 7.6002 268.6Z" fill="#F72E50"/>
<path d="M3 80.9C2.2 80.9 1.5 80.6 0.9 80C0.1 79.3 0 78.5 0 77.9V58.5C0 57.7 0.3 56.9 0.8 56.4C1.3 55.8 2.1 55.5 2.9 55.5C3.8 55.5 4.6 55.8 5.1 56.4V56.5H5.2C5.9 57 6 57.9 6 58.5V65.4H13.9C14.7 65.4 15.4 65.7 16 66.3C16.6 66.8 16.9 67.6 16.9 68.4C16.9 69.2 16.6 69.9 16 70.5C15.3 71.3 14.5 71.4 13.9 71.4H6V77.8C6 78.4 5.9 79.2 5.1 79.9H5V80C4.5 80.8 3.6 80.9 3 80.9Z" fill="#F72E50"/>
<path d="M21.2 223.6C20.4 223.6 19.7 223.3 19.1 222.7C18.3 222 18.2 221.2 18.2 220.6V208.3H3C2.2 208.3 1.5 208 0.9 207.4C0.1 206.7 0 205.9 0 205.3C0 204.5 0.3 203.8 0.9 203.2C1.6 202.4 2.4 202.3 3 202.3H65.7C66.5 202.3 67.2 202.6 67.8 203.2C68.6 203.9 68.7 204.7 68.7 205.3C68.7 206.1 68.4 206.8 67.8 207.4C67.1 208.2 66.3 208.3 65.7 208.3H24.3V220.6C24.3 221.4 24 222.1 23.4 222.7C22.7 223.4 21.8 223.6 21.2 223.6Z" fill="#F72E50"/>
<path d="M61.6002 274.9C61.0002 274.9 60.2002 274.7 59.5002 274C58.9002 273.4 58.5002 272.6 58.5002 271.8V256.6H46.3002C45.7002 256.6 44.9002 256.4 44.2002 255.7C43.6002 255.1 43.2002 254.3 43.2002 253.5C43.2002 252.9 43.3002 252.1 44.1002 251.4C44.7002 250.8 45.5002 250.4 46.3002 250.4H58.6002V219C58.6002 218.4 58.7002 217.6 59.5002 216.9C60.1002 216.3 60.9002 215.9 61.7002 215.9C62.3002 215.9 63.1002 216.1 63.8002 216.8C64.4002 217.4 64.8002 218.2 64.8002 219V271.7C64.8002 272.3 64.7002 273.1 63.9002 273.8C63.1002 274.6 62.4002 274.9 61.6002 274.9Z" fill="#F72E50"/>
<path d="M254.901 20.2H248.801V26.2H254.901V20.2Z" fill="#F72E50"/>
<path d="M233.9 46.4C232.5 46.4 231.1 45.8 230.1 44.8C229.1 43.8 228.5 42.4 228.5 41V5.6C228.5 4.9 228.6 4.2 228.9 3.4C229.1 2.8 229.5 2.2 230.1 1.6C230.7 1 231.2 0.7 231.9 0.4C232.6 0.1 233.4 0 234.1 0H269.4C270.1 0 270.8 0.1 271.6 0.4C272.2 0.6 272.8 1 273.4 1.6C274 2.2 274.3 2.7 274.6 3.4C274.9 4.1 275 4.7 274.9 5.3V5.4V40.9C274.9 42.3 274.3 43.7 273.3 44.7C272.3 45.7 270.9 46.3 269.5 46.3H233.9V46.4ZM236 40.1C236.4 40.4 236.8 40.4 237.1 40.4H266.6C266.9 40.4 267.1 40.4 267.6 40.2L267.7 40.1L267.8 40C267.9 39.9 268 39.9 268.1 39.8C268.6 39.4 268.9 38.9 268.9 38.1V8.4C268.9 7.7 268.7 7.2 268.2 6.7C268.1 6.6 267.9 6.4 267.6 6.3C267.2 6 266.8 6 266.5 6H237C236.4 6 235.9 6.3 235.5 6.6L235.4 6.7L235.3 6.8C234.8 7.3 234.6 7.8 234.6 8.5V38C234.6 38.6 234.9 39.1 235.2 39.5L235.3 39.6L235.4 39.7C235.5 39.7 235.7 39.9 236 40.1Z" fill="#F72E50"/>
<path d="M271.901 80.9C271.301 80.9 270.501 80.7999 269.801 80C269.201 79.4 268.801 78.6 268.801 77.8V71.4H250.901C250.301 71.4 249.501 71.2999 248.801 70.5C248.201 69.9 247.801 69.1 247.801 68.3C247.801 67.5 248.101 66.6999 248.701 66.1999C249.301 65.5999 250.101 65.1999 250.901 65.1999H268.801V58.2999C268.801 57.6999 269.001 56.9 269.701 56.2H269.801V56.0999C270.301 55.4999 271.001 55.2 272.001 55.2C272.801 55.2 273.601 55.4999 274.101 56.0999C274.601 56.5999 275.001 57.4999 275.001 58.2999V77.6999C275.001 78.2999 274.801 79.1 274.101 79.8C273.401 80.6 272.601 80.9 271.901 80.9Z" fill="#F72E50"/>
<path d="M197.1 75.3C196.4 75.3 195.6 75 194.9 74.3C194.4 73.8 194 73 194 72.2C194 71.5 194.4 70.7 195 70C195.6 69.3 196.5 69.1 197.1 69.1H204.5V38.1C204.5 37.4 204.9 36.6 205.5 35.9C206.1 35.2 207 35 207.6 35C208.4 35 209.1 35.3 209.7 35.9C210.5 36.6 210.6 37.4 210.6 38V69H223C223.8 69 224.5 69.3 225.1 69.9C225.6 70.5 226 71.4 226 72.1C226 72.9 225.7 73.6 225.1 74.2C224.4 75 223.6 75.1 223 75.1H197.1V75.3Z" fill="#F72E50"/>
</g>
<defs>
<clipPath id="clip0_217_129">
<rect width="275" height="275" fill="white"/>
</clipPath>
</defs>
</svg>
