<svg width="13" height="13" viewBox="0 0 13 13" fill="none" xmlns="http://www.w3.org/2000/svg">
<g clip-path="url(#clip0_8119_822)">
<path d="M0.932344 12.0677C0.970073 12.1054 1.01488 12.1354 1.0642 12.1559C1.11351 12.1763 1.16638 12.1868 1.21977 12.1868C1.27315 12.1868 1.32602 12.1763 1.37533 12.1559C1.42465 12.1354 1.46946 12.1054 1.50719 12.0677L6.5 7.07486L11.4948 12.0677C11.5711 12.1439 11.6745 12.1867 11.7823 12.1867C11.8901 12.1867 11.9935 12.1439 12.0697 12.0677C12.1459 11.9914 12.1887 11.8881 12.1887 11.7803C12.1887 11.6725 12.1459 11.5691 12.0697 11.4928L7.07484 6.50002L12.0677 1.50518C12.1439 1.42895 12.1867 1.32556 12.1867 1.21776C12.1867 1.10995 12.1439 1.00656 12.0677 0.930333C11.9914 0.854104 11.888 0.811279 11.7802 0.811279C11.6724 0.811279 11.569 0.854104 11.4928 0.930333L6.5 5.92518L1.50516 0.932365C1.42744 0.86581 1.32747 0.831033 1.22523 0.834982C1.12298 0.838931 1.026 0.881316 0.953646 0.953667C0.881295 1.02602 0.83891 1.12301 0.834961 1.22525C0.831012 1.32749 0.865789 1.42746 0.932344 1.50518L5.92516 6.50002L0.932344 11.4949C0.856679 11.571 0.814209 11.6739 0.814209 11.7813C0.814209 11.8886 0.856679 11.9916 0.932344 12.0677Z" fill="#C73E51"/>
</g>
<defs>
<clipPath id="clip0_8119_822">
<rect width="13" height="13" fill="white"/>
</clipPath>
</defs>
</svg>
