<svg width="19" height="19" viewBox="0 0 19 19" fill="none" xmlns="http://www.w3.org/2000/svg">
<path d="M9.09524 1.80957H3.08163C1.93197 1.80957 1 2.74154 1 3.8912V15.9184C1 17.0681 1.93197 18 3.08163 18H15.1088C16.2585 18 17.1905 17.0681 17.1905 15.9184V9.90481" stroke="#F72E50" stroke-linecap="round"/>
<path d="M9.50512 7.94462C9.5899 7.5596 9.7831 7.20687 10.0619 6.9281L15.5737 1.41628C16.1287 0.861238 17.0286 0.86124 17.5837 1.41628C18.1387 1.97132 18.1387 2.87123 17.5837 3.42627L12.0719 8.93809C11.7931 9.21688 11.4404 9.41006 11.0553 9.49487L9.2041 9.90261C9.14023 9.91666 9.0833 9.85975 9.09738 9.79588L9.50512 7.94462Z" stroke="#F72E50"/>
</svg>
