<svg width="15" height="14" viewBox="0 0 15 14" fill="none" xmlns="http://www.w3.org/2000/svg">
<path d="M7.19048 1.11914H2.59184C1.71268 1.11914 1 1.83182 1 2.71098V11.9083C1 12.7874 1.71268 13.5001 2.59184 13.5001H11.7891C12.6683 13.5001 13.381 12.7874 13.381 11.9083V7.30962" stroke="#F08080" stroke-linecap="round"/>
<path d="M7.50394 5.81059C7.56878 5.51617 7.71652 5.24643 7.92971 5.03326L12.1446 0.818333C12.5691 0.393888 13.2572 0.39389 13.6817 0.818333C14.1061 1.24278 14.1061 1.93094 13.6817 2.35539L9.46676 6.57031C9.25357 6.7835 8.98385 6.93122 8.68941 6.99607L7.27376 7.30788C7.22492 7.31863 7.18138 7.2751 7.19214 7.22626L7.50394 5.81059Z" stroke="#F08080"/>
</svg>
