<svg width="20" height="20" viewBox="0 0 20 20" fill="none" xmlns="http://www.w3.org/2000/svg">
<path opacity="0.4" d="M12.9 2.5H6.26666C3.39166 2.5 1.66666 4.21667 1.66666 7.1V13.725C1.66666 16.6167 3.39166 18.3333 6.26666 18.3333H12.8917C15.775 18.3333 17.4917 16.6167 17.4917 13.7333V7.1C17.5 4.21667 15.775 2.5 12.9 2.5Z" fill="#4B2D5C"/>
<path d="M17.5167 2.48324C16.025 0.983238 14.5667 0.949904 13.0333 2.48324L12.0917 3.41657C12.0083 3.4999 11.9833 3.61657 12.0167 3.7249C12.6 5.76657 14.2333 7.3999 16.275 7.98324C16.3 7.99157 16.3417 7.99157 16.3667 7.99157C16.45 7.99157 16.5333 7.95824 16.5917 7.8999L17.5167 6.96657C18.275 6.20824 18.65 5.48324 18.65 4.74157C18.65 3.99157 18.275 3.2499 17.5167 2.48324Z" fill="#4B2D5C"/>
<path d="M14.8833 8.68353C14.6583 8.5752 14.4417 8.46686 14.2417 8.34186C14.075 8.24186 13.9083 8.13353 13.75 8.01686C13.6167 7.93353 13.4667 7.80853 13.3167 7.68353C13.3 7.6752 13.25 7.63353 13.1833 7.56686C12.925 7.35853 12.65 7.0752 12.3917 6.76686C12.375 6.7502 12.325 6.7002 12.2833 6.6252C12.2 6.53353 12.075 6.3752 11.9667 6.2002C11.875 6.08353 11.7667 5.91686 11.6667 5.74186C11.5417 5.53353 11.4333 5.3252 11.3333 5.10853C11.225 4.8752 11.1417 4.65853 11.0667 4.4502L6.58334 8.93353C6.29167 9.2252 6.00834 9.7752 5.95 10.1835L5.59167 12.6669C5.51667 13.1919 5.65834 13.6835 5.98334 14.0085C6.25834 14.2835 6.63334 14.4252 7.05 14.4252C7.14167 14.4252 7.23334 14.4169 7.325 14.4085L9.8 14.0585C10.2083 14.0002 10.7583 13.7252 11.05 13.4252L15.5333 8.94186C15.325 8.8752 15.1167 8.78353 14.8833 8.68353Z" fill="#4B2D5C"/>
</svg>
