<svg width="32" height="32" viewBox="0 0 32 32" fill="none" xmlns="http://www.w3.org/2000/svg">
<path opacity="0.1" d="M24.5314 18.1554C23.8684 18.8026 23.4895 19.734 23.5842 20.7285C23.7263 22.4334 25.2891 23.6804 26.994 23.6804H29.9933V25.559C29.9933 28.8267 27.3255 31.4945 24.0578 31.4945H5.93552C2.66783 31.4945 0 28.8267 0 25.559V14.9351C0 11.6674 2.66783 8.99951 5.93552 8.99951H24.0578C27.3255 8.99951 29.9933 11.6674 29.9933 14.9351V17.2082H26.8046C25.9206 17.2082 25.1155 17.5555 24.5314 18.1554Z" fill="#C73E51"/>
<path d="M19.4957 3.00061V8.99925H5.93552C2.66783 8.99925 0 11.6671 0 14.9348V9.14137C0 7.26284 1.15238 5.58946 2.90462 4.92645L15.4387 0.190659C17.3961 -0.535495 19.4957 0.901074 19.4957 3.00061Z" fill="#C73E51"/>
<path d="M31.6666 18.8181V22.0701C31.6666 22.9383 30.9721 23.6486 30.088 23.6802H26.994C25.2891 23.6802 23.7263 22.4331 23.5842 20.7282C23.4895 19.7337 23.8684 18.8024 24.5314 18.1551C25.1155 17.5553 25.9205 17.208 26.8046 17.208H30.088C30.9721 17.2396 31.6666 17.9499 31.6666 18.8181Z" fill="#C73E51"/>
<path d="M18.1538 16.8923H7.10363C6.4564 16.8923 5.91968 16.3556 5.91968 15.7084C5.91968 15.0611 6.4564 14.5244 7.10363 14.5244H18.1538C18.801 14.5244 19.3377 15.0611 19.3377 15.7084C19.3377 16.3556 18.801 16.8923 18.1538 16.8923Z" fill="#C73E51"/>
</svg>
