<svg width="32" height="32" viewBox="0 0 32 32" fill="none" xmlns="http://www.w3.org/2000/svg">
<path opacity="0.4" d="M24.0533 18.0666C23.4933 18.6132 23.1733 19.3999 23.2533 20.2399C23.3733 21.6799 24.6933 22.7332 26.1333 22.7332H28.6666V24.3199C28.6666 27.0799 26.4133 29.3333 23.6533 29.3333H8.34665C5.58665 29.3333 3.33331 27.0799 3.33331 24.3199V15.3466C3.33331 12.5866 5.58665 10.3333 8.34665 10.3333H23.6533C26.4133 10.3333 28.6666 12.5866 28.6666 15.3466V17.2666H25.9733C25.2266 17.2666 24.5466 17.5599 24.0533 18.0666Z" fill="#F08080"/>
<path d="M19.8 5.26683V10.3335H8.34665C5.58665 10.3335 3.33331 12.5868 3.33331 15.3468V10.4535C3.33331 8.86685 4.30665 7.45346 5.78665 6.89346L16.3733 2.89346C18.0266 2.28013 19.8 3.4935 19.8 5.26683Z" fill="#F08080"/>
<path d="M30.08 18.6265V21.3733C30.08 22.1066 29.4934 22.7066 28.7467 22.7332H26.1334C24.6934 22.7332 23.3734 21.6799 23.2534 20.2399C23.1734 19.3999 23.4934 18.6132 24.0534 18.0666C24.5467 17.5599 25.2267 17.2666 25.9734 17.2666H28.7467C29.4934 17.2933 30.08 17.8932 30.08 18.6265Z" fill="#F08080"/>
<path d="M18.6666 17H9.33331C8.78665 17 8.33331 16.5467 8.33331 16C8.33331 15.4533 8.78665 15 9.33331 15H18.6666C19.2133 15 19.6666 15.4533 19.6666 16C19.6666 16.5467 19.2133 17 18.6666 17Z" fill="#F08080"/>
</svg>
