<svg width="24" height="24" viewBox="0 0 24 24" fill="none" xmlns="http://www.w3.org/2000/svg">
<g clip-path="url(#clip0_368_45)">
<path d="M23.5 12C23.5 5.64873 18.3513 0.5 12 0.5C5.64873 0.5 0.5 5.64873 0.5 12C0.5 18.3513 5.64873 23.5 12 23.5C18.3513 23.5 23.5 18.3513 23.5 12Z" fill="white" stroke="#C73E51"/>
<path d="M10.3396 8.46199H10.2396V8.56199V11.018V11.118H10.3396H14.1566C14.4238 11.118 14.6027 11.1836 14.7139 11.296C14.7725 11.3551 14.8193 11.4282 14.8504 11.5105C14.8815 11.5928 14.896 11.6819 14.8927 11.7715V11.7785C14.8957 11.869 14.8812 11.959 14.8505 12.0425C14.8199 12.1259 14.7738 12.2006 14.7159 12.2619C14.6056 12.378 14.4264 12.4459 14.1566 12.4459H10.3396H10.2396V12.5459V15.3902V15.4902H10.3396H14.6264C14.8993 15.4902 15.0873 15.5599 15.2088 15.6823C15.3335 15.8081 15.3997 15.9776 15.3997 16.2019V16.2051C15.4028 16.3 15.387 16.3942 15.3539 16.4812C15.3207 16.5681 15.271 16.6454 15.2089 16.7079C15.0878 16.8306 14.8996 16.9004 14.6265 16.9001H9.62751C9.2401 16.9001 8.98589 16.8054 8.83759 16.64C8.68659 16.4715 8.6001 16.1857 8.6001 15.7586V8.2416C8.6001 7.95858 8.63839 7.73554 8.70969 7.56776L8.71012 7.56675C8.77539 7.40836 8.89019 7.28446 9.03024 7.21619L9.03156 7.21553C9.18002 7.14041 9.3768 7.0998 9.62739 7.1001H14.4839C14.761 7.1001 14.948 7.16755 15.0649 7.28387C15.1232 7.34805 15.17 7.42471 15.2021 7.50972C15.2345 7.59546 15.2513 7.6877 15.2513 7.78105C15.2513 7.8744 15.2345 7.96663 15.2021 8.05237C15.1699 8.13741 15.1232 8.2141 15.0649 8.2783C14.9486 8.39447 14.7617 8.46199 14.4839 8.46199H10.3396Z" fill="#C73E51" stroke="white" stroke-width="0.2"/>
</g>
<defs>
<clipPath id="clip0_368_45">
<rect width="24" height="24" fill="white"/>
</clipPath>
</defs>
</svg>
