<svg width="26" height="26" viewBox="0 0 26 26" fill="none" xmlns="http://www.w3.org/2000/svg">
<path opacity="0.5" d="M17.6254 3.04736C21.1945 3.04754 24.098 5.97165 24.098 9.55225C24.0979 13.1042 22.5311 16.0809 20.4652 18.3423C18.3984 20.6046 15.8372 22.1449 13.8636 22.8218L13.8617 22.8228C13.6155 22.9113 13.3154 22.9516 13.0004 22.9517C12.6851 22.9517 12.3844 22.9114 12.1381 22.8228L12.1371 22.8218L11.7601 22.6851C9.84496 21.9496 7.47235 20.4607 5.53455 18.3384C3.46872 16.0757 1.90183 13.0989 1.90173 9.55225C1.90173 5.96123 4.80601 3.04736 8.37537 3.04736C10.1092 3.04745 11.7293 3.72503 12.9291 4.93506L13.0004 5.00635L13.0707 4.93506C14.2705 3.72495 15.8914 3.04736 17.6254 3.04736Z" fill="#F08080" stroke="white" stroke-width="0.2"/>
</svg>
