<svg width="26" height="26" viewBox="0 0 26 26" fill="none" xmlns="http://www.w3.org/2000/svg">
<path d="M17.6254 3.04761C21.1945 3.04778 24.098 5.9719 24.098 9.55249C24.0979 13.1045 22.5311 16.0812 20.4652 18.3425C18.3984 20.6049 15.8372 22.1452 13.8636 22.822L13.8617 22.823C13.6155 22.9116 13.3154 22.9519 13.0004 22.9519C12.6851 22.9519 12.3844 22.9117 12.1381 22.823L12.1371 22.822L11.7601 22.6853C9.84496 21.9499 7.47235 20.461 5.53455 18.3386C3.46872 16.0759 1.90183 13.0992 1.90173 9.55249C1.90173 5.96147 4.80601 3.04761 8.37537 3.04761C10.1092 3.04769 11.7293 3.72527 12.9291 4.9353L13.0004 5.00659L13.0707 4.9353C14.2705 3.7252 15.8914 3.04761 17.6254 3.04761ZM17.6351 4.41089C16.0202 4.41099 14.5217 5.16501 13.5551 6.47144V6.47241C13.4313 6.64015 13.2238 6.72827 13.0101 6.72827C12.7966 6.72818 12.5899 6.63997 12.4662 6.47241L12.4652 6.47144L12.2748 6.2312C11.2919 5.06463 9.88949 4.41098 8.37537 4.41089C5.55918 4.41089 3.26501 6.71655 3.26501 9.55249C3.26512 13.1443 4.9929 15.9364 7.01697 17.9304C9.03994 19.9233 11.3658 21.1267 12.5824 21.5427H12.5834C12.6923 21.579 12.8532 21.5945 13.0052 21.5945C13.1573 21.5945 13.3182 21.579 13.4271 21.5427H13.4281C14.6393 21.1267 16.9653 19.9259 18.9896 17.9343C21.015 15.9416 22.7454 13.1495 22.7455 9.55249C22.7455 6.71655 20.4513 4.41089 17.6351 4.41089Z" fill="#A0A0A0" stroke="white" stroke-width="0.2"/>
</svg>
