<svg width="26" height="26" viewBox="0 0 26 26" fill="none" xmlns="http://www.w3.org/2000/svg">
<path d="M17.6252 3.04749C21.1944 3.04766 24.0979 5.97177 24.0979 9.55237C24.0978 13.1044 22.531 16.081 20.4651 18.3424C18.3983 20.6048 15.8371 22.145 13.8635 22.8219L13.8616 22.8229C13.6154 22.9114 13.3153 22.9518 13.0002 22.9518C12.6849 22.9518 12.3843 22.9115 12.1379 22.8229L12.137 22.8219L11.76 22.6852C9.84484 21.9498 7.47223 20.4609 5.53442 18.3385C3.4686 16.0758 1.90171 13.099 1.90161 9.55237C1.90161 5.96135 4.80588 3.04749 8.37524 3.04749C10.109 3.04757 11.7292 3.72515 12.929 4.93518L13.0002 5.00647L13.0706 4.93518C14.2704 3.72508 15.8913 3.04749 17.6252 3.04749ZM17.635 4.41077C16.0201 4.41087 14.5216 5.16489 13.5549 6.47131V6.47229C13.4312 6.64003 13.2237 6.72815 13.01 6.72815C12.7965 6.72806 12.5897 6.63985 12.4661 6.47229L12.4651 6.47131L12.2747 6.23108C11.2917 5.06451 9.88937 4.41086 8.37524 4.41077C5.55906 4.41077 3.26489 6.71643 3.26489 9.55237C3.265 13.1442 4.99277 15.9363 7.01685 17.9303C9.03982 19.9232 11.3657 21.1265 12.5823 21.5426H12.5833C12.6922 21.5789 12.8531 21.5944 13.0051 21.5944C13.1572 21.5944 13.3181 21.5789 13.427 21.5426H13.428C14.6392 21.1266 16.9652 19.9258 18.9895 17.9342C21.0149 15.9415 22.7453 13.1494 22.7454 9.55237C22.7454 6.71643 20.4512 4.41077 17.635 4.41077Z" fill="#A0A0A0" stroke="white" stroke-width="0.2"/>
</svg>
