<svg width="20" height="20" viewBox="0 0 20 20" fill="none" xmlns="http://www.w3.org/2000/svg">
<path d="M7.20914 8.83723C5.79519 8.83723 4.651 7.69304 4.651 6.27909C4.651 4.86513 5.79519 3.72095 7.20914 3.72095C8.62309 3.72095 9.76728 4.86513 9.76728 6.27909C9.76728 7.69304 8.62309 8.83723 7.20914 8.83723ZM7.20914 5.1163C6.56728 5.1163 6.04635 5.63723 6.04635 6.27909C6.04635 6.92095 6.56728 7.44188 7.20914 7.44188C7.851 7.44188 8.37193 6.92095 8.37193 6.27909C8.37193 5.63723 7.851 5.1163 7.20914 5.1163Z" fill="#F72E50"/>
<path d="M12.7907 20H7.2093C2.15814 20 0 17.8419 0 12.7907V7.2093C0 2.15814 2.15814 0 7.2093 0H10.9302C11.3116 0 11.6279 0.316279 11.6279 0.697674C11.6279 1.07907 11.3116 1.39535 10.9302 1.39535H7.2093C2.92093 1.39535 1.39535 2.92093 1.39535 7.2093V12.7907C1.39535 17.0791 2.92093 18.6047 7.2093 18.6047H12.7907C17.0791 18.6047 18.6047 17.0791 18.6047 12.7907V8.13953C18.6047 7.75814 18.9209 7.44186 19.3023 7.44186C19.6837 7.44186 20 7.75814 20 8.13953V12.7907C20 17.8419 17.8419 20 12.7907 20Z" fill="#F72E50"/>
<path d="M15.5813 6.97661C15.1999 6.97661 14.8837 6.66033 14.8837 6.27893V0.697538C14.8837 0.418468 15.0511 0.158003 15.3116 0.0556778C15.572 -0.0466478 15.8697 0.00916626 16.0744 0.204515L17.9348 2.06498C18.2046 2.33475 18.2046 2.78126 17.9348 3.05103C17.6651 3.32079 17.2186 3.32079 16.9488 3.05103L16.279 2.38126V6.27893C16.279 6.66033 15.9627 6.97661 15.5813 6.97661Z" fill="#F72E50"/>
<path d="M13.7209 3.25569C13.5441 3.25569 13.3674 3.19057 13.2278 3.05103C12.9581 2.78127 12.9581 2.33476 13.2278 2.06499L15.0883 0.204523C15.3581 -0.0652446 15.8046 -0.0652446 16.0744 0.204523C16.3441 0.47429 16.3441 0.920802 16.0744 1.19057L14.2139 3.05103C14.0744 3.19057 13.8976 3.25569 13.7209 3.25569Z" fill="#F72E50"/>
<path d="M1.32103 17.1628C1.09777 17.1628 0.874515 17.0512 0.744283 16.8559C0.530329 16.5396 0.61405 16.1024 0.930329 15.8884L5.51638 12.8094C6.52103 12.1396 7.90707 12.214 8.8187 12.9861L9.12568 13.2559C9.59079 13.6559 10.3815 13.6559 10.8373 13.2559L14.7071 9.93493C15.6931 9.08842 17.2466 9.08842 18.242 9.93493L19.7582 11.2373C20.0466 11.4884 20.0838 11.9256 19.8327 12.2233C19.5815 12.5117 19.135 12.5489 18.8466 12.2977L17.3303 10.9954C16.8652 10.5954 16.0838 10.5954 15.6187 10.9954L11.7489 14.3163C10.7629 15.1628 9.2094 15.1628 8.21405 14.3163L7.90707 14.0466C7.47917 13.6838 6.77219 13.6466 6.29777 13.9721L1.72103 17.0512C1.59079 17.1256 1.45126 17.1628 1.32103 17.1628Z" fill="#F72E50"/>
</svg>
