<svg width="22" height="22" viewBox="0 0 22 22" fill="none" xmlns="http://www.w3.org/2000/svg">
<path d="M20.1667 12.7418V14.8409C20.1667 18.1776 18.1775 20.1668 14.8408 20.1668H7.15918C4.82168 20.1668 3.13501 19.1859 2.34668 17.4443L2.44751 17.3709L6.95751 14.3459C7.69085 13.8509 8.72668 13.9059 9.37751 14.4743L9.68918 14.7309C10.4042 15.3451 11.5592 15.3451 12.2742 14.7309L16.0875 11.4584C16.8025 10.8443 17.9575 10.8443 18.6725 11.4584L20.1667 12.7418Z" fill="#4B2D5C"/>
<path opacity="0.4" d="M19.2225 7.33325H16.5275C15.3634 7.33325 14.6667 6.63659 14.6667 5.47242V2.77742C14.6667 2.41075 14.74 2.09909 14.8684 1.83325C14.8592 1.83325 14.85 1.83325 14.8409 1.83325H7.15921C3.82254 1.83325 1.83337 3.82242 1.83337 7.15909V14.8408C1.83337 15.8399 2.00754 16.7108 2.34671 17.4441L2.44754 17.3708L6.95754 14.3458C7.69087 13.8508 8.72671 13.9058 9.37754 14.4741L9.68921 14.7308C10.4042 15.3449 11.5592 15.3449 12.2742 14.7308L16.0875 11.4583C16.8025 10.8441 17.9575 10.8441 18.6725 11.4583L20.1667 12.7416V7.15909C20.1667 7.14992 20.1667 7.14075 20.1667 7.13159C19.9009 7.25992 19.5892 7.33325 19.2225 7.33325Z" fill="#4B2D5C"/>
<path d="M8.25003 9.51519C9.45493 9.51519 10.4317 8.53842 10.4317 7.33352C10.4317 6.12862 9.45493 5.15186 8.25003 5.15186C7.04512 5.15186 6.06836 6.12862 6.06836 7.33352C6.06836 8.53842 7.04512 9.51519 8.25003 9.51519Z" fill="#4B2D5C"/>
<path d="M19.2225 0.916748H16.5275C15.3633 0.916748 14.6666 1.61341 14.6666 2.77758V5.47258C14.6666 6.63675 15.3633 7.33341 16.5275 7.33341H19.2225C20.3866 7.33341 21.0833 6.63675 21.0833 5.47258V2.77758C21.0833 1.61341 20.3866 0.916748 19.2225 0.916748ZM19.4241 3.95091C19.3141 4.06091 19.1675 4.11591 19.0208 4.11591C18.8741 4.11591 18.7275 4.06091 18.6175 3.95091L18.4525 3.78591V5.83925C18.4525 6.16008 18.1958 6.41675 17.875 6.41675C17.5541 6.41675 17.2975 6.16008 17.2975 5.83925V3.78591L17.1325 3.95091C16.9125 4.17091 16.5458 4.17091 16.3258 3.95091C16.1058 3.73091 16.1058 3.36425 16.3258 3.14425L17.4716 1.99841C17.5175 1.95258 17.5816 1.91591 17.6458 1.88841C17.6641 1.87925 17.6825 1.87925 17.7008 1.87008C17.7466 1.85175 17.7925 1.84258 17.8475 1.84258C17.8658 1.84258 17.8841 1.84258 17.9025 1.84258C17.9666 1.84258 18.0216 1.85175 18.0858 1.87925C18.095 1.87925 18.095 1.87925 18.1041 1.87925C18.1683 1.90675 18.2233 1.94341 18.2691 1.98925C18.2783 1.99841 18.2783 1.99841 18.2875 1.99841L19.4333 3.14425C19.6533 3.36425 19.6533 3.73091 19.4241 3.95091Z" fill="#4B2D5C"/>
</svg>
