<svg width="25" height="25" viewBox="0 0 25 25" fill="none" xmlns="http://www.w3.org/2000/svg">
<path d="M22.9166 14.4793V16.8647C22.9166 20.6564 20.6562 22.9168 16.8645 22.9168H8.13538C5.47913 22.9168 3.56246 21.8022 2.66663 19.8231L2.78121 19.7397L7.90621 16.3022C8.73954 15.7397 9.91663 15.8022 10.6562 16.4481L11.0104 16.7397C11.8229 17.4377 13.1354 17.4377 13.9479 16.7397L18.2812 13.021C19.0937 12.3231 20.4062 12.3231 21.2187 13.021L22.9166 14.4793Z" fill="#C73E51"/>
<path opacity="0.4" d="M21.8438 8.33325H18.7813C17.4584 8.33325 16.6667 7.54158 16.6667 6.21867V3.15617C16.6667 2.7395 16.75 2.38534 16.8959 2.08325C16.8855 2.08325 16.875 2.08325 16.8646 2.08325H8.13546C4.34379 2.08325 2.08337 4.34367 2.08337 8.13533V16.8645C2.08337 17.9999 2.28129 18.9895 2.66671 19.8228L2.78129 19.7395L7.90629 16.302C8.73962 15.7395 9.91671 15.802 10.6563 16.4478L11.0105 16.7395C11.823 17.4374 13.1355 17.4374 13.948 16.7395L18.2813 13.0208C19.0938 12.3228 20.4063 12.3228 21.2188 13.0208L22.9167 14.4791V8.13533C22.9167 8.12492 22.9167 8.1145 22.9167 8.10409C22.6146 8.24992 22.2605 8.33325 21.8438 8.33325Z" fill="#C73E51"/>
<path d="M9.37504 10.8128C10.7442 10.8128 11.8542 9.70287 11.8542 8.33366C11.8542 6.96445 10.7442 5.85449 9.37504 5.85449C8.00583 5.85449 6.89587 6.96445 6.89587 8.33366C6.89587 9.70287 8.00583 10.8128 9.37504 10.8128Z" fill="#C73E51"/>
<path d="M21.8437 1.04175H18.7812C17.4583 1.04175 16.6666 1.83341 16.6666 3.15633V6.21883C16.6666 7.54175 17.4583 8.33341 18.7812 8.33341H21.8437C23.1666 8.33341 23.9583 7.54175 23.9583 6.21883V3.15633C23.9583 1.83341 23.1666 1.04175 21.8437 1.04175ZM22.0729 4.48966C21.9479 4.61466 21.7812 4.67716 21.6145 4.67716C21.4479 4.67716 21.2812 4.61466 21.1562 4.48966L20.9687 4.30216V6.6355C20.9687 7.00008 20.677 7.29175 20.3125 7.29175C19.9479 7.29175 19.6562 7.00008 19.6562 6.6355V4.30216L19.4687 4.48966C19.2187 4.73966 18.802 4.73966 18.552 4.48966C18.302 4.23966 18.302 3.823 18.552 3.573L19.8541 2.27091C19.9062 2.21883 19.9791 2.17716 20.052 2.14591C20.0729 2.1355 20.0937 2.1355 20.1145 2.12508C20.1666 2.10425 20.2187 2.09383 20.2812 2.09383C20.302 2.09383 20.3229 2.09383 20.3437 2.09383C20.4166 2.09383 20.4791 2.10425 20.552 2.1355C20.5625 2.1355 20.5625 2.1355 20.5729 2.1355C20.6458 2.16675 20.7083 2.20841 20.7604 2.2605C20.7708 2.27091 20.7708 2.27091 20.7812 2.27091L22.0833 3.573C22.3333 3.823 22.3333 4.23966 22.0729 4.48966Z" fill="#C73E51"/>
</svg>
