<svg width="29" height="29" viewBox="0 0 29 29" fill="none" xmlns="http://www.w3.org/2000/svg">
<path d="M28.2048 23.1202C28.2048 23.4005 28.0934 23.6694 27.8952 23.8677C27.6969 24.0659 27.428 24.1773 27.1476 24.1773H24.1722V27.1525C24.1722 27.4329 24.0608 27.7018 23.8626 27.9001C23.6643 28.0983 23.3954 28.2097 23.1151 28.2097C22.8347 28.2097 22.5658 28.0983 22.3675 27.9001C22.1693 27.7018 22.0579 27.4329 22.0579 27.1525V24.1773H19.0806C18.8002 24.1773 18.5313 24.0659 18.3331 23.8677C18.1348 23.6694 18.0234 23.4005 18.0234 23.1202C18.0234 22.8398 18.1348 22.5709 18.3331 22.3727C18.5313 22.1744 18.8002 22.063 19.0806 22.063H22.0579V19.0867C22.0579 18.8064 22.1693 18.5375 22.3675 18.3392C22.5658 18.141 22.8347 18.0296 23.1151 18.0296C23.3954 18.0296 23.6643 18.141 23.8626 18.3392C24.0608 18.5375 24.1722 18.8064 24.1722 19.0867V22.063H27.1476C27.428 22.063 27.6969 22.1744 27.8952 22.3727C28.0934 22.5709 28.2048 22.8398 28.2048 23.1202ZM26.2808 26.9995C26.5341 26.7886 26.7676 26.555 26.9785 26.3018H26.2808V26.9995ZM28.2048 5.28572V20.1492C27.8671 20.0212 27.5087 19.9566 27.1476 19.9589H26.2808V19.092C26.2813 18.6754 26.1997 18.2627 26.0405 17.8777C25.8813 17.4927 25.6477 17.1429 25.3531 16.8482C25.0585 16.5536 24.7087 16.3201 24.3237 16.1609C23.9386 16.0017 23.526 15.92 23.1093 15.9206C22.4146 15.9117 21.7397 16.1517 21.2065 16.5972L18.9231 14.7577C18.3635 14.2964 17.6608 14.0442 16.9356 14.0442C16.2104 14.0442 15.5078 14.2964 14.9482 14.7577L2.64303 24.6526C2.92594 25.0963 3.31681 25.4609 3.77903 25.7123C4.24125 25.9638 4.75971 26.0938 5.28589 26.0903H17.9716C18.3198 26.2353 18.694 26.3073 19.0711 26.3018H19.9379V27.1475C19.9356 27.5086 20.0002 27.867 20.1282 28.2046H5.28589C4.2447 28.2014 3.22767 27.8906 2.3625 27.3113C1.49734 26.7321 0.822604 25.9101 0.423022 24.9486C0.386132 24.8894 0.357668 24.8254 0.33845 24.7583C0.330408 24.75 0.324334 24.74 0.320675 24.729C0.317016 24.718 0.315865 24.7064 0.317307 24.6949C0.10274 24.1276 -0.00479123 23.5254 0.000163757 22.9189V5.28572C0.000724097 3.88403 0.557791 2.53991 1.54894 1.54877C2.54008 0.557627 3.8842 0.000560339 5.28589 0H22.9191C24.3208 0.000560339 25.6649 0.557627 26.656 1.54877C27.6472 2.53991 28.2042 3.88403 28.2048 5.28572ZM11.8825 8.90116C11.8867 8.22702 11.6906 7.56683 11.3191 7.00427C10.9476 6.44171 10.4175 6.00212 9.79584 5.74123C9.17422 5.48035 8.48913 5.40991 7.82743 5.53886C7.16573 5.6678 6.55722 5.99033 6.07904 6.46553C5.60087 6.94074 5.27456 7.54723 5.1415 8.20811C5.00843 8.86899 5.07459 9.55451 5.3316 10.1777C5.58861 10.801 6.02489 11.3339 6.58512 11.7088C7.14536 12.0838 7.80432 12.284 8.47847 12.284C9.3778 12.2846 10.2408 11.9291 10.8787 11.2952C11.5166 10.6612 11.8775 9.80048 11.8825 8.90116Z" fill="#F08080"/>
</svg>
