<svg width="14" height="14" viewBox="0 0 14 14" fill="none" xmlns="http://www.w3.org/2000/svg">
<path d="M5.24992 6.27083C4.36325 6.27083 3.64575 5.55333 3.64575 4.66667C3.64575 3.78 4.36325 3.0625 5.24992 3.0625C6.13659 3.0625 6.85409 3.78 6.85409 4.66667C6.85409 5.55333 6.13659 6.27083 5.24992 6.27083ZM5.24992 3.9375C4.84742 3.9375 4.52075 4.26417 4.52075 4.66667C4.52075 5.06917 4.84742 5.39583 5.24992 5.39583C5.65242 5.39583 5.97909 5.06917 5.97909 4.66667C5.97909 4.26417 5.65242 3.9375 5.24992 3.9375Z" fill="#F08080"/>
<path d="M8.75008 13.2709H5.25008C2.08258 13.2709 0.729248 11.9176 0.729248 8.75008V5.25008C0.729248 2.08258 2.08258 0.729248 5.25008 0.729248H7.58342C7.82258 0.729248 8.02092 0.927581 8.02092 1.16675C8.02092 1.40591 7.82258 1.60425 7.58342 1.60425H5.25008C2.56091 1.60425 1.60425 2.56091 1.60425 5.25008V8.75008C1.60425 11.4392 2.56091 12.3959 5.25008 12.3959H8.75008C11.4392 12.3959 12.3959 11.4392 12.3959 8.75008V5.83342C12.3959 5.59425 12.5942 5.39592 12.8334 5.39592C13.0726 5.39592 13.2709 5.59425 13.2709 5.83342V8.75008C13.2709 11.9176 11.9176 13.2709 8.75008 13.2709Z" fill="#F08080"/>
<path d="M10.5 5.10421C10.2608 5.10421 10.0625 4.90588 10.0625 4.66671V1.16671C10.0625 0.991713 10.1675 0.828379 10.3308 0.764213C10.4942 0.700046 10.6808 0.735046 10.8092 0.857546L11.9758 2.02421C12.145 2.19338 12.145 2.47338 11.9758 2.64255C11.8067 2.81171 11.5267 2.81171 11.3575 2.64255L10.9375 2.22255V4.66671C10.9375 4.90588 10.7392 5.10421 10.5 5.10421Z" fill="#F08080"/>
<path d="M9.33326 2.77068C9.22242 2.77068 9.11159 2.72984 9.02409 2.64234C8.85493 2.47318 8.85493 2.19318 9.02409 2.02401L10.1908 0.857344C10.3599 0.688177 10.6399 0.688177 10.8091 0.857344C10.9783 1.02651 10.9783 1.30651 10.8091 1.47568L9.64243 2.64234C9.55493 2.72984 9.44409 2.77068 9.33326 2.77068Z" fill="#F08080"/>
<path d="M1.55759 11.4917C1.41759 11.4917 1.27759 11.4217 1.19592 11.2992C1.06176 11.1008 1.11426 10.8267 1.31259 10.6925L4.18842 8.76166C4.81842 8.34166 5.68759 8.38833 6.25926 8.87249L6.45176 9.04166C6.74342 9.29249 7.23926 9.29249 7.52509 9.04166L9.95176 6.95916C10.5701 6.42833 11.5443 6.42833 12.1684 6.95916L13.1193 7.77583C13.3001 7.93333 13.3234 8.20749 13.1659 8.39416C13.0084 8.57499 12.7284 8.59833 12.5476 8.44083L11.5968 7.62416C11.3051 7.37333 10.8151 7.37333 10.5234 7.62416L8.09676 9.70666C7.47842 10.2375 6.50426 10.2375 5.88009 9.70666L5.68759 9.53749C5.41926 9.30999 4.97592 9.28666 4.67842 9.49083L1.80842 11.4217C1.72676 11.4683 1.63926 11.4917 1.55759 11.4917Z" fill="#F08080"/>
</svg>
