<svg width="24" height="24" viewBox="0 0 24 24" fill="none" xmlns="http://www.w3.org/2000/svg">
<path d="M6.66991 18.0926C6.64437 18.0926 6.60606 18.0926 6.58051 18.0926C5.34152 17.9776 4.17917 17.4029 3.3106 16.4832C1.26691 14.3373 1.26691 10.8503 3.3106 8.70438L6.10791 5.76655C7.10421 4.71915 8.44538 4.13159 9.87597 4.13159C11.3066 4.13159 12.6477 4.70638 13.644 5.76655C15.6877 7.91243 15.6877 11.3995 13.644 13.5454L12.2518 15.0143C11.8813 15.3974 11.281 15.4103 10.8978 15.0526C10.5146 14.6822 10.5019 14.0818 10.8595 13.6986L12.2518 12.2297C13.6057 10.8119 13.6057 8.5 12.2518 7.09496C10.9872 5.76656 8.76472 5.76656 7.48741 7.09496L4.6901 10.0328C3.33615 11.4506 3.33615 13.7625 4.6901 15.1676C5.23934 15.7551 5.98018 16.1128 6.75933 16.1894C7.28303 16.2405 7.66622 16.7131 7.61513 17.2368C7.57681 17.7222 7.15529 18.0926 6.66991 18.0926Z" fill="#E9B2B9"/>
<path d="M13.2225 19.8686C11.7919 19.8686 10.4507 19.2938 9.4544 18.2337C7.41071 16.0878 7.41071 12.6007 9.4544 10.4549L10.8467 8.98597C11.2171 8.60277 11.8174 8.58996 12.2006 8.94761C12.5838 9.31803 12.5966 9.9184 12.2389 10.3016L10.8467 11.7705C9.49272 13.1883 9.49272 15.5002 10.8467 16.9053C12.1112 18.2337 14.3337 18.2464 15.611 16.9053L18.4083 13.9675C19.7623 12.5497 19.7623 10.2377 18.4083 8.83266C17.8591 8.24509 17.1183 7.88746 16.3391 7.81083C15.8154 7.75973 15.4322 7.28712 15.4833 6.76342C15.5344 6.23973 15.9942 5.84378 16.5307 5.90765C17.7697 6.03538 18.932 6.59737 19.8006 7.51703C21.8443 9.66291 21.8443 13.15 19.8006 15.2958L17.0033 18.2337C15.9942 19.2938 14.653 19.8686 13.2225 19.8686Z" fill="#C73E51"/>
</svg>
