<svg width="18" height="14" viewBox="0 0 18 14" fill="none" xmlns="http://www.w3.org/2000/svg">
<path d="M4.30874 12.2962C4.28624 12.2962 4.2525 12.2962 4.23 12.2962C3.13875 12.195 2.115 11.6888 1.35 10.8788C-0.45 8.98876 -0.45 5.91752 1.35 4.02752L3.81375 1.44C4.69125 0.517499 5.8725 0 7.1325 0C8.3925 0 9.57375 0.506249 10.4512 1.44C12.2512 3.33 12.2512 6.40124 10.4512 8.29124L9.225 9.58499C8.89875 9.92249 8.37 9.93377 8.0325 9.61877C7.695 9.29252 7.68375 8.76374 7.99875 8.42624L9.225 7.1325C10.4175 5.88375 10.4175 3.84751 9.225 2.61001C8.11125 1.44001 6.15375 1.44001 5.02875 2.61001L2.565 5.19749C1.3725 6.44624 1.3725 8.48252 2.565 9.72002C3.04875 10.2375 3.70125 10.5525 4.3875 10.62C4.84875 10.665 5.18624 11.0813 5.14124 11.5425C5.10749 11.97 4.73624 12.2962 4.30874 12.2962Z" fill="#4B2D5C"/>
<path d="M10.08 13.8603C8.82 13.8603 7.63875 13.3541 6.76125 12.4203C4.96125 10.5303 4.96125 7.45906 6.76125 5.56906L7.9875 4.27532C8.31375 3.93782 8.8425 3.92654 9.18 4.24154C9.5175 4.56779 9.52875 5.09657 9.21375 5.43407L7.9875 6.72781C6.795 7.97656 6.795 10.0128 7.9875 11.2503C9.10125 12.4203 11.0587 12.4316 12.1837 11.2503L14.6475 8.66281C15.84 7.41406 15.84 5.37779 14.6475 4.14029C14.1637 3.62279 13.5113 3.30781 12.825 3.24031C12.3638 3.19531 12.0263 2.77905 12.0713 2.3178C12.1163 1.85655 12.5212 1.50782 12.9937 1.56407C14.085 1.67657 15.1088 2.17154 15.8738 2.98154C17.6738 4.87154 17.6738 7.94279 15.8738 9.83279L13.41 12.4203C12.5213 13.3541 11.34 13.8603 10.08 13.8603Z" fill="#4B2D5C"/>
</svg>
