<svg width="50" height="50" viewBox="0 0 50 50" fill="none" xmlns="http://www.w3.org/2000/svg">
<rect width="50" height="50" fill="#FFF7F1"/>
<path d="M29.081 20.1106C33.0573 22.5325 36.6095 25.2463 39.7262 28.244L39.7919 27.0566C39.8282 26.1011 39.8487 25.1441 39.8691 24.1887C39.8895 23.2332 39.9099 22.2778 39.9144 21.3207C39.9144 21.0725 40.0914 20.3183 39.8986 20.1333C36.7796 17.1356 33.2297 14.4218 29.2511 12L29.1853 13.1874C29.149 14.1428 29.1286 15.0983 29.1082 16.0553C29.0878 17.0107 29.0696 17.9662 29.0651 18.9232C29.0651 19.113 28.9086 20.0052 29.081 20.1106Z" fill="#4B2D5C"/>
<path d="M50.5476 6.12799C47.6564 9.22523 45.2086 12.4744 43.212 15.8656L42.8632 14.8411C42.5972 14.0126 42.3447 13.1789 42.0926 12.3465C41.8405 11.5142 41.5884 10.6819 41.3498 9.84422C41.289 9.62671 40.949 9.00902 41.0727 8.79969C43.0713 5.40795 45.5171 2.15936 48.4103 -0.938444L48.759 0.0860572C49.0251 0.9145 49.2772 1.74683 49.5297 2.58059C49.7818 3.41293 50.0319 4.24583 50.2705 5.08348C50.317 5.24981 50.6729 5.99332 50.5476 6.12799Z" fill="#FCCFCE"/>
<path d="M11.3011 17.5594C14.0191 21.3395 16.2327 25.2232 17.9345 29.1985L18.4579 28.1307C18.8637 27.2649 19.2555 26.3915 19.6467 25.5196C20.0379 24.6477 20.4291 23.7758 20.8063 22.8962C20.903 22.6676 21.3599 22.0419 21.2544 21.7965C19.5505 17.8202 17.339 13.9375 14.6189 10.1565L14.0956 11.2243C13.6898 12.09 13.2986 12.962 12.9068 13.8354C12.5156 14.7073 12.1265 15.5801 11.7493 16.4597C11.6753 16.6345 11.1835 17.3951 11.3011 17.5594Z" fill="#E9723D"/>
<path d="M33.383 45.8544C30.7627 49.7029 27.8723 53.113 24.7205 56.0737L25.903 56.1995C26.8554 56.2842 27.8102 56.3531 28.7634 56.422C29.7165 56.4908 30.6697 56.5596 31.6253 56.6126C31.8732 56.6252 32.6175 56.8401 32.812 56.6569C35.9639 53.694 38.8542 50.2862 41.4746 46.4355L40.292 46.3096C39.3397 46.2249 38.3865 46.1561 37.4317 46.0872C36.4786 46.0184 35.5253 45.9518 34.5697 45.8988C34.3801 45.8892 33.497 45.6876 33.383 45.8544Z" fill="#E9723D"/>
<path d="M10.2442 47.2023C12.3607 43.0554 13.963 38.8821 15.0455 34.6955L15.724 35.6722C16.2558 36.4668 16.7749 37.271 17.2932 38.074C17.8114 38.8769 18.3297 39.6798 18.8353 40.4924C18.9654 40.7038 19.5115 41.2533 19.4442 41.5119C18.3598 45.6997 16.7595 49.8717 14.6411 54.0198L13.9626 53.0432C13.4308 52.2486 12.9125 51.4457 12.3934 50.6414C11.8751 49.8385 11.3588 49.0344 10.8532 48.2218C10.7537 48.0601 10.1527 47.3825 10.2442 47.2023Z" fill="#C73E51"/>
<path d="M30.8797 31.0681C34.7096 33.7154 38.6337 35.8565 42.64 37.4842L41.5821 38.0273C40.724 38.4491 39.858 38.8571 38.9935 39.2644C38.129 39.6717 37.2645 40.079 36.3921 40.4725C36.1654 40.5734 35.5483 41.0419 35.3009 40.941C31.2937 39.3112 27.3705 37.1722 23.5396 34.5228L24.5976 33.9797C25.4556 33.5579 26.3201 33.1506 27.1861 32.7426C28.0506 32.3353 28.9161 31.9301 29.7885 31.5366C29.9619 31.4594 30.7132 30.9535 30.8797 31.0681Z" fill="#1E6F68"/>
<path d="M3.43446 5.07848C0.909615 8.99024 -1.89604 12.4704 -4.97409 15.5077L-3.78883 15.6044C-2.83467 15.6657 -1.87846 15.7111 -0.923891 15.7564C0.0306816 15.8018 0.985252 15.8471 1.94186 15.8767C2.18996 15.8831 2.93938 16.0797 3.12927 15.8918C6.20739 12.8522 9.01297 9.3744 11.5379 5.46037L10.3526 5.36359C9.39845 5.30236 8.44388 5.25701 7.48768 5.21161C6.53311 5.16625 5.57847 5.12317 4.62186 5.09364C4.43213 5.08869 3.54436 4.9089 3.43446 5.07848Z" fill="#F6A725"/>
<path d="M49.3334 21.5824C46.8085 25.4941 44.0029 28.9743 40.9248 32.0116L42.1101 32.1083C43.0643 32.1696 44.0205 32.215 44.975 32.2604C45.9296 32.3057 46.8842 32.351 47.8408 32.3806C48.0889 32.3871 48.8383 32.5836 49.0282 32.3957C52.1063 29.3561 54.9119 25.8783 57.4368 21.9643L56.2515 21.8675C55.2974 21.8063 54.3428 21.7609 53.3866 21.7155C52.432 21.6702 51.4774 21.6271 50.5208 21.5975C50.3311 21.5926 49.4433 21.4128 49.3334 21.5824Z" fill="#F6A725"/>
<path d="M32.6684 8.5981C28.5398 6.44596 24.3805 4.80784 20.2034 3.68929L21.1859 3.01924C21.985 2.49432 22.7937 1.98212 23.6011 1.4708C24.4084 0.959465 25.2158 0.448158 26.0327 -0.0504182C26.2452 -0.178703 26.7994 -0.720042 27.0574 -0.650575C31.2357 0.469916 35.3938 2.10605 39.5235 4.26014L38.5411 4.93022C37.7419 5.45514 36.9346 5.96646 36.1258 6.47863C35.3185 6.98996 34.51 7.49935 33.693 7.99792C33.5306 8.09602 32.8477 8.69118 32.6684 8.5981Z" fill="#C73E51"/>
<path d="M4.54385 35.2583C0.415295 33.1061 -3.74397 31.468 -7.92112 30.3494L-6.93865 29.6794C-6.13951 29.1545 -5.33078 28.6423 -4.52344 28.131C-3.71609 27.6196 -2.90873 27.1083 -2.09179 26.6097C-1.87933 26.4815 -1.32507 25.9401 -1.0671 26.0096C3.11122 27.1301 7.26928 28.7662 11.399 30.9203L10.4166 31.5904C9.61741 32.1153 8.81007 32.6266 8.00133 33.1388C7.19398 33.6501 6.38545 34.1595 5.56851 34.6581C5.40604 34.7562 4.72322 35.3513 4.54385 35.2583Z" fill="#4B2D5C"/>
</svg>
