<svg width="17" height="17" viewBox="0 0 17 17" fill="none" xmlns="http://www.w3.org/2000/svg">
<path d="M14.5208 4.95833H11.9616C13.2592 4.33571 14.1667 3.29021 14.1667 1.77083C14.1667 1.57533 14.008 1.41667 13.8125 1.41667C13.617 1.41667 13.4583 1.57533 13.4583 1.77083C13.4583 3.94046 11.1414 4.73804 9.32242 4.91725C9.87417 4.23513 10.625 3.12375 10.625 2.125C10.625 0.953417 9.67158 0 8.5 0C7.32842 0 6.375 0.953417 6.375 2.125C6.375 3.12375 7.12513 4.23442 7.67763 4.91725C5.85863 4.73875 3.54167 3.94046 3.54167 1.77083C3.54167 1.57533 3.383 1.41667 3.1875 1.41667C2.992 1.41667 2.83333 1.57533 2.83333 1.77083C2.83333 3.29021 3.74071 4.33571 5.03838 4.95833H2.47917C1.11208 4.95833 0 6.07042 0 7.4375V8.14583C0 8.73167 0.476708 9.20833 1.0625 9.20833H1.41667V13.8125C1.41667 15.5698 2.84679 17 4.60417 17H12.3958C14.1532 17 15.5833 15.5698 15.5833 13.8125V9.20833H15.9375C16.5233 9.20833 17 8.73167 17 8.14583V7.4375C17 6.07042 15.8879 4.95833 14.5208 4.95833ZM8.5 0.708333C9.28134 0.708333 9.91667 1.34371 9.91667 2.125C9.91667 3.009 9.04542 4.17846 8.5 4.794C7.95458 4.17846 7.08333 3.009 7.08333 2.125C7.08333 1.34371 7.71871 0.708333 8.5 0.708333ZM0.708333 8.14583V7.4375C0.708333 6.46142 1.50308 5.66667 2.47917 5.66667H8.14583V8.5H1.0625C0.867 8.5 0.708333 8.34133 0.708333 8.14583ZM2.125 13.8125V9.20833H8.14583V16.2917H4.60417C3.23708 16.2917 2.125 15.1796 2.125 13.8125ZM14.875 13.8125C14.875 15.1796 13.7629 16.2917 12.3958 16.2917H8.85417V9.20833H14.875V13.8125ZM16.2917 8.14583C16.2917 8.34133 16.133 8.5 15.9375 8.5H8.85417V5.66667H14.5208C15.4969 5.66667 16.2917 6.46142 16.2917 7.4375V8.14583Z" fill="#F08080"/>
</svg>
