<svg width="50" height="50" viewBox="0 0 50 50" fill="none" xmlns="http://www.w3.org/2000/svg">
<g clip-path="url(#clip0_8841_158)">
<rect x="-3" y="-5" width="57" height="56" fill="#FFF7F1"/>
<path d="M38.01 11.9985C38.4995 12.2967 38.9368 12.6308 39.3206 12.9999L39.3286 12.8537C39.3331 12.7361 39.3356 12.6182 39.3381 12.5006C39.3407 12.383 39.3432 12.2653 39.3437 12.1475C39.3437 12.117 39.3655 12.0241 39.3418 12.0013C38.9578 11.6323 38.5207 11.2982 38.0309 11L38.0228 11.1462C38.0183 11.2638 38.0158 11.3814 38.0133 11.4993C38.0108 11.6169 38.0086 11.7345 38.008 11.8524C38.008 11.8757 37.9887 11.9856 38.01 11.9985Z" fill="#2B3142"/>
<path d="M3.00997 14.9985C3.49952 15.2967 3.93684 15.6308 4.32055 15.9999L4.32865 15.8537C4.33312 15.7361 4.33563 15.6182 4.33815 15.5006C4.34066 15.383 4.34317 15.2653 4.34373 15.1475C4.34373 15.117 4.36551 15.0241 4.34177 15.0013C3.95779 14.6323 3.52074 14.2982 3.03092 14L3.02281 14.1462C3.01835 14.2638 3.01583 14.3814 3.01332 14.4993C3.01081 14.6169 3.00857 14.7345 3.00802 14.8524C3.00802 14.8757 2.98874 14.9856 3.00997 14.9985Z" fill="#2B3142"/>
<path d="M7.00997 4.99866C7.49952 5.29682 7.93684 5.63093 8.32055 5.99999L8.32865 5.85381C8.33312 5.73618 8.33563 5.61835 8.33815 5.50072C8.34066 5.3831 8.34317 5.26547 8.34373 5.14764C8.34373 5.11709 8.36551 5.02422 8.34177 5.00146C7.95779 4.6324 7.52074 4.29829 7.03092 4.00012L7.02281 4.14631C7.01835 4.26394 7.01583 4.38156 7.01332 4.49939C7.01081 4.61702 7.00857 4.73465 7.00802 4.85247C7.00802 4.87584 6.98874 4.98568 7.00997 4.99866Z" fill="#2B3142"/>
<path d="M12.01 44.9985C12.4995 45.2967 12.9368 45.6308 13.3206 45.9999L13.3286 45.8537C13.3331 45.7361 13.3356 45.6182 13.3381 45.5006C13.3407 45.383 13.3432 45.2653 13.3437 45.1475C13.3437 45.117 13.3655 45.0241 13.3418 45.0013C12.9578 44.6323 12.5207 44.2982 12.0309 44L12.0228 44.1462C12.0183 44.2638 12.0158 44.3814 12.0133 44.4993C12.0108 44.6169 12.0086 44.7345 12.008 44.8524C12.008 44.8757 11.9887 44.9856 12.01 44.9985Z" fill="#2B3142"/>
<path d="M32.0682 12.0607C31.7456 12.5345 31.3897 12.9543 31.0017 13.3188L31.1473 13.3343C31.2645 13.3447 31.3821 13.3532 31.4994 13.3617C31.6168 13.3702 31.7341 13.3786 31.8518 13.3852C31.8823 13.3867 31.9739 13.4132 31.9979 13.3906C32.3859 13.0258 32.7417 12.6063 33.0644 12.1322L32.9188 12.1167C32.8015 12.1063 32.6842 12.0978 32.5666 12.0893C32.4493 12.0808 32.3319 12.0726 32.2143 12.0661C32.1909 12.0649 32.0822 12.0401 32.0682 12.0607Z" fill="#E9723D"/>
<path d="M14.0677 7.06066C13.7451 7.53446 13.3892 7.95429 13.0012 8.3188L13.1468 8.33429C13.264 8.34472 13.3816 8.3532 13.4989 8.36168C13.6163 8.37015 13.7336 8.37862 13.8513 8.38515C13.8818 8.3867 13.9734 8.41316 13.9974 8.39061C14.3854 8.02582 14.7413 7.60628 15.0639 7.13219L14.9183 7.11669C14.801 7.10627 14.6837 7.0978 14.5661 7.08931C14.4488 7.08084 14.3314 7.07265 14.2138 7.06612C14.1904 7.06493 14.0817 7.04012 14.0677 7.06066Z" fill="#E9723D"/>
<path d="M19.0677 4.06078C18.7451 4.53458 18.3892 4.95441 18.0012 5.31892L18.1468 5.33442C18.264 5.34484 18.3816 5.35333 18.4989 5.3618C18.6163 5.37027 18.7336 5.37874 18.8513 5.38527C18.8818 5.38682 18.9734 5.41328 18.9974 5.39073C19.3854 5.02594 19.7413 4.6064 20.0639 4.13232L19.9183 4.11682C19.801 4.10639 19.6837 4.09792 19.5661 4.08944C19.4488 4.08096 19.3314 4.07277 19.2138 4.06624C19.1904 4.06505 19.0817 4.04024 19.0677 4.06078Z" fill="#E9723D"/>
<path d="M25.0677 19.0607C24.7451 19.5345 24.3892 19.9543 24.0012 20.3188L24.1468 20.3343C24.264 20.3447 24.3816 20.3532 24.4989 20.3617C24.6163 20.3702 24.7336 20.3786 24.8513 20.3852C24.8818 20.3867 24.9734 20.4132 24.9974 20.3906C25.3854 20.0258 25.7413 19.6063 26.0639 19.1322L25.9183 19.1167C25.801 19.1063 25.6837 19.0978 25.5661 19.0893C25.4488 19.0808 25.3314 19.0726 25.2138 19.0661C25.1904 19.0649 25.0817 19.0401 25.0677 19.0607Z" fill="#E9723D"/>
<path d="M10.0686 33.0607C9.74605 33.5345 9.3902 33.9543 9.00217 34.3188L9.14775 34.3343C9.265 34.3447 9.38255 34.3532 9.4999 34.3617C9.61725 34.3702 9.7346 34.3786 9.85225 34.3852C9.88276 34.3867 9.9744 34.4132 9.99835 34.3906C10.3864 34.0258 10.7422 33.6063 11.0648 33.1322L10.9193 33.1167C10.802 33.1063 10.6847 33.0978 10.5671 33.0893C10.4498 33.0808 10.3324 33.0726 10.2147 33.0661C10.1914 33.0649 10.0827 33.0401 10.0686 33.0607Z" fill="#E9723D"/>
<path d="M39.0682 39.0607C38.7456 39.5345 38.3897 39.9543 38.0017 40.3188L38.1473 40.3343C38.2645 40.3447 38.3821 40.3532 38.4994 40.3617C38.6168 40.3702 38.7341 40.3786 38.8518 40.3852C38.8823 40.3867 38.9739 40.4132 38.9979 40.3906C39.3859 40.0258 39.7417 39.6063 40.0644 39.1322L39.9188 39.1167C39.8015 39.1063 39.6842 39.0978 39.5666 39.0893C39.4493 39.0808 39.3319 39.0726 39.2143 39.0661C39.1909 39.0649 39.0822 39.0401 39.0682 39.0607Z" fill="#E9723D"/>
<path d="M24.0682 44.0607C23.7456 44.5345 23.3897 44.9543 23.0017 45.3188L23.1473 45.3343C23.2645 45.3447 23.3821 45.3532 23.4994 45.3617C23.6168 45.3702 23.7341 45.3786 23.8518 45.3852C23.8823 45.3867 23.9739 45.4132 23.9979 45.3906C24.3859 45.0258 24.7417 44.6063 25.0644 44.1322L24.9188 44.1167C24.8015 44.1063 24.6842 44.0978 24.5666 44.0893C24.4493 44.0808 24.3319 44.0726 24.2143 44.0661C24.1909 44.0649 24.0822 44.0401 24.0682 44.0607Z" fill="#E9723D"/>
<path d="M35.0682 34.0607C34.7456 34.5345 34.3897 34.9543 34.0017 35.3188L34.1473 35.3343C34.2645 35.3447 34.3821 35.3532 34.4994 35.3617C34.6168 35.3702 34.7341 35.3786 34.8518 35.3852C34.8823 35.3867 34.9739 35.4132 34.9979 35.3906C35.3859 35.0258 35.7417 34.6063 36.0644 34.1322L35.9188 34.1167C35.8015 34.1063 35.6842 34.0978 35.5666 34.0893C35.4493 34.0808 35.3319 34.0726 35.2143 34.0661C35.1909 34.0649 35.0822 34.0401 35.0682 34.0607Z" fill="#E9723D"/>
<path d="M19.3637 19.4116C19.7161 18.9596 20.007 18.4924 20.2353 18.0114L20.2946 18.1453C20.3404 18.2538 20.3844 18.3631 20.4284 18.4722C20.4723 18.5813 20.5163 18.6905 20.5585 18.8005C20.5693 18.8291 20.6225 18.9082 20.6084 18.9379C20.3798 19.4189 20.0891 19.886 19.7364 20.3382L19.6772 20.2043C19.6314 20.0959 19.5874 19.9867 19.5434 19.8774C19.4994 19.7683 19.4557 19.659 19.4135 19.549C19.4053 19.5272 19.3484 19.4313 19.3637 19.4116Z" fill="#C73E51"/>
<path d="M2.36316 21.4116C2.7156 20.9596 3.00648 20.4924 3.23485 20.0114L3.29413 20.1453C3.33991 20.2538 3.38394 20.3631 3.4279 20.4722C3.47186 20.5813 3.51581 20.6905 3.55801 20.8005C3.56882 20.8291 3.62204 20.9082 3.60789 20.9379C3.37926 21.4189 3.08865 21.886 2.73595 22.3382L2.67666 22.2043C2.63088 22.0959 2.58692 21.9867 2.5429 21.8774C2.49894 21.7683 2.45524 21.659 2.41305 21.549C2.40478 21.5272 2.3479 21.4313 2.36316 21.4116Z" fill="#C73E51"/>
<path d="M46.3637 26.4116C46.7161 25.9596 47.007 25.4924 47.2353 25.0114L47.2946 25.1453C47.3404 25.2538 47.3844 25.3631 47.4284 25.4722C47.4723 25.5813 47.5163 25.6905 47.5585 25.8005C47.5693 25.8291 47.6225 25.9082 47.6084 25.9379C47.3798 26.4189 47.0891 26.886 46.7364 27.3382L46.6772 27.2043C46.6314 27.0959 46.5874 26.9867 46.5434 26.8774C46.4994 26.7683 46.4557 26.659 46.4135 26.549C46.4053 26.5272 46.3484 26.4313 46.3637 26.4116Z" fill="#C73E51"/>
<path d="M15.3632 11.4116C15.7156 10.9596 16.0065 10.4924 16.2348 10.0114L16.2941 10.1453C16.3399 10.2538 16.3839 10.3631 16.4279 10.4722C16.4719 10.5813 16.5158 10.6905 16.558 10.8005C16.5688 10.8291 16.622 10.9082 16.6079 10.9379C16.3793 11.4189 16.0886 11.886 15.7359 12.3382L15.6767 12.2043C15.6309 12.0959 15.5869 11.9867 15.5429 11.8774C15.4989 11.7683 15.4552 11.659 15.413 11.549C15.4048 11.5272 15.3479 11.4313 15.3632 11.4116Z" fill="#C73E51"/>
<path d="M6.36316 14.4116C6.7156 13.9596 7.00648 13.4924 7.23485 13.0114L7.29413 13.1453C7.33991 13.2538 7.38394 13.3631 7.4279 13.4722C7.47186 13.5813 7.51581 13.6905 7.55801 13.8005C7.56882 13.8291 7.62204 13.9082 7.60789 13.9379C7.37926 14.4189 7.08865 14.886 6.73595 15.3382L6.67666 15.2043C6.63088 15.0959 6.58692 14.9867 6.5429 14.8774C6.49894 14.7683 6.45524 14.659 6.41305 14.549C6.40478 14.5272 6.3479 14.4313 6.36316 14.4116Z" fill="#C73E51"/>
<path d="M40.3632 17.4116C40.7156 16.9596 41.0065 16.4924 41.2348 16.0114L41.2941 16.1453C41.3399 16.2538 41.3839 16.3631 41.4279 16.4722C41.4719 16.5813 41.5158 16.6905 41.558 16.8005C41.5688 16.8291 41.622 16.9082 41.6079 16.9379C41.3793 17.4189 41.0886 17.886 40.7359 18.3382L40.6767 18.2043C40.6309 18.0959 40.5869 17.9867 40.5429 17.8774C40.4989 17.7683 40.4552 17.659 40.413 17.549C40.4048 17.5272 40.3479 17.4313 40.3632 17.4116Z" fill="#C73E51"/>
<path d="M11.3637 51.4116C11.7161 50.9596 12.007 50.4924 12.2353 50.0114L12.2946 50.1453C12.3404 50.2538 12.3844 50.3631 12.4284 50.4722C12.4723 50.5813 12.5163 50.6905 12.5585 50.8005C12.5693 50.8291 12.6225 50.9082 12.6084 50.9379C12.3798 51.4189 12.0891 51.886 11.7364 52.3382L11.6772 52.2043C11.6314 52.0959 11.5874 51.9867 11.5434 51.8774C11.4994 51.7683 11.4557 51.659 11.4135 51.549C11.4053 51.5272 11.3484 51.4313 11.3637 51.4116Z" fill="#C73E51"/>
<path d="M34.9162 16.4164C35.3878 16.7423 35.8709 17.0059 36.3641 17.2063L36.2339 17.2732C36.1282 17.3251 36.0216 17.3753 35.9152 17.4255C35.8087 17.4756 35.7023 17.5258 35.5949 17.5742C35.567 17.5866 35.491 17.6443 35.4606 17.6319C34.9672 17.4312 34.4842 17.1679 34.0126 16.8417L34.1428 16.7749C34.2485 16.7229 34.3549 16.6728 34.4615 16.6225C34.5679 16.5724 34.6745 16.5225 34.7819 16.4741C34.8032 16.4646 34.8957 16.4023 34.9162 16.4164Z" fill="#1E6F68"/>
<path d="M15.9162 16.4164C16.3878 16.7423 16.8709 17.0059 17.3641 17.2063L17.2339 17.2732C17.1282 17.3251 17.0216 17.3753 16.9152 17.4255C16.8087 17.4756 16.7023 17.5258 16.5949 17.5742C16.567 17.5866 16.491 17.6443 16.4606 17.6319C15.9672 17.4312 15.4842 17.1679 15.0126 16.8417L15.1428 16.7749C15.2485 16.7229 15.3549 16.6728 15.4615 16.6225C15.5679 16.5724 15.6745 16.5225 15.7819 16.4741C15.8032 16.4646 15.8957 16.4023 15.9162 16.4164Z" fill="#1E6F68"/>
<path d="M21.9162 13.4164C22.3878 13.7423 22.8709 14.0059 23.3641 14.2063L23.2339 14.2732C23.1282 14.3251 23.0216 14.3753 22.9152 14.4255C22.8087 14.4756 22.7023 14.5258 22.5949 14.5742C22.567 14.5866 22.491 14.6443 22.4606 14.6319C21.9672 14.4312 21.4842 14.1679 21.0126 13.8417L21.1428 13.7749C21.2485 13.7229 21.3549 13.6728 21.4615 13.6225C21.5679 13.5724 21.6745 13.5225 21.7819 13.4741C21.8032 13.4646 21.8957 13.4023 21.9162 13.4164Z" fill="#1E6F68"/>
<path d="M21.9162 8.41651C22.3878 8.74243 22.8709 9.00603 23.3641 9.20642L23.2339 9.27329C23.1282 9.32522 23.0216 9.37545 22.9152 9.42559C22.8087 9.47574 22.7023 9.52588 22.5949 9.57432C22.567 9.58675 22.491 9.64443 22.4606 9.632C21.9672 9.43135 21.4842 9.16802 21.0126 8.84184L21.1428 8.77497C21.2485 8.72304 21.3549 8.6729 21.4615 8.62267C21.5679 8.57252 21.6745 8.52263 21.7819 8.47419C21.8032 8.46469 21.8957 8.4024 21.9162 8.41651Z" fill="#1E6F68"/>
<path d="M12.9162 37.4164C13.3878 37.7423 13.8709 38.0059 14.3641 38.2063L14.2339 38.2732C14.1282 38.3251 14.0216 38.3753 13.9152 38.4255C13.8087 38.4756 13.7023 38.5258 13.5949 38.5742C13.567 38.5866 13.491 38.6443 13.4606 38.6319C12.9672 38.4312 12.4842 38.1679 12.0126 37.8417L12.1428 37.7749C12.2485 37.7229 12.3549 37.6728 12.4615 37.6225C12.5679 37.5724 12.6745 37.5225 12.7819 37.4741C12.8032 37.4646 12.8957 37.4023 12.9162 37.4164Z" fill="#1E6F68"/>
<path d="M30.9162 42.4164C31.3878 42.7423 31.8709 43.0059 32.3641 43.2063L32.2339 43.2732C32.1282 43.3251 32.0216 43.3753 31.9152 43.4255C31.8087 43.4756 31.7023 43.5258 31.5949 43.5742C31.567 43.5866 31.491 43.6443 31.4606 43.6319C30.9672 43.4312 30.4842 43.1679 30.0126 42.8417L30.1428 42.7749C30.2485 42.7229 30.3549 42.6728 30.4615 42.6225C30.5679 42.5724 30.6745 42.5225 30.7819 42.4741C30.8032 42.4646 30.8957 42.4023 30.9162 42.4164Z" fill="#1E6F68"/>
<path d="M21.9162 38.4164C22.3878 38.7423 22.8709 39.0059 23.3641 39.2063L23.2339 39.2732C23.1282 39.3251 23.0216 39.3753 22.9152 39.4255C22.8087 39.4756 22.7023 39.5258 22.5949 39.5742C22.567 39.5866 22.491 39.6443 22.4606 39.6319C21.9672 39.4312 21.4842 39.1679 21.0126 38.8417L21.1428 38.7749C21.2485 38.7229 21.3549 38.6728 21.4615 38.6225C21.5679 38.5724 21.6745 38.5225 21.7819 38.4741C21.8032 38.4646 21.8957 38.4023 21.9162 38.4164Z" fill="#1E6F68"/>
<path d="M26.9162 48.4164C27.3878 48.7423 27.8709 49.0059 28.3641 49.2063L28.2339 49.2732C28.1282 49.3251 28.0216 49.3753 27.9152 49.4255C27.8087 49.4756 27.7023 49.5258 27.5949 49.5742C27.567 49.5866 27.491 49.6443 27.4606 49.6319C26.9672 49.4312 26.4842 49.1679 26.0126 48.8417L26.1428 48.7749C26.2485 48.7229 26.3549 48.6728 26.4615 48.6225C26.5679 48.5724 26.6745 48.5225 26.7819 48.4741C26.8032 48.4646 26.8957 48.4023 26.9162 48.4164Z" fill="#1E6F68"/>
<path d="M25.9162 3.41639C26.3878 3.74231 26.8709 4.00591 27.3641 4.2063L27.2339 4.27316C27.1282 4.3251 27.0216 4.37533 26.9152 4.42547C26.8087 4.47562 26.7023 4.52576 26.5949 4.5742C26.567 4.58663 26.491 4.64431 26.4606 4.63188C25.9672 4.43123 25.4842 4.1679 25.0126 3.84172L25.1428 3.77485C25.2485 3.72292 25.3549 3.67278 25.4615 3.62255C25.5679 3.5724 25.6745 3.52251 25.7819 3.47407C25.8032 3.46457 25.8957 3.40228 25.9162 3.41639Z" fill="#1E6F68"/>
<path d="M26.9162 33.4164C27.3878 33.7423 27.8709 34.0059 28.3641 34.2063L28.2339 34.2732C28.1282 34.3251 28.0216 34.3753 27.9152 34.4255C27.8087 34.4756 27.7023 34.5258 27.5949 34.5742C27.567 34.5866 27.491 34.6443 27.4606 34.6319C26.9672 34.4312 26.4842 34.1679 26.0126 33.8417L26.1428 33.7749C26.2485 33.7229 26.3549 33.6728 26.4615 33.6225C26.5679 33.5724 26.6745 33.5225 26.7819 33.4741C26.8032 33.4646 26.8957 33.4023 26.9162 33.4164Z" fill="#1E6F68"/>
<path d="M35.3499 6.00144C34.8582 5.70687 34.4184 5.37597 34.032 5.00973L34.025 5.15597C34.0214 5.27362 34.0197 5.39147 34.0181 5.50911C34.0164 5.62675 34.0148 5.7444 34.0151 5.86223C34.0153 5.89278 33.9942 5.9858 34.0181 6.00839C34.4048 6.37463 34.8443 6.70553 35.3363 7.0001L35.3433 6.85386C35.3469 6.73621 35.3486 6.61856 35.3502 6.50072C35.3519 6.38308 35.3532 6.26544 35.3529 6.14761C35.3528 6.12424 35.3712 6.01427 35.3499 6.00144Z" fill="#F6A725"/>
<path d="M8.34991 10.0013C7.85819 9.70675 7.41843 9.37585 7.03203 9.00961L7.02501 9.15585C7.0214 9.2735 7.01975 9.39135 7.01809 9.50899C7.01644 9.62663 7.01479 9.74428 7.0151 9.8621C7.01532 9.89266 6.99422 9.98568 7.01812 10.0083C7.4048 10.3745 7.84428 10.7054 8.33627 11L8.3433 10.8537C8.34691 10.7361 8.34856 10.6184 8.35021 10.5006C8.35186 10.383 8.35324 10.2653 8.35293 10.1475C8.35276 10.1241 8.37123 10.0141 8.34991 10.0013Z" fill="#F6A725"/>
<path d="M40.3504 44.0013C39.8587 43.7067 39.4189 43.3758 39.0325 43.0096L39.0255 43.1558C39.0219 43.2735 39.0202 43.3913 39.0186 43.509C39.0169 43.6266 39.0153 43.7443 39.0156 43.8621C39.0158 43.8927 38.9947 43.9857 39.0186 44.0083C39.4053 44.3745 39.8448 44.7054 40.3368 45L40.3438 44.8537C40.3474 44.7361 40.3491 44.6184 40.3507 44.5006C40.3524 44.383 40.3537 44.2653 40.3534 44.1475C40.3533 44.1241 40.3717 44.0141 40.3504 44.0013Z" fill="#F6A725"/>
<path d="M12.3504 0.00144049C11.8587 -0.293131 11.4189 -0.624032 11.0325 -0.990273L11.0255 -0.844033C11.0219 -0.726375 11.0202 -0.608531 11.0186 -0.490888C11.0169 -0.373245 11.0153 -0.255603 11.0156 -0.137774C11.0158 -0.10722 10.9947 -0.0141985 11.0186 0.00839382C11.4053 0.374633 11.8448 0.705534 12.3368 1.0001L12.3438 0.853863C12.3474 0.736206 12.3491 0.618563 12.3507 0.500721C12.3524 0.383078 12.3537 0.265436 12.3534 0.147607C12.3533 0.124242 12.3717 0.0142657 12.3504 0.00144049Z" fill="#F6A725"/>
<path d="M3.35089 29.0013C2.85917 28.7067 2.41941 28.3758 2.03301 28.0096L2.02598 28.1558C2.02238 28.2735 2.02072 28.3913 2.01907 28.509C2.01742 28.6266 2.01577 28.7443 2.01607 28.8621C2.0163 28.8927 1.99519 28.9857 2.0191 29.0083C2.40578 29.3745 2.84525 29.7054 3.33725 30L3.34428 29.8537C3.34789 29.7361 3.34954 29.6184 3.35119 29.5006C3.35284 29.383 3.35421 29.2653 3.35391 29.1475C3.35374 29.1241 3.37221 29.0141 3.35089 29.0013Z" fill="#F6A725"/>
<path d="M46.3504 34.0013C45.8587 33.7067 45.4189 33.3758 45.0325 33.0096L45.0255 33.1558C45.0219 33.2735 45.0202 33.3913 45.0186 33.509C45.0169 33.6266 45.0153 33.7443 45.0156 33.8621C45.0158 33.8927 44.9947 33.9857 45.0186 34.0083C45.4053 34.3745 45.8448 34.7054 46.3368 35L46.3438 34.8537C46.3474 34.7361 46.3491 34.6184 46.3507 34.5006C46.3524 34.383 46.3537 34.2653 46.3534 34.1475C46.3533 34.1241 46.3717 34.0141 46.3504 34.0013Z" fill="#F6A725"/>
<path d="M40.3499 21.0014C39.8582 20.7069 39.4184 20.376 39.032 20.0097L39.025 20.156C39.0214 20.2736 39.0197 20.3915 39.0181 20.5091C39.0164 20.6268 39.0148 20.7444 39.0151 20.8622C39.0153 20.8928 38.9942 20.9858 39.0181 21.0084C39.4048 21.3746 39.8443 21.7055 40.3363 22.0001L40.3433 21.8539C40.3469 21.7362 40.3486 21.6186 40.3502 21.5007C40.3519 21.3831 40.3532 21.2654 40.3529 21.1476C40.3528 21.1242 40.3712 21.0143 40.3499 21.0014Z" fill="#F6A725"/>
<path d="M17.3504 40.0013C16.8587 39.7067 16.4189 39.3758 16.0325 39.0096L16.0255 39.1558C16.0219 39.2735 16.0202 39.3913 16.0186 39.509C16.0169 39.6266 16.0153 39.7443 16.0156 39.8621C16.0158 39.8927 15.9947 39.9857 16.0186 40.0083C16.4053 40.3745 16.8448 40.7054 17.3368 41L17.3438 40.8537C17.3474 40.7361 17.3491 40.6184 17.3507 40.5006C17.3524 40.383 17.3537 40.2653 17.3534 40.1475C17.3533 40.1241 17.3717 40.0141 17.3504 40.0013Z" fill="#F6A725"/>
<path d="M30.0362 18.0361C29.7254 18.5177 29.3799 18.9462 29.001 19.3201L29.1469 19.332C29.2644 19.3396 29.3821 19.3452 29.4996 19.3507C29.6172 19.3563 29.7347 19.3619 29.8525 19.3655C29.883 19.3663 29.9753 19.3905 29.9986 19.3674C30.3776 18.9932 30.723 18.565 31.0339 18.0832L30.8879 18.0712C30.7705 18.0637 30.6529 18.0581 30.5352 18.0525C30.4177 18.0469 30.3002 18.0416 30.1824 18.038C30.159 18.0374 30.0497 18.0153 30.0362 18.0361Z" fill="#F6A725"/>
<path d="M13.0362 20.0361C12.7254 20.5177 12.3799 20.9462 12.001 21.3201L12.1469 21.332C12.2644 21.3396 12.3821 21.3452 12.4996 21.3507C12.6172 21.3563 12.7347 21.3619 12.8525 21.3655C12.883 21.3663 12.9753 21.3905 12.9986 21.3674C13.3776 20.9932 13.723 20.565 14.0339 20.0832L13.8879 20.0712C13.7705 20.0637 13.6529 20.0581 13.5352 20.0525C13.4177 20.0469 13.3002 20.0416 13.1824 20.038C13.159 20.0374 13.0497 20.0153 13.0362 20.0361Z" fill="#F6A725"/>
<path d="M44.0357 14.0361C43.7249 14.5177 43.3795 14.9462 43.0005 15.3201L43.1464 15.332C43.2639 15.3396 43.3816 15.3452 43.4991 15.3507C43.6167 15.3563 43.7342 15.3619 43.852 15.3655C43.8825 15.3663 43.9748 15.3905 43.9981 15.3674C44.3771 14.9932 44.7225 14.565 45.0334 14.0832L44.8874 14.0712C44.77 14.0637 44.6525 14.0581 44.5347 14.0525C44.4172 14.0469 44.2997 14.0416 44.1819 14.038C44.1586 14.0374 44.0493 14.0153 44.0357 14.0361Z" fill="#F6A725"/>
<path d="M8.0367 39.0361C7.72585 39.5177 7.38044 39.9462 7.00148 40.3201L7.14741 40.332C7.26488 40.3396 7.3826 40.3452 7.50012 40.3507C7.61764 40.3563 7.73517 40.3619 7.85294 40.3655C7.88348 40.3663 7.97575 40.3905 7.99913 40.3674C8.37809 39.9932 8.7235 39.565 9.03435 39.0832L8.88842 39.0712C8.77095 39.0637 8.65343 39.0581 8.53571 39.0525C8.41819 39.0469 8.30066 39.0416 8.18289 39.038C8.15953 39.0374 8.05023 39.0153 8.0367 39.0361Z" fill="#F6A725"/>
<path d="M22.0362 50.0361C21.7254 50.5177 21.3799 50.9462 21.001 51.3201L21.1469 51.332C21.2644 51.3396 21.3821 51.3452 21.4996 51.3507C21.6172 51.3563 21.7347 51.3619 21.8525 51.3655C21.883 51.3663 21.9753 51.3905 21.9986 51.3674C22.3776 50.9932 22.723 50.565 23.0339 50.0832L22.8879 50.0712C22.7705 50.0637 22.6529 50.0581 22.5352 50.0525C22.4177 50.0469 22.3002 50.0416 22.1824 50.038C22.159 50.0374 22.0497 50.0153 22.0362 50.0361Z" fill="#F6A725"/>
<path d="M27.5517 14.6657C27.0434 14.4007 26.5313 14.199 26.017 14.0613L26.138 13.9788C26.2364 13.9142 26.336 13.8512 26.4354 13.7882C26.5347 13.7253 26.6341 13.6623 26.7347 13.6009C26.7609 13.5851 26.8291 13.5185 26.8609 13.527C27.3753 13.665 27.8872 13.8664 28.3956 14.1316L28.2747 14.2141C28.1763 14.2787 28.0769 14.3417 27.9773 14.4047C27.8779 14.4677 27.7784 14.5304 27.6778 14.5918C27.6578 14.6039 27.5738 14.6771 27.5517 14.6657Z" fill="#C73E51"/>
<path d="M10.5512 16.6656C10.0429 16.4006 9.53083 16.1989 9.01656 16.0612L9.13752 15.9787C9.2359 15.9141 9.33547 15.851 9.43487 15.7881C9.53426 15.7251 9.63366 15.6622 9.73424 15.6008C9.76039 15.585 9.82863 15.5184 9.86039 15.5269C10.3748 15.6649 10.8867 15.8663 11.3952 16.1315L11.2742 16.214C11.1758 16.2786 11.0764 16.3416 10.9768 16.4046C10.8775 16.4676 10.7779 16.5303 10.6773 16.5917C10.6573 16.6037 10.5733 16.677 10.5512 16.6656Z" fill="#C73E51"/>
<path d="M46.5512 20.6657C46.0429 20.4007 45.5308 20.199 45.0166 20.0613L45.1375 19.9788C45.2359 19.9142 45.3355 19.8512 45.4349 19.7882C45.5343 19.7253 45.6337 19.6623 45.7342 19.6009C45.7604 19.5851 45.8286 19.5185 45.8604 19.527C46.3748 19.665 46.8867 19.8664 47.3952 20.1316L47.2742 20.2141C47.1758 20.2787 47.0764 20.3417 46.9768 20.4047C46.8775 20.4677 46.7779 20.5304 46.6773 20.5918C46.6573 20.6039 46.5733 20.6771 46.5512 20.6657Z" fill="#C73E51"/>
<path d="M29.5512 8.66568C29.0429 8.40072 28.5308 8.19905 28.0166 8.06134L28.1375 7.97884C28.2359 7.91422 28.3355 7.85116 28.4349 7.78821C28.5343 7.72525 28.6337 7.66231 28.7342 7.60092C28.7604 7.58513 28.8286 7.51848 28.8604 7.52704C29.3748 7.66498 29.8867 7.86642 30.3952 8.13162L30.2742 8.21411C30.1758 8.27874 30.0764 8.34169 29.9768 8.40475C29.8775 8.4677 29.7779 8.53041 29.6773 8.59179C29.6573 8.60387 29.5733 8.67714 29.5512 8.66568Z" fill="#C73E51"/>
<path d="M5.55216 35.6656C5.04387 35.4006 4.53181 35.1989 4.01754 35.0612L4.13849 34.9787C4.23688 34.9141 4.33645 34.851 4.43584 34.7881C4.53524 34.7251 4.63464 34.6622 4.73521 34.6008C4.76137 34.585 4.82961 34.5184 4.86137 34.5269C5.37578 34.6649 5.8877 34.8663 6.39613 35.1315L6.27517 35.214C6.17679 35.2786 6.07739 35.3416 5.97782 35.4046C5.87843 35.4676 5.77889 35.5303 5.67831 35.5917C5.65831 35.6037 5.57424 35.677 5.55216 35.6656Z" fill="#C73E51"/>
<path d="M19.5512 34.6657C19.0429 34.4007 18.5308 34.199 18.0166 34.0613L18.1375 33.9788C18.2359 33.9142 18.3355 33.8512 18.4349 33.7882C18.5343 33.7253 18.6337 33.6623 18.7342 33.6009C18.7604 33.5851 18.8286 33.5185 18.8604 33.527C19.3748 33.665 19.8867 33.8664 20.3952 34.1316L20.2742 34.2141C20.1758 34.2787 20.0764 34.3417 19.9768 34.4047C19.8775 34.4677 19.7779 34.5304 19.6773 34.5918C19.6573 34.6039 19.5733 34.6771 19.5512 34.6657Z" fill="#C73E51"/>
<path d="M19.5512 46.6656C19.0429 46.4006 18.5308 46.1989 18.0166 46.0612L18.1375 45.9787C18.2359 45.9141 18.3355 45.851 18.4349 45.7881C18.5343 45.7251 18.6337 45.6622 18.7342 45.6008C18.7604 45.585 18.8286 45.5184 18.8604 45.5269C19.3748 45.6649 19.8867 45.8663 20.3952 46.1315L20.2742 46.214C20.1758 46.2786 20.0764 46.3416 19.9768 46.4046C19.8775 46.4676 19.7779 46.5303 19.6773 46.5917C19.6573 46.6037 19.5733 46.677 19.5512 46.6656Z" fill="#C73E51"/>
<path d="M37.5512 51.6656C37.0429 51.4006 36.5308 51.1989 36.0166 51.0612L36.1375 50.9787C36.2359 50.9141 36.3355 50.851 36.4349 50.7881C36.5343 50.7251 36.6337 50.6622 36.7342 50.6008C36.7604 50.585 36.8286 50.5184 36.8604 50.5269C37.3748 50.6649 37.8867 50.8663 38.3952 51.1315L38.2742 51.214C38.1758 51.2786 38.0764 51.3416 37.9768 51.4046C37.8775 51.4676 37.7779 51.5303 37.6773 51.5917C37.6573 51.6037 37.5733 51.677 37.5512 51.6656Z" fill="#C73E51"/>
<path d="M41.5512 37.6657C41.0429 37.4007 40.5308 37.199 40.0166 37.0613L40.1375 36.9788C40.2359 36.9142 40.3355 36.8512 40.4349 36.7882C40.5343 36.7253 40.6337 36.6623 40.7342 36.6009C40.7604 36.5851 40.8286 36.5185 40.8604 36.527C41.3748 36.665 41.8867 36.8664 42.3952 37.1316L42.2742 37.2141C42.1758 37.2787 42.0764 37.3417 41.9768 37.4047C41.8775 37.4677 41.7779 37.5304 41.6773 37.5918C41.6573 37.6039 41.5733 37.6771 41.5512 37.6657Z" fill="#C73E51"/>
<path d="M29.5517 38.6657C29.0434 38.4007 28.5313 38.199 28.017 38.0613L28.138 37.9788C28.2364 37.9142 28.336 37.8512 28.4354 37.7882C28.5347 37.7253 28.6341 37.6623 28.7347 37.6009C28.7609 37.5851 28.8291 37.5185 28.8609 37.527C29.3753 37.665 29.8872 37.8664 30.3956 38.1316L30.2747 38.2141C30.1763 38.2787 30.0769 38.3417 29.9773 38.4047C29.8779 38.4677 29.7784 38.5304 29.6778 38.5918C29.6578 38.6039 29.5738 38.6771 29.5517 38.6657Z" fill="#C73E51"/>
<path d="M35.5512 43.6657C35.0429 43.4007 34.5308 43.199 34.0166 43.0613L34.1375 42.9788C34.2359 42.9142 34.3355 42.8512 34.4349 42.7882C34.5343 42.7253 34.6337 42.6623 34.7342 42.6009C34.7604 42.5851 34.8286 42.5185 34.8604 42.527C35.3748 42.665 35.8867 42.8664 36.3952 43.1316L36.2742 43.2141C36.1758 43.2787 36.0764 43.3417 35.9768 43.4047C35.8775 43.4677 35.7779 43.5304 35.6773 43.5918C35.6573 43.6039 35.5733 43.6771 35.5512 43.6657Z" fill="#C73E51"/>
<path d="M0.551182 10.6656C0.0428958 10.4006 -0.469171 10.1989 -0.98344 10.0612L-0.862483 9.97872C-0.764097 9.9141 -0.664531 9.85104 -0.565135 9.78809C-0.465738 9.72513 -0.366341 9.66218 -0.265763 9.6008C-0.239606 9.58501 -0.171368 9.51836 -0.139609 9.52691C0.374804 9.66486 0.886723 9.86629 1.39515 10.1315L1.2742 10.214C1.17581 10.2786 1.07642 10.3416 0.976848 10.4046C0.877452 10.4676 0.77791 10.5303 0.677333 10.5917C0.65733 10.6037 0.573265 10.677 0.551182 10.6656Z" fill="#C73E51"/>
<path d="M5.55118 50.6656C5.0429 50.4006 4.53083 50.1989 4.01656 50.0612L4.13752 49.9787C4.2359 49.9141 4.33547 49.851 4.43487 49.7881C4.53426 49.7251 4.63366 49.6622 4.73424 49.6008C4.76039 49.585 4.82863 49.5184 4.86039 49.5269C5.3748 49.6649 5.88672 49.8663 6.39515 50.1315L6.2742 50.214C6.17581 50.2786 6.07642 50.3416 5.97685 50.4046C5.87745 50.4676 5.77791 50.5303 5.67733 50.5917C5.65733 50.6037 5.57326 50.677 5.55118 50.6656Z" fill="#C73E51"/>
<g clip-path="url(#clip1_8841_158)">
<path d="M10.3977 30.736C7.84849 30.736 6 28.84 6 26.368C6 23.896 7.84849 22 10.3977 22C11.9321 22 13.2852 22.756 14.0222 23.944L12.3549 24.904C11.9804 24.256 11.2555 23.872 10.3977 23.872C8.89959 23.872 7.93306 24.868 7.93306 26.368C7.93306 27.868 8.89959 28.864 10.3977 28.864C11.2555 28.864 11.9925 28.48 12.3549 27.832L14.0222 28.792C13.2973 29.98 11.9441 30.736 10.3977 30.736ZM19.3124 24.568H21.1246V30.568H19.3124V30.004C18.9137 30.46 18.3217 30.736 17.5122 30.736C15.9295 30.736 14.6247 29.356 14.6247 27.568C14.6247 25.78 15.9295 24.4 17.5122 24.4C18.3217 24.4 18.9137 24.676 19.3124 25.132V24.568ZM17.8746 29.032C18.7083 29.032 19.3124 28.468 19.3124 27.568C19.3124 26.668 18.7083 26.104 17.8746 26.104C17.041 26.104 16.4369 26.668 16.4369 27.568C16.4369 28.468 17.041 29.032 17.8746 29.032ZM26.8398 22.168H28.652V30.568H26.8398V30.004C26.4411 30.46 25.8491 30.736 25.0396 30.736C23.4569 30.736 22.1521 29.356 22.1521 27.568C22.1521 25.78 23.4569 24.4 25.0396 24.4C25.8491 24.4 26.4411 24.676 26.8398 25.132V22.168ZM25.4021 29.032C26.2357 29.032 26.8398 28.468 26.8398 27.568C26.8398 26.668 26.2357 26.104 25.4021 26.104C24.5684 26.104 23.9644 26.668 23.9644 27.568C23.9644 28.468 24.5684 29.032 25.4021 29.032ZM32.8812 30.736C31.1052 30.736 29.6795 29.356 29.6795 27.568C29.6795 25.78 31.1052 24.4 32.8812 24.4C34.6572 24.4 36.0828 25.78 36.0828 27.568C36.0828 29.356 34.6572 30.736 32.8812 30.736ZM32.8812 28.984C33.6665 28.984 34.2706 28.42 34.2706 27.568C34.2706 26.716 33.6665 26.152 32.8812 26.152C32.0959 26.152 31.4918 26.716 31.4918 27.568C31.4918 28.42 32.0959 28.984 32.8812 28.984ZM41.0102 24.568H42.8225V30.568H41.0102V30.004C40.684 30.448 40.0799 30.736 39.2825 30.736C38.0623 30.736 37.0233 29.872 37.0233 28.252V24.568H38.8355V27.988C38.8355 28.732 39.3067 29.08 39.8866 29.08C40.5511 29.08 41.0102 28.696 41.0102 27.844V24.568Z" fill="#C73E51"/>
</g>
</g>
<defs>
<clipPath id="clip0_8841_158">
<rect width="50" height="50" rx="25" fill="white"/>
</clipPath>
<clipPath id="clip1_8841_158">
<rect width="37" height="9" fill="white" transform="translate(6 22)"/>
</clipPath>
</defs>
</svg>
