<svg width="27" height="26" viewBox="0 0 27 26" fill="none" xmlns="http://www.w3.org/2000/svg">
<path d="M3.82352 6.32988C3.82426 6.29723 3.82538 6.24827 3.82612 6.21562C4.04482 4.63626 4.99158 3.17151 6.47757 2.09473C9.94539 -0.439545 15.4838 -0.313245 18.8325 2.37647L23.4171 6.05805C25.0516 7.36933 25.9457 9.10473 25.904 10.9331C25.8623 12.7615 24.9103 14.4548 23.1974 15.6898C19.7296 18.224 14.1912 18.0977 10.8425 15.408L8.55006 13.5754C7.95224 13.0881 7.94939 12.3204 8.5286 11.8436C9.1281 11.3672 10.082 11.3727 10.6802 11.8436L12.9727 13.6763C15.1851 15.4581 18.857 15.5418 21.1281 13.8622C23.2748 12.2942 23.3396 9.45365 21.267 7.77303L16.6825 4.09146C14.47 2.30966 10.798 2.22592 8.52695 3.90548C7.57773 4.58617 6.98812 5.52006 6.84369 6.5131C6.74728 7.18058 5.98547 7.6532 5.15518 7.56894C4.38538 7.50238 3.80937 6.95023 3.82352 6.32988Z" fill="white"/>
<path d="M0.236397 14.6403C0.278092 12.8119 1.2301 11.1186 2.94298 9.88362C6.4108 7.34934 11.9492 7.47564 15.2979 10.1654L17.5903 11.998C18.1882 12.4853 18.191 13.253 17.6118 13.7298C17.0123 14.2061 16.0584 14.2007 15.4602 13.7297L13.1677 11.8971C10.9553 10.1153 7.28335 10.0316 5.01229 11.7111C2.86556 13.2792 2.7805 16.1193 4.87343 17.8004L9.45794 21.4819C11.6704 23.2637 15.3424 23.3475 17.6134 21.6679C18.5627 20.9872 19.1523 20.0533 19.2967 19.0603C19.3931 18.3928 20.1549 17.9202 20.9852 18.0044C21.8155 18.0887 22.431 18.6907 22.3139 19.3741C22.0749 20.953 21.1484 22.4182 19.6625 23.495C16.1946 26.0293 10.6562 25.903 7.30754 23.2133L2.72296 19.5317C1.06854 18.2036 0.194702 16.4687 0.236397 14.6403Z" fill="white"/>
</svg>
