<svg width="50" height="50" viewBox="0 0 50 50" fill="none" xmlns="http://www.w3.org/2000/svg">
<rect width="50" height="50" rx="24" fill="#F72E50"/>
<path d="M10.9957 32.3101C10.2092 32.3101 9.51673 32.1595 8.91824 31.8574C8.30824 31.5486 7.83635 31.1333 7.50354 30.6096C7.16785 30.0802 7 29.4941 7 28.8515C7 28.3739 7.08728 27.9317 7.26184 27.527C7.44311 27.105 7.70112 26.7635 8.03393 26.5036C8.3936 26.2235 8.80794 26.0826 9.27791 26.0826C9.48891 26.0826 9.66635 26.1401 9.80926 26.2552C9.99149 26.401 10.0826 26.5966 10.0826 26.8422C10.0826 27.1079 10.1545 27.3419 10.2984 27.5442C10.4519 27.7601 10.6658 27.9289 10.9372 28.0497C11.2316 28.1801 11.5625 28.2454 11.9308 28.2454C12.3739 28.2454 12.7375 28.1466 13.0223 27.949C13.3216 27.7409 13.5623 27.4483 13.7436 27.0695C13.7263 27.104 13.7186 27.152 13.7225 27.2124C13.7282 27.3064 13.7627 27.387 13.8241 27.4551C13.8606 27.4944 13.9057 27.526 13.9594 27.551C14.0409 27.5884 14.1272 27.6018 14.2174 27.5922C14.3305 27.5788 14.4188 27.5366 14.4802 27.4666L14.0476 27.0877L14.508 27.433C14.2442 27.785 13.9325 28.0593 13.5748 28.2578C13.2017 28.464 12.7864 28.5676 12.3298 28.5676C11.5395 28.5676 10.8854 28.2358 10.3655 27.5721C9.88023 26.9515 9.63758 26.0893 9.63758 24.9863C9.63758 24.102 9.80351 23.2599 10.1344 22.458C10.4615 21.6639 10.9122 20.9561 11.4848 20.3326C12.0603 19.7073 12.7202 19.2124 13.4654 18.8479C14.225 18.4767 15.0221 18.2916 15.8575 18.2916C16.8329 18.2916 17.5839 18.5506 18.1095 19.0704C18.638 19.5922 18.9017 20.2501 18.9017 21.0443C18.9017 21.6303 18.7607 22.1367 18.4768 22.5655C18.2006 22.9836 17.8476 23.3001 17.4189 23.514C16.9998 23.7231 16.5567 23.8286 16.0877 23.8286C15.8258 23.8286 15.5822 23.7586 15.3568 23.6205C15.1717 23.5064 15.048 23.3558 14.9856 23.1707C14.9204 22.9721 14.9338 22.7717 15.0288 22.5674C15.1084 22.3909 15.1237 22.2307 15.0748 22.0878C15.0739 22.084 15.0729 22.0811 15.0719 22.0792C15.0719 22.0801 15.0729 22.0811 15.0739 22.0821L15.0748 22.084C15.0317 22.061 14.9559 22.0485 14.8456 22.0485C14.6039 22.0485 14.3919 22.1108 14.2078 22.2346C14.0035 22.3717 13.8414 22.5482 13.7234 22.764C13.6074 22.974 13.5489 23.1937 13.5489 23.422C13.5489 23.7126 13.6323 23.9495 13.7973 24.1307C13.9498 24.2967 14.1809 24.3801 14.4926 24.3801C14.6921 24.3801 14.8916 24.3456 15.0911 24.2746C15.2561 24.2171 15.4076 24.1077 15.5458 23.9495L15.5525 23.9418L15.5592 23.9351C15.8162 23.6579 16.1107 23.5303 16.4416 23.5534C16.7331 23.5735 16.9806 23.6857 17.1849 23.889C17.3048 24.0099 17.3882 24.148 17.4333 24.3034C17.4784 24.4578 17.4832 24.618 17.4477 24.7849C17.299 25.4131 17.1398 25.9799 16.971 26.4873L16.4329 28.0842C16.1663 28.8956 15.7721 29.6188 15.2513 30.2518C14.7238 30.8925 14.1004 31.3942 13.3781 31.7577C12.6483 32.126 11.8531 32.3101 10.9957 32.3101ZM10.9957 31.1601C11.6709 31.1601 12.2934 31.0163 12.8612 30.7304C13.4376 30.4398 13.9383 30.036 14.3632 29.521C14.7928 28.9992 15.1189 28.3979 15.3434 27.7169L15.8795 26.1238C16.0378 25.649 16.1855 25.1225 16.3226 24.5432C16.3178 24.5671 16.3198 24.594 16.3294 24.6256C16.3389 24.6583 16.3524 24.6842 16.3716 24.7024C16.3706 24.7024 16.3677 24.7014 16.362 24.7014C16.3879 24.7024 16.4109 24.6985 16.431 24.689V24.6899C16.4224 24.6966 16.4128 24.7062 16.4013 24.7177L15.9802 24.3264L16.4147 24.7043C16.1433 25.016 15.8297 25.2337 15.4738 25.3594C15.1516 25.4735 14.8235 25.5311 14.4926 25.5311C13.8424 25.5311 13.3273 25.3229 12.9475 24.9057C12.5821 24.5048 12.3989 24.0099 12.3989 23.422C12.3989 22.9961 12.5044 22.5914 12.7154 22.2087C12.9245 21.8308 13.2074 21.521 13.5652 21.2802C13.944 21.0261 14.3699 20.8985 14.8456 20.8985C15.1544 20.8985 15.4163 20.958 15.6321 21.0779C15.891 21.2217 16.0685 21.4347 16.1644 21.7186C16.3102 22.1482 16.2795 22.5914 16.0733 23.0489C16.1059 22.9779 16.1078 22.8973 16.0771 22.8062C16.0512 22.7276 16.0119 22.6729 15.9591 22.6403C16.0004 22.6652 16.0426 22.6777 16.0877 22.6777C16.3754 22.6777 16.6478 22.6134 16.9039 22.4859C17.1494 22.3621 17.3547 22.178 17.5177 21.9315C17.674 21.6946 17.7517 21.3992 17.7517 21.0443C17.7517 20.5705 17.6021 20.1859 17.3019 19.8895C16.9998 19.5903 16.5183 19.4416 15.8575 19.4416C15.1995 19.4416 14.5703 19.5884 13.9709 19.8818C13.3551 20.182 12.8094 20.5926 12.3317 21.1114C11.8512 21.6342 11.4733 22.2288 11.1971 22.8973C10.9247 23.5581 10.7885 24.2545 10.7885 24.9863C10.7885 25.8255 10.9497 26.4509 11.2719 26.8633C11.5606 27.2325 11.9136 27.4176 12.3298 27.4176C12.5888 27.4176 12.818 27.362 13.0175 27.2517C13.2324 27.1328 13.4223 26.963 13.5872 26.7424L13.6007 26.7252L13.615 26.7089C13.7484 26.5564 13.9047 26.47 14.085 26.4489C14.2087 26.4345 14.3267 26.4537 14.4408 26.5055C14.5262 26.5448 14.602 26.6014 14.6701 26.6743C14.7928 26.8076 14.86 26.964 14.8705 27.1424C14.8801 27.2872 14.8494 27.4282 14.7813 27.5653C14.5128 28.1274 14.1445 28.5705 13.6774 28.8947C13.1959 29.2285 12.6137 29.3953 11.9308 29.3953C11.3995 29.3953 10.9132 29.2975 10.4701 29.1009C10.0068 28.8947 9.63662 28.5983 9.36135 28.2108C9.07553 27.8099 8.93263 27.3534 8.93263 26.8422C8.93263 26.8882 8.94222 26.9352 8.96236 26.9832C8.99017 27.0503 9.03333 27.1069 9.09088 27.1529C9.13404 27.1884 9.18104 27.2124 9.22995 27.2249C9.25009 27.2306 9.26544 27.2335 9.27791 27.2335C9.0717 27.2335 8.8933 27.292 8.74176 27.4109C8.56336 27.55 8.42237 27.7399 8.31783 27.9826C8.20657 28.2415 8.14998 28.5312 8.14998 28.8515C8.14998 29.2716 8.25836 29.6514 8.47417 29.9919C8.6938 30.3382 9.01511 30.6173 9.43712 30.8302C9.8716 31.0498 10.3914 31.1601 10.9957 31.1601Z" fill="#F72E50"/>
<path d="M20.1356 22.5856C19.6617 22.5856 19.2474 22.4791 18.8906 22.2672C18.6566 22.1271 18.4811 21.9334 18.365 21.685C18.2624 21.4663 18.2106 21.2112 18.2106 20.9215C18.2106 20.1734 18.4475 19.643 18.9213 19.3294C19.3193 19.0666 19.7855 18.9352 20.3197 18.9352C20.8213 18.9352 21.2539 19.0522 21.6193 19.2872C21.8658 19.4454 22.0404 19.6679 22.1411 19.9566C22.2264 20.1974 22.2552 20.4794 22.2274 20.8016C22.1698 21.4605 21.9195 21.9324 21.4745 22.2182C21.0937 22.4628 20.6477 22.5856 20.1356 22.5856ZM20.1356 21.4356C20.4223 21.4356 20.6611 21.3742 20.852 21.2505C20.9805 21.168 21.0563 20.9858 21.0812 20.7038C21.1023 20.4535 21.0745 20.3048 20.9988 20.2549C20.8223 20.1427 20.5959 20.0861 20.3197 20.0861C20.0157 20.0861 19.7615 20.1533 19.5562 20.2895C19.4258 20.3748 19.3615 20.5858 19.3615 20.9215C19.3615 21.1124 19.4009 21.2323 19.4795 21.2793C19.655 21.3829 19.8737 21.4356 20.1356 21.4356ZM18.4331 30.8839C18.085 30.8839 17.779 30.8158 17.5143 30.6796C17.2323 30.5348 17.0098 30.3199 16.8458 30.0351C16.5801 29.5737 16.4468 29.0251 16.4468 28.3911C16.4468 27.9989 16.4861 27.5874 16.5638 27.1548C16.6396 26.7328 16.7364 26.3281 16.8554 25.9377C17.2275 24.781 17.591 23.8862 17.9478 23.2541C18.3947 22.4609 18.951 22.0638 19.6147 22.0638C19.9792 22.0638 20.2622 22.1981 20.4645 22.4657C20.6285 22.6825 20.711 22.9712 20.711 23.3299C20.711 23.7039 20.641 24.0847 20.5 24.4703L20.1547 25.4198C20.0655 25.6682 20.0205 25.8965 20.0205 26.1056C20.0205 26.1717 20.0272 26.2226 20.0396 26.259C20.0416 26.2676 20.0444 26.2734 20.0464 26.2772C20.0464 26.2763 20.0454 26.2753 20.0444 26.2744C20.0598 26.2897 20.0905 26.2974 20.1356 26.2974C20.2238 26.2974 20.2919 26.2753 20.3408 26.2312C20.4655 26.119 20.5911 25.9694 20.7187 25.7814C20.8194 25.6308 20.9479 25.5205 21.1033 25.4524C21.2731 25.3776 21.4534 25.3632 21.6433 25.4083C21.8975 25.4697 22.1085 25.6039 22.2782 25.813C22.3828 25.9435 22.4489 26.0816 22.4758 26.2283C22.5084 26.4125 22.4787 26.588 22.3876 26.753L22.3799 26.7664L22.3722 26.7789C22.284 26.9198 22.1756 27.1328 22.048 27.4157C21.9042 27.7351 21.7325 28.0804 21.5311 28.4506C21.322 28.8362 21.0822 29.2026 20.8127 29.5498C20.523 29.9209 20.1941 30.2298 19.8238 30.4734C19.4114 30.7467 18.9472 30.8839 18.4331 30.8839ZM18.4331 29.7329C18.717 29.7329 18.9693 29.6601 19.1899 29.5143C19.4546 29.3397 19.6924 29.1153 19.9044 28.8429C20.1356 28.5456 20.3408 28.2319 20.5202 27.902C20.7072 27.5567 20.8674 27.2373 20.9997 26.9438C21.1484 26.6129 21.2807 26.3549 21.3968 26.1689L21.884 26.4739L21.3814 26.1948C21.3412 26.2676 21.3277 26.3473 21.3431 26.4317C21.3517 26.4787 21.3651 26.5141 21.3834 26.5372C21.3786 26.5314 21.3757 26.5276 21.3738 26.5266H21.3747C21.4361 26.542 21.4994 26.5352 21.5656 26.5055C21.6155 26.4834 21.65 26.4585 21.6692 26.4297C21.4898 26.6925 21.3047 26.9112 21.1119 27.0848C20.8443 27.3265 20.5182 27.4483 20.1356 27.4483C19.773 27.4483 19.4709 27.3275 19.2311 27.0877C18.9904 26.8479 18.8705 26.5199 18.8705 26.1056C18.8705 25.7632 18.9386 25.4035 19.0738 25.0275L19.4191 24.0761C19.5131 23.8171 19.561 23.5687 19.561 23.3299C19.561 23.2618 19.5553 23.2081 19.5457 23.1678C19.5428 23.1582 19.5409 23.1515 19.539 23.1467C19.5399 23.1496 19.5428 23.1534 19.5467 23.1591C19.563 23.1802 19.5841 23.1975 19.61 23.209C19.6176 23.2119 19.6243 23.2148 19.6301 23.2157C19.6272 23.2148 19.6215 23.2148 19.6147 23.2148C19.3989 23.2148 19.1774 23.4162 18.9501 23.819C18.6317 24.3839 18.2998 25.2021 17.9555 26.2744C17.85 26.6206 17.7636 26.9812 17.6956 27.3582C17.6303 27.7226 17.5977 28.067 17.5977 28.3911C17.5977 28.8208 17.6792 29.1776 17.8433 29.4615C17.8941 29.5507 17.9593 29.615 18.0408 29.6572C18.1396 29.708 18.2701 29.7329 18.4331 29.7329Z" fill="#F72E50"/>
<path d="M26.2092 18C26.8537 18 27.3467 18.1631 27.6881 18.4892C28.0238 18.8095 28.2099 19.2008 28.2473 19.6641C28.2789 20.0611 28.2262 20.4592 28.0871 20.8582C27.9471 21.2581 27.7437 21.5986 27.4771 21.8787C27.1539 22.2172 26.7923 22.3861 26.3933 22.3861C26.1631 22.3861 25.9713 22.3314 25.8178 22.222C25.7085 22.1444 25.626 22.0446 25.5704 21.9247C25.5205 21.8192 25.4956 21.7041 25.4956 21.5814C25.4956 21.5065 25.4898 21.4471 25.4783 21.402C25.4754 21.3895 25.4725 21.3809 25.4697 21.3742C25.4697 21.3742 25.4716 21.3771 25.4735 21.3799C25.4869 21.3972 25.5032 21.4106 25.5234 21.4193C25.5282 21.4202 25.5311 21.4221 25.532 21.4221C25.5253 21.4202 25.5157 21.4202 25.5032 21.4202C25.3757 21.4202 25.2491 21.5094 25.1234 21.6888C24.9153 21.9861 24.7331 22.3678 24.5767 22.8368L24.031 22.6546V22.0791H25.6414C25.86 22.0791 26.0423 22.1587 26.19 22.317C26.2945 22.4302 26.3664 22.574 26.4039 22.7486C26.4509 22.9692 26.4489 23.209 26.3981 23.4699C26.3473 23.7317 26.2514 23.9657 26.1104 24.1739C26.0116 24.3196 25.8926 24.4319 25.7526 24.5115C25.602 24.5978 25.4371 24.6409 25.2587 24.6409V23.491C25.2404 23.491 25.2222 23.4919 25.204 23.4929C25.1656 23.4967 25.1273 23.5044 25.0899 23.5169C25.016 23.5389 24.9489 23.5754 24.8904 23.6252C24.8136 23.6895 24.757 23.7691 24.7225 23.8621C24.6736 23.9897 24.6717 24.1182 24.7148 24.2477C24.7868 24.4645 24.9345 24.592 25.158 24.6314C25.1647 24.6323 25.1704 24.6333 25.1752 24.6342C25.1752 24.6342 25.1752 24.6342 25.1733 24.6342C25.1608 24.6323 25.1369 24.6304 25.1033 24.6266C25.0304 24.6189 24.9153 24.6074 24.758 24.592C24.4463 24.5623 24.0732 24.5316 23.6387 24.5019L23.678 23.9274L24.2401 24.0501C24.1212 24.5978 24.0243 25.1454 23.9495 25.6931C23.8727 26.2532 23.8094 26.7366 23.7586 27.1433C23.7183 27.5106 23.6838 27.8799 23.6541 28.2539C23.6195 28.6673 23.5553 29.051 23.4584 29.402C23.3452 29.8173 23.1553 30.1578 22.8887 30.4235C22.5818 30.7304 22.1607 30.8838 21.6236 30.8838C21.2965 30.8838 21.0165 30.8244 20.7834 30.7074C20.5101 30.5693 20.3106 30.3611 20.1859 30.0839C20.0008 29.6725 19.9682 29.097 20.089 28.3594C20.1945 27.7178 20.372 26.9188 20.6223 25.9607C20.7364 25.5531 20.8506 25.156 20.9637 24.7704C21.0788 24.3791 21.1987 24.0003 21.3244 23.6339L21.8682 23.8209V24.3954H21.6543C21.1421 24.3954 20.769 24.2832 20.535 24.0597C20.4084 23.9379 20.3182 23.8008 20.2626 23.6483C20.2051 23.4862 20.1907 23.3183 20.2195 23.1428C20.2636 22.8829 20.372 22.6527 20.5446 22.4542C20.7623 22.2038 21.004 22.0791 21.2706 22.0791H22.2979V22.6546L21.7636 22.4407C22.1051 21.59 22.4791 20.8447 22.8868 20.206C23.3145 19.5365 23.7922 19.009 24.3216 18.6234C24.8932 18.2081 25.5224 18 26.2092 18ZM26.2092 19.15C25.7718 19.15 25.368 19.2843 24.9987 19.5538C24.5873 19.854 24.2065 20.2769 23.8564 20.8246C23.4872 21.403 23.1457 22.0839 22.8321 22.8685L22.6873 23.2301H21.2706C21.3311 23.2301 21.3838 23.2167 21.426 23.1908C21.4299 23.1888 21.4337 23.1869 21.4356 23.184V23.185C21.4299 23.1898 21.4222 23.1984 21.4126 23.209C21.3819 23.2445 21.3627 23.2857 21.3551 23.3317C21.3579 23.3106 21.3551 23.2867 21.3464 23.2598C21.3416 23.2483 21.3368 23.2387 21.3311 23.2301V23.2291C21.3176 23.2167 21.3071 23.208 21.2985 23.2042C21.3071 23.208 21.3215 23.2128 21.3416 23.2176C21.4174 23.2358 21.521 23.2454 21.6543 23.2454H22.6738L22.413 24.007C22.2931 24.357 22.178 24.7196 22.0677 25.0946C21.9555 25.4763 21.8452 25.8609 21.7349 26.2513C21.4941 27.1749 21.3234 27.9394 21.2246 28.5455C21.1412 29.0548 21.144 29.4106 21.2352 29.6121C21.2716 29.6926 21.4011 29.7329 21.6236 29.7329C21.8423 29.7329 21.9938 29.6926 22.0753 29.6101C22.1981 29.4874 22.2892 29.3166 22.3497 29.098C22.4264 28.816 22.4791 28.5033 22.507 28.1609C22.5376 27.7773 22.5751 27.3907 22.6173 27.0004C22.6681 26.5899 22.7323 26.1017 22.8091 25.5377C22.8887 24.9594 22.9903 24.382 23.117 23.8055L23.2225 23.3193L23.7183 23.3538C24.1634 23.3855 24.547 23.4161 24.8693 23.4478C25.0285 23.4631 25.1464 23.4747 25.2213 23.4823C25.2615 23.4862 25.2913 23.49 25.3105 23.4919C25.3287 23.4938 25.345 23.4967 25.3584 23.4986C25.5838 23.5389 25.7334 23.6674 25.8054 23.8842C25.8485 24.0127 25.8466 24.1412 25.7987 24.2688C25.7632 24.3628 25.7066 24.4414 25.6298 24.5057C25.5713 24.5556 25.5042 24.592 25.4303 24.615C25.3929 24.6266 25.3546 24.6342 25.3153 24.6381C25.2961 24.64 25.2778 24.6409 25.2587 24.6409V23.491C25.2328 23.491 25.2078 23.4977 25.1819 23.513C25.1714 23.5188 25.1628 23.5245 25.156 23.5312L25.158 23.5284C25.2107 23.4497 25.2481 23.3576 25.2692 23.2502C25.2894 23.1438 25.2932 23.0565 25.2788 22.9903C25.2855 23.0219 25.3085 23.0584 25.3469 23.0996C25.4275 23.1869 25.5253 23.2301 25.6414 23.2301H23.233L23.4853 22.4733C23.6771 21.8979 23.9092 21.4164 24.1816 21.0279C24.5364 20.5225 24.9767 20.2693 25.5032 20.2693C25.8811 20.2693 26.1756 20.4055 26.3847 20.6779C26.5592 20.9042 26.6465 21.2054 26.6465 21.5814C26.6465 21.5344 26.635 21.4864 26.6129 21.4384C26.5832 21.3761 26.541 21.3253 26.4863 21.2859C26.4518 21.261 26.4182 21.2447 26.3856 21.237C26.3808 21.2361 26.378 21.2351 26.376 21.2351C26.3799 21.2361 26.3856 21.2361 26.3933 21.2361C26.4643 21.2361 26.5477 21.1852 26.6446 21.0845C26.7971 20.9244 26.9151 20.7229 27.0004 20.4793C27.0867 20.2328 27.1194 19.9921 27.1011 19.7561C27.0867 19.5845 27.0177 19.4396 26.893 19.3207C26.7741 19.2066 26.5468 19.15 26.2092 19.15Z" fill="#F72E50"/>
<path d="M26.3468 30.8839C25.5853 30.8839 25.0117 30.6326 24.6252 30.13C24.2751 29.6734 24.0996 29.097 24.0996 28.3988C24.0996 27.7677 24.2233 27.0944 24.4689 26.3789C24.6022 25.9876 24.7518 25.5646 24.9168 25.1119L25.4539 23.6387L25.9939 23.8362V24.4108C25.6102 24.4108 25.3033 24.2957 25.0741 24.0664C24.8775 23.8698 24.7499 23.6387 24.6895 23.372C24.631 23.114 24.6348 22.8781 24.7 22.6632C24.748 22.505 24.8266 22.3755 24.936 22.2758C25.0779 22.1453 25.2467 22.0791 25.4424 22.0791C25.7359 22.0791 25.9536 22.0091 26.0975 21.8681C26.2922 21.6782 26.4255 21.4845 26.4974 21.2898L26.5012 21.2802L26.5051 21.2716C26.7324 20.7143 26.9818 20.3441 27.2513 20.1619C27.5227 19.9777 27.8143 19.8866 28.126 19.8866C28.3859 19.8866 28.6094 19.9489 28.7955 20.0736C28.9997 20.2108 29.1388 20.4055 29.2146 20.6577C29.3287 21.0414 29.2357 21.5411 28.9345 22.1559L28.4176 21.9036L28.9403 22.1424C28.8559 22.3266 28.8118 22.4484 28.807 22.5088C28.8098 22.4705 28.805 22.4292 28.7926 22.3851C28.7705 22.3113 28.7312 22.247 28.6746 22.1923C28.6247 22.1444 28.5691 22.1118 28.5077 22.0926C28.4789 22.0839 28.454 22.0791 28.4329 22.0791H29.2309C29.4486 22.0791 29.6318 22.1588 29.7786 22.317C29.8841 22.4302 29.955 22.574 29.9924 22.7486C30.0394 22.9692 30.0375 23.209 29.9867 23.4699C29.9359 23.7317 29.8399 23.9657 29.6989 24.1739C29.6002 24.3196 29.4812 24.4319 29.3412 24.5115C29.1906 24.5978 29.0256 24.641 28.8472 24.641C28.407 24.641 28.0895 24.6563 27.8948 24.6879C27.8498 24.6947 27.8181 24.7033 27.7989 24.7148C27.8028 24.7129 27.8076 24.7071 27.8124 24.6985C27.75 24.7954 27.6762 24.992 27.5889 25.2864C27.4776 25.6499 27.4767 25.9137 27.586 26.0796C27.632 26.1506 27.6906 26.2024 27.7596 26.235C27.8459 26.2772 27.9581 26.2973 28.0953 26.2973C28.2996 26.2973 28.478 26.2542 28.6295 26.1669C28.7897 26.0748 28.9221 25.9492 29.0247 25.7919C29.1321 25.6298 29.2664 25.5166 29.4266 25.4495C29.6011 25.3776 29.7843 25.368 29.9761 25.4217C30.2169 25.4888 30.4183 25.6183 30.5813 25.8101C30.6926 25.9406 30.7617 26.0825 30.7885 26.2369C30.8192 26.4124 30.7933 26.5822 30.7108 26.7462L30.7079 26.752L30.7051 26.7587C30.6149 26.9285 30.4941 27.1644 30.3435 27.4675C30.1833 27.7869 29.9924 28.1321 29.7699 28.5033C29.5359 28.8927 29.2635 29.2601 28.9518 29.6054C28.6238 29.9679 28.2507 30.2671 27.8335 30.5031C27.3827 30.7563 26.8868 30.8839 26.3468 30.8839ZM26.3468 29.7329C26.6864 29.7329 26.9933 29.6552 27.2685 29.5008C27.5774 29.3262 27.8536 29.1047 28.0982 28.8342C28.3591 28.5446 28.5873 28.2367 28.783 27.9115C28.9902 27.5663 29.1676 27.2469 29.3143 26.9524C29.4697 26.6426 29.5944 26.3981 29.6884 26.2197L30.1967 26.4892L29.6826 26.2321C29.651 26.2935 29.6424 26.3616 29.6548 26.4355C29.6644 26.4863 29.6807 26.5266 29.7047 26.5554C29.6942 26.5419 29.6807 26.5333 29.6663 26.5295C29.7296 26.5467 29.7968 26.5419 29.8668 26.5122C29.9224 26.4892 29.9627 26.4585 29.9886 26.4201C29.7843 26.7328 29.5225 26.9802 29.2021 27.1644C28.8731 27.3533 28.5048 27.4483 28.0953 27.4483C27.7836 27.4483 27.5054 27.3898 27.2618 27.2718C27.0009 27.1471 26.7899 26.9611 26.6269 26.7146C26.3171 26.2465 26.2701 25.6624 26.4849 24.9623C26.6029 24.5613 26.7228 24.2659 26.8446 24.077C27.0297 23.7893 27.3194 23.6147 27.7136 23.5514C27.9687 23.5111 28.3466 23.491 28.8472 23.491C28.8223 23.491 28.7964 23.4977 28.7705 23.513C28.76 23.5188 28.7523 23.5245 28.7456 23.5312L28.7465 23.5284C28.8003 23.4497 28.8367 23.3576 28.8578 23.2502C28.8789 23.1438 28.8818 23.0565 28.8674 22.9903C28.8741 23.022 28.8971 23.0584 28.9355 23.0996C29.0161 23.1869 29.1148 23.2301 29.2309 23.2301H28.4329C28.2066 23.2301 28.0214 23.1601 27.8766 23.021C27.7126 22.8637 27.6407 22.6623 27.6599 22.4168C27.6762 22.2221 27.7539 21.9708 27.8948 21.6638L27.9006 21.6504C27.9994 21.45 28.0636 21.2821 28.0943 21.145C28.1135 21.0625 28.1193 21.0097 28.1116 20.9857C28.1106 20.9829 28.1106 20.9819 28.1106 20.981C28.1116 20.9848 28.1135 20.9886 28.1174 20.9925C28.127 21.0068 28.1394 21.0193 28.1548 21.0289C28.1644 21.0356 28.172 21.0395 28.1768 21.0404C28.1663 21.0385 28.149 21.0366 28.126 21.0366C28.0493 21.0366 27.9725 21.0625 27.8968 21.1143C27.8757 21.1277 27.8421 21.1718 27.7961 21.2457C27.7241 21.3588 27.6493 21.5133 27.5697 21.707L27.0374 21.4893L27.5764 21.6888C27.4441 22.0456 27.2196 22.3793 26.9031 22.6901C26.5358 23.0498 26.0485 23.2301 25.4424 23.2301C25.546 23.2301 25.6361 23.1936 25.7148 23.1217C25.7598 23.0805 25.7877 23.0392 25.8001 22.9989C25.7944 23.0191 25.7982 23.0594 25.8116 23.1188C25.8231 23.1687 25.8481 23.2138 25.8874 23.2531C25.8845 23.2502 25.8817 23.2474 25.8788 23.2454C25.8788 23.2454 25.8807 23.2464 25.8836 23.2474C25.9085 23.256 25.9459 23.2608 25.9939 23.2608H26.8158L25.9977 25.5051C25.8356 25.9511 25.6889 26.3674 25.5565 26.7529C25.3522 27.3466 25.2506 27.8952 25.2506 28.3988C25.2506 28.8361 25.3465 29.1795 25.5373 29.4289C25.6937 29.6322 25.9632 29.7329 26.3468 29.7329Z" fill="#F72E50"/>
<path d="M32.0366 30.8839C31.3029 30.8839 30.689 30.7113 30.196 30.365C29.7107 30.0255 29.353 29.5766 29.1209 29.0184C28.9012 28.4909 28.7948 27.9145 28.8005 27.2891C28.8063 26.681 28.9108 26.0749 29.1141 25.4697C29.3184 24.8626 29.6138 24.3063 30.0004 23.8008C30.3965 23.2829 30.877 22.8657 31.4429 22.5511C32.026 22.2269 32.6792 22.0638 33.4024 22.0638C33.9874 22.0638 34.4766 22.1809 34.8689 22.413C35.2698 22.6508 35.5671 22.9702 35.7608 23.3711C35.9421 23.7461 36.0323 24.147 36.0323 24.5719C36.0323 25.04 35.9066 25.5004 35.6534 25.9559C35.4031 26.4067 35.054 26.7789 34.6061 27.0704C34.1428 27.3735 33.6028 27.5251 32.988 27.5251C32.7444 27.5251 32.5066 27.5068 32.2735 27.4723C31.9953 27.4301 31.7383 27.34 31.5004 27.1999C31.5541 27.2325 31.6165 27.2508 31.6846 27.2536C31.7421 27.2565 31.7958 27.2479 31.8438 27.2277C31.9483 27.1836 32.0241 27.1126 32.0721 27.0119C32.0951 26.9659 32.1056 26.9247 32.1056 26.8882L32.1028 26.8873C32.1219 26.9112 32.1641 26.9381 32.2313 26.9678C32.4691 27.0733 32.7674 27.1261 33.1261 27.1261C33.5606 27.1261 34.0172 27.0119 34.4967 26.7827C34.9571 26.5631 35.3312 26.2331 35.6199 25.791C35.7282 25.6289 35.8644 25.5138 36.0275 25.4476C36.2001 25.3776 36.3824 25.369 36.5732 25.4198C36.8216 25.4869 37.0278 25.6164 37.1918 25.8102C37.3089 25.9483 37.3779 26.0998 37.399 26.2648C37.422 26.447 37.3837 26.6206 37.2849 26.7856L36.7919 26.4892L37.2974 26.7626C36.5866 28.0775 35.7992 29.0846 34.937 29.7819C34.0287 30.5166 33.0619 30.8839 32.0366 30.8839ZM32.0366 29.733C32.7905 29.733 33.5165 29.451 34.2138 28.887C34.9571 28.2866 35.6477 27.3956 36.2855 26.2159L36.2922 26.2044L36.2989 26.1938C36.2615 26.2562 36.2471 26.3271 36.2577 26.4077C36.2653 26.47 36.2845 26.519 36.3152 26.5554C36.3056 26.5439 36.2922 26.5353 36.274 26.5305C36.3315 26.5468 36.3939 26.541 36.4591 26.5142C36.5147 26.4921 36.556 26.4604 36.5828 26.4202C36.1761 27.0426 35.6457 27.5088 34.9916 27.8214C34.3557 28.1245 33.7342 28.2761 33.1261 28.2761C32.6053 28.2761 32.1517 28.1907 31.7661 28.02C31.5206 27.9116 31.3297 27.7687 31.1926 27.5903C31.0343 27.386 30.9557 27.152 30.9557 26.8882C30.9557 26.7501 30.9825 26.6254 31.0353 26.5142C31.1139 26.3511 31.2357 26.2341 31.4016 26.165C31.6414 26.0653 31.8687 26.0797 32.0836 26.2082C32.1929 26.2725 32.3138 26.3147 32.4442 26.3348C32.6207 26.3607 32.802 26.3741 32.988 26.3741C33.3746 26.3741 33.7045 26.2849 33.9769 26.1075C34.2656 25.9185 34.4891 25.6826 34.6483 25.3968C34.8036 25.1158 34.8823 24.8405 34.8823 24.5719C34.8823 24.3226 34.8295 24.0885 34.725 23.8708C34.632 23.679 34.4843 23.5227 34.2819 23.4028C34.0709 23.2771 33.7774 23.2148 33.4024 23.2148C32.8777 23.2148 32.4116 23.3289 32.0021 23.5562C31.5762 23.7931 31.2137 24.1077 30.9144 24.499C30.6046 24.9038 30.3687 25.3498 30.2047 25.837C30.0397 26.3262 29.9553 26.8134 29.9515 27.2997C29.9467 27.7687 30.0244 28.1945 30.1826 28.5772C30.3294 28.9292 30.5538 29.2112 30.8569 29.4232C31.1513 29.6303 31.5446 29.733 32.0366 29.733ZM32.589 25.2241C32.7137 25.2241 32.8039 25.1934 32.8576 25.1321C32.9295 25.0525 32.965 24.9882 32.965 24.9402C32.965 24.9201 32.9593 24.9048 32.9487 24.8932C32.9516 24.8971 32.9554 24.9 32.9593 24.9019C32.9593 24.9019 32.9573 24.9019 32.9545 24.9009C32.9276 24.8913 32.8873 24.8865 32.8346 24.8865C32.7032 24.8865 32.6073 24.9182 32.5468 24.9824C32.4778 25.0553 32.4432 25.1186 32.4432 25.1704C32.4432 25.1839 32.4519 25.2002 32.4682 25.2184C32.4634 25.2136 32.4596 25.2098 32.4557 25.2069C32.4548 25.2069 32.4538 25.2059 32.4538 25.2059C32.4557 25.2069 32.4576 25.2078 32.4596 25.2088C32.4893 25.2184 32.5324 25.2241 32.589 25.2241ZM32.589 26.3741C32.1757 26.3741 31.8524 26.2485 31.6213 25.9972C31.4026 25.7593 31.2933 25.4831 31.2933 25.1704C31.2933 24.8136 31.4323 24.4875 31.7105 24.1921C31.9982 23.8881 32.3732 23.7365 32.8346 23.7365C33.2336 23.7365 33.5482 23.8564 33.7793 24.0972C34.0028 24.3312 34.115 24.6122 34.115 24.9402C34.115 25.2807 33.9826 25.6001 33.716 25.8984C33.4331 26.2159 33.0571 26.3741 32.589 26.3741Z" fill="#F72E50"/>
<path d="M38.6313 30.8839C37.8976 30.8839 37.2837 30.7113 36.7908 30.365C36.3054 30.0255 35.9477 29.5766 35.7156 29.0184C35.4959 28.4909 35.3895 27.9145 35.3952 27.2891C35.401 26.681 35.5055 26.0749 35.7089 25.4697C35.9132 24.8626 36.2086 24.3063 36.5951 23.8008C36.9912 23.2829 37.4717 22.8657 38.0376 22.5511C38.6208 22.2269 39.2739 22.0638 39.9971 22.0638C40.5822 22.0638 41.0713 22.1809 41.4636 22.413C41.8645 22.6508 42.1618 22.9702 42.3556 23.3711C42.5368 23.7461 42.627 24.147 42.627 24.5719C42.627 25.04 42.5014 25.5004 42.2481 25.9559C41.9978 26.4067 41.6487 26.7789 41.2008 27.0704C40.7375 27.3735 40.1976 27.5251 39.5828 27.5251C39.3391 27.5251 39.1013 27.5068 38.8682 27.4723C38.5901 27.4301 38.333 27.34 38.0952 27.1999C38.1489 27.2325 38.2112 27.2508 38.2793 27.2536C38.3369 27.2565 38.3906 27.2479 38.4385 27.2277C38.5431 27.1836 38.6188 27.1126 38.6668 27.0119C38.6898 26.9659 38.7004 26.9247 38.7004 26.8882L38.6975 26.8873C38.7167 26.9112 38.7589 26.9381 38.826 26.9678C39.0639 27.0733 39.3622 27.1261 39.7209 27.1261C40.1553 27.1261 40.6119 27.0119 41.0915 26.7827C41.5518 26.5631 41.9259 26.2331 42.2146 25.791C42.323 25.6289 42.4592 25.5138 42.6222 25.4476C42.7948 25.3776 42.9771 25.369 43.1679 25.4198C43.4164 25.4869 43.6226 25.6164 43.7866 25.8102C43.9036 25.9483 43.9726 26.0998 43.9937 26.2648C44.0168 26.447 43.9784 26.6206 43.8796 26.7856L43.3866 26.4892L43.8921 26.7626C43.1814 28.0775 42.3939 29.0846 41.5317 29.7819C40.6234 30.5166 39.6566 30.8839 38.6313 30.8839ZM38.6313 29.733C39.3852 29.733 40.1112 29.451 40.8085 28.887C41.5518 28.2866 42.2424 27.3956 42.8802 26.2159L42.8869 26.2044L42.8936 26.1938C42.8562 26.2562 42.8418 26.3271 42.8524 26.4077C42.8601 26.47 42.8792 26.519 42.9099 26.5554C42.9003 26.5439 42.8869 26.5353 42.8687 26.5305C42.9262 26.5468 42.9886 26.541 43.0538 26.5142C43.1094 26.4921 43.1507 26.4604 43.1775 26.4202C42.7709 27.0426 42.2405 27.5088 41.5864 27.8214C40.9505 28.1245 40.329 28.2761 39.7209 28.2761C39.2001 28.2761 38.7464 28.1907 38.3608 28.02C38.1153 27.9116 37.9244 27.7687 37.7873 27.5903C37.629 27.386 37.5504 27.152 37.5504 26.8882C37.5504 26.7501 37.5772 26.6254 37.63 26.5142C37.7086 26.3511 37.8304 26.2341 37.9964 26.165C38.2362 26.0653 38.4635 26.0797 38.6783 26.2082C38.7876 26.2725 38.9085 26.3147 39.0389 26.3348C39.2154 26.3607 39.3967 26.3741 39.5828 26.3741C39.9693 26.3741 40.2992 26.2849 40.5716 26.1075C40.8603 25.9185 41.0838 25.6826 41.243 25.3968C41.3984 25.1158 41.477 24.8405 41.477 24.5719C41.477 24.3226 41.4243 24.0885 41.3197 23.8708C41.2267 23.679 41.079 23.5227 40.8766 23.4028C40.6656 23.2771 40.3721 23.2148 39.9971 23.2148C39.4725 23.2148 39.0063 23.3289 38.5968 23.5562C38.1709 23.7931 37.8084 24.1077 37.5091 24.499C37.1993 24.9038 36.9634 25.3498 36.7994 25.837C36.6344 26.3262 36.55 26.8134 36.5462 27.2997C36.5414 27.7687 36.6191 28.1945 36.7773 28.5772C36.9241 28.9292 37.1485 29.2112 37.4516 29.4232C37.746 29.6303 38.1393 29.733 38.6313 29.733ZM39.1838 25.2241C39.3084 25.2241 39.3986 25.1934 39.4523 25.1321C39.5242 25.0525 39.5597 24.9882 39.5597 24.9402C39.5597 24.9201 39.554 24.9048 39.5434 24.8932C39.5463 24.8971 39.5501 24.9 39.554 24.9019C39.554 24.9019 39.5521 24.9019 39.5492 24.9009C39.5223 24.8913 39.482 24.8865 39.4293 24.8865C39.2979 24.8865 39.202 24.9182 39.1416 24.9824C39.0725 25.0553 39.038 25.1186 39.038 25.1704C39.038 25.1839 39.0466 25.2002 39.0629 25.2184C39.0581 25.2136 39.0543 25.2098 39.0504 25.2069C39.0495 25.2069 39.0485 25.2059 39.0485 25.2059C39.0504 25.2069 39.0524 25.2078 39.0543 25.2088C39.084 25.2184 39.1272 25.2241 39.1838 25.2241ZM39.1838 26.3741C38.7704 26.3741 38.4472 26.2485 38.216 25.9972C37.9973 25.7593 37.888 25.4831 37.888 25.1704C37.888 24.8136 38.0271 24.4875 38.3052 24.1921C38.5929 23.8881 38.968 23.7365 39.4293 23.7365C39.8283 23.7365 40.1429 23.8564 40.374 24.0972C40.5975 24.3312 40.7097 24.6122 40.7097 24.9402C40.7097 25.2807 40.5774 25.6001 40.3107 25.8984C40.0278 26.2159 39.6518 26.3741 39.1838 26.3741Z" fill="#F72E50"/>
<path d="M10.9964 31.7355C10.3 31.7355 9.69387 31.6051 9.17787 31.3442C8.6609 31.0833 8.26478 30.7352 7.98856 30.3007C7.71233 29.8662 7.57422 29.3828 7.57422 28.8505C7.57422 28.4515 7.64615 28.0861 7.78906 27.7533C7.93293 27.4214 8.13243 27.1548 8.38755 26.9553C8.64268 26.7558 8.94 26.656 9.27761 26.656C9.43107 26.656 9.5078 26.7174 9.5078 26.8402C9.5078 27.2296 9.61522 27.5749 9.83007 27.876C10.0449 28.1781 10.3365 28.4112 10.7048 28.5743C11.0731 28.7383 11.4817 28.8198 11.9325 28.8198C12.4926 28.8198 12.9645 28.6874 13.3481 28.4208C13.7318 28.1551 14.0358 27.7868 14.2612 27.3159C14.312 27.2142 14.3072 27.1298 14.2459 27.0627C14.1845 26.9965 14.1173 27.0042 14.0464 27.0857C13.8315 27.3725 13.5802 27.595 13.2944 27.7533C13.0076 27.9125 12.6863 27.9911 12.3314 27.9911C11.7272 27.9911 11.2237 27.7341 10.8199 27.22C10.4151 26.704 10.2137 25.9597 10.2137 24.9872C10.2137 24.1796 10.3643 23.4094 10.6664 22.6776C10.9676 21.9467 11.381 21.2945 11.9056 20.721C12.4322 20.1484 13.0354 19.6957 13.7164 19.3629C14.3964 19.031 15.11 18.8641 15.8572 18.8641C16.6753 18.8641 17.292 19.0694 17.7064 19.478C18.1207 19.8875 18.3279 20.4093 18.3279 21.0433C18.3279 21.5142 18.2176 21.9161 17.9979 22.2479C17.7773 22.5807 17.4992 22.8311 17.1616 22.9999C16.824 23.1687 16.4653 23.2531 16.0874 23.2531C15.9339 23.2531 15.79 23.2128 15.6577 23.1303C15.5244 23.0488 15.4889 22.9414 15.5503 22.808C15.6932 22.4915 15.7162 22.1894 15.6193 21.9026C15.5215 21.6168 15.2635 21.4729 14.8443 21.4729C14.4856 21.4729 14.1662 21.5679 13.8852 21.7568C13.6032 21.9467 13.3807 22.1894 13.2177 22.4858C13.0537 22.7831 12.9721 23.0948 12.9721 23.4219C12.9721 23.8621 13.1045 24.2275 13.3711 24.5191C13.6368 24.8107 14.0099 24.9565 14.4914 24.9565C14.7571 24.9565 15.0208 24.9104 15.2817 24.8183C15.5426 24.7263 15.7747 24.5632 15.9799 24.3273C16.1123 24.1844 16.2533 24.1182 16.402 24.1278C16.5497 24.1383 16.6753 24.1949 16.7779 24.2966C16.8796 24.3992 16.916 24.522 16.8853 24.6649C16.7415 25.2691 16.588 25.8158 16.425 26.3069C16.261 26.7961 16.0816 27.3264 15.8879 27.899C15.6423 28.6462 15.2817 29.3089 14.806 29.8863C14.3303 30.4637 13.7673 30.9164 13.1179 31.2444C12.4705 31.5715 11.7637 31.7355 10.9964 31.7355Z" fill="white"/>
<path d="M20.1377 22.0101C19.7694 22.0101 19.4519 21.9314 19.1862 21.7722C18.9196 21.6139 18.7872 21.33 18.7872 20.9205C18.7872 20.3786 18.9378 20.0074 19.2399 19.8079C19.5411 19.6084 19.9017 19.5087 20.3218 19.5087C20.7074 19.5087 21.0364 19.5959 21.3078 19.7695C21.5783 19.9441 21.6934 20.2712 21.6531 20.7517C21.6118 21.2226 21.4478 21.5497 21.162 21.7338C20.8781 21.918 20.5367 22.0101 20.1377 22.0101ZM18.4343 30.3083C17.9221 30.3083 17.5596 30.1223 17.3447 29.7482C17.1299 29.3751 17.0225 28.9224 17.0225 28.3901C17.0225 28.0324 17.0579 27.6535 17.1299 27.2545C17.2009 26.8555 17.2929 26.4738 17.4061 26.1074C17.7639 24.9929 18.112 24.1355 18.4496 23.537C18.7872 22.9385 19.1757 22.6392 19.6159 22.6392C19.9631 22.6392 20.1377 22.8694 20.1377 23.3298C20.1377 23.6367 20.0782 23.9513 19.9612 24.2736C19.8432 24.5958 19.7281 24.9133 19.6159 25.225C19.5027 25.5377 19.4471 25.8312 19.4471 26.1074C19.4471 26.3606 19.5104 26.5515 19.6389 26.679C19.7665 26.8076 19.9324 26.8709 20.1377 26.8709C20.3727 26.8709 20.5683 26.8009 20.7247 26.6599C20.8829 26.517 21.0393 26.3328 21.1927 26.1074C21.2742 25.9846 21.3788 25.9386 21.5073 25.9693C21.6349 26 21.7423 26.069 21.8296 26.1765C21.9159 26.2839 21.9341 26.3827 21.8833 26.4719C21.7807 26.6359 21.6608 26.8709 21.5226 27.1778C21.3845 27.4847 21.2176 27.8175 21.0239 28.1753C20.8321 28.534 20.6105 28.8735 20.3602 29.1958C20.1089 29.518 19.825 29.7847 19.5085 29.9938C19.191 30.2038 18.8333 30.3083 18.4343 30.3083Z" fill="white"/>
<path d="M26.2082 18.5764C26.6993 18.5764 27.0599 18.6867 27.2901 18.9064C27.5203 19.1241 27.6478 19.3917 27.6737 19.7082C27.6987 20.0256 27.6555 20.345 27.5433 20.6673C27.4301 20.9896 27.269 21.261 27.0599 21.4806C26.8499 21.7012 26.6273 21.8106 26.3924 21.8106C26.1775 21.8106 26.0701 21.7338 26.0701 21.5804C26.0701 21.0893 25.8802 20.8438 25.5023 20.8438C25.1743 20.8438 24.8904 21.0155 24.6506 21.3579C24.4127 21.7012 24.2065 22.1328 24.0329 22.6546H25.6404C25.7421 22.6546 25.8092 22.7265 25.8399 22.8694C25.8706 23.0133 25.8677 23.1764 25.8322 23.3605C25.7958 23.5447 25.7296 23.7087 25.6327 23.8516C25.5349 23.9954 25.4102 24.0664 25.2568 24.0664C25.2769 24.0664 25.1282 24.0511 24.8117 24.0204C24.4971 23.9897 24.1192 23.959 23.68 23.9283C23.5572 24.4913 23.4575 25.0543 23.3807 25.6164C23.304 26.1794 23.2397 26.6637 23.1889 27.0704C23.1477 27.4492 23.1122 27.8281 23.0815 28.206C23.0508 28.5848 22.9913 28.933 22.905 29.2495C22.8177 29.567 22.6767 29.823 22.483 30.0168C22.2883 30.2115 22.0015 30.3084 21.6236 30.3084C21.1527 30.3084 20.8487 30.1549 20.7105 29.848C20.5724 29.5411 20.5552 29.0759 20.6568 28.4515C20.7595 27.8281 20.9331 27.0464 21.1786 26.1074C21.2908 25.7084 21.403 25.3171 21.5162 24.9335C21.6284 24.5498 21.7464 24.1796 21.8692 23.8209H21.6543C21.2956 23.8209 21.0558 23.7624 20.9331 23.6444C20.8103 23.5274 20.7623 23.3912 20.7873 23.2377C20.8132 23.0843 20.8765 22.949 20.9791 22.8311C21.0808 22.7141 21.1786 22.6546 21.2707 22.6546H22.2988C22.6259 21.8365 22.9837 21.1229 23.3731 20.5138C23.7615 19.9058 24.1902 19.431 24.6583 19.0905C25.1282 18.7481 25.6452 18.5764 26.2082 18.5764Z" fill="white"/>
<path d="M26.348 30.3083C25.7744 30.3083 25.3524 30.1318 25.082 29.7789C24.8105 29.4259 24.6753 28.9656 24.6753 28.3978C24.6753 27.83 24.7885 27.219 25.0129 26.5639C25.1453 26.1784 25.2939 25.7602 25.4579 25.3094C25.621 24.8596 25.8003 24.3685 25.995 23.8362C25.7696 23.8362 25.598 23.7777 25.481 23.6597C25.363 23.5427 25.2863 23.4046 25.2508 23.2454C25.2143 23.0871 25.2143 22.949 25.2508 22.831C25.2863 22.714 25.3505 22.6545 25.4426 22.6545C25.8924 22.6545 26.2454 22.5299 26.5015 22.2786C26.7566 22.0282 26.9359 21.7645 27.0386 21.4883C27.2227 21.0384 27.4011 20.7545 27.5757 20.6366C27.7493 20.5195 27.9334 20.4601 28.1281 20.4601C28.4139 20.4601 28.5923 20.5809 28.6614 20.8207C28.7324 21.0615 28.6518 21.4221 28.4197 21.9026C28.3065 22.1481 28.2451 22.3352 28.2355 22.4627C28.225 22.5912 28.2912 22.6545 28.435 22.6545H29.2292C29.3309 22.6545 29.398 22.7265 29.4287 22.8694C29.4594 23.0133 29.4565 23.1763 29.421 23.3605C29.3846 23.5446 29.3184 23.7086 29.2215 23.8515C29.1237 23.9954 28.999 24.0664 28.8455 24.0664C28.3775 24.0664 28.0303 24.0846 27.8059 24.1201C27.5805 24.1565 27.4222 24.2457 27.3301 24.3886C27.2381 24.5325 27.1402 24.778 27.0386 25.1252C26.8746 25.6576 26.8976 26.0824 27.1076 26.3989C27.3167 26.7135 27.6466 26.8708 28.0974 26.8708C28.4043 26.8708 28.6767 26.8037 28.9146 26.6675C29.1544 26.5294 29.352 26.3433 29.5054 26.1074C29.5869 25.9846 29.6915 25.9414 29.82 25.9769C29.9476 26.0134 30.055 26.0824 30.1423 26.1841C30.2286 26.2867 30.2468 26.3874 30.196 26.4872C30.1039 26.6617 29.9811 26.9015 29.8277 27.2084C29.6742 27.5154 29.4901 27.8482 29.2752 28.2059C29.0604 28.5646 28.8091 28.9023 28.5233 29.2188C28.2394 29.5362 27.9152 29.7971 27.5527 30.0014C27.1891 30.2067 26.7873 30.3083 26.348 30.3083Z" fill="white"/>
<path d="M32.0383 30.3084C31.4244 30.3084 30.9199 30.1703 30.5267 29.8941C30.1325 29.6178 29.8409 29.2524 29.652 28.7968C29.4621 28.3422 29.37 27.8406 29.3757 27.2929C29.3805 26.7462 29.4755 26.1995 29.6596 25.6548C29.8438 25.1081 30.1095 24.6064 30.4576 24.1509C30.8048 23.6962 31.2268 23.3298 31.7237 23.0536C32.2195 22.7774 32.7787 22.6393 33.4002 22.6393C33.8807 22.6393 34.272 22.7294 34.5742 22.9078C34.8753 23.0872 35.0978 23.3251 35.2417 23.6214C35.3846 23.9187 35.4566 24.2353 35.4566 24.5729C35.4566 24.9412 35.3539 25.3095 35.1496 25.6778C34.9444 26.0461 34.6586 26.3511 34.2903 26.5909C33.922 26.8287 33.4884 26.9476 32.9897 26.9476C32.7749 26.9476 32.5648 26.9323 32.3605 26.9016C32.1553 26.8709 31.9663 26.8047 31.7927 26.7021C31.7409 26.6714 31.6853 26.6695 31.6239 26.6944C31.5625 26.7203 31.5318 26.7846 31.5318 26.8863C31.5318 27.1529 31.6872 27.3543 31.9999 27.4924C32.3116 27.6305 32.6866 27.6996 33.124 27.6996C33.6457 27.6996 34.1848 27.5672 34.743 27.3006C35.3002 27.0349 35.7529 26.6369 36.1011 26.1075C36.1826 25.9847 36.29 25.9415 36.4233 25.977C36.5557 26.0135 36.666 26.0825 36.7533 26.1842C36.8396 26.2868 36.853 26.3875 36.7917 26.4873C36.1164 27.736 35.377 28.6846 34.5742 29.3339C33.7704 29.9842 32.9254 30.3084 32.0383 30.3084ZM32.5907 25.8005C32.8842 25.8005 33.1163 25.7065 33.2851 25.5166C33.4539 25.3277 33.5383 25.1359 33.5383 24.9412C33.5383 24.7676 33.4789 24.6189 33.3618 24.4961C33.2439 24.3734 33.0684 24.312 32.8362 24.312C32.5389 24.312 32.3039 24.4041 32.1303 24.5882C31.9558 24.7724 31.8695 24.9671 31.8695 25.1714C31.8695 25.3354 31.928 25.4812 32.0459 25.6087C32.1629 25.7372 32.3452 25.8005 32.5907 25.8005Z" fill="white"/>
<path d="M38.633 30.3084C38.0191 30.3084 37.5147 30.1703 37.1214 29.8941C36.7272 29.6178 36.4356 29.2524 36.2467 28.7968C36.0568 28.3422 35.9647 27.8406 35.9705 27.2929C35.9753 26.7462 36.0702 26.1995 36.2544 25.6548C36.4385 25.1081 36.7042 24.6064 37.0524 24.1509C37.3996 23.6962 37.8216 23.3298 38.3184 23.0536C38.8143 22.7774 39.3734 22.6393 39.9949 22.6393C40.4755 22.6393 40.8668 22.7294 41.1689 22.9078C41.4701 23.0872 41.6926 23.3251 41.8364 23.6214C41.9794 23.9187 42.0513 24.2353 42.0513 24.5729C42.0513 24.9412 41.9487 25.3095 41.7444 25.6778C41.5391 26.0461 41.2533 26.3511 40.885 26.5909C40.5167 26.8287 40.0832 26.9476 39.5844 26.9476C39.3696 26.9476 39.1595 26.9323 38.9552 26.9016C38.75 26.8709 38.561 26.8047 38.3874 26.7021C38.3357 26.6714 38.28 26.6695 38.2186 26.6944C38.1573 26.7203 38.1266 26.7846 38.1266 26.8863C38.1266 27.1529 38.2819 27.3543 38.5946 27.4924C38.9063 27.6305 39.2813 27.6996 39.7187 27.6996C40.2405 27.6996 40.7795 27.5672 41.3377 27.3006C41.8949 27.0349 42.3477 26.6369 42.6958 26.1075C42.7773 25.9847 42.8848 25.9415 43.0181 25.977C43.1504 26.0135 43.2607 26.0825 43.348 26.1842C43.4343 26.2868 43.4478 26.3875 43.3864 26.4873C42.7112 27.736 41.9717 28.6846 41.1689 29.3339C40.3652 29.9842 39.5202 30.3084 38.633 30.3084ZM39.1854 25.8005C39.4789 25.8005 39.711 25.7065 39.8798 25.5166C40.0486 25.3277 40.133 25.1359 40.133 24.9412C40.133 24.7676 40.0736 24.6189 39.9566 24.4961C39.8386 24.3734 39.6631 24.312 39.431 24.312C39.1336 24.312 38.8987 24.4041 38.7251 24.5882C38.5505 24.7724 38.4642 24.9671 38.4642 25.1714C38.4642 25.3354 38.5227 25.4812 38.6407 25.6087C38.7577 25.7372 38.9399 25.8005 39.1854 25.8005Z" fill="white"/>
</svg>
