<svg width="20" height="20" viewBox="0 0 20 20" fill="none" xmlns="http://www.w3.org/2000/svg">
<path d="M4.16673 10C4.16507 10.0142 4.1659 9.98917 4.16673 10V10ZM15.4167 9.58334H5.0759C5.13757 9.41167 5.2384 9.25001 5.37757 9.11334L8.66757 5.74417C8.8284 5.57917 8.82507 5.31501 8.66007 5.15501C8.4959 4.99417 8.23257 4.99834 8.0709 5.16167L4.78673 8.52584C4.38757 8.92001 4.16673 9.47667 4.16673 10.0008C4.17257 10.5208 4.37257 11.0717 4.7634 11.4683L8.03257 14.8733C8.11423 14.9583 8.2234 15.0008 8.3334 15.0008C8.43757 15.0008 8.54173 14.9625 8.62173 14.8842C8.78757 14.7258 8.7934 14.4608 8.63423 14.295L5.3609 10.8858C5.2259 10.7492 5.1284 10.5883 5.07007 10.4175H15.4167C15.6467 10.4175 15.8334 10.2308 15.8334 10.0008C15.8334 9.77084 15.6467 9.58417 15.4167 9.58417V9.58334Z" fill="#F72E50"/>
</svg>
