<svg width="26" height="26" viewBox="0 0 26 26" fill="none" xmlns="http://www.w3.org/2000/svg">
<path opacity="0.5" d="M22.1978 8.84381L15.3749 3.38548C14.0415 2.32298 11.9582 2.31256 10.6353 3.37506L3.81238 8.84381C2.83321 9.62506 2.23946 11.1876 2.4478 12.4167L3.7603 20.2709C4.06238 22.0313 5.6978 23.4167 7.47905 23.4167H18.5207C20.2811 23.4167 21.9478 22.0001 22.2499 20.2605L23.5624 12.4063C23.7499 11.1876 23.1561 9.62506 22.1978 8.84381Z" fill="#1C1254"/>
<path d="M13 20.0312C12.5729 20.0312 12.2188 19.6771 12.2188 19.25V16.125C12.2188 15.6979 12.5729 15.3438 13 15.3438C13.4271 15.3438 13.7812 15.6979 13.7812 16.125V19.25C13.7812 19.6771 13.4271 20.0312 13 20.0312Z" fill="#1C1254"/>
</svg>
