<svg width="26" height="26" viewBox="0 0 26 26" fill="none" xmlns="http://www.w3.org/2000/svg">
<path d="M10.9482 3.76501C12.0145 2.90864 13.6846 2.85964 14.8398 3.61462L15.0635 3.77673L21.8818 9.23083V9.23181C22.2788 9.55548 22.6219 10.0613 22.8428 10.639C23.0627 11.2145 23.1454 11.8189 23.0693 12.3236L21.7568 20.1752C21.4957 21.6782 20.0345 22.9164 18.5205 22.9164H7.47949C5.94343 22.9164 4.51411 21.708 4.25293 20.1859L2.94141 12.3344L2.94043 12.3334L2.91602 12.1381C2.87601 11.6728 2.95989 11.1447 3.15234 10.64C3.37223 10.0636 3.71831 9.55851 4.12402 9.23474L4.125 9.23376L10.9482 3.76501Z" fill="white" stroke="#A0A0A0"/>
<path d="M13 20.0312C12.5729 20.0312 12.2188 19.6771 12.2188 19.25V16.125C12.2188 15.6979 12.5729 15.3438 13 15.3438C13.4271 15.3438 13.7812 15.6979 13.7812 16.125V19.25C13.7812 19.6771 13.4271 20.0312 13 20.0312Z" fill="#A0A0A0"/>
</svg>
