<svg width="512" height="512" viewBox="0 0 512 512" fill="none" xmlns="http://www.w3.org/2000/svg">
<rect width="512" height="512" fill="#D5D5D5"/>
<path d="M115.672 325.5C108.06 325.5 101.358 324.043 95.5656 321.119C89.6618 318.129 85.0946 314.11 81.8735 309.042C78.6245 303.917 77 298.246 77 292.026C77 287.403 77.8447 283.124 79.5342 279.207C81.2887 275.122 83.7857 271.817 87.0069 269.302C90.4879 266.591 94.4981 265.227 99.0467 265.227C101.089 265.227 102.806 265.784 104.189 266.898C105.953 268.309 106.835 270.202 106.835 272.579C106.835 275.15 107.531 277.415 108.924 279.374C110.409 281.462 112.479 283.096 115.106 284.266C117.956 285.528 121.158 286.159 124.723 286.159C129.012 286.159 132.53 285.203 135.287 283.291C138.183 281.277 140.513 278.445 142.268 274.779C142.1 275.113 142.026 275.577 142.063 276.162C142.119 277.072 142.453 277.851 143.047 278.51C143.4 278.891 143.836 279.197 144.356 279.439C145.145 279.801 145.981 279.931 146.853 279.838C147.949 279.708 148.803 279.299 149.397 278.622L145.21 274.955L149.666 278.297C147.113 281.704 144.096 284.359 140.634 286.28C137.023 288.276 133.003 289.278 128.585 289.278C120.936 289.278 114.605 286.067 109.573 279.643C104.876 273.637 102.528 265.292 102.528 254.616C102.528 246.058 104.134 237.907 107.336 230.147C110.502 222.461 114.865 215.61 120.406 209.576C125.976 203.524 132.363 198.734 139.576 195.206C146.928 191.614 154.642 189.822 162.727 189.822C172.167 189.822 179.436 192.329 184.523 197.36C189.638 202.41 192.191 208.778 192.191 216.464C192.191 222.136 190.826 227.037 188.078 231.187C185.405 235.234 181.989 238.297 177.839 240.367C173.783 242.391 169.494 243.412 164.955 243.412C162.421 243.412 160.063 242.734 157.881 241.398C156.09 240.293 154.892 238.836 154.289 237.044C153.658 235.122 153.788 233.182 154.707 231.205C155.477 229.497 155.626 227.947 155.152 226.564C155.143 226.527 155.134 226.499 155.124 226.48C155.124 226.489 155.134 226.499 155.143 226.508L155.152 226.527C154.734 226.304 154.001 226.183 152.933 226.183C150.594 226.183 148.543 226.786 146.76 227.984C144.783 229.311 143.214 231.019 142.073 233.108C140.949 235.141 140.383 237.267 140.383 239.476C140.383 242.289 141.191 244.582 142.787 246.336C144.263 247.942 146.5 248.75 149.517 248.75C151.448 248.75 153.379 248.415 155.31 247.729C156.907 247.172 158.373 246.113 159.71 244.582L159.775 244.507L159.84 244.442C162.328 241.76 165.178 240.525 168.38 240.748C171.202 240.943 173.597 242.029 175.574 243.997C176.735 245.166 177.542 246.503 177.979 248.007C178.415 249.502 178.461 251.052 178.118 252.667C176.679 258.747 175.138 264.233 173.504 269.144L168.297 284.6C165.716 292.453 161.901 299.452 156.86 305.579C151.755 311.78 145.721 316.635 138.731 320.153C131.667 323.718 123.971 325.5 115.672 325.5ZM115.672 314.37C122.207 314.37 128.232 312.977 133.727 310.211C139.306 307.399 144.152 303.49 148.264 298.506C152.423 293.456 155.579 287.635 157.751 281.045L162.94 265.626C164.472 261.031 165.902 255.935 167.229 250.328C167.183 250.56 167.201 250.82 167.294 251.126C167.387 251.442 167.517 251.692 167.702 251.869C167.693 251.869 167.665 251.859 167.61 251.859C167.86 251.869 168.083 251.832 168.278 251.739V251.748C168.194 251.813 168.102 251.906 167.99 252.017L163.915 248.23L168.12 251.887C165.493 254.904 162.458 257.011 159.014 258.227C155.895 259.332 152.72 259.889 149.517 259.889C143.224 259.889 138.239 257.875 134.563 253.837C131.026 249.956 129.253 245.166 129.253 239.476C129.253 235.355 130.274 231.437 132.316 227.733C134.34 224.076 137.078 221.078 140.541 218.748C144.208 216.288 148.329 215.053 152.933 215.053C155.923 215.053 158.457 215.629 160.545 216.789C163.052 218.181 164.769 220.242 165.697 222.99C167.108 227.148 166.811 231.437 164.816 235.865C165.131 235.178 165.15 234.398 164.853 233.517C164.602 232.755 164.221 232.226 163.711 231.911C164.11 232.152 164.518 232.273 164.955 232.273C167.74 232.273 170.376 231.651 172.854 230.416C175.231 229.219 177.217 227.436 178.795 225.051C180.309 222.758 181.06 219.899 181.06 216.464C181.06 211.878 179.612 208.156 176.707 205.287C173.783 202.391 169.123 200.952 162.727 200.952C156.359 200.952 150.269 202.373 144.468 205.213C138.508 208.119 133.226 212.092 128.603 217.114C123.953 222.173 120.295 227.928 117.622 234.398C114.985 240.794 113.667 247.534 113.667 254.616C113.667 262.739 115.227 268.791 118.346 272.783C121.14 276.357 124.556 278.148 128.585 278.148C131.091 278.148 133.31 277.61 135.24 276.542C137.32 275.391 139.158 273.748 140.754 271.613L140.884 271.446L141.024 271.288C142.314 269.812 143.827 268.977 145.572 268.773C146.77 268.633 147.911 268.819 149.016 269.32C149.842 269.701 150.576 270.249 151.235 270.954C152.423 272.244 153.073 273.758 153.175 275.484C153.268 276.886 152.971 278.25 152.312 279.578C149.712 285.018 146.148 289.306 141.627 292.444C136.967 295.674 131.332 297.29 124.723 297.29C119.58 297.29 114.874 296.343 110.585 294.44C106.102 292.444 102.518 289.575 99.8543 285.825C97.088 281.945 95.7049 277.526 95.7049 272.579C95.7049 273.024 95.7977 273.479 95.9927 273.943C96.2619 274.593 96.6796 275.141 97.2366 275.586C97.6543 275.93 98.1091 276.162 98.5826 276.282C98.7775 276.338 98.926 276.366 99.0467 276.366C97.0509 276.366 95.3243 276.932 93.8576 278.083C92.131 279.429 90.7664 281.267 89.7546 283.616C88.6778 286.122 88.1301 288.926 88.1301 292.026C88.1301 296.092 89.1791 299.768 91.2677 303.063C93.3935 306.415 96.5032 309.116 100.588 311.177C104.793 313.302 109.824 314.37 115.672 314.37Z" fill="#D5D5D5"/>
<path d="M204.133 231.382C199.547 231.382 195.537 230.351 192.084 228.3C189.819 226.944 188.12 225.069 186.997 222.665C186.003 220.549 185.502 218.079 185.502 215.276C185.502 208.035 187.795 202.902 192.381 199.866C196.233 197.323 200.744 196.051 205.915 196.051C210.77 196.051 214.956 197.184 218.493 199.458C220.879 200.99 222.568 203.143 223.543 205.937C224.369 208.267 224.648 210.996 224.378 214.116C223.822 220.493 221.399 225.06 217.091 227.826C213.406 230.193 209.09 231.382 204.133 231.382ZM204.133 220.251C206.908 220.251 209.22 219.657 211.067 218.46C212.311 217.662 213.044 215.898 213.286 213.169C213.49 210.746 213.221 209.307 212.487 208.824C210.779 207.738 208.588 207.191 205.915 207.191C202.972 207.191 200.512 207.84 198.526 209.158C197.263 209.985 196.641 212.027 196.641 215.276C196.641 217.123 197.022 218.284 197.783 218.738C199.482 219.741 201.598 220.251 204.133 220.251ZM187.656 311.697C184.286 311.697 181.325 311.037 178.763 309.719C176.034 308.318 173.88 306.238 172.293 303.481C169.721 299.016 168.431 293.706 168.431 287.571C168.431 283.774 168.812 279.792 169.563 275.605C170.297 271.521 171.234 267.603 172.385 263.825C175.987 252.63 179.505 243.969 182.959 237.852C187.284 230.175 192.668 226.332 199.092 226.332C202.62 226.332 205.358 227.631 207.317 230.221C208.904 232.319 209.702 235.113 209.702 238.585C209.702 242.205 209.025 245.891 207.66 249.622L204.318 258.812C203.455 261.217 203.019 263.426 203.019 265.45C203.019 266.09 203.084 266.582 203.204 266.935C203.223 267.018 203.251 267.074 203.269 267.111C203.269 267.102 203.26 267.093 203.251 267.083C203.399 267.232 203.696 267.306 204.133 267.306C204.987 267.306 205.646 267.093 206.119 266.666C207.326 265.58 208.542 264.131 209.777 262.312C210.751 260.855 211.995 259.787 213.499 259.128C215.142 258.404 216.887 258.265 218.725 258.701C221.185 259.295 223.227 260.595 224.87 262.618C225.882 263.881 226.523 265.217 226.783 266.638C227.098 268.42 226.811 270.119 225.929 271.715L225.854 271.845L225.78 271.966C224.926 273.331 223.877 275.391 222.643 278.13C221.25 281.221 219.589 284.563 217.639 288.146C215.616 291.878 213.295 295.424 210.686 298.784C207.883 302.377 204.699 305.366 201.116 307.724C197.124 310.369 192.631 311.697 187.656 311.697ZM187.656 300.557C190.403 300.557 192.845 299.852 194.98 298.441C197.542 296.751 199.844 294.579 201.895 291.943C204.133 289.065 206.119 286.03 207.855 282.836C209.665 279.494 211.215 276.403 212.496 273.563C213.935 270.36 215.216 267.863 216.34 266.062L221.055 269.014L216.191 266.313C215.801 267.018 215.671 267.789 215.82 268.606C215.903 269.061 216.033 269.404 216.21 269.627C216.163 269.571 216.135 269.534 216.117 269.525H216.126C216.72 269.673 217.333 269.608 217.973 269.32C218.456 269.107 218.79 268.866 218.976 268.587C217.24 271.131 215.448 273.247 213.583 274.927C210.993 277.267 207.836 278.445 204.133 278.445C200.624 278.445 197.7 277.276 195.379 274.955C193.049 272.634 191.889 269.46 191.889 265.45C191.889 262.136 192.548 258.655 193.857 255.016L197.198 245.807C198.108 243.301 198.572 240.896 198.572 238.585C198.572 237.926 198.517 237.406 198.424 237.016C198.396 236.923 198.377 236.858 198.359 236.812C198.368 236.84 198.396 236.877 198.433 236.933C198.591 237.137 198.795 237.304 199.046 237.415C199.12 237.443 199.185 237.471 199.241 237.48C199.213 237.471 199.157 237.471 199.092 237.471C197.003 237.471 194.859 239.421 192.659 243.319C189.577 248.787 186.365 256.705 183.033 267.083C182.012 270.434 181.176 273.925 180.517 277.573C179.886 281.1 179.57 284.433 179.57 287.571C179.57 291.729 180.359 295.182 181.947 297.93C182.439 298.793 183.07 299.415 183.859 299.824C184.815 300.316 186.078 300.557 187.656 300.557Z" fill="#D5D5D5"/>
<path d="M262.916 187C269.154 187 273.926 188.578 277.23 191.734C280.479 194.835 282.28 198.622 282.642 203.106C282.949 206.949 282.438 210.801 281.092 214.663C279.737 218.534 277.769 221.829 275.188 224.54C272.06 227.817 268.56 229.45 264.699 229.45C262.471 229.45 260.614 228.921 259.129 227.863C258.071 227.111 257.272 226.146 256.734 224.985C256.251 223.964 256.01 222.85 256.01 221.662C256.01 220.938 255.954 220.362 255.843 219.926C255.815 219.806 255.787 219.722 255.759 219.657C255.759 219.657 255.778 219.685 255.796 219.713C255.926 219.88 256.084 220.01 256.279 220.093C256.326 220.103 256.353 220.121 256.363 220.121C256.298 220.103 256.205 220.103 256.084 220.103C254.85 220.103 253.624 220.966 252.408 222.702C250.394 225.579 248.63 229.274 247.117 233.813L241.835 232.05V226.48H257.421C259.537 226.48 261.301 227.25 262.731 228.782C263.742 229.877 264.439 231.27 264.801 232.959C265.256 235.094 265.237 237.415 264.745 239.94C264.253 242.474 263.325 244.739 261.96 246.754C261.004 248.165 259.853 249.251 258.498 250.021C257.04 250.857 255.444 251.274 253.717 251.274V240.144C253.541 240.144 253.364 240.153 253.188 240.163C252.817 240.2 252.445 240.274 252.083 240.395C251.368 240.608 250.719 240.961 250.152 241.444C249.41 242.066 248.862 242.836 248.528 243.737C248.055 244.971 248.036 246.215 248.454 247.468C249.15 249.566 250.579 250.801 252.742 251.181C252.807 251.191 252.863 251.2 252.909 251.209C252.909 251.209 252.909 251.209 252.891 251.209C252.77 251.191 252.538 251.172 252.213 251.135C251.508 251.061 250.394 250.949 248.871 250.801C245.854 250.513 242.243 250.216 238.038 249.928L238.419 244.368L243.859 245.556C242.708 250.857 241.77 256.157 241.046 261.458C240.303 266.879 239.691 271.557 239.199 275.493C238.809 279.048 238.475 282.622 238.187 286.243C237.853 290.244 237.231 293.957 236.293 297.354C235.198 301.374 233.36 304.669 230.779 307.24C227.809 310.211 223.733 311.696 218.535 311.696C215.37 311.696 212.659 311.121 210.403 309.988C207.758 308.651 205.827 306.637 204.62 303.954C202.829 299.972 202.513 294.402 203.683 287.264C204.704 281.054 206.421 273.321 208.844 264.047C209.949 260.102 211.053 256.259 212.149 252.527C213.262 248.74 214.423 245.073 215.639 241.527L220.902 243.337V248.898H218.832C213.875 248.898 210.264 247.812 207.999 245.649C206.774 244.47 205.901 243.143 205.363 241.667C204.806 240.098 204.667 238.473 204.945 236.775C205.372 234.259 206.421 232.031 208.092 230.109C210.199 227.687 212.538 226.48 215.119 226.48H225.061V232.05L219.89 229.979C223.195 221.746 226.815 214.533 230.761 208.35C234.901 201.871 239.524 196.766 244.648 193.034C250.18 189.014 256.27 187 262.916 187ZM262.916 198.13C258.683 198.13 254.775 199.43 251.201 202.038C247.219 204.944 243.534 209.037 240.146 214.338C236.572 219.935 233.267 226.526 230.231 234.12L228.83 237.619H215.119C215.704 237.619 216.214 237.489 216.623 237.239C216.66 237.22 216.697 237.202 216.716 237.174V237.183C216.66 237.229 216.586 237.313 216.493 237.415C216.196 237.758 216.01 238.158 215.936 238.603C215.964 238.399 215.936 238.167 215.852 237.907C215.806 237.796 215.76 237.703 215.704 237.619V237.61C215.574 237.489 215.472 237.406 215.388 237.369C215.472 237.406 215.611 237.452 215.806 237.499C216.539 237.675 217.542 237.768 218.832 237.768H228.7L226.175 245.138C225.015 248.527 223.901 252.035 222.833 255.665C221.747 259.36 220.679 263.082 219.612 266.86C217.282 275.8 215.63 283.198 214.673 289.065C213.866 293.994 213.894 297.438 214.776 299.387C215.128 300.167 216.382 300.557 218.535 300.557C220.652 300.557 222.118 300.167 222.907 299.369C224.096 298.18 224.977 296.528 225.562 294.412C226.305 291.682 226.815 288.656 227.085 285.342C227.382 281.629 227.744 277.888 228.152 274.11C228.644 270.137 229.266 265.412 230.009 259.954C230.779 254.356 231.763 248.768 232.988 243.189L234.01 238.483L238.809 238.817C243.116 239.123 246.829 239.42 249.948 239.726C251.489 239.875 252.631 239.986 253.355 240.061C253.745 240.098 254.033 240.135 254.218 240.153C254.395 240.172 254.552 240.2 254.682 240.218C256.864 240.608 258.312 241.852 259.008 243.95C259.426 245.194 259.407 246.438 258.943 247.673C258.6 248.582 258.052 249.343 257.309 249.965C256.743 250.448 256.093 250.801 255.379 251.024C255.017 251.135 254.645 251.209 254.265 251.246C254.079 251.265 253.903 251.274 253.717 251.274V240.144C253.466 240.144 253.225 240.209 252.974 240.358C252.872 240.413 252.789 240.469 252.724 240.534L252.742 240.506C253.253 239.745 253.615 238.854 253.819 237.814C254.014 236.784 254.051 235.939 253.912 235.299C253.977 235.605 254.2 235.958 254.571 236.357C255.351 237.202 256.298 237.619 257.421 237.619H234.112L236.553 230.295C238.41 224.725 240.656 220.065 243.292 216.306C246.727 211.414 250.988 208.963 256.084 208.963C259.742 208.963 262.591 210.281 264.615 212.918C266.305 215.108 267.149 218.023 267.149 221.662C267.149 221.207 267.038 220.743 266.824 220.279C266.537 219.676 266.128 219.184 265.599 218.803C265.265 218.562 264.94 218.404 264.624 218.33C264.578 218.32 264.55 218.311 264.532 218.311C264.569 218.32 264.624 218.32 264.699 218.32C265.386 218.32 266.193 217.828 267.131 216.854C268.607 215.303 269.748 213.354 270.575 210.996C271.41 208.61 271.726 206.28 271.549 203.997C271.41 202.335 270.742 200.934 269.535 199.782C268.384 198.678 266.184 198.13 262.916 198.13Z" fill="#D5D5D5"/>
<path d="M264.248 311.697C256.878 311.697 251.327 309.265 247.586 304.4C244.197 299.982 242.499 294.403 242.499 287.645C242.499 281.537 243.696 275.02 246.072 268.095C247.363 264.308 248.811 260.214 250.408 255.833L255.606 241.574L260.832 243.486V249.047C257.119 249.047 254.148 247.933 251.93 245.714C250.027 243.811 248.792 241.574 248.207 238.994C247.641 236.496 247.678 234.213 248.31 232.134C248.774 230.602 249.535 229.349 250.593 228.383C251.967 227.121 253.601 226.48 255.494 226.48C258.335 226.48 260.442 225.803 261.835 224.438C263.719 222.6 265.009 220.725 265.706 218.841L265.743 218.748L265.78 218.664C267.98 213.271 270.393 209.688 273.002 207.924C275.629 206.142 278.451 205.26 281.468 205.26C283.983 205.26 286.146 205.863 287.947 207.07C289.924 208.397 291.271 210.282 292.004 212.723C293.109 216.436 292.208 221.273 289.293 227.223L284.29 224.782L289.349 227.093C288.532 228.875 288.105 230.054 288.059 230.639C288.086 230.268 288.04 229.869 287.919 229.442C287.706 228.727 287.325 228.105 286.778 227.576C286.295 227.112 285.757 226.796 285.162 226.61C284.884 226.527 284.643 226.48 284.438 226.48H292.162C294.269 226.48 296.042 227.251 297.462 228.782C298.483 229.878 299.17 231.27 299.532 232.96C299.987 235.095 299.969 237.415 299.477 239.94C298.985 242.475 298.056 244.74 296.692 246.754C295.736 248.165 294.584 249.251 293.229 250.022C291.772 250.857 290.175 251.275 288.449 251.275C284.188 251.275 281.115 251.423 279.231 251.73C278.794 251.795 278.488 251.878 278.302 251.989C278.34 251.971 278.386 251.915 278.432 251.832C277.829 252.769 277.114 254.672 276.269 257.522C275.193 261.04 275.183 263.593 276.242 265.199C276.687 265.886 277.253 266.387 277.922 266.703C278.757 267.111 279.843 267.306 281.171 267.306C283.148 267.306 284.875 266.888 286.341 266.044C287.892 265.153 289.173 263.936 290.166 262.414C291.206 260.845 292.505 259.75 294.055 259.1C295.745 258.404 297.518 258.311 299.374 258.831C301.704 259.481 303.654 260.734 305.232 262.59C306.309 263.853 306.977 265.227 307.237 266.721C307.534 268.42 307.283 270.063 306.485 271.651L306.457 271.706L306.429 271.771C305.557 273.414 304.387 275.698 302.93 278.631C301.379 281.722 299.532 285.064 297.379 288.657C295.114 292.425 292.477 295.981 289.46 299.323C286.286 302.832 282.675 305.728 278.637 308.011C274.274 310.462 269.474 311.697 264.248 311.697ZM264.248 300.557C267.534 300.557 270.505 299.805 273.169 298.311C276.158 296.621 278.832 294.477 281.199 291.859C283.724 289.056 285.933 286.076 287.827 282.929C289.832 279.587 291.549 276.496 292.969 273.646C294.473 270.648 295.68 268.281 296.59 266.554L301.509 269.163L296.534 266.675C296.228 267.269 296.144 267.928 296.265 268.643C296.357 269.135 296.515 269.525 296.747 269.803C296.645 269.673 296.515 269.59 296.376 269.553C296.989 269.72 297.639 269.673 298.316 269.386C298.855 269.163 299.244 268.866 299.495 268.494C297.518 271.521 294.984 273.916 291.883 275.698C288.699 277.527 285.135 278.446 281.171 278.446C278.154 278.446 275.462 277.879 273.104 276.738C270.579 275.531 268.537 273.73 266.959 271.344C263.96 266.814 263.506 261.161 265.585 254.384C266.727 250.504 267.887 247.645 269.066 245.816C270.858 243.032 273.661 241.342 277.476 240.729C279.945 240.34 283.603 240.145 288.449 240.145C288.207 240.145 287.957 240.21 287.706 240.358C287.604 240.414 287.53 240.47 287.465 240.534L287.474 240.507C287.994 239.745 288.346 238.854 288.551 237.815C288.755 236.784 288.783 235.939 288.643 235.299C288.708 235.605 288.931 235.958 289.303 236.357C290.082 237.202 291.038 237.62 292.162 237.62H284.438C282.248 237.62 280.456 236.942 279.054 235.596C277.467 234.074 276.771 232.124 276.956 229.748C277.114 227.863 277.866 225.431 279.231 222.461L279.286 222.331C280.243 220.391 280.864 218.766 281.162 217.439C281.347 216.641 281.403 216.13 281.329 215.898C281.319 215.87 281.319 215.861 281.319 215.851C281.329 215.889 281.347 215.926 281.384 215.963C281.477 216.102 281.598 216.223 281.746 216.316C281.839 216.381 281.913 216.418 281.96 216.427C281.858 216.408 281.691 216.39 281.468 216.39C280.725 216.39 279.983 216.641 279.249 217.142C279.045 217.272 278.72 217.699 278.275 218.414C277.578 219.509 276.854 221.003 276.084 222.879L270.932 220.771L276.149 222.702C274.868 226.155 272.696 229.386 269.632 232.393C266.077 235.875 261.361 237.62 255.494 237.62C256.497 237.62 257.37 237.267 258.131 236.571C258.567 236.172 258.836 235.772 258.957 235.383C258.901 235.577 258.938 235.967 259.068 236.543C259.18 237.026 259.421 237.462 259.802 237.842C259.774 237.815 259.746 237.787 259.718 237.768C259.718 237.768 259.737 237.777 259.765 237.787C260.006 237.87 260.368 237.917 260.832 237.917H268.787L260.869 259.639C259.3 263.955 257.88 267.984 256.599 271.716C254.622 277.462 253.638 282.771 253.638 287.645C253.638 291.878 254.566 295.201 256.413 297.615C257.927 299.583 260.535 300.557 264.248 300.557Z" fill="#D5D5D5"/>
<path d="M319.315 311.697C312.214 311.697 306.273 310.026 301.501 306.675C296.804 303.389 293.342 299.044 291.095 293.642C288.97 288.536 287.939 282.957 287.995 276.905C288.051 271.019 289.062 265.153 291.03 259.295C293.008 253.419 295.867 248.035 299.608 243.143C303.441 238.13 308.092 234.092 313.569 231.047C319.213 227.91 325.535 226.332 332.534 226.332C338.196 226.332 342.931 227.464 346.727 229.711C350.607 232.013 353.485 235.104 355.36 238.984C357.115 242.614 357.987 246.494 357.987 250.606C357.987 255.136 356.771 259.592 354.321 264.001C351.898 268.364 348.519 271.966 344.184 274.788C339.7 277.721 334.474 279.188 328.524 279.188C326.166 279.188 323.864 279.012 321.608 278.678C318.916 278.269 316.428 277.397 314.126 276.041C314.646 276.357 315.249 276.533 315.908 276.561C316.465 276.589 316.985 276.505 317.449 276.311C318.461 275.884 319.194 275.197 319.659 274.222C319.881 273.776 319.983 273.377 319.983 273.024L319.956 273.015C320.141 273.247 320.55 273.507 321.199 273.795C323.502 274.816 326.389 275.327 329.86 275.327C334.065 275.327 338.484 274.222 343.126 272.003C347.581 269.878 351.202 266.684 353.996 262.405C355.045 260.836 356.363 259.722 357.941 259.082C359.612 258.404 361.376 258.32 363.223 258.812C365.627 259.462 367.623 260.715 369.21 262.59C370.343 263.927 371.011 265.394 371.215 266.991C371.438 268.754 371.067 270.434 370.111 272.031L365.339 269.163L370.231 271.808C363.353 284.535 355.732 294.282 347.386 301.031C338.595 308.141 329.238 311.697 319.315 311.697ZM319.315 300.557C326.611 300.557 333.638 297.828 340.387 292.37C347.581 286.559 354.265 277.935 360.438 266.517L360.503 266.406L360.568 266.304C360.206 266.907 360.067 267.594 360.169 268.374C360.243 268.977 360.429 269.451 360.726 269.803C360.633 269.692 360.503 269.608 360.327 269.562C360.884 269.72 361.487 269.664 362.118 269.404C362.657 269.191 363.056 268.884 363.316 268.494C359.38 274.519 354.246 279.03 347.915 282.057C341.761 284.99 335.746 286.457 329.86 286.457C324.82 286.457 320.429 285.63 316.697 283.978C314.321 282.929 312.474 281.546 311.146 279.819C309.615 277.842 308.853 275.577 308.853 273.024C308.853 271.688 309.113 270.481 309.624 269.404C310.385 267.826 311.564 266.694 313.17 266.025C315.491 265.06 317.691 265.199 319.77 266.443C320.828 267.065 321.998 267.473 323.26 267.668C324.968 267.919 326.723 268.049 328.524 268.049C332.265 268.049 335.458 267.185 338.094 265.468C340.888 263.639 343.051 261.356 344.592 258.59C346.096 255.87 346.857 253.206 346.857 250.606C346.857 248.193 346.347 245.928 345.335 243.821C344.434 241.964 343.005 240.451 341.046 239.291C339.004 238.075 336.163 237.471 332.534 237.471C327.456 237.471 322.945 238.576 318.981 240.776C314.859 243.069 311.35 246.113 308.454 249.901C305.456 253.818 303.172 258.135 301.585 262.85C299.988 267.585 299.171 272.3 299.134 277.007C299.088 281.546 299.84 285.668 301.371 289.371C302.792 292.778 304.964 295.507 307.897 297.559C310.747 299.564 314.553 300.557 319.315 300.557ZM324.662 256.919C325.869 256.919 326.741 256.622 327.261 256.028C327.957 255.257 328.301 254.635 328.301 254.171C328.301 253.976 328.245 253.828 328.143 253.716C328.171 253.753 328.208 253.781 328.245 253.8C328.245 253.8 328.227 253.8 328.199 253.79C327.939 253.698 327.549 253.651 327.038 253.651C325.767 253.651 324.838 253.957 324.254 254.579C323.585 255.285 323.251 255.898 323.251 256.399C323.251 256.529 323.335 256.687 323.492 256.863C323.446 256.817 323.409 256.779 323.372 256.752C323.362 256.752 323.353 256.742 323.353 256.742C323.372 256.752 323.39 256.761 323.409 256.77C323.697 256.863 324.114 256.919 324.662 256.919ZM324.662 268.049C320.661 268.049 317.533 266.833 315.296 264.401C313.179 262.099 312.121 259.425 312.121 256.399C312.121 252.946 313.467 249.789 316.159 246.93C318.944 243.988 322.573 242.521 327.038 242.521C330.9 242.521 333.945 243.681 336.182 246.011C338.345 248.276 339.431 250.996 339.431 254.171C339.431 257.466 338.15 260.558 335.569 263.445C332.831 266.517 329.192 268.049 324.662 268.049Z" fill="#D5D5D5"/>
<path d="M383.141 311.697C376.04 311.697 370.099 310.026 365.328 306.675C360.63 303.389 357.168 299.044 354.921 293.642C352.796 288.536 351.765 282.957 351.821 276.905C351.877 271.019 352.889 265.153 354.856 259.295C356.834 253.419 359.693 248.035 363.434 243.143C367.268 238.13 371.918 234.092 377.395 231.047C383.039 227.91 389.361 226.332 396.36 226.332C402.023 226.332 406.757 227.464 410.553 229.711C414.434 232.013 417.311 235.104 419.186 238.984C420.941 242.614 421.813 246.494 421.813 250.606C421.813 255.136 420.597 259.592 418.147 264.001C415.724 268.364 412.345 271.966 408.01 274.788C403.526 277.721 398.3 279.188 392.35 279.188C389.992 279.188 387.69 279.012 385.434 278.678C382.742 278.269 380.254 277.397 377.952 276.041C378.472 276.357 379.075 276.533 379.734 276.561C380.291 276.589 380.811 276.505 381.275 276.311C382.287 275.884 383.021 275.197 383.485 274.222C383.707 273.776 383.81 273.377 383.81 273.024L383.782 273.015C383.967 273.247 384.376 273.507 385.026 273.795C387.328 274.816 390.215 275.327 393.687 275.327C397.892 275.327 402.31 274.222 406.952 272.003C411.407 269.878 415.028 266.684 417.822 262.405C418.871 260.836 420.189 259.722 421.767 259.082C423.438 258.404 425.202 258.32 427.049 258.812C429.453 259.462 431.449 260.715 433.036 262.59C434.169 263.927 434.837 265.394 435.042 266.991C435.264 268.754 434.893 270.434 433.937 272.031L429.165 269.163L434.058 271.808C427.179 284.535 419.558 294.282 411.213 301.031C402.422 308.141 393.065 311.697 383.141 311.697ZM383.141 300.557C390.438 300.557 397.465 297.828 404.213 292.37C411.407 286.559 418.091 277.935 424.264 266.517L424.329 266.406L424.394 266.304C424.032 266.907 423.893 267.594 423.995 268.374C424.069 268.977 424.255 269.451 424.552 269.803C424.459 269.692 424.329 269.608 424.153 269.562C424.71 269.72 425.313 269.664 425.944 269.404C426.483 269.191 426.882 268.884 427.142 268.494C423.206 274.519 418.073 279.03 411.742 282.057C405.587 284.99 399.572 286.457 393.687 286.457C388.646 286.457 384.255 285.63 380.523 283.978C378.147 282.929 376.3 281.546 374.972 279.819C373.441 277.842 372.679 275.577 372.679 273.024C372.679 271.688 372.939 270.481 373.45 269.404C374.211 267.826 375.39 266.694 376.996 266.025C379.317 265.06 381.517 265.199 383.596 266.443C384.654 267.065 385.824 267.473 387.086 267.668C388.794 267.919 390.549 268.049 392.35 268.049C396.091 268.049 399.284 267.185 401.92 265.468C404.715 263.639 406.877 261.356 408.418 258.59C409.922 255.87 410.683 253.206 410.683 250.606C410.683 248.193 410.173 245.928 409.161 243.821C408.261 241.964 406.831 240.451 404.872 239.291C402.83 238.075 399.99 237.471 396.36 237.471C391.282 237.471 386.771 238.576 382.807 240.776C378.685 243.069 375.177 246.113 372.28 249.901C369.282 253.818 366.998 258.135 365.411 262.85C363.814 267.585 362.998 272.3 362.96 277.007C362.914 281.546 363.666 285.668 365.198 289.371C366.618 292.778 368.79 295.507 371.723 297.559C374.573 299.564 378.379 300.557 383.141 300.557ZM388.488 256.919C389.695 256.919 390.568 256.622 391.087 256.028C391.784 255.257 392.127 254.635 392.127 254.171C392.127 253.976 392.071 253.828 391.969 253.716C391.997 253.753 392.034 253.781 392.071 253.8C392.071 253.8 392.053 253.8 392.025 253.79C391.765 253.698 391.375 253.651 390.865 253.651C389.593 253.651 388.665 253.957 388.08 254.579C387.411 255.285 387.077 255.898 387.077 256.399C387.077 256.529 387.161 256.687 387.319 256.863C387.272 256.817 387.235 256.779 387.198 256.752C387.189 256.752 387.179 256.742 387.179 256.742C387.198 256.752 387.216 256.761 387.235 256.77C387.523 256.863 387.94 256.919 388.488 256.919ZM388.488 268.049C384.487 268.049 381.359 266.833 379.122 264.401C377.005 262.099 375.947 259.425 375.947 256.399C375.947 252.946 377.293 249.789 379.985 246.93C382.77 243.988 386.4 242.521 390.865 242.521C394.726 242.521 397.771 243.681 400.008 246.011C402.171 248.276 403.257 250.996 403.257 254.171C403.257 257.466 401.976 260.558 399.395 263.445C396.657 266.517 393.018 268.049 388.488 268.049Z" fill="#D5D5D5"/>
<path d="M115.682 319.939C108.942 319.939 103.076 318.677 98.0814 316.152C93.078 313.627 89.2442 310.257 86.5707 306.052C83.8973 301.847 82.5605 297.168 82.5605 292.017C82.5605 288.155 83.2568 284.618 84.6399 281.397C86.0323 278.185 87.9632 275.604 90.4324 273.674C92.9016 271.743 95.7793 270.777 99.0468 270.777C100.532 270.777 101.275 271.372 101.275 272.56C101.275 276.329 102.314 279.67 104.394 282.585C106.473 285.509 109.295 287.765 112.86 289.343C116.424 290.93 120.379 291.719 124.742 291.719C130.163 291.719 134.73 290.438 138.443 287.858C142.156 285.286 145.099 281.722 147.28 277.164C147.772 276.18 147.726 275.363 147.132 274.713C146.538 274.073 145.888 274.147 145.201 274.936C143.122 277.712 140.69 279.865 137.923 281.397C135.148 282.938 132.038 283.699 128.603 283.699C122.755 283.699 117.882 281.211 113.974 276.236C110.056 271.242 108.107 264.038 108.107 254.625C108.107 246.809 109.564 239.355 112.488 232.272C115.403 225.199 119.404 218.886 124.482 213.335C129.578 207.793 135.417 203.412 142.008 200.191C148.589 196.979 155.496 195.364 162.727 195.364C170.645 195.364 176.614 197.35 180.624 201.305C184.634 205.269 186.64 210.318 186.64 216.454C186.64 221.012 185.572 224.902 183.446 228.114C181.311 231.335 178.619 233.758 175.352 235.391C172.084 237.025 168.612 237.842 164.955 237.842C163.47 237.842 162.077 237.452 160.796 236.654C159.506 235.865 159.162 234.825 159.757 233.535C161.14 230.471 161.362 227.547 160.425 224.772C159.478 222.005 156.981 220.613 152.924 220.613C149.453 220.613 146.361 221.532 143.642 223.361C140.912 225.199 138.759 227.547 137.181 230.416C135.593 233.293 134.804 236.31 134.804 239.476C134.804 243.737 136.085 247.273 138.666 250.095C141.237 252.917 144.848 254.328 149.508 254.328C152.08 254.328 154.632 253.883 157.157 252.992C159.682 252.1 161.929 250.522 163.915 248.239C165.196 246.856 166.561 246.215 168 246.308C169.429 246.41 170.645 246.958 171.639 247.942C172.623 248.935 172.975 250.123 172.678 251.506C171.286 257.354 169.801 262.646 168.222 267.398C166.635 272.133 164.899 277.266 163.024 282.808C160.648 290.039 157.157 296.454 152.553 302.042C147.949 307.63 142.5 312.012 136.215 315.186C129.949 318.352 123.108 319.939 115.682 319.939Z" fill="#BEBDC2"/>
<path d="M204.151 225.812C200.586 225.812 197.514 225.051 194.943 223.51C192.362 221.978 191.081 219.23 191.081 215.267C191.081 210.022 192.538 206.429 195.462 204.499C198.377 202.568 201.868 201.602 205.933 201.602C209.665 201.602 212.849 202.447 215.476 204.127C218.094 205.817 219.208 208.982 218.818 213.633C218.419 218.191 216.831 221.356 214.065 223.138C211.317 224.921 208.013 225.812 204.151 225.812ZM187.665 306.127C182.708 306.127 179.199 304.326 177.12 300.706C175.04 297.095 174 292.713 174 287.561C174 284.099 174.344 280.432 175.04 276.57C175.727 272.709 176.618 269.014 177.714 265.468C181.176 254.681 184.546 246.383 187.813 240.59C191.081 234.798 194.84 231.901 199.101 231.901C202.462 231.901 204.151 234.129 204.151 238.585C204.151 241.556 203.576 244.6 202.443 247.719C201.301 250.838 200.187 253.911 199.101 256.928C198.006 259.954 197.467 262.795 197.467 265.468C197.467 267.919 198.08 269.766 199.324 271.001C200.559 272.245 202.165 272.857 204.151 272.857C206.425 272.857 208.319 272.18 209.832 270.815C211.364 269.432 212.877 267.65 214.362 265.468C215.151 264.28 216.163 263.834 217.407 264.131C218.642 264.428 219.681 265.097 220.526 266.136C221.361 267.176 221.538 268.132 221.046 268.996C220.053 270.583 218.892 272.857 217.555 275.828C216.219 278.798 214.604 282.019 212.728 285.482C210.872 288.954 208.728 292.24 206.305 295.359C203.873 298.478 201.125 301.058 198.062 303.082C194.989 305.115 191.526 306.127 187.665 306.127Z" fill="#BEBDC2"/>
<path d="M262.907 192.579C267.66 192.579 271.15 193.647 273.378 195.773C275.606 197.88 276.841 200.47 277.091 203.533C277.333 206.606 276.915 209.697 275.829 212.816C274.734 215.935 273.174 218.562 271.15 220.688C269.117 222.823 266.964 223.881 264.69 223.881C262.61 223.881 261.571 223.138 261.571 221.653C261.571 216.9 259.733 214.524 256.075 214.524C252.9 214.524 250.153 216.185 247.832 219.499C245.53 222.823 243.534 227 241.854 232.05H257.412C258.396 232.05 259.046 232.746 259.343 234.129C259.64 235.522 259.612 237.1 259.268 238.882C258.916 240.664 258.275 242.252 257.338 243.635C256.391 245.027 255.184 245.714 253.699 245.714C253.894 245.714 252.455 245.566 249.391 245.269C246.347 244.971 242.689 244.674 238.438 244.377C237.25 249.826 236.284 255.275 235.541 260.715C234.799 266.164 234.177 270.852 233.685 274.788C233.286 278.455 232.942 282.121 232.645 285.779C232.348 289.445 231.773 292.815 230.937 295.878C230.092 298.951 228.728 301.43 226.853 303.305C224.968 305.189 222.193 306.127 218.535 306.127C213.977 306.127 211.035 304.641 209.698 301.671C208.361 298.7 208.194 294.198 209.178 288.155C210.172 282.121 211.852 274.556 214.228 265.468C215.314 261.606 216.4 257.819 217.496 254.106C218.582 250.393 219.724 246.809 220.912 243.338H218.832C215.361 243.338 213.04 242.771 211.852 241.63C210.663 240.497 210.199 239.179 210.441 237.694C210.691 236.208 211.304 234.9 212.297 233.758C213.281 232.625 214.228 232.05 215.119 232.05H225.07C228.236 224.132 231.698 217.225 235.467 211.331C239.227 205.445 243.376 200.85 247.906 197.555C252.455 194.241 257.458 192.579 262.907 192.579Z" fill="#BEBDC2"/>
<path d="M264.257 306.126C258.706 306.126 254.622 304.418 252.004 301.002C249.377 297.586 248.068 293.13 248.068 287.635C248.068 282.14 249.163 276.226 251.336 269.886C252.617 266.154 254.056 262.107 255.643 257.744C257.221 253.391 258.957 248.638 260.841 243.486C258.66 243.486 256.998 242.92 255.866 241.778C254.724 240.645 253.981 239.309 253.638 237.768C253.285 236.236 253.285 234.899 253.638 233.757C253.981 232.625 254.603 232.049 255.494 232.049C259.848 232.049 263.264 230.843 265.743 228.411C268.212 225.988 269.948 223.435 270.941 220.761C272.723 216.408 274.45 213.66 276.139 212.518C277.82 211.386 279.602 210.81 281.486 210.81C284.253 210.81 285.979 211.98 286.648 214.301C287.334 216.631 286.555 220.121 284.308 224.772C283.213 227.148 282.619 228.958 282.526 230.193C282.424 231.437 283.064 232.049 284.457 232.049H292.143C293.127 232.049 293.777 232.746 294.074 234.129C294.371 235.521 294.343 237.099 294 238.882C293.647 240.664 293.006 242.251 292.069 243.634C291.122 245.027 289.915 245.714 288.43 245.714C283.9 245.714 280.539 245.89 278.367 246.234C276.186 246.586 274.654 247.45 273.763 248.833C272.872 250.225 271.925 252.602 270.941 255.962C269.354 261.114 269.576 265.226 271.609 268.29C273.633 271.334 276.826 272.857 281.189 272.857C284.16 272.857 286.796 272.207 289.098 270.889C291.419 269.552 293.331 267.751 294.816 265.468C295.605 264.279 296.617 263.862 297.861 264.205C299.096 264.558 300.135 265.226 300.98 266.21C301.816 267.203 301.992 268.178 301.5 269.144C300.609 270.833 299.421 273.154 297.935 276.124C296.45 279.095 294.668 282.316 292.589 285.778C290.509 289.25 288.077 292.518 285.311 295.581C282.563 298.654 279.425 301.179 275.917 303.156C272.398 305.142 268.509 306.126 264.257 306.126Z" fill="#BEBDC2"/>
<path d="M319.334 306.127C313.393 306.127 308.51 304.79 304.704 302.117C300.889 299.443 298.067 295.906 296.238 291.497C294.4 287.097 293.509 282.242 293.565 276.942C293.611 271.65 294.53 266.359 296.312 261.087C298.095 255.795 300.666 250.94 304.036 246.531C307.396 242.131 311.481 238.585 316.289 235.912C321.088 233.238 326.5 231.901 332.515 231.901C337.166 231.901 340.954 232.774 343.878 234.501C346.792 236.236 348.946 238.539 350.338 241.407C351.722 244.285 352.418 247.348 352.418 250.616C352.418 254.18 351.425 257.745 349.447 261.309C347.461 264.874 344.695 267.826 341.13 270.147C337.565 272.449 333.369 273.6 328.542 273.6C326.463 273.6 324.43 273.451 322.453 273.154C320.466 272.857 318.638 272.217 316.957 271.223C316.456 270.926 315.918 270.908 315.324 271.149C314.73 271.4 314.433 272.022 314.433 273.006C314.433 275.586 315.936 277.536 318.963 278.872C321.979 280.209 325.609 280.878 329.842 280.878C334.892 280.878 340.109 279.597 345.511 277.016C350.905 274.445 355.286 270.592 358.656 265.468C359.445 264.28 360.485 263.862 361.775 264.206C363.056 264.558 364.123 265.227 364.968 266.211C365.804 267.204 365.934 268.179 365.34 269.144C358.804 281.23 351.647 290.411 343.878 296.695C336.099 302.989 327.92 306.127 319.334 306.127ZM324.681 262.498C327.521 262.498 329.768 261.588 331.402 259.75C333.035 257.921 333.852 256.065 333.852 254.18C333.852 252.5 333.277 251.061 332.144 249.873C331.002 248.685 329.304 248.091 327.057 248.091C324.179 248.091 321.905 248.982 320.225 250.764C318.536 252.546 317.7 254.431 317.7 256.408C317.7 257.995 318.266 259.406 319.408 260.641C320.541 261.885 322.304 262.498 324.681 262.498Z" fill="#BEBDC2"/>
<path d="M383.159 306.127C377.218 306.127 372.335 304.79 368.529 302.117C364.714 299.443 361.892 295.906 360.063 291.497C358.225 287.097 357.334 282.242 357.39 276.942C357.436 271.65 358.355 266.359 360.138 261.087C361.92 255.795 364.491 250.94 367.861 246.531C371.221 242.131 375.306 238.585 380.114 235.912C384.913 233.238 390.325 231.901 396.341 231.901C400.991 231.901 404.779 232.774 407.703 234.501C410.618 236.236 412.771 238.539 414.164 241.407C415.547 244.285 416.243 247.348 416.243 250.616C416.243 254.18 415.25 257.745 413.273 261.309C411.286 264.874 408.52 267.826 404.955 270.147C401.39 272.449 397.195 273.6 392.368 273.6C390.288 273.6 388.255 273.451 386.278 273.154C384.292 272.857 382.463 272.217 380.783 271.223C380.281 270.926 379.743 270.908 379.149 271.149C378.555 271.4 378.258 272.022 378.258 273.006C378.258 275.586 379.762 277.536 382.788 278.872C385.805 280.209 389.434 280.878 393.667 280.878C398.717 280.878 403.934 279.597 409.337 277.016C414.73 274.445 419.111 270.592 422.481 265.468C423.27 264.28 424.31 263.862 425.6 264.206C426.881 264.558 427.949 265.227 428.793 266.211C429.629 267.204 429.759 268.179 429.165 269.144C422.63 281.23 415.473 290.411 407.703 296.695C399.924 302.989 391.746 306.127 383.159 306.127ZM388.506 262.498C391.346 262.498 393.593 261.588 395.227 259.75C396.86 257.921 397.677 256.065 397.677 254.18C397.677 252.5 397.102 251.061 395.969 249.873C394.828 248.685 393.129 248.091 390.882 248.091C388.005 248.091 385.73 248.982 384.05 250.764C382.361 252.546 381.525 254.431 381.525 256.408C381.525 257.995 382.092 259.406 383.233 260.641C384.366 261.885 386.13 262.498 388.506 262.498Z" fill="#BEBDC2"/>
</svg>
