<svg width="16" height="14" viewBox="0 0 16 14" fill="none" xmlns="http://www.w3.org/2000/svg">
<path d="M11.3037 0.0996094C13.84 0.0996094 15.9002 2.12429 15.9004 4.59863C15.9004 7.0619 14.7858 9.12825 13.3135 10.6992C11.8403 12.271 10.0141 13.3406 8.6084 13.8105L8.60645 13.8115C8.43428 13.8719 8.22314 13.9004 8 13.9004C7.77686 13.9004 7.56572 13.8719 7.39355 13.8115L7.3916 13.8105C5.98594 13.3406 4.15973 12.269 2.68652 10.6963C1.21422 9.12439 0.0996094 7.05818 0.0996094 4.59863C0.0997924 2.11714 2.15985 0.0996094 4.69629 0.0996094C5.92811 0.09973 7.07819 0.569167 7.92969 1.40625L8 1.47461L8.07031 1.40625C8.92181 0.569167 10.0719 0.0997301 11.3037 0.0996094ZM11.3115 0.988281C10.1497 0.988313 9.07044 1.51708 8.37402 2.43457C8.29242 2.54252 8.15401 2.60244 8.00781 2.60254C7.86147 2.60254 7.7223 2.54261 7.64062 2.43457L7.50293 2.26562C6.79509 1.44679 5.78544 0.988415 4.69629 0.988281C2.67096 0.988281 1.01678 2.60491 1.0166 4.59863C1.0166 7.11157 2.25731 9.06398 3.70703 10.4561C4.97464 11.6732 6.40795 12.4682 7.33105 12.8428L7.69336 12.9775C7.77523 13.0041 7.89422 13.0156 8.00391 13.0156C8.11351 13.0156 8.23166 13.0041 8.31348 12.9775H8.31445C9.18324 12.6867 10.8484 11.849 12.2979 10.459C13.7485 9.06782 14.9912 7.11522 14.9912 4.59863C14.991 2.60491 13.3369 0.988281 11.3115 0.988281Z" fill="#C73E51" stroke="white" stroke-width="0.2"/>
</svg>
