<svg width="16" height="14" viewBox="0 0 16 14" fill="none" xmlns="http://www.w3.org/2000/svg">
<path d="M11.3037 0.0996094C13.84 0.0996094 15.9002 2.12429 15.9004 4.59863C15.9004 7.0619 14.7858 9.12825 13.3135 10.6992C11.8403 12.271 10.0141 13.3406 8.6084 13.8105L8.60645 13.8115C8.43428 13.8719 8.22314 13.9004 8 13.9004C7.77686 13.9004 7.56572 13.8719 7.39355 13.8115L7.3916 13.8105C5.98594 13.3406 4.15973 12.269 2.68652 10.6963C1.21422 9.12439 0.0996094 7.05818 0.0996094 4.59863C0.0997924 2.11714 2.15985 0.0996094 4.69629 0.0996094C5.92811 0.09973 7.07819 0.569167 7.92969 1.40625L8 1.47461L8.07031 1.40625C8.92181 0.569167 10.0719 0.0997301 11.3037 0.0996094Z" fill="#4B2D5C" stroke="#4B2D5C" stroke-width="0.2"/>
</svg>
