<svg width="190" height="105" viewBox="0 0 190 105" fill="none" xmlns="http://www.w3.org/2000/svg">
<path d="M128.17 50.9128L114.85 57.5527L115.08 54.8627L124.38 45.0527L128.17 50.9128Z" fill="#80020D"/>
<path d="M115.719 39.2926L146.189 67.6426C147.619 68.9726 149.949 68.4026 150.599 66.5526L172.619 3.62264C173.339 1.57264 171.469 -0.457347 169.359 0.102653L99.6194 18.6426C97.5594 19.1926 96.9094 21.7926 98.4694 23.2526L115.719 39.2926Z" fill="#D7484B"/>
<path d="M163.27 9.02271L124.29 47.2627L115.03 57.4027C114.33 58.1027 113.14 57.5027 113.29 56.5227L115.89 39.4427L163.27 9.02271Z" fill="#BE1E2A"/>
<path d="M122.109 104.613C138.22 104.613 151.279 102.737 151.279 100.423C151.279 98.1086 138.22 96.2327 122.109 96.2327C105.999 96.2327 92.9395 98.1086 92.9395 100.423C92.9395 102.737 105.999 104.613 122.109 104.613Z" fill="#FBF2EB"/>
<path d="M110.31 61.3325C110.31 61.3325 51.8895 105.913 34.4295 71.4025C27.4195 57.5525 36.7995 45.5525 45.6595 43.7825C57.3595 41.4425 68.7395 48.9825 71.9595 60.4725C75.8395 74.2625 69.5495 91.0325 36.1095 91.0325C18.8495 91.0325 0.269531 79.1125 0.269531 79.1125" stroke="#FFB9C5" stroke-miterlimit="10"/>
<path d="M109.399 7.20255C108.609 5.77255 108.609 4.03256 109.399 2.59256L110.219 1.10257C110.379 0.812574 110.329 0.452569 110.089 0.222569C109.849 -0.0174312 109.499 -0.0674361 109.209 0.0925639L107.719 0.912571C106.279 1.70257 104.549 1.70257 103.109 0.912571L101.619 0.0925639C101.329 -0.0674361 100.969 -0.0174312 100.739 0.222569C100.499 0.462569 100.449 0.812574 100.609 1.10257L101.379 2.51255C102.199 4.00255 102.199 5.80255 101.379 7.29255L100.609 8.69257C100.449 8.98257 100.499 9.34254 100.739 9.57254C100.979 9.81254 101.329 9.86255 101.619 9.70255L103.019 8.93256C104.509 8.11256 106.309 8.11256 107.799 8.93256L109.199 9.70255C109.489 9.86255 109.849 9.81254 110.079 9.57254C110.319 9.33254 110.369 8.98257 110.199 8.69257L109.399 7.20255Z" fill="#FFCD5C"/>
<path d="M130.849 68.7225C130.329 67.7725 130.329 66.6125 130.849 65.6525L131.389 64.6625C131.499 64.4725 131.459 64.2324 131.309 64.0724C131.149 63.9124 130.919 63.8824 130.719 63.9924L129.729 64.5325C128.769 65.0525 127.619 65.0525 126.659 64.5325L125.669 63.9924C125.479 63.8824 125.239 63.9224 125.079 64.0724C124.919 64.2324 124.889 64.4625 124.999 64.6625L125.509 65.6025C126.049 66.5925 126.049 67.7925 125.509 68.7825L124.999 69.7124C124.889 69.9024 124.929 70.1424 125.079 70.3024C125.239 70.4624 125.469 70.4925 125.669 70.3825L126.599 69.8725C127.589 69.3325 128.789 69.3325 129.779 69.8725L130.709 70.3825C130.909 70.4925 131.139 70.4524 131.299 70.3024C131.459 70.1424 131.489 69.9124 131.379 69.7124L130.849 68.7225Z" fill="#FFCD5C"/>
<path d="M188.249 21.4025C187.459 19.9725 187.459 18.2325 188.249 16.7925L189.069 15.3025C189.229 15.0125 189.179 14.6525 188.939 14.4225C188.699 14.1825 188.349 14.1325 188.059 14.2925L186.569 15.1125C185.129 15.9025 183.399 15.9025 181.959 15.1125L180.469 14.2925C180.179 14.1325 179.819 14.1825 179.589 14.4225C179.349 14.6625 179.299 15.0125 179.459 15.3025L180.229 16.7125C181.049 18.2025 181.049 20.0025 180.229 21.4925L179.459 22.8925C179.299 23.1825 179.349 23.5425 179.589 23.7725C179.829 24.0125 180.179 24.0625 180.469 23.9025L181.869 23.1325C183.359 22.3125 185.159 22.3125 186.649 23.1325L188.049 23.9025C188.339 24.0625 188.699 24.0125 188.929 23.7725C189.169 23.5325 189.219 23.1825 189.049 22.8925L188.249 21.4025Z" fill="#FFCD5C"/>
<path d="M91.9491 63.6425C91.5391 62.9025 91.5391 62.0125 91.9491 61.2725L92.3691 60.5025C92.4491 60.3525 92.4291 60.1725 92.3091 60.0425C92.1891 59.9125 92.0091 59.8925 91.8491 59.9825L91.0791 60.4025C90.3391 60.8125 89.4391 60.8125 88.6991 60.4025L87.9291 59.9825C87.7791 59.9025 87.5991 59.9225 87.4691 60.0425C87.3491 60.1625 87.3191 60.3425 87.3991 60.5025L87.7991 61.2325C88.2191 62.0025 88.2191 62.9325 87.7991 63.6925L87.3991 64.4125C87.3191 64.5625 87.3391 64.7425 87.4591 64.8725C87.5791 64.9925 87.7591 65.0225 87.9191 64.9325L88.6391 64.5325C89.4091 64.1125 90.3391 64.1125 91.1091 64.5325L91.8291 64.9325C91.9791 65.0125 92.1591 64.9925 92.2891 64.8625C92.4091 64.7425 92.4391 64.5525 92.3491 64.4025L91.9491 63.6425Z" fill="#FFCD5C"/>
</svg>
