<svg width="21" height="21" viewBox="0 0 21 21" fill="none" xmlns="http://www.w3.org/2000/svg">
<path d="M14.8027 0.376953C16.2199 -0.0556418 17.7546 0.317065 18.7969 1.37402C19.8407 2.43279 20.2132 3.95278 19.7812 5.36914L16.1191 17.1709C15.6012 18.8431 14.1466 19.9389 12.3887 19.9854C12.3472 19.9724 12.3133 19.9727 12.3027 19.9727C10.5585 19.9725 9.08532 18.9015 8.5332 17.2451L8.53223 17.2441L7.43652 14.0049C7.2434 13.3793 6.7563 12.9107 6.16602 12.7197L2.91309 11.625C1.24165 11.0577 0.170545 9.55434 0.200195 7.7959C0.230036 6.03532 1.33191 4.56137 3.01758 4.03906H3.01855L14.8018 0.375977L14.8027 0.376953ZM15.9658 2.12988C15.8602 2.12988 15.7596 2.13833 15.6611 2.15332L15.3691 2.21387L15.3584 2.2168L3.55664 5.89551C2.50374 6.22356 2.11898 7.09391 2.11719 7.81836C2.09992 8.52616 2.46442 9.43506 3.50586 9.78223L6.76172 10.8623H6.7627C7.95363 11.2494 8.89196 12.1878 9.2793 13.3945L9.28027 13.3965L10.3604 16.6211C10.5309 17.1323 10.8215 17.4798 11.1758 17.7012C11.5264 17.9203 11.9268 18.0077 12.3096 18.0244V18.0254H12.3184C13.0272 18.0254 13.918 17.6413 14.2471 16.585L17.9092 4.7832C18.1205 4.10037 17.9658 3.38507 17.5029 2.85547L17.4062 2.75195C17.0093 2.33923 16.5047 2.12994 15.9658 2.12988Z" fill="white" stroke="#1C1254" stroke-width="0.4"/>
</svg>
