<svg width="180" height="44" viewBox="0 0 180 44" fill="none" xmlns="http://www.w3.org/2000/svg">
<path d="M21.3942 42.7094C8.99265 42.7094 0 33.44 0 21.3547C0 9.26933 8.99265 0 21.3942 0C28.8587 0 35.4416 3.696 39.0269 9.504L30.9158 14.1973C29.0938 11.0293 25.5673 9.152 21.3942 9.152C14.1061 9.152 9.40408 14.0213 9.40408 21.3547C9.40408 28.688 14.1061 33.5574 21.3942 33.5574C25.5673 33.5574 29.1526 31.68 30.9158 28.512L39.0269 33.2053C35.5003 39.0134 28.9175 42.7094 21.3942 42.7094ZM64.7628 12.5547H73.5792V41.888H64.7628V39.1307C62.8232 41.36 59.9432 42.7094 56.0053 42.7094C48.3057 42.7094 41.9579 35.9627 41.9579 27.2213C41.9579 18.48 48.3057 11.7333 56.0053 11.7333C59.9432 11.7333 62.8232 13.0827 64.7628 15.312V12.5547ZM57.7685 34.3787C61.8241 34.3787 64.7628 31.6214 64.7628 27.2213C64.7628 22.8214 61.8241 20.064 57.7685 20.064C53.713 20.064 50.7743 22.8214 50.7743 27.2213C50.7743 31.6214 53.713 34.3787 57.7685 34.3787ZM101.383 0.821333H110.199V41.888H101.383V39.1307C99.4431 41.36 96.5631 42.7094 92.6252 42.7094C84.9256 42.7094 78.5778 35.9627 78.5778 27.2213C78.5778 18.48 84.9256 11.7333 92.6252 11.7333C96.5631 11.7333 99.4431 13.0827 101.383 15.312V0.821333ZM94.3884 34.3787C98.4439 34.3787 101.383 31.6214 101.383 27.2213C101.383 22.8214 98.4439 20.064 94.3884 20.064C90.3329 20.064 87.3941 22.8214 87.3941 27.2213C87.3941 31.6214 90.3329 34.3787 94.3884 34.3787ZM130.773 42.7094C122.133 42.7094 115.198 35.9627 115.198 27.2213C115.198 18.48 122.133 11.7333 130.773 11.7333C139.413 11.7333 146.349 18.48 146.349 27.2213C146.349 35.9627 139.413 42.7094 130.773 42.7094ZM130.773 34.144C134.594 34.144 137.532 31.3867 137.532 27.2213C137.532 23.056 134.594 20.2987 130.773 20.2987C126.953 20.2987 124.014 23.056 124.014 27.2213C124.014 31.3867 126.953 34.144 130.773 34.144ZM170.32 12.5547H179.136V41.888H170.32V39.1307C168.733 41.3013 165.794 42.7094 161.915 42.7094C155.979 42.7094 150.924 38.4854 150.924 30.5654V12.5547H159.74V29.2747C159.74 32.912 162.033 34.6133 164.854 34.6133C168.087 34.6133 170.32 32.736 170.32 28.5707V12.5547Z" fill="#C73E51"/>
</svg>
