<svg width="78" height="31" viewBox="0 0 78 31" fill="none" xmlns="http://www.w3.org/2000/svg">
<path d="M8.38907 30.5222C6.73784 30.5222 5.28395 30.206 4.0274 29.5717C2.74669 28.9233 1.75595 28.0514 1.05719 26.9519C0.352398 25.8403 0 24.61 0 23.2608C0 22.258 0.183247 21.3297 0.54974 20.4799C0.93033 19.5938 1.47201 18.877 2.17077 18.3313C2.92591 17.7433 3.79582 17.4472 4.78254 17.4472C5.22555 17.4472 5.59808 17.5681 5.89813 17.8097C6.28073 18.1158 6.47203 18.5266 6.47203 19.0421C6.47203 19.5999 6.62306 20.0912 6.92511 20.5161C7.2473 20.9692 7.69636 21.3236 8.26624 21.5773C8.88444 21.8512 9.57917 21.9881 10.3524 21.9881C11.2828 21.9881 12.0459 21.7807 12.644 21.3659C13.2723 20.9289 13.7777 20.3148 14.1583 19.5193C14.1221 19.5918 14.106 19.6925 14.114 19.8194C14.1261 20.0167 14.1986 20.1859 14.3275 20.3288C14.404 20.4114 14.4986 20.4779 14.6114 20.5302C14.7826 20.6088 14.9638 20.6369 15.1531 20.6168C15.3907 20.5886 15.576 20.5 15.7048 20.353L14.7967 19.5576L15.7632 20.2825C15.2095 21.0216 14.555 21.5975 13.8039 22.0143C13.0206 22.4473 12.1486 22.6647 11.1901 22.6647C9.53084 22.6647 8.1575 21.968 7.06607 20.5745C6.04714 19.2717 5.53767 17.4613 5.53767 15.1456C5.53767 13.289 5.88604 11.5209 6.58077 9.83748C7.26744 8.17013 8.21388 6.68402 9.41606 5.37512C10.6243 4.06219 12.0097 3.02312 13.5743 2.25791C15.1692 1.47861 16.8426 1.08997 18.5965 1.08997C20.6444 1.08997 22.2212 1.63366 23.3247 2.72509C24.4342 3.82054 24.988 5.20194 24.988 6.86928C24.988 8.09965 24.692 9.16289 24.0959 10.063C23.516 10.941 22.7749 11.6055 21.8748 12.0546C20.9948 12.4935 20.0645 12.7151 19.0798 12.7151C18.5301 12.7151 18.0186 12.5681 17.5454 12.2781C17.1567 12.0384 16.897 11.7223 16.7661 11.3337C16.6291 10.9168 16.6573 10.496 16.8567 10.067C17.0238 9.69652 17.056 9.36023 16.9533 9.06019C16.9513 9.05213 16.9493 9.04609 16.9473 9.04206C16.9473 9.04408 16.9493 9.04609 16.9513 9.04811L16.9533 9.05213C16.8627 9.0038 16.7036 8.97763 16.4721 8.97763C15.9646 8.97763 15.5196 9.10852 15.133 9.36828C14.704 9.65624 14.3637 10.0268 14.116 10.4798C13.8724 10.9208 13.7495 11.382 13.7495 11.8612C13.7495 12.4714 13.9247 12.9688 14.2711 13.3494C14.5913 13.6977 15.0766 13.8729 15.731 13.8729C16.1499 13.8729 16.5687 13.8004 16.9876 13.6514C17.3339 13.5306 17.6521 13.301 17.9421 12.9688L17.9562 12.9527L17.9703 12.9386C18.5099 12.3566 19.1281 12.0888 19.8229 12.1371C20.435 12.1794 20.9546 12.415 21.3835 12.8419C21.6352 13.0956 21.8104 13.3856 21.905 13.7118C21.9997 14.036 22.0097 14.3723 21.9352 14.7227C21.6231 16.0417 21.2888 17.2318 20.9344 18.297L19.8047 21.6498C19.2449 23.3534 18.4173 24.8718 17.3239 26.2008C16.2163 27.5459 14.9074 28.5991 13.3911 29.3623C11.8587 30.1356 10.1893 30.5222 8.38907 30.5222ZM8.38907 28.1078C9.80672 28.1078 11.1136 27.8057 12.3057 27.2056C13.516 26.5955 14.5671 25.7477 15.4592 24.6664C16.3613 23.5709 17.046 22.3083 17.5172 20.8786L18.6428 17.5338C18.9751 16.5371 19.2852 15.4315 19.5732 14.2153C19.5631 14.2656 19.5671 14.322 19.5873 14.3884C19.6074 14.4569 19.6356 14.5113 19.6759 14.5495C19.6738 14.5495 19.6678 14.5475 19.6557 14.5475C19.7101 14.5495 19.7584 14.5415 19.8007 14.5213V14.5234C19.7826 14.5374 19.7624 14.5576 19.7383 14.5818L18.8543 13.7602L19.7665 14.5536C19.1966 15.208 18.5381 15.6651 17.791 15.9289C17.1144 16.1685 16.4257 16.2894 15.731 16.2894C14.3657 16.2894 13.2844 15.8524 12.4869 14.9764C11.7197 14.1347 11.3351 13.0956 11.3351 11.8612C11.3351 10.9672 11.5566 10.1174 11.9996 9.31391C12.4386 8.52052 13.0327 7.87009 13.7838 7.36465C14.5792 6.83102 15.4733 6.5632 16.4721 6.5632C17.1205 6.5632 17.6702 6.68805 18.1233 6.93976C18.667 7.24182 19.0395 7.68886 19.2409 8.28491C19.547 9.18705 19.4825 10.1174 19.0496 11.0779C19.1181 10.9289 19.1221 10.7598 19.0577 10.5684C19.0033 10.4033 18.9207 10.2885 18.81 10.2201C18.8966 10.2724 18.9852 10.2986 19.0798 10.2986C19.6839 10.2986 20.2558 10.1637 20.7935 9.89587C21.309 9.63611 21.7399 9.24948 22.0822 8.73196C22.4105 8.23457 22.5736 7.61435 22.5736 6.86928C22.5736 5.87452 22.2594 5.06702 21.6291 4.44479C20.9948 3.81651 19.984 3.50439 18.5965 3.50439C17.2151 3.50439 15.8941 3.81249 14.6356 4.42868C13.3428 5.05897 12.197 5.92083 11.1942 7.01024C10.1853 8.10771 9.39189 9.3562 8.81195 10.7598C8.24006 12.1472 7.95411 13.6091 7.95411 15.1456C7.95411 16.9076 8.29241 18.2205 8.96902 19.0864C9.57514 19.8617 10.3162 20.2503 11.1901 20.2503C11.7338 20.2503 12.2151 20.1335 12.634 19.9019C13.085 19.6522 13.4837 19.2958 13.8301 18.8327L13.8583 18.7964L13.8885 18.7622C14.1684 18.442 14.4966 18.2608 14.8752 18.2165C15.135 18.1863 15.3826 18.2265 15.6223 18.3353C15.8015 18.4178 15.9606 18.5367 16.1036 18.6897C16.3613 18.9696 16.5023 19.2978 16.5244 19.6724C16.5446 19.9765 16.4801 20.2725 16.3371 20.5604C15.7733 21.7405 15 22.6708 14.0194 23.3514C13.0085 24.0522 11.7862 24.4026 10.3524 24.4026C9.23684 24.4026 8.21589 24.1972 7.28556 23.7844C6.31295 23.3514 5.53566 22.7292 4.95773 21.9156C4.35765 21.0739 4.0576 20.1154 4.0576 19.0421C4.0576 19.1388 4.07774 19.2374 4.12003 19.3381C4.17843 19.4791 4.26904 19.5979 4.38986 19.6945C4.48048 19.769 4.57915 19.8194 4.68185 19.8456C4.72414 19.8576 4.75636 19.8637 4.78254 19.8637C4.34959 19.8637 3.97504 19.9865 3.65688 20.2362C3.28233 20.5282 2.98632 20.9269 2.76682 21.4364C2.53323 21.9801 2.41443 22.5882 2.41443 23.2608C2.41443 24.1428 2.64197 24.9402 3.09506 25.6551C3.55619 26.382 4.23078 26.968 5.11681 27.4151C6.02902 27.8762 7.12044 28.1078 8.38907 28.1078Z" fill="white"/>
<path d="M27.5787 10.1053C26.5839 10.1053 25.714 9.88178 24.9649 9.43675C24.4735 9.14275 24.105 8.73599 23.8614 8.21444C23.6459 7.75532 23.5372 7.21967 23.5372 6.61153C23.5372 5.04085 24.0346 3.92727 25.0293 3.26879C25.865 2.71704 26.8437 2.44116 27.9653 2.44116C29.0185 2.44116 29.9266 2.68683 30.6939 3.18019C31.2114 3.51245 31.5779 3.97963 31.7893 4.58575C31.9685 5.09119 32.0289 5.68322 31.9706 6.35982C31.8497 7.74323 31.3242 8.73397 30.3898 9.33406C29.5904 9.84755 28.654 10.1053 27.5787 10.1053ZM27.5787 7.69088C28.1808 7.69088 28.6822 7.562 29.0829 7.30223C29.3527 7.12906 29.5118 6.74645 29.5642 6.15442C29.6085 5.62885 29.5501 5.31672 29.391 5.21201C29.0205 4.97641 28.5452 4.8576 27.9653 4.8576C27.327 4.8576 26.7933 4.99856 26.3624 5.28451C26.0885 5.46373 25.9536 5.90674 25.9536 6.61153C25.9536 7.01226 26.0362 7.26397 26.2013 7.36264C26.5698 7.58012 27.0289 7.69088 27.5787 7.69088ZM24.0044 27.5278C23.2734 27.5278 22.631 27.3849 22.0752 27.0989C21.4832 26.7948 21.016 26.3438 20.6717 25.7457C20.1139 24.7771 19.834 23.6253 19.834 22.2942C19.834 21.4706 19.9165 20.6067 20.0797 19.6986C20.2387 18.8125 20.4421 17.9628 20.6918 17.1432C21.4731 14.7147 22.2363 12.8359 22.9854 11.5089C23.9238 9.84352 25.0918 9.00985 26.4852 9.00985C27.2504 9.00985 27.8445 9.29177 28.2694 9.85359C28.6137 10.3087 28.7869 10.9148 28.7869 11.6679C28.7869 12.4533 28.6399 13.2527 28.3439 14.0622L27.6189 16.0558C27.4317 16.5773 27.337 17.0566 27.337 17.4956C27.337 17.6345 27.3511 17.7413 27.3773 17.8178C27.3813 17.8359 27.3874 17.848 27.3914 17.856C27.3914 17.854 27.3894 17.852 27.3874 17.85C27.4196 17.8822 27.484 17.8983 27.5787 17.8983C27.7639 17.8983 27.9069 17.852 28.0096 17.7594C28.2714 17.5238 28.5352 17.2096 28.803 16.8149C29.0144 16.4988 29.2843 16.2672 29.6105 16.1243C29.9669 15.9672 30.3455 15.937 30.7442 16.0316C31.2778 16.1605 31.7209 16.4424 32.0773 16.8814C32.2968 17.1553 32.4357 17.4452 32.4921 17.7533C32.5606 18.14 32.4981 18.5085 32.3068 18.8548L32.2907 18.883L32.2746 18.9092C32.0894 19.2052 31.8618 19.6523 31.594 20.2463C31.2919 20.9169 30.9315 21.6418 30.5086 22.4191C30.0696 23.2286 29.5662 23.9978 29.0003 24.7268C28.3922 25.5061 27.7015 26.1545 26.9242 26.666C26.0583 27.2399 25.0837 27.5278 24.0044 27.5278ZM24.0044 25.1114C24.6004 25.1114 25.13 24.9584 25.5932 24.6523C26.1489 24.2858 26.6483 23.8146 27.0934 23.2427C27.5787 22.6184 28.0096 21.96 28.3862 21.2672C28.7788 20.5423 29.1151 19.8717 29.393 19.2556C29.7051 18.5608 29.983 18.0191 30.2267 17.6285L31.2496 18.2688L30.1945 17.6829C30.1099 17.8359 30.0817 18.003 30.1139 18.1802C30.132 18.2789 30.1602 18.3534 30.1985 18.4017C30.1884 18.3897 30.1824 18.3816 30.1784 18.3796H30.1804C30.3092 18.4118 30.4422 18.3977 30.5811 18.3353C30.6858 18.289 30.7583 18.2366 30.7986 18.1762C30.422 18.728 30.0334 19.1871 29.6286 19.5516C29.0668 20.059 28.3821 20.3148 27.5787 20.3148C26.8175 20.3148 26.1832 20.061 25.6798 19.5576C25.1743 19.0542 24.9226 18.3655 24.9226 17.4956C24.9226 16.7767 25.0656 16.0216 25.3495 15.2322L26.0744 13.2346C26.2718 12.6909 26.3725 12.1693 26.3725 11.6679C26.3725 11.525 26.3604 11.4122 26.3402 11.3276C26.3342 11.3075 26.3302 11.2934 26.3262 11.2833C26.3282 11.2894 26.3342 11.2974 26.3423 11.3095C26.3765 11.3538 26.4208 11.39 26.4752 11.4142C26.4913 11.4202 26.5054 11.4263 26.5175 11.4283C26.5114 11.4263 26.4993 11.4263 26.4852 11.4263C26.0322 11.4263 25.567 11.8492 25.0897 12.6949C24.4212 13.881 23.7245 15.5987 23.0015 17.85C22.78 18.5769 22.5988 19.3341 22.4558 20.1255C22.3189 20.8907 22.2504 21.6136 22.2504 22.2942C22.2504 23.1964 22.4216 23.9455 22.7659 24.5415C22.8727 24.7288 23.0096 24.8637 23.1808 24.9523C23.3882 25.059 23.662 25.1114 24.0044 25.1114Z" fill="white"/>
<path d="M40.3305 0.477783C41.6837 0.477783 42.7187 0.820112 43.4356 1.50477C44.1404 2.17735 44.531 2.99893 44.6096 3.97155C44.676 4.80522 44.5653 5.64091 44.2733 6.47861C43.9793 7.31832 43.5524 8.03318 42.9926 8.62118C42.3139 9.33202 41.5548 9.68643 40.7171 9.68643C40.2338 9.68643 39.8311 9.57165 39.5089 9.34209C39.2793 9.17898 39.1061 8.96955 38.9893 8.71784C38.8846 8.49634 38.8323 8.25469 38.8323 7.99694C38.8323 7.83987 38.8202 7.71502 38.796 7.62038C38.79 7.5942 38.7839 7.57607 38.7779 7.56198C38.7779 7.56198 38.7819 7.56802 38.7859 7.57406C38.8141 7.61031 38.8484 7.6385 38.8907 7.65662C38.9007 7.65864 38.9068 7.66266 38.9088 7.66266C38.8947 7.65864 38.8745 7.65864 38.8484 7.65864C38.5805 7.65864 38.3147 7.84591 38.0509 8.22247C37.614 8.84672 37.2314 9.64817 36.9031 10.6329L35.7573 10.2503V9.04205H39.1383C39.5975 9.04205 39.9801 9.20918 40.2902 9.54144C40.5097 9.77906 40.6607 10.0811 40.7392 10.4476C40.8379 10.9108 40.8339 11.4142 40.7272 11.9619C40.6204 12.5117 40.4191 13.003 40.123 13.44C39.9156 13.746 39.6659 13.9817 39.3719 14.1488C39.0558 14.33 38.7094 14.4206 38.3349 14.4206V12.0062C38.2966 12.0062 38.2584 12.0082 38.2201 12.0102C38.1395 12.0183 38.059 12.0344 37.9805 12.0606C37.8254 12.1069 37.6845 12.1834 37.5616 12.2881C37.4005 12.423 37.2817 12.5902 37.2092 12.7855C37.1065 13.0533 37.1025 13.3232 37.1931 13.595C37.3441 14.0501 37.6542 14.3179 38.1234 14.4005C38.1375 14.4025 38.1496 14.4045 38.1597 14.4065C38.1597 14.4065 38.1597 14.4065 38.1557 14.4065C38.1295 14.4025 38.0791 14.3985 38.0087 14.3904C37.8556 14.3743 37.614 14.3502 37.2837 14.3179C36.6293 14.2555 35.8459 14.1911 34.9337 14.1287L35.0163 12.9224L36.1963 13.1802C35.9466 14.33 35.7432 15.4798 35.5862 16.6297C35.4251 17.8057 35.2922 18.8206 35.1854 19.6744C35.1009 20.4456 35.0284 21.2209 34.966 22.0062C34.8935 22.8742 34.7585 23.6796 34.5552 24.4166C34.3175 25.2886 33.9188 26.0034 33.359 26.5612C32.7146 27.2056 31.8306 27.5278 30.703 27.5278C30.0163 27.5278 29.4283 27.403 28.939 27.1573C28.365 26.8673 27.9462 26.4303 27.6844 25.8484C27.2958 24.9845 27.2273 23.7763 27.481 22.2278C27.7025 20.8806 28.0751 19.2032 28.6007 17.1915C28.8403 16.3357 29.0799 15.502 29.3175 14.6925C29.5592 13.8709 29.8109 13.0755 30.0747 12.3063L31.2164 12.6989V13.9051H30.7674C29.6921 13.9051 28.9087 13.6695 28.4174 13.2003C28.1516 12.9446 27.9623 12.6566 27.8455 12.3365C27.7247 11.9961 27.6945 11.6437 27.7549 11.2752C27.8475 10.7295 28.0751 10.2462 28.4375 9.8294C28.8947 9.30383 29.4021 9.04205 29.9619 9.04205H32.1186V10.2503L30.997 9.80121C31.7138 8.01506 32.4992 6.45042 33.355 5.10929C34.2531 3.70373 35.2559 2.5962 36.3675 1.78669C37.5677 0.914756 38.8886 0.477783 40.3305 0.477783ZM40.3305 2.89221C39.4122 2.89221 38.5644 3.17413 37.7892 3.73998C36.9253 4.37026 36.1258 5.25831 35.3908 6.40813C34.6156 7.62239 33.8987 9.05212 33.2402 10.6993L32.9361 11.4585H29.9619C30.0888 11.4585 30.1995 11.4303 30.2881 11.3759C30.2962 11.3719 30.3042 11.3679 30.3083 11.3618V11.3638C30.2962 11.3739 30.2801 11.392 30.2599 11.4142C30.1955 11.4887 30.1552 11.5753 30.1391 11.6719C30.1452 11.6276 30.1391 11.5773 30.121 11.5209C30.1109 11.4967 30.1009 11.4766 30.0888 11.4585V11.4565C30.0606 11.4303 30.0384 11.4122 30.0203 11.4041C30.0384 11.4122 30.0686 11.4222 30.1109 11.4323C30.27 11.4706 30.4875 11.4907 30.7674 11.4907H32.908L32.3602 13.0896C32.1085 13.8246 31.8669 14.5858 31.6353 15.3731C31.3997 16.1746 31.1681 16.9821 30.9365 17.8016C30.4311 19.7408 30.0727 21.3458 29.8653 22.6184C29.6901 23.6877 29.6961 24.4348 29.8874 24.8576C29.9639 25.0268 30.2358 25.1114 30.703 25.1114C31.1621 25.1114 31.4802 25.0268 31.6514 24.8536C31.9092 24.5959 32.1005 24.2374 32.2273 23.7783C32.3884 23.1863 32.4992 22.5298 32.5576 21.8109C32.622 21.0054 32.7005 20.1939 32.7891 19.3743C32.8959 18.5125 33.0308 17.4875 33.1919 16.3034C33.359 15.0892 33.5725 13.8769 33.8383 12.6667L34.0598 11.6458L35.1009 11.7183C36.0352 11.7847 36.8407 11.8491 37.5173 11.9156C37.8516 11.9478 38.0993 11.972 38.2563 11.9881C38.3409 11.9961 38.4033 12.0042 38.4436 12.0082C38.4819 12.0123 38.5161 12.0183 38.5443 12.0223C39.0175 12.1069 39.3317 12.3767 39.4827 12.8318C39.5733 13.1017 39.5693 13.3715 39.4686 13.6393C39.3941 13.8367 39.2753 14.0018 39.1142 14.1367C38.9913 14.2414 38.8504 14.3179 38.6953 14.3663C38.6168 14.3904 38.5362 14.4065 38.4537 14.4146C38.4134 14.4186 38.3751 14.4206 38.3349 14.4206V12.0062C38.2805 12.0062 38.2281 12.0203 38.1738 12.0525C38.1516 12.0646 38.1335 12.0767 38.1194 12.0908L38.1234 12.0847C38.2342 11.9196 38.3127 11.7263 38.357 11.5008C38.3993 11.2773 38.4074 11.094 38.3772 10.9551C38.3913 11.0215 38.4396 11.098 38.5201 11.1846C38.6893 11.3679 38.8947 11.4585 39.1383 11.4585H34.0819L34.6115 9.86968C35.0143 8.66146 35.5016 7.65058 36.0735 6.83503C36.8186 5.77381 37.7428 5.2422 38.8484 5.2422C39.6418 5.2422 40.26 5.52814 40.699 6.10003C41.0655 6.57527 41.2487 7.20757 41.2487 7.99694C41.2487 7.89827 41.2245 7.79758 41.1782 7.6969C41.1158 7.56601 41.0272 7.45928 40.9124 7.37672C40.8399 7.32436 40.7694 7.29013 40.701 7.27402C40.6909 7.27201 40.6849 7.26999 40.6808 7.26999C40.6889 7.27201 40.701 7.27201 40.7171 7.27201C40.8661 7.27201 41.0413 7.16528 41.2447 6.95384C41.5648 6.61755 41.8125 6.19468 41.9918 5.6832C42.173 5.16568 42.2415 4.66024 42.2032 4.16487C42.173 3.80441 42.028 3.50035 41.7662 3.25065C41.5165 3.01102 41.0393 2.89221 40.3305 2.89221Z" fill="white"/>
<path d="M40.6192 27.5279C39.0203 27.5279 37.8162 27.0003 37.0046 25.9452C36.2696 24.9866 35.9011 23.7764 35.9011 22.3104C35.9011 20.9854 36.1609 19.5718 36.6764 18.0696C36.9563 17.248 37.2704 16.3599 37.6168 15.4095L38.7445 12.3164L39.8782 12.7313V13.9375C39.0727 13.9375 38.4283 13.6958 37.947 13.2145C37.5342 12.8017 37.2664 12.3164 37.1395 11.7566C37.0167 11.2149 37.0248 10.7196 37.1617 10.2685C37.2624 9.93624 37.4275 9.66439 37.6571 9.45497C37.9551 9.18111 38.3095 9.04216 38.7203 9.04216C39.3365 9.04216 39.7936 8.89516 40.0957 8.59915C40.5044 8.20043 40.7843 7.79367 40.9354 7.38489L40.9434 7.36475L40.9515 7.34663C41.4287 6.17667 41.9523 5.39938 42.5181 5.01677C43.088 4.63014 43.7002 4.43884 44.3546 4.43884C44.9003 4.43884 45.3695 4.56973 45.7602 4.83151C46.1891 5.11947 46.4811 5.52825 46.6402 6.05786C46.8798 6.86334 46.6845 7.91247 46.0522 9.20326L44.9668 8.67365L46.0643 9.17506C45.8871 9.56169 45.7944 9.81743 45.7844 9.9443C45.7904 9.86375 45.7803 9.77716 45.7542 9.68453C45.7078 9.52948 45.6253 9.39456 45.5065 9.27978C45.4018 9.17909 45.285 9.11063 45.1561 9.07035C45.0957 9.05223 45.0433 9.04216 44.999 9.04216H46.6744C47.1315 9.04216 47.5161 9.2093 47.8242 9.54156C48.0457 9.77917 48.1948 10.0812 48.2733 10.4477C48.372 10.9109 48.3679 11.4143 48.2612 11.962C48.1545 12.5118 47.9531 13.0031 47.6571 13.4401C47.4497 13.7462 47.2 13.9818 46.906 14.1489C46.5898 14.3301 46.2435 14.4208 45.8689 14.4208C44.9446 14.4208 44.2781 14.453 43.8693 14.5194C43.7747 14.5335 43.7082 14.5516 43.668 14.5758C43.676 14.5718 43.6861 14.5597 43.6962 14.5416C43.5653 14.745 43.4102 15.1578 43.227 15.776C42.9934 16.5392 42.9914 17.0929 43.2209 17.4413C43.3176 17.5903 43.4404 17.6991 43.5854 17.7675C43.7666 17.8561 44.0022 17.8984 44.2902 17.8984C44.7191 17.8984 45.0937 17.8078 45.4118 17.6245C45.7481 17.4312 46.026 17.1674 46.2415 16.8372C46.467 16.4969 46.7489 16.2593 47.0852 16.1183C47.4517 15.9673 47.8363 15.9471 48.2391 16.0599C48.7445 16.2009 49.1674 16.4727 49.5097 16.8755C49.7433 17.1493 49.8883 17.4473 49.9447 17.7715C50.0091 18.1401 49.9547 18.4965 49.7816 18.8408L49.7755 18.8529L49.7695 18.867C49.5802 19.2234 49.3265 19.7188 49.0103 20.3551C48.674 21.0257 48.2733 21.7506 47.8061 22.5299C47.3148 23.3475 46.7429 24.1187 46.0884 24.8437C45.3997 25.6048 44.6164 26.2331 43.7405 26.7285C42.794 27.2601 41.7529 27.5279 40.6192 27.5279ZM40.6192 25.1115C41.3321 25.1115 41.9765 24.9484 42.5544 24.6242C43.2028 24.2577 43.7827 23.7925 44.2962 23.2246C44.844 22.6165 45.3232 21.9701 45.734 21.2875C46.169 20.5625 46.5415 19.892 46.8496 19.2738C47.1758 18.6233 47.4376 18.1098 47.635 17.7353L48.7022 18.3012L47.6229 17.7615C47.5564 17.8904 47.5383 18.0333 47.5645 18.1884C47.5846 18.2951 47.6188 18.3797 47.6692 18.4401C47.647 18.4119 47.6188 18.3938 47.5886 18.3857C47.7215 18.422 47.8625 18.4119 48.0095 18.3495C48.1263 18.3012 48.2109 18.2367 48.2652 18.1562C47.8363 18.8126 47.2866 19.3322 46.614 19.7188C45.9233 20.1155 45.15 20.3149 44.2902 20.3149C43.6357 20.3149 43.0518 20.192 42.5403 19.9443C41.9926 19.6825 41.5496 19.2919 41.2072 18.7744C40.5568 17.7917 40.4581 16.5653 40.9092 15.0953C41.1569 14.2536 41.4086 13.6334 41.6643 13.2367C42.053 12.6326 42.6611 12.2661 43.4887 12.1332C44.0244 12.0486 44.8178 12.0063 45.8689 12.0063C45.8166 12.0063 45.7622 12.0204 45.7078 12.0526C45.6857 12.0647 45.6696 12.0768 45.6555 12.0909L45.6575 12.0849C45.7703 11.9197 45.8468 11.7264 45.8911 11.5009C45.9354 11.2774 45.9414 11.0941 45.9112 10.9552C45.9253 11.0216 45.9736 11.0981 46.0542 11.1847C46.2233 11.368 46.4308 11.4586 46.6744 11.4586H44.999C44.5238 11.4586 44.1351 11.3116 43.8311 11.0196C43.4867 10.6894 43.3357 10.2665 43.376 9.75098C43.4102 9.3422 43.5733 8.81461 43.8693 8.17023L43.8814 8.14204C44.0888 7.72117 44.2237 7.36878 44.2882 7.08082C44.3285 6.90764 44.3405 6.79689 44.3244 6.74654C44.3224 6.7405 44.3224 6.73849 44.3224 6.73647C44.3244 6.74453 44.3285 6.75258 44.3365 6.76064C44.3566 6.79084 44.3828 6.81702 44.415 6.83716C44.4352 6.85125 44.4513 6.85931 44.4614 6.86132C44.4392 6.8573 44.403 6.85327 44.3546 6.85327C44.1935 6.85327 44.0324 6.90764 43.8734 7.01638C43.8291 7.04457 43.7586 7.1372 43.6619 7.29226C43.5109 7.52987 43.3538 7.85408 43.1867 8.26084L42.0691 7.80373L43.2008 8.22258C42.9229 8.97168 42.4517 9.67245 41.7872 10.3249C41.0159 11.08 39.993 11.4586 38.7203 11.4586C38.9378 11.4586 39.1271 11.3821 39.2922 11.2311C39.3868 11.1445 39.4452 11.0579 39.4714 10.9733C39.4593 11.0156 39.4674 11.1002 39.4956 11.225C39.5197 11.3297 39.5721 11.4244 39.6547 11.5069C39.6486 11.5009 39.6426 11.4948 39.6365 11.4908C39.6365 11.4908 39.6406 11.4928 39.6466 11.4948C39.699 11.513 39.7775 11.523 39.8782 11.523H41.6039L39.8862 16.2351C39.5459 17.1715 39.2378 18.0454 38.9599 18.8549C38.531 20.1014 38.3176 21.2532 38.3176 22.3104C38.3176 23.2287 38.5189 23.9496 38.9197 24.4731C39.2479 24.9 39.8137 25.1115 40.6192 25.1115Z" fill="white"/>
<path d="M52.5647 27.5279C51.0242 27.5279 49.7355 27.1654 48.7004 26.4385C47.6815 25.7256 46.9304 24.7832 46.4431 23.6112C45.9819 22.5037 45.7584 21.2935 45.7705 19.9805C45.7826 18.7038 46.0021 17.4312 46.429 16.1605C46.8579 14.8859 47.4781 13.7179 48.2896 12.6567C49.1213 11.5693 50.1301 10.6933 51.3182 10.0328C52.5426 9.35222 53.9139 9.00989 55.4322 9.00989C56.6606 9.00989 57.6876 9.25556 58.5112 9.74287C59.3529 10.2423 59.9771 10.9128 60.3839 11.7546C60.7645 12.5419 60.9538 13.3836 60.9538 14.2757C60.9538 15.2584 60.69 16.225 60.1584 17.1815C59.6328 18.1279 58.8998 18.9092 57.9594 19.5214C56.9868 20.1577 55.8531 20.4759 54.5623 20.4759C54.0508 20.4759 53.5514 20.4376 53.0621 20.3651C52.4781 20.2765 51.9384 20.0872 51.439 19.7932C51.5518 19.8617 51.6827 19.9 51.8257 19.906C51.9465 19.9121 52.0593 19.8939 52.16 19.8516C52.3794 19.759 52.5385 19.61 52.6392 19.3986C52.6875 19.3019 52.7097 19.2153 52.7097 19.1388L52.7037 19.1368C52.7439 19.1871 52.8325 19.2435 52.9735 19.3059C53.4729 19.5274 54.0991 19.6382 54.8523 19.6382C55.7645 19.6382 56.723 19.3986 57.7298 18.9173C58.6964 18.4562 59.4818 17.7634 60.0879 16.8351C60.3154 16.4948 60.6014 16.2532 60.9437 16.1142C61.3062 15.9672 61.6888 15.9491 62.0895 16.0558C62.6111 16.1968 63.044 16.4686 63.3883 16.8754C63.634 17.1654 63.779 17.4835 63.8233 17.8299C63.8716 18.2125 63.7911 18.577 63.5837 18.9233L62.5486 18.3011L63.6098 18.875C62.1177 21.6358 60.4644 23.7502 58.6541 25.2141C56.7472 26.7566 54.7174 27.5279 52.5647 27.5279ZM52.5647 25.1114C54.1475 25.1114 55.6718 24.5194 57.1358 23.3353C58.6964 22.0748 60.1463 20.204 61.4854 17.7272L61.4995 17.703L61.5136 17.6809C61.4351 17.8118 61.4048 17.9608 61.427 18.1299C61.4431 18.2608 61.4834 18.3635 61.5478 18.44C61.5277 18.4159 61.4995 18.3978 61.4612 18.3877C61.5821 18.4219 61.7129 18.4098 61.8499 18.3535C61.9667 18.3071 62.0533 18.2407 62.1096 18.1561C61.2558 19.463 60.1423 20.4417 58.7689 21.0981C57.4338 21.7345 56.129 22.0526 54.8523 22.0526C53.7588 22.0526 52.8064 21.8734 51.9968 21.515C51.4813 21.2874 51.0806 20.9874 50.7927 20.6128C50.4604 20.1839 50.2953 19.6926 50.2953 19.1388C50.2953 18.8488 50.3517 18.587 50.4624 18.3535C50.6275 18.0111 50.8833 17.7655 51.2316 17.6205C51.7351 17.411 52.2123 17.4412 52.6634 17.7111C52.8929 17.846 53.1467 17.9346 53.4205 17.9769C53.791 18.0313 54.1716 18.0595 54.5623 18.0595C55.3738 18.0595 56.0665 17.8722 56.6384 17.4996C57.2445 17.1029 57.7137 16.6076 58.048 16.0075C58.3742 15.4175 58.5394 14.8395 58.5394 14.2757C58.5394 13.7521 58.4286 13.2608 58.2091 12.8037C58.0138 12.401 57.7037 12.0727 57.2788 11.821C56.8358 11.5572 56.2196 11.4263 55.4322 11.4263C54.3307 11.4263 53.3521 11.666 52.4922 12.1432C51.5981 12.6406 50.837 13.3011 50.2087 14.1227C49.5583 14.9725 49.0629 15.9088 48.7185 16.9318C48.3722 17.9588 48.195 18.9817 48.1869 20.0027C48.1769 20.9874 48.34 21.8815 48.6722 22.6849C48.9803 23.4239 49.4515 24.016 50.0879 24.461C50.7061 24.896 51.5317 25.1114 52.5647 25.1114ZM53.7246 15.645C53.9864 15.645 54.1757 15.5806 54.2884 15.4517C54.4395 15.2846 54.514 15.1497 54.514 15.049C54.514 15.0067 54.5019 14.9745 54.4797 14.9503C54.4858 14.9584 54.4938 14.9644 54.5019 14.9684C54.5019 14.9684 54.4979 14.9684 54.4918 14.9664C54.4354 14.9463 54.3509 14.9362 54.2401 14.9362C53.9642 14.9362 53.7629 15.0027 53.636 15.1376C53.491 15.2906 53.4185 15.4235 53.4185 15.5323C53.4185 15.5605 53.4366 15.5947 53.4709 15.6329C53.4608 15.6229 53.4527 15.6148 53.4447 15.6088C53.4427 15.6088 53.4407 15.6068 53.4407 15.6068C53.4447 15.6088 53.4487 15.6108 53.4527 15.6128C53.5152 15.6329 53.6058 15.645 53.7246 15.645ZM53.7246 18.0595C52.8567 18.0595 52.1781 17.7957 51.6928 17.2681C51.2337 16.7687 51.0041 16.1887 51.0041 15.5323C51.0041 14.7832 51.2961 14.0985 51.88 13.4783C52.4842 12.8399 53.2715 12.5218 54.2401 12.5218C55.0778 12.5218 55.7383 12.7735 56.2236 13.2789C56.6928 13.7703 56.9284 14.3603 56.9284 15.049C56.9284 15.7638 56.6505 16.4344 56.0907 17.0607C55.4967 17.7272 54.7073 18.0595 53.7246 18.0595Z" fill="white"/>
<path d="M66.4104 27.5279C64.8699 27.5279 63.5812 27.1654 62.5461 26.4385C61.5272 25.7256 60.7761 24.7832 60.2888 23.6112C59.8276 22.5037 59.6041 21.2935 59.6162 19.9805C59.6283 18.7038 59.8478 17.4312 60.2747 16.1605C60.7036 14.8859 61.3238 13.7179 62.1353 12.6567C62.967 11.5693 63.9758 10.6933 65.1639 10.0328C66.3883 9.35222 67.7596 9.00989 69.2779 9.00989C70.5063 9.00989 71.5333 9.25556 72.3569 9.74287C73.1986 10.2423 73.8228 10.9128 74.2296 11.7546C74.6102 12.5419 74.7995 13.3836 74.7995 14.2757C74.7995 15.2584 74.5357 16.225 74.0041 17.1815C73.4785 18.1279 72.7455 18.9092 71.8051 19.5214C70.8325 20.1577 69.6988 20.4759 68.408 20.4759C67.8965 20.4759 67.3971 20.4376 66.9078 20.3651C66.3238 20.2765 65.7841 20.0872 65.2848 19.7932C65.3975 19.8617 65.5284 19.9 65.6714 19.906C65.7922 19.9121 65.905 19.8939 66.0057 19.8516C66.2251 19.759 66.3842 19.61 66.4849 19.3986C66.5332 19.3019 66.5554 19.2153 66.5554 19.1388L66.5494 19.1368C66.5896 19.1871 66.6782 19.2435 66.8192 19.3059C67.3186 19.5274 67.9448 19.6382 68.698 19.6382C69.6102 19.6382 70.5687 19.3986 71.5756 18.9173C72.5421 18.4562 73.3275 17.7634 73.9336 16.8351C74.1611 16.4948 74.4471 16.2532 74.7894 16.1142C75.1519 15.9672 75.5345 15.9491 75.9352 16.0558C76.4568 16.1968 76.8897 16.4686 77.234 16.8754C77.4797 17.1654 77.6247 17.4835 77.669 17.8299C77.7173 18.2125 77.6368 18.577 77.4294 18.9233L76.3943 18.3011L77.4556 18.875C75.9634 21.6358 74.3102 23.7502 72.4998 25.2141C70.5929 26.7566 68.5631 27.5279 66.4104 27.5279ZM66.4104 25.1114C67.9932 25.1114 69.5175 24.5194 70.9815 23.3353C72.5421 22.0748 73.992 20.204 75.3311 17.7272L75.3452 17.703L75.3593 17.6809C75.2808 17.8118 75.2506 17.9608 75.2727 18.1299C75.2888 18.2608 75.3291 18.3635 75.3935 18.44C75.3734 18.4159 75.3452 18.3978 75.3069 18.3877C75.4278 18.4219 75.5586 18.4098 75.6956 18.3535C75.8124 18.3071 75.899 18.2407 75.9553 18.1561C75.1015 19.463 73.988 20.4417 72.6146 21.0981C71.2795 21.7345 69.9747 22.0526 68.698 22.0526C67.6045 22.0526 66.6521 21.8734 65.8425 21.515C65.327 21.2874 64.9263 20.9874 64.6384 20.6128C64.3061 20.1839 64.141 19.6926 64.141 19.1388C64.141 18.8488 64.1974 18.587 64.3081 18.3535C64.4732 18.0111 64.729 17.7655 65.0773 17.6205C65.5808 17.411 66.058 17.4412 66.5091 17.7111C66.7386 17.846 66.9924 17.9346 67.2662 17.9769C67.6368 18.0313 68.0173 18.0595 68.408 18.0595C69.2195 18.0595 69.9122 17.8722 70.4841 17.4996C71.0902 17.1029 71.5594 16.6076 71.8937 16.0075C72.2199 15.4175 72.3851 14.8395 72.3851 14.2757C72.3851 13.7521 72.2743 13.2608 72.0548 12.8037C71.8595 12.401 71.5494 12.0727 71.1245 11.821C70.6815 11.5572 70.0653 11.4263 69.2779 11.4263C68.1764 11.4263 67.1978 11.666 66.3379 12.1432C65.4438 12.6406 64.6827 13.3011 64.0544 14.1227C63.404 14.9725 62.9086 15.9088 62.5642 16.9318C62.2179 17.9588 62.0407 18.9817 62.0326 20.0027C62.0226 20.9874 62.1857 21.8815 62.5179 22.6849C62.826 23.4239 63.2972 24.016 63.9336 24.461C64.5518 24.896 65.3774 25.1114 66.4104 25.1114ZM67.5703 15.645C67.8321 15.645 68.0214 15.5806 68.1341 15.4517C68.2852 15.2846 68.3597 15.1497 68.3597 15.049C68.3597 15.0067 68.3476 14.9745 68.3254 14.9503C68.3315 14.9584 68.3395 14.9644 68.3476 14.9684C68.3476 14.9684 68.3436 14.9684 68.3375 14.9664C68.2811 14.9463 68.1966 14.9362 68.0858 14.9362C67.8099 14.9362 67.6086 15.0027 67.4817 15.1376C67.3367 15.2906 67.2642 15.4235 67.2642 15.5323C67.2642 15.5605 67.2823 15.5947 67.3166 15.6329C67.3065 15.6229 67.2985 15.6148 67.2904 15.6088C67.2884 15.6088 67.2864 15.6068 67.2864 15.6068C67.2904 15.6088 67.2944 15.6108 67.2985 15.6128C67.3609 15.6329 67.4515 15.645 67.5703 15.645ZM67.5703 18.0595C66.7024 18.0595 66.0238 17.7957 65.5385 17.2681C65.0794 16.7687 64.8498 16.1887 64.8498 15.5323C64.8498 14.7832 65.1418 14.0985 65.7258 13.4783C66.3299 12.8399 67.1172 12.5218 68.0858 12.5218C68.9235 12.5218 69.584 12.7735 70.0693 13.2789C70.5385 13.7703 70.7741 14.3603 70.7741 15.049C70.7741 15.7638 70.4962 16.4344 69.9364 17.0607C69.3424 17.7272 68.553 18.0595 67.5703 18.0595Z" fill="white"/>
<path d="M8.39118 29.316C6.92923 29.316 5.65657 29.0421 4.5732 28.4944C3.48782 27.9466 2.65616 27.2157 2.07622 26.3035C1.49627 25.3913 1.2063 24.3764 1.2063 23.2588C1.2063 22.4211 1.35733 21.6538 1.65737 20.9551C1.95942 20.2583 2.37827 19.6985 2.91392 19.2797C3.44956 18.8608 4.07381 18.6514 4.78263 18.6514C5.10482 18.6514 5.26592 18.7803 5.26592 19.038C5.26592 19.8556 5.49145 20.5805 5.94252 21.2128C6.39359 21.8472 7.00575 22.3365 7.77901 22.6788C8.55228 23.0232 9.41011 23.1943 10.3566 23.1943C11.5326 23.1943 12.5233 22.9164 13.3288 22.3566C14.1343 21.7988 14.7726 21.0256 15.2458 20.0368C15.3525 19.8234 15.3425 19.6462 15.2136 19.5052C15.0847 19.3663 14.9438 19.3824 14.7947 19.5535C14.3437 20.1556 13.8161 20.6228 13.216 20.9551C12.6139 21.2894 11.9393 21.4545 11.1942 21.4545C9.92562 21.4545 8.86843 20.9148 8.02066 19.8355C7.17088 18.7521 6.748 17.1895 6.748 15.1476C6.748 13.452 7.06415 11.835 7.69847 10.2986C8.33077 8.76414 9.19867 7.39483 10.3002 6.19064C11.4057 4.98846 12.6723 4.03799 14.102 3.33924C15.5297 2.6425 17.0279 2.29211 18.5966 2.29211C20.3143 2.29211 21.6091 2.72305 22.479 3.58088C23.3489 4.44073 23.7839 5.53618 23.7839 6.86724C23.7839 7.85597 23.5523 8.69971 23.0912 9.39645C22.628 10.0952 22.0441 10.6208 21.3352 10.9752C20.6264 11.3296 19.8733 11.5068 19.0799 11.5068C18.7577 11.5068 18.4557 11.4222 18.1778 11.2491C17.8979 11.0779 17.8233 10.8524 17.9522 10.5724C18.2523 9.90793 18.3006 9.27361 18.0972 8.67151C17.8918 8.07143 17.3501 7.76938 16.4701 7.76938C15.717 7.76938 15.0465 7.96873 14.4564 8.36543C13.8644 8.76414 13.3972 9.27361 13.0549 9.89584C12.7106 10.5201 12.5394 11.1745 12.5394 11.8612C12.5394 12.7855 12.8173 13.5527 13.3771 14.1649C13.9349 14.7771 14.7182 15.0831 15.7291 15.0831C16.2869 15.0831 16.8407 14.9865 17.3884 14.7932C17.9361 14.5998 18.4234 14.2575 18.8544 13.7621C19.1323 13.4621 19.4283 13.3232 19.7404 13.3433C20.0505 13.3654 20.3143 13.4843 20.5298 13.6977C20.7432 13.9132 20.8197 14.1709 20.7553 14.471C20.4532 15.7396 20.131 16.8874 19.7887 17.9184C19.4444 18.9454 19.0678 20.059 18.661 21.2612C18.1455 22.8298 17.3884 24.2213 16.3896 25.4335C15.3908 26.6458 14.2088 27.5963 12.8455 28.2849C11.4862 28.9716 10.0021 29.316 8.39118 29.316Z" fill="#F08080"/>
<path d="M27.5825 8.89711C26.8092 8.89711 26.1427 8.73199 25.5849 8.39772C25.0251 8.06546 24.7472 7.4694 24.7472 6.60955C24.7472 5.47181 25.0634 4.69251 25.6977 4.27366C26.33 3.85481 27.0871 3.64539 27.9691 3.64539C28.7786 3.64539 29.4693 3.82863 30.0392 4.19311C30.6071 4.55961 30.8487 5.24628 30.7641 6.25514C30.6775 7.24387 30.3332 7.93054 29.7331 8.31717C29.1371 8.7038 28.4202 8.89711 27.5825 8.89711ZM24.0062 26.3196C22.9308 26.3196 22.1697 25.929 21.7186 25.1436C21.2675 24.3603 21.042 23.4098 21.042 22.2922C21.042 21.5411 21.1165 20.7457 21.2675 19.908C21.4165 19.0703 21.6099 18.2689 21.8475 17.4996C22.5986 15.1597 23.3296 13.3595 24.0384 12.1029C24.7472 10.8464 25.5627 10.2181 26.487 10.2181C27.216 10.2181 27.5825 10.7014 27.5825 11.668C27.5825 12.3123 27.4576 12.9728 27.212 13.6494C26.9643 14.326 26.7226 14.9926 26.487 15.647C26.2494 16.3035 26.1326 16.9197 26.1326 17.4996C26.1326 18.0313 26.2655 18.432 26.5354 18.6998C26.8032 18.9696 27.1516 19.1025 27.5825 19.1025C28.0758 19.1025 28.4866 18.9555 28.8149 18.6595C29.1471 18.3595 29.4754 17.9729 29.7976 17.4996C29.9687 17.2419 30.1882 17.1452 30.4581 17.2097C30.7259 17.2741 30.9514 17.4191 31.1347 17.6446C31.3159 17.8702 31.3541 18.0776 31.2474 18.2648C31.032 18.6092 30.7802 19.1025 30.4903 19.7469C30.2003 20.3913 29.8499 21.0901 29.4431 21.8412C29.0404 22.5943 28.5752 23.3071 28.0497 23.9838C27.5221 24.6604 26.926 25.2202 26.2615 25.6591C25.595 26.1002 24.8439 26.3196 24.0062 26.3196Z" fill="#F08080"/>
<path d="M40.3285 1.68811C41.3595 1.68811 42.1166 1.91969 42.5999 2.38082C43.0832 2.83793 43.351 3.39975 43.4054 4.06428C43.4577 4.73081 43.3671 5.40137 43.1315 6.07798C42.8939 6.75458 42.5556 7.32446 42.1166 7.78559C41.6756 8.24874 41.2084 8.47831 40.7151 8.47831C40.264 8.47831 40.0385 8.31721 40.0385 7.99502C40.0385 6.964 39.6398 6.4485 38.8464 6.4485C38.1577 6.4485 37.5616 6.80895 37.0582 7.52784C36.5588 8.24874 36.1259 9.15491 35.7614 10.2504H39.1363C39.3498 10.2504 39.4908 10.4014 39.5552 10.7014C39.6196 11.0035 39.6136 11.3458 39.5391 11.7324C39.4626 12.1191 39.3236 12.4634 39.1202 12.7635C38.9148 13.0655 38.6531 13.2145 38.3309 13.2145C38.3731 13.2145 38.061 13.1823 37.3965 13.1179C36.736 13.0534 35.9426 12.989 35.0203 12.9246C34.7626 14.1066 34.5532 15.2886 34.3921 16.4687C34.231 17.6507 34.0961 18.6676 33.9893 19.5214C33.9027 20.3168 33.8282 21.1123 33.7638 21.9057C33.6994 22.7011 33.5745 23.432 33.3933 24.0966C33.21 24.7631 32.914 25.3008 32.5072 25.7075C32.0985 26.1163 31.4964 26.3197 30.703 26.3197C29.7142 26.3197 29.0759 25.9975 28.7859 25.3531C28.496 24.7087 28.4597 23.7321 28.6732 22.4212C28.8886 21.1123 29.2531 19.4711 29.7686 17.4997C30.0042 16.662 30.2398 15.8404 30.4774 15.0349C30.713 14.2294 30.9607 13.4521 31.2185 12.699H30.7674C30.0143 12.699 29.5109 12.5762 29.2531 12.3285C28.9954 12.0828 28.8947 11.7969 28.947 11.4747C29.0014 11.1525 29.1343 10.8686 29.3498 10.6209C29.5632 10.3752 29.7686 10.2504 29.9619 10.2504H32.1206C32.8073 8.53268 33.5584 7.03448 34.376 5.75578C35.1915 4.4791 36.0916 3.48232 37.0743 2.76745C38.061 2.04856 39.1464 1.68811 40.3285 1.68811Z" fill="#F08080"/>
<path d="M40.6213 26.3196C39.4171 26.3196 38.531 25.9491 37.9632 25.208C37.3933 24.467 37.1094 23.5004 37.1094 22.3083C37.1094 21.1162 37.347 19.8335 37.8182 18.4581C38.0961 17.6486 38.4082 16.7706 38.7526 15.8242C39.0949 14.8798 39.4714 13.8488 39.8802 12.7312C39.407 12.7312 39.0466 12.6083 38.8009 12.3606C38.5532 12.115 38.3921 11.825 38.3176 11.4907C38.2411 11.1585 38.2411 10.8685 38.3176 10.6208C38.3921 10.3751 38.527 10.2503 38.7203 10.2503C39.6648 10.2503 40.4058 9.98851 40.9435 9.46092C41.4791 8.93534 41.8557 8.38158 42.0711 7.80163C42.4578 6.85721 42.8323 6.26115 43.1988 6.01347C43.5633 5.76779 43.9499 5.64294 44.3587 5.64294C44.9588 5.64294 45.3333 5.89667 45.4783 6.4001C45.6273 6.90553 45.4582 7.66268 44.9709 8.67155C44.7332 9.18706 44.6044 9.57973 44.5842 9.84755C44.5621 10.1174 44.701 10.2503 45.0031 10.2503H46.6704C46.8839 10.2503 47.0248 10.4013 47.0893 10.7014C47.1537 11.0034 47.1477 11.3457 47.0732 11.7324C46.9966 12.119 46.8577 12.4633 46.6543 12.7634C46.4489 13.0654 46.1871 13.2145 45.8649 13.2145C44.8823 13.2145 44.1533 13.2527 43.6821 13.3272C43.2089 13.4037 42.8766 13.591 42.6833 13.8911C42.49 14.1931 42.2846 14.7086 42.0711 15.4376C41.7268 16.5552 41.7751 17.4472 42.2161 18.1118C42.6551 18.7723 43.3478 19.1025 44.2943 19.1025C44.9386 19.1025 45.5105 18.9616 46.0099 18.6756C46.5134 18.3856 46.9282 17.995 47.2504 17.4996C47.4215 17.2419 47.641 17.1512 47.9109 17.2257C48.1787 17.3023 48.4042 17.4472 48.5875 17.6607C48.7687 17.8762 48.807 18.0876 48.7002 18.297C48.5069 18.6635 48.2492 19.1669 47.927 19.8113C47.6048 20.4557 47.2181 21.1545 46.7671 21.9056C46.316 22.6587 45.7884 23.3675 45.1883 24.032C44.5923 24.6986 43.9117 25.2463 43.1505 25.6752C42.3873 26.1062 41.5435 26.3196 40.6213 26.3196Z" fill="#F08080"/>
<path d="M52.5688 26.3197C51.2801 26.3197 50.2209 26.0297 49.3952 25.4498C48.5676 24.8698 47.9554 24.1026 47.5587 23.1461C47.16 22.1916 46.9667 21.1384 46.9788 19.9886C46.9889 18.8408 47.1882 17.693 47.5749 16.5492C47.9615 15.4014 48.5193 14.3482 49.2503 13.3917C49.9792 12.4372 50.8652 11.668 51.9083 11.0881C52.9494 10.5081 54.1234 10.2181 55.4283 10.2181C56.4372 10.2181 57.2587 10.4074 57.8931 10.782C58.5254 11.1585 58.9925 11.6579 59.2946 12.2802C59.5946 12.9044 59.7457 13.5689 59.7457 14.2778C59.7457 15.051 59.5302 15.8243 59.1013 16.5975C58.6703 17.3708 58.0703 18.0112 57.297 18.5146C56.5237 19.014 55.6135 19.2637 54.5664 19.2637C54.1154 19.2637 53.6744 19.2315 53.2454 19.167C52.8145 19.1026 52.4178 18.9636 52.0533 18.7482C51.9446 18.6837 51.8278 18.6797 51.6989 18.7321C51.57 18.7864 51.5056 18.9213 51.5056 19.1348C51.5056 19.6946 51.8318 20.1175 52.4883 20.4075C53.1427 20.6974 53.9301 20.8424 54.8483 20.8424C55.9438 20.8424 57.0755 20.5645 58.2475 20.0047C59.4174 19.4469 60.3679 18.6112 61.0989 17.4997C61.27 17.2419 61.4956 17.1513 61.7755 17.2258C62.0534 17.3023 62.2849 17.4473 62.4682 17.6608C62.6494 17.8762 62.6776 18.0877 62.5487 18.2971C61.1311 20.9189 59.5785 22.9105 57.8931 24.2738C56.2056 25.6391 54.4315 26.3197 52.5688 26.3197ZM53.7287 16.8553C54.3449 16.8553 54.8322 16.658 55.1866 16.2592C55.5411 15.8625 55.7183 15.4598 55.7183 15.051C55.7183 14.6865 55.5934 14.3744 55.3477 14.1167C55.1001 13.8589 54.7315 13.73 54.2442 13.73C53.62 13.73 53.1266 13.9233 52.7621 14.31C52.3957 14.6966 52.2144 15.1054 52.2144 15.5343C52.2144 15.8786 52.3373 16.1847 52.5849 16.4526C52.8306 16.7224 53.2132 16.8553 53.7287 16.8553Z" fill="#F08080"/>
<path d="M66.4145 26.3197C65.1258 26.3197 64.0666 26.0297 63.2409 25.4498C62.4133 24.8698 61.8012 24.1026 61.4045 23.1461C61.0057 22.1916 60.8124 21.1384 60.8245 19.9886C60.8346 18.8408 61.0339 17.693 61.4206 16.5492C61.8072 15.4014 62.365 14.3482 63.096 13.3917C63.8249 12.4372 64.7109 11.668 65.754 11.0881C66.7951 10.5081 67.9691 10.2181 69.274 10.2181C70.2829 10.2181 71.1044 10.4074 71.7388 10.782C72.3711 11.1585 72.8382 11.6579 73.1403 12.2802C73.4403 12.9044 73.5914 13.5689 73.5914 14.2778C73.5914 15.051 73.3759 15.8243 72.947 16.5975C72.516 17.3708 71.916 18.0112 71.1427 18.5146C70.3694 19.014 69.4593 19.2637 68.4121 19.2637C67.9611 19.2637 67.5201 19.2315 67.0911 19.167C66.6602 19.1026 66.2635 18.9636 65.899 18.7482C65.7903 18.6837 65.6735 18.6797 65.5446 18.7321C65.4157 18.7864 65.3513 18.9213 65.3513 19.1348C65.3513 19.6946 65.6775 20.1175 66.334 20.4075C66.9884 20.6974 67.7758 20.8424 68.694 20.8424C69.7895 20.8424 70.9212 20.5645 72.0932 20.0047C73.2631 19.4469 74.2136 18.6112 74.9446 17.4997C75.1157 17.2419 75.3413 17.1513 75.6212 17.2258C75.8991 17.3023 76.1306 17.4473 76.3139 17.6608C76.4951 17.8762 76.5233 18.0877 76.3944 18.2971C74.9768 20.9189 73.4242 22.9105 71.7388 24.2738C70.0513 25.6391 68.2772 26.3197 66.4145 26.3197ZM67.5744 16.8553C68.1906 16.8553 68.6779 16.658 69.0323 16.2592C69.3868 15.8625 69.564 15.4598 69.564 15.051C69.564 14.6865 69.4391 14.3744 69.1934 14.1167C68.9458 13.8589 68.5773 13.73 68.0899 13.73C67.4657 13.73 66.9723 13.9233 66.6079 14.31C66.2414 14.6966 66.0601 15.1054 66.0601 15.5343C66.0601 15.8786 66.183 16.1847 66.4306 16.4526C66.6763 16.7224 67.0589 16.8553 67.5744 16.8553Z" fill="#F08080"/>
</svg>
