<svg width="146" height="58" viewBox="0 0 146 58" fill="none" xmlns="http://www.w3.org/2000/svg">
<path d="M15.7668 57.1132C12.6634 57.1132 9.93087 56.519 7.56926 55.3268C5.16224 54.1082 3.3002 52.4694 1.98693 50.403C0.662311 48.3139 0 46.0015 0 43.4658C0 41.581 0.344402 39.8363 1.0332 38.2392C1.7485 36.574 2.76657 35.2267 4.07983 34.201C5.49907 33.0959 7.13403 32.5396 8.9885 32.5396C9.82112 32.5396 10.5213 32.7666 11.0852 33.2208C11.8043 33.7961 12.1638 34.5681 12.1638 35.537C12.1638 36.5853 12.4477 37.5088 13.0153 38.3073C13.6209 39.1589 14.4649 39.825 15.5359 40.3018C16.6978 40.8166 18.0035 41.0739 19.4568 41.0739C21.2053 41.0739 22.6397 40.6841 23.7637 39.9045C24.9445 39.0832 25.8944 37.9289 26.6097 36.4339C26.5416 36.5702 26.5113 36.7594 26.5265 36.9979C26.5492 37.3688 26.6854 37.6867 26.9277 37.9554C27.0715 38.1105 27.2493 38.2354 27.4613 38.3338C27.783 38.4814 28.1236 38.5344 28.4794 38.4966C28.9259 38.4436 29.2741 38.2771 29.5163 38.0008L27.8095 36.5059L29.6261 37.8683C28.5853 39.2573 27.3553 40.3397 25.9436 41.1231C24.4714 41.9368 22.8327 42.3455 21.0312 42.3455C17.9127 42.3455 15.3315 41.0361 13.2803 38.4171C11.3652 35.9684 10.4077 32.5661 10.4077 28.2137C10.4077 24.7243 11.0625 21.4014 12.3682 18.2374C13.6587 15.1038 15.4375 12.3107 17.6969 9.85069C19.9677 7.38311 22.5715 5.43024 25.5122 3.99208C28.5096 2.52743 31.6547 1.797 34.9511 1.797C38.8 1.797 41.7634 2.81885 43.8374 4.87012C45.9227 6.92896 46.9635 9.52522 46.9635 12.6589C46.9635 14.9713 46.4072 16.9696 45.2869 18.6613C44.1969 20.3114 42.8042 21.5603 41.1125 22.4043C39.4586 23.2294 37.7101 23.6457 35.8594 23.6457C34.8262 23.6457 33.8649 23.3694 32.9755 22.8244C32.2451 22.374 31.7568 21.7799 31.5108 21.0494C31.2535 20.266 31.3065 19.475 31.6812 18.6689C31.9953 17.9725 32.0558 17.3405 31.8628 16.7766C31.859 16.7614 31.8552 16.7501 31.8515 16.7425C31.8515 16.7463 31.8552 16.7501 31.859 16.7539L31.8628 16.7614C31.6925 16.6706 31.3935 16.6214 30.9583 16.6214C30.0046 16.6214 29.1682 16.8674 28.4415 17.3556C27.6354 17.8968 26.9958 18.5932 26.5303 19.4447C26.0723 20.2736 25.8415 21.1403 25.8415 22.041C25.8415 23.1877 26.1707 24.1225 26.8217 24.8378C27.4234 25.4926 28.3355 25.8218 29.5655 25.8218C30.3527 25.8218 31.1399 25.6856 31.9272 25.4055C32.5781 25.1785 33.1761 24.747 33.7211 24.1225L33.7476 24.0923L33.7741 24.0658C34.7883 22.972 35.9502 22.4687 37.2559 22.5595C38.4064 22.639 39.3829 23.0818 40.189 23.8841C40.6621 24.361 40.9913 24.906 41.1692 25.5191C41.3471 26.1284 41.366 26.7604 41.226 27.419C40.6394 29.8979 40.0111 32.1346 39.345 34.1367L37.2219 40.4381C36.1697 43.6399 34.6142 46.4935 32.5592 48.9914C30.4776 51.5195 28.0176 53.4989 25.1678 54.9332C22.2877 56.3865 19.1502 57.1132 15.7668 57.1132ZM15.7668 52.5754C18.4312 52.5754 20.8874 52.0077 23.1279 50.8799C25.4024 49.7331 27.378 48.1398 29.0546 46.1075C30.7501 44.0486 32.0369 41.6757 32.9225 38.9886L35.0381 32.7023C35.6626 30.8289 36.2454 28.7511 36.7866 26.4652C36.7677 26.5598 36.7753 26.6658 36.8131 26.7907C36.851 26.9194 36.9039 27.0216 36.9796 27.0935C36.9759 27.0935 36.9645 27.0897 36.9418 27.0897C37.044 27.0935 37.1348 27.0783 37.2143 27.0405V27.0443C37.1802 27.0708 37.1424 27.1086 37.097 27.154L35.4355 25.6099L37.1499 27.101C36.0789 28.3311 34.8413 29.1902 33.4372 29.6859C32.1656 30.1363 30.8712 30.3634 29.5655 30.3634C26.9996 30.3634 24.9672 29.5421 23.4685 27.8958C22.0266 26.3138 21.3037 24.361 21.3037 22.041C21.3037 20.3606 21.72 18.7635 22.5526 17.2534C23.3777 15.7623 24.4941 14.5399 25.9058 13.5899C27.4007 12.587 29.0811 12.0836 30.9583 12.0836C32.1769 12.0836 33.2101 12.3183 34.0617 12.7914C35.0835 13.359 35.7837 14.1992 36.1622 15.3195C36.7374 17.015 36.6163 18.7635 35.8026 20.5688C35.9313 20.2887 35.9389 19.9708 35.8178 19.6113C35.7156 19.3009 35.5604 19.0852 35.3522 18.9565C35.515 19.0549 35.6815 19.1041 35.8594 19.1041C36.9948 19.1041 38.0696 18.8505 39.0801 18.3472C40.049 17.859 40.8589 17.1323 41.5023 16.1597C42.1192 15.2249 42.4257 14.0592 42.4257 12.6589C42.4257 10.7893 41.8353 9.27165 40.6507 8.10219C39.4586 6.92139 37.5587 6.33477 34.9511 6.33477C32.3548 6.33477 29.8721 6.91382 27.5067 8.07192C25.077 9.25651 22.9235 10.8763 21.0388 12.9238C19.1427 14.9864 17.6515 17.3329 16.5615 19.9708C15.4867 22.5784 14.9493 25.3261 14.9493 28.2137C14.9493 31.5253 15.5851 33.9929 16.8567 35.6203C17.9959 37.0773 19.3887 37.8078 21.0312 37.8078C22.053 37.8078 22.9576 37.5883 23.7448 37.153C24.5925 36.6837 25.3419 36.0139 25.9928 35.1434L26.0458 35.0753L26.1026 35.0109C26.6287 34.4092 27.2456 34.0686 27.9571 33.9853C28.4453 33.9285 28.9108 34.0042 29.3612 34.2086C29.698 34.3638 29.997 34.587 30.2657 34.8747C30.7501 35.4007 31.0151 36.0176 31.0567 36.7216C31.0945 37.2931 30.9734 37.8494 30.7047 38.3906C29.645 40.6084 28.1917 42.3569 26.3486 43.6361C24.4487 44.9532 22.1515 45.6117 19.4568 45.6117C17.3601 45.6117 15.4413 45.2256 13.6928 44.4498C11.8648 43.6361 10.404 42.4667 9.31776 40.9377C8.18994 39.3557 7.62603 37.5542 7.62603 35.537C7.62603 35.7187 7.66388 35.9041 7.74336 36.0933C7.85311 36.3583 8.02342 36.5815 8.2505 36.7632C8.4208 36.9032 8.60625 36.9979 8.79927 37.0471C8.87875 37.0698 8.9393 37.0811 8.9885 37.0811C8.1748 37.0811 7.47086 37.312 6.87289 37.7813C6.16895 38.33 5.61261 39.0794 5.20008 40.0369C4.76107 41.0588 4.53777 42.2017 4.53777 43.4658C4.53777 45.1235 4.96544 46.6222 5.81698 47.9657C6.68366 49.332 7.95151 50.4333 9.61675 51.2735C11.3312 52.1402 13.3825 52.5754 15.7668 52.5754Z" fill="white"/>
<path d="M51.8323 18.7407C49.9627 18.7407 48.3277 18.3206 46.9199 17.4842C45.9964 16.9317 45.3038 16.1672 44.8459 15.187C44.4409 14.3241 44.2365 13.3174 44.2365 12.1744C44.2365 9.22239 45.1714 7.12948 47.041 5.89191C48.6116 4.85492 50.4509 4.33643 52.559 4.33643C54.5383 4.33643 56.2452 4.79815 57.6871 5.72539C58.6598 6.34985 59.3486 7.22788 59.746 8.36706C60.0828 9.317 60.1963 10.4297 60.0866 11.7013C59.8595 14.3014 58.8717 16.1634 57.1157 17.2912C55.6132 18.2563 53.8533 18.7407 51.8323 18.7407ZM51.8323 14.203C52.9639 14.203 53.9063 13.9607 54.6594 13.4725C55.1666 13.147 55.4656 12.428 55.564 11.3153C55.6472 10.3275 55.5375 9.74088 55.2385 9.54408C54.5421 9.10128 53.6489 8.87798 52.559 8.87798C51.3592 8.87798 50.3563 9.14291 49.5464 9.68033C49.0317 10.0172 48.7781 10.8498 48.7781 12.1744C48.7781 12.9275 48.9333 13.4006 49.2436 13.5861C49.9362 13.9948 50.7991 14.203 51.8323 14.203ZM45.1146 51.4854C43.7408 51.4854 42.5335 51.2167 41.4889 50.6792C40.3762 50.1078 39.4982 49.26 38.851 48.136C37.8027 46.3156 37.2766 44.1508 37.2766 41.6491C37.2766 40.1012 37.4318 38.4776 37.7383 36.7707C38.0373 35.1055 38.4196 33.5084 38.8889 31.968C40.3573 27.4038 41.7917 23.8727 43.1996 21.3786C44.9632 18.2487 47.1583 16.6819 49.7772 16.6819C51.2154 16.6819 52.3319 17.2117 53.1304 18.2677C53.7776 19.123 54.1031 20.2622 54.1031 21.6776C54.1031 23.1536 53.8268 24.6561 53.2705 26.1775L51.908 29.9243C51.556 30.9045 51.3781 31.8053 51.3781 32.6303C51.3781 32.8915 51.4046 33.0921 51.4538 33.2359C51.4614 33.2699 51.4728 33.2926 51.4803 33.3078C51.4803 33.304 51.4765 33.3002 51.4728 33.2964C51.5333 33.357 51.6544 33.3873 51.8323 33.3873C52.1805 33.3873 52.4492 33.3002 52.6422 33.1261C53.1342 32.6833 53.63 32.0929 54.1334 31.3511C54.5307 30.7569 55.0379 30.3217 55.651 30.053C56.3209 29.7578 57.0324 29.701 57.7817 29.8789C58.7847 30.1211 59.6173 30.651 60.2872 31.476C60.6997 31.9907 60.9608 32.5357 61.0668 33.1148C61.1955 33.8414 61.0782 34.534 60.7186 35.185L60.6883 35.2379L60.6581 35.2871C60.3099 35.8435 59.8822 36.6837 59.3789 37.8001C58.8112 39.0604 58.1337 40.4229 57.3389 41.8838C56.5139 43.4052 55.5677 44.8509 54.5043 46.2209C53.3613 47.6856 52.0632 48.9043 50.6023 49.8655C48.9749 50.9442 47.1431 51.4854 45.1146 51.4854ZM45.1146 46.9438C46.2348 46.9438 47.2302 46.6562 48.1007 46.0809C49.1452 45.3921 50.0838 44.5065 50.9202 43.4317C51.8323 42.2584 52.6422 41.0209 53.3499 39.7189C54.0879 38.3565 54.72 37.0962 55.2423 35.9381C55.8289 34.6324 56.3512 33.6143 56.8091 32.8801L58.7317 34.0836L56.7485 32.9823C56.5896 33.2699 56.5366 33.5841 56.5972 33.9171C56.6312 34.1026 56.6842 34.2426 56.7561 34.3334C56.7372 34.3107 56.7258 34.2956 56.7183 34.2918H56.722C56.9643 34.3523 57.2141 34.3258 57.4752 34.2085C57.672 34.1215 57.8082 34.0231 57.8839 33.9095C57.1762 34.9465 56.4458 35.8094 55.6851 36.4944C54.6291 37.4482 53.3424 37.9288 51.8323 37.9288C50.4017 37.9288 49.2096 37.452 48.2634 36.5058C47.3135 35.5596 46.8404 34.2653 46.8404 32.6303C46.8404 31.2792 47.1091 29.86 47.6427 28.3764L49.0052 24.6221C49.3761 23.6002 49.5653 22.62 49.5653 21.6776C49.5653 21.4089 49.5426 21.197 49.5048 21.038C49.4934 21.0002 49.4858 20.9737 49.4783 20.9547C49.482 20.9661 49.4934 20.9812 49.5085 21.0039C49.5729 21.0872 49.6561 21.1553 49.7583 21.2007C49.7886 21.2121 49.8151 21.2235 49.8378 21.2272C49.8264 21.2235 49.8037 21.2235 49.7772 21.2235C48.9257 21.2235 48.0515 22.0182 47.1545 23.6078C45.898 25.8369 44.5885 29.0652 43.2298 33.2964C42.8135 34.6627 42.4729 36.0857 42.2042 37.5731C41.9468 39.0112 41.8182 40.3699 41.8182 41.6491C41.8182 43.3446 42.1399 44.7525 42.787 45.8728C42.9876 46.2247 43.245 46.4783 43.5667 46.6448C43.9565 46.8454 44.4712 46.9438 45.1146 46.9438Z" fill="white"/>
<path d="M75.7986 0.646362C78.3419 0.646362 80.2872 1.28975 81.6345 2.57652C82.9591 3.84059 83.6933 5.38472 83.8409 7.2127C83.9658 8.77954 83.7577 10.3502 83.2089 11.9246C82.6563 13.5028 81.854 14.8463 80.8019 15.9514C79.5265 17.2874 78.0996 17.9535 76.5252 17.9535C75.6169 17.9535 74.86 17.7378 74.2545 17.3063C73.823 16.9998 73.4975 16.6062 73.278 16.1331C73.0812 15.7168 72.9828 15.2626 72.9828 14.7782C72.9828 14.483 72.9601 14.2483 72.9147 14.0705C72.9033 14.0213 72.892 13.9872 72.8806 13.9607C72.8806 13.9607 72.8882 13.9721 72.8958 13.9834C72.9488 14.0515 73.0131 14.1045 73.0926 14.1386C73.1115 14.1424 73.1229 14.1499 73.1266 14.1499C73.1001 14.1424 73.0623 14.1424 73.0131 14.1424C72.5097 14.1424 72.0102 14.4943 71.5144 15.2021C70.6931 16.3753 69.974 17.8816 69.3571 19.7323L67.2037 19.0132V16.7424H73.5581C74.421 16.7424 75.1401 17.0565 75.7229 17.681C76.1354 18.1276 76.4193 18.6953 76.5669 19.3841C76.7523 20.2545 76.7448 21.2007 76.5442 22.2301C76.3436 23.2633 75.9651 24.1868 75.4088 25.008C75.019 25.5833 74.5497 26.0261 73.9971 26.3402C73.4029 26.6808 72.752 26.8512 72.048 26.8512V22.3134C71.9761 22.3134 71.9042 22.3172 71.8323 22.3209C71.6809 22.3361 71.5295 22.3664 71.3819 22.4156C71.0905 22.5026 70.8256 22.6464 70.5947 22.8432C70.292 23.0968 70.0687 23.4109 69.9324 23.778C69.7394 24.2814 69.7318 24.7885 69.9021 25.2995C70.186 26.1548 70.7688 26.6581 71.6506 26.8133C71.6771 26.8171 71.6998 26.8209 71.7188 26.8247C71.7188 26.8247 71.7188 26.8247 71.7112 26.8247C71.662 26.8171 71.5674 26.8095 71.4349 26.7944C71.1473 26.7641 70.6931 26.7187 70.0724 26.6581C68.8424 26.5408 67.3702 26.4197 65.6558 26.3024L65.8109 24.0354L68.0287 24.5198C67.5594 26.6808 67.1772 28.8419 66.882 31.0029C66.5792 33.2131 66.3294 35.1206 66.1289 36.7253C65.9699 38.1748 65.8337 39.6319 65.7163 41.1079C65.5801 42.739 65.3265 44.2529 64.9443 45.6381C64.4977 47.2768 63.7483 48.6204 62.6962 49.6687C61.4851 50.8798 59.8237 51.4853 57.7043 51.4853C56.4137 51.4853 55.3086 51.2507 54.3889 50.789C53.3103 50.244 52.5231 49.4227 52.0311 48.3289C51.3007 46.7053 51.172 44.4346 51.6489 41.5242C52.0652 38.9923 52.7653 35.8397 53.7531 32.0588C54.2035 30.4503 54.6539 28.8835 55.1004 27.3621C55.5546 25.818 56.0277 24.323 56.5235 22.8773L58.6693 23.6153V25.8823H57.8254C55.8044 25.8823 54.3322 25.4395 53.4087 24.5577C52.9091 24.077 52.5534 23.5358 52.3339 22.9341C52.1068 22.2945 52.05 21.6321 52.1636 20.9396C52.3377 19.9139 52.7653 19.0056 53.4466 18.2222C54.3057 17.2344 55.2594 16.7424 56.3115 16.7424H60.3649V19.0132L58.2568 18.1692C59.6042 14.8122 61.0802 11.8716 62.6886 9.35102C64.3766 6.70934 66.2613 4.6278 68.3504 3.10637C70.6061 1.46763 73.0888 0.646362 75.7986 0.646362ZM75.7986 5.18414C74.0728 5.18414 72.4795 5.71398 71.0224 6.77747C69.3988 7.96206 67.8963 9.63108 66.5149 11.7921C65.0578 14.0742 63.7105 16.7613 62.4729 19.8572L61.9014 21.284H56.3115C56.55 21.284 56.7581 21.231 56.9246 21.1288C56.9398 21.1212 56.9549 21.1137 56.9625 21.1023V21.1061C56.9398 21.125 56.9095 21.1591 56.8716 21.2007C56.7505 21.3407 56.6748 21.5035 56.6446 21.6851C56.6559 21.6019 56.6446 21.5073 56.6105 21.4013C56.5916 21.3559 56.5727 21.318 56.55 21.284V21.2802C56.497 21.231 56.4553 21.1969 56.4213 21.1818C56.4553 21.1969 56.5121 21.2158 56.5916 21.2348C56.8906 21.3067 57.2993 21.3445 57.8254 21.3445H61.8484L60.819 24.3495C60.3459 25.7309 59.8918 27.1615 59.4565 28.6413C59.0137 30.1476 58.5785 31.6652 58.1433 33.2056C57.1933 36.8502 56.5197 39.8665 56.1299 42.2584C55.8006 44.268 55.8119 45.6721 56.1715 46.4669C56.3153 46.7848 56.8262 46.9438 57.7043 46.9438C58.5672 46.9438 59.1651 46.7848 59.4868 46.4593C59.9713 45.9749 60.3308 45.3012 60.5692 44.4383C60.872 43.3257 61.0802 42.0919 61.1899 40.7408C61.311 39.2269 61.4586 37.7017 61.6251 36.1614C61.8257 34.5415 62.0793 32.6152 62.3821 30.3898C62.6962 28.1077 63.0974 25.8293 63.5969 23.5547L64.0132 21.6359L65.9699 21.7722C67.726 21.8971 69.2398 22.0182 70.5115 22.1431C71.1397 22.2036 71.6052 22.249 71.9004 22.2793C72.0594 22.2945 72.1767 22.3096 72.2524 22.3172C72.3243 22.3247 72.3886 22.3361 72.4416 22.3437C73.331 22.5026 73.9214 23.0098 74.2053 23.8651C74.3756 24.3722 74.368 24.8794 74.1788 25.3827C74.0387 25.7536 73.8154 26.064 73.5127 26.3175C73.2818 26.5143 73.0169 26.6581 72.7255 26.749C72.5779 26.7944 72.4265 26.8247 72.2713 26.8398C72.1956 26.8474 72.1237 26.8512 72.048 26.8512V22.3134C71.9458 22.3134 71.8474 22.3399 71.7453 22.4004C71.7036 22.4231 71.6696 22.4458 71.6431 22.4723L71.6506 22.461C71.8588 22.1506 72.0064 21.7873 72.0897 21.3634C72.1691 20.9433 72.1843 20.5989 72.1275 20.3378C72.154 20.4627 72.2448 20.6065 72.3962 20.7693C72.7141 21.1137 73.1001 21.284 73.5581 21.284H64.0549L65.0502 18.2979C65.8072 16.0271 66.723 14.1272 67.7979 12.5944C69.1982 10.5999 70.9353 9.6008 73.0131 9.6008C74.5042 9.6008 75.6661 10.1382 76.4912 11.2131C77.18 12.1062 77.5244 13.2946 77.5244 14.7782C77.5244 14.5927 77.479 14.4035 77.3919 14.2143C77.2746 13.9683 77.1081 13.7677 76.8924 13.6125C76.7561 13.5141 76.6236 13.4498 76.495 13.4195C76.476 13.4157 76.4647 13.4119 76.4571 13.4119C76.4723 13.4157 76.495 13.4157 76.5252 13.4157C76.8053 13.4157 77.1346 13.2151 77.5168 12.8177C78.1186 12.1857 78.5841 11.3909 78.9209 10.4296C79.2615 9.45699 79.3902 8.50704 79.3183 7.57602C79.2615 6.89857 78.989 6.3271 78.497 5.8578C78.0277 5.40743 77.1308 5.18414 75.7986 5.18414Z" fill="white"/>
<path d="M76.3415 51.4855C73.3365 51.4855 71.0732 50.494 69.548 48.5108C68.1666 46.7093 67.4741 44.4348 67.4741 41.6796C67.4741 39.1893 67.9623 36.5324 68.9311 33.7091C69.4572 32.165 70.0476 30.496 70.6986 28.7096L72.818 22.8964L74.9487 23.6761V25.9431C73.4349 25.9431 72.2238 25.4889 71.3192 24.5844C70.5434 23.8085 70.04 22.8964 69.8016 21.8443C69.5707 20.8262 69.5859 19.8952 69.8432 19.0475C70.0325 18.423 70.3428 17.9121 70.7743 17.5185C71.3344 17.0038 72.0005 16.7426 72.7725 16.7426C73.9306 16.7426 74.7898 16.4663 75.3574 15.91C76.1257 15.1606 76.6518 14.3961 76.9356 13.6279L76.9508 13.59L76.9659 13.556C77.8629 11.3571 78.8469 9.89621 79.9104 9.17713C80.9814 8.45048 82.1319 8.09094 83.3619 8.09094C84.3876 8.09094 85.2694 8.33694 86.0036 8.82895C86.8097 9.37015 87.3585 10.1384 87.6575 11.1338C88.1079 12.6476 87.7408 14.6194 86.5524 17.0454L84.5125 16.05L86.5751 16.9924C86.2421 17.719 86.068 18.1997 86.049 18.4381C86.0604 18.2867 86.0415 18.124 85.9923 17.9499C85.9052 17.6585 85.75 17.4049 85.5268 17.1892C85.33 17 85.1104 16.8713 84.8682 16.7956C84.7547 16.7615 84.6563 16.7426 84.573 16.7426H87.7218C88.581 16.7426 89.3038 17.0567 89.8829 17.6812C90.2992 18.1278 90.5792 18.6955 90.7268 19.3843C90.9123 20.2547 90.9047 21.2009 90.7041 22.2303C90.5035 23.2635 90.1251 24.187 89.5687 25.0082C89.1789 25.5835 88.7096 26.0263 88.1571 26.3404C87.5629 26.6811 86.9119 26.8514 86.208 26.8514C84.4708 26.8514 83.2181 26.9119 82.4498 27.0368C82.272 27.0633 82.1471 27.0974 82.0714 27.1428C82.0865 27.1352 82.1054 27.1125 82.1244 27.0784C81.8784 27.4607 81.587 28.2365 81.2426 29.3984C80.8035 30.8328 80.7997 31.8736 81.2312 32.5283C81.4129 32.8084 81.6437 33.0127 81.9162 33.1414C82.2568 33.3079 82.6996 33.3874 83.2408 33.3874C84.047 33.3874 84.7509 33.2171 85.3489 32.8727C85.9809 32.5094 86.5032 32.0136 86.9081 31.3929C87.332 30.7533 87.8619 30.3067 88.4939 30.0418C89.1827 29.758 89.9056 29.7201 90.6625 29.9321C91.6124 30.197 92.4072 30.7079 93.0506 31.4648C93.4896 31.9795 93.7621 32.5397 93.8681 33.149C93.9892 33.8416 93.887 34.5115 93.5615 35.1586L93.5502 35.1813L93.5388 35.2078C93.1831 35.8777 92.7062 36.8087 92.112 38.0047C91.48 39.265 90.7268 40.6274 89.8488 42.0921C88.9254 43.6286 87.8505 45.0781 86.6205 46.4406C85.3262 47.8712 83.8539 49.052 82.2076 49.983C80.4289 50.9822 78.4722 51.4855 76.3415 51.4855ZM76.3415 46.944C77.6812 46.944 78.8923 46.6374 79.9785 46.0281C81.1971 45.3393 82.2871 44.465 83.2522 43.3978C84.2816 42.2548 85.1824 41.0399 85.9544 39.757C86.7719 38.3945 87.4721 37.1342 88.0511 35.9723C88.6642 34.7499 89.1562 33.7848 89.5271 33.0809L91.533 34.1443L89.5044 33.1301C89.3795 33.3723 89.3454 33.641 89.3946 33.9324C89.4325 34.133 89.4968 34.2919 89.5914 34.4055C89.5498 34.3525 89.4968 34.3184 89.4401 34.3033C89.6899 34.3714 89.9548 34.3525 90.2311 34.2352C90.4506 34.1443 90.6095 34.0232 90.7117 33.8719C89.9056 35.1056 88.8724 36.0821 87.6083 36.8087C86.3102 37.5543 84.8569 37.929 83.2408 37.929C82.0108 37.929 80.9133 37.6981 79.952 37.2326C78.9226 36.7406 78.09 36.0064 77.4466 35.0337C76.2241 33.1868 76.0387 30.882 76.8864 28.1192C77.3519 26.5372 77.825 25.3716 78.3057 24.626C79.0361 23.4906 80.1791 22.8018 81.7346 22.552C82.7413 22.3931 84.2324 22.3136 86.208 22.3136C86.1096 22.3136 86.0074 22.3401 85.9052 22.4006C85.8636 22.4233 85.8333 22.4461 85.8068 22.4725L85.8106 22.4612C86.0225 22.1508 86.1664 21.7875 86.2496 21.3636C86.3329 20.9436 86.3442 20.5992 86.2875 20.338C86.314 20.4629 86.4048 20.6067 86.5562 20.7695C86.8741 21.1139 87.2639 21.2842 87.7218 21.2842H84.573C83.6799 21.2842 82.9494 21.0079 82.3779 20.4591C81.7308 19.8384 81.4469 19.0437 81.5226 18.0748C81.587 17.3065 81.8935 16.3149 82.4498 15.1039L82.4726 15.0509C82.8624 14.2599 83.1159 13.5976 83.2371 13.0564C83.3127 12.7309 83.3355 12.5227 83.3052 12.4281C83.3014 12.4168 83.3014 12.413 83.3014 12.4092C83.3052 12.4243 83.3127 12.4395 83.3279 12.4546C83.3657 12.5114 83.4149 12.5606 83.4755 12.5984C83.5133 12.6249 83.5436 12.6401 83.5625 12.6439C83.5209 12.6363 83.4528 12.6287 83.3619 12.6287C83.0592 12.6287 82.7564 12.7309 82.4574 12.9353C82.3742 12.9883 82.2417 13.1623 82.06 13.4538C81.7762 13.9004 81.481 14.5097 81.1669 15.2742L79.0664 14.4151L81.1934 15.2023C80.6711 16.6101 79.7855 17.9272 78.5365 19.1534C77.087 20.5727 75.1644 21.2842 72.7725 21.2842C73.1813 21.2842 73.537 21.1404 73.8474 20.8565C74.0253 20.6938 74.135 20.531 74.1842 20.3721C74.1615 20.4515 74.1766 20.6105 74.2296 20.8452C74.275 21.042 74.3734 21.2198 74.5286 21.375C74.5173 21.3636 74.5059 21.3523 74.4946 21.3447C74.4946 21.3447 74.5021 21.3485 74.5135 21.3523C74.6119 21.3864 74.7595 21.4053 74.9487 21.4053H78.1921L74.9638 30.2613C74.3242 32.0212 73.7452 33.6637 73.2229 35.1851C72.4168 37.5278 72.0156 39.6926 72.0156 41.6796C72.0156 43.4053 72.3941 44.7602 73.1472 45.7442C73.7641 46.5466 74.8276 46.944 76.3415 46.944Z" fill="white"/>
<path d="M98.7925 51.4855C95.8973 51.4855 93.4751 50.8042 91.5298 49.438C89.6148 48.0982 88.2031 46.327 87.2872 44.1244C86.4205 42.0428 86.0004 39.7683 86.0232 37.3007C86.0459 34.9012 86.4584 32.5093 87.2607 30.1212C88.0669 27.7256 89.2325 25.5305 90.7577 23.536C92.3208 21.4923 94.2169 19.846 96.4498 18.6046C98.7509 17.3254 101.328 16.682 104.182 16.682C106.49 16.682 108.421 17.1437 109.969 18.0596C111.55 18.9982 112.724 20.2585 113.488 21.8405C114.204 23.3203 114.559 24.9022 114.559 26.5788C114.559 28.4257 114.063 30.2423 113.064 32.04C112.077 33.8188 110.699 35.2873 108.932 36.4378C107.104 37.6337 104.973 38.2317 102.547 38.2317C101.586 38.2317 100.647 38.1598 99.7273 38.0235C98.6298 37.857 97.6155 37.5013 96.6769 36.9487C96.8888 37.0774 97.1348 37.1493 97.4035 37.1606C97.6306 37.172 97.8426 37.1379 98.0318 37.0585C98.4443 36.8844 98.7433 36.6043 98.9325 36.2069C99.0234 36.0253 99.065 35.8625 99.065 35.7187L99.0536 35.7149C99.1293 35.8095 99.2959 35.9155 99.5608 36.0328C100.499 36.4491 101.676 36.6573 103.092 36.6573C104.806 36.6573 106.608 36.2069 108.5 35.3024C110.317 34.4357 111.793 33.1338 112.932 31.3891C113.36 30.7495 113.897 30.2953 114.54 30.0342C115.222 29.7579 115.941 29.7238 116.694 29.9244C117.674 30.1894 118.488 30.7003 119.135 31.4648C119.597 32.0098 119.869 32.6077 119.952 33.2587C120.043 33.9778 119.892 34.6628 119.502 35.3137L117.557 34.1443L119.551 35.2229C116.747 40.4116 113.64 44.3855 110.237 47.1369C106.653 50.036 102.838 51.4855 98.7925 51.4855ZM98.7925 46.9439C101.767 46.9439 104.632 45.8312 107.384 43.6059C110.317 41.2367 113.042 37.7208 115.558 33.0657L115.585 33.0203L115.611 32.9786C115.464 33.2246 115.407 33.5047 115.449 33.8226C115.479 34.0686 115.555 34.2616 115.676 34.4054C115.638 34.36 115.585 34.326 115.513 34.307C115.74 34.3714 115.986 34.3487 116.243 34.2427C116.463 34.1556 116.626 34.0308 116.732 33.8718C115.127 36.328 113.034 38.1674 110.453 39.4011C107.944 40.5971 105.491 41.1951 103.092 41.1951C101.037 41.1951 99.2467 40.8582 97.7252 40.1846C96.7564 39.7569 96.0032 39.193 95.462 38.4891C94.8376 37.6829 94.5272 36.7595 94.5272 35.7187C94.5272 35.1737 94.6332 34.6817 94.8413 34.2427C95.1517 33.5993 95.6323 33.1376 96.2871 32.8651C97.2332 32.4715 98.1302 32.5283 98.9779 33.0354C99.4094 33.289 99.8863 33.4555 100.401 33.535C101.097 33.6372 101.813 33.6901 102.547 33.6901C104.072 33.6901 105.374 33.3382 106.449 32.638C107.588 31.8924 108.47 30.9614 109.098 29.8336C109.711 28.7247 110.022 27.6385 110.022 26.5788C110.022 25.5948 109.813 24.6714 109.401 23.8123C109.034 23.0553 108.451 22.4384 107.652 21.9654C106.82 21.4696 105.662 21.2236 104.182 21.2236C102.112 21.2236 100.272 21.6739 98.6563 22.5709C96.9759 23.5057 95.5453 24.7471 94.3645 26.2912C93.142 27.8883 92.211 29.6482 91.5639 31.5707C90.9129 33.5009 90.5798 35.4235 90.5647 37.3423C90.5458 39.193 90.8523 40.8734 91.4768 42.3834C92.0559 43.7724 92.9415 44.8851 94.1374 45.7215C95.2993 46.539 96.851 46.9439 98.7925 46.9439ZM100.972 29.1524C101.464 29.1524 101.82 29.0313 102.032 28.789C102.316 28.4749 102.456 28.2213 102.456 28.0321C102.456 27.9526 102.433 27.8921 102.392 27.8467C102.403 27.8618 102.418 27.8732 102.433 27.8807C102.433 27.8807 102.426 27.8807 102.414 27.8769C102.308 27.8391 102.149 27.8202 101.941 27.8202C101.423 27.8202 101.044 27.9451 100.806 28.1986C100.533 28.4863 100.397 28.7361 100.397 28.9404C100.397 28.9934 100.431 29.0578 100.496 29.1297C100.477 29.1107 100.462 29.0956 100.446 29.0842C100.443 29.0842 100.439 29.0805 100.439 29.0805C100.446 29.0842 100.454 29.088 100.462 29.0918C100.579 29.1297 100.749 29.1524 100.972 29.1524ZM100.972 33.6901C99.3413 33.6901 98.0659 33.1944 97.1538 32.2028C96.2909 31.2642 95.8594 30.1742 95.8594 28.9404C95.8594 27.5325 96.4082 26.2458 97.5057 25.0801C98.6411 23.8804 100.121 23.2824 101.941 23.2824C103.516 23.2824 104.757 23.7555 105.669 24.7054C106.551 25.6289 106.994 26.7378 106.994 28.0321C106.994 29.3757 106.472 30.6359 105.419 31.813C104.303 33.0657 102.819 33.6901 100.972 33.6901Z" fill="white"/>
<path d="M124.815 51.4855C121.919 51.4855 119.497 50.8042 117.552 49.438C115.637 48.0982 114.225 46.327 113.309 44.1244C112.443 42.0428 112.022 39.7683 112.045 37.3007C112.068 34.9012 112.48 32.5093 113.283 30.1212C114.089 27.7256 115.255 25.5305 116.78 23.536C118.343 21.4923 120.239 19.846 122.472 18.6046C124.773 17.3254 127.35 16.682 130.204 16.682C132.512 16.682 134.443 17.1437 135.991 18.0596C137.573 18.9982 138.746 20.2585 139.51 21.8405C140.226 23.3203 140.581 24.9022 140.581 26.5788C140.581 28.4257 140.086 30.2423 139.086 32.04C138.099 33.8188 136.721 35.2873 134.954 36.4378C133.126 37.6337 130.995 38.2317 128.569 38.2317C127.608 38.2317 126.669 38.1598 125.749 38.0235C124.652 37.857 123.638 37.5013 122.699 36.9487C122.911 37.0774 123.157 37.1493 123.426 37.1606C123.653 37.172 123.865 37.1379 124.054 37.0585C124.466 36.8844 124.765 36.6043 124.955 36.2069C125.045 36.0253 125.087 35.8625 125.087 35.7187L125.076 35.7149C125.151 35.8095 125.318 35.9155 125.583 36.0328C126.521 36.4491 127.698 36.6573 129.114 36.6573C130.828 36.6573 132.63 36.2069 134.522 35.3024C136.339 34.4357 137.815 33.1338 138.954 31.3891C139.382 30.7495 139.919 30.2953 140.562 30.0342C141.244 29.7579 141.963 29.7238 142.716 29.9244C143.696 30.1894 144.51 30.7003 145.157 31.4648C145.619 32.0098 145.891 32.6077 145.974 33.2587C146.065 33.9778 145.914 34.6628 145.524 35.3137L143.579 34.1443L145.573 35.2229C142.769 40.4116 139.662 44.3855 136.259 47.1369C132.675 50.036 128.86 51.4855 124.815 51.4855ZM124.815 46.9439C127.789 46.9439 130.654 45.8312 133.406 43.6059C136.339 41.2367 139.064 37.7208 141.58 33.0657L141.607 33.0203L141.633 32.9786C141.486 33.2246 141.429 33.5047 141.471 33.8226C141.501 34.0686 141.577 34.2616 141.698 34.4054C141.66 34.36 141.607 34.326 141.535 34.307C141.762 34.3714 142.008 34.3487 142.265 34.2427C142.485 34.1556 142.648 34.0308 142.754 33.8718C141.149 36.328 139.056 38.1674 136.475 39.4011C133.966 40.5971 131.513 41.1951 129.114 41.1951C127.059 41.1951 125.269 40.8582 123.747 40.1846C122.778 39.7569 122.025 39.193 121.484 38.4891C120.86 37.6829 120.549 36.7595 120.549 35.7187C120.549 35.1737 120.655 34.6817 120.863 34.2427C121.174 33.5993 121.654 33.1376 122.309 32.8651C123.255 32.4715 124.152 32.5283 125 33.0354C125.431 33.289 125.908 33.4555 126.423 33.535C127.119 33.6372 127.835 33.6901 128.569 33.6901C130.094 33.6901 131.396 33.3382 132.471 32.638C133.61 31.8924 134.492 30.9614 135.12 29.8336C135.733 28.7247 136.044 27.6385 136.044 26.5788C136.044 25.5948 135.835 24.6714 135.423 23.8123C135.056 23.0553 134.473 22.4384 133.674 21.9654C132.842 21.4696 131.684 21.2236 130.204 21.2236C128.134 21.2236 126.294 21.6739 124.678 22.5709C122.998 23.5057 121.567 24.7471 120.387 26.2912C119.164 27.8883 118.233 29.6482 117.586 31.5707C116.935 33.5009 116.602 35.4235 116.587 37.3423C116.568 39.193 116.874 40.8734 117.499 42.3834C118.078 43.7724 118.963 44.8851 120.159 45.7215C121.321 46.539 122.873 46.9439 124.815 46.9439ZM126.994 29.1524C127.486 29.1524 127.842 29.0313 128.054 28.789C128.338 28.4749 128.478 28.2213 128.478 28.0321C128.478 27.9526 128.455 27.8921 128.414 27.8467C128.425 27.8618 128.44 27.8732 128.455 27.8807C128.455 27.8807 128.448 27.8807 128.436 27.8769C128.33 27.8391 128.172 27.8202 127.963 27.8202C127.445 27.8202 127.066 27.9451 126.828 28.1986C126.555 28.4863 126.419 28.7361 126.419 28.9404C126.419 28.9934 126.453 29.0578 126.518 29.1297C126.499 29.1107 126.484 29.0956 126.468 29.0842C126.465 29.0842 126.461 29.0805 126.461 29.0805C126.468 29.0842 126.476 29.088 126.484 29.0918C126.601 29.1297 126.771 29.1524 126.994 29.1524ZM126.994 33.6901C125.363 33.6901 124.088 33.1944 123.176 32.2028C122.313 31.2642 121.881 30.1742 121.881 28.9404C121.881 27.5325 122.43 26.2458 123.528 25.0801C124.663 23.8804 126.143 23.2824 127.963 23.2824C129.538 23.2824 130.779 23.7555 131.691 24.7054C132.573 25.6289 133.016 26.7378 133.016 28.0321C133.016 29.3757 132.494 30.6359 131.441 31.813C130.325 33.0657 128.841 33.6901 126.994 33.6901Z" fill="white"/>
<path d="M15.7707 54.846C13.0231 54.846 10.6312 54.3313 8.59506 53.3019C6.55514 52.2725 4.99209 50.8987 3.90211 49.1842C2.81214 47.4698 2.26715 45.5623 2.26715 43.4619C2.26715 41.8875 2.551 40.4455 3.11491 39.1322C3.6826 37.8228 4.46981 36.7706 5.47652 35.9834C6.48323 35.1962 7.65647 34.8026 8.98866 34.8026C9.5942 34.8026 9.89697 35.0448 9.89697 35.5293C9.89697 37.0658 10.3208 38.4283 11.1686 39.6167C12.0164 40.8088 13.1669 41.7285 14.6202 42.3719C16.0735 43.0191 17.6857 43.3408 19.4645 43.3408C21.6747 43.3408 23.5368 42.8185 25.0506 41.7663C26.5645 40.718 27.7642 39.2647 28.6536 37.4064C28.8542 37.0053 28.8353 36.6722 28.5931 36.4073C28.3508 36.1462 28.0859 36.1764 27.8058 36.4981C26.9581 37.6297 25.9665 38.5078 24.8387 39.1322C23.7071 39.7605 22.4392 40.0708 21.0389 40.0708C18.6546 40.0708 16.6677 39.0565 15.0743 37.028C13.4772 34.9919 12.6825 32.055 12.6825 28.2174C12.6825 25.0307 13.2766 21.9916 14.4688 19.104C15.6572 16.2201 17.2884 13.6465 19.3586 11.3833C21.4363 9.1239 23.8168 7.33755 26.5039 6.02428C29.1872 4.7148 32.003 4.05627 34.9512 4.05627C38.1795 4.05627 40.613 4.86619 42.248 6.47844C43.883 8.09448 44.7004 10.1533 44.7004 12.655C44.7004 14.5132 44.2652 16.099 43.3985 17.4085C42.5281 18.7217 41.4305 19.7095 40.0983 20.3756C38.7661 21.0417 37.3507 21.3747 35.8595 21.3747C35.254 21.3747 34.6863 21.2158 34.164 20.8903C33.638 20.5686 33.4979 20.1447 33.7402 19.6187C34.3041 18.3698 34.3949 17.1776 34.0126 16.046C33.6266 14.9182 32.6085 14.3505 30.9547 14.3505C29.5392 14.3505 28.2789 14.7252 27.17 15.4707C26.0574 16.2201 25.1793 17.1776 24.5359 18.347C23.8888 19.5203 23.5671 20.7503 23.5671 22.0408C23.5671 23.778 24.0893 25.2199 25.1415 26.3705C26.1898 27.521 27.662 28.0963 29.5619 28.0963C30.6103 28.0963 31.651 27.9146 32.6805 27.5513C33.7099 27.1879 34.6258 26.5446 35.4357 25.6135C35.9579 25.0496 36.5143 24.7885 37.1009 24.8263C37.6837 24.868 38.1795 25.0913 38.5845 25.4924C38.9857 25.8974 39.1295 26.3818 39.0084 26.9457C38.4407 29.33 37.8351 31.4873 37.1917 33.425C36.5446 35.3552 35.8368 37.4481 35.0723 39.7075C34.1035 42.6557 32.6805 45.2709 30.8033 47.5493C28.9261 49.8276 26.7045 51.614 24.1423 52.9083C21.5877 54.1989 18.7984 54.846 15.7707 54.846Z" fill="#1C1254"/>
<path d="M51.84 16.4701C50.3867 16.4701 49.134 16.1597 48.0856 15.5315C47.0335 14.907 46.5112 13.7867 46.5112 12.1707C46.5112 10.0324 47.1054 8.56774 48.2976 7.78054C49.4859 6.99333 50.9089 6.59973 52.5666 6.59973C54.088 6.59973 55.3862 6.94413 56.4572 7.62915C57.5245 8.31795 57.9786 9.60851 57.8197 11.5046C57.6569 13.3629 57.0098 14.6534 55.882 15.3801C54.7617 16.1067 53.4144 16.4701 51.84 16.4701ZM45.1185 49.2147C43.0975 49.2147 41.6669 48.4805 40.8191 47.0045C39.9714 45.5322 39.5475 43.7459 39.5475 41.6454C39.5475 40.2338 39.6875 38.7388 39.9714 37.1644C40.2514 35.59 40.6148 34.0837 41.0613 32.638C42.473 28.2403 43.8468 24.8568 45.179 22.4952C46.5112 20.1336 48.044 18.9528 49.7811 18.9528C51.1512 18.9528 51.84 19.8611 51.84 21.6777C51.84 22.8888 51.6053 24.1301 51.1436 25.4018C50.6781 26.6734 50.2239 27.9261 49.7811 29.1561C49.3345 30.3899 49.115 31.548 49.115 32.638C49.115 33.6371 49.3648 34.3903 49.872 34.8936C50.3753 35.4008 51.0301 35.6506 51.84 35.6506C52.7672 35.6506 53.5393 35.3743 54.1562 34.8179C54.7806 34.254 55.3975 33.5274 56.0031 32.638C56.3248 32.1536 56.7373 31.9719 57.2444 32.093C57.7478 32.2141 58.1717 32.4866 58.5161 32.9105C58.8567 33.3344 58.9286 33.7242 58.728 34.0762C58.323 34.7233 57.85 35.6506 57.305 36.8617C56.76 38.0727 56.1015 39.386 55.337 40.7977C54.58 42.2131 53.7058 43.5529 52.718 44.8245C51.7264 46.0962 50.6062 47.1483 49.3573 47.9733C48.1045 48.8022 46.6929 49.2147 45.1185 49.2147Z" fill="#1C1254"/>
<path d="M75.7948 2.92102C77.7325 2.92102 79.1555 3.35625 80.0638 4.22293C80.9721 5.08205 81.4755 6.13796 81.5777 7.38689C81.6761 8.6396 81.5058 9.89988 81.063 11.1715C80.6164 12.4432 79.9806 13.5142 79.1555 14.3809C78.3267 15.2513 77.4486 15.6828 76.5214 15.6828C75.6736 15.6828 75.2498 15.38 75.2498 14.7745C75.2498 12.8368 74.5004 11.8679 73.0093 11.8679C71.7149 11.8679 70.5947 12.5453 69.6485 13.8965C68.7099 15.2513 67.8962 16.9544 67.2112 19.0133H73.5543C73.9554 19.0133 74.2203 19.2971 74.3415 19.861C74.4626 20.4287 74.4512 21.0721 74.3112 21.7988C74.1674 22.5254 73.9062 23.1726 73.524 23.7365C73.1379 24.3042 72.6459 24.5843 72.0404 24.5843C72.1199 24.5843 71.5333 24.5237 70.2843 24.4026C69.043 24.2815 67.5518 24.1604 65.8185 24.0393C65.334 26.2608 64.9404 28.4824 64.6377 30.7002C64.3349 32.9218 64.0813 34.833 63.8807 36.4377C63.718 37.9326 63.578 39.4276 63.4569 40.9187C63.3357 42.4137 63.1011 43.7875 62.7605 45.0364C62.4161 46.2891 61.8597 47.2996 61.0952 48.0641C60.327 48.8324 59.1954 49.2146 57.7042 49.2146C55.846 49.2146 54.6462 48.6091 54.1012 47.398C53.5563 46.1869 53.4881 44.3514 53.8893 41.8876C54.2943 39.4276 54.9793 36.3431 55.9481 32.6379C56.3909 31.0635 56.8337 29.5194 57.2803 28.0056C57.7231 26.4917 58.1886 25.0308 58.6731 23.6154H57.8253C56.4099 23.6154 55.4637 23.3845 54.9793 22.919C54.4948 22.4573 54.3056 21.9199 54.404 21.3143C54.5062 20.7088 54.756 20.1752 55.1609 19.7096C55.5621 19.2479 55.9481 19.0133 56.3115 19.0133H60.3686C61.6592 15.785 63.0708 12.9692 64.6074 10.566C66.1402 8.16652 67.8319 6.29313 69.6788 4.94958C71.5333 3.59847 73.5732 2.92102 75.7948 2.92102Z" fill="#1C1254"/>
<path d="M76.3453 49.2146C74.0821 49.2146 72.4169 48.5182 71.3496 47.1255C70.2786 45.7327 69.7449 43.9161 69.7449 41.6756C69.7449 39.4351 70.1915 37.0243 71.0771 34.4394C71.5994 32.918 72.186 31.2679 72.8332 29.4891C73.4766 27.7141 74.1843 25.7764 74.9526 23.6759C74.0632 23.6759 73.3857 23.445 72.924 22.9795C72.4585 22.5178 72.1557 21.9728 72.0157 21.3446C71.8719 20.7201 71.8719 20.1751 72.0157 19.7096C72.1557 19.2479 72.4093 19.0132 72.7726 19.0132C74.5476 19.0132 75.9404 18.5212 76.9509 17.5297C77.9576 16.5419 78.6653 15.5011 79.0703 14.4111C79.7969 12.6361 80.5009 11.5159 81.1897 11.0504C81.8747 10.5887 82.6013 10.354 83.3696 10.354C84.4974 10.354 85.2014 10.8309 85.4739 11.777C85.7539 12.727 85.436 14.15 84.5201 16.0461C84.0735 17.015 83.8313 17.753 83.7935 18.2563C83.7519 18.7635 84.013 19.0132 84.5807 19.0132H87.7144C88.1155 19.0132 88.3805 19.2971 88.5016 19.861C88.6227 20.4287 88.6113 21.0721 88.4713 21.7987C88.3275 22.5254 88.0663 23.1726 87.6841 23.7365C87.2981 24.3042 86.8061 24.5842 86.2005 24.5842C84.3536 24.5842 82.9836 24.6561 82.098 24.7962C81.2086 24.94 80.5841 25.2919 80.2208 25.8559C79.8575 26.4235 79.4714 27.3924 79.0703 28.7625C78.4231 30.8629 78.5139 32.5395 79.3428 33.7884C80.1678 35.0298 81.4697 35.6505 83.2485 35.6505C84.4596 35.6505 85.5344 35.3856 86.473 34.8481C87.4192 34.3032 88.1988 33.5689 88.8043 32.6379C89.126 32.1535 89.5386 31.9832 90.0457 32.1232C90.5491 32.267 90.9729 32.5395 91.3173 32.9407C91.658 33.3456 91.7299 33.743 91.5293 34.1366C91.1659 34.8254 90.6815 35.7716 90.076 36.9827C89.4704 38.1938 88.7438 39.507 87.896 40.9187C87.0483 42.3341 86.0567 43.6663 84.9289 44.9153C83.8086 46.168 82.5294 47.1974 81.0988 48.0035C79.6645 48.8134 78.0787 49.2146 76.3453 49.2146Z" fill="#1C1254"/>
<path d="M98.8 49.2147C96.3779 49.2147 94.3872 48.6697 92.8355 47.5797C91.28 46.4897 90.1295 45.0478 89.3839 43.2501C88.6345 41.4562 88.2712 39.4768 88.2939 37.3158C88.3128 35.1586 88.6875 33.0013 89.4142 30.8516C90.1408 28.6944 91.1892 26.715 92.563 24.9173C93.933 23.1234 95.5982 21.6777 97.5587 20.5877C99.5153 19.4977 101.722 18.9528 104.174 18.9528C106.07 18.9528 107.614 19.3085 108.807 20.0125C109.995 20.7202 110.873 21.6588 111.441 22.8282C112.005 24.0015 112.288 25.2504 112.288 26.5826C112.288 28.0359 111.884 29.4892 111.077 30.9425C110.267 32.3958 109.14 33.5993 107.686 34.5454C106.233 35.484 104.522 35.9533 102.554 35.9533C101.707 35.9533 100.878 35.8928 100.072 35.7717C99.2618 35.6506 98.5162 35.3894 97.8312 34.9845C97.6268 34.8633 97.4073 34.8558 97.1651 34.9542C96.9229 35.0564 96.8018 35.3099 96.8018 35.7111C96.8018 36.7632 97.4149 37.558 98.6487 38.103C99.8787 38.648 101.358 38.9205 103.084 38.9205C105.143 38.9205 107.27 38.3982 109.473 37.3461C111.672 36.2977 113.458 34.7271 114.832 32.638C115.153 32.1536 115.577 31.9832 116.103 32.1233C116.626 32.2671 117.061 32.5396 117.405 32.9408C117.746 33.3457 117.799 33.7431 117.557 34.1367C114.892 39.0643 111.974 42.8073 108.807 45.3695C105.635 47.9355 102.301 49.2147 98.8 49.2147ZM100.98 31.4269C102.138 31.4269 103.054 31.056 103.72 30.3067C104.386 29.5611 104.719 28.8042 104.719 28.0359C104.719 27.3509 104.485 26.7642 104.023 26.2798C103.557 25.7954 102.865 25.5532 101.949 25.5532C100.776 25.5532 99.8484 25.9165 99.1634 26.6431C98.4746 27.3698 98.134 28.1381 98.134 28.9442C98.134 29.5914 98.3648 30.1666 98.8303 30.67C99.292 31.1771 100.011 31.4269 100.98 31.4269Z" fill="#1C1254"/>
<path d="M124.822 49.2147C122.4 49.2147 120.409 48.6697 118.857 47.5797C117.302 46.4897 116.151 45.0478 115.406 43.2501C114.656 41.4562 114.293 39.4768 114.316 37.3158C114.335 35.1586 114.709 33.0013 115.436 30.8516C116.163 28.6944 117.211 26.715 118.585 24.9173C119.955 23.1234 121.62 21.6777 123.581 20.5877C125.537 19.4977 127.744 18.9528 130.196 18.9528C132.092 18.9528 133.636 19.3085 134.829 20.0125C136.017 20.7202 136.895 21.6588 137.463 22.8282C138.027 24.0015 138.31 25.2504 138.31 26.5826C138.31 28.0359 137.905 29.4892 137.099 30.9425C136.289 32.3958 135.162 33.5993 133.708 34.5454C132.255 35.484 130.544 35.9533 128.576 35.9533C127.729 35.9533 126.9 35.8928 126.094 35.7717C125.284 35.6506 124.538 35.3894 123.853 34.9845C123.649 34.8633 123.429 34.8558 123.187 34.9542C122.945 35.0564 122.824 35.3099 122.824 35.7111C122.824 36.7632 123.437 37.558 124.671 38.103C125.901 38.648 127.38 38.9205 129.106 38.9205C131.165 38.9205 133.292 38.3982 135.495 37.3461C137.693 36.2977 139.48 34.7271 140.854 32.638C141.175 32.1536 141.599 31.9832 142.125 32.1233C142.648 32.2671 143.083 32.5396 143.427 32.9408C143.768 33.3457 143.821 33.7431 143.579 34.1367C140.914 39.0643 137.996 42.8073 134.829 45.3695C131.657 47.9355 128.323 49.2147 124.822 49.2147ZM127.002 31.4269C128.16 31.4269 129.076 31.056 129.742 30.3067C130.408 29.5611 130.741 28.8042 130.741 28.0359C130.741 27.3509 130.506 26.7642 130.045 26.2798C129.579 25.7954 128.887 25.5532 127.971 25.5532C126.798 25.5532 125.87 25.9165 125.185 26.6431C124.496 27.3698 124.156 28.1381 124.156 28.9442C124.156 29.5914 124.387 30.1666 124.852 30.67C125.314 31.1771 126.033 31.4269 127.002 31.4269Z" fill="#1C1254"/>
</svg>
