<svg width="33" height="33" viewBox="0 0 33 33" fill="none" xmlns="http://www.w3.org/2000/svg">
<rect x="0.36792" y="0.158532" width="32" height="32" rx="6" fill="#311E02"/>
<path d="M19.7065 9.95739L12.8259 9.97982L13.04 22.3903L19.9206 22.3678L19.7065 9.95739Z" fill="#FF5F00"/>
<path d="M13.2773 16.211C13.2336 13.6867 14.3806 11.444 16.1781 9.98934C14.8203 8.94008 13.1185 8.30901 11.274 8.315C6.90423 8.32918 3.43012 11.8746 3.50579 16.2427C3.58146 20.6108 7.17801 24.1333 11.5478 24.1191C13.3923 24.1131 15.0721 23.4711 16.3933 22.4131C14.546 20.9923 13.3211 18.7353 13.2773 16.211Z" fill="#EB001B"/>
<path d="M29.2408 16.105C29.3164 20.4731 25.8423 24.0186 21.4726 24.0328C19.628 24.0387 17.9262 23.4077 16.5685 22.3584C18.3879 20.9037 19.5129 18.661 19.4692 16.1368C19.4255 13.6125 18.2009 11.3774 16.3533 9.93463C17.6745 8.87668 19.3543 8.23463 21.1988 8.22864C25.5685 8.21446 29.1655 11.7589 29.2408 16.105Z" fill="#F79E1B"/>
</svg>
