<svg width="33" height="33" viewBox="0 0 33 33" fill="none" xmlns="http://www.w3.org/2000/svg">
<rect x="0.367676" y="0.158532" width="32" height="32" rx="6" fill="#FEEE00"/>
<g clip-path="url(#clip0_6933_238)">
<path d="M27.4524 14.5699C27.005 14.5699 26.599 14.7154 26.2876 14.9833L26.1979 14.6658L25.4084 14.6658L25.4084 18.6573L26.412 18.6573L26.412 16.4885C26.412 16.0269 26.7215 15.5591 27.3123 15.5591C27.7747 15.5591 28.0501 15.8848 28.0501 16.4294L28.0501 18.658L29.0536 18.658L29.0536 16.3559C29.0536 15.2709 28.4255 14.5699 27.4524 14.5699ZM19.4311 16.6585C19.4311 17.2955 19.0156 17.7578 18.4424 17.7578C17.8692 17.7578 17.4538 17.2955 17.4538 16.6585C17.4538 16.0214 17.8692 15.5591 18.4424 15.5591C19.0148 15.5591 19.4311 16.0214 19.4311 16.6585ZM18.4417 14.5699C17.3164 14.5699 16.4345 15.4871 16.4345 16.6578C16.4345 17.8285 17.3157 18.7464 18.4417 18.7464C19.567 18.7464 20.449 17.8292 20.449 16.6578C20.449 15.4871 19.5678 14.5699 18.4417 14.5699ZM23.8168 16.6585C23.8168 17.2955 23.4005 17.7578 22.8281 17.7578C22.2556 17.7578 21.8394 17.2955 21.8394 16.6585C21.8394 16.0214 22.2556 15.5591 22.8281 15.5591C23.4013 15.5591 23.8168 16.0214 23.8168 16.6585ZM22.8281 14.5699C21.7027 14.5699 20.8209 15.4871 20.8209 16.6578C20.8209 17.8285 21.7021 18.7464 22.8281 18.7464C23.9534 18.7464 24.8352 17.8292 24.8352 16.6578C24.8352 15.4871 23.954 14.5699 22.8281 14.5699ZM14.2607 14.5699C13.814 14.5699 13.4074 14.7154 13.0953 14.9833L13.0055 14.6658L12.2168 14.6658L12.2168 18.6573L13.2204 18.6573L13.2204 16.4885C13.2204 16.0269 13.5298 15.5591 14.1207 15.5591C14.583 15.5591 14.8584 15.8848 14.8584 16.4294L14.8584 18.658L15.862 18.658L15.862 16.3559C15.862 15.2709 15.2337 14.5699 14.2607 14.5699Z" fill="#404553"/>
<path d="M3.86768 16.8244C3.86768 18.7009 5.46284 20.1585 7.31705 20.1585C9.25831 20.1585 10.8317 18.5928 10.8317 16.6803C10.8317 15.5619 10.2905 14.5802 9.4895 13.9241L8.90473 14.9344C9.38818 15.3457 9.72 15.9807 9.72 16.6952C9.72 17.9938 8.64499 19.0619 7.31705 19.0619C5.99659 19.0619 4.92092 17.9938 4.92092 16.6592C4.92092 16.5001 4.9352 16.3417 4.96443 16.1901L3.86768 16.8244ZM8.39954 13.3319C8.06772 13.2088 7.77194 13.1585 7.47617 13.1585C7.25247 13.1585 7.05732 13.1871 6.91316 13.2163L6.16251 14.5149C6.43653 14.3565 6.7901 14.2694 7.17291 14.2694C7.39661 14.2694 7.59855 14.298 7.80798 14.3558L8.39954 13.3319Z" fill="#404553"/>
</g>
<defs>
<clipPath id="clip0_6933_238">
<rect width="25.2319" height="7" fill="white" transform="translate(3.86768 13.1585)"/>
</clipPath>
</defs>
</svg>
