<svg width="34" height="29" viewBox="0 0 34 29" fill="none" xmlns="http://www.w3.org/2000/svg">
<path d="M28.3333 22.6667H2.83333C1.26853 22.6667 0 21.3981 0 19.8333V2.83333C0 1.26853 1.26853 0 2.83333 0H28.3333C29.8981 0 31.1667 1.26853 31.1667 2.83333V19.8333C31.1667 21.3981 29.8981 22.6667 28.3333 22.6667Z" fill="#2D98D4"/>
<path opacity="0.2" d="M28.3333 0H2.83333C1.26855 0 0 1.26846 0 2.83333V3.1875C0 1.62263 1.26855 0.354167 2.83333 0.354167H28.3333C29.8981 0.354167 31.1667 1.62263 31.1667 3.1875V2.83333C31.1667 1.26846 29.8981 0 28.3333 0Z" fill="white"/>
<path opacity="0.1" d="M28.3333 22.3126H2.83333C1.26855 22.3126 0 21.044 0 19.4792V19.8334C0 21.3982 1.26855 22.6667 2.83333 22.6667H28.3333C29.8981 22.6667 31.1667 21.3982 31.1667 19.8334V19.4792C31.1667 21.044 29.8981 22.3126 28.3333 22.3126Z" fill="#010101"/>
<path d="M0 4.25H31.1667V9.91667H0V4.25Z" fill="#1C2B39"/>
<path opacity="0.05" d="M0 4.25H31.1667V7.08333H0V4.25Z" fill="white"/>
<path d="M26.2083 28.3333C30.5115 28.3333 34 24.8449 34 20.5417C34 16.2384 30.5115 12.75 26.2083 12.75C21.9051 12.75 18.4166 16.2384 18.4166 20.5417C18.4166 24.8449 21.9051 28.3333 26.2083 28.3333Z" fill="#68B345"/>
<path opacity="0.1" d="M26.2084 27.9793C22.7916 27.9793 19.8855 25.8248 18.7528 22.8035C19.7224 26.0032 22.6921 28.3334 26.2084 28.3334C29.7246 28.3334 32.6944 26.0032 33.664 22.8035C32.5312 25.8248 29.6252 27.9793 26.2084 27.9793Z" fill="#010101"/>
<path opacity="0.2" d="M26.2084 13.1042C29.6252 13.1042 32.5312 15.2587 33.664 18.28C32.6944 15.0803 29.7246 12.75 26.2084 12.75C22.6921 12.75 19.7224 15.0803 18.7528 18.28C19.8855 15.2587 22.7916 13.1042 26.2084 13.1042Z" fill="white"/>
<path d="M29.75 19.8333H26.9166V17H25.5V19.8333H22.6666V21.25H25.5V24.0833H26.9166V21.25H29.75V19.8333Z" fill="white"/>
<path d="M22.6666 21.25L25.5 24.0833V21.25H22.6666ZM26.9166 19.8333H29.75L26.9166 17V19.8333ZM29.75 19.8333V21.25H26.9166V24.0833H25.5L29.1654 27.7487C31.089 26.9585 32.6251 25.4224 33.4154 23.4987L29.75 19.8333Z" fill="url(#paint0_linear_7670_125)"/>
<path d="M31.1667 14.5312V2.83333C31.1667 1.26846 29.8981 0 28.3333 0H2.83333C1.26855 0 0 1.26846 0 2.83333V19.8333C0 21.3981 1.26855 22.6667 2.83333 22.6667H18.7176C19.6435 25.9355 22.6429 28.3333 26.2083 28.3333C30.5115 28.3333 34 24.8448 34 20.5417C34 18.1222 32.897 15.9603 31.1667 14.5312Z" fill="url(#paint1_linear_7670_125)"/>
<defs>
<linearGradient id="paint0_linear_7670_125" x1="24.7916" y1="19.125" x2="31.7149" y2="26.0482" gradientUnits="userSpaceOnUse">
<stop stop-color="#010101" stop-opacity="0.1"/>
<stop offset="1" stop-color="#010101" stop-opacity="0"/>
</linearGradient>
<linearGradient id="paint1_linear_7670_125" x1="-0.714" y1="3.73433" x2="34.901" y2="20.3419" gradientUnits="userSpaceOnUse">
<stop stop-color="white" stop-opacity="0.2"/>
<stop offset="1" stop-color="white" stop-opacity="0"/>
</linearGradient>
</defs>
</svg>
