<svg width="26" height="26" viewBox="0 0 26 26" fill="none" xmlns="http://www.w3.org/2000/svg">
<path d="M10.1699 20.2545C10.2082 20.9496 10.506 21.6141 10.998 22.1061C11.5255 22.6335 12.2509 22.942 13 22.942C14.5115 22.942 15.7513 21.7471 15.8301 20.2545H17.0957C17.0163 22.446 15.2105 24.2037 13 24.2037C11.9258 24.2037 10.8704 23.7616 10.1064 22.9977C9.3782 22.2694 8.94344 21.2763 8.9043 20.2545H10.1699Z" fill="#F08080" stroke="white" stroke-width="0.3"/>
<path opacity="0.5" d="M13.021 1.94202C17.1985 1.94207 20.5894 5.33283 20.5894 9.51038V11.6979C20.5894 11.998 20.6587 12.3853 20.7622 12.7555C20.8657 13.1256 21.0076 13.4933 21.1626 13.7535V13.7545L22.4858 15.9625C22.9514 16.7352 23.0318 17.6568 22.7241 18.5006C22.4173 19.342 21.7431 19.9861 20.8892 20.274V20.275C18.3536 21.134 15.6929 21.5475 13.021 21.5475C10.3494 21.5475 7.68828 21.123 5.15186 20.274H5.15088C4.24286 19.9746 3.56149 19.3285 3.26611 18.5211C2.97044 17.7128 3.06708 16.781 3.55615 15.9625L4.87842 13.7545L4.87939 13.7535C5.03423 13.4935 5.17622 13.1285 5.27979 12.7594C5.38336 12.3902 5.45264 12.0031 5.45264 11.6979V9.51038C5.45264 5.3328 8.84342 1.94202 13.021 1.94202Z" fill="#F08080" stroke="white" stroke-width="0.3"/>
<path d="M13 6.57751C13.3442 6.57751 13.6309 6.86413 13.6309 7.20837V10.6771C13.6309 11.0305 13.3455 11.308 13 11.308C12.6558 11.308 12.3691 11.0214 12.3691 10.6771V7.20837C12.3691 6.86413 12.6558 6.57751 13 6.57751Z" fill="#F08080" stroke="#F08080" stroke-width="0.3"/>
</svg>
