<svg width="26" height="26" viewBox="0 0 26 26" fill="none" xmlns="http://www.w3.org/2000/svg">
<path opacity="0.5" fill-rule="evenodd" clip-rule="evenodd" d="M14.2356 3.7117L16.7913 8.51635L22.1507 9.46237C22.8084 9.57639 23.0748 10.3798 22.6062 10.8627L18.8262 14.7785L19.5829 20.1689C19.6774 20.8279 18.9949 21.3292 18.3928 21.0333L13.4996 18.6491L8.60628 21.0333C8.00367 21.3293 7.3218 20.8276 7.41619 20.1689L8.17302 14.7786L4.39294 10.8627C3.92438 10.38 4.19043 9.57653 4.84839 9.46237L10.2077 8.51641L12.7635 3.7117C13.0767 3.11884 13.9226 3.1189 14.2356 3.7117ZM25.1994 4.97435C24.6521 3.2873 23.7551 2.3089 22.0186 1.79883C21.8453 1.74792 21.6635 1.84533 21.6095 2.01693L20.2377 6.34539C20.1564 6.60248 20.4005 6.84202 20.654 6.76175L24.9828 5.39069C25.1575 5.33557 25.2545 5.14909 25.1994 4.97435ZM22.0251 25.1997C23.7122 24.6525 24.6906 23.7555 25.2006 22.019C25.2516 21.8457 25.1541 21.6638 24.9826 21.6098L20.6541 20.2381C20.397 20.1568 20.1575 20.4009 20.2377 20.6544L21.6088 24.9832C21.6639 25.1579 21.8504 25.2549 22.0251 25.1997ZM2.92586 24.0273C3.46916 24.5707 4.16252 24.9608 4.98048 25.201C5.1538 25.2519 5.33563 25.1545 5.38965 24.9829L6.76142 20.6545C6.8427 20.3974 6.59861 20.1579 6.34508 20.2381L2.01632 21.6092C1.8416 21.6643 1.74462 21.8508 1.79974 22.0255C2.0813 22.8934 2.3176 23.4191 2.92586 24.0273ZM4.97398 1.80013C3.28697 2.34732 2.30852 3.24449 1.79846 4.98085C1.74753 5.15419 1.84497 5.33603 2.01654 5.39002L6.34502 6.76179C6.60209 6.84308 6.84164 6.599 6.76136 6.34545L5.39032 2.01669C5.33521 1.84197 5.14871 1.745 4.97398 1.80013ZM9.84327 5.24763L8.92936 3.61469C8.71614 3.23402 8.13751 3.55793 8.35088 3.93894L9.26481 5.57187C9.47808 5.95264 10.0568 5.6285 9.84327 5.24763ZM17.7075 5.56586L18.6647 3.95792C18.8868 3.58437 18.319 3.24663 18.0967 3.62067L17.1394 5.22863C16.9173 5.60229 17.4855 5.93991 17.7075 5.56586ZM21.7519 8.73399L23.3848 7.82008C23.7655 7.60686 23.4416 7.02823 23.0606 7.24161L21.4276 8.15554C21.0469 8.3688 21.371 8.94749 21.7519 8.73399ZM20.793 17.7078L22.4009 18.6651C22.7745 18.8871 23.1122 18.3194 22.7382 18.097L21.1302 17.1398C20.7566 16.9177 20.4189 17.4858 20.793 17.7078ZM17.1558 22.2266C16.9423 21.8457 17.521 21.5215 17.7343 21.9023L18.6482 23.5353C18.8616 23.9163 18.283 24.2402 18.0698 23.8595L17.1558 22.2266ZM9.29165 21.9083C9.51365 21.5343 10.0818 21.8719 9.85969 22.2456L8.90247 23.8535C8.68014 24.2276 8.11235 23.8898 8.33442 23.5163L9.29165 21.9083ZM5.24724 17.1562L3.6143 18.0701C3.23365 18.2833 3.55756 18.862 3.93855 18.6486L5.57149 17.7347C5.95226 17.5214 5.62813 16.9427 5.24724 17.1562ZM5.5655 8.18236L3.95754 7.22515C3.58401 7.00308 3.24626 7.57084 3.62031 7.79319L5.22825 8.75042C5.6019 8.97253 5.93955 8.40438 5.5655 8.18236ZM1.78418 13.4797C1.78418 13.9746 1.9221 14.4675 2.18461 14.9486C2.27078 15.1068 2.4674 15.1665 2.6269 15.0848L5.11381 13.7943C5.35381 13.6702 5.35162 13.3279 5.11298 13.2051L2.6269 11.9151C2.02736 11.605 1.78418 13.1418 1.78418 13.4797ZM25.2149 13.5202C25.2149 13.0253 25.077 12.5324 24.8145 12.0513C24.7283 11.8931 24.5317 11.8333 24.3722 11.9151L21.8853 13.2055C21.6453 13.3296 21.6475 13.6719 21.8862 13.7948L24.3722 15.0848C24.9718 15.3949 25.2149 13.858 25.2149 13.5202Z" fill="#F72E50"/>
</svg>
