<svg width="7" height="8" viewBox="0 0 7 8" fill="none" xmlns="http://www.w3.org/2000/svg">
<path d="M0.894008 7.06982C0.655661 7.06982 0.432944 6.98776 0.272744 6.83538C0.0695633 6.64392 -0.0281197 6.35478 0.0070462 6.04219L0.151617 4.77622C0.178968 4.53787 0.323539 4.22138 0.491554 4.04946L3.69946 0.653999C4.50046 -0.193889 5.33663 -0.217333 6.18452 0.583667C7.03241 1.38467 7.05585 2.22083 6.25485 3.06872L3.04694 6.46418C2.88283 6.64001 2.57806 6.80412 2.33972 6.84319L1.08156 7.0581C1.01513 7.062 0.956525 7.06982 0.894008 7.06982ZM4.95371 0.57976C4.65285 0.57976 4.39106 0.767312 4.12536 1.04864L0.917452 4.44801C0.839305 4.53006 0.749437 4.72543 0.733808 4.83874L0.589237 6.10471C0.573608 6.23365 0.604866 6.33915 0.675198 6.40557C0.74553 6.472 0.851027 6.49544 0.979969 6.47591L2.23813 6.261C2.35144 6.24147 2.53899 6.13988 2.61714 6.05782L5.82505 2.66236C6.30955 2.1466 6.48538 1.6699 5.77816 1.00566C5.46557 0.704794 5.19597 0.57976 4.95371 0.57976Z" fill="#4B2D5C"/>
<path d="M5.50578 3.7214C5.49796 3.7214 5.48624 3.7214 5.47843 3.7214C4.25934 3.60027 3.2786 2.67424 3.09105 1.46297C3.06761 1.30277 3.17701 1.15429 3.33721 1.12694C3.49741 1.1035 3.64589 1.2129 3.67324 1.3731C3.82172 2.31867 4.58756 3.04543 5.54094 3.13921C5.70114 3.15484 5.81836 3.29941 5.80273 3.45961C5.7832 3.60809 5.65425 3.7214 5.50578 3.7214Z" fill="#4B2D5C"/>
</svg>
