<svg width="14" height="14" viewBox="0 0 14 14" fill="none" xmlns="http://www.w3.org/2000/svg">
<path d="M4.99854 9.34525C4.88771 9.34525 4.77688 9.30441 4.68937 9.21691C4.52021 9.04775 4.52021 8.76775 4.68937 8.59858L8.5102 4.77775C8.67937 4.60859 8.95937 4.60859 9.12853 4.77775C9.2977 4.94692 9.2977 5.22692 9.12853 5.39609L5.30771 9.21691C5.22021 9.30441 5.10937 9.34525 4.99854 9.34525Z" fill="white"/>
<path d="M5.23801 6.48089C4.60218 6.48089 4.08301 5.96174 4.08301 5.3259C4.08301 4.69007 4.60218 4.1709 5.23801 4.1709C5.87385 4.1709 6.393 4.69007 6.393 5.3259C6.393 5.96174 5.87385 6.48089 5.23801 6.48089ZM5.23801 5.05174C5.08635 5.05174 4.95801 5.17424 4.95801 5.33174C4.95801 5.48924 5.08051 5.61173 5.23801 5.61173C5.39551 5.61173 5.518 5.48924 5.518 5.33174C5.518 5.17424 5.38968 5.05174 5.23801 5.05174Z" fill="white"/>
<path d="M9.05343 9.82318C8.41759 9.82318 7.89844 9.30401 7.89844 8.66817C7.89844 8.03234 8.41759 7.51318 9.05343 7.51318C9.68926 7.51318 10.2084 8.03234 10.2084 8.66817C10.2084 9.30401 9.68926 9.82318 9.05343 9.82318ZM9.05343 8.39402C8.90176 8.39402 8.77344 8.51651 8.77344 8.67401C8.77344 8.83151 8.89593 8.95402 9.05343 8.95402C9.21093 8.95402 9.33343 8.83151 9.33343 8.67401C9.33343 8.51651 9.21093 8.39402 9.05343 8.39402Z" fill="white"/>
<path d="M7.00033 13.2707C3.54116 13.2707 0.729492 10.459 0.729492 6.99984C0.729492 3.54067 3.54116 0.729004 7.00033 0.729004C10.4595 0.729004 13.2712 3.54067 13.2712 6.99984C13.2712 10.459 10.4595 13.2707 7.00033 13.2707ZM7.00033 1.604C4.02533 1.604 1.60449 4.02484 1.60449 6.99984C1.60449 9.97484 4.02533 12.3957 7.00033 12.3957C9.97533 12.3957 12.3962 9.97484 12.3962 6.99984C12.3962 4.02484 9.97533 1.604 7.00033 1.604Z" fill="white"/>
</svg>
