<svg width="48" height="48" viewBox="0 0 48 48" fill="none" xmlns="http://www.w3.org/2000/svg">
<path d="M31 0H17C12.038 0 8 4.038 8 9V39C8 43.962 12.038 48 17 48H31C35.962 48 40 43.962 40 39V9C40 4.038 35.962 0 31 0ZM29.614 2L28.964 3.948C28.554 5.176 27.41 6 26.118 6H21.884C20.592 6 19.448 5.176 19.038 3.948L18.388 2H29.614ZM38 39C38 42.86 34.86 46 31 46H17C13.14 46 10 42.86 10 39V9C10 5.38 12.774 2.426 16.302 2.07L17.138 4.58C17.82 6.624 19.726 7.998 21.882 7.998H26.116C28.272 7.998 30.178 6.624 30.86 4.58L31.696 2.07C35.224 2.426 37.998 5.378 37.998 9L38 39Z" fill="#F72E50"/>
<path d="M27 40H21C20.448 40 20 40.448 20 41C20 41.552 20.448 42 21 42H27C27.552 42 28 41.552 28 41C28 40.448 27.552 40 27 40Z" fill="#F72E50"/>
</svg>
