<svg width="7" height="15" viewBox="0 0 7 15" fill="none" xmlns="http://www.w3.org/2000/svg">
<path d="M6.39139 0C6.54609 0 6.70079 0.0605612 6.82291 0.190338C7.05903 0.441239 7.05903 0.856525 6.82291 1.10743L1.51439 6.74838C1.12358 7.16366 1.12358 7.8385 1.51439 8.25378L6.82291 13.8947C7.05903 14.1456 7.05903 14.5609 6.82291 14.8118C6.5868 15.0627 6.19599 15.0627 5.95987 14.8118L0.651352 9.17087C0.236115 8.72963 0 8.13266 0 7.50108C0 6.8695 0.227973 6.27253 0.651352 5.83129L5.95987 0.190338C6.082 0.0692139 6.2367 0 6.39139 0Z" fill="#313131"/>
</svg>
