<svg width="27" height="28" viewBox="0 0 27 28" fill="none" xmlns="http://www.w3.org/2000/svg">
<path d="M19.125 21.2339H14.625L9.61874 24.5639C8.87624 25.0589 7.875 24.5301 7.875 23.6301V21.2339C4.5 21.2339 2.25 18.9839 2.25 15.6089V8.85889C2.25 5.48389 4.5 3.23389 7.875 3.23389H19.125C22.5 3.23389 24.75 5.48389 24.75 8.85889V15.6089C24.75 18.9839 22.5 21.2339 19.125 21.2339Z" fill="#FFDDE3"/>
<path d="M13.5 14.1235C13.0388 14.1235 12.6563 13.741 12.6563 13.2798V13.0436C12.6563 11.7386 13.6125 11.0973 13.9725 10.8498C14.3888 10.5686 14.5238 10.3773 14.5238 10.0848C14.5238 9.52232 14.0625 9.06104 13.5 9.06104C12.9375 9.06104 12.4763 9.52232 12.4763 10.0848C12.4763 10.5461 12.0938 10.9286 11.6326 10.9286C11.1713 10.9286 10.7888 10.5461 10.7888 10.0848C10.7888 8.58857 12.0038 7.37354 13.5 7.37354C14.9963 7.37354 16.2113 8.58857 16.2113 10.0848C16.2113 11.3673 15.2663 12.0086 14.9175 12.2448C14.4788 12.5373 14.3438 12.7286 14.3438 13.0436V13.2798C14.3438 13.7523 13.9613 14.1235 13.5 14.1235Z" fill="#F72E50"/>
<path d="M13.5 16.9253C13.0275 16.9253 12.6562 16.5428 12.6562 16.0815C12.6562 15.6203 13.0387 15.2378 13.5 15.2378C13.9612 15.2378 14.3438 15.6203 14.3438 16.0815C14.3438 16.5428 13.9725 16.9253 13.5 16.9253Z" fill="#F72E50"/>
</svg>
