<svg width="27" height="27" viewBox="0 0 27 27" fill="none" xmlns="http://www.w3.org/2000/svg">
<path opacity="0.4" d="M19.7213 8.74125C19.6425 8.73 19.5638 8.73 19.485 8.74125C17.7413 8.685 16.3575 7.25625 16.3575 5.50125C16.3575 3.7125 17.8088 2.25 19.6088 2.25C21.3975 2.25 22.86 3.70125 22.86 5.50125C22.8488 7.25625 21.465 8.685 19.7213 8.74125Z" fill="#C73E51"/>
<path opacity="0.4" d="M23.3887 16.5375C22.1287 17.3812 20.3624 17.6962 18.7312 17.4825C19.1587 16.56 19.3837 15.5362 19.3949 14.4562C19.3949 13.3312 19.1474 12.2625 18.6749 11.3287C20.3399 11.1037 22.1062 11.4187 23.3774 12.2625C25.1549 13.4325 25.1549 15.3562 23.3887 16.5375Z" fill="#C73E51"/>
<path opacity="0.4" d="M7.24507 8.74125C7.32382 8.73 7.40257 8.73 7.48132 8.74125C9.22507 8.685 10.6088 7.25625 10.6088 5.50125C10.6088 3.7125 9.15757 2.25 7.35757 2.25C5.56882 2.25 4.10632 3.70125 4.10632 5.50125C4.11757 7.25625 5.50132 8.685 7.24507 8.74125Z" fill="#C73E51"/>
<path opacity="0.4" d="M7.36876 14.4564C7.36876 15.5477 7.60501 16.5827 8.03251 17.5164C6.44626 17.6852 4.79251 17.3477 3.57751 16.5489C1.80001 15.3677 1.80001 13.4439 3.57751 12.2627C4.78126 11.4527 6.48001 11.1264 8.07751 11.3064C7.61626 12.2514 7.36876 13.3202 7.36876 14.4564Z" fill="#C73E51"/>
<path d="M13.635 17.8537C13.545 17.8425 13.4438 17.8425 13.3425 17.8537C11.2725 17.7862 9.61877 16.0875 9.61877 13.995C9.61877 11.8575 11.34 10.125 13.4888 10.125C15.6263 10.125 17.3588 11.8575 17.3588 13.995C17.3588 16.0875 15.7163 17.7862 13.635 17.8537Z" fill="#C73E51"/>
<path d="M9.97877 20.1827C8.28002 21.319 8.28002 23.1865 9.97877 24.3115C11.9138 25.6052 15.0863 25.6052 17.0213 24.3115C18.72 23.1752 18.72 21.3077 17.0213 20.1827C15.0975 18.889 11.925 18.889 9.97877 20.1827Z" fill="#C73E51"/>
</svg>
