<svg width="16" height="16" viewBox="0 0 16 16" fill="none" xmlns="http://www.w3.org/2000/svg">
<path d="M0.509836 14.7207C0.5706 14.2069 0.692128 13.7084 0.882956 13.2272C0.912764 13.1519 0.946013 13.078 0.976458 13.003C0.98614 12.9789 0.999388 12.9667 1.02678 12.961C1.32053 12.8998 1.61378 12.8365 1.90728 12.7741C2.36384 12.677 2.82053 12.5802 3.27709 12.4831C3.73517 12.3858 4.19326 12.2884 4.65148 12.1909C4.93874 12.1299 5.22612 12.069 5.51338 12.008C5.553 11.9996 5.55338 11.9992 5.55338 11.9591C5.55351 11.2639 5.55351 10.5686 5.55338 9.87346C5.55338 9.86111 5.55517 9.84837 5.5479 9.83295C4.13326 10.1337 2.71938 10.4342 1.30232 10.7355C1.29709 10.6798 1.30818 10.63 1.31455 10.5805C1.38678 10.0191 1.53569 9.47881 1.76308 8.96047C1.76499 8.95614 1.76805 8.95207 1.76907 8.94748C1.77582 8.91678 1.79646 8.90557 1.82588 8.89945C2.02486 8.85843 2.22371 8.81602 2.42244 8.77385C2.879 8.67678 3.33556 8.57958 3.79212 8.48251C4.23313 8.38876 4.67428 8.295 5.1153 8.20137C5.25045 8.17271 5.38536 8.14328 5.52077 8.11589C5.54625 8.11067 5.55682 8.10048 5.55376 8.075C5.55249 8.06404 5.55351 8.05271 5.55351 8.04162C5.55351 5.85093 5.55364 3.66037 5.55275 1.46968C5.55275 1.42866 5.56434 1.39796 5.59045 1.367C6.04102 0.830952 6.56816 0.38624 7.17401 0.0350317C7.19287 0.0240763 7.21223 0.0137579 7.2372 0C7.2372 2.58496 7.2372 5.16418 7.2372 7.74494C7.28662 7.74545 7.32904 7.7308 7.37197 7.72175C7.87528 7.61526 8.37821 7.50774 8.88139 7.40048C8.92139 7.39194 8.92165 7.39194 8.92178 7.35233C8.92203 7.28073 8.92178 7.20914 8.92178 7.13755C8.92178 5.52762 8.9219 3.91756 8.92114 2.30763C8.92114 2.27031 8.93069 2.2419 8.9549 2.21311C9.40814 1.67286 9.93922 1.2256 10.5497 0.872608C10.5634 0.86471 10.5773 0.857067 10.5913 0.849551C10.5939 0.848149 10.5972 0.848277 10.6057 0.846621C10.6057 2.90789 10.6057 4.968 10.6057 7.03309C10.6708 7.01984 10.7299 7.00825 10.7886 6.99577C11.3694 6.87233 11.9503 6.74876 12.5311 6.6252C13.1227 6.49921 13.7142 6.37297 14.3058 6.24698C14.4751 6.21093 14.6444 6.17539 14.8137 6.13947C14.8137 6.14902 14.8137 6.15857 14.8137 6.16813C14.8049 6.17845 14.8103 6.19093 14.8088 6.2024C14.8088 6.21246 14.8088 6.22252 14.8088 6.23271C14.806 6.428 14.7657 6.61793 14.7248 6.80736C14.6447 7.17844 14.5272 7.53768 14.379 7.88723C14.3513 7.95258 14.3118 7.98532 14.2414 8.00022C13.5071 8.155 12.7731 8.31105 12.0392 8.46735C11.5992 8.56111 11.1592 8.65551 10.7188 8.74735C10.602 8.77168 10.6199 8.76914 10.6197 8.86965C10.6191 9.36748 10.6195 9.86544 10.6195 10.3633C10.6195 10.3744 10.6193 10.3856 10.6195 10.3966C10.62 10.4575 10.6234 10.4608 10.6819 10.4484C10.8327 10.4163 10.9836 10.3843 11.1344 10.3518C11.5572 10.261 11.9802 10.1717 12.4032 10.0816C13.1744 9.91741 13.9456 9.75283 14.7172 9.59015C14.7484 9.58353 14.7804 9.56302 14.8135 9.58544C14.8135 9.59181 14.8135 9.59818 14.8135 9.60455C14.8047 9.61486 14.81 9.62722 14.8085 9.63869C14.8085 9.64875 14.8085 9.65881 14.8085 9.66888C14.8079 9.84658 14.7728 10.0197 14.7372 10.1924C14.6551 10.5894 14.5327 10.9736 14.3718 11.3457C14.3485 11.3997 14.3154 11.4281 14.2581 11.4401C13.533 11.5919 12.8085 11.7473 12.0839 11.9012C11.1244 12.1052 10.1651 12.3095 9.20572 12.5137C9.1326 12.5292 9.05936 12.5436 8.98636 12.5601C8.91897 12.5752 8.90356 12.5625 8.90343 12.4921C8.90292 12.2773 8.90318 12.0626 8.90318 11.8478C8.90318 10.9761 8.90318 10.1045 8.90318 9.23283C8.90318 9.21856 8.90343 9.20417 8.90318 9.1899C8.90216 9.1378 8.89808 9.13398 8.84776 9.14493C8.33961 9.25474 7.83057 9.36034 7.32255 9.47066C7.25121 9.4862 7.25121 9.48659 7.25121 9.56213C7.25121 10.1554 7.24854 10.7487 7.25261 11.342C7.25414 11.5543 7.19414 11.7414 7.07376 11.914C6.90535 12.1552 6.74446 12.4016 6.57898 12.6449C6.46102 12.8185 6.34714 12.995 6.22586 13.1663C5.98739 13.5038 5.66536 13.7134 5.26115 13.7991C4.32638 13.997 3.39199 14.1962 2.45734 14.3947C1.82907 14.5281 1.20092 14.6617 0.572766 14.7959C0.56181 14.7982 0.550982 14.8004 0.539772 14.8006C0.511365 14.8003 0.492129 14.7926 0.504358 14.7582C0.508562 14.7461 0.502957 14.7324 0.509836 14.7207Z" fill="#232020"/>
<path d="M9.9254 16.0003C9.92158 15.9252 9.93699 15.8517 9.94731 15.778C9.99699 15.4217 10.0783 15.0727 10.1923 14.7313C10.2511 14.555 10.3186 14.382 10.3928 14.2117C10.404 14.1859 10.4185 14.173 10.4471 14.167C11.1458 14.0192 11.8442 13.87 12.543 13.7215C13.1934 13.5833 13.8441 13.4456 14.4946 13.3072C14.9199 13.2168 15.3453 13.1258 15.7706 13.0354C15.7844 13.0324 15.798 13.0268 15.8125 13.0317C15.8125 13.0381 15.8125 13.0444 15.8125 13.0508C15.8037 13.061 15.8091 13.0733 15.8075 13.0845C15.8075 13.0945 15.8075 13.1044 15.8075 13.1144C15.8089 13.2424 15.7864 13.3676 15.7635 13.4926C15.6804 13.9449 15.5489 14.3825 15.3636 14.8038C15.345 14.8461 15.3193 14.869 15.2742 14.8786C14.7798 14.984 14.2851 15.0884 13.7909 15.194C13.1597 15.3287 12.5283 15.4628 11.8971 15.597C11.4696 15.688 11.0421 15.7793 10.6143 15.8693C10.4417 15.9056 10.2695 15.9442 10.0966 15.9796C10.0622 15.9866 10.0274 15.989 9.99317 15.9951C9.98578 15.9955 9.97852 15.9954 9.97113 15.9954C9.96222 15.9961 9.95241 15.9928 9.94464 16.0003C9.93814 16.0003 9.93177 16.0003 9.9254 16.0003Z" fill="#232020"/>
</svg>
