<svg width="10" height="11" viewBox="0 0 10 11" fill="none" xmlns="http://www.w3.org/2000/svg">
<path d="M0.0064416 10.0864C0.0488682 9.73438 0.133721 9.39275 0.26696 9.06308C0.287773 9.01149 0.310988 8.96087 0.332246 8.90946C0.339005 8.89296 0.348256 8.88458 0.367379 8.88066C0.572485 8.83876 0.777235 8.79538 0.982164 8.75261C1.30094 8.6861 1.61981 8.61976 1.93858 8.55325C2.25843 8.48657 2.57827 8.41979 2.89821 8.35302C3.09878 8.31121 3.29944 8.26949 3.50001 8.22768C3.52767 8.22192 3.52794 8.22166 3.52794 8.19416C3.52802 7.71785 3.52802 7.24146 3.52794 6.76515C3.52794 6.75668 3.52918 6.74795 3.52411 6.73739C2.53638 6.94347 1.54919 7.14937 0.559766 7.3558C0.556119 7.31766 0.563857 7.28353 0.568305 7.24957C0.618736 6.86491 0.722712 6.49474 0.881478 6.13958C0.882813 6.13661 0.884947 6.13382 0.885659 6.13068C0.890373 6.10964 0.904782 6.10196 0.925328 6.09777C1.06426 6.06966 1.2031 6.0406 1.34186 6.01171C1.66063 5.9452 1.97941 5.8786 2.29819 5.81209C2.60611 5.74785 2.91413 5.68361 3.22206 5.61945C3.31643 5.59981 3.41062 5.57965 3.50517 5.56088C3.52295 5.5573 3.53034 5.55032 3.5282 5.53287C3.52731 5.52536 3.52802 5.51759 3.52802 5.51C3.52802 4.00897 3.52811 2.50803 3.52749 1.007C3.52749 0.978894 3.53558 0.957858 3.55382 0.936648C3.86842 0.569356 4.23647 0.264646 4.65949 0.0240032C4.67265 0.0164967 4.68617 0.00942671 4.70361 0C4.70361 1.77117 4.70361 3.53842 4.70361 5.30671C4.73812 5.30706 4.76773 5.29702 4.79771 5.29083C5.14913 5.21786 5.50028 5.14419 5.85161 5.07069C5.87954 5.06485 5.87972 5.06485 5.87981 5.0377C5.87999 4.98865 5.87981 4.93959 5.87981 4.89054C5.87981 3.78744 5.8799 2.68425 5.87936 1.58116C5.87936 1.55558 5.88603 1.53612 5.90293 1.51639C6.2194 1.14622 6.59021 0.839762 7.01643 0.597898C7.02604 0.592486 7.03573 0.587249 7.04552 0.582099C7.04729 0.581139 7.04961 0.581226 7.05557 0.580092C7.05557 1.99244 7.05557 3.404 7.05557 4.81897C7.10102 4.80989 7.14229 4.80195 7.18329 4.79339C7.58879 4.70881 7.99438 4.62415 8.39988 4.53948C8.81293 4.45316 9.22599 4.36666 9.63905 4.28034C9.75726 4.25563 9.87547 4.23128 9.99367 4.20667C9.99367 4.21321 9.99367 4.21976 9.99367 4.22631C9.98754 4.23338 9.99127 4.24193 9.9902 4.24979C9.9902 4.25668 9.9902 4.26358 9.9902 4.27056C9.98825 4.40437 9.96014 4.53451 9.93159 4.6643C9.87564 4.91856 9.79364 5.1647 9.69011 5.40421C9.6708 5.44899 9.64323 5.47142 9.59404 5.48163C9.08137 5.58768 8.56887 5.6946 8.05646 5.8017C7.74925 5.86594 7.44203 5.93062 7.13455 5.99355C7.05299 6.01022 7.06544 6.00848 7.06535 6.07734C7.06491 6.41845 7.06517 6.75965 7.06517 7.10075C7.06517 7.10835 7.06508 7.11603 7.06517 7.12362C7.06553 7.16534 7.06793 7.16761 7.10876 7.15906C7.21407 7.13706 7.31938 7.11516 7.42469 7.0929C7.71989 7.03066 8.01528 6.96948 8.31057 6.90777C8.84905 6.79526 9.38752 6.68249 9.92625 6.57102C9.94804 6.56649 9.97037 6.55243 9.99349 6.5678C9.99349 6.57216 9.99349 6.57652 9.99349 6.58089C9.98736 6.58796 9.99109 6.59642 9.99003 6.60428C9.99003 6.61118 9.99003 6.61807 9.99003 6.62497C9.98958 6.74673 9.96512 6.86535 9.94022 6.98371C9.88294 7.25568 9.79746 7.51893 9.68513 7.77389C9.66885 7.8109 9.64572 7.83036 9.6057 7.83857C9.09942 7.94261 8.5936 8.0491 8.08768 8.15454C7.41775 8.29428 6.74791 8.43428 6.07807 8.5742C6.02701 8.58485 5.97587 8.59471 5.9249 8.60597C5.87785 8.61636 5.86709 8.60763 5.867 8.55936C5.86664 8.4122 5.86682 8.26513 5.86682 8.11796C5.86682 7.52068 5.86682 6.92348 5.86682 6.32619C5.86682 6.31642 5.867 6.30655 5.86682 6.29678C5.86611 6.26108 5.86326 6.25846 5.82813 6.26597C5.47333 6.34121 5.11791 6.41356 4.7632 6.48915C4.71339 6.4998 4.71339 6.50006 4.71339 6.55182C4.71339 6.95831 4.71152 7.36488 4.71437 7.77136C4.71544 7.91686 4.67354 8.045 4.58949 8.16327C4.4719 8.32858 4.35957 8.49739 4.24403 8.6641C4.16167 8.78307 4.08215 8.90396 3.99747 9.02136C3.83097 9.25257 3.60612 9.39624 3.3239 9.4549C2.67122 9.59054 2.01881 9.72705 1.36623 9.86304C0.927552 9.95443 0.488966 10.046 0.0503802 10.1379C0.042731 10.1395 0.0351707 10.141 0.0273436 10.1411C0.00750894 10.141 -0.0059217 10.1356 0.00261698 10.1121C0.00555215 10.1038 0.00163859 10.0944 0.0064416 10.0864Z" fill="#C73E51"/>
</svg>
