<svg width="10" height="10" viewBox="0 0 10 10" fill="none" xmlns="http://www.w3.org/2000/svg">
<path d="M0.0124672 9.19983C0.0511646 8.87875 0.128559 8.56715 0.250087 8.26646C0.269071 8.21941 0.290245 8.17323 0.309634 8.12634C0.3158 8.11129 0.324237 8.10365 0.341679 8.10007C0.528757 8.06185 0.71551 8.02229 0.902426 7.98328C1.19318 7.92261 1.48402 7.86211 1.77478 7.80144C2.06651 7.74062 2.35824 7.67971 2.65005 7.61881C2.833 7.58068 3.01602 7.54262 3.19896 7.50449C3.22419 7.49923 3.22443 7.49899 3.22443 7.47392C3.22451 7.03947 3.22451 6.60495 3.22443 6.17051C3.22443 6.16278 3.22557 6.15482 3.22094 6.14519C2.32003 6.33315 1.41961 6.52096 0.517156 6.70924C0.51383 6.67445 0.520887 6.64332 0.524944 6.61235C0.570943 6.2615 0.66578 5.92387 0.810591 5.59992C0.811807 5.59722 0.813754 5.59467 0.814404 5.5918C0.818703 5.57262 0.831846 5.56561 0.850586 5.56179C0.977306 5.53616 1.10394 5.50964 1.2305 5.48329C1.52126 5.42263 1.81202 5.36188 2.10278 5.30122C2.38364 5.24263 2.66458 5.18403 2.94544 5.12552C3.03151 5.1076 3.11743 5.08921 3.20366 5.0721C3.21989 5.06883 3.22662 5.06246 3.22467 5.04654C3.22386 5.03969 3.22451 5.03261 3.22451 5.02568C3.22451 3.65659 3.22459 2.28758 3.22403 0.918486C3.22403 0.892851 3.23141 0.873665 3.24804 0.854319C3.53498 0.519311 3.87069 0.241384 4.25652 0.0218934C4.26853 0.0150467 4.28086 0.00859812 4.29676 0C4.29676 1.61549 4.29676 3.2274 4.29676 4.84026C4.32824 4.84058 4.35525 4.83143 4.38259 4.82578C4.70313 4.75922 5.02341 4.69203 5.34386 4.62499C5.36934 4.61966 5.3695 4.61966 5.36958 4.5949C5.36974 4.55016 5.36958 4.50542 5.36958 4.46067C5.36958 3.45453 5.36966 2.44832 5.36917 1.44218C5.36917 1.41885 5.37526 1.4011 5.39067 1.3831C5.67932 1.04547 6.01754 0.765949 6.4063 0.545344C6.41506 0.540408 6.4239 0.535631 6.43283 0.530934C6.43445 0.530058 6.43656 0.530138 6.44199 0.529103C6.44199 1.81731 6.44199 3.1048 6.44199 4.39539C6.48345 4.38711 6.52109 4.37987 6.55849 4.37207C6.92835 4.29492 7.29828 4.2177 7.66814 4.14047C8.04489 4.06174 8.42164 3.98284 8.7984 3.9041C8.90621 3.88157 9.01403 3.85936 9.12185 3.83691C9.12185 3.84288 9.12185 3.84885 9.12185 3.85482C9.11625 3.86127 9.11966 3.86908 9.11868 3.87624C9.11868 3.88253 9.11868 3.88882 9.11868 3.89519C9.1169 4.01723 9.09126 4.13594 9.06522 4.25432C9.01419 4.48623 8.93939 4.71074 8.84496 4.92919C8.82736 4.97003 8.80221 4.99049 8.75735 4.99981C8.28973 5.09654 7.82228 5.19406 7.35491 5.29175C7.0747 5.35034 6.79449 5.40933 6.51403 5.46673C6.43964 5.48194 6.451 5.48035 6.45092 5.54316C6.45051 5.85429 6.45075 6.16549 6.45075 6.47661C6.45075 6.48354 6.45067 6.49055 6.45075 6.49747C6.45108 6.53553 6.45327 6.5376 6.49051 6.5298C6.58656 6.50973 6.68261 6.48975 6.77867 6.46945C7.04793 6.41269 7.31735 6.35688 7.58669 6.30059C8.07783 6.19797 8.56897 6.09511 9.06035 5.99345C9.08023 5.98931 9.10059 5.97649 9.12169 5.9905C9.12169 5.99448 9.12169 5.99846 9.12169 6.00244C9.11609 6.00889 9.11949 6.01661 9.11852 6.02378C9.11852 6.03007 9.11852 6.03636 9.11852 6.04265C9.11812 6.15371 9.09581 6.2619 9.07309 6.36985C9.02084 6.61793 8.94288 6.85804 8.84042 7.09058C8.82557 7.12434 8.80448 7.14209 8.76797 7.14958C8.3062 7.24447 7.84483 7.3416 7.38339 7.43777C6.77234 7.56523 6.16138 7.69293 5.55041 7.82055C5.50384 7.83026 5.4572 7.83926 5.41071 7.84953C5.3678 7.859 5.35798 7.85104 5.3579 7.80701C5.35757 7.67279 5.35774 7.53864 5.35774 7.40442C5.35774 6.85963 5.35774 6.31492 5.35774 5.77014C5.35774 5.76122 5.3579 5.75222 5.35774 5.74331C5.35709 5.71074 5.35449 5.70836 5.32245 5.7152C4.99883 5.78383 4.67465 5.84983 4.35112 5.91877C4.30569 5.92848 4.30569 5.92872 4.30569 5.97593C4.30569 6.34669 4.30398 6.71752 4.30658 7.08828C4.30755 7.22099 4.26934 7.33786 4.19268 7.44573C4.08543 7.59652 3.98296 7.75049 3.87758 7.90255C3.80246 8.01106 3.72993 8.12132 3.6527 8.2284C3.50083 8.43929 3.29574 8.57034 3.03833 8.62384C2.44302 8.74755 1.84796 8.87207 1.25273 8.9961C0.852614 9.07946 0.452579 9.16297 0.0525437 9.2468C0.0455668 9.24823 0.0386711 9.24967 0.0315319 9.24975C0.0134407 9.24959 0.0011906 9.24473 0.00897875 9.22324C0.0116559 9.21567 0.00808636 9.20716 0.0124672 9.19983Z" fill="white"/>
<path d="M5.37123 9.9988C5.3688 9.95183 5.37861 9.9059 5.38518 9.85988C5.41682 9.6372 5.46858 9.41907 5.54119 9.20571C5.57867 9.09552 5.62167 8.98741 5.66888 8.88097C5.67602 8.86489 5.68527 8.85677 5.70344 8.85302C6.14842 8.76067 6.59324 8.66745 7.03822 8.57462C7.45245 8.48824 7.86684 8.40218 8.28108 8.31572C8.55196 8.2592 8.82284 8.20235 9.09372 8.14583C9.10248 8.144 9.11116 8.14049 9.12041 8.14352C9.12041 8.1475 9.12041 8.15148 9.12041 8.15546C9.11481 8.16183 9.11822 8.16955 9.11725 8.17656C9.11725 8.18277 9.11725 8.18898 9.11725 8.19519C9.11814 8.2752 9.10378 8.35346 9.08918 8.43156C9.03628 8.71426 8.95256 8.98773 8.83452 9.25101C8.82268 9.27744 8.80629 9.29177 8.77757 9.29774C8.46272 9.36366 8.14771 9.42886 7.83293 9.49486C7.43095 9.57909 7.02889 9.66284 6.62691 9.74675C6.35465 9.80359 6.08238 9.86068 5.80996 9.91688C5.70004 9.93957 5.59035 9.96369 5.48026 9.98583C5.45836 9.99021 5.43621 9.99172 5.41439 9.99554C5.40968 9.99578 5.40506 9.9957 5.40035 9.9957C5.39467 9.99618 5.38843 9.99411 5.38348 9.9988C5.37934 9.9988 5.37529 9.9988 5.37123 9.9988Z" fill="white"/>
<path d="M0.0305847 9.24352C0.0216608 9.25259 0.0105465 9.24917 0 9.24853C0 9.24057 0 9.23261 0 9.22465C0.00941068 9.21923 0.00316394 9.2065 0.0116011 9.20068C0.01152 9.20849 0.0118445 9.21629 0.0112766 9.22409C0.00973519 9.24256 0.00957294 9.24256 0.0305847 9.24352Z" fill="#C5C4C4"/>
<path d="M9.1148 3.87272C9.1135 3.86588 9.11301 3.85919 9.11991 3.85449C9.11991 3.86046 9.11991 3.86643 9.11991 3.8724C9.11837 3.87495 9.11666 3.87503 9.1148 3.87272Z" fill="#A6A5A5"/>
<path d="M9.11507 3.87263C9.11678 3.87263 9.11848 3.87247 9.12018 3.87231C9.12018 3.87829 9.12018 3.88426 9.12018 3.89023C9.11848 3.89039 9.11678 3.89047 9.11499 3.89047C9.11507 3.8845 9.11507 3.8786 9.11507 3.87263Z" fill="#D7D6D6"/>
<path d="M9.11475 6.02132C9.11329 6.01439 9.11353 6.00787 9.11986 6.00293C9.11986 6.0089 9.11986 6.01487 9.11986 6.02084C9.1184 6.02331 9.1167 6.02347 9.11475 6.02132Z" fill="#918F8F"/>
<path d="M9.11499 6.02123C9.11669 6.02131 9.1184 6.02115 9.1201 6.02075C9.1201 6.02672 9.1201 6.03269 9.1201 6.03866L9.11759 6.03906L9.11507 6.03898C9.11499 6.03301 9.11499 6.02712 9.11499 6.02123Z" fill="#CBCACA"/>
<path d="M9.11475 8.17505C9.11337 8.16812 9.11337 8.16159 9.11986 8.15674C9.11986 8.16271 9.11986 8.16868 9.11986 8.17465C9.11832 8.1772 9.11661 8.17728 9.11475 8.17505Z" fill="#999797"/>
<path d="M9.11499 8.17471C9.11669 8.17471 9.1184 8.17456 9.1201 8.17432C9.1201 8.18029 9.1201 8.18626 9.1201 8.19223L9.11759 8.19255H9.11499C9.11499 8.18658 9.11499 8.18061 9.11499 8.17471Z" fill="#CECECE"/>
<path d="M5.38452 9.99983C5.38696 9.99402 5.39174 9.99354 5.39718 9.99457C5.3988 9.99593 5.39929 9.99712 5.39856 9.99824C5.39791 9.99927 5.39726 9.99983 5.39669 9.99983C5.39263 9.99983 5.38858 9.99983 5.38452 9.99983Z" fill="#838282"/>
</svg>
