<svg width="11" height="11" viewBox="0 0 11 11" fill="none" xmlns="http://www.w3.org/2000/svg">
<path d="M0.00646319 10.1202C0.049032 9.76702 0.13417 9.42424 0.267855 9.09346C0.288738 9.0417 0.31203 8.99091 0.333359 8.93933C0.340142 8.92277 0.349423 8.91437 0.36861 8.91043C0.574404 8.86839 0.779841 8.82486 0.985456 8.78195C1.3053 8.71522 1.62524 8.64866 1.94508 8.58192C2.266 8.51502 2.58692 8.44802 2.90792 8.38102C3.10917 8.33907 3.3105 8.29721 3.51174 8.25526C3.5395 8.24948 3.53976 8.24922 3.53976 8.22163C3.53985 7.74373 3.53985 7.26573 3.53976 6.78782C3.53976 6.77933 3.54101 6.77057 3.53593 6.75997C2.54488 6.96674 1.55438 7.17334 0.561642 7.38046C0.557984 7.34219 0.565748 7.30794 0.57021 7.27388C0.62081 6.88792 0.725135 6.51651 0.884434 6.16016C0.885772 6.15718 0.887914 6.15438 0.888628 6.15123C0.893358 6.13012 0.907815 6.12241 0.92843 6.11821C1.06783 6.09001 1.20714 6.06085 1.34635 6.03186C1.6662 5.96513 1.98605 5.89831 2.30589 5.83157C2.61485 5.76712 2.9239 5.70266 3.23286 5.63829C3.32754 5.61858 3.42205 5.59835 3.51692 5.57953C3.53477 5.57593 3.54217 5.56893 3.54003 5.55141C3.53914 5.54388 3.53985 5.53609 3.53985 5.52847C3.53985 4.02241 3.53994 2.51644 3.53932 1.01037C3.53932 0.982175 3.54744 0.961069 3.56573 0.939788C3.88138 0.571264 4.25067 0.265533 4.67511 0.0240837C4.68832 0.016552 4.70188 0.00945831 4.71937 0C4.71937 1.77711 4.71937 3.55028 4.71937 5.3245C4.754 5.32485 4.78372 5.31478 4.81379 5.30856C5.16639 5.23535 5.51872 5.16143 5.87123 5.08769C5.89925 5.08183 5.89943 5.08183 5.89952 5.05459C5.8997 5.00537 5.89952 4.95615 5.89952 4.90693C5.89952 3.80014 5.89961 2.69325 5.89907 1.58646C5.89907 1.5608 5.90577 1.54127 5.92272 1.52147C6.24025 1.15006 6.6123 0.842578 7.03995 0.599902C7.04959 0.594472 7.05932 0.589218 7.06914 0.58405C7.07092 0.583087 7.07324 0.583175 7.07922 0.582036C7.07922 1.99912 7.07922 3.41541 7.07922 4.83512C7.12482 4.82601 7.16623 4.81804 7.20737 4.80946C7.61423 4.7246 8.02118 4.63965 8.42804 4.5547C8.84248 4.46809 9.25692 4.3813 9.67137 4.29468C9.78997 4.2699 9.90857 4.24547 10.0272 4.22077C10.0272 4.22734 10.0272 4.23391 10.0272 4.24047C10.021 4.24757 10.0248 4.25615 10.0237 4.26403C10.0237 4.27095 10.0237 4.27787 10.0237 4.28488C10.0217 4.41913 9.99353 4.54971 9.96488 4.67994C9.90875 4.93505 9.82647 5.18201 9.72259 5.42232C9.70323 5.46725 9.67556 5.48976 9.62621 5.50001C9.11181 5.60641 8.5976 5.71369 8.08347 5.82115C7.77522 5.88561 7.46698 5.9505 7.15847 6.01364C7.07663 6.03037 7.08913 6.02862 7.08904 6.09772C7.08859 6.43997 7.08886 6.78231 7.08886 7.12456C7.08886 7.13218 7.08877 7.13988 7.08886 7.1475C7.08922 7.18936 7.09163 7.19164 7.13259 7.18306C7.23825 7.16099 7.34391 7.13901 7.44958 7.11668C7.74577 7.05423 8.04215 6.99284 8.33844 6.93092C8.87871 6.81804 9.41899 6.70489 9.95953 6.59305C9.9814 6.5885 10.0038 6.5744 10.027 6.58981C10.027 6.59419 10.027 6.59857 10.027 6.60295C10.0208 6.61004 10.0246 6.61854 10.0235 6.62642C10.0235 6.63334 10.0235 6.64026 10.0235 6.64718C10.0231 6.76935 9.99853 6.88836 9.97354 7.00712C9.91607 7.28001 9.83031 7.54414 9.71759 7.79995C9.70126 7.83708 9.67806 7.85661 9.6379 7.86485C9.12993 7.96924 8.62241 8.07608 8.11479 8.18187C7.44262 8.32208 6.77053 8.46256 6.09844 8.60294C6.04722 8.61363 5.9959 8.62352 5.94477 8.63482C5.89756 8.64524 5.88676 8.63649 5.88667 8.58806C5.88631 8.4404 5.88649 8.29283 5.88649 8.14518C5.88649 7.54589 5.88649 6.94669 5.88649 6.3474C5.88649 6.33759 5.88667 6.32769 5.88649 6.31789C5.88578 6.28207 5.88292 6.27944 5.84767 6.28697C5.49168 6.36246 5.13507 6.43506 4.77917 6.51091C4.72919 6.52159 4.72919 6.52185 4.72919 6.57379C4.72919 6.98163 4.72732 7.38956 4.73017 7.79741C4.73124 7.9434 4.68921 8.07196 4.60488 8.19063C4.4869 8.3565 4.37418 8.52588 4.25826 8.69315C4.17562 8.81252 4.09583 8.93381 4.01088 9.0516C3.84381 9.28359 3.61821 9.42774 3.33504 9.48659C2.68018 9.62269 2.02558 9.75966 1.37081 9.8961C0.930661 9.9878 0.490605 10.0797 0.0505491 10.1719C0.0428742 10.1735 0.0352886 10.175 0.0274352 10.1751C0.00753411 10.1749 -0.00594155 10.1696 0.00262575 10.146C0.00557076 10.1376 0.00164408 10.1283 0.00646319 10.1202Z" fill="white"/>
</svg>
