<svg width="10" height="11" viewBox="0 0 10 11" fill="none" xmlns="http://www.w3.org/2000/svg">
<path d="M0.0126672 10.0864C0.0550938 9.73438 0.139947 9.39275 0.273186 9.06308C0.293999 9.01149 0.317213 8.96087 0.338471 8.90946C0.345231 8.89296 0.354481 8.88458 0.373604 8.88066C0.57871 8.83876 0.783461 8.79538 0.988389 8.75261C1.30717 8.6861 1.62603 8.61976 1.94481 8.55325C2.26466 8.48657 2.5845 8.41979 2.90443 8.35302C3.105 8.31121 3.30566 8.26949 3.50623 8.22768C3.53389 8.22192 3.53416 8.22166 3.53416 8.19416C3.53425 7.71785 3.53425 7.24146 3.53416 6.76515C3.53416 6.75668 3.53541 6.74795 3.53034 6.73739C2.54261 6.94347 1.55541 7.14937 0.565991 7.3558C0.562345 7.31766 0.570083 7.28353 0.57453 7.24957C0.624962 6.86491 0.728938 6.49474 0.887704 6.13958C0.889038 6.13661 0.891173 6.13382 0.891884 6.13068C0.896598 6.10964 0.911008 6.10196 0.931554 6.09777C1.07049 6.06966 1.20933 6.0406 1.34808 6.01171C1.66686 5.9452 1.98564 5.8786 2.30441 5.81209C2.61234 5.74785 2.92035 5.68361 3.22828 5.61945C3.32265 5.59981 3.41684 5.57965 3.51139 5.56088C3.52918 5.5573 3.53656 5.55032 3.53443 5.53287C3.53354 5.52536 3.53425 5.51759 3.53425 5.51C3.53425 4.00897 3.53434 2.50803 3.53372 1.007C3.53372 0.978894 3.54181 0.957858 3.56004 0.936648C3.87464 0.569356 4.24269 0.264646 4.66571 0.0240032C4.67888 0.0164967 4.6924 0.00942671 4.70983 0C4.70983 1.77117 4.70983 3.53842 4.70983 5.30671C4.74434 5.30706 4.77396 5.29702 4.80393 5.29083C5.15535 5.21786 5.50651 5.14419 5.85784 5.07069C5.88577 5.06485 5.88594 5.06485 5.88603 5.0377C5.88621 4.98865 5.88603 4.93959 5.88603 4.89054C5.88603 3.78744 5.88612 2.68425 5.88559 1.58116C5.88559 1.55558 5.89226 1.53612 5.90916 1.51639C6.22562 1.14622 6.59643 0.839762 7.02266 0.597898C7.03226 0.592486 7.04196 0.587249 7.05174 0.582099C7.05352 0.581139 7.05583 0.581226 7.06179 0.580092C7.06179 1.99244 7.06179 3.404 7.06179 4.81897C7.10724 4.80989 7.14851 4.80195 7.18952 4.79339C7.59502 4.70881 8.0006 4.62415 8.4061 4.53948C8.81916 4.45316 9.23222 4.36666 9.64528 4.28034C9.76348 4.25563 9.88169 4.23128 9.9999 4.20667C9.9999 4.21321 9.9999 4.21976 9.9999 4.22631C9.99376 4.23338 9.9975 4.24193 9.99643 4.24979C9.99643 4.25668 9.99643 4.26358 9.99643 4.27056C9.99447 4.40437 9.96637 4.53451 9.93782 4.6643C9.88187 4.91856 9.79986 5.1647 9.69633 5.40421C9.67703 5.44899 9.64946 5.47142 9.60027 5.48163C9.08759 5.58768 8.5751 5.6946 8.06269 5.8017C7.75547 5.86594 7.44826 5.93062 7.14078 5.99355C7.05921 6.01022 7.07167 6.00848 7.07158 6.07734C7.07113 6.41845 7.0714 6.75965 7.0714 7.10075C7.0714 7.10835 7.07131 7.11603 7.0714 7.12362C7.07175 7.16534 7.07416 7.16761 7.11498 7.15906C7.22029 7.13706 7.3256 7.11516 7.43091 7.0929C7.72612 7.03066 8.0215 6.96948 8.3168 6.90777C8.85527 6.79526 9.39374 6.68249 9.93248 6.57102C9.95427 6.56649 9.97659 6.55243 9.99972 6.5678C9.99972 6.57216 9.99972 6.57652 9.99972 6.58089C9.99358 6.58796 9.99732 6.59642 9.99625 6.60428C9.99625 6.61118 9.99625 6.61807 9.99625 6.62497C9.99581 6.74673 9.97135 6.86535 9.94644 6.98371C9.88916 7.25568 9.80369 7.51893 9.69135 7.77389C9.67507 7.8109 9.65195 7.83036 9.61192 7.83857C9.10565 7.94261 8.59982 8.0491 8.09391 8.15454C7.42397 8.29428 6.75413 8.43428 6.08429 8.5742C6.03324 8.58485 5.98209 8.59471 5.93113 8.60597C5.88408 8.61636 5.87331 8.60763 5.87323 8.55936C5.87287 8.4122 5.87305 8.26513 5.87305 8.11796C5.87305 7.52068 5.87305 6.92348 5.87305 6.32619C5.87305 6.31642 5.87323 6.30655 5.87305 6.29678C5.87234 6.26108 5.86949 6.25846 5.83436 6.26597C5.47956 6.34121 5.12413 6.41356 4.76942 6.48915C4.71961 6.4998 4.71961 6.50006 4.71961 6.55182C4.71961 6.95831 4.71775 7.36488 4.72059 7.77136C4.72166 7.91686 4.67977 8.045 4.59572 8.16327C4.47813 8.32858 4.36579 8.49739 4.25025 8.6641C4.16789 8.78307 4.08838 8.90396 4.0037 9.02136C3.8372 9.25257 3.61234 9.39624 3.33012 9.4549C2.67745 9.59054 2.02504 9.72705 1.37245 9.86304C0.933777 9.95443 0.495192 10.046 0.0566058 10.1379C0.0489566 10.1395 0.0413963 10.141 0.0335692 10.1411C0.0137345 10.141 0.000303884 10.1356 0.00884256 10.1121C0.0117777 10.1038 0.00786418 10.0944 0.0126672 10.0864Z" fill="#4B2D5C"/>
<path d="M5.88921 10.9626C5.88654 10.9111 5.8973 10.8608 5.90451 10.8103C5.9392 10.5662 5.99594 10.327 6.07555 10.0931C6.11664 9.97229 6.16378 9.85376 6.21555 9.73706C6.22337 9.71943 6.23351 9.71053 6.25344 9.70642C6.7413 9.60517 7.22898 9.50296 7.71684 9.40119C8.17099 9.30649 8.62532 9.21213 9.07947 9.11734C9.37646 9.05537 9.67345 8.99305 9.97043 8.93108C9.98004 8.92907 9.98955 8.92523 9.99969 8.92855C9.99969 8.93291 9.99969 8.93727 9.99969 8.94164C9.99356 8.94862 9.99729 8.95709 9.99623 8.96477C9.99623 8.97158 9.99623 8.97839 9.99623 8.98519C9.9972 9.07291 9.98146 9.15872 9.96545 9.24434C9.90746 9.55429 9.81567 9.85411 9.68625 10.1428C9.67327 10.1717 9.6553 10.1874 9.62381 10.194C9.27862 10.2663 8.93325 10.3378 8.58814 10.4101C8.14742 10.5025 7.70661 10.5943 7.26589 10.6863C6.9674 10.7486 6.6689 10.8112 6.37022 10.8728C6.2497 10.8977 6.12945 10.9241 6.00875 10.9484C5.98474 10.9532 5.96045 10.9549 5.93653 10.959C5.93137 10.9593 5.9263 10.9592 5.92114 10.9592C5.91491 10.9597 5.90807 10.9575 5.90264 10.9626C5.8981 10.9626 5.89366 10.9626 5.88921 10.9626Z" fill="#4B2D5C"/>
<path d="M0.0335321 10.1334C0.0237482 10.1433 0.0115628 10.1396 0 10.1389C0 10.1302 0 10.1214 0 10.1127C0.0103176 10.1068 0.00346884 10.0928 0.0127191 10.0864C0.0126301 10.095 0.0129859 10.1035 0.0123633 10.1121C0.0106733 10.1323 0.0104955 10.1323 0.0335321 10.1334Z" fill="#C5C4C4"/>
<path d="M9.99415 4.24655C9.99272 4.23904 9.99219 4.23171 9.99975 4.22656C9.99975 4.23311 9.99975 4.23966 9.99975 4.2462C9.99806 4.24899 9.99619 4.24908 9.99415 4.24655Z" fill="#A6A5A5"/>
<path d="M9.99411 4.24595C9.99598 4.24595 9.99784 4.24578 9.99971 4.24561C9.99971 4.25215 9.99971 4.2587 9.99971 4.26524C9.99784 4.26542 9.99598 4.26551 9.99402 4.26551C9.99411 4.25896 9.99411 4.2525 9.99411 4.24595Z" fill="#D7D6D6"/>
<path d="M9.99409 6.60073C9.99249 6.59314 9.99276 6.58598 9.9997 6.58057C9.9997 6.58711 9.9997 6.59366 9.9997 6.60021C9.9981 6.60291 9.99623 6.60309 9.99409 6.60073Z" fill="#918F8F"/>
<path d="M9.99414 6.60062C9.99601 6.60071 9.99788 6.60053 9.99974 6.6001C9.99974 6.60664 9.99974 6.61319 9.99974 6.61974L9.99699 6.62017L9.99423 6.62009C9.99414 6.61354 9.99414 6.60708 9.99414 6.60062Z" fill="#CBCACA"/>
<path d="M9.99409 8.96197C9.99258 8.95438 9.99258 8.94722 9.99969 8.94189C9.99969 8.94844 9.99969 8.95499 9.99969 8.96153C9.998 8.96433 9.99614 8.96441 9.99409 8.96197Z" fill="#999797"/>
<path d="M9.99414 8.96186C9.99601 8.96186 9.99788 8.96169 9.99974 8.96143C9.99974 8.96797 9.99974 8.97452 9.99974 8.98106L9.99699 8.98141H9.99414C9.99414 8.97487 9.99414 8.96832 9.99414 8.96186Z" fill="#CECECE"/>
<path d="M5.90247 10.9628C5.90513 10.9564 5.91038 10.9559 5.91634 10.957C5.91812 10.9585 5.91865 10.9598 5.91785 10.961C5.91714 10.9622 5.91643 10.9628 5.91581 10.9628C5.91136 10.9628 5.90691 10.9628 5.90247 10.9628Z" fill="#838282"/>
</svg>
