<svg width="11" height="11" viewBox="0 0 11 11" fill="none" xmlns="http://www.w3.org/2000/svg">
<path d="M4.25806 0.149658C6.52412 0.149658 8.36628 1.99203 8.36646 4.25806C8.36646 5.2618 8.00564 6.18354 7.40063 6.89673L10.3411 9.83716L10.3889 9.8938C10.4846 10.0334 10.4666 10.2251 10.344 10.3479L10.343 10.3469C10.273 10.421 10.1753 10.4543 10.092 10.4543C10.0019 10.4543 9.90954 10.4173 9.84009 10.3479L6.89673 7.40454C6.18366 8.0058 5.26185 8.36646 4.25806 8.36646C1.99203 8.36628 0.149658 6.52412 0.149658 4.25806C0.149835 1.99214 1.99214 0.149835 4.25806 0.149658ZM4.25806 0.866455C2.38699 0.866631 0.866631 2.38699 0.866455 4.25806C0.866455 6.12927 2.38688 7.64948 4.25806 7.64966C6.12938 7.64966 7.64966 6.12938 7.64966 4.25806C7.64948 2.38688 6.12927 0.866455 4.25806 0.866455Z" fill="white" stroke="white" stroke-width="0.3"/>
</svg>
