<svg width="22" height="22" viewBox="0 0 22 22" fill="none" xmlns="http://www.w3.org/2000/svg">
<path opacity="0.4" d="M9.98682 18.2368C14.5432 18.2368 18.2368 14.5432 18.2368 9.98682C18.2368 5.43047 14.5432 1.73682 9.98682 1.73682C5.43047 1.73682 1.73682 5.43047 1.73682 9.98682C1.73682 14.5432 5.43047 18.2368 9.98682 18.2368Z" fill="#C73E51"/>
<path d="M20.7504 22C20.4303 22 20.1101 21.8754 19.8789 21.644L16.5706 18.3332C16.0904 17.8526 16.0904 17.0694 16.5706 16.571C17.0509 16.0904 17.8335 16.0904 18.3315 16.571L21.6397 19.8818C22.12 20.3624 22.12 21.1456 21.6397 21.644C21.3907 21.8754 21.0706 22 20.7504 22Z" fill="#C73E51"/>
</svg>
