<svg width="16" height="16" viewBox="0 0 16 16" fill="none" xmlns="http://www.w3.org/2000/svg">
<path d="M15.9 15.4333L11.0333 10.5667C12.0533 9.44667 12.6667 7.96 12.6667 6.33333C12.6667 2.84 9.82667 0 6.33333 0C2.84 0 0 2.84 0 6.33333C0 9.82667 2.84 12.6667 6.33333 12.6667C7.96 12.6667 9.44667 12.0533 10.5667 11.04L15.4333 15.9067C15.5 15.9733 15.5867 16.0067 15.6667 16.0067C15.7467 16.0067 15.84 15.9733 15.9 15.9067C16.0333 15.7733 16.0333 15.56 15.9 15.4333ZM0.666667 6.33333C0.666667 3.20667 3.20667 0.666667 6.33333 0.666667C9.46 0.666667 12 3.20667 12 6.33333C12 9.46 9.46 12 6.33333 12C3.20667 12 0.666667 9.46 0.666667 6.33333Z" fill="#F72E50"/>
</svg>
