<svg width="8" height="5" viewBox="0 0 8 5" fill="none" xmlns="http://www.w3.org/2000/svg">
<path d="M7.12 0.424937L3.78 3.76494L1.84 1.82494C1.74632 1.73181 1.61959 1.67954 1.4875 1.67954C1.3554 1.67954 1.22868 1.73181 1.135 1.82494C1.04187 1.91862 0.989601 2.04534 0.989601 2.17744C0.989601 2.30953 1.04187 2.43626 1.135 2.52994L3.43 4.82494C3.52368 4.91806 3.6504 4.97033 3.7825 4.97033C3.91459 4.97033 4.04132 4.91806 4.135 4.82494L7.825 1.13494C7.87186 1.08846 7.90906 1.03316 7.93444 0.972225C7.95983 0.911296 7.9729 0.845943 7.9729 0.779938C7.9729 0.713932 7.95983 0.648579 7.93444 0.587649C7.90906 0.526719 7.87186 0.471419 7.825 0.424937C7.73132 0.331812 7.60459 0.279541 7.4725 0.279541C7.3404 0.279541 7.21368 0.331812 7.12 0.424937Z" fill="white"/>
</svg>
