<svg width="14" height="14" viewBox="0 0 14 14" fill="none" xmlns="http://www.w3.org/2000/svg">
<g clip-path="url(#clip0_268_71)">
<path d="M9.70117 0.263428C9.77163 0.235129 9.8525 0.252095 9.90527 0.306396V0.307373L13.6973 4.2439C13.768 4.31765 13.7672 4.43186 13.6973 4.50464L9.90527 8.44214C9.85191 8.49735 9.77019 8.51393 9.70215 8.48608H9.7002C9.62942 8.45754 9.58301 8.3885 9.58301 8.31226V6.16675H8.64062C6.83181 6.16675 5.19259 7.10924 4.28418 8.64917L4.11328 8.9646C4.07885 9.03316 4.0061 9.07593 3.93652 9.07593L3.90234 9.07202L3.89746 9.07007L3.83594 9.04565C3.78127 9.0121 3.75 8.95489 3.75 8.89526V8.02026C3.75026 5.02256 6.18973 2.58276 9.1875 2.58276H9.58301V0.437256C9.58306 0.380209 9.60918 0.326953 9.65234 0.291748L9.70117 0.263428Z" fill="#C73E51" stroke="white" stroke-width="0.5"/>
<path d="M1.75 2.38306H3.5C3.79486 2.38306 4.03303 2.62144 4.0332 2.91626C4.0332 3.21123 3.79497 3.44946 3.5 3.44946H1.75C1.40039 3.44946 1.11621 3.73364 1.11621 4.08325V12.2502C1.11639 12.5997 1.40049 12.8831 1.75 12.8831H12.25C12.5995 12.8831 12.8836 12.5997 12.8838 12.2502V7.58325C12.8838 7.28828 13.122 7.05005 13.417 7.05005C13.7118 7.05022 13.9502 7.28839 13.9502 7.58325V12.2502C13.95 13.1873 13.1871 13.9495 12.25 13.9495H1.75C0.812889 13.9495 0.0499811 13.1873 0.0498047 12.2502V4.08325C0.0498048 3.14603 0.812781 2.38306 1.75 2.38306Z" fill="#C73E51" stroke="white" stroke-width="0.1"/>
</g>
<defs>
<clipPath id="clip0_268_71">
<rect width="14" height="14" fill="white"/>
</clipPath>
</defs>
</svg>
