<svg width="21" height="21" viewBox="0 0 21 21" fill="none" xmlns="http://www.w3.org/2000/svg">
<path d="M14.2188 19.6875C15.0645 19.6875 15.7501 19.0019 15.7501 18.1562C15.7501 17.3105 15.0645 16.625 14.2188 16.625C13.3731 16.625 12.6876 17.3105 12.6876 18.1562C12.6876 19.0019 13.3731 19.6875 14.2188 19.6875Z" fill="#4B2D5C"/>
<path d="M7.21867 19.6875C8.06436 19.6875 8.74992 19.0019 8.74992 18.1562C8.74992 17.3105 8.06436 16.625 7.21867 16.625C6.37299 16.625 5.68742 17.3105 5.68742 18.1562C5.68742 19.0019 6.37299 19.6875 7.21867 19.6875Z" fill="#4B2D5C"/>
<path opacity="0.4" d="M4.23492 3.44753L4.05992 5.59128C4.02492 6.00253 4.34868 6.34378 4.75993 6.34378H18.1562C18.5237 6.34378 18.8299 6.06378 18.8562 5.69628C18.9699 4.14753 17.7887 2.88753 16.2399 2.88753H5.50367C5.41617 2.50253 5.24117 2.13503 4.96992 1.82878C4.54117 1.36503 3.92868 1.09378 3.29868 1.09378H1.74992C1.39117 1.09378 1.09367 1.39128 1.09367 1.75003C1.09367 2.10878 1.39117 2.40628 1.74992 2.40628H3.27243C3.54368 2.40628 3.79743 2.52004 3.98118 2.71254C4.16493 2.91379 4.25242 3.17628 4.23492 3.44753Z" fill="#4B2D5C"/>
<path d="M17.9464 7.65628H4.52388C4.15638 7.65628 3.85887 7.93628 3.82387 8.29503L3.50887 12.1013C3.38637 13.5888 4.55888 14.875 6.05513 14.875H15.7851C17.0976 14.875 18.2526 13.7988 18.3489 12.4863L18.6376 8.40004C18.6726 7.99754 18.3576 7.65628 17.9464 7.65628Z" fill="#4B2D5C"/>
</svg>
