<svg width="19" height="17" viewBox="0 0 19 17" fill="none" xmlns="http://www.w3.org/2000/svg">
<path d="M13.7812 16.1875H5.03125C4.6725 16.1875 4.375 15.89 4.375 15.5312C4.375 15.1725 4.6725 14.875 5.03125 14.875H13.7812C16.2838 14.875 17.5 13.6587 17.5 11.1562V5.03125C17.5 2.52875 16.2838 1.3125 13.7812 1.3125H5.03125C2.52875 1.3125 1.3125 2.52875 1.3125 5.03125C1.3125 5.39 1.015 5.6875 0.65625 5.6875C0.2975 5.6875 0 5.39 0 5.03125C0 1.8375 1.8375 0 5.03125 0H13.7812C16.975 0 18.8125 1.8375 18.8125 5.03125V11.1562C18.8125 14.35 16.975 16.1875 13.7812 16.1875Z" fill="#F08080"/>
<path d="M9.40667 8.85497C8.67167 8.85497 7.92792 8.62748 7.35917 8.16373L4.62041 5.97623C4.34041 5.74873 4.28792 5.33747 4.51542 5.05747C4.74292 4.77747 5.15416 4.72498 5.43416 4.95248L8.17291 7.13998C8.83791 7.67373 9.96666 7.67373 10.6317 7.13998L13.3704 4.95248C13.6504 4.72498 14.0704 4.76872 14.2892 5.05747C14.5167 5.33747 14.4729 5.75748 14.1842 5.97623L11.4454 8.16373C10.8854 8.62748 10.1417 8.85497 9.40667 8.85497Z" fill="#F08080"/>
<path d="M5.90625 12.6875H0.65625C0.2975 12.6875 0 12.39 0 12.0312C0 11.6725 0.2975 11.375 0.65625 11.375H5.90625C6.265 11.375 6.5625 11.6725 6.5625 12.0312C6.5625 12.39 6.265 12.6875 5.90625 12.6875Z" fill="#F08080"/>
<path d="M3.28125 9.1875H0.65625C0.2975 9.1875 0 8.89 0 8.53125C0 8.1725 0.2975 7.875 0.65625 7.875H3.28125C3.64 7.875 3.9375 8.1725 3.9375 8.53125C3.9375 8.89 3.64 9.1875 3.28125 9.1875Z" fill="#F08080"/>
</svg>
