<svg width="18" height="15" viewBox="0 0 18 15" fill="none" xmlns="http://www.w3.org/2000/svg">
<path opacity="0.4" d="M13.125 14.875H4.375C1.75 14.875 0 13.5625 0 10.5V4.375C0 1.3125 1.75 0 4.375 0H13.125C15.75 0 17.5 1.3125 17.5 4.375V10.5C17.5 13.5625 15.75 14.875 13.125 14.875Z" fill="#C73E51"/>
<path d="M8.75017 8.19872C8.01517 8.19872 7.27143 7.97123 6.70267 7.50748L3.96392 5.31998C3.68392 5.09248 3.63143 4.68122 3.85893 4.40122C4.08643 4.12122 4.49768 4.06873 4.77768 4.29623L7.51642 6.48373C8.18142 7.01748 9.31017 7.01748 9.97517 6.48373L12.7139 4.29623C12.9939 4.06873 13.4139 4.11247 13.6327 4.40122C13.8602 4.68122 13.8164 5.10123 13.5277 5.31998L10.7889 7.50748C10.2289 7.97123 9.48517 8.19872 8.75017 8.19872Z" fill="#C73E51"/>
</svg>
