<svg width="19" height="17" viewBox="0 0 19 17" fill="none" xmlns="http://www.w3.org/2000/svg">
<path d="M13.7812 16.1875H5.03125C1.8375 16.1875 0 14.35 0 11.1562V5.03125C0 1.8375 1.8375 0 5.03125 0H13.7812C16.975 0 18.8125 1.8375 18.8125 5.03125V11.1562C18.8125 14.35 16.975 16.1875 13.7812 16.1875ZM5.03125 1.3125C2.52875 1.3125 1.3125 2.52875 1.3125 5.03125V11.1562C1.3125 13.6587 2.52875 14.875 5.03125 14.875H13.7812C16.2838 14.875 17.5 13.6587 17.5 11.1562V5.03125C17.5 2.52875 16.2838 1.3125 13.7812 1.3125H5.03125Z" fill="#F72E50"/>
<path d="M9.40618 8.85497C8.67118 8.85497 7.92743 8.62748 7.35868 8.16373L4.61993 5.97623C4.33993 5.74873 4.28743 5.33747 4.51493 5.05747C4.74243 4.77747 5.15368 4.72498 5.43368 4.95248L8.17242 7.13998C8.83742 7.67373 9.96617 7.67373 10.6312 7.13998L13.3699 4.95248C13.6499 4.72498 14.0699 4.76872 14.2887 5.05747C14.5162 5.33747 14.4724 5.75748 14.1837 5.97623L11.4449 8.16373C10.8849 8.62748 10.1412 8.85497 9.40618 8.85497Z" fill="#F72E50"/>
</svg>
