<svg width="40" height="36" viewBox="0 0 40 36" fill="none" xmlns="http://www.w3.org/2000/svg">
<path d="M80.4665 -61.2649C78.6128 -63.0626 80.1918 -64.6907 78.3351 -66.4913C76.4785 -68.2919 74.8995 -66.6638 73.0429 -68.4644C71.1862 -70.265 70.6279 -73.2234 67.9114 -72.7985C65.4263 -72.4073 66.0204 -69.7933 64.3625 -68.0838C62.7046 -66.3743 60.8962 -68.1281 59.2356 -66.4159C57.5777 -64.7064 59.3862 -62.9525 57.7256 -61.2403C56.0677 -59.5308 54.2593 -61.2846 52.5988 -59.5724C50.9409 -57.8629 52.7493 -56.1091 51.0888 -54.3968C49.4309 -52.6873 47.6224 -54.4412 45.9619 -52.7289C44.304 -51.0194 46.1125 -49.2656 44.4519 -47.5534C42.794 -45.8438 40.9856 -47.5977 39.3251 -45.8855C37.6645 -44.1732 39.473 -42.4194 37.8151 -40.7099C36.1572 -39.0004 34.3487 -40.7542 32.6882 -39.042C31.0277 -37.3298 32.8387 -35.5786 31.1782 -33.8664C29.5177 -32.1542 27.7092 -33.908 26.0514 -32.1985C24.3935 -30.489 26.2019 -28.7352 24.5414 -27.0229C22.8835 -25.3134 21.075 -27.0673 19.4145 -25.355C17.7566 -23.6455 19.565 -21.8917 17.9045 -20.1795C16.2466 -18.47 14.4382 -20.2238 12.7776 -18.5116C11.1197 -16.8021 12.9282 -15.0482 11.2677 -13.336C9.60975 -11.6265 7.8013 -13.3803 6.14077 -11.6681C4.48287 -9.95858 6.29132 -8.20474 4.63079 -6.49252C2.97026 -4.78029 0.341945 -5.29672 0.027004 -2.80083C-0.314406 -0.0725932 2.65974 0.394814 4.5164 2.19542C6.37307 3.99603 4.79411 5.62413 6.65077 7.42474C8.50442 9.22242 10.0834 7.59432 11.94 9.39492C13.7967 11.1955 12.2178 12.8236 14.0714 14.6213C15.925 16.419 17.504 14.7909 19.3607 16.5915C21.2143 18.3892 19.6354 20.0173 21.492 21.8179C23.3487 23.6185 24.9276 21.9904 26.7813 23.7881C28.6349 25.5858 27.056 27.2139 28.9126 29.0145C30.7693 30.8151 32.3483 29.187 34.2049 30.9876C36.0616 32.7882 36.6199 35.7466 39.3364 35.3217C41.8215 34.9305 41.2274 32.3165 42.8853 30.607C44.5432 28.8975 46.3516 30.6513 48.0121 28.9391C49.67 27.2296 47.8616 25.4757 49.5221 23.7635C51.18 22.054 52.9885 23.8078 54.649 22.0956C56.3069 20.3861 54.4984 18.6323 56.159 16.92C57.8169 15.2105 59.6253 16.9644 61.2858 15.2521C62.9437 13.5426 61.1353 11.7888 62.7958 10.0766C64.4537 8.36705 66.2622 10.1209 67.9227 8.40867C69.5832 6.69644 67.7748 4.94261 69.4327 3.2331C71.0906 1.52359 72.899 3.27743 74.5596 1.5652C76.2201 -0.147021 74.409 -1.89816 76.0696 -3.61039C77.7301 -5.32261 79.5385 -3.56877 81.1964 -5.27828C82.8543 -6.98779 81.0459 -8.74163 82.7064 -10.4539C84.3643 -12.1634 86.1727 -10.4095 87.8333 -12.1217C89.4912 -13.8313 87.6827 -15.5851 89.3433 -17.2973C91.0012 -19.0068 92.8096 -17.253 94.4701 -18.9652C96.128 -20.6747 94.3196 -22.4286 95.9801 -24.1408C97.638 -25.8503 99.4464 -24.0965 101.107 -25.8087C102.765 -27.5182 100.956 -29.2721 102.617 -30.9843C104.278 -32.6965 106.906 -32.1801 107.221 -34.676C107.562 -37.4042 104.588 -37.8716 102.731 -39.6722C100.875 -41.4728 102.454 -43.1009 100.597 -44.9015C98.7433 -46.6992 97.1644 -45.0711 95.3077 -46.8717C93.4511 -48.6723 95.03 -50.3004 93.1764 -52.0981C91.3227 -53.8958 89.7438 -52.2677 87.8871 -54.0683C86.0335 -55.866 87.6124 -57.4941 85.7558 -59.2947C83.9021 -61.0924 82.3232 -59.4643 80.4665 -61.2649Z" fill="#4B2D5C"/>
</svg>
