<svg width="11" height="11" viewBox="0 0 11 11" fill="none" xmlns="http://www.w3.org/2000/svg">
<path d="M0.00646323 10.1203C0.0490322 9.76707 0.13417 9.42429 0.267857 9.09351C0.28874 9.04175 0.312032 8.99096 0.333361 8.93937C0.340144 8.92282 0.349425 8.91441 0.368612 8.91047C0.574407 8.86843 0.779845 8.82491 0.985462 8.782C1.30531 8.71526 1.62525 8.6487 1.94509 8.58197C2.26601 8.51506 2.58693 8.44806 2.90794 8.38107C3.10918 8.33912 3.31052 8.29726 3.51176 8.25531C3.53951 8.24953 3.53978 8.24926 3.53978 8.22168C3.53987 7.74377 3.53987 7.26577 3.53978 6.78786C3.53978 6.77936 3.54103 6.77061 3.53594 6.76001C2.5449 6.96678 1.55439 7.17338 0.561645 7.3805C0.557986 7.34222 0.565751 7.30798 0.570213 7.27391C0.620814 6.88796 0.725139 6.51654 0.884438 6.16019C0.885777 6.15721 0.887919 6.15441 0.888633 6.15126C0.893362 6.13015 0.90782 6.12245 0.928435 6.11824C1.06783 6.09004 1.20714 6.06088 1.34636 6.03189C1.66621 5.96516 1.98606 5.89834 2.3059 5.8316C2.61486 5.76715 2.92391 5.70269 3.23287 5.63832C3.32756 5.61861 3.42207 5.59838 3.51694 5.57955C3.53478 5.57596 3.54219 5.56896 3.54005 5.55144C3.53916 5.54391 3.53987 5.53612 3.53987 5.5285C3.53987 4.02243 3.53996 2.51645 3.53934 1.01038C3.53934 0.98218 3.54746 0.961074 3.56575 0.939793C3.8814 0.571267 4.25069 0.265535 4.67513 0.0240838C4.68834 0.0165521 4.70191 0.00945836 4.7194 0C4.7194 1.77712 4.7194 3.5503 4.7194 5.32453C4.75402 5.32488 4.78374 5.31481 4.81382 5.30859C5.16642 5.23538 5.51875 5.16146 5.87126 5.08772C5.89928 5.08185 5.89946 5.08185 5.89955 5.05462C5.89973 5.0054 5.89955 4.95618 5.89955 4.90696C5.89955 3.80016 5.89964 2.69327 5.8991 1.58646C5.8991 1.5608 5.9058 1.54127 5.92275 1.52148C6.24028 1.15007 6.61234 0.842582 7.03999 0.599905C7.04963 0.594475 7.05936 0.589221 7.06917 0.584054C7.07096 0.58309 7.07328 0.583178 7.07926 0.582039C7.07926 1.99913 7.07926 3.41543 7.07926 4.83515C7.12486 4.82604 7.16627 4.81807 7.20741 4.80949C7.61427 4.72462 8.02122 4.63967 8.42808 4.55472C8.84252 4.46811 9.25697 4.38132 9.67142 4.29471C9.79002 4.26992 9.90862 4.24549 10.0272 4.22079C10.0272 4.22736 10.0272 4.23393 10.0272 4.2405C10.0211 4.24759 10.0248 4.25617 10.0237 4.26405C10.0237 4.27097 10.0237 4.27789 10.0237 4.2849C10.0218 4.41915 9.99358 4.54973 9.96494 4.67996C9.9088 4.93507 9.82652 5.18204 9.72264 5.42235C9.70328 5.46728 9.67561 5.48979 9.62626 5.50003C9.11186 5.60644 8.59764 5.71372 8.08351 5.82118C7.77527 5.88564 7.46702 5.95053 7.1585 6.01368C7.07667 6.0304 7.08916 6.02865 7.08907 6.09775C7.08863 6.44 7.0889 6.78234 7.0889 7.12459C7.0889 7.13221 7.08881 7.13992 7.0889 7.14754C7.08925 7.1894 7.09166 7.19168 7.13262 7.1831C7.23829 7.16103 7.34395 7.13904 7.44962 7.11671C7.74581 7.05427 8.04219 6.99288 8.33848 6.93096C8.87876 6.81807 9.41904 6.70492 9.95958 6.59309C9.98145 6.58853 10.0038 6.57443 10.0271 6.58985C10.0271 6.59423 10.0271 6.5986 10.0271 6.60298C10.0209 6.61008 10.0246 6.61857 10.0236 6.62645C10.0236 6.63337 10.0236 6.64029 10.0236 6.64721C10.0231 6.76938 9.99858 6.8884 9.97359 7.00715C9.91612 7.28004 9.83036 7.54418 9.71764 7.79999C9.70131 7.83712 9.67811 7.85665 9.63795 7.86489C9.12998 7.96928 8.62245 8.07612 8.11484 8.18192C7.44266 8.32213 6.77057 8.4626 6.09847 8.60299C6.04725 8.61367 5.99593 8.62357 5.9448 8.63487C5.89759 8.64529 5.88679 8.63653 5.8867 8.5881C5.88634 8.44044 5.88652 8.29288 5.88652 8.14522C5.88652 7.54593 5.88652 6.94672 5.88652 6.34743C5.88652 6.33762 5.8867 6.32773 5.88652 6.31792C5.88581 6.2821 5.88295 6.27947 5.8477 6.287C5.49171 6.3625 5.13509 6.4351 4.77919 6.51094C4.72922 6.52162 4.72922 6.52189 4.72922 6.57382C4.72922 6.98167 4.72734 7.3896 4.7302 7.79745C4.73127 7.94344 4.68923 8.07201 4.6049 8.19067C4.48692 8.35655 4.37421 8.52592 4.25828 8.69319C4.17564 8.81256 4.09586 8.93386 4.0109 9.05165C3.84383 9.28364 3.61823 9.42779 3.33506 9.48664C2.68019 9.62274 2.02559 9.75971 1.37081 9.89616C0.930666 9.98785 0.490608 10.0797 0.0505494 10.1719C0.0428745 10.1735 0.0352888 10.1751 0.0274354 10.1752C0.00753415 10.175 -0.00594158 10.1697 0.00262577 10.146C0.00557079 10.1377 0.00164409 10.1283 0.00646323 10.1203Z" fill="#C73E51"/>
</svg>
