<svg width="16" height="15" viewBox="0 0 16 15" fill="none" xmlns="http://www.w3.org/2000/svg">
<path d="M14.6394 5.93498C14.6245 5.70806 14.659 5.48059 14.7406 5.26831C14.8909 4.91593 14.9071 4.52071 14.7861 4.1572C14.5673 3.8309 14.2384 3.59425 13.8594 3.49054C13.6444 3.42091 13.4461 3.3074 13.2772 3.1572C13.1665 2.9623 13.0987 2.74599 13.0783 2.52276C13.0568 2.13446 12.8949 1.76722 12.6228 1.48942C12.2861 1.28904 11.8888 1.21574 11.5028 1.28276C11.2758 1.31152 11.0453 1.29451 10.825 1.23276C10.6459 1.10314 10.4947 0.938758 10.3806 0.749426C10.187 0.405143 9.87632 0.141763 9.505 0.00720001C9.11956 -0.0292034 8.7338 0.0732485 8.41722 0.296091C8.22251 0.423871 8.00282 0.508715 7.77277 0.544979C7.54272 0.508715 7.32304 0.423871 7.12833 0.296091C6.81133 0.0741422 6.4259 -0.028221 6.04055 0.00720001C5.66963 0.142454 5.35915 0.405651 5.16499 0.749426C5.05082 0.938758 4.89967 1.10314 4.72055 1.23276C4.50005 1.29359 4.26963 1.30983 4.04277 1.28053C3.65649 1.21644 3.25998 1.29039 2.92277 1.48942C2.65106 1.76751 2.48923 2.13458 2.46722 2.52276C2.48437 2.75212 2.41349 2.97941 2.269 3.15837C2.12451 3.33733 1.91727 3.45452 1.68944 3.48609C1.31137 3.59037 0.983315 3.82695 0.764995 4.15276C0.645139 4.51626 0.660528 4.91081 0.80833 5.26387C0.888877 5.47642 0.923341 5.70366 0.909441 5.93054C0.824931 6.13288 0.697999 6.31475 0.537215 6.46387C0.371763 6.57584 0.236282 6.72665 0.142627 6.90312C0.0489724 7.07958 0 7.27631 0 7.47609C0 7.67587 0.0489724 7.8726 0.142627 8.04907C0.236282 8.22553 0.371763 8.37634 0.537215 8.48831C0.697999 8.63743 0.824931 8.8193 0.909441 9.02165C0.924419 9.24857 0.88992 9.47604 0.80833 9.68831C0.659629 10.0412 0.644228 10.4361 0.764995 10.7994C0.982586 11.1259 1.31093 11.3627 1.68944 11.4661C1.90449 11.5357 2.10274 11.6492 2.27166 11.7994C2.3824 11.9943 2.45021 12.2106 2.47055 12.4339C2.49206 12.8222 2.65396 13.1894 2.92611 13.4672C3.26294 13.6672 3.66007 13.7405 4.04611 13.6739C4.2731 13.6451 4.50356 13.6621 4.72388 13.7239C4.903 13.8535 5.05416 14.0179 5.16833 14.2072C5.36249 14.551 5.67296 14.8142 6.04388 14.9494C6.42932 14.9858 6.81508 14.8834 7.13166 14.6605C7.32652 14.5331 7.54615 14.4482 7.77611 14.4116C8.00607 14.4482 8.22569 14.5331 8.42055 14.6605C8.691 14.8338 8.99868 14.9404 9.31833 14.9716C9.38223 14.9713 9.44591 14.9642 9.50833 14.9505C9.87925 14.8153 10.1897 14.5521 10.3839 14.2083C10.4981 14.019 10.6492 13.8546 10.8283 13.725C11.0488 13.6641 11.2793 13.6478 11.5061 13.6772C11.8924 13.7413 12.2889 13.6673 12.6261 13.4683C12.8978 13.1902 13.0597 12.8232 13.0817 12.435C13.0645 12.2056 13.1354 11.9783 13.2799 11.7994C13.4244 11.6204 13.6316 11.5032 13.8594 11.4716C14.2375 11.3674 14.5656 11.1308 14.7839 10.805C14.9056 10.4417 14.8902 10.0465 14.7406 9.69387C14.66 9.48132 14.6255 9.25408 14.6394 9.0272C14.7239 8.82485 14.8509 8.64298 15.0117 8.49387C15.1771 8.3819 15.3126 8.23108 15.4063 8.05462C15.4999 7.87815 15.5489 7.68142 15.5489 7.48165C15.5489 7.28187 15.4999 7.08514 15.4063 6.90867C15.3126 6.73221 15.1771 6.58139 15.0117 6.46942C14.8509 6.32031 14.7239 6.13733 14.6394 5.93498ZM7.51833 9.35276C7.39625 9.47362 7.23123 9.54116 7.05944 9.54054C6.88738 9.54032 6.7224 9.47201 6.60055 9.35053L5.13833 7.91276C5.07836 7.85336 5.03076 7.78266 4.99828 7.70475C4.96579 7.62685 4.94907 7.54328 4.94907 7.45887C4.94907 7.37446 4.96579 7.29089 4.99828 7.21299C5.03076 7.13508 5.07836 7.06438 5.13833 7.00498C5.26332 6.88788 5.42817 6.82273 5.59944 6.82273C5.77071 6.82273 5.93556 6.88788 6.06055 7.00498L6.99055 7.92165C7.00924 7.93997 7.03438 7.95023 7.06055 7.95023C7.08673 7.95023 7.11186 7.93997 7.13055 7.92165L9.47722 5.61054C9.6012 5.49234 9.76592 5.42641 9.93722 5.42641C10.1085 5.42641 10.2732 5.49234 10.3972 5.61054C10.457 5.6681 10.5045 5.73713 10.537 5.8135C10.5694 5.88987 10.5861 5.972 10.5861 6.05498V6.06276C10.5843 6.23004 10.5164 6.38982 10.3972 6.5072L7.52166 9.34054L7.51833 9.35276Z" fill="#4B2D5C"/>
</svg>
