<svg width="32" height="32" viewBox="0 0 32 32" fill="none" xmlns="http://www.w3.org/2000/svg">
<rect width="32" height="32" rx="6" fill="#1461BA"/>
<path d="M27.8733 12.115H26.1969C25.69 12.115 25.3002 12.2685 25.0663 12.7674L21.8694 19.9439H24.1306C24.1306 19.9439 24.5205 18.9845 24.5984 18.7542C24.8323 18.7542 27.0546 18.7542 27.3665 18.7542C27.4444 19.0229 27.6394 19.9056 27.6394 19.9056H29.6667L27.8733 12.115ZM25.2222 17.1424C25.4171 16.6819 26.0799 14.9549 26.0799 14.9549C26.0799 14.9933 26.2748 14.4944 26.3528 14.2257L26.5088 14.9165C26.5088 14.9165 26.9376 16.797 27.0156 17.1808H25.2222V17.1424Z" fill="white"/>
<path d="M22.0252 17.3728C22.0252 18.9846 20.5438 20.0592 18.2436 20.0592C17.2689 20.0592 16.3332 19.8673 15.8264 19.6371L16.1383 17.8717L16.4112 17.9868C17.113 18.2939 17.5808 18.409 18.4385 18.409C19.0623 18.409 19.7251 18.1787 19.7251 17.6414C19.7251 17.2961 19.4521 17.0658 18.5944 16.682C17.7757 16.2982 16.6841 15.6842 16.6841 14.5713C16.6841 13.0362 18.2046 12 20.3488 12C21.1675 12 21.8693 12.1535 22.2982 12.3454L21.9863 14.034L21.8303 13.8805C21.4405 13.727 20.9336 13.5735 20.1929 13.5735C19.3742 13.6118 18.9843 13.9572 18.9843 14.2643C18.9843 14.6096 19.4521 14.8783 20.1929 15.2237C21.4405 15.7993 22.0252 16.4518 22.0252 17.3728Z" fill="white"/>
<path d="M3 12.1918L3.03899 12.0383H6.39181C6.85965 12.0383 7.21053 12.1918 7.32749 12.6907L8.06823 16.1447C7.32749 14.3026 5.61209 12.8059 3 12.1918Z" fill="#F9B50B"/>
<path d="M12.7856 12.115L9.3938 19.9056H7.0936L5.14429 13.3815C6.5478 14.2642 7.71739 15.6457 8.14624 16.6052L8.38015 17.4111L10.4854 12.0767H12.7856V12.115Z" fill="white"/>
<path d="M13.6821 12.0767H15.8264L14.4619 19.9056H12.3176L13.6821 12.0767Z" fill="white"/>
</svg>
