<svg width="39" height="16" viewBox="0 0 39 16" fill="none" xmlns="http://www.w3.org/2000/svg">
<path d="M4.21167 15.0834C3.38268 15.0834 2.65277 14.9246 2.02193 14.6062C1.37895 14.2807 0.88156 13.8429 0.530756 13.2909C0.176919 12.7329 0 12.1152 0 11.4378C0 10.9344 0.0919978 10.4683 0.275993 10.0417C0.467065 9.59687 0.739014 9.23697 1.08982 8.963C1.46893 8.6678 1.90567 8.51919 2.40104 8.51919C2.62345 8.51919 2.81048 8.57984 2.96111 8.70116C3.1532 8.85483 3.24924 9.06106 3.24924 9.31987C3.24924 9.59991 3.32506 9.84658 3.4767 10.0599C3.63846 10.2874 3.8639 10.4653 4.15 10.5927C4.46037 10.7302 4.80915 10.7989 5.19736 10.7989C5.66443 10.7989 6.04758 10.6948 6.34784 10.4865C6.66326 10.2671 6.91701 9.9588 7.10808 9.55947C7.08989 9.59586 7.0818 9.64641 7.08584 9.7101C7.09191 9.80917 7.1283 9.8941 7.19301 9.96587C7.23142 10.0073 7.27894 10.0407 7.33555 10.067C7.42148 10.1064 7.51247 10.1206 7.6075 10.1104C7.72679 10.0963 7.8198 10.0518 7.8845 9.97801L7.42856 9.57868L7.91382 9.94262C7.63581 10.3136 7.30724 10.6028 6.93015 10.812C6.53689 11.0294 6.09914 11.1386 5.61792 11.1386C4.78489 11.1386 4.09541 10.7888 3.54747 10.0892C3.03592 9.43512 2.78015 8.52626 2.78015 7.36365C2.78015 6.43155 2.95505 5.54392 3.30383 4.69875C3.64857 3.86168 4.12372 3.11559 4.72727 2.45846C5.33384 1.79931 6.02939 1.27765 6.8149 0.893488C7.61559 0.502245 8.4557 0.307129 9.33625 0.307129C10.3644 0.307129 11.156 0.580089 11.71 1.12803C12.267 1.678 12.545 2.37152 12.545 3.20859C12.545 3.82629 12.3964 4.36008 12.0972 4.81198C11.806 5.25276 11.434 5.58638 10.9821 5.81182C10.5403 6.03222 10.0732 6.14342 9.57888 6.14342C9.30289 6.14342 9.0461 6.06962 8.80853 5.92404C8.61341 5.80374 8.48299 5.64502 8.41728 5.4499C8.34854 5.24063 8.36269 5.02934 8.46278 4.814C8.54669 4.62799 8.56286 4.45916 8.5113 4.30852C8.51029 4.30448 8.50928 4.30145 8.50827 4.29942C8.50827 4.30043 8.50928 4.30145 8.51029 4.30246L8.5113 4.30448C8.46581 4.28022 8.38594 4.26707 8.26968 4.26707C8.01492 4.26707 7.7915 4.33279 7.59739 4.4632C7.38206 4.60777 7.2112 4.79378 7.08685 5.02125C6.96453 5.24265 6.90286 5.47416 6.90286 5.71477C6.90286 6.02109 6.99081 6.2708 7.1647 6.46187C7.32544 6.63677 7.56908 6.72472 7.89765 6.72472C8.10793 6.72472 8.31821 6.68833 8.52849 6.61352C8.70237 6.55286 8.86211 6.43761 9.00768 6.2708L9.01476 6.26271L9.02184 6.25564C9.29278 5.96347 9.60314 5.82901 9.95192 5.85327C10.2593 5.8745 10.5201 5.99279 10.7354 6.20711C10.8618 6.33449 10.9497 6.48007 10.9973 6.64385C11.0448 6.80661 11.0498 6.97544 11.0124 7.15135C10.8557 7.81353 10.6879 8.41101 10.51 8.94581L9.94283 10.6291C9.66178 11.4843 9.24627 12.2466 8.69732 12.9138C8.14129 13.5892 7.48416 14.1179 6.72291 14.5011C5.95356 14.8893 5.11548 15.0834 4.21167 15.0834ZM4.21167 13.8712C4.92339 13.8712 5.57951 13.7196 6.178 13.4183C6.78559 13.112 7.31331 12.6864 7.76117 12.1435C8.21408 11.5935 8.55781 10.9597 8.79437 10.2419L9.3595 8.56266C9.52631 8.06223 9.682 7.50721 9.82656 6.89659C9.82151 6.92186 9.82353 6.95017 9.83364 6.98353C9.84375 7.0179 9.8579 7.0452 9.87812 7.06441C9.87711 7.06441 9.87408 7.0634 9.86801 7.0634C9.89531 7.06441 9.91957 7.06036 9.9408 7.05026V7.05127C9.93171 7.05834 9.9216 7.06845 9.90946 7.08058L9.46565 6.66811L9.92362 7.06643C9.63752 7.39499 9.30693 7.62448 8.93186 7.75692C8.59218 7.87722 8.24643 7.93788 7.89765 7.93788C7.21221 7.93788 6.66933 7.7185 6.26898 7.27873C5.88381 6.85615 5.69071 6.33449 5.69071 5.71477C5.69071 5.2659 5.80192 4.83928 6.02433 4.4359C6.24472 4.03758 6.54296 3.71104 6.92004 3.45729C7.31938 3.18939 7.76824 3.05493 8.26968 3.05493C8.59521 3.05493 8.8712 3.11761 9.09867 3.24398C9.37163 3.39562 9.55866 3.62006 9.65976 3.9193C9.81342 4.37221 9.78107 4.83928 9.56371 5.32151C9.59809 5.2467 9.60011 5.16178 9.56776 5.06573C9.54046 4.98283 9.49901 4.92521 9.44341 4.89084C9.48688 4.91712 9.53136 4.93026 9.57888 4.93026C9.88217 4.93026 10.1693 4.86253 10.4392 4.72807C10.698 4.59766 10.9144 4.40355 11.0862 4.14374C11.251 3.89403 11.3329 3.58265 11.3329 3.20859C11.3329 2.70918 11.1752 2.30378 10.8588 1.99139C10.5403 1.67597 10.0328 1.51927 9.33625 1.51927C8.64273 1.51927 7.97953 1.67395 7.34768 1.98331C6.69864 2.29974 6.12341 2.73243 5.61995 3.27936C5.11345 3.83034 4.71513 4.45713 4.42398 5.16178C4.13686 5.85833 3.99331 6.59229 3.99331 7.36365C3.99331 8.24825 4.16315 8.9074 4.50283 9.34211C4.80713 9.73133 5.17917 9.92645 5.61792 9.92645C5.89088 9.92645 6.1325 9.86781 6.34278 9.75155C6.56924 9.62619 6.76941 9.44725 6.9433 9.21473L6.95745 9.19653L6.97261 9.17934C7.11314 9.0186 7.27793 8.92761 7.46799 8.90537C7.5984 8.89021 7.72275 8.91043 7.84305 8.96502C7.93303 9.00647 8.0129 9.06612 8.08467 9.14295C8.21408 9.28347 8.28485 9.44826 8.29597 9.6363C8.30608 9.78895 8.27372 9.93757 8.20195 10.0821C7.91888 10.6746 7.53067 11.1416 7.03833 11.4833C6.53082 11.8351 5.91717 12.0111 5.19736 12.0111C4.63729 12.0111 4.12473 11.9079 3.65767 11.7007C3.16937 11.4833 2.77914 11.1709 2.48899 10.7625C2.18773 10.3399 2.03709 9.85871 2.03709 9.31987C2.03709 9.36839 2.0472 9.41793 2.06843 9.46848C2.09775 9.53925 2.14324 9.59889 2.2039 9.64742C2.24939 9.68483 2.29893 9.7101 2.35049 9.72324C2.37172 9.72931 2.3879 9.73234 2.40104 9.73234C2.18368 9.73234 1.99564 9.79401 1.83591 9.91937C1.64787 10.066 1.49926 10.2661 1.38906 10.5219C1.27179 10.7949 1.21215 11.1002 1.21215 11.4378C1.21215 11.8806 1.32638 12.281 1.55385 12.6399C1.78536 13.0048 2.12403 13.299 2.56886 13.5235C3.02682 13.755 3.57477 13.8712 4.21167 13.8712Z" fill="#F72E50"/>
<path d="M13.8456 4.83357C13.3461 4.83357 12.9094 4.72135 12.5333 4.49793C12.2867 4.35033 12.1017 4.14611 11.9793 3.88427C11.8712 3.65377 11.8166 3.38486 11.8166 3.07955C11.8166 2.29099 12.0663 1.73193 12.5657 1.40135C12.9852 1.12434 13.4766 0.98584 14.0397 0.98584C14.5684 0.98584 15.0243 1.10918 15.4095 1.35686C15.6693 1.52367 15.8533 1.75822 15.9595 2.06252C16.0495 2.31627 16.0798 2.61349 16.0505 2.95317C15.9898 3.64771 15.726 4.1451 15.2569 4.44637C14.8555 4.70416 14.3854 4.83357 13.8456 4.83357ZM13.8456 3.62142C14.1478 3.62142 14.3996 3.55672 14.6008 3.42631C14.7362 3.33936 14.8161 3.14728 14.8424 2.85006C14.8646 2.5862 14.8353 2.4295 14.7554 2.37693C14.5694 2.25864 14.3308 2.199 14.0397 2.199C13.7192 2.199 13.4513 2.26976 13.2349 2.41332C13.0975 2.5033 13.0297 2.72571 13.0297 3.07955C13.0297 3.28073 13.0712 3.4071 13.1541 3.45663C13.3391 3.56582 13.5696 3.62142 13.8456 3.62142ZM12.0511 13.5804C11.6841 13.5804 11.3616 13.5086 11.0826 13.3651C10.7854 13.2124 10.5508 12.986 10.378 12.6857C10.0979 12.1994 9.9574 11.6212 9.9574 10.9529C9.9574 10.5394 9.99885 10.1057 10.0807 9.6498C10.1606 9.20497 10.2627 8.77835 10.3881 8.36688C10.7803 7.14766 11.1635 6.20443 11.5396 5.53821C12.0107 4.70214 12.597 4.2836 13.2966 4.2836C13.6808 4.2836 13.979 4.42514 14.1923 4.7072C14.3652 4.93567 14.4521 5.23997 14.4521 5.61807C14.4521 6.01235 14.3783 6.4137 14.2297 6.82011L13.8658 7.82096C13.7718 8.0828 13.7242 8.32341 13.7242 8.5438C13.7242 8.61356 13.7313 8.66714 13.7445 8.70556C13.7465 8.71466 13.7495 8.72072 13.7515 8.72477C13.7515 8.72375 13.7505 8.72274 13.7495 8.72173C13.7657 8.73791 13.798 8.746 13.8456 8.746C13.9386 8.746 14.0104 8.72274 14.0619 8.67624C14.1933 8.55796 14.3258 8.40025 14.4602 8.2021C14.5664 8.04338 14.7018 7.92711 14.8656 7.85534C15.0446 7.77648 15.2346 7.76132 15.4348 7.80883C15.7027 7.87353 15.9251 8.01507 16.1041 8.23546C16.2143 8.37295 16.284 8.51853 16.3123 8.67321C16.3467 8.86731 16.3153 9.05232 16.2193 9.2262L16.2112 9.24036L16.2031 9.2535C16.1101 9.40211 15.9959 9.62654 15.8614 9.92478C15.7098 10.2614 15.5288 10.6254 15.3165 11.0156C15.0961 11.422 14.8434 11.8082 14.5593 12.1742C14.254 12.5654 13.9072 12.8909 13.517 13.1477C13.0823 13.4359 12.593 13.5804 12.0511 13.5804ZM12.0511 12.3673C12.3503 12.3673 12.6162 12.2904 12.8488 12.1368C13.1278 11.9528 13.3785 11.7162 13.6019 11.4291C13.8456 11.1157 14.0619 10.7851 14.251 10.4373C14.4481 10.0734 14.6169 9.73674 14.7564 9.42738C14.9131 9.0786 15.0527 8.80665 15.175 8.61053L15.6885 8.93201L15.1588 8.63782C15.1163 8.71466 15.1022 8.79857 15.1184 8.88753C15.1275 8.93707 15.1416 8.97447 15.1608 8.99874C15.1558 8.99267 15.1527 8.98863 15.1507 8.98762H15.1517C15.2164 9.00379 15.2832 8.99671 15.3529 8.96537C15.4055 8.94212 15.4419 8.91584 15.4621 8.88551C15.273 9.16251 15.0779 9.39301 14.8747 9.576C14.5927 9.83076 14.2489 9.95915 13.8456 9.95915C13.4634 9.95915 13.145 9.83177 12.8922 9.57903C12.6385 9.32629 12.5121 8.98054 12.5121 8.5438C12.5121 8.18289 12.5839 7.80378 12.7264 7.40748L13.0904 6.4046C13.1894 6.13164 13.24 5.8698 13.24 5.61807C13.24 5.5463 13.2339 5.48968 13.2238 5.44722C13.2208 5.43711 13.2188 5.43004 13.2167 5.42498C13.2178 5.42801 13.2208 5.43206 13.2248 5.43812C13.242 5.46036 13.2643 5.47856 13.2916 5.49069C13.2996 5.49373 13.3067 5.49676 13.3128 5.49777C13.3098 5.49676 13.3037 5.49676 13.2966 5.49676C13.0691 5.49676 12.8356 5.70906 12.596 6.13367C12.2604 6.72912 11.9106 7.59148 11.5476 8.72173C11.4364 9.08669 11.3455 9.46681 11.2737 9.86412C11.2049 10.2483 11.1706 10.6112 11.1706 10.9529C11.1706 11.4058 11.2565 11.7819 11.4294 12.0812C11.4829 12.1752 11.5517 12.2429 11.6376 12.2874C11.7417 12.341 11.8792 12.3673 12.0511 12.3673Z" fill="#F72E50"/>
<path d="M20.2476 0C20.9269 0 21.4466 0.171864 21.8065 0.515591C22.1603 0.853253 22.3564 1.26573 22.3959 1.75402C22.4292 2.17256 22.3736 2.59211 22.227 3.01267C22.0794 3.43424 21.8651 3.79314 21.5841 4.08834C21.2434 4.44521 20.8622 4.62314 20.4417 4.62314C20.199 4.62314 19.9968 4.56551 19.8351 4.45026C19.7198 4.36837 19.6329 4.26323 19.5743 4.13686C19.5217 4.02566 19.4954 3.90434 19.4954 3.77494C19.4954 3.69608 19.4893 3.6334 19.4772 3.58589C19.4742 3.57275 19.4711 3.56365 19.4681 3.55657C19.4681 3.55657 19.4701 3.5596 19.4722 3.56264C19.4863 3.58083 19.5035 3.59499 19.5247 3.60409C19.5298 3.6051 19.5328 3.60712 19.5338 3.60712C19.5268 3.6051 19.5166 3.6051 19.5035 3.6051C19.369 3.6051 19.2356 3.69912 19.1032 3.88817C18.8838 4.20156 18.6917 4.60393 18.5269 5.09829L17.9517 4.90621V4.29963H19.6491C19.8796 4.29963 20.0717 4.38354 20.2273 4.55035C20.3375 4.66964 20.4134 4.82129 20.4528 5.00528C20.5023 5.2378 20.5003 5.49054 20.4467 5.76553C20.3931 6.04152 20.292 6.28819 20.1434 6.50757C20.0393 6.66124 19.9139 6.77952 19.7663 6.86343C19.6076 6.95442 19.4337 6.99991 19.2457 6.99991V5.78777C19.2265 5.78777 19.2073 5.78878 19.1881 5.78979C19.1476 5.79383 19.1072 5.80192 19.0678 5.81506C18.9899 5.83831 18.9192 5.87673 18.8575 5.9293C18.7766 5.99704 18.717 6.08095 18.6806 6.17901C18.629 6.31347 18.627 6.44894 18.6725 6.58542C18.7483 6.81389 18.904 6.94835 19.1396 6.9898C19.1466 6.99081 19.1527 6.99182 19.1577 6.99284C19.1577 6.99284 19.1577 6.99284 19.1557 6.99284C19.1426 6.99081 19.1173 6.98879 19.0819 6.98475C19.0051 6.97666 18.8838 6.96453 18.718 6.94835C18.3894 6.91701 17.9962 6.88466 17.5382 6.85332L17.5796 6.24776L18.1721 6.37716C18.0467 6.95442 17.9446 7.53168 17.8657 8.10894C17.7849 8.69934 17.7181 9.20887 17.6646 9.63752C17.6221 10.0247 17.5857 10.4139 17.5544 10.8082C17.518 11.2439 17.4502 11.6483 17.3481 12.0183C17.2288 12.4561 17.0287 12.815 16.7476 13.095C16.4241 13.4185 15.9803 13.5803 15.4142 13.5803C15.0694 13.5803 14.7742 13.5176 14.5285 13.3943C14.2404 13.2487 14.0301 13.0293 13.8987 12.7371C13.7036 12.3034 13.6692 11.6968 13.7966 10.9194C13.9078 10.2431 14.0948 9.40095 14.3587 8.391C14.479 7.96134 14.5993 7.5428 14.7186 7.13639C14.8399 6.72392 14.9663 6.32459 15.0987 5.9384L15.6719 6.13554V6.74111H15.4465C14.9066 6.74111 14.5134 6.62282 14.2667 6.38727C14.1333 6.25888 14.0382 6.11431 13.9796 5.95356C13.9189 5.78271 13.9038 5.60579 13.9341 5.42079C13.9806 5.14682 14.0948 4.90418 14.2768 4.69491C14.5063 4.43105 14.7611 4.29963 15.0421 4.29963H16.1249V4.90621L15.5618 4.68076C15.9217 3.78404 16.3159 2.99852 16.7456 2.32522C17.1965 1.61956 17.6999 1.06353 18.258 0.657126C18.8605 0.219379 19.5237 0 20.2476 0ZM20.2476 1.21215C19.7866 1.21215 19.361 1.35368 18.9717 1.63776C18.538 1.95419 18.1367 2.40003 17.7677 2.97729C17.3785 3.5869 17.0186 4.30468 16.688 5.13165L16.5353 5.51278H15.0421C15.1058 5.51278 15.1614 5.49863 15.2059 5.47133C15.2099 5.46931 15.214 5.46729 15.216 5.46426V5.46527C15.2099 5.47032 15.2018 5.47942 15.1917 5.49054C15.1594 5.52795 15.1392 5.57142 15.1311 5.61995C15.1341 5.59771 15.1311 5.57243 15.122 5.54412C15.1169 5.53199 15.1119 5.52188 15.1058 5.51278V5.51177C15.0917 5.49863 15.0805 5.48953 15.0714 5.48549C15.0805 5.48953 15.0957 5.49459 15.1169 5.49964C15.1968 5.51885 15.306 5.52896 15.4465 5.52896H16.5212L16.2462 6.33167C16.1198 6.70067 15.9985 7.08281 15.8822 7.4781C15.7639 7.88046 15.6477 8.28586 15.5314 8.69732C15.2777 9.67088 15.0977 10.4766 14.9936 11.1155C14.9056 11.6524 14.9087 12.0274 15.0047 12.2397C15.0431 12.3247 15.1796 12.3671 15.4142 12.3671C15.6447 12.3671 15.8044 12.3247 15.8903 12.2377C16.0197 12.1083 16.1158 11.9284 16.1795 11.6979C16.2603 11.4006 16.3159 11.0711 16.3452 10.7101C16.3776 10.3058 16.417 9.89834 16.4615 9.48688C16.5151 9.05419 16.5828 8.53961 16.6637 7.94516C16.7476 7.33555 16.8548 6.72695 16.9882 6.11936L17.0994 5.6068L17.6221 5.6432C18.0912 5.67656 18.4956 5.70891 18.8353 5.74227C19.0031 5.75845 19.1274 5.77058 19.2063 5.77867C19.2487 5.78271 19.2801 5.78676 19.3003 5.78878C19.3195 5.7908 19.3367 5.79383 19.3508 5.79585C19.5884 5.83832 19.7461 5.97378 19.822 6.20226C19.8674 6.33773 19.8654 6.4732 19.8149 6.60766C19.7775 6.70673 19.7178 6.78963 19.6369 6.85737C19.5753 6.90994 19.5045 6.94835 19.4267 6.97262C19.3872 6.98475 19.3468 6.99284 19.3053 6.99688C19.2851 6.9989 19.2659 6.99991 19.2457 6.99991V5.78777C19.2184 5.78777 19.1921 5.79484 19.1648 5.81102C19.1537 5.81708 19.1446 5.82315 19.1375 5.83023L19.1396 5.82719C19.1952 5.7443 19.2346 5.64724 19.2568 5.53401C19.2781 5.4218 19.2821 5.3298 19.2669 5.26004C19.274 5.29341 19.2983 5.33182 19.3387 5.37529C19.4236 5.46729 19.5268 5.51278 19.6491 5.51278H17.1105L17.3764 4.71513C17.5786 4.10856 17.8233 3.60105 18.1104 3.19161C18.4844 2.65883 18.9485 2.39194 19.5035 2.39194C19.9018 2.39194 20.2122 2.5355 20.4326 2.82261C20.6166 3.0612 20.7086 3.37864 20.7086 3.77494C20.7086 3.7254 20.6964 3.67485 20.6732 3.6243C20.6418 3.55859 20.5974 3.50501 20.5397 3.46356C20.5033 3.43728 20.468 3.42009 20.4336 3.412C20.4285 3.41099 20.4255 3.40998 20.4235 3.40998C20.4275 3.41099 20.4336 3.41099 20.4417 3.41099C20.5165 3.41099 20.6044 3.35741 20.7065 3.25126C20.8673 3.08243 20.9916 2.87013 21.0816 2.61334C21.1726 2.35352 21.207 2.09977 21.1878 1.85107C21.1726 1.67011 21.0998 1.51746 20.9684 1.3921C20.843 1.27179 20.6034 1.21215 20.2476 1.21215Z" fill="#F72E50"/>
<path d="M20.3926 13.58C19.5899 13.58 18.9854 13.3151 18.5779 12.7854C18.2089 12.3042 18.0239 11.6966 18.0239 10.9606C18.0239 10.2954 18.1543 9.58567 18.4131 8.83149C18.5537 8.41902 18.7114 7.97319 18.8853 7.49601L19.4514 5.94317L20.0206 6.15143V6.757C19.6162 6.757 19.2927 6.63568 19.0511 6.39406C18.8438 6.18681 18.7094 5.94317 18.6457 5.66212C18.584 5.39017 18.588 5.14148 18.6568 4.91502C18.7073 4.74821 18.7902 4.61173 18.9055 4.50659C19.0551 4.3691 19.233 4.29934 19.4393 4.29934C19.7486 4.29934 19.9781 4.22554 20.1298 4.07693C20.335 3.87676 20.4755 3.67255 20.5513 3.46732L20.5554 3.45721L20.5594 3.44811C20.799 2.86074 21.0619 2.47051 21.346 2.27843C21.6321 2.08432 21.9394 1.98828 22.268 1.98828C22.5419 1.98828 22.7775 2.05399 22.9736 2.18542C23.1889 2.32999 23.3355 2.53521 23.4154 2.8011C23.5357 3.20548 23.4376 3.73219 23.1202 4.38022L22.5753 4.11434L23.1263 4.36607C23.0373 4.56017 22.9908 4.68856 22.9857 4.75226C22.9888 4.71182 22.9837 4.66835 22.9706 4.62184C22.9473 4.544 22.9059 4.47626 22.8462 4.41864C22.7937 4.36809 22.735 4.33372 22.6703 4.3135C22.64 4.3044 22.6137 4.29934 22.5915 4.29934H23.4326C23.6621 4.29934 23.8552 4.38325 24.0098 4.55006C24.121 4.66936 24.1959 4.821 24.2353 5.005C24.2848 5.23752 24.2828 5.49026 24.2292 5.76524C24.1756 6.04123 24.0745 6.28791 23.9259 6.50729C23.8218 6.66095 23.6964 6.77924 23.5488 6.86315C23.3901 6.95413 23.2162 6.99963 23.0282 6.99963C22.5642 6.99963 22.2295 7.0158 22.0243 7.04916C21.9768 7.05624 21.9434 7.06534 21.9232 7.07747C21.9273 7.07545 21.9323 7.06938 21.9374 7.06029C21.8717 7.16239 21.7938 7.36964 21.7018 7.68001C21.5845 8.06316 21.5835 8.34118 21.6988 8.51607C21.7473 8.59088 21.809 8.64548 21.8818 8.67985C21.9727 8.72433 22.091 8.74556 22.2356 8.74556C22.4509 8.74556 22.639 8.70007 22.7987 8.60807C22.9675 8.51102 23.1071 8.37858 23.2152 8.21278C23.3285 8.04193 23.47 7.92264 23.6388 7.85187C23.8228 7.77605 24.0159 7.76594 24.2181 7.82255C24.4719 7.89332 24.6842 8.0298 24.856 8.23199C24.9733 8.36948 25.0461 8.5191 25.0744 8.68187C25.1067 8.86688 25.0794 9.04582 24.9925 9.21869L24.9895 9.22476L24.9864 9.23183C24.8914 9.41077 24.764 9.65947 24.6053 9.97894C24.4365 10.3156 24.2353 10.6795 24.0007 11.0708C23.7541 11.4812 23.467 11.8684 23.1384 12.2324C22.7926 12.6145 22.3994 12.9299 21.9596 13.1786C21.4845 13.4455 20.9618 13.58 20.3926 13.58ZM20.3926 12.3668C20.7505 12.3668 21.074 12.2849 21.3641 12.1222C21.6897 11.9382 21.9808 11.7047 22.2386 11.4196C22.5136 11.1142 22.7542 10.7897 22.9605 10.447C23.1788 10.0831 23.3659 9.74642 23.5205 9.43605C23.6843 9.10951 23.8157 8.85171 23.9148 8.66367L24.4506 8.94775L23.9087 8.67682C23.8754 8.74152 23.8663 8.8133 23.8794 8.89114C23.8895 8.94472 23.9067 8.98718 23.932 9.01751C23.9209 9.00336 23.9067 8.99426 23.8916 8.99021C23.9583 9.00841 24.029 9.00336 24.1028 8.97202C24.1615 8.94775 24.2039 8.9154 24.2312 8.87496C24.0159 9.20454 23.7399 9.46537 23.4023 9.65947C23.0555 9.85863 22.6673 9.95872 22.2356 9.95872C21.907 9.95872 21.6139 9.89705 21.3571 9.7727C21.0821 9.64127 20.8597 9.44515 20.6878 9.18533C20.3613 8.69198 20.3117 8.0763 20.5382 7.3383C20.6625 6.91572 20.7889 6.60434 20.9173 6.40518C21.1124 6.10189 21.4177 5.9179 21.8332 5.85117C22.1022 5.80871 22.5005 5.78748 23.0282 5.78748C23.0019 5.78748 22.9746 5.79456 22.9473 5.81073C22.9362 5.8168 22.9281 5.82287 22.921 5.82994L22.922 5.82691C22.9787 5.74401 23.0171 5.64696 23.0393 5.53373C23.0616 5.42151 23.0646 5.32952 23.0494 5.25976C23.0565 5.29312 23.0808 5.33154 23.1212 5.37501C23.2061 5.46701 23.3103 5.5125 23.4326 5.5125H22.5915C22.3529 5.5125 22.1578 5.4387 22.0051 5.29211C21.8322 5.12631 21.7564 4.91401 21.7766 4.6552C21.7938 4.44998 21.8757 4.1851 22.0243 3.8616L22.0304 3.84744C22.1345 3.63615 22.2022 3.45923 22.2346 3.31467C22.2548 3.22772 22.2609 3.17212 22.2528 3.14685C22.2518 3.14381 22.2518 3.1428 22.2518 3.14179C22.2528 3.14583 22.2548 3.14988 22.2589 3.15392C22.269 3.16909 22.2821 3.18223 22.2983 3.19234C22.3084 3.19942 22.3165 3.20346 22.3215 3.20447C22.3104 3.20245 22.2922 3.20043 22.268 3.20043C22.1871 3.20043 22.1062 3.22772 22.0263 3.28231C22.0041 3.29647 21.9687 3.34297 21.9202 3.42082C21.8444 3.54011 21.7655 3.70288 21.6816 3.90709L21.1205 3.6776L21.6887 3.88788C21.5492 4.26396 21.3126 4.61578 20.979 4.94333C20.5918 5.32244 20.0782 5.5125 19.4393 5.5125C19.5485 5.5125 19.6435 5.47408 19.7264 5.39826C19.7739 5.35479 19.8032 5.31132 19.8164 5.26886C19.8103 5.29009 19.8143 5.33255 19.8285 5.39523C19.8406 5.4478 19.8669 5.49531 19.9084 5.53676C19.9053 5.53373 19.9023 5.5307 19.8993 5.52868C19.8993 5.52868 19.9013 5.52969 19.9043 5.5307C19.9306 5.5398 19.97 5.54485 20.0206 5.54485H20.887L20.0246 7.91051C19.8538 8.3806 19.6991 8.81936 19.5596 9.22577C19.3442 9.85155 19.2371 10.4298 19.2371 10.9606C19.2371 11.4216 19.3382 11.7835 19.5394 12.0464C19.7041 12.2607 19.9882 12.3668 20.3926 12.3668Z" fill="#F72E50"/>
<path d="M26.3897 13.5805C25.6164 13.5805 24.9693 13.3985 24.4497 13.0336C23.9382 12.6757 23.5611 12.2026 23.3164 11.6142C23.0849 11.0582 22.9727 10.4506 22.9787 9.79142C22.9848 9.15047 23.095 8.51154 23.3093 7.87362C23.5247 7.23368 23.836 6.64732 24.2435 6.11455C24.661 5.56863 25.1675 5.12886 25.764 4.79726C26.3786 4.45556 27.0671 4.28369 27.8294 4.28369C28.446 4.28369 28.9616 4.40703 29.3751 4.65168C29.7977 4.9024 30.1111 5.23905 30.3153 5.66163C30.5064 6.05692 30.6014 6.4795 30.6014 6.92736C30.6014 7.42071 30.469 7.90597 30.2021 8.38618C29.9382 8.86133 29.5702 9.25359 29.0981 9.56092C28.6098 9.88038 28.0406 10.0401 27.3926 10.0401C27.1358 10.0401 26.8851 10.0209 26.6394 9.98451C26.3463 9.94003 26.0753 9.845 25.8246 9.6974C25.8812 9.73177 25.9469 9.75098 26.0187 9.75401C26.0794 9.75705 26.136 9.74795 26.1865 9.72672C26.2967 9.68021 26.3766 9.6054 26.4271 9.49925C26.4514 9.45073 26.4625 9.40725 26.4625 9.36884L26.4595 9.36783C26.4797 9.3931 26.5242 9.42141 26.595 9.45275C26.8457 9.56395 27.1601 9.61956 27.5382 9.61956C27.9962 9.61956 28.4774 9.49925 28.9829 9.25763C29.4681 9.02612 29.8624 8.67835 30.1667 8.2123C30.2809 8.04144 30.4245 7.92013 30.5964 7.85037C30.7783 7.77657 30.9704 7.76747 31.1716 7.82105C31.4334 7.89182 31.6508 8.0283 31.8237 8.23251C31.947 8.37809 32.0198 8.53783 32.042 8.71171C32.0663 8.90379 32.0259 9.08678 31.9217 9.26066L31.4021 8.94828L31.9349 9.2364C31.1858 10.6224 30.3557 11.6839 29.4469 12.4189C28.4895 13.1933 27.4705 13.5805 26.3897 13.5805ZM26.3897 12.3674C27.1844 12.3674 27.9497 12.0701 28.6846 11.4757C29.4681 10.8428 30.196 9.90364 30.8683 8.66015L30.8754 8.64802L30.8825 8.6369C30.843 8.70261 30.8279 8.77742 30.839 8.86234C30.8471 8.92806 30.8673 8.97962 30.8996 9.01803C30.8895 9.0059 30.8754 8.9968 30.8562 8.99175C30.9168 9.00893 30.9825 9.00287 31.0513 8.97456C31.1099 8.95131 31.1534 8.91795 31.1817 8.87549C30.7531 9.5316 30.194 10.0229 29.5045 10.3525C28.8342 10.672 28.1791 10.8317 27.5382 10.8317C26.9892 10.8317 26.5111 10.7417 26.1046 10.5618C25.8458 10.4475 25.6447 10.2969 25.5001 10.1089C25.3333 9.89353 25.2504 9.64685 25.2504 9.36884C25.2504 9.22326 25.2787 9.09183 25.3343 8.97456C25.4172 8.8027 25.5456 8.67936 25.7205 8.60657C25.9732 8.50143 26.2128 8.5166 26.4393 8.65206C26.5545 8.7198 26.6819 8.76428 26.8194 8.78551C27.0054 8.81281 27.1965 8.82696 27.3926 8.82696C27.8 8.82696 28.1478 8.73294 28.4349 8.54591C28.7392 8.34675 28.9748 8.09806 29.1426 7.79679C29.3064 7.50058 29.3893 7.21043 29.3893 6.92736C29.3893 6.66451 29.3337 6.41784 29.2235 6.18835C29.1254 5.98615 28.9697 5.82137 28.7564 5.695C28.534 5.56256 28.2246 5.49685 27.8294 5.49685C27.2764 5.49685 26.785 5.61715 26.3533 5.85675C25.9045 6.10646 25.5223 6.43805 25.2069 6.85053C24.8804 7.27715 24.6317 7.74725 24.4588 8.26082C24.2849 8.77641 24.1959 9.28998 24.1919 9.80254C24.1869 10.2969 24.2687 10.7458 24.4355 11.1491C24.5902 11.5202 24.8268 11.8174 25.1463 12.0408C25.4566 12.2592 25.8711 12.3674 26.3897 12.3674ZM26.9721 7.61482C27.1035 7.61482 27.1985 7.58247 27.2551 7.51776C27.3309 7.43385 27.3684 7.36612 27.3684 7.31557C27.3684 7.29434 27.3623 7.27817 27.3512 7.26603C27.3542 7.27008 27.3582 7.27311 27.3623 7.27513C27.3623 7.27513 27.3603 7.27513 27.3572 7.27412C27.3289 7.26401 27.2865 7.25896 27.2309 7.25896C27.0924 7.25896 26.9913 7.29232 26.9276 7.36005C26.8548 7.43689 26.8184 7.50361 26.8184 7.5582C26.8184 7.57236 26.8275 7.58954 26.8447 7.60875C26.8396 7.6037 26.8356 7.59965 26.8315 7.59662C26.8305 7.59662 26.8295 7.59561 26.8295 7.59561C26.8315 7.59662 26.8336 7.59763 26.8356 7.59864C26.8669 7.60875 26.9124 7.61482 26.9721 7.61482ZM26.9721 8.82696C26.5363 8.82696 26.1956 8.69453 25.952 8.42965C25.7215 8.17893 25.6062 7.88778 25.6062 7.5582C25.6062 7.18212 25.7528 6.8384 26.046 6.52702C26.3493 6.20654 26.7446 6.04681 27.2309 6.04681C27.6514 6.04681 27.983 6.17318 28.2267 6.42693C28.4622 6.67361 28.5805 6.96982 28.5805 7.31557C28.5805 7.67446 28.441 8.01111 28.1599 8.32552C27.8617 8.66015 27.4654 8.82696 26.9721 8.82696Z" fill="#F72E50"/>
<path d="M33.3409 13.5805C32.5675 13.5805 31.9205 13.3985 31.4009 13.0336C30.8893 12.6757 30.5122 12.2026 30.2676 11.6142C30.0361 11.0582 29.9239 10.4506 29.9299 9.79142C29.936 9.15047 30.0462 8.51154 30.2605 7.87362C30.4758 7.23368 30.7872 6.64732 31.1946 6.11455C31.6122 5.56863 32.1187 5.12886 32.7151 4.79726C33.3298 4.45556 34.0183 4.28369 34.7805 4.28369C35.3972 4.28369 35.9128 4.40703 36.3263 4.65168C36.7489 4.9024 37.0623 5.23905 37.2665 5.66163C37.4576 6.05692 37.5526 6.4795 37.5526 6.92736C37.5526 7.42071 37.4201 7.90597 37.1533 8.38618C36.8894 8.86133 36.5214 9.25359 36.0493 9.56092C35.561 9.88038 34.9918 10.0401 34.3438 10.0401C34.087 10.0401 33.8363 10.0209 33.5906 9.98451C33.2974 9.94003 33.0265 9.845 32.7758 9.6974C32.8324 9.73177 32.8981 9.75098 32.9699 9.75401C33.0305 9.75705 33.0872 9.74795 33.1377 9.72672C33.2479 9.68021 33.3278 9.6054 33.3783 9.49925C33.4026 9.45073 33.4137 9.40725 33.4137 9.36884L33.4107 9.36783C33.4309 9.3931 33.4754 9.42141 33.5461 9.45275C33.7969 9.56395 34.1113 9.61956 34.4894 9.61956C34.9473 9.61956 35.4286 9.49925 35.934 9.25763C36.4193 9.02612 36.8136 8.67835 37.1179 8.2123C37.2321 8.04144 37.3757 7.92013 37.5475 7.85037C37.7295 7.77657 37.9216 7.76747 38.1228 7.82105C38.3846 7.89182 38.602 8.0283 38.7748 8.23251C38.8982 8.37809 38.971 8.53783 38.9932 8.71171C39.0175 8.90379 38.977 9.08678 38.8729 9.26066L38.3533 8.94828L38.886 9.2364C38.1369 10.6224 37.3069 11.6839 36.3981 12.4189C35.4407 13.1933 34.4216 13.5805 33.3409 13.5805ZM33.3409 12.3674C34.1355 12.3674 34.9008 12.0701 35.6358 11.4757C36.4193 10.8428 37.1472 9.90364 37.8195 8.66015L37.8266 8.64802L37.8336 8.6369C37.7942 8.70261 37.779 8.77742 37.7902 8.86234C37.7982 8.92806 37.8185 8.97962 37.8508 9.01803C37.8407 9.0059 37.8266 8.9968 37.8073 8.99175C37.868 9.00893 37.9337 9.00287 38.0025 8.97456C38.0611 8.95131 38.1046 8.91795 38.1329 8.87549C37.7042 9.5316 37.1452 10.0229 36.4557 10.3525C35.7854 10.672 35.1303 10.8317 34.4894 10.8317C33.9404 10.8317 33.4622 10.7417 33.0558 10.5618C32.797 10.4475 32.5958 10.2969 32.4513 10.1089C32.2845 9.89353 32.2016 9.64685 32.2016 9.36884C32.2016 9.22326 32.2299 9.09183 32.2855 8.97456C32.3684 8.8027 32.4968 8.67936 32.6717 8.60657C32.9244 8.50143 33.164 8.5166 33.3904 8.65206C33.5057 8.7198 33.6331 8.76428 33.7706 8.78551C33.9566 8.81281 34.1477 8.82696 34.3438 8.82696C34.7512 8.82696 35.099 8.73294 35.3861 8.54591C35.6904 8.34675 35.9259 8.09806 36.0938 7.79679C36.2575 7.50058 36.3404 7.21043 36.3404 6.92736C36.3404 6.66451 36.2848 6.41784 36.1746 6.18835C36.0766 5.98615 35.9209 5.82137 35.7076 5.695C35.4852 5.56256 35.1758 5.49685 34.7805 5.49685C34.2275 5.49685 33.7362 5.61715 33.3045 5.85675C32.8556 6.10646 32.4735 6.43805 32.1581 6.85053C31.8315 7.27715 31.5828 7.74725 31.41 8.26082C31.2361 8.77641 31.1471 9.28998 31.1431 9.80254C31.138 10.2969 31.2199 10.7458 31.3867 11.1491C31.5414 11.5202 31.778 11.8174 32.0974 12.0408C32.4078 12.2592 32.8223 12.3674 33.3409 12.3674ZM33.9232 7.61482C34.0547 7.61482 34.1497 7.58247 34.2063 7.51776C34.2821 7.43385 34.3195 7.36612 34.3195 7.31557C34.3195 7.29434 34.3135 7.27817 34.3023 7.26603C34.3054 7.27008 34.3094 7.27311 34.3135 7.27513C34.3135 7.27513 34.3114 7.27513 34.3084 7.27412C34.2801 7.26401 34.2376 7.25896 34.182 7.25896C34.0435 7.25896 33.9424 7.29232 33.8787 7.36005C33.806 7.43689 33.7696 7.50361 33.7696 7.5582C33.7696 7.57236 33.7787 7.58954 33.7958 7.60875C33.7908 7.6037 33.7867 7.59965 33.7827 7.59662C33.7817 7.59662 33.7807 7.59561 33.7807 7.59561C33.7827 7.59662 33.7847 7.59763 33.7867 7.59864C33.8181 7.60875 33.8636 7.61482 33.9232 7.61482ZM33.9232 8.82696C33.4875 8.82696 33.1468 8.69453 32.9032 8.42965C32.6727 8.17893 32.5574 7.88778 32.5574 7.5582C32.5574 7.18212 32.704 6.8384 32.9972 6.52702C33.3005 6.20654 33.6958 6.04681 34.182 6.04681C34.6026 6.04681 34.9342 6.17318 35.1778 6.42693C35.4134 6.67361 35.5317 6.96982 35.5317 7.31557C35.5317 7.67446 35.3922 8.01111 35.1111 8.32552C34.8129 8.66015 34.4166 8.82696 33.9232 8.82696Z" fill="#F72E50"/>
<path d="M4.21271 14.4778C3.47875 14.4778 2.83982 14.3403 2.29592 14.0653C1.75101 13.7903 1.33348 13.4233 1.04233 12.9654C0.75117 12.5074 0.605591 11.9979 0.605591 11.4368C0.605591 11.0162 0.681413 10.6311 0.832047 10.2803C0.983691 9.93046 1.19397 9.64941 1.46289 9.43913C1.7318 9.22885 2.0452 9.12371 2.40106 9.12371C2.56282 9.12371 2.64369 9.18841 2.64369 9.31782C2.64369 9.72827 2.75692 10.0922 2.98338 10.4097C3.20983 10.7281 3.51717 10.9738 3.90538 11.1456C4.29359 11.3185 4.72426 11.4044 5.19941 11.4044C5.78981 11.4044 6.28721 11.2649 6.69159 10.9839C7.09598 10.7038 7.41645 10.3156 7.65403 9.81925C7.70761 9.71209 7.70256 9.62313 7.63785 9.55236C7.57315 9.4826 7.50238 9.49069 7.42757 9.57662C7.20112 9.8789 6.93624 10.1134 6.63498 10.2803C6.3327 10.4481 5.99403 10.531 5.61997 10.531C4.98306 10.531 4.45231 10.26 4.02669 9.71816C3.60006 9.17426 3.38776 8.38975 3.38776 7.36464C3.38776 6.5134 3.54648 5.7016 3.86494 4.93024C4.18238 4.15988 4.61811 3.47243 5.1711 2.86787C5.72612 2.26432 6.36202 1.78715 7.0798 1.43635C7.79657 1.08655 8.54873 0.910645 9.33627 0.910645C10.1986 0.910645 10.8487 1.12699 11.2854 1.55766C11.7221 1.98934 11.9405 2.53931 11.9405 3.20755C11.9405 3.70394 11.8243 4.12753 11.5927 4.47732C11.3602 4.82813 11.067 5.09199 10.7112 5.26992C10.3553 5.44785 9.97722 5.53681 9.5789 5.53681C9.41715 5.53681 9.2655 5.49435 9.12599 5.40741C8.98547 5.32148 8.94806 5.20825 9.01276 5.06773C9.1634 4.73411 9.18766 4.41565 9.08555 4.11338C8.98244 3.81211 8.71049 3.66047 8.26869 3.66047C7.89059 3.66047 7.55394 3.76055 7.25773 3.95971C6.96051 4.15988 6.72596 4.41565 6.5541 4.72804C6.38123 5.04144 6.29529 5.37 6.29529 5.71474C6.29529 6.17878 6.43481 6.56395 6.71585 6.87128C6.99589 7.17862 7.38916 7.33228 7.89666 7.33228C8.1767 7.33228 8.45471 7.28376 8.72969 7.18671C9.00468 7.08965 9.24933 6.91779 9.46568 6.66909C9.60519 6.51846 9.7538 6.4487 9.9105 6.45881C10.0662 6.46993 10.1986 6.52958 10.3068 6.63674C10.414 6.74491 10.4524 6.87432 10.42 7.02495C10.2684 7.66186 10.1066 8.23811 9.93476 8.75572C9.76189 9.27131 9.57284 9.83038 9.36862 10.4339C9.10982 11.2215 8.72969 11.92 8.22826 12.5286C7.72682 13.1372 7.13338 13.6144 6.44896 13.9602C5.76656 14.3049 5.02148 14.4778 4.21271 14.4778Z" fill="white"/>
<path d="M13.8477 4.22693C13.4595 4.22693 13.1249 4.14403 12.8448 3.97621C12.5638 3.8094 12.4243 3.51015 12.4243 3.07847C12.4243 2.50728 12.583 2.11603 12.9014 1.90575C13.2189 1.69547 13.599 1.59033 14.0418 1.59033C14.4482 1.59033 14.795 1.68233 15.0811 1.86531C15.3662 2.04931 15.4875 2.39405 15.445 2.90054C15.4015 3.39692 15.2287 3.74166 14.9274 3.93577C14.6282 4.12987 14.2683 4.22693 13.8477 4.22693ZM12.0522 12.9738C11.5124 12.9738 11.1302 12.7777 10.9038 12.3834C10.6773 11.9901 10.5641 11.5129 10.5641 10.9519C10.5641 10.5748 10.6015 10.1754 10.6773 9.75487C10.7521 9.33431 10.8492 8.93195 10.9685 8.54576C11.3456 7.37102 11.7125 6.46722 12.0684 5.83638C12.4243 5.20554 12.8337 4.89012 13.2977 4.89012C13.6637 4.89012 13.8477 5.13275 13.8477 5.61801C13.8477 5.94152 13.785 6.27312 13.6617 6.6128C13.5373 6.95248 13.416 7.28711 13.2977 7.61567C13.1784 7.94525 13.1198 8.2546 13.1198 8.54576C13.1198 8.81266 13.1865 9.01384 13.322 9.1483C13.4565 9.28376 13.6314 9.35049 13.8477 9.35049C14.0954 9.35049 14.3016 9.27669 14.4664 9.12808C14.6332 8.97744 14.798 8.78334 14.9598 8.54576C15.0457 8.41636 15.1559 8.36783 15.2914 8.40018C15.4258 8.43253 15.539 8.50532 15.631 8.61855C15.722 8.73178 15.7412 8.83591 15.6876 8.92993C15.5795 9.1028 15.4531 9.35049 15.3075 9.674C15.1619 9.99751 14.986 10.3483 14.7818 10.7254C14.5796 11.1035 14.3461 11.4614 14.0822 11.8011C13.8174 12.1407 13.5181 12.4218 13.1845 12.6422C12.8499 12.8636 12.4728 12.9738 12.0522 12.9738Z" fill="white"/>
<path d="M20.2465 0.607422C20.7642 0.607422 21.1443 0.723683 21.3869 0.955193C21.6295 1.18468 21.764 1.46674 21.7913 1.80036C21.8176 2.13499 21.7721 2.47164 21.6538 2.81132C21.5345 3.15101 21.3647 3.43711 21.1443 3.66862C20.9229 3.90114 20.6883 4.01639 20.4406 4.01639C20.2142 4.01639 20.101 3.93551 20.101 3.77376C20.101 3.25615 19.9008 2.99734 19.5025 2.99734C19.1567 2.99734 18.8575 3.1783 18.6047 3.53922C18.354 3.90114 18.1367 4.35607 17.9537 4.90604H19.6481C19.7552 4.90604 19.826 4.98186 19.8583 5.13249C19.8907 5.28414 19.8877 5.456 19.8502 5.65011C19.8118 5.84421 19.7421 6.01709 19.64 6.16772C19.5368 6.31937 19.4054 6.39418 19.2437 6.39418C19.2649 6.39418 19.1082 6.378 18.7746 6.34565C18.443 6.3133 18.0447 6.28095 17.5816 6.2486C17.4522 6.84203 17.3471 7.43547 17.2662 8.02789C17.1853 8.62133 17.1176 9.13187 17.064 9.56051C17.0206 9.95984 16.9832 10.3592 16.9508 10.7575C16.9185 11.1568 16.8558 11.5238 16.7648 11.8574C16.6728 12.1921 16.5242 12.462 16.32 12.6662C16.1147 12.8714 15.8125 12.9735 15.4141 12.9735C14.9178 12.9735 14.5973 12.8118 14.4517 12.4883C14.3061 12.1648 14.2879 11.6744 14.3951 11.0163C14.5033 10.3592 14.6862 9.53524 14.945 8.54551C15.0633 8.12495 15.1816 7.71247 15.3009 7.30809C15.4192 6.9037 15.5435 6.51347 15.6729 6.13537H15.4465C15.0684 6.13537 14.8156 6.0737 14.6862 5.94935C14.5568 5.82601 14.5063 5.68246 14.5326 5.5207C14.5599 5.35895 14.6266 5.2164 14.7348 5.09206C14.8419 4.96872 14.945 4.90604 15.0421 4.90604H16.1259C16.4706 4.04369 16.8477 3.29153 17.2581 2.64957C17.6676 2.00862 18.1195 1.50819 18.6128 1.1493C19.1082 0.788384 19.6531 0.607422 20.2465 0.607422Z" fill="white"/>
<path d="M20.3936 12.9733C19.7891 12.9733 19.3442 12.7873 19.0591 12.4153C18.773 12.0433 18.6305 11.558 18.6305 10.9595C18.6305 10.361 18.7498 9.71703 18.9864 9.02655C19.1259 8.62014 19.2826 8.17936 19.4554 7.7042C19.6273 7.23006 19.8164 6.71245 20.0216 6.15136C19.784 6.15136 19.603 6.0897 19.4797 5.96535C19.3554 5.84201 19.2745 5.69643 19.2371 5.52861C19.1987 5.3618 19.1987 5.21622 19.2371 5.09188C19.2745 4.96854 19.3422 4.90586 19.4393 4.90586C19.9134 4.90586 20.2854 4.77443 20.5554 4.50956C20.8243 4.2457 21.0133 3.96768 21.1215 3.67653C21.3156 3.20238 21.5037 2.90314 21.6876 2.77879C21.8706 2.65545 22.0647 2.59277 22.27 2.59277C22.5712 2.59277 22.7593 2.72015 22.8321 2.9729C22.9069 3.22665 22.8219 3.60677 22.5773 4.11326C22.458 4.37207 22.3933 4.56921 22.3832 4.70367C22.3721 4.83913 22.4418 4.90586 22.5935 4.90586H23.4305C23.5377 4.90586 23.6085 4.98168 23.6408 5.13231C23.6732 5.28396 23.6701 5.45582 23.6327 5.64993C23.5943 5.84403 23.5246 6.01691 23.4225 6.16754C23.3193 6.31918 23.1879 6.394 23.0262 6.394C22.5328 6.394 22.1668 6.4132 21.9303 6.45061C21.6927 6.48903 21.5259 6.58305 21.4288 6.73368C21.3318 6.88532 21.2287 7.14413 21.1215 7.5101C20.9486 8.07118 20.9729 8.51904 21.1943 8.85266C21.4147 9.18426 21.7625 9.35005 22.2376 9.35005C22.5611 9.35005 22.8482 9.27929 23.099 9.13573C23.3517 8.99015 23.56 8.79402 23.7217 8.54533C23.8076 8.41592 23.9178 8.37043 24.0533 8.40784C24.1878 8.44625 24.301 8.51904 24.393 8.6262C24.484 8.73438 24.5032 8.84053 24.4496 8.94567C24.3525 9.12966 24.2231 9.3824 24.0614 9.70591C23.8996 10.0294 23.7055 10.3802 23.4791 10.7573C23.2526 11.1354 22.9877 11.4913 22.6865 11.8249C22.3872 12.1595 22.0455 12.4345 21.6634 12.6498C21.2802 12.8662 20.8566 12.9733 20.3936 12.9733Z" fill="white"/>
<path d="M26.3918 12.9738C25.7448 12.9738 25.213 12.8282 24.7985 12.5371C24.383 12.2459 24.0757 11.8607 23.8765 11.3805C23.6763 10.9013 23.5793 10.3726 23.5854 9.79533C23.5904 9.21908 23.6905 8.64283 23.8846 8.06861C24.0787 7.49236 24.3587 6.96362 24.7257 6.48342C25.0917 6.00422 25.5365 5.61803 26.0602 5.32687C26.5829 5.03572 27.1722 4.89014 27.8274 4.89014C28.3338 4.89014 28.7463 4.98517 29.0648 5.17321C29.3822 5.36226 29.6168 5.61298 29.7684 5.92536C29.919 6.23876 29.9949 6.57238 29.9949 6.92824C29.9949 7.31645 29.8867 7.70466 29.6714 8.09287C29.455 8.48108 29.1537 8.80257 28.7655 9.05531C28.3773 9.30603 27.9204 9.43138 27.3947 9.43138C27.1682 9.43138 26.9468 9.41521 26.7315 9.38286C26.5151 9.35051 26.316 9.28075 26.133 9.17258C26.0784 9.14023 26.0198 9.13821 25.955 9.16449C25.8903 9.19179 25.858 9.25952 25.858 9.36668C25.858 9.64773 26.0218 9.86003 26.3513 10.0056C26.6799 10.1512 27.0752 10.224 27.5362 10.224C28.0862 10.224 28.6543 10.0845 29.2427 9.80342C29.8301 9.52338 30.3072 9.10383 30.6742 8.54578C30.7602 8.41638 30.8734 8.37088 31.0139 8.40829C31.1534 8.44671 31.2697 8.5195 31.3617 8.62666C31.4527 8.73483 31.4668 8.84098 31.4021 8.94612C30.6904 10.2624 29.9109 11.2622 29.0648 11.9467C28.2176 12.6321 27.3269 12.9738 26.3918 12.9738ZM26.9741 8.22227C27.2835 8.22227 27.5281 8.1232 27.706 7.92303C27.884 7.72387 27.9729 7.52167 27.9729 7.31645C27.9729 7.13346 27.9103 6.97677 27.7869 6.84736C27.6626 6.71796 27.4776 6.65326 27.2329 6.65326C26.9195 6.65326 26.6718 6.75031 26.4888 6.94441C26.3048 7.13852 26.2139 7.34374 26.2139 7.55908C26.2139 7.73196 26.2755 7.88562 26.3999 8.02008C26.5232 8.15555 26.7153 8.22227 26.9741 8.22227Z" fill="white"/>
<path d="M33.3428 12.9738C32.6958 12.9738 32.1641 12.8282 31.7496 12.5371C31.3341 12.2459 31.0267 11.8607 30.8276 11.3805C30.6274 10.9013 30.5303 10.3726 30.5364 9.79533C30.5415 9.21908 30.6415 8.64283 30.8356 8.06861C31.0298 7.49236 31.3098 6.96362 31.6768 6.48342C32.0427 6.00422 32.4876 5.61803 33.0112 5.32687C33.5339 5.03572 34.1233 4.89014 34.7784 4.89014C35.2849 4.89014 35.6974 4.98517 36.0158 5.17321C36.3333 5.36226 36.5678 5.61298 36.7195 5.92536C36.8701 6.23876 36.9459 6.57238 36.9459 6.92824C36.9459 7.31645 36.8377 7.70466 36.6224 8.09287C36.4061 8.48108 36.1048 8.80257 35.7166 9.05531C35.3284 9.30603 34.8714 9.43138 34.3457 9.43138C34.1193 9.43138 33.8979 9.41521 33.6825 9.38286C33.4662 9.35051 33.267 9.28075 33.084 9.17258C33.0294 9.14023 32.9708 9.13821 32.9061 9.16449C32.8414 9.19179 32.809 9.25952 32.809 9.36668C32.809 9.64773 32.9728 9.86003 33.3024 10.0056C33.631 10.1512 34.0262 10.224 34.4872 10.224C35.0372 10.224 35.6054 10.0845 36.1938 9.80342C36.7811 9.52338 37.2583 9.10383 37.6253 8.54578C37.7112 8.41638 37.8244 8.37088 37.965 8.40829C38.1045 8.44671 38.2207 8.5195 38.3127 8.62666C38.4037 8.73483 38.4179 8.84098 38.3532 8.94612C37.6415 10.2624 36.862 11.2622 36.0158 11.9467C35.1686 12.6321 34.278 12.9738 33.3428 12.9738ZM33.9251 8.22227C34.2345 8.22227 34.4792 8.1232 34.6571 7.92303C34.835 7.72387 34.924 7.52167 34.924 7.31645C34.924 7.13346 34.8613 6.97677 34.738 6.84736C34.6136 6.71796 34.4286 6.65326 34.184 6.65326C33.8706 6.65326 33.6229 6.75031 33.4399 6.94441C33.2559 7.13852 33.1649 7.34374 33.1649 7.55908C33.1649 7.73196 33.2266 7.88562 33.3509 8.02008C33.4743 8.15555 33.6663 8.22227 33.9251 8.22227Z" fill="white"/>
</svg>
