<svg width="50" height="50" viewBox="0 0 50 50" fill="none" xmlns="http://www.w3.org/2000/svg">
<rect width="50" height="50" rx="25" fill="#C73E51"/>
<g clip-path="url(#clip0_312_1199)">
<path d="M10.3977 28.736C7.84849 28.736 6 26.84 6 24.368C6 21.896 7.84849 20 10.3977 20C11.9321 20 13.2852 20.756 14.0222 21.944L12.3549 22.904C11.9804 22.256 11.2555 21.872 10.3977 21.872C8.89959 21.872 7.93306 22.868 7.93306 24.368C7.93306 25.868 8.89959 26.864 10.3977 26.864C11.2555 26.864 11.9925 26.48 12.3549 25.832L14.0222 26.792C13.2973 27.98 11.9441 28.736 10.3977 28.736ZM19.3124 22.568H21.1246V28.568H19.3124V28.004C18.9137 28.46 18.3217 28.736 17.5122 28.736C15.9295 28.736 14.6247 27.356 14.6247 25.568C14.6247 23.78 15.9295 22.4 17.5122 22.4C18.3217 22.4 18.9137 22.676 19.3124 23.132V22.568ZM17.8746 27.032C18.7083 27.032 19.3124 26.468 19.3124 25.568C19.3124 24.668 18.7083 24.104 17.8746 24.104C17.041 24.104 16.4369 24.668 16.4369 25.568C16.4369 26.468 17.041 27.032 17.8746 27.032ZM26.8398 20.168H28.652V28.568H26.8398V28.004C26.4411 28.46 25.8491 28.736 25.0396 28.736C23.4569 28.736 22.1521 27.356 22.1521 25.568C22.1521 23.78 23.4569 22.4 25.0396 22.4C25.8491 22.4 26.4411 22.676 26.8398 23.132V20.168ZM25.4021 27.032C26.2357 27.032 26.8398 26.468 26.8398 25.568C26.8398 24.668 26.2357 24.104 25.4021 24.104C24.5684 24.104 23.9644 24.668 23.9644 25.568C23.9644 26.468 24.5684 27.032 25.4021 27.032ZM32.8812 28.736C31.1052 28.736 29.6795 27.356 29.6795 25.568C29.6795 23.78 31.1052 22.4 32.8812 22.4C34.6572 22.4 36.0828 23.78 36.0828 25.568C36.0828 27.356 34.6572 28.736 32.8812 28.736ZM32.8812 26.984C33.6665 26.984 34.2706 26.42 34.2706 25.568C34.2706 24.716 33.6665 24.152 32.8812 24.152C32.0959 24.152 31.4918 24.716 31.4918 25.568C31.4918 26.42 32.0959 26.984 32.8812 26.984ZM41.0102 22.568H42.8225V28.568H41.0102V28.004C40.684 28.448 40.0799 28.736 39.2825 28.736C38.0623 28.736 37.0233 27.872 37.0233 26.252V22.568H38.8355V25.988C38.8355 26.732 39.3067 27.08 39.8866 27.08C40.5511 27.08 41.0102 26.696 41.0102 25.844V22.568Z" fill="white"/>
</g>
<defs>
<clipPath id="clip0_312_1199">
<rect width="37" height="9" fill="white" transform="translate(6 20)"/>
</clipPath>
</defs>
</svg>
