<svg width="39" height="16" viewBox="0 0 39 16" fill="none" xmlns="http://www.w3.org/2000/svg">
<path d="M4.21167 15.5638C3.38268 15.5638 2.65277 15.4051 2.02193 15.0867C1.37895 14.7611 0.88156 14.3234 0.530756 13.7714C0.176919 13.2133 0 12.5957 0 11.9183C0 11.4148 0.0919978 10.9488 0.275993 10.5222C0.467065 10.0773 0.739014 9.71744 1.08982 9.44347C1.46893 9.14827 1.90567 8.99965 2.40104 8.99965C2.62345 8.99965 2.81048 9.06031 2.96111 9.18163C3.1532 9.33529 3.24924 9.54153 3.24924 9.80034C3.24924 10.0804 3.32506 10.327 3.4767 10.5404C3.63846 10.7678 3.8639 10.9458 4.15 11.0731C4.46037 11.2106 4.80915 11.2794 5.19736 11.2794C5.66443 11.2794 6.04758 11.1752 6.34784 10.967C6.66326 10.7476 6.91701 10.4393 7.10808 10.0399C7.08989 10.0763 7.0818 10.1269 7.08584 10.1906C7.09191 10.2896 7.1283 10.3746 7.19301 10.4463C7.23142 10.4878 7.27894 10.5212 7.33555 10.5474C7.42148 10.5869 7.51247 10.601 7.6075 10.5909C7.72679 10.5768 7.8198 10.5323 7.8845 10.4585L7.42856 10.0591L7.91382 10.4231C7.63581 10.7941 7.30724 11.0832 6.93015 11.2925C6.53689 11.5099 6.09914 11.6191 5.61792 11.6191C4.78489 11.6191 4.09541 11.2693 3.54747 10.5697C3.03592 9.91559 2.78015 9.00673 2.78015 7.84412C2.78015 6.91201 2.95505 6.02439 3.30383 5.17922C3.64857 4.34215 4.12372 3.59605 4.72727 2.93893C5.33384 2.27978 6.02939 1.75812 6.8149 1.37396C7.61559 0.982714 8.4557 0.787598 9.33625 0.787598C10.3644 0.787598 11.156 1.06056 11.71 1.6085C12.267 2.15846 12.545 2.85198 12.545 3.68906C12.545 4.30676 12.3964 4.84055 12.0972 5.29245C11.806 5.73323 11.434 6.06685 10.9821 6.29229C10.5403 6.51268 10.0732 6.62389 9.57888 6.62389C9.30289 6.62389 9.0461 6.55009 8.80853 6.40451C8.61341 6.28421 8.48299 6.12548 8.41728 5.93037C8.34854 5.7211 8.36269 5.50981 8.46278 5.29447C8.54669 5.10846 8.56286 4.93962 8.5113 4.78899C8.51029 4.78495 8.50928 4.78191 8.50827 4.77989C8.50827 4.7809 8.50928 4.78191 8.51029 4.78293L8.5113 4.78495C8.46581 4.76068 8.38594 4.74754 8.26968 4.74754C8.01492 4.74754 7.7915 4.81325 7.59739 4.94367C7.38206 5.08824 7.2112 5.27425 7.08685 5.50172C6.96453 5.72312 6.90286 5.95463 6.90286 6.19524C6.90286 6.50156 6.99081 6.75127 7.1647 6.94234C7.32544 7.11724 7.56908 7.20519 7.89765 7.20519C8.10793 7.20519 8.31821 7.1688 8.52849 7.09399C8.70237 7.03333 8.86211 6.91808 9.00768 6.75127L9.01476 6.74318L9.02184 6.73611C9.29278 6.44394 9.60314 6.30948 9.95192 6.33374C10.2593 6.35497 10.5201 6.47326 10.7354 6.68758C10.8618 6.81496 10.9497 6.96054 10.9973 7.12432C11.0448 7.28708 11.0498 7.45591 11.0124 7.63182C10.8557 8.294 10.6879 8.89148 10.51 9.42628L9.94283 11.1095C9.66178 11.9648 9.24627 12.7271 8.69732 13.3943C8.14129 14.0696 7.48416 14.5984 6.72291 14.9815C5.95356 15.3697 5.11548 15.5638 4.21167 15.5638ZM4.21167 14.3517C4.92339 14.3517 5.57951 14.2 6.178 13.8988C6.78559 13.5925 7.31331 13.1668 7.76117 12.624C8.21408 12.074 8.55781 11.4401 8.79437 10.7223L9.3595 9.04313C9.52631 8.5427 9.682 7.98768 9.82656 7.37706C9.82151 7.40233 9.82353 7.43064 9.83364 7.464C9.84375 7.49837 9.8579 7.52567 9.87812 7.54488C9.87711 7.54488 9.87408 7.54387 9.86801 7.54387C9.89531 7.54488 9.91957 7.54083 9.9408 7.53072V7.53173C9.93171 7.53881 9.9216 7.54892 9.90946 7.56105L9.46565 7.14858L9.92362 7.5469C9.63752 7.87546 9.30693 8.10495 8.93186 8.23739C8.59218 8.35769 8.24643 8.41835 7.89765 8.41835C7.21221 8.41835 6.66933 8.19897 6.26898 7.7592C5.88381 7.33662 5.69071 6.81496 5.69071 6.19524C5.69071 5.74637 5.80192 5.31975 6.02433 4.91637C6.24472 4.51805 6.54296 4.19151 6.92004 3.93776C7.31938 3.66985 7.76824 3.5354 8.26968 3.5354C8.59521 3.5354 8.8712 3.59808 9.09867 3.72445C9.37163 3.87609 9.55866 4.10052 9.65976 4.39977C9.81342 4.85268 9.78107 5.31975 9.56371 5.80198C9.59809 5.72717 9.60011 5.64224 9.56776 5.5462C9.54046 5.4633 9.49901 5.40568 9.44341 5.37131C9.48688 5.39759 9.53136 5.41073 9.57888 5.41073C9.88217 5.41073 10.1693 5.343 10.4392 5.20854C10.698 5.07813 10.9144 4.88402 11.0862 4.6242C11.251 4.3745 11.3329 4.06312 11.3329 3.68906C11.3329 3.18965 11.1752 2.78425 10.8588 2.47186C10.5403 2.15644 10.0328 1.99974 9.33625 1.99974C8.64273 1.99974 7.97953 2.15442 7.34768 2.46378C6.69864 2.78021 6.12341 3.2129 5.61995 3.75983C5.11345 4.31081 4.71513 4.9376 4.42398 5.64224C4.13686 6.3388 3.99331 7.07276 3.99331 7.84412C3.99331 8.72872 4.16315 9.38786 4.50283 9.82258C4.80713 10.2118 5.17917 10.4069 5.61792 10.4069C5.89088 10.4069 6.1325 10.3483 6.34278 10.232C6.56924 10.1067 6.76941 9.92772 6.9433 9.6952L6.95745 9.677L6.97261 9.65981C7.11314 9.49907 7.27793 9.40808 7.46799 9.38584C7.5984 9.37068 7.72275 9.3909 7.84305 9.44549C7.93303 9.48694 8.0129 9.54659 8.08467 9.62342C8.21408 9.76394 8.28485 9.92873 8.29597 10.1168C8.30608 10.2694 8.27372 10.418 8.20195 10.5626C7.91888 11.155 7.53067 11.6221 7.03833 11.9638C6.53082 12.3156 5.91717 12.4915 5.19736 12.4915C4.63729 12.4915 4.12473 12.3884 3.65767 12.1812C3.16937 11.9638 2.77914 11.6514 2.48899 11.243C2.18773 10.8204 2.03709 10.3392 2.03709 9.80034C2.03709 9.84886 2.0472 9.8984 2.06843 9.94895C2.09775 10.0197 2.14324 10.0794 2.2039 10.1279C2.24939 10.1653 2.29893 10.1906 2.35049 10.2037C2.37172 10.2098 2.3879 10.2128 2.40104 10.2128C2.18368 10.2128 1.99564 10.2745 1.83591 10.3998C1.64787 10.5464 1.49926 10.7466 1.38906 11.0024C1.27179 11.2753 1.21215 11.5806 1.21215 11.9183C1.21215 12.3611 1.32638 12.7614 1.55385 13.1203C1.78536 13.4853 2.12403 13.7795 2.56886 14.0039C3.02682 14.2354 3.57477 14.3517 4.21167 14.3517Z" fill="#1C1254"/>
<path d="M13.8456 5.31404C13.3461 5.31404 12.9094 5.20182 12.5333 4.9784C12.2867 4.8308 12.1017 4.62658 11.9793 4.36474C11.8712 4.13424 11.8166 3.86532 11.8166 3.56001C11.8166 2.77146 12.0663 2.2124 12.5657 1.88181C12.9852 1.60481 13.4766 1.46631 14.0397 1.46631C14.5684 1.46631 15.0243 1.58965 15.4095 1.83733C15.6693 2.00414 15.8533 2.23868 15.9595 2.54298C16.0495 2.79674 16.0798 3.09396 16.0505 3.43364C15.9898 4.12818 15.726 4.62557 15.2569 4.92684C14.8555 5.18463 14.3854 5.31404 13.8456 5.31404ZM13.8456 4.10189C14.1478 4.10189 14.3996 4.03719 14.6008 3.90677C14.7362 3.81983 14.8161 3.62775 14.8424 3.33053C14.8646 3.06666 14.8353 2.90996 14.7554 2.85739C14.5694 2.73911 14.3308 2.67946 14.0397 2.67946C13.7192 2.67946 13.4513 2.75023 13.2349 2.89379C13.0975 2.98376 13.0297 3.20618 13.0297 3.56001C13.0297 3.7612 13.0712 3.88757 13.1541 3.9371C13.3391 4.04629 13.5696 4.10189 13.8456 4.10189ZM12.0511 14.0609C11.6841 14.0609 11.3616 13.9891 11.0826 13.8456C10.7854 13.6929 10.5508 13.4664 10.378 13.1662C10.0979 12.6799 9.9574 12.1016 9.9574 11.4334C9.9574 11.0199 9.99885 10.5862 10.0807 10.1303C10.1606 9.68544 10.2627 9.25881 10.3881 8.84735C10.7803 7.62813 11.1635 6.6849 11.5396 6.01868C12.0107 5.18261 12.597 4.76407 13.2966 4.76407C13.6808 4.76407 13.979 4.90561 14.1923 5.18766C14.3652 5.41614 14.4521 5.72044 14.4521 6.09854C14.4521 6.49282 14.3783 6.89417 14.2297 7.30058L13.8658 8.30143C13.7718 8.56327 13.7242 8.80388 13.7242 9.02427C13.7242 9.09403 13.7313 9.14761 13.7445 9.18603C13.7465 9.19512 13.7495 9.20119 13.7515 9.20523C13.7515 9.20422 13.7505 9.20321 13.7495 9.2022C13.7657 9.21838 13.798 9.22646 13.8456 9.22646C13.9386 9.22646 14.0104 9.20321 14.0619 9.15671C14.1933 9.03842 14.3258 8.88071 14.4602 8.68257C14.5664 8.52384 14.7018 8.40758 14.8656 8.33581C15.0446 8.25695 15.2346 8.24179 15.4348 8.2893C15.7027 8.354 15.9251 8.49554 16.1041 8.71593C16.2143 8.85342 16.284 8.999 16.3123 9.15367C16.3467 9.34778 16.3153 9.53279 16.2193 9.70667L16.2112 9.72083L16.2031 9.73397C16.1101 9.88258 15.9959 10.107 15.8614 10.4052C15.7098 10.7419 15.5288 11.1058 15.3165 11.4961C15.0961 11.9025 14.8434 12.2887 14.5593 12.6546C14.254 13.0459 13.9072 13.3714 13.517 13.6282C13.0823 13.9163 12.593 14.0609 12.0511 14.0609ZM12.0511 12.8477C12.3503 12.8477 12.6162 12.7709 12.8488 12.6172C13.1278 12.4332 13.3785 12.1967 13.6019 11.9096C13.8456 11.5962 14.0619 11.2656 14.251 10.9178C14.4481 10.5539 14.6169 10.2172 14.7564 9.90785C14.9131 9.55907 15.0527 9.28712 15.175 9.09099L15.6885 9.41248L15.1588 9.11829C15.1163 9.19512 15.1022 9.27903 15.1184 9.368C15.1275 9.41754 15.1416 9.45494 15.1608 9.47921C15.1558 9.47314 15.1527 9.4691 15.1507 9.46808H15.1517C15.2164 9.48426 15.2832 9.47718 15.3529 9.44584C15.4055 9.42259 15.4419 9.39631 15.4621 9.36598C15.273 9.64298 15.0779 9.87348 14.8747 10.0565C14.5927 10.3112 14.2489 10.4396 13.8456 10.4396C13.4634 10.4396 13.145 10.3122 12.8922 10.0595C12.6385 9.80676 12.5121 9.46101 12.5121 9.02427C12.5121 8.66336 12.5839 8.28425 12.7264 7.88795L13.0904 6.88507C13.1894 6.61211 13.24 6.35027 13.24 6.09854C13.24 6.02676 13.2339 5.97015 13.2238 5.92769C13.2208 5.91758 13.2188 5.9105 13.2167 5.90545C13.2178 5.90848 13.2208 5.91253 13.2248 5.91859C13.242 5.94083 13.2643 5.95903 13.2916 5.97116C13.2996 5.97419 13.3067 5.97723 13.3128 5.97824C13.3098 5.97723 13.3037 5.97723 13.2966 5.97723C13.0691 5.97723 12.8356 6.18953 12.596 6.61413C12.2604 7.20959 11.9106 8.07194 11.5476 9.2022C11.4364 9.56716 11.3455 9.94728 11.2737 10.3446C11.2049 10.7288 11.1706 11.0917 11.1706 11.4334C11.1706 11.8863 11.2565 12.2624 11.4294 12.5616C11.4829 12.6557 11.5517 12.7234 11.6376 12.7679C11.7417 12.8215 11.8792 12.8477 12.0511 12.8477Z" fill="#1C1254"/>
<path d="M20.2476 0.480469C20.9269 0.480469 21.4466 0.652333 21.8065 0.99606C22.1603 1.33372 22.3564 1.7462 22.3959 2.23449C22.4292 2.65303 22.3736 3.07258 22.227 3.49314C22.0794 3.91471 21.8651 4.2736 21.5841 4.56881C21.2434 4.92568 20.8622 5.10361 20.4417 5.10361C20.199 5.10361 19.9968 5.04598 19.8351 4.93073C19.7198 4.84884 19.6329 4.7437 19.5743 4.61733C19.5217 4.50613 19.4954 4.38481 19.4954 4.25541C19.4954 4.17655 19.4893 4.11387 19.4772 4.06636C19.4742 4.05321 19.4711 4.04412 19.4681 4.03704C19.4681 4.03704 19.4701 4.04007 19.4722 4.0431C19.4863 4.0613 19.5035 4.07546 19.5247 4.08455C19.5298 4.08556 19.5328 4.08759 19.5338 4.08759C19.5268 4.08556 19.5166 4.08556 19.5035 4.08556C19.369 4.08556 19.2356 4.17958 19.1032 4.36863C18.8838 4.68203 18.6917 5.0844 18.5269 5.57876L17.9517 5.38667V4.7801H19.6491C19.8796 4.7801 20.0717 4.86401 20.2273 5.03082C20.3375 5.15011 20.4134 5.30175 20.4528 5.48575C20.5023 5.71827 20.5003 5.97101 20.4467 6.24599C20.3931 6.52199 20.292 6.76866 20.1434 6.98804C20.0393 7.14171 19.9139 7.25999 19.7663 7.3439C19.6076 7.43489 19.4337 7.48038 19.2457 7.48038V6.26824C19.2265 6.26824 19.2073 6.26925 19.1881 6.27026C19.1476 6.2743 19.1072 6.28239 19.0678 6.29553C18.9899 6.31878 18.9192 6.3572 18.8575 6.40977C18.7766 6.4775 18.717 6.56141 18.6806 6.65948C18.629 6.79394 18.627 6.92941 18.6725 7.06589C18.7483 7.29436 18.904 7.42882 19.1396 7.47027C19.1466 7.47128 19.1527 7.47229 19.1577 7.4733C19.1577 7.4733 19.1577 7.4733 19.1557 7.4733C19.1426 7.47128 19.1173 7.46926 19.0819 7.46522C19.0051 7.45713 18.8838 7.445 18.718 7.42882C18.3894 7.39748 17.9962 7.36513 17.5382 7.33379L17.5796 6.72822L18.1721 6.85763C18.0467 7.43489 17.9446 8.01215 17.8657 8.58941C17.7849 9.17981 17.7181 9.68934 17.6646 10.118C17.6221 10.5052 17.5857 10.8944 17.5544 11.2887C17.518 11.7244 17.4502 12.1288 17.3481 12.4988C17.2288 12.9366 17.0287 13.2954 16.7476 13.5755C16.4241 13.899 15.9803 14.0607 15.4142 14.0607C15.0694 14.0607 14.7742 13.9981 14.5285 13.8747C14.2404 13.7291 14.0301 13.5098 13.8987 13.2176C13.7036 12.7839 13.6692 12.1773 13.7966 11.3999C13.9078 10.7236 14.0948 9.88142 14.3587 8.87147C14.479 8.44181 14.5993 8.02327 14.7186 7.61686C14.8399 7.20439 14.9663 6.80506 15.0987 6.41887L15.6719 6.61601V7.22157H15.4465C14.9066 7.22157 14.5134 7.10329 14.2667 6.86774C14.1333 6.73934 14.0382 6.59478 13.9796 6.43403C13.9189 6.26318 13.9038 6.08626 13.9341 5.90126C13.9806 5.62728 14.0948 5.38465 14.2768 5.17538C14.5063 4.91152 14.7611 4.7801 15.0421 4.7801H16.1249V5.38667L15.5618 5.16123C15.9217 4.26451 16.3159 3.47899 16.7456 2.80569C17.1965 2.10003 17.6999 1.544 18.258 1.1376C18.8605 0.699848 19.5237 0.480469 20.2476 0.480469ZM20.2476 1.69261C19.7866 1.69261 19.361 1.83415 18.9717 2.11823C18.538 2.43466 18.1367 2.8805 17.7677 3.45776C17.3785 4.06737 17.0186 4.78515 16.688 5.61212L16.5353 5.99325H15.0421C15.1058 5.99325 15.1614 5.9791 15.2059 5.9518C15.2099 5.94978 15.214 5.94776 15.216 5.94473V5.94574C15.2099 5.95079 15.2018 5.95989 15.1917 5.97101C15.1594 6.00842 15.1392 6.05189 15.1311 6.10042C15.1341 6.07817 15.1311 6.0529 15.122 6.02459C15.1169 6.01246 15.1119 6.00235 15.1058 5.99325V5.99224C15.0917 5.9791 15.0805 5.97 15.0714 5.96596C15.0805 5.97 15.0957 5.97506 15.1169 5.98011C15.1968 5.99932 15.306 6.00943 15.4465 6.00943H16.5212L16.2462 6.81213C16.1198 7.18114 15.9985 7.56328 15.8822 7.95857C15.7639 8.36093 15.6477 8.76633 15.5314 9.17779C15.2777 10.1513 15.0977 10.9571 14.9936 11.596C14.9056 12.1328 14.9087 12.5079 15.0047 12.7202C15.0431 12.8051 15.1796 12.8476 15.4142 12.8476C15.6447 12.8476 15.8044 12.8051 15.8903 12.7182C16.0197 12.5888 16.1158 12.4088 16.1795 12.1783C16.2603 11.8811 16.3159 11.5515 16.3452 11.1906C16.3776 10.7862 16.417 10.3788 16.4615 9.96735C16.5151 9.53466 16.5828 9.02008 16.6637 8.42563C16.7476 7.81602 16.8548 7.20742 16.9882 6.59983L17.0994 6.08727L17.6221 6.12367C18.0912 6.15703 18.4956 6.18938 18.8353 6.22274C19.0031 6.23892 19.1274 6.25105 19.2063 6.25914C19.2487 6.26318 19.2801 6.26722 19.3003 6.26925C19.3195 6.27127 19.3367 6.2743 19.3508 6.27632C19.5884 6.31878 19.7461 6.45425 19.822 6.68273C19.8674 6.8182 19.8654 6.95367 19.8149 7.08813C19.7775 7.1872 19.7178 7.2701 19.6369 7.33783C19.5753 7.3904 19.5045 7.42882 19.4267 7.45308C19.3872 7.46522 19.3468 7.4733 19.3053 7.47735C19.2851 7.47937 19.2659 7.48038 19.2457 7.48038V6.26824C19.2184 6.26824 19.1921 6.27531 19.1648 6.29149C19.1537 6.29755 19.1446 6.30362 19.1375 6.3107L19.1396 6.30766C19.1952 6.22476 19.2346 6.12771 19.2568 6.01448C19.2781 5.90227 19.2821 5.81027 19.2669 5.74051C19.274 5.77387 19.2983 5.81229 19.3387 5.85576C19.4236 5.94776 19.5268 5.99325 19.6491 5.99325H17.1105L17.3764 5.1956C17.5786 4.58902 17.8233 4.08152 18.1104 3.67208C18.4844 3.1393 18.9485 2.87241 19.5035 2.87241C19.9018 2.87241 20.2122 3.01597 20.4326 3.30308C20.6166 3.54167 20.7086 3.85911 20.7086 4.25541C20.7086 4.20587 20.6964 4.15532 20.6732 4.10477C20.6418 4.03906 20.5974 3.98548 20.5397 3.94403C20.5033 3.91775 20.468 3.90056 20.4336 3.89247C20.4285 3.89146 20.4255 3.89045 20.4235 3.89045C20.4275 3.89146 20.4336 3.89146 20.4417 3.89146C20.5165 3.89146 20.6044 3.83788 20.7065 3.73173C20.8673 3.5629 20.9916 3.35059 21.0816 3.09381C21.1726 2.83399 21.207 2.58024 21.1878 2.33154C21.1726 2.15058 21.0998 1.99793 20.9684 1.87257C20.843 1.75226 20.6034 1.69261 20.2476 1.69261Z" fill="#1C1254"/>
<path d="M20.3926 14.0605C19.5899 14.0605 18.9854 13.7956 18.5779 13.2658C18.2089 12.7846 18.0239 12.177 18.0239 11.4411C18.0239 10.7758 18.1543 10.0661 18.4131 9.31196C18.5537 8.89949 18.7114 8.45365 18.8853 7.97648L19.4514 6.42364L20.0206 6.6319V7.23746C19.6162 7.23746 19.2927 7.11615 19.0511 6.87453C18.8438 6.66728 18.7094 6.42364 18.6457 6.14259C18.584 5.87064 18.588 5.62195 18.6568 5.39549C18.7073 5.22868 18.7902 5.0922 18.9055 4.98706C19.0551 4.84957 19.233 4.77981 19.4393 4.77981C19.7486 4.77981 19.9781 4.70601 20.1298 4.5574C20.335 4.35723 20.4755 4.15302 20.5513 3.94779L20.5554 3.93768L20.5594 3.92858C20.799 3.34121 21.0619 2.95098 21.346 2.7589C21.6321 2.56479 21.9394 2.46875 22.268 2.46875C22.5419 2.46875 22.7775 2.53446 22.9736 2.66589C23.1889 2.81046 23.3355 3.01568 23.4154 3.28156C23.5357 3.68595 23.4376 4.21266 23.1202 4.86069L22.5753 4.59481L23.1263 4.84654C23.0373 5.04064 22.9908 5.16903 22.9857 5.23272C22.9888 5.19229 22.9837 5.14881 22.9706 5.10231C22.9473 5.02447 22.9059 4.95673 22.8462 4.89911C22.7937 4.84856 22.735 4.81419 22.6703 4.79397C22.64 4.78487 22.6137 4.77981 22.5915 4.77981H23.4326C23.6621 4.77981 23.8552 4.86372 24.0098 5.03053C24.121 5.14982 24.1959 5.30147 24.2353 5.48547C24.2848 5.71799 24.2828 5.97073 24.2292 6.24571C24.1756 6.5217 24.0745 6.76838 23.9259 6.98776C23.8218 7.14142 23.6964 7.25971 23.5488 7.34362C23.3901 7.4346 23.2162 7.4801 23.0282 7.4801C22.5642 7.4801 22.2295 7.49627 22.0243 7.52963C21.9768 7.53671 21.9434 7.54581 21.9232 7.55794C21.9273 7.55592 21.9323 7.54985 21.9374 7.54075C21.8717 7.64286 21.7938 7.85011 21.7018 8.16047C21.5845 8.54363 21.5835 8.82164 21.6988 8.99654C21.7473 9.07135 21.809 9.12594 21.8818 9.16032C21.9727 9.2048 22.091 9.22603 22.2356 9.22603C22.4509 9.22603 22.639 9.18054 22.7987 9.08854C22.9675 8.99149 23.1071 8.85905 23.2152 8.69325C23.3285 8.5224 23.47 8.40311 23.6388 8.33234C23.8228 8.25652 24.0159 8.24641 24.2181 8.30302C24.4719 8.37379 24.6842 8.51027 24.856 8.71246C24.9733 8.84995 25.0461 8.99957 25.0744 9.16234C25.1067 9.34735 25.0794 9.52629 24.9925 9.69916L24.9895 9.70523L24.9864 9.7123C24.8914 9.89124 24.764 10.1399 24.6053 10.4594C24.4365 10.7961 24.2353 11.16 24.0007 11.5512C23.7541 11.9617 23.467 12.3489 23.1384 12.7128C22.7926 13.095 22.3994 13.4104 21.9596 13.6591C21.4845 13.926 20.9618 14.0605 20.3926 14.0605ZM20.3926 12.8473C20.7505 12.8473 21.074 12.7654 21.3641 12.6026C21.6897 12.4187 21.9808 12.1851 22.2386 11.9C22.5136 11.5947 22.7542 11.2702 22.9605 10.9275C23.1788 10.5635 23.3659 10.2269 23.5205 9.91652C23.6843 9.58998 23.8157 9.33218 23.9148 9.14414L24.4506 9.42822L23.9087 9.15728C23.8754 9.22199 23.8663 9.29376 23.8794 9.37161C23.8895 9.42519 23.9067 9.46765 23.932 9.49798C23.9209 9.48383 23.9067 9.47473 23.8916 9.47068C23.9583 9.48888 24.029 9.48383 24.1028 9.45249C24.1615 9.42822 24.2039 9.39587 24.2312 9.35543C24.0159 9.68501 23.7399 9.94584 23.4023 10.1399C23.0555 10.3391 22.6673 10.4392 22.2356 10.4392C21.907 10.4392 21.6139 10.3775 21.3571 10.2532C21.0821 10.1217 20.8597 9.92562 20.6878 9.6658C20.3613 9.17245 20.3117 8.55677 20.5382 7.81877C20.6625 7.39619 20.7889 7.08481 20.9173 6.88565C21.1124 6.58236 21.4177 6.39836 21.8332 6.33164C22.1022 6.28918 22.5005 6.26795 23.0282 6.26795C23.0019 6.26795 22.9746 6.27503 22.9473 6.2912C22.9362 6.29727 22.9281 6.30333 22.921 6.31041L22.922 6.30738C22.9787 6.22448 23.0171 6.12743 23.0393 6.0142C23.0616 5.90198 23.0646 5.80998 23.0494 5.74023C23.0565 5.77359 23.0808 5.81201 23.1212 5.85548C23.2061 5.94748 23.3103 5.99297 23.4326 5.99297H22.5915C22.3529 5.99297 22.1578 5.91917 22.0051 5.77258C21.8322 5.60678 21.7564 5.39448 21.7766 5.13567C21.7938 4.93045 21.8757 4.66557 22.0243 4.34207L22.0304 4.32791C22.1345 4.11662 22.2022 3.9397 22.2346 3.79513C22.2548 3.70819 22.2609 3.65259 22.2528 3.62731C22.2518 3.62428 22.2518 3.62327 22.2518 3.62226C22.2528 3.6263 22.2548 3.63035 22.2589 3.63439C22.269 3.64956 22.2821 3.6627 22.2983 3.67281C22.3084 3.67988 22.3165 3.68393 22.3215 3.68494C22.3104 3.68292 22.2922 3.6809 22.268 3.6809C22.1871 3.6809 22.1062 3.70819 22.0263 3.76278C22.0041 3.77694 21.9687 3.82344 21.9202 3.90129C21.8444 4.02058 21.7655 4.18334 21.6816 4.38756L21.1205 4.15807L21.6887 4.36835C21.5492 4.74443 21.3126 5.09624 20.979 5.4238C20.5918 5.80291 20.0782 5.99297 19.4393 5.99297C19.5485 5.99297 19.6435 5.95455 19.7264 5.87873C19.7739 5.83526 19.8032 5.79179 19.8164 5.74933C19.8103 5.77056 19.8143 5.81302 19.8285 5.8757C19.8406 5.92827 19.8669 5.97578 19.9084 6.01723C19.9053 6.0142 19.9023 6.01117 19.8993 6.00914C19.8993 6.00914 19.9013 6.01015 19.9043 6.01117C19.9306 6.02026 19.97 6.02532 20.0206 6.02532H20.887L20.0246 8.39097C19.8538 8.86107 19.6991 9.29983 19.5596 9.70624C19.3442 10.332 19.2371 10.9103 19.2371 11.4411C19.2371 11.9021 19.3382 12.264 19.5394 12.5268C19.7041 12.7411 19.9882 12.8473 20.3926 12.8473Z" fill="#1C1254"/>
<path d="M26.3897 14.061C25.6164 14.061 24.9693 13.879 24.4497 13.514C23.9382 13.1562 23.5611 12.683 23.3164 12.0947C23.0849 11.5386 22.9727 10.931 22.9787 10.2719C22.9848 9.63094 23.095 8.99201 23.3093 8.35409C23.5247 7.71415 23.836 7.12779 24.2435 6.59501C24.661 6.04909 25.1675 5.60933 25.764 5.27773C26.3786 4.93602 27.0671 4.76416 27.8294 4.76416C28.446 4.76416 28.9616 4.8875 29.3751 5.13215C29.7977 5.38287 30.1111 5.71952 30.3153 6.1421C30.5064 6.53739 30.6014 6.95997 30.6014 7.40783C30.6014 7.90118 30.469 8.38644 30.2021 8.86665C29.9382 9.3418 29.5702 9.73406 29.0981 10.0414C28.6098 10.3609 28.0406 10.5206 27.3926 10.5206C27.1358 10.5206 26.8851 10.5014 26.6394 10.465C26.3463 10.4205 26.0753 10.3255 25.8246 10.1779C25.8812 10.2122 25.9469 10.2315 26.0187 10.2345C26.0794 10.2375 26.136 10.2284 26.1865 10.2072C26.2967 10.1607 26.3766 10.0859 26.4271 9.97972C26.4514 9.93119 26.4625 9.88772 26.4625 9.84931L26.4595 9.8483C26.4797 9.87357 26.5242 9.90188 26.595 9.93322C26.8457 10.0444 27.1601 10.1 27.5382 10.1C27.9962 10.1 28.4774 9.97972 28.9829 9.7381C29.4681 9.50659 29.8624 9.15882 30.1667 8.69276C30.2809 8.52191 30.4245 8.4006 30.5964 8.33084C30.7783 8.25704 30.9704 8.24794 31.1716 8.30152C31.4334 8.37229 31.6508 8.50877 31.8237 8.71298C31.947 8.85856 32.0198 9.01829 32.042 9.19218C32.0663 9.38426 32.0259 9.56725 31.9217 9.74113L31.4021 9.42875L31.9349 9.71687C31.1858 11.1029 30.3557 12.1644 29.4469 12.8994C28.4895 13.6738 27.4705 14.061 26.3897 14.061ZM26.3897 12.8478C27.1844 12.8478 27.9497 12.5506 28.6846 11.9562C29.4681 11.3233 30.196 10.3841 30.8683 9.14062L30.8754 9.12849L30.8825 9.11737C30.843 9.18308 30.8279 9.25789 30.839 9.34281C30.8471 9.40853 30.8673 9.46009 30.8996 9.4985C30.8895 9.48637 30.8754 9.47727 30.8562 9.47222C30.9168 9.4894 30.9825 9.48334 31.0513 9.45503C31.1099 9.43178 31.1534 9.39842 31.1817 9.35596C30.7531 10.0121 30.194 10.5034 29.5045 10.833C28.8342 11.1524 28.1791 11.3122 27.5382 11.3122C26.9892 11.3122 26.5111 11.2222 26.1046 11.0422C25.8458 10.928 25.6447 10.7774 25.5001 10.5893C25.3333 10.374 25.2504 10.1273 25.2504 9.84931C25.2504 9.70373 25.2787 9.5723 25.3343 9.45503C25.4172 9.28317 25.5456 9.15983 25.7205 9.08704C25.9732 8.9819 26.2128 8.99706 26.4393 9.13253C26.5545 9.20027 26.6819 9.24475 26.8194 9.26598C27.0054 9.29328 27.1965 9.30743 27.3926 9.30743C27.8 9.30743 28.1478 9.21341 28.4349 9.02638C28.7392 8.82722 28.9748 8.57853 29.1426 8.27726C29.3064 7.98105 29.3893 7.6909 29.3893 7.40783C29.3893 7.14498 29.3337 6.8983 29.2235 6.66882C29.1254 6.46662 28.9697 6.30184 28.7564 6.17547C28.534 6.04303 28.2246 5.97732 27.8294 5.97732C27.2764 5.97732 26.785 6.09762 26.3533 6.33722C25.9045 6.58693 25.5223 6.91852 25.2069 7.331C24.8804 7.75762 24.6317 8.22772 24.4588 8.74129C24.2849 9.25688 24.1959 9.77045 24.1919 10.283C24.1869 10.7774 24.2687 11.2262 24.4355 11.6296C24.5902 12.0006 24.8268 12.2979 25.1463 12.5213C25.4566 12.7397 25.8711 12.8478 26.3897 12.8478ZM26.9721 8.09528C27.1035 8.09528 27.1985 8.06293 27.2551 7.99823C27.3309 7.91432 27.3684 7.84659 27.3684 7.79604C27.3684 7.77481 27.3623 7.75863 27.3512 7.7465C27.3542 7.75055 27.3582 7.75358 27.3623 7.7556C27.3623 7.7556 27.3603 7.7556 27.3572 7.75459C27.3289 7.74448 27.2865 7.73943 27.2309 7.73943C27.0924 7.73943 26.9913 7.77279 26.9276 7.84052C26.8548 7.91736 26.8184 7.98408 26.8184 8.03867C26.8184 8.05282 26.8275 8.07001 26.8447 8.08922C26.8396 8.08416 26.8356 8.08012 26.8315 8.07709C26.8305 8.07709 26.8295 8.07608 26.8295 8.07608C26.8315 8.07709 26.8336 8.0781 26.8356 8.07911C26.8669 8.08922 26.9124 8.09528 26.9721 8.09528ZM26.9721 9.30743C26.5363 9.30743 26.1956 9.17499 25.952 8.91012C25.7215 8.6594 25.6062 8.36824 25.6062 8.03867C25.6062 7.66259 25.7528 7.31886 26.046 7.00749C26.3493 6.68701 26.7446 6.52728 27.2309 6.52728C27.6514 6.52728 27.983 6.65365 28.2267 6.9074C28.4622 7.15408 28.5805 7.45029 28.5805 7.79604C28.5805 8.15493 28.441 8.49158 28.1599 8.80599C27.8617 9.14062 27.4654 9.30743 26.9721 9.30743Z" fill="#1C1254"/>
<path d="M33.3409 14.061C32.5675 14.061 31.9205 13.879 31.4009 13.514C30.8893 13.1562 30.5122 12.683 30.2676 12.0947C30.0361 11.5386 29.9239 10.931 29.9299 10.2719C29.936 9.63094 30.0462 8.99201 30.2605 8.35409C30.4758 7.71415 30.7872 7.12779 31.1946 6.59501C31.6122 6.04909 32.1187 5.60933 32.7151 5.27773C33.3298 4.93602 34.0183 4.76416 34.7805 4.76416C35.3972 4.76416 35.9128 4.8875 36.3263 5.13215C36.7489 5.38287 37.0623 5.71952 37.2665 6.1421C37.4576 6.53739 37.5526 6.95997 37.5526 7.40783C37.5526 7.90118 37.4201 8.38644 37.1533 8.86665C36.8894 9.3418 36.5214 9.73406 36.0493 10.0414C35.561 10.3609 34.9918 10.5206 34.3438 10.5206C34.087 10.5206 33.8363 10.5014 33.5906 10.465C33.2974 10.4205 33.0265 10.3255 32.7758 10.1779C32.8324 10.2122 32.8981 10.2315 32.9699 10.2345C33.0305 10.2375 33.0872 10.2284 33.1377 10.2072C33.2479 10.1607 33.3278 10.0859 33.3783 9.97972C33.4026 9.93119 33.4137 9.88772 33.4137 9.84931L33.4107 9.8483C33.4309 9.87357 33.4754 9.90188 33.5461 9.93322C33.7969 10.0444 34.1113 10.1 34.4894 10.1C34.9473 10.1 35.4286 9.97972 35.934 9.7381C36.4193 9.50659 36.8136 9.15882 37.1179 8.69276C37.2321 8.52191 37.3757 8.4006 37.5475 8.33084C37.7295 8.25704 37.9216 8.24794 38.1228 8.30152C38.3846 8.37229 38.602 8.50877 38.7748 8.71298C38.8982 8.85856 38.971 9.01829 38.9932 9.19218C39.0175 9.38426 38.977 9.56725 38.8729 9.74113L38.3533 9.42875L38.886 9.71687C38.1369 11.1029 37.3069 12.1644 36.3981 12.8994C35.4407 13.6738 34.4216 14.061 33.3409 14.061ZM33.3409 12.8478C34.1355 12.8478 34.9008 12.5506 35.6358 11.9562C36.4193 11.3233 37.1472 10.3841 37.8195 9.14062L37.8266 9.12849L37.8336 9.11737C37.7942 9.18308 37.779 9.25789 37.7902 9.34281C37.7982 9.40853 37.8185 9.46009 37.8508 9.4985C37.8407 9.48637 37.8266 9.47727 37.8073 9.47222C37.868 9.4894 37.9337 9.48334 38.0025 9.45503C38.0611 9.43178 38.1046 9.39842 38.1329 9.35596C37.7042 10.0121 37.1452 10.5034 36.4557 10.833C35.7854 11.1524 35.1303 11.3122 34.4894 11.3122C33.9404 11.3122 33.4622 11.2222 33.0558 11.0422C32.797 10.928 32.5958 10.7774 32.4513 10.5893C32.2845 10.374 32.2016 10.1273 32.2016 9.84931C32.2016 9.70373 32.2299 9.5723 32.2855 9.45503C32.3684 9.28317 32.4968 9.15983 32.6717 9.08704C32.9244 8.9819 33.164 8.99706 33.3904 9.13253C33.5057 9.20027 33.6331 9.24475 33.7706 9.26598C33.9566 9.29328 34.1477 9.30743 34.3438 9.30743C34.7512 9.30743 35.099 9.21341 35.3861 9.02638C35.6904 8.82722 35.9259 8.57853 36.0938 8.27726C36.2575 7.98105 36.3404 7.6909 36.3404 7.40783C36.3404 7.14498 36.2848 6.8983 36.1746 6.66882C36.0766 6.46662 35.9209 6.30184 35.7076 6.17547C35.4852 6.04303 35.1758 5.97732 34.7805 5.97732C34.2275 5.97732 33.7362 6.09762 33.3045 6.33722C32.8556 6.58693 32.4735 6.91852 32.1581 7.331C31.8315 7.75762 31.5828 8.22772 31.41 8.74129C31.2361 9.25688 31.1471 9.77045 31.1431 10.283C31.138 10.7774 31.2199 11.2262 31.3867 11.6296C31.5414 12.0006 31.778 12.2979 32.0974 12.5213C32.4078 12.7397 32.8223 12.8478 33.3409 12.8478ZM33.9232 8.09528C34.0547 8.09528 34.1497 8.06293 34.2063 7.99823C34.2821 7.91432 34.3195 7.84659 34.3195 7.79604C34.3195 7.77481 34.3135 7.75863 34.3023 7.7465C34.3054 7.75055 34.3094 7.75358 34.3135 7.7556C34.3135 7.7556 34.3114 7.7556 34.3084 7.75459C34.2801 7.74448 34.2376 7.73943 34.182 7.73943C34.0435 7.73943 33.9424 7.77279 33.8787 7.84052C33.806 7.91736 33.7696 7.98408 33.7696 8.03867C33.7696 8.05282 33.7787 8.07001 33.7958 8.08922C33.7908 8.08416 33.7867 8.08012 33.7827 8.07709C33.7817 8.07709 33.7807 8.07608 33.7807 8.07608C33.7827 8.07709 33.7847 8.0781 33.7867 8.07911C33.8181 8.08922 33.8636 8.09528 33.9232 8.09528ZM33.9232 9.30743C33.4875 9.30743 33.1468 9.17499 32.9032 8.91012C32.6727 8.6594 32.5574 8.36824 32.5574 8.03867C32.5574 7.66259 32.704 7.31886 32.9972 7.00749C33.3005 6.68701 33.6958 6.52728 34.182 6.52728C34.6026 6.52728 34.9342 6.65365 35.1778 6.9074C35.4134 7.15408 35.5317 7.45029 35.5317 7.79604C35.5317 8.15493 35.3922 8.49158 35.1111 8.80599C34.8129 9.14062 34.4166 9.30743 33.9232 9.30743Z" fill="#1C1254"/>
<path d="M4.21271 14.9582C3.47875 14.9582 2.83982 14.8208 2.29592 14.5458C1.75101 14.2708 1.33348 13.9038 1.04233 13.4458C0.75117 12.9879 0.605591 12.4783 0.605591 11.9173C0.605591 11.4967 0.681413 11.1115 0.832047 10.7607C0.983691 10.4109 1.19397 10.1299 1.46289 9.9196C1.7318 9.70932 2.0452 9.60418 2.40106 9.60418C2.56282 9.60418 2.64369 9.66888 2.64369 9.79829C2.64369 10.2087 2.75692 10.5727 2.98338 10.8901C3.20983 11.2086 3.51717 11.4542 3.90538 11.6261C4.29359 11.799 4.72426 11.8849 5.19941 11.8849C5.78981 11.8849 6.28721 11.7454 6.69159 11.4644C7.09598 11.1843 7.41645 10.7961 7.65403 10.2997C7.70761 10.1926 7.70256 10.1036 7.63785 10.0328C7.57315 9.96307 7.50238 9.97116 7.42757 10.0571C7.20112 10.3594 6.93624 10.5939 6.63498 10.7607C6.3327 10.9285 5.99403 11.0114 5.61997 11.0114C4.98306 11.0114 4.45231 10.7405 4.02669 10.1986C3.60006 9.65473 3.38776 8.87022 3.38776 7.8451C3.38776 6.99387 3.54648 6.18207 3.86494 5.4107C4.18238 4.64035 4.61811 3.95289 5.1711 3.34834C5.72612 2.74479 6.36202 2.26762 7.0798 1.91681C7.79657 1.56702 8.54873 1.39111 9.33627 1.39111C10.1986 1.39111 10.8487 1.60746 11.2854 2.03813C11.7221 2.46981 11.9405 3.01978 11.9405 3.68802C11.9405 4.18441 11.8243 4.608 11.5927 4.95779C11.3602 5.3086 11.067 5.57246 10.7112 5.75039C10.3553 5.92832 9.97722 6.01728 9.5789 6.01728C9.41715 6.01728 9.2655 5.97482 9.12599 5.88788C8.98547 5.80195 8.94806 5.68872 9.01276 5.54819C9.1634 5.21458 9.18766 4.89612 9.08555 4.59385C8.98244 4.29258 8.71049 4.14093 8.26869 4.14093C7.89059 4.14093 7.55394 4.24102 7.25773 4.44018C6.96051 4.64035 6.72596 4.89612 6.5541 5.20851C6.38123 5.52191 6.29529 5.85047 6.29529 6.19521C6.29529 6.65924 6.43481 7.04442 6.71585 7.35175C6.99589 7.65909 7.38916 7.81275 7.89666 7.81275C8.1767 7.81275 8.45471 7.76423 8.72969 7.66717C9.00468 7.57012 9.24933 7.39826 9.46568 7.14956C9.60519 6.99893 9.7538 6.92917 9.9105 6.93928C10.0662 6.9504 10.1986 7.01005 10.3068 7.11721C10.414 7.22538 10.4524 7.35479 10.42 7.50542C10.2684 8.14233 10.1066 8.71858 9.93476 9.23619C9.76189 9.75178 9.57284 10.3108 9.36862 10.9144C9.10982 11.7019 8.72969 12.4005 8.22826 13.0091C7.72682 13.6177 7.13338 14.0949 6.44896 14.4406C5.76656 14.7854 5.02148 14.9582 4.21271 14.9582Z" fill="white"/>
<path d="M13.8477 4.70739C13.4595 4.70739 13.1249 4.62449 12.8448 4.45667C12.5638 4.28987 12.4243 3.99062 12.4243 3.55894C12.4243 2.98774 12.583 2.5965 12.9014 2.38622C13.2189 2.17594 13.599 2.0708 14.0418 2.0708C14.4482 2.0708 14.795 2.1628 15.0811 2.34578C15.3662 2.52978 15.4875 2.87452 15.445 3.38101C15.4015 3.87739 15.2287 4.22213 14.9274 4.41624C14.6282 4.61034 14.2683 4.70739 13.8477 4.70739ZM12.0522 13.4543C11.5124 13.4543 11.1302 13.2581 10.9038 12.8638C10.6773 12.4706 10.5641 11.9934 10.5641 11.4323C10.5641 11.0552 10.6015 10.6559 10.6773 10.2353C10.7521 9.81478 10.8492 9.41242 10.9685 9.02623C11.3456 7.85149 11.7125 6.94769 12.0684 6.31685C12.4243 5.68601 12.8337 5.37059 13.2977 5.37059C13.6637 5.37059 13.8477 5.61322 13.8477 6.09848C13.8477 6.42199 13.785 6.75358 13.6617 7.09327C13.5373 7.43295 13.416 7.76758 13.2977 8.09614C13.1784 8.42572 13.1198 8.73507 13.1198 9.02623C13.1198 9.29312 13.1865 9.49431 13.322 9.62876C13.4565 9.76423 13.6314 9.83096 13.8477 9.83096C14.0954 9.83096 14.3016 9.75716 14.4664 9.60855C14.6332 9.45791 14.798 9.26381 14.9598 9.02623C15.0457 8.89683 15.1559 8.8483 15.2914 8.88065C15.4258 8.913 15.539 8.98579 15.631 9.09902C15.722 9.21225 15.7412 9.31638 15.6876 9.4104C15.5795 9.58327 15.4531 9.83096 15.3075 10.1545C15.1619 10.478 14.986 10.8288 14.7818 11.2059C14.5796 11.584 14.3461 11.9418 14.0822 12.2815C13.8174 12.6212 13.5181 12.9023 13.1845 13.1227C12.8499 13.3441 12.4728 13.4543 12.0522 13.4543Z" fill="white"/>
<path d="M20.2465 1.08789C20.7642 1.08789 21.1443 1.20415 21.3869 1.43566C21.6295 1.66515 21.764 1.94721 21.7913 2.28083C21.8176 2.61546 21.7721 2.95211 21.6538 3.29179C21.5345 3.63147 21.3647 3.91758 21.1443 4.14909C20.9229 4.38161 20.6883 4.49686 20.4406 4.49686C20.2142 4.49686 20.101 4.41598 20.101 4.25423C20.101 3.73661 19.9008 3.47781 19.5025 3.47781C19.1567 3.47781 18.8575 3.65877 18.6047 4.01968C18.354 4.38161 18.1367 4.83654 17.9537 5.38651H19.6481C19.7552 5.38651 19.826 5.46233 19.8583 5.61296C19.8907 5.76461 19.8877 5.93647 19.8502 6.13058C19.8118 6.32468 19.7421 6.49756 19.64 6.64819C19.5368 6.79983 19.4054 6.87465 19.2437 6.87465C19.2649 6.87465 19.1082 6.85847 18.7746 6.82612C18.443 6.79377 18.0447 6.76142 17.5816 6.72907C17.4522 7.3225 17.3471 7.91594 17.2662 8.50836C17.1853 9.1018 17.1176 9.61233 17.064 10.041C17.0206 10.4403 16.9832 10.8396 16.9508 11.238C16.9185 11.6373 16.8558 12.0043 16.7648 12.3379C16.6728 12.6725 16.5242 12.9424 16.32 13.1467C16.1147 13.3519 15.8125 13.454 15.4141 13.454C14.9178 13.454 14.5973 13.2922 14.4517 12.9687C14.3061 12.6452 14.2879 12.1549 14.3951 11.4968C14.5033 10.8396 14.6862 10.0157 14.945 9.02598C15.0633 8.60541 15.1816 8.19294 15.3009 7.78856C15.4192 7.38417 15.5435 6.99394 15.6729 6.61584H15.4465C15.0684 6.61584 14.8156 6.55417 14.6862 6.42982C14.5568 6.30648 14.5063 6.16293 14.5326 6.00117C14.5599 5.83942 14.6266 5.69687 14.7348 5.57252C14.8419 5.44919 14.945 5.38651 15.0421 5.38651H16.1259C16.4706 4.52416 16.8477 3.772 17.2581 3.13004C17.6676 2.48909 18.1195 1.98866 18.6128 1.62977C19.1082 1.26885 19.6531 1.08789 20.2465 1.08789Z" fill="white"/>
<path d="M20.3936 13.4538C19.7891 13.4538 19.3442 13.2678 19.0591 12.8958C18.773 12.5237 18.6305 12.0385 18.6305 11.44C18.6305 10.8415 18.7498 10.1975 18.9864 9.50701C19.1259 9.10061 19.2826 8.65983 19.4554 8.18467C19.6273 7.71053 19.8164 7.19292 20.0216 6.63183C19.784 6.63183 19.603 6.57016 19.4797 6.44582C19.3554 6.32248 19.2745 6.1769 19.2371 6.00908C19.1987 5.84227 19.1987 5.69669 19.2371 5.57234C19.2745 5.44901 19.3422 5.38633 19.4393 5.38633C19.9134 5.38633 20.2854 5.2549 20.5554 4.99003C20.8243 4.72617 21.0133 4.44815 21.1215 4.157C21.3156 3.68285 21.5037 3.38361 21.6876 3.25926C21.8706 3.13592 22.0647 3.07324 22.27 3.07324C22.5712 3.07324 22.7593 3.20062 22.8321 3.45336C22.9069 3.70712 22.8219 4.08724 22.5773 4.59373C22.458 4.85254 22.3933 5.04968 22.3832 5.18413C22.3721 5.3196 22.4418 5.38633 22.5935 5.38633H23.4305C23.5377 5.38633 23.6085 5.46215 23.6408 5.61278C23.6732 5.76443 23.6701 5.93629 23.6327 6.1304C23.5943 6.3245 23.5246 6.49738 23.4225 6.64801C23.3193 6.79965 23.1879 6.87446 23.0262 6.87446C22.5328 6.87446 22.1668 6.89367 21.9303 6.93108C21.6927 6.9695 21.5259 7.06351 21.4288 7.21415C21.3318 7.36579 21.2287 7.6246 21.1215 7.99057C20.9486 8.55165 20.9729 8.99951 21.1943 9.33313C21.4147 9.66472 21.7625 9.83052 22.2376 9.83052C22.5611 9.83052 22.8482 9.75975 23.099 9.6162C23.3517 9.47062 23.56 9.27449 23.7217 9.02579C23.8076 8.89639 23.9178 8.8509 24.0533 8.8883C24.1878 8.92672 24.301 8.99951 24.393 9.10667C24.484 9.21485 24.5032 9.321 24.4496 9.42614C24.3525 9.61013 24.2231 9.86287 24.0614 10.1864C23.8996 10.5099 23.7055 10.8607 23.4791 11.2378C23.2526 11.6159 22.9877 11.9717 22.6865 12.3054C22.3872 12.64 22.0455 12.915 21.6634 13.1303C21.2802 13.3467 20.8566 13.4538 20.3936 13.4538Z" fill="white"/>
<path d="M26.3918 13.4543C25.7448 13.4543 25.213 13.3087 24.7985 13.0175C24.383 12.7264 24.0757 12.3412 23.8765 11.861C23.6763 11.3818 23.5793 10.8531 23.5854 10.2758C23.5904 9.69955 23.6905 9.1233 23.8846 8.54907C24.0787 7.97283 24.3587 7.44409 24.7257 6.96388C25.0917 6.48469 25.5365 6.0985 26.0602 5.80734C26.5829 5.51618 27.1722 5.37061 27.8274 5.37061C28.3338 5.37061 28.7463 5.46564 29.0648 5.65368C29.3822 5.84273 29.6168 6.09344 29.7684 6.40583C29.919 6.71923 29.9949 7.05285 29.9949 7.40871C29.9949 7.79692 29.8867 8.18513 29.6714 8.57334C29.455 8.96155 29.1537 9.28303 28.7655 9.53577C28.3773 9.78649 27.9204 9.91185 27.3947 9.91185C27.1682 9.91185 26.9468 9.89568 26.7315 9.86333C26.5151 9.83098 26.316 9.76122 26.133 9.65305C26.0784 9.6207 26.0198 9.61867 25.955 9.64496C25.8903 9.67226 25.858 9.73999 25.858 9.84715C25.858 10.1282 26.0218 10.3405 26.3513 10.4861C26.6799 10.6317 27.0752 10.7044 27.5362 10.7044C28.0862 10.7044 28.6543 10.5649 29.2427 10.2839C29.8301 10.0039 30.3072 9.5843 30.6742 9.02625C30.7602 8.89685 30.8734 8.85135 31.0139 8.88876C31.1534 8.92717 31.2697 8.99996 31.3617 9.10713C31.4527 9.2153 31.4668 9.32145 31.4021 9.42659C30.6904 10.7429 29.9109 11.7427 29.0648 12.4271C28.2176 13.1126 27.3269 13.4543 26.3918 13.4543ZM26.9741 8.70274C27.2835 8.70274 27.5281 8.60367 27.706 8.4035C27.884 8.20434 27.9729 8.00214 27.9729 7.79692C27.9729 7.61393 27.9103 7.45723 27.7869 7.32783C27.6626 7.19843 27.4776 7.13373 27.2329 7.13373C26.9195 7.13373 26.6718 7.23078 26.4888 7.42488C26.3048 7.61899 26.2139 7.82421 26.2139 8.03955C26.2139 8.21242 26.2755 8.36609 26.3999 8.50055C26.5232 8.63602 26.7153 8.70274 26.9741 8.70274Z" fill="white"/>
<path d="M33.3428 13.4543C32.6958 13.4543 32.1641 13.3087 31.7496 13.0175C31.3341 12.7264 31.0267 12.3412 30.8276 11.861C30.6274 11.3818 30.5303 10.8531 30.5364 10.2758C30.5415 9.69955 30.6415 9.1233 30.8356 8.54907C31.0298 7.97283 31.3098 7.44409 31.6768 6.96388C32.0427 6.48469 32.4876 6.0985 33.0112 5.80734C33.5339 5.51618 34.1233 5.37061 34.7784 5.37061C35.2849 5.37061 35.6974 5.46564 36.0158 5.65368C36.3333 5.84273 36.5678 6.09344 36.7195 6.40583C36.8701 6.71923 36.9459 7.05285 36.9459 7.40871C36.9459 7.79692 36.8377 8.18513 36.6224 8.57334C36.4061 8.96155 36.1048 9.28303 35.7166 9.53577C35.3284 9.78649 34.8714 9.91185 34.3457 9.91185C34.1193 9.91185 33.8979 9.89568 33.6825 9.86333C33.4662 9.83098 33.267 9.76122 33.084 9.65305C33.0294 9.6207 32.9708 9.61867 32.9061 9.64496C32.8414 9.67226 32.809 9.73999 32.809 9.84715C32.809 10.1282 32.9728 10.3405 33.3024 10.4861C33.631 10.6317 34.0262 10.7044 34.4872 10.7044C35.0372 10.7044 35.6054 10.5649 36.1938 10.2839C36.7811 10.0039 37.2583 9.5843 37.6253 9.02625C37.7112 8.89685 37.8244 8.85135 37.965 8.88876C38.1045 8.92717 38.2207 8.99996 38.3127 9.10713C38.4037 9.2153 38.4179 9.32145 38.3532 9.42659C37.6415 10.7429 36.862 11.7427 36.0158 12.4271C35.1686 13.1126 34.278 13.4543 33.3428 13.4543ZM33.9251 8.70274C34.2345 8.70274 34.4792 8.60367 34.6571 8.4035C34.835 8.20434 34.924 8.00214 34.924 7.79692C34.924 7.61393 34.8613 7.45723 34.738 7.32783C34.6136 7.19843 34.4286 7.13373 34.184 7.13373C33.8706 7.13373 33.6229 7.23078 33.4399 7.42488C33.2559 7.61899 33.1649 7.82421 33.1649 8.03955C33.1649 8.21242 33.2266 8.36609 33.3509 8.50055C33.4743 8.63602 33.6663 8.70274 33.9251 8.70274Z" fill="white"/>
</svg>
